G75*
%MOIN*%
%OFA0B0*%
%FSLAX25Y25*%
%IPPOS*%
%LPD*%
%AMOC8*
5,1,8,0,0,1.08239X$1,22.5*
%
%ADD10C,0.00000*%
%ADD11C,0.01000*%
%ADD12C,0.07400*%
%ADD13C,0.08000*%
%ADD14C,0.05200*%
%ADD15OC8,0.10000*%
%ADD16R,0.10000X0.10000*%
%ADD17C,0.02400*%
%ADD18R,0.03562X0.03562*%
%ADD19C,0.03693*%
%ADD20C,0.02200*%
%ADD21C,0.03000*%
%ADD22C,0.04000*%
%ADD23C,0.03200*%
%ADD24C,0.04143*%
%ADD25R,0.03993X0.03993*%
%ADD26C,0.04593*%
%ADD27C,0.02700*%
D10*
X0005000Y0005000D02*
X0208701Y0005000D01*
X0185959Y0016250D02*
X0185961Y0016403D01*
X0185967Y0016557D01*
X0185977Y0016710D01*
X0185991Y0016862D01*
X0186009Y0017015D01*
X0186031Y0017166D01*
X0186056Y0017317D01*
X0186086Y0017468D01*
X0186120Y0017618D01*
X0186157Y0017766D01*
X0186198Y0017914D01*
X0186243Y0018060D01*
X0186292Y0018206D01*
X0186345Y0018350D01*
X0186401Y0018492D01*
X0186461Y0018633D01*
X0186525Y0018773D01*
X0186592Y0018911D01*
X0186663Y0019047D01*
X0186738Y0019181D01*
X0186815Y0019313D01*
X0186897Y0019443D01*
X0186981Y0019571D01*
X0187069Y0019697D01*
X0187160Y0019820D01*
X0187254Y0019941D01*
X0187352Y0020059D01*
X0187452Y0020175D01*
X0187556Y0020288D01*
X0187662Y0020399D01*
X0187771Y0020507D01*
X0187883Y0020612D01*
X0187997Y0020713D01*
X0188115Y0020812D01*
X0188234Y0020908D01*
X0188356Y0021001D01*
X0188481Y0021090D01*
X0188608Y0021177D01*
X0188737Y0021259D01*
X0188868Y0021339D01*
X0189001Y0021415D01*
X0189136Y0021488D01*
X0189273Y0021557D01*
X0189412Y0021622D01*
X0189552Y0021684D01*
X0189694Y0021742D01*
X0189837Y0021797D01*
X0189982Y0021848D01*
X0190128Y0021895D01*
X0190275Y0021938D01*
X0190423Y0021977D01*
X0190572Y0022013D01*
X0190722Y0022044D01*
X0190873Y0022072D01*
X0191024Y0022096D01*
X0191177Y0022116D01*
X0191329Y0022132D01*
X0191482Y0022144D01*
X0191635Y0022152D01*
X0191788Y0022156D01*
X0191942Y0022156D01*
X0192095Y0022152D01*
X0192248Y0022144D01*
X0192401Y0022132D01*
X0192553Y0022116D01*
X0192706Y0022096D01*
X0192857Y0022072D01*
X0193008Y0022044D01*
X0193158Y0022013D01*
X0193307Y0021977D01*
X0193455Y0021938D01*
X0193602Y0021895D01*
X0193748Y0021848D01*
X0193893Y0021797D01*
X0194036Y0021742D01*
X0194178Y0021684D01*
X0194318Y0021622D01*
X0194457Y0021557D01*
X0194594Y0021488D01*
X0194729Y0021415D01*
X0194862Y0021339D01*
X0194993Y0021259D01*
X0195122Y0021177D01*
X0195249Y0021090D01*
X0195374Y0021001D01*
X0195496Y0020908D01*
X0195615Y0020812D01*
X0195733Y0020713D01*
X0195847Y0020612D01*
X0195959Y0020507D01*
X0196068Y0020399D01*
X0196174Y0020288D01*
X0196278Y0020175D01*
X0196378Y0020059D01*
X0196476Y0019941D01*
X0196570Y0019820D01*
X0196661Y0019697D01*
X0196749Y0019571D01*
X0196833Y0019443D01*
X0196915Y0019313D01*
X0196992Y0019181D01*
X0197067Y0019047D01*
X0197138Y0018911D01*
X0197205Y0018773D01*
X0197269Y0018633D01*
X0197329Y0018492D01*
X0197385Y0018350D01*
X0197438Y0018206D01*
X0197487Y0018060D01*
X0197532Y0017914D01*
X0197573Y0017766D01*
X0197610Y0017618D01*
X0197644Y0017468D01*
X0197674Y0017317D01*
X0197699Y0017166D01*
X0197721Y0017015D01*
X0197739Y0016862D01*
X0197753Y0016710D01*
X0197763Y0016557D01*
X0197769Y0016403D01*
X0197771Y0016250D01*
X0197769Y0016097D01*
X0197763Y0015943D01*
X0197753Y0015790D01*
X0197739Y0015638D01*
X0197721Y0015485D01*
X0197699Y0015334D01*
X0197674Y0015183D01*
X0197644Y0015032D01*
X0197610Y0014882D01*
X0197573Y0014734D01*
X0197532Y0014586D01*
X0197487Y0014440D01*
X0197438Y0014294D01*
X0197385Y0014150D01*
X0197329Y0014008D01*
X0197269Y0013867D01*
X0197205Y0013727D01*
X0197138Y0013589D01*
X0197067Y0013453D01*
X0196992Y0013319D01*
X0196915Y0013187D01*
X0196833Y0013057D01*
X0196749Y0012929D01*
X0196661Y0012803D01*
X0196570Y0012680D01*
X0196476Y0012559D01*
X0196378Y0012441D01*
X0196278Y0012325D01*
X0196174Y0012212D01*
X0196068Y0012101D01*
X0195959Y0011993D01*
X0195847Y0011888D01*
X0195733Y0011787D01*
X0195615Y0011688D01*
X0195496Y0011592D01*
X0195374Y0011499D01*
X0195249Y0011410D01*
X0195122Y0011323D01*
X0194993Y0011241D01*
X0194862Y0011161D01*
X0194729Y0011085D01*
X0194594Y0011012D01*
X0194457Y0010943D01*
X0194318Y0010878D01*
X0194178Y0010816D01*
X0194036Y0010758D01*
X0193893Y0010703D01*
X0193748Y0010652D01*
X0193602Y0010605D01*
X0193455Y0010562D01*
X0193307Y0010523D01*
X0193158Y0010487D01*
X0193008Y0010456D01*
X0192857Y0010428D01*
X0192706Y0010404D01*
X0192553Y0010384D01*
X0192401Y0010368D01*
X0192248Y0010356D01*
X0192095Y0010348D01*
X0191942Y0010344D01*
X0191788Y0010344D01*
X0191635Y0010348D01*
X0191482Y0010356D01*
X0191329Y0010368D01*
X0191177Y0010384D01*
X0191024Y0010404D01*
X0190873Y0010428D01*
X0190722Y0010456D01*
X0190572Y0010487D01*
X0190423Y0010523D01*
X0190275Y0010562D01*
X0190128Y0010605D01*
X0189982Y0010652D01*
X0189837Y0010703D01*
X0189694Y0010758D01*
X0189552Y0010816D01*
X0189412Y0010878D01*
X0189273Y0010943D01*
X0189136Y0011012D01*
X0189001Y0011085D01*
X0188868Y0011161D01*
X0188737Y0011241D01*
X0188608Y0011323D01*
X0188481Y0011410D01*
X0188356Y0011499D01*
X0188234Y0011592D01*
X0188115Y0011688D01*
X0187997Y0011787D01*
X0187883Y0011888D01*
X0187771Y0011993D01*
X0187662Y0012101D01*
X0187556Y0012212D01*
X0187452Y0012325D01*
X0187352Y0012441D01*
X0187254Y0012559D01*
X0187160Y0012680D01*
X0187069Y0012803D01*
X0186981Y0012929D01*
X0186897Y0013057D01*
X0186815Y0013187D01*
X0186738Y0013319D01*
X0186663Y0013453D01*
X0186592Y0013589D01*
X0186525Y0013727D01*
X0186461Y0013867D01*
X0186401Y0014008D01*
X0186345Y0014150D01*
X0186292Y0014294D01*
X0186243Y0014440D01*
X0186198Y0014586D01*
X0186157Y0014734D01*
X0186120Y0014882D01*
X0186086Y0015032D01*
X0186056Y0015183D01*
X0186031Y0015334D01*
X0186009Y0015485D01*
X0185991Y0015638D01*
X0185977Y0015790D01*
X0185967Y0015943D01*
X0185961Y0016097D01*
X0185959Y0016250D01*
X0185959Y0045000D02*
X0185961Y0045153D01*
X0185967Y0045307D01*
X0185977Y0045460D01*
X0185991Y0045612D01*
X0186009Y0045765D01*
X0186031Y0045916D01*
X0186056Y0046067D01*
X0186086Y0046218D01*
X0186120Y0046368D01*
X0186157Y0046516D01*
X0186198Y0046664D01*
X0186243Y0046810D01*
X0186292Y0046956D01*
X0186345Y0047100D01*
X0186401Y0047242D01*
X0186461Y0047383D01*
X0186525Y0047523D01*
X0186592Y0047661D01*
X0186663Y0047797D01*
X0186738Y0047931D01*
X0186815Y0048063D01*
X0186897Y0048193D01*
X0186981Y0048321D01*
X0187069Y0048447D01*
X0187160Y0048570D01*
X0187254Y0048691D01*
X0187352Y0048809D01*
X0187452Y0048925D01*
X0187556Y0049038D01*
X0187662Y0049149D01*
X0187771Y0049257D01*
X0187883Y0049362D01*
X0187997Y0049463D01*
X0188115Y0049562D01*
X0188234Y0049658D01*
X0188356Y0049751D01*
X0188481Y0049840D01*
X0188608Y0049927D01*
X0188737Y0050009D01*
X0188868Y0050089D01*
X0189001Y0050165D01*
X0189136Y0050238D01*
X0189273Y0050307D01*
X0189412Y0050372D01*
X0189552Y0050434D01*
X0189694Y0050492D01*
X0189837Y0050547D01*
X0189982Y0050598D01*
X0190128Y0050645D01*
X0190275Y0050688D01*
X0190423Y0050727D01*
X0190572Y0050763D01*
X0190722Y0050794D01*
X0190873Y0050822D01*
X0191024Y0050846D01*
X0191177Y0050866D01*
X0191329Y0050882D01*
X0191482Y0050894D01*
X0191635Y0050902D01*
X0191788Y0050906D01*
X0191942Y0050906D01*
X0192095Y0050902D01*
X0192248Y0050894D01*
X0192401Y0050882D01*
X0192553Y0050866D01*
X0192706Y0050846D01*
X0192857Y0050822D01*
X0193008Y0050794D01*
X0193158Y0050763D01*
X0193307Y0050727D01*
X0193455Y0050688D01*
X0193602Y0050645D01*
X0193748Y0050598D01*
X0193893Y0050547D01*
X0194036Y0050492D01*
X0194178Y0050434D01*
X0194318Y0050372D01*
X0194457Y0050307D01*
X0194594Y0050238D01*
X0194729Y0050165D01*
X0194862Y0050089D01*
X0194993Y0050009D01*
X0195122Y0049927D01*
X0195249Y0049840D01*
X0195374Y0049751D01*
X0195496Y0049658D01*
X0195615Y0049562D01*
X0195733Y0049463D01*
X0195847Y0049362D01*
X0195959Y0049257D01*
X0196068Y0049149D01*
X0196174Y0049038D01*
X0196278Y0048925D01*
X0196378Y0048809D01*
X0196476Y0048691D01*
X0196570Y0048570D01*
X0196661Y0048447D01*
X0196749Y0048321D01*
X0196833Y0048193D01*
X0196915Y0048063D01*
X0196992Y0047931D01*
X0197067Y0047797D01*
X0197138Y0047661D01*
X0197205Y0047523D01*
X0197269Y0047383D01*
X0197329Y0047242D01*
X0197385Y0047100D01*
X0197438Y0046956D01*
X0197487Y0046810D01*
X0197532Y0046664D01*
X0197573Y0046516D01*
X0197610Y0046368D01*
X0197644Y0046218D01*
X0197674Y0046067D01*
X0197699Y0045916D01*
X0197721Y0045765D01*
X0197739Y0045612D01*
X0197753Y0045460D01*
X0197763Y0045307D01*
X0197769Y0045153D01*
X0197771Y0045000D01*
X0197769Y0044847D01*
X0197763Y0044693D01*
X0197753Y0044540D01*
X0197739Y0044388D01*
X0197721Y0044235D01*
X0197699Y0044084D01*
X0197674Y0043933D01*
X0197644Y0043782D01*
X0197610Y0043632D01*
X0197573Y0043484D01*
X0197532Y0043336D01*
X0197487Y0043190D01*
X0197438Y0043044D01*
X0197385Y0042900D01*
X0197329Y0042758D01*
X0197269Y0042617D01*
X0197205Y0042477D01*
X0197138Y0042339D01*
X0197067Y0042203D01*
X0196992Y0042069D01*
X0196915Y0041937D01*
X0196833Y0041807D01*
X0196749Y0041679D01*
X0196661Y0041553D01*
X0196570Y0041430D01*
X0196476Y0041309D01*
X0196378Y0041191D01*
X0196278Y0041075D01*
X0196174Y0040962D01*
X0196068Y0040851D01*
X0195959Y0040743D01*
X0195847Y0040638D01*
X0195733Y0040537D01*
X0195615Y0040438D01*
X0195496Y0040342D01*
X0195374Y0040249D01*
X0195249Y0040160D01*
X0195122Y0040073D01*
X0194993Y0039991D01*
X0194862Y0039911D01*
X0194729Y0039835D01*
X0194594Y0039762D01*
X0194457Y0039693D01*
X0194318Y0039628D01*
X0194178Y0039566D01*
X0194036Y0039508D01*
X0193893Y0039453D01*
X0193748Y0039402D01*
X0193602Y0039355D01*
X0193455Y0039312D01*
X0193307Y0039273D01*
X0193158Y0039237D01*
X0193008Y0039206D01*
X0192857Y0039178D01*
X0192706Y0039154D01*
X0192553Y0039134D01*
X0192401Y0039118D01*
X0192248Y0039106D01*
X0192095Y0039098D01*
X0191942Y0039094D01*
X0191788Y0039094D01*
X0191635Y0039098D01*
X0191482Y0039106D01*
X0191329Y0039118D01*
X0191177Y0039134D01*
X0191024Y0039154D01*
X0190873Y0039178D01*
X0190722Y0039206D01*
X0190572Y0039237D01*
X0190423Y0039273D01*
X0190275Y0039312D01*
X0190128Y0039355D01*
X0189982Y0039402D01*
X0189837Y0039453D01*
X0189694Y0039508D01*
X0189552Y0039566D01*
X0189412Y0039628D01*
X0189273Y0039693D01*
X0189136Y0039762D01*
X0189001Y0039835D01*
X0188868Y0039911D01*
X0188737Y0039991D01*
X0188608Y0040073D01*
X0188481Y0040160D01*
X0188356Y0040249D01*
X0188234Y0040342D01*
X0188115Y0040438D01*
X0187997Y0040537D01*
X0187883Y0040638D01*
X0187771Y0040743D01*
X0187662Y0040851D01*
X0187556Y0040962D01*
X0187452Y0041075D01*
X0187352Y0041191D01*
X0187254Y0041309D01*
X0187160Y0041430D01*
X0187069Y0041553D01*
X0186981Y0041679D01*
X0186897Y0041807D01*
X0186815Y0041937D01*
X0186738Y0042069D01*
X0186663Y0042203D01*
X0186592Y0042339D01*
X0186525Y0042477D01*
X0186461Y0042617D01*
X0186401Y0042758D01*
X0186345Y0042900D01*
X0186292Y0043044D01*
X0186243Y0043190D01*
X0186198Y0043336D01*
X0186157Y0043484D01*
X0186120Y0043632D01*
X0186086Y0043782D01*
X0186056Y0043933D01*
X0186031Y0044084D01*
X0186009Y0044235D01*
X0185991Y0044388D01*
X0185977Y0044540D01*
X0185967Y0044693D01*
X0185961Y0044847D01*
X0185959Y0045000D01*
X0158794Y0083593D02*
X0158796Y0083746D01*
X0158802Y0083900D01*
X0158812Y0084053D01*
X0158826Y0084205D01*
X0158844Y0084358D01*
X0158866Y0084509D01*
X0158891Y0084660D01*
X0158921Y0084811D01*
X0158955Y0084961D01*
X0158992Y0085109D01*
X0159033Y0085257D01*
X0159078Y0085403D01*
X0159127Y0085549D01*
X0159180Y0085693D01*
X0159236Y0085835D01*
X0159296Y0085976D01*
X0159360Y0086116D01*
X0159427Y0086254D01*
X0159498Y0086390D01*
X0159573Y0086524D01*
X0159650Y0086656D01*
X0159732Y0086786D01*
X0159816Y0086914D01*
X0159904Y0087040D01*
X0159995Y0087163D01*
X0160089Y0087284D01*
X0160187Y0087402D01*
X0160287Y0087518D01*
X0160391Y0087631D01*
X0160497Y0087742D01*
X0160606Y0087850D01*
X0160718Y0087955D01*
X0160832Y0088056D01*
X0160950Y0088155D01*
X0161069Y0088251D01*
X0161191Y0088344D01*
X0161316Y0088433D01*
X0161443Y0088520D01*
X0161572Y0088602D01*
X0161703Y0088682D01*
X0161836Y0088758D01*
X0161971Y0088831D01*
X0162108Y0088900D01*
X0162247Y0088965D01*
X0162387Y0089027D01*
X0162529Y0089085D01*
X0162672Y0089140D01*
X0162817Y0089191D01*
X0162963Y0089238D01*
X0163110Y0089281D01*
X0163258Y0089320D01*
X0163407Y0089356D01*
X0163557Y0089387D01*
X0163708Y0089415D01*
X0163859Y0089439D01*
X0164012Y0089459D01*
X0164164Y0089475D01*
X0164317Y0089487D01*
X0164470Y0089495D01*
X0164623Y0089499D01*
X0164777Y0089499D01*
X0164930Y0089495D01*
X0165083Y0089487D01*
X0165236Y0089475D01*
X0165388Y0089459D01*
X0165541Y0089439D01*
X0165692Y0089415D01*
X0165843Y0089387D01*
X0165993Y0089356D01*
X0166142Y0089320D01*
X0166290Y0089281D01*
X0166437Y0089238D01*
X0166583Y0089191D01*
X0166728Y0089140D01*
X0166871Y0089085D01*
X0167013Y0089027D01*
X0167153Y0088965D01*
X0167292Y0088900D01*
X0167429Y0088831D01*
X0167564Y0088758D01*
X0167697Y0088682D01*
X0167828Y0088602D01*
X0167957Y0088520D01*
X0168084Y0088433D01*
X0168209Y0088344D01*
X0168331Y0088251D01*
X0168450Y0088155D01*
X0168568Y0088056D01*
X0168682Y0087955D01*
X0168794Y0087850D01*
X0168903Y0087742D01*
X0169009Y0087631D01*
X0169113Y0087518D01*
X0169213Y0087402D01*
X0169311Y0087284D01*
X0169405Y0087163D01*
X0169496Y0087040D01*
X0169584Y0086914D01*
X0169668Y0086786D01*
X0169750Y0086656D01*
X0169827Y0086524D01*
X0169902Y0086390D01*
X0169973Y0086254D01*
X0170040Y0086116D01*
X0170104Y0085976D01*
X0170164Y0085835D01*
X0170220Y0085693D01*
X0170273Y0085549D01*
X0170322Y0085403D01*
X0170367Y0085257D01*
X0170408Y0085109D01*
X0170445Y0084961D01*
X0170479Y0084811D01*
X0170509Y0084660D01*
X0170534Y0084509D01*
X0170556Y0084358D01*
X0170574Y0084205D01*
X0170588Y0084053D01*
X0170598Y0083900D01*
X0170604Y0083746D01*
X0170606Y0083593D01*
X0170604Y0083440D01*
X0170598Y0083286D01*
X0170588Y0083133D01*
X0170574Y0082981D01*
X0170556Y0082828D01*
X0170534Y0082677D01*
X0170509Y0082526D01*
X0170479Y0082375D01*
X0170445Y0082225D01*
X0170408Y0082077D01*
X0170367Y0081929D01*
X0170322Y0081783D01*
X0170273Y0081637D01*
X0170220Y0081493D01*
X0170164Y0081351D01*
X0170104Y0081210D01*
X0170040Y0081070D01*
X0169973Y0080932D01*
X0169902Y0080796D01*
X0169827Y0080662D01*
X0169750Y0080530D01*
X0169668Y0080400D01*
X0169584Y0080272D01*
X0169496Y0080146D01*
X0169405Y0080023D01*
X0169311Y0079902D01*
X0169213Y0079784D01*
X0169113Y0079668D01*
X0169009Y0079555D01*
X0168903Y0079444D01*
X0168794Y0079336D01*
X0168682Y0079231D01*
X0168568Y0079130D01*
X0168450Y0079031D01*
X0168331Y0078935D01*
X0168209Y0078842D01*
X0168084Y0078753D01*
X0167957Y0078666D01*
X0167828Y0078584D01*
X0167697Y0078504D01*
X0167564Y0078428D01*
X0167429Y0078355D01*
X0167292Y0078286D01*
X0167153Y0078221D01*
X0167013Y0078159D01*
X0166871Y0078101D01*
X0166728Y0078046D01*
X0166583Y0077995D01*
X0166437Y0077948D01*
X0166290Y0077905D01*
X0166142Y0077866D01*
X0165993Y0077830D01*
X0165843Y0077799D01*
X0165692Y0077771D01*
X0165541Y0077747D01*
X0165388Y0077727D01*
X0165236Y0077711D01*
X0165083Y0077699D01*
X0164930Y0077691D01*
X0164777Y0077687D01*
X0164623Y0077687D01*
X0164470Y0077691D01*
X0164317Y0077699D01*
X0164164Y0077711D01*
X0164012Y0077727D01*
X0163859Y0077747D01*
X0163708Y0077771D01*
X0163557Y0077799D01*
X0163407Y0077830D01*
X0163258Y0077866D01*
X0163110Y0077905D01*
X0162963Y0077948D01*
X0162817Y0077995D01*
X0162672Y0078046D01*
X0162529Y0078101D01*
X0162387Y0078159D01*
X0162247Y0078221D01*
X0162108Y0078286D01*
X0161971Y0078355D01*
X0161836Y0078428D01*
X0161703Y0078504D01*
X0161572Y0078584D01*
X0161443Y0078666D01*
X0161316Y0078753D01*
X0161191Y0078842D01*
X0161069Y0078935D01*
X0160950Y0079031D01*
X0160832Y0079130D01*
X0160718Y0079231D01*
X0160606Y0079336D01*
X0160497Y0079444D01*
X0160391Y0079555D01*
X0160287Y0079668D01*
X0160187Y0079784D01*
X0160089Y0079902D01*
X0159995Y0080023D01*
X0159904Y0080146D01*
X0159816Y0080272D01*
X0159732Y0080400D01*
X0159650Y0080530D01*
X0159573Y0080662D01*
X0159498Y0080796D01*
X0159427Y0080932D01*
X0159360Y0081070D01*
X0159296Y0081210D01*
X0159236Y0081351D01*
X0159180Y0081493D01*
X0159127Y0081637D01*
X0159078Y0081783D01*
X0159033Y0081929D01*
X0158992Y0082077D01*
X0158955Y0082225D01*
X0158921Y0082375D01*
X0158891Y0082526D01*
X0158866Y0082677D01*
X0158844Y0082828D01*
X0158826Y0082981D01*
X0158812Y0083133D01*
X0158802Y0083286D01*
X0158796Y0083440D01*
X0158794Y0083593D01*
X0159419Y0131718D02*
X0159421Y0131871D01*
X0159427Y0132025D01*
X0159437Y0132178D01*
X0159451Y0132330D01*
X0159469Y0132483D01*
X0159491Y0132634D01*
X0159516Y0132785D01*
X0159546Y0132936D01*
X0159580Y0133086D01*
X0159617Y0133234D01*
X0159658Y0133382D01*
X0159703Y0133528D01*
X0159752Y0133674D01*
X0159805Y0133818D01*
X0159861Y0133960D01*
X0159921Y0134101D01*
X0159985Y0134241D01*
X0160052Y0134379D01*
X0160123Y0134515D01*
X0160198Y0134649D01*
X0160275Y0134781D01*
X0160357Y0134911D01*
X0160441Y0135039D01*
X0160529Y0135165D01*
X0160620Y0135288D01*
X0160714Y0135409D01*
X0160812Y0135527D01*
X0160912Y0135643D01*
X0161016Y0135756D01*
X0161122Y0135867D01*
X0161231Y0135975D01*
X0161343Y0136080D01*
X0161457Y0136181D01*
X0161575Y0136280D01*
X0161694Y0136376D01*
X0161816Y0136469D01*
X0161941Y0136558D01*
X0162068Y0136645D01*
X0162197Y0136727D01*
X0162328Y0136807D01*
X0162461Y0136883D01*
X0162596Y0136956D01*
X0162733Y0137025D01*
X0162872Y0137090D01*
X0163012Y0137152D01*
X0163154Y0137210D01*
X0163297Y0137265D01*
X0163442Y0137316D01*
X0163588Y0137363D01*
X0163735Y0137406D01*
X0163883Y0137445D01*
X0164032Y0137481D01*
X0164182Y0137512D01*
X0164333Y0137540D01*
X0164484Y0137564D01*
X0164637Y0137584D01*
X0164789Y0137600D01*
X0164942Y0137612D01*
X0165095Y0137620D01*
X0165248Y0137624D01*
X0165402Y0137624D01*
X0165555Y0137620D01*
X0165708Y0137612D01*
X0165861Y0137600D01*
X0166013Y0137584D01*
X0166166Y0137564D01*
X0166317Y0137540D01*
X0166468Y0137512D01*
X0166618Y0137481D01*
X0166767Y0137445D01*
X0166915Y0137406D01*
X0167062Y0137363D01*
X0167208Y0137316D01*
X0167353Y0137265D01*
X0167496Y0137210D01*
X0167638Y0137152D01*
X0167778Y0137090D01*
X0167917Y0137025D01*
X0168054Y0136956D01*
X0168189Y0136883D01*
X0168322Y0136807D01*
X0168453Y0136727D01*
X0168582Y0136645D01*
X0168709Y0136558D01*
X0168834Y0136469D01*
X0168956Y0136376D01*
X0169075Y0136280D01*
X0169193Y0136181D01*
X0169307Y0136080D01*
X0169419Y0135975D01*
X0169528Y0135867D01*
X0169634Y0135756D01*
X0169738Y0135643D01*
X0169838Y0135527D01*
X0169936Y0135409D01*
X0170030Y0135288D01*
X0170121Y0135165D01*
X0170209Y0135039D01*
X0170293Y0134911D01*
X0170375Y0134781D01*
X0170452Y0134649D01*
X0170527Y0134515D01*
X0170598Y0134379D01*
X0170665Y0134241D01*
X0170729Y0134101D01*
X0170789Y0133960D01*
X0170845Y0133818D01*
X0170898Y0133674D01*
X0170947Y0133528D01*
X0170992Y0133382D01*
X0171033Y0133234D01*
X0171070Y0133086D01*
X0171104Y0132936D01*
X0171134Y0132785D01*
X0171159Y0132634D01*
X0171181Y0132483D01*
X0171199Y0132330D01*
X0171213Y0132178D01*
X0171223Y0132025D01*
X0171229Y0131871D01*
X0171231Y0131718D01*
X0171229Y0131565D01*
X0171223Y0131411D01*
X0171213Y0131258D01*
X0171199Y0131106D01*
X0171181Y0130953D01*
X0171159Y0130802D01*
X0171134Y0130651D01*
X0171104Y0130500D01*
X0171070Y0130350D01*
X0171033Y0130202D01*
X0170992Y0130054D01*
X0170947Y0129908D01*
X0170898Y0129762D01*
X0170845Y0129618D01*
X0170789Y0129476D01*
X0170729Y0129335D01*
X0170665Y0129195D01*
X0170598Y0129057D01*
X0170527Y0128921D01*
X0170452Y0128787D01*
X0170375Y0128655D01*
X0170293Y0128525D01*
X0170209Y0128397D01*
X0170121Y0128271D01*
X0170030Y0128148D01*
X0169936Y0128027D01*
X0169838Y0127909D01*
X0169738Y0127793D01*
X0169634Y0127680D01*
X0169528Y0127569D01*
X0169419Y0127461D01*
X0169307Y0127356D01*
X0169193Y0127255D01*
X0169075Y0127156D01*
X0168956Y0127060D01*
X0168834Y0126967D01*
X0168709Y0126878D01*
X0168582Y0126791D01*
X0168453Y0126709D01*
X0168322Y0126629D01*
X0168189Y0126553D01*
X0168054Y0126480D01*
X0167917Y0126411D01*
X0167778Y0126346D01*
X0167638Y0126284D01*
X0167496Y0126226D01*
X0167353Y0126171D01*
X0167208Y0126120D01*
X0167062Y0126073D01*
X0166915Y0126030D01*
X0166767Y0125991D01*
X0166618Y0125955D01*
X0166468Y0125924D01*
X0166317Y0125896D01*
X0166166Y0125872D01*
X0166013Y0125852D01*
X0165861Y0125836D01*
X0165708Y0125824D01*
X0165555Y0125816D01*
X0165402Y0125812D01*
X0165248Y0125812D01*
X0165095Y0125816D01*
X0164942Y0125824D01*
X0164789Y0125836D01*
X0164637Y0125852D01*
X0164484Y0125872D01*
X0164333Y0125896D01*
X0164182Y0125924D01*
X0164032Y0125955D01*
X0163883Y0125991D01*
X0163735Y0126030D01*
X0163588Y0126073D01*
X0163442Y0126120D01*
X0163297Y0126171D01*
X0163154Y0126226D01*
X0163012Y0126284D01*
X0162872Y0126346D01*
X0162733Y0126411D01*
X0162596Y0126480D01*
X0162461Y0126553D01*
X0162328Y0126629D01*
X0162197Y0126709D01*
X0162068Y0126791D01*
X0161941Y0126878D01*
X0161816Y0126967D01*
X0161694Y0127060D01*
X0161575Y0127156D01*
X0161457Y0127255D01*
X0161343Y0127356D01*
X0161231Y0127461D01*
X0161122Y0127569D01*
X0161016Y0127680D01*
X0160912Y0127793D01*
X0160812Y0127909D01*
X0160714Y0128027D01*
X0160620Y0128148D01*
X0160529Y0128271D01*
X0160441Y0128397D01*
X0160357Y0128525D01*
X0160275Y0128655D01*
X0160198Y0128787D01*
X0160123Y0128921D01*
X0160052Y0129057D01*
X0159985Y0129195D01*
X0159921Y0129335D01*
X0159861Y0129476D01*
X0159805Y0129618D01*
X0159752Y0129762D01*
X0159703Y0129908D01*
X0159658Y0130054D01*
X0159617Y0130202D01*
X0159580Y0130350D01*
X0159546Y0130500D01*
X0159516Y0130651D01*
X0159491Y0130802D01*
X0159469Y0130953D01*
X0159451Y0131106D01*
X0159437Y0131258D01*
X0159427Y0131411D01*
X0159421Y0131565D01*
X0159419Y0131718D01*
X0089340Y0131718D02*
X0089342Y0131871D01*
X0089348Y0132025D01*
X0089358Y0132178D01*
X0089372Y0132330D01*
X0089390Y0132483D01*
X0089412Y0132634D01*
X0089437Y0132785D01*
X0089467Y0132936D01*
X0089501Y0133086D01*
X0089538Y0133234D01*
X0089579Y0133382D01*
X0089624Y0133528D01*
X0089673Y0133674D01*
X0089726Y0133818D01*
X0089782Y0133960D01*
X0089842Y0134101D01*
X0089906Y0134241D01*
X0089973Y0134379D01*
X0090044Y0134515D01*
X0090119Y0134649D01*
X0090196Y0134781D01*
X0090278Y0134911D01*
X0090362Y0135039D01*
X0090450Y0135165D01*
X0090541Y0135288D01*
X0090635Y0135409D01*
X0090733Y0135527D01*
X0090833Y0135643D01*
X0090937Y0135756D01*
X0091043Y0135867D01*
X0091152Y0135975D01*
X0091264Y0136080D01*
X0091378Y0136181D01*
X0091496Y0136280D01*
X0091615Y0136376D01*
X0091737Y0136469D01*
X0091862Y0136558D01*
X0091989Y0136645D01*
X0092118Y0136727D01*
X0092249Y0136807D01*
X0092382Y0136883D01*
X0092517Y0136956D01*
X0092654Y0137025D01*
X0092793Y0137090D01*
X0092933Y0137152D01*
X0093075Y0137210D01*
X0093218Y0137265D01*
X0093363Y0137316D01*
X0093509Y0137363D01*
X0093656Y0137406D01*
X0093804Y0137445D01*
X0093953Y0137481D01*
X0094103Y0137512D01*
X0094254Y0137540D01*
X0094405Y0137564D01*
X0094558Y0137584D01*
X0094710Y0137600D01*
X0094863Y0137612D01*
X0095016Y0137620D01*
X0095169Y0137624D01*
X0095323Y0137624D01*
X0095476Y0137620D01*
X0095629Y0137612D01*
X0095782Y0137600D01*
X0095934Y0137584D01*
X0096087Y0137564D01*
X0096238Y0137540D01*
X0096389Y0137512D01*
X0096539Y0137481D01*
X0096688Y0137445D01*
X0096836Y0137406D01*
X0096983Y0137363D01*
X0097129Y0137316D01*
X0097274Y0137265D01*
X0097417Y0137210D01*
X0097559Y0137152D01*
X0097699Y0137090D01*
X0097838Y0137025D01*
X0097975Y0136956D01*
X0098110Y0136883D01*
X0098243Y0136807D01*
X0098374Y0136727D01*
X0098503Y0136645D01*
X0098630Y0136558D01*
X0098755Y0136469D01*
X0098877Y0136376D01*
X0098996Y0136280D01*
X0099114Y0136181D01*
X0099228Y0136080D01*
X0099340Y0135975D01*
X0099449Y0135867D01*
X0099555Y0135756D01*
X0099659Y0135643D01*
X0099759Y0135527D01*
X0099857Y0135409D01*
X0099951Y0135288D01*
X0100042Y0135165D01*
X0100130Y0135039D01*
X0100214Y0134911D01*
X0100296Y0134781D01*
X0100373Y0134649D01*
X0100448Y0134515D01*
X0100519Y0134379D01*
X0100586Y0134241D01*
X0100650Y0134101D01*
X0100710Y0133960D01*
X0100766Y0133818D01*
X0100819Y0133674D01*
X0100868Y0133528D01*
X0100913Y0133382D01*
X0100954Y0133234D01*
X0100991Y0133086D01*
X0101025Y0132936D01*
X0101055Y0132785D01*
X0101080Y0132634D01*
X0101102Y0132483D01*
X0101120Y0132330D01*
X0101134Y0132178D01*
X0101144Y0132025D01*
X0101150Y0131871D01*
X0101152Y0131718D01*
X0101150Y0131565D01*
X0101144Y0131411D01*
X0101134Y0131258D01*
X0101120Y0131106D01*
X0101102Y0130953D01*
X0101080Y0130802D01*
X0101055Y0130651D01*
X0101025Y0130500D01*
X0100991Y0130350D01*
X0100954Y0130202D01*
X0100913Y0130054D01*
X0100868Y0129908D01*
X0100819Y0129762D01*
X0100766Y0129618D01*
X0100710Y0129476D01*
X0100650Y0129335D01*
X0100586Y0129195D01*
X0100519Y0129057D01*
X0100448Y0128921D01*
X0100373Y0128787D01*
X0100296Y0128655D01*
X0100214Y0128525D01*
X0100130Y0128397D01*
X0100042Y0128271D01*
X0099951Y0128148D01*
X0099857Y0128027D01*
X0099759Y0127909D01*
X0099659Y0127793D01*
X0099555Y0127680D01*
X0099449Y0127569D01*
X0099340Y0127461D01*
X0099228Y0127356D01*
X0099114Y0127255D01*
X0098996Y0127156D01*
X0098877Y0127060D01*
X0098755Y0126967D01*
X0098630Y0126878D01*
X0098503Y0126791D01*
X0098374Y0126709D01*
X0098243Y0126629D01*
X0098110Y0126553D01*
X0097975Y0126480D01*
X0097838Y0126411D01*
X0097699Y0126346D01*
X0097559Y0126284D01*
X0097417Y0126226D01*
X0097274Y0126171D01*
X0097129Y0126120D01*
X0096983Y0126073D01*
X0096836Y0126030D01*
X0096688Y0125991D01*
X0096539Y0125955D01*
X0096389Y0125924D01*
X0096238Y0125896D01*
X0096087Y0125872D01*
X0095934Y0125852D01*
X0095782Y0125836D01*
X0095629Y0125824D01*
X0095476Y0125816D01*
X0095323Y0125812D01*
X0095169Y0125812D01*
X0095016Y0125816D01*
X0094863Y0125824D01*
X0094710Y0125836D01*
X0094558Y0125852D01*
X0094405Y0125872D01*
X0094254Y0125896D01*
X0094103Y0125924D01*
X0093953Y0125955D01*
X0093804Y0125991D01*
X0093656Y0126030D01*
X0093509Y0126073D01*
X0093363Y0126120D01*
X0093218Y0126171D01*
X0093075Y0126226D01*
X0092933Y0126284D01*
X0092793Y0126346D01*
X0092654Y0126411D01*
X0092517Y0126480D01*
X0092382Y0126553D01*
X0092249Y0126629D01*
X0092118Y0126709D01*
X0091989Y0126791D01*
X0091862Y0126878D01*
X0091737Y0126967D01*
X0091615Y0127060D01*
X0091496Y0127156D01*
X0091378Y0127255D01*
X0091264Y0127356D01*
X0091152Y0127461D01*
X0091043Y0127569D01*
X0090937Y0127680D01*
X0090833Y0127793D01*
X0090733Y0127909D01*
X0090635Y0128027D01*
X0090541Y0128148D01*
X0090450Y0128271D01*
X0090362Y0128397D01*
X0090278Y0128525D01*
X0090196Y0128655D01*
X0090119Y0128787D01*
X0090044Y0128921D01*
X0089973Y0129057D01*
X0089906Y0129195D01*
X0089842Y0129335D01*
X0089782Y0129476D01*
X0089726Y0129618D01*
X0089673Y0129762D01*
X0089624Y0129908D01*
X0089579Y0130054D01*
X0089538Y0130202D01*
X0089501Y0130350D01*
X0089467Y0130500D01*
X0089437Y0130651D01*
X0089412Y0130802D01*
X0089390Y0130953D01*
X0089372Y0131106D01*
X0089358Y0131258D01*
X0089348Y0131411D01*
X0089342Y0131565D01*
X0089340Y0131718D01*
X0088715Y0083593D02*
X0088717Y0083746D01*
X0088723Y0083900D01*
X0088733Y0084053D01*
X0088747Y0084205D01*
X0088765Y0084358D01*
X0088787Y0084509D01*
X0088812Y0084660D01*
X0088842Y0084811D01*
X0088876Y0084961D01*
X0088913Y0085109D01*
X0088954Y0085257D01*
X0088999Y0085403D01*
X0089048Y0085549D01*
X0089101Y0085693D01*
X0089157Y0085835D01*
X0089217Y0085976D01*
X0089281Y0086116D01*
X0089348Y0086254D01*
X0089419Y0086390D01*
X0089494Y0086524D01*
X0089571Y0086656D01*
X0089653Y0086786D01*
X0089737Y0086914D01*
X0089825Y0087040D01*
X0089916Y0087163D01*
X0090010Y0087284D01*
X0090108Y0087402D01*
X0090208Y0087518D01*
X0090312Y0087631D01*
X0090418Y0087742D01*
X0090527Y0087850D01*
X0090639Y0087955D01*
X0090753Y0088056D01*
X0090871Y0088155D01*
X0090990Y0088251D01*
X0091112Y0088344D01*
X0091237Y0088433D01*
X0091364Y0088520D01*
X0091493Y0088602D01*
X0091624Y0088682D01*
X0091757Y0088758D01*
X0091892Y0088831D01*
X0092029Y0088900D01*
X0092168Y0088965D01*
X0092308Y0089027D01*
X0092450Y0089085D01*
X0092593Y0089140D01*
X0092738Y0089191D01*
X0092884Y0089238D01*
X0093031Y0089281D01*
X0093179Y0089320D01*
X0093328Y0089356D01*
X0093478Y0089387D01*
X0093629Y0089415D01*
X0093780Y0089439D01*
X0093933Y0089459D01*
X0094085Y0089475D01*
X0094238Y0089487D01*
X0094391Y0089495D01*
X0094544Y0089499D01*
X0094698Y0089499D01*
X0094851Y0089495D01*
X0095004Y0089487D01*
X0095157Y0089475D01*
X0095309Y0089459D01*
X0095462Y0089439D01*
X0095613Y0089415D01*
X0095764Y0089387D01*
X0095914Y0089356D01*
X0096063Y0089320D01*
X0096211Y0089281D01*
X0096358Y0089238D01*
X0096504Y0089191D01*
X0096649Y0089140D01*
X0096792Y0089085D01*
X0096934Y0089027D01*
X0097074Y0088965D01*
X0097213Y0088900D01*
X0097350Y0088831D01*
X0097485Y0088758D01*
X0097618Y0088682D01*
X0097749Y0088602D01*
X0097878Y0088520D01*
X0098005Y0088433D01*
X0098130Y0088344D01*
X0098252Y0088251D01*
X0098371Y0088155D01*
X0098489Y0088056D01*
X0098603Y0087955D01*
X0098715Y0087850D01*
X0098824Y0087742D01*
X0098930Y0087631D01*
X0099034Y0087518D01*
X0099134Y0087402D01*
X0099232Y0087284D01*
X0099326Y0087163D01*
X0099417Y0087040D01*
X0099505Y0086914D01*
X0099589Y0086786D01*
X0099671Y0086656D01*
X0099748Y0086524D01*
X0099823Y0086390D01*
X0099894Y0086254D01*
X0099961Y0086116D01*
X0100025Y0085976D01*
X0100085Y0085835D01*
X0100141Y0085693D01*
X0100194Y0085549D01*
X0100243Y0085403D01*
X0100288Y0085257D01*
X0100329Y0085109D01*
X0100366Y0084961D01*
X0100400Y0084811D01*
X0100430Y0084660D01*
X0100455Y0084509D01*
X0100477Y0084358D01*
X0100495Y0084205D01*
X0100509Y0084053D01*
X0100519Y0083900D01*
X0100525Y0083746D01*
X0100527Y0083593D01*
X0100525Y0083440D01*
X0100519Y0083286D01*
X0100509Y0083133D01*
X0100495Y0082981D01*
X0100477Y0082828D01*
X0100455Y0082677D01*
X0100430Y0082526D01*
X0100400Y0082375D01*
X0100366Y0082225D01*
X0100329Y0082077D01*
X0100288Y0081929D01*
X0100243Y0081783D01*
X0100194Y0081637D01*
X0100141Y0081493D01*
X0100085Y0081351D01*
X0100025Y0081210D01*
X0099961Y0081070D01*
X0099894Y0080932D01*
X0099823Y0080796D01*
X0099748Y0080662D01*
X0099671Y0080530D01*
X0099589Y0080400D01*
X0099505Y0080272D01*
X0099417Y0080146D01*
X0099326Y0080023D01*
X0099232Y0079902D01*
X0099134Y0079784D01*
X0099034Y0079668D01*
X0098930Y0079555D01*
X0098824Y0079444D01*
X0098715Y0079336D01*
X0098603Y0079231D01*
X0098489Y0079130D01*
X0098371Y0079031D01*
X0098252Y0078935D01*
X0098130Y0078842D01*
X0098005Y0078753D01*
X0097878Y0078666D01*
X0097749Y0078584D01*
X0097618Y0078504D01*
X0097485Y0078428D01*
X0097350Y0078355D01*
X0097213Y0078286D01*
X0097074Y0078221D01*
X0096934Y0078159D01*
X0096792Y0078101D01*
X0096649Y0078046D01*
X0096504Y0077995D01*
X0096358Y0077948D01*
X0096211Y0077905D01*
X0096063Y0077866D01*
X0095914Y0077830D01*
X0095764Y0077799D01*
X0095613Y0077771D01*
X0095462Y0077747D01*
X0095309Y0077727D01*
X0095157Y0077711D01*
X0095004Y0077699D01*
X0094851Y0077691D01*
X0094698Y0077687D01*
X0094544Y0077687D01*
X0094391Y0077691D01*
X0094238Y0077699D01*
X0094085Y0077711D01*
X0093933Y0077727D01*
X0093780Y0077747D01*
X0093629Y0077771D01*
X0093478Y0077799D01*
X0093328Y0077830D01*
X0093179Y0077866D01*
X0093031Y0077905D01*
X0092884Y0077948D01*
X0092738Y0077995D01*
X0092593Y0078046D01*
X0092450Y0078101D01*
X0092308Y0078159D01*
X0092168Y0078221D01*
X0092029Y0078286D01*
X0091892Y0078355D01*
X0091757Y0078428D01*
X0091624Y0078504D01*
X0091493Y0078584D01*
X0091364Y0078666D01*
X0091237Y0078753D01*
X0091112Y0078842D01*
X0090990Y0078935D01*
X0090871Y0079031D01*
X0090753Y0079130D01*
X0090639Y0079231D01*
X0090527Y0079336D01*
X0090418Y0079444D01*
X0090312Y0079555D01*
X0090208Y0079668D01*
X0090108Y0079784D01*
X0090010Y0079902D01*
X0089916Y0080023D01*
X0089825Y0080146D01*
X0089737Y0080272D01*
X0089653Y0080400D01*
X0089571Y0080530D01*
X0089494Y0080662D01*
X0089419Y0080796D01*
X0089348Y0080932D01*
X0089281Y0081070D01*
X0089217Y0081210D01*
X0089157Y0081351D01*
X0089101Y0081493D01*
X0089048Y0081637D01*
X0088999Y0081783D01*
X0088954Y0081929D01*
X0088913Y0082077D01*
X0088876Y0082225D01*
X0088842Y0082375D01*
X0088812Y0082526D01*
X0088787Y0082677D01*
X0088765Y0082828D01*
X0088747Y0082981D01*
X0088733Y0083133D01*
X0088723Y0083286D01*
X0088717Y0083440D01*
X0088715Y0083593D01*
X0087594Y0213740D02*
X0087596Y0213893D01*
X0087602Y0214047D01*
X0087612Y0214200D01*
X0087626Y0214352D01*
X0087644Y0214505D01*
X0087666Y0214656D01*
X0087691Y0214807D01*
X0087721Y0214958D01*
X0087755Y0215108D01*
X0087792Y0215256D01*
X0087833Y0215404D01*
X0087878Y0215550D01*
X0087927Y0215696D01*
X0087980Y0215840D01*
X0088036Y0215982D01*
X0088096Y0216123D01*
X0088160Y0216263D01*
X0088227Y0216401D01*
X0088298Y0216537D01*
X0088373Y0216671D01*
X0088450Y0216803D01*
X0088532Y0216933D01*
X0088616Y0217061D01*
X0088704Y0217187D01*
X0088795Y0217310D01*
X0088889Y0217431D01*
X0088987Y0217549D01*
X0089087Y0217665D01*
X0089191Y0217778D01*
X0089297Y0217889D01*
X0089406Y0217997D01*
X0089518Y0218102D01*
X0089632Y0218203D01*
X0089750Y0218302D01*
X0089869Y0218398D01*
X0089991Y0218491D01*
X0090116Y0218580D01*
X0090243Y0218667D01*
X0090372Y0218749D01*
X0090503Y0218829D01*
X0090636Y0218905D01*
X0090771Y0218978D01*
X0090908Y0219047D01*
X0091047Y0219112D01*
X0091187Y0219174D01*
X0091329Y0219232D01*
X0091472Y0219287D01*
X0091617Y0219338D01*
X0091763Y0219385D01*
X0091910Y0219428D01*
X0092058Y0219467D01*
X0092207Y0219503D01*
X0092357Y0219534D01*
X0092508Y0219562D01*
X0092659Y0219586D01*
X0092812Y0219606D01*
X0092964Y0219622D01*
X0093117Y0219634D01*
X0093270Y0219642D01*
X0093423Y0219646D01*
X0093577Y0219646D01*
X0093730Y0219642D01*
X0093883Y0219634D01*
X0094036Y0219622D01*
X0094188Y0219606D01*
X0094341Y0219586D01*
X0094492Y0219562D01*
X0094643Y0219534D01*
X0094793Y0219503D01*
X0094942Y0219467D01*
X0095090Y0219428D01*
X0095237Y0219385D01*
X0095383Y0219338D01*
X0095528Y0219287D01*
X0095671Y0219232D01*
X0095813Y0219174D01*
X0095953Y0219112D01*
X0096092Y0219047D01*
X0096229Y0218978D01*
X0096364Y0218905D01*
X0096497Y0218829D01*
X0096628Y0218749D01*
X0096757Y0218667D01*
X0096884Y0218580D01*
X0097009Y0218491D01*
X0097131Y0218398D01*
X0097250Y0218302D01*
X0097368Y0218203D01*
X0097482Y0218102D01*
X0097594Y0217997D01*
X0097703Y0217889D01*
X0097809Y0217778D01*
X0097913Y0217665D01*
X0098013Y0217549D01*
X0098111Y0217431D01*
X0098205Y0217310D01*
X0098296Y0217187D01*
X0098384Y0217061D01*
X0098468Y0216933D01*
X0098550Y0216803D01*
X0098627Y0216671D01*
X0098702Y0216537D01*
X0098773Y0216401D01*
X0098840Y0216263D01*
X0098904Y0216123D01*
X0098964Y0215982D01*
X0099020Y0215840D01*
X0099073Y0215696D01*
X0099122Y0215550D01*
X0099167Y0215404D01*
X0099208Y0215256D01*
X0099245Y0215108D01*
X0099279Y0214958D01*
X0099309Y0214807D01*
X0099334Y0214656D01*
X0099356Y0214505D01*
X0099374Y0214352D01*
X0099388Y0214200D01*
X0099398Y0214047D01*
X0099404Y0213893D01*
X0099406Y0213740D01*
X0099404Y0213587D01*
X0099398Y0213433D01*
X0099388Y0213280D01*
X0099374Y0213128D01*
X0099356Y0212975D01*
X0099334Y0212824D01*
X0099309Y0212673D01*
X0099279Y0212522D01*
X0099245Y0212372D01*
X0099208Y0212224D01*
X0099167Y0212076D01*
X0099122Y0211930D01*
X0099073Y0211784D01*
X0099020Y0211640D01*
X0098964Y0211498D01*
X0098904Y0211357D01*
X0098840Y0211217D01*
X0098773Y0211079D01*
X0098702Y0210943D01*
X0098627Y0210809D01*
X0098550Y0210677D01*
X0098468Y0210547D01*
X0098384Y0210419D01*
X0098296Y0210293D01*
X0098205Y0210170D01*
X0098111Y0210049D01*
X0098013Y0209931D01*
X0097913Y0209815D01*
X0097809Y0209702D01*
X0097703Y0209591D01*
X0097594Y0209483D01*
X0097482Y0209378D01*
X0097368Y0209277D01*
X0097250Y0209178D01*
X0097131Y0209082D01*
X0097009Y0208989D01*
X0096884Y0208900D01*
X0096757Y0208813D01*
X0096628Y0208731D01*
X0096497Y0208651D01*
X0096364Y0208575D01*
X0096229Y0208502D01*
X0096092Y0208433D01*
X0095953Y0208368D01*
X0095813Y0208306D01*
X0095671Y0208248D01*
X0095528Y0208193D01*
X0095383Y0208142D01*
X0095237Y0208095D01*
X0095090Y0208052D01*
X0094942Y0208013D01*
X0094793Y0207977D01*
X0094643Y0207946D01*
X0094492Y0207918D01*
X0094341Y0207894D01*
X0094188Y0207874D01*
X0094036Y0207858D01*
X0093883Y0207846D01*
X0093730Y0207838D01*
X0093577Y0207834D01*
X0093423Y0207834D01*
X0093270Y0207838D01*
X0093117Y0207846D01*
X0092964Y0207858D01*
X0092812Y0207874D01*
X0092659Y0207894D01*
X0092508Y0207918D01*
X0092357Y0207946D01*
X0092207Y0207977D01*
X0092058Y0208013D01*
X0091910Y0208052D01*
X0091763Y0208095D01*
X0091617Y0208142D01*
X0091472Y0208193D01*
X0091329Y0208248D01*
X0091187Y0208306D01*
X0091047Y0208368D01*
X0090908Y0208433D01*
X0090771Y0208502D01*
X0090636Y0208575D01*
X0090503Y0208651D01*
X0090372Y0208731D01*
X0090243Y0208813D01*
X0090116Y0208900D01*
X0089991Y0208989D01*
X0089869Y0209082D01*
X0089750Y0209178D01*
X0089632Y0209277D01*
X0089518Y0209378D01*
X0089406Y0209483D01*
X0089297Y0209591D01*
X0089191Y0209702D01*
X0089087Y0209815D01*
X0088987Y0209931D01*
X0088889Y0210049D01*
X0088795Y0210170D01*
X0088704Y0210293D01*
X0088616Y0210419D01*
X0088532Y0210547D01*
X0088450Y0210677D01*
X0088373Y0210809D01*
X0088298Y0210943D01*
X0088227Y0211079D01*
X0088160Y0211217D01*
X0088096Y0211357D01*
X0088036Y0211498D01*
X0087980Y0211640D01*
X0087927Y0211784D01*
X0087878Y0211930D01*
X0087833Y0212076D01*
X0087792Y0212224D01*
X0087755Y0212372D01*
X0087721Y0212522D01*
X0087691Y0212673D01*
X0087666Y0212824D01*
X0087644Y0212975D01*
X0087626Y0213128D01*
X0087612Y0213280D01*
X0087602Y0213433D01*
X0087596Y0213587D01*
X0087594Y0213740D01*
X0120594Y0213740D02*
X0120596Y0213893D01*
X0120602Y0214047D01*
X0120612Y0214200D01*
X0120626Y0214352D01*
X0120644Y0214505D01*
X0120666Y0214656D01*
X0120691Y0214807D01*
X0120721Y0214958D01*
X0120755Y0215108D01*
X0120792Y0215256D01*
X0120833Y0215404D01*
X0120878Y0215550D01*
X0120927Y0215696D01*
X0120980Y0215840D01*
X0121036Y0215982D01*
X0121096Y0216123D01*
X0121160Y0216263D01*
X0121227Y0216401D01*
X0121298Y0216537D01*
X0121373Y0216671D01*
X0121450Y0216803D01*
X0121532Y0216933D01*
X0121616Y0217061D01*
X0121704Y0217187D01*
X0121795Y0217310D01*
X0121889Y0217431D01*
X0121987Y0217549D01*
X0122087Y0217665D01*
X0122191Y0217778D01*
X0122297Y0217889D01*
X0122406Y0217997D01*
X0122518Y0218102D01*
X0122632Y0218203D01*
X0122750Y0218302D01*
X0122869Y0218398D01*
X0122991Y0218491D01*
X0123116Y0218580D01*
X0123243Y0218667D01*
X0123372Y0218749D01*
X0123503Y0218829D01*
X0123636Y0218905D01*
X0123771Y0218978D01*
X0123908Y0219047D01*
X0124047Y0219112D01*
X0124187Y0219174D01*
X0124329Y0219232D01*
X0124472Y0219287D01*
X0124617Y0219338D01*
X0124763Y0219385D01*
X0124910Y0219428D01*
X0125058Y0219467D01*
X0125207Y0219503D01*
X0125357Y0219534D01*
X0125508Y0219562D01*
X0125659Y0219586D01*
X0125812Y0219606D01*
X0125964Y0219622D01*
X0126117Y0219634D01*
X0126270Y0219642D01*
X0126423Y0219646D01*
X0126577Y0219646D01*
X0126730Y0219642D01*
X0126883Y0219634D01*
X0127036Y0219622D01*
X0127188Y0219606D01*
X0127341Y0219586D01*
X0127492Y0219562D01*
X0127643Y0219534D01*
X0127793Y0219503D01*
X0127942Y0219467D01*
X0128090Y0219428D01*
X0128237Y0219385D01*
X0128383Y0219338D01*
X0128528Y0219287D01*
X0128671Y0219232D01*
X0128813Y0219174D01*
X0128953Y0219112D01*
X0129092Y0219047D01*
X0129229Y0218978D01*
X0129364Y0218905D01*
X0129497Y0218829D01*
X0129628Y0218749D01*
X0129757Y0218667D01*
X0129884Y0218580D01*
X0130009Y0218491D01*
X0130131Y0218398D01*
X0130250Y0218302D01*
X0130368Y0218203D01*
X0130482Y0218102D01*
X0130594Y0217997D01*
X0130703Y0217889D01*
X0130809Y0217778D01*
X0130913Y0217665D01*
X0131013Y0217549D01*
X0131111Y0217431D01*
X0131205Y0217310D01*
X0131296Y0217187D01*
X0131384Y0217061D01*
X0131468Y0216933D01*
X0131550Y0216803D01*
X0131627Y0216671D01*
X0131702Y0216537D01*
X0131773Y0216401D01*
X0131840Y0216263D01*
X0131904Y0216123D01*
X0131964Y0215982D01*
X0132020Y0215840D01*
X0132073Y0215696D01*
X0132122Y0215550D01*
X0132167Y0215404D01*
X0132208Y0215256D01*
X0132245Y0215108D01*
X0132279Y0214958D01*
X0132309Y0214807D01*
X0132334Y0214656D01*
X0132356Y0214505D01*
X0132374Y0214352D01*
X0132388Y0214200D01*
X0132398Y0214047D01*
X0132404Y0213893D01*
X0132406Y0213740D01*
X0132404Y0213587D01*
X0132398Y0213433D01*
X0132388Y0213280D01*
X0132374Y0213128D01*
X0132356Y0212975D01*
X0132334Y0212824D01*
X0132309Y0212673D01*
X0132279Y0212522D01*
X0132245Y0212372D01*
X0132208Y0212224D01*
X0132167Y0212076D01*
X0132122Y0211930D01*
X0132073Y0211784D01*
X0132020Y0211640D01*
X0131964Y0211498D01*
X0131904Y0211357D01*
X0131840Y0211217D01*
X0131773Y0211079D01*
X0131702Y0210943D01*
X0131627Y0210809D01*
X0131550Y0210677D01*
X0131468Y0210547D01*
X0131384Y0210419D01*
X0131296Y0210293D01*
X0131205Y0210170D01*
X0131111Y0210049D01*
X0131013Y0209931D01*
X0130913Y0209815D01*
X0130809Y0209702D01*
X0130703Y0209591D01*
X0130594Y0209483D01*
X0130482Y0209378D01*
X0130368Y0209277D01*
X0130250Y0209178D01*
X0130131Y0209082D01*
X0130009Y0208989D01*
X0129884Y0208900D01*
X0129757Y0208813D01*
X0129628Y0208731D01*
X0129497Y0208651D01*
X0129364Y0208575D01*
X0129229Y0208502D01*
X0129092Y0208433D01*
X0128953Y0208368D01*
X0128813Y0208306D01*
X0128671Y0208248D01*
X0128528Y0208193D01*
X0128383Y0208142D01*
X0128237Y0208095D01*
X0128090Y0208052D01*
X0127942Y0208013D01*
X0127793Y0207977D01*
X0127643Y0207946D01*
X0127492Y0207918D01*
X0127341Y0207894D01*
X0127188Y0207874D01*
X0127036Y0207858D01*
X0126883Y0207846D01*
X0126730Y0207838D01*
X0126577Y0207834D01*
X0126423Y0207834D01*
X0126270Y0207838D01*
X0126117Y0207846D01*
X0125964Y0207858D01*
X0125812Y0207874D01*
X0125659Y0207894D01*
X0125508Y0207918D01*
X0125357Y0207946D01*
X0125207Y0207977D01*
X0125058Y0208013D01*
X0124910Y0208052D01*
X0124763Y0208095D01*
X0124617Y0208142D01*
X0124472Y0208193D01*
X0124329Y0208248D01*
X0124187Y0208306D01*
X0124047Y0208368D01*
X0123908Y0208433D01*
X0123771Y0208502D01*
X0123636Y0208575D01*
X0123503Y0208651D01*
X0123372Y0208731D01*
X0123243Y0208813D01*
X0123116Y0208900D01*
X0122991Y0208989D01*
X0122869Y0209082D01*
X0122750Y0209178D01*
X0122632Y0209277D01*
X0122518Y0209378D01*
X0122406Y0209483D01*
X0122297Y0209591D01*
X0122191Y0209702D01*
X0122087Y0209815D01*
X0121987Y0209931D01*
X0121889Y0210049D01*
X0121795Y0210170D01*
X0121704Y0210293D01*
X0121616Y0210419D01*
X0121532Y0210547D01*
X0121450Y0210677D01*
X0121373Y0210809D01*
X0121298Y0210943D01*
X0121227Y0211079D01*
X0121160Y0211217D01*
X0121096Y0211357D01*
X0121036Y0211498D01*
X0120980Y0211640D01*
X0120927Y0211784D01*
X0120878Y0211930D01*
X0120833Y0212076D01*
X0120792Y0212224D01*
X0120755Y0212372D01*
X0120721Y0212522D01*
X0120691Y0212673D01*
X0120666Y0212824D01*
X0120644Y0212975D01*
X0120626Y0213128D01*
X0120612Y0213280D01*
X0120602Y0213433D01*
X0120596Y0213587D01*
X0120594Y0213740D01*
X0147594Y0213740D02*
X0147596Y0213893D01*
X0147602Y0214047D01*
X0147612Y0214200D01*
X0147626Y0214352D01*
X0147644Y0214505D01*
X0147666Y0214656D01*
X0147691Y0214807D01*
X0147721Y0214958D01*
X0147755Y0215108D01*
X0147792Y0215256D01*
X0147833Y0215404D01*
X0147878Y0215550D01*
X0147927Y0215696D01*
X0147980Y0215840D01*
X0148036Y0215982D01*
X0148096Y0216123D01*
X0148160Y0216263D01*
X0148227Y0216401D01*
X0148298Y0216537D01*
X0148373Y0216671D01*
X0148450Y0216803D01*
X0148532Y0216933D01*
X0148616Y0217061D01*
X0148704Y0217187D01*
X0148795Y0217310D01*
X0148889Y0217431D01*
X0148987Y0217549D01*
X0149087Y0217665D01*
X0149191Y0217778D01*
X0149297Y0217889D01*
X0149406Y0217997D01*
X0149518Y0218102D01*
X0149632Y0218203D01*
X0149750Y0218302D01*
X0149869Y0218398D01*
X0149991Y0218491D01*
X0150116Y0218580D01*
X0150243Y0218667D01*
X0150372Y0218749D01*
X0150503Y0218829D01*
X0150636Y0218905D01*
X0150771Y0218978D01*
X0150908Y0219047D01*
X0151047Y0219112D01*
X0151187Y0219174D01*
X0151329Y0219232D01*
X0151472Y0219287D01*
X0151617Y0219338D01*
X0151763Y0219385D01*
X0151910Y0219428D01*
X0152058Y0219467D01*
X0152207Y0219503D01*
X0152357Y0219534D01*
X0152508Y0219562D01*
X0152659Y0219586D01*
X0152812Y0219606D01*
X0152964Y0219622D01*
X0153117Y0219634D01*
X0153270Y0219642D01*
X0153423Y0219646D01*
X0153577Y0219646D01*
X0153730Y0219642D01*
X0153883Y0219634D01*
X0154036Y0219622D01*
X0154188Y0219606D01*
X0154341Y0219586D01*
X0154492Y0219562D01*
X0154643Y0219534D01*
X0154793Y0219503D01*
X0154942Y0219467D01*
X0155090Y0219428D01*
X0155237Y0219385D01*
X0155383Y0219338D01*
X0155528Y0219287D01*
X0155671Y0219232D01*
X0155813Y0219174D01*
X0155953Y0219112D01*
X0156092Y0219047D01*
X0156229Y0218978D01*
X0156364Y0218905D01*
X0156497Y0218829D01*
X0156628Y0218749D01*
X0156757Y0218667D01*
X0156884Y0218580D01*
X0157009Y0218491D01*
X0157131Y0218398D01*
X0157250Y0218302D01*
X0157368Y0218203D01*
X0157482Y0218102D01*
X0157594Y0217997D01*
X0157703Y0217889D01*
X0157809Y0217778D01*
X0157913Y0217665D01*
X0158013Y0217549D01*
X0158111Y0217431D01*
X0158205Y0217310D01*
X0158296Y0217187D01*
X0158384Y0217061D01*
X0158468Y0216933D01*
X0158550Y0216803D01*
X0158627Y0216671D01*
X0158702Y0216537D01*
X0158773Y0216401D01*
X0158840Y0216263D01*
X0158904Y0216123D01*
X0158964Y0215982D01*
X0159020Y0215840D01*
X0159073Y0215696D01*
X0159122Y0215550D01*
X0159167Y0215404D01*
X0159208Y0215256D01*
X0159245Y0215108D01*
X0159279Y0214958D01*
X0159309Y0214807D01*
X0159334Y0214656D01*
X0159356Y0214505D01*
X0159374Y0214352D01*
X0159388Y0214200D01*
X0159398Y0214047D01*
X0159404Y0213893D01*
X0159406Y0213740D01*
X0159404Y0213587D01*
X0159398Y0213433D01*
X0159388Y0213280D01*
X0159374Y0213128D01*
X0159356Y0212975D01*
X0159334Y0212824D01*
X0159309Y0212673D01*
X0159279Y0212522D01*
X0159245Y0212372D01*
X0159208Y0212224D01*
X0159167Y0212076D01*
X0159122Y0211930D01*
X0159073Y0211784D01*
X0159020Y0211640D01*
X0158964Y0211498D01*
X0158904Y0211357D01*
X0158840Y0211217D01*
X0158773Y0211079D01*
X0158702Y0210943D01*
X0158627Y0210809D01*
X0158550Y0210677D01*
X0158468Y0210547D01*
X0158384Y0210419D01*
X0158296Y0210293D01*
X0158205Y0210170D01*
X0158111Y0210049D01*
X0158013Y0209931D01*
X0157913Y0209815D01*
X0157809Y0209702D01*
X0157703Y0209591D01*
X0157594Y0209483D01*
X0157482Y0209378D01*
X0157368Y0209277D01*
X0157250Y0209178D01*
X0157131Y0209082D01*
X0157009Y0208989D01*
X0156884Y0208900D01*
X0156757Y0208813D01*
X0156628Y0208731D01*
X0156497Y0208651D01*
X0156364Y0208575D01*
X0156229Y0208502D01*
X0156092Y0208433D01*
X0155953Y0208368D01*
X0155813Y0208306D01*
X0155671Y0208248D01*
X0155528Y0208193D01*
X0155383Y0208142D01*
X0155237Y0208095D01*
X0155090Y0208052D01*
X0154942Y0208013D01*
X0154793Y0207977D01*
X0154643Y0207946D01*
X0154492Y0207918D01*
X0154341Y0207894D01*
X0154188Y0207874D01*
X0154036Y0207858D01*
X0153883Y0207846D01*
X0153730Y0207838D01*
X0153577Y0207834D01*
X0153423Y0207834D01*
X0153270Y0207838D01*
X0153117Y0207846D01*
X0152964Y0207858D01*
X0152812Y0207874D01*
X0152659Y0207894D01*
X0152508Y0207918D01*
X0152357Y0207946D01*
X0152207Y0207977D01*
X0152058Y0208013D01*
X0151910Y0208052D01*
X0151763Y0208095D01*
X0151617Y0208142D01*
X0151472Y0208193D01*
X0151329Y0208248D01*
X0151187Y0208306D01*
X0151047Y0208368D01*
X0150908Y0208433D01*
X0150771Y0208502D01*
X0150636Y0208575D01*
X0150503Y0208651D01*
X0150372Y0208731D01*
X0150243Y0208813D01*
X0150116Y0208900D01*
X0149991Y0208989D01*
X0149869Y0209082D01*
X0149750Y0209178D01*
X0149632Y0209277D01*
X0149518Y0209378D01*
X0149406Y0209483D01*
X0149297Y0209591D01*
X0149191Y0209702D01*
X0149087Y0209815D01*
X0148987Y0209931D01*
X0148889Y0210049D01*
X0148795Y0210170D01*
X0148704Y0210293D01*
X0148616Y0210419D01*
X0148532Y0210547D01*
X0148450Y0210677D01*
X0148373Y0210809D01*
X0148298Y0210943D01*
X0148227Y0211079D01*
X0148160Y0211217D01*
X0148096Y0211357D01*
X0148036Y0211498D01*
X0147980Y0211640D01*
X0147927Y0211784D01*
X0147878Y0211930D01*
X0147833Y0212076D01*
X0147792Y0212224D01*
X0147755Y0212372D01*
X0147721Y0212522D01*
X0147691Y0212673D01*
X0147666Y0212824D01*
X0147644Y0212975D01*
X0147626Y0213128D01*
X0147612Y0213280D01*
X0147602Y0213433D01*
X0147596Y0213587D01*
X0147594Y0213740D01*
X0180594Y0213740D02*
X0180596Y0213893D01*
X0180602Y0214047D01*
X0180612Y0214200D01*
X0180626Y0214352D01*
X0180644Y0214505D01*
X0180666Y0214656D01*
X0180691Y0214807D01*
X0180721Y0214958D01*
X0180755Y0215108D01*
X0180792Y0215256D01*
X0180833Y0215404D01*
X0180878Y0215550D01*
X0180927Y0215696D01*
X0180980Y0215840D01*
X0181036Y0215982D01*
X0181096Y0216123D01*
X0181160Y0216263D01*
X0181227Y0216401D01*
X0181298Y0216537D01*
X0181373Y0216671D01*
X0181450Y0216803D01*
X0181532Y0216933D01*
X0181616Y0217061D01*
X0181704Y0217187D01*
X0181795Y0217310D01*
X0181889Y0217431D01*
X0181987Y0217549D01*
X0182087Y0217665D01*
X0182191Y0217778D01*
X0182297Y0217889D01*
X0182406Y0217997D01*
X0182518Y0218102D01*
X0182632Y0218203D01*
X0182750Y0218302D01*
X0182869Y0218398D01*
X0182991Y0218491D01*
X0183116Y0218580D01*
X0183243Y0218667D01*
X0183372Y0218749D01*
X0183503Y0218829D01*
X0183636Y0218905D01*
X0183771Y0218978D01*
X0183908Y0219047D01*
X0184047Y0219112D01*
X0184187Y0219174D01*
X0184329Y0219232D01*
X0184472Y0219287D01*
X0184617Y0219338D01*
X0184763Y0219385D01*
X0184910Y0219428D01*
X0185058Y0219467D01*
X0185207Y0219503D01*
X0185357Y0219534D01*
X0185508Y0219562D01*
X0185659Y0219586D01*
X0185812Y0219606D01*
X0185964Y0219622D01*
X0186117Y0219634D01*
X0186270Y0219642D01*
X0186423Y0219646D01*
X0186577Y0219646D01*
X0186730Y0219642D01*
X0186883Y0219634D01*
X0187036Y0219622D01*
X0187188Y0219606D01*
X0187341Y0219586D01*
X0187492Y0219562D01*
X0187643Y0219534D01*
X0187793Y0219503D01*
X0187942Y0219467D01*
X0188090Y0219428D01*
X0188237Y0219385D01*
X0188383Y0219338D01*
X0188528Y0219287D01*
X0188671Y0219232D01*
X0188813Y0219174D01*
X0188953Y0219112D01*
X0189092Y0219047D01*
X0189229Y0218978D01*
X0189364Y0218905D01*
X0189497Y0218829D01*
X0189628Y0218749D01*
X0189757Y0218667D01*
X0189884Y0218580D01*
X0190009Y0218491D01*
X0190131Y0218398D01*
X0190250Y0218302D01*
X0190368Y0218203D01*
X0190482Y0218102D01*
X0190594Y0217997D01*
X0190703Y0217889D01*
X0190809Y0217778D01*
X0190913Y0217665D01*
X0191013Y0217549D01*
X0191111Y0217431D01*
X0191205Y0217310D01*
X0191296Y0217187D01*
X0191384Y0217061D01*
X0191468Y0216933D01*
X0191550Y0216803D01*
X0191627Y0216671D01*
X0191702Y0216537D01*
X0191773Y0216401D01*
X0191840Y0216263D01*
X0191904Y0216123D01*
X0191964Y0215982D01*
X0192020Y0215840D01*
X0192073Y0215696D01*
X0192122Y0215550D01*
X0192167Y0215404D01*
X0192208Y0215256D01*
X0192245Y0215108D01*
X0192279Y0214958D01*
X0192309Y0214807D01*
X0192334Y0214656D01*
X0192356Y0214505D01*
X0192374Y0214352D01*
X0192388Y0214200D01*
X0192398Y0214047D01*
X0192404Y0213893D01*
X0192406Y0213740D01*
X0192404Y0213587D01*
X0192398Y0213433D01*
X0192388Y0213280D01*
X0192374Y0213128D01*
X0192356Y0212975D01*
X0192334Y0212824D01*
X0192309Y0212673D01*
X0192279Y0212522D01*
X0192245Y0212372D01*
X0192208Y0212224D01*
X0192167Y0212076D01*
X0192122Y0211930D01*
X0192073Y0211784D01*
X0192020Y0211640D01*
X0191964Y0211498D01*
X0191904Y0211357D01*
X0191840Y0211217D01*
X0191773Y0211079D01*
X0191702Y0210943D01*
X0191627Y0210809D01*
X0191550Y0210677D01*
X0191468Y0210547D01*
X0191384Y0210419D01*
X0191296Y0210293D01*
X0191205Y0210170D01*
X0191111Y0210049D01*
X0191013Y0209931D01*
X0190913Y0209815D01*
X0190809Y0209702D01*
X0190703Y0209591D01*
X0190594Y0209483D01*
X0190482Y0209378D01*
X0190368Y0209277D01*
X0190250Y0209178D01*
X0190131Y0209082D01*
X0190009Y0208989D01*
X0189884Y0208900D01*
X0189757Y0208813D01*
X0189628Y0208731D01*
X0189497Y0208651D01*
X0189364Y0208575D01*
X0189229Y0208502D01*
X0189092Y0208433D01*
X0188953Y0208368D01*
X0188813Y0208306D01*
X0188671Y0208248D01*
X0188528Y0208193D01*
X0188383Y0208142D01*
X0188237Y0208095D01*
X0188090Y0208052D01*
X0187942Y0208013D01*
X0187793Y0207977D01*
X0187643Y0207946D01*
X0187492Y0207918D01*
X0187341Y0207894D01*
X0187188Y0207874D01*
X0187036Y0207858D01*
X0186883Y0207846D01*
X0186730Y0207838D01*
X0186577Y0207834D01*
X0186423Y0207834D01*
X0186270Y0207838D01*
X0186117Y0207846D01*
X0185964Y0207858D01*
X0185812Y0207874D01*
X0185659Y0207894D01*
X0185508Y0207918D01*
X0185357Y0207946D01*
X0185207Y0207977D01*
X0185058Y0208013D01*
X0184910Y0208052D01*
X0184763Y0208095D01*
X0184617Y0208142D01*
X0184472Y0208193D01*
X0184329Y0208248D01*
X0184187Y0208306D01*
X0184047Y0208368D01*
X0183908Y0208433D01*
X0183771Y0208502D01*
X0183636Y0208575D01*
X0183503Y0208651D01*
X0183372Y0208731D01*
X0183243Y0208813D01*
X0183116Y0208900D01*
X0182991Y0208989D01*
X0182869Y0209082D01*
X0182750Y0209178D01*
X0182632Y0209277D01*
X0182518Y0209378D01*
X0182406Y0209483D01*
X0182297Y0209591D01*
X0182191Y0209702D01*
X0182087Y0209815D01*
X0181987Y0209931D01*
X0181889Y0210049D01*
X0181795Y0210170D01*
X0181704Y0210293D01*
X0181616Y0210419D01*
X0181532Y0210547D01*
X0181450Y0210677D01*
X0181373Y0210809D01*
X0181298Y0210943D01*
X0181227Y0211079D01*
X0181160Y0211217D01*
X0181096Y0211357D01*
X0181036Y0211498D01*
X0180980Y0211640D01*
X0180927Y0211784D01*
X0180878Y0211930D01*
X0180833Y0212076D01*
X0180792Y0212224D01*
X0180755Y0212372D01*
X0180721Y0212522D01*
X0180691Y0212673D01*
X0180666Y0212824D01*
X0180644Y0212975D01*
X0180626Y0213128D01*
X0180612Y0213280D01*
X0180602Y0213433D01*
X0180596Y0213587D01*
X0180594Y0213740D01*
D11*
X0005000Y0240000D02*
X0005000Y0005000D01*
X0217500Y0005000D01*
X0217500Y0240000D01*
X0005000Y0240000D01*
X0010000Y0230000D02*
X0055000Y0230000D01*
X0063000Y0238000D01*
X0197000Y0238000D01*
X0203675Y0231325D01*
X0066331Y0231325D01*
X0062919Y0230216D01*
X0060017Y0228108D01*
X0057909Y0225206D01*
X0056800Y0221794D01*
X0056800Y0134305D01*
X0056386Y0135304D01*
X0055304Y0136386D01*
X0053890Y0136972D01*
X0052360Y0136972D01*
X0050946Y0136386D01*
X0049864Y0135304D01*
X0049278Y0133890D01*
X0049278Y0132360D01*
X0049864Y0130946D01*
X0050946Y0129864D01*
X0052360Y0129278D01*
X0053890Y0129278D01*
X0055304Y0129864D01*
X0056386Y0130946D01*
X0056800Y0131945D01*
X0056800Y0131325D01*
X0047425Y0121950D01*
X0047155Y0121950D01*
X0046456Y0122650D01*
X0044765Y0123350D01*
X0037735Y0123350D01*
X0036044Y0122650D01*
X0034750Y0121356D01*
X0034050Y0119665D01*
X0034050Y0117835D01*
X0034750Y0116144D01*
X0036044Y0114850D01*
X0037735Y0114150D01*
X0044765Y0114150D01*
X0046456Y0114850D01*
X0047155Y0115550D01*
X0049387Y0115550D01*
X0050563Y0116037D01*
X0051463Y0116937D01*
X0051463Y0116937D01*
X0058790Y0124264D01*
X0058275Y0122680D01*
X0058275Y0096070D01*
X0059545Y0092161D01*
X0061961Y0088836D01*
X0064356Y0087096D01*
X0064750Y0086144D01*
X0066044Y0084850D01*
X0067735Y0084150D01*
X0074765Y0084150D01*
X0076456Y0084850D01*
X0077750Y0086144D01*
X0078450Y0087835D01*
X0078450Y0089665D01*
X0077750Y0091356D01*
X0076456Y0092650D01*
X0074765Y0093350D01*
X0068118Y0093350D01*
X0067166Y0094041D01*
X0066809Y0094534D01*
X0067735Y0094150D01*
X0074765Y0094150D01*
X0076456Y0094850D01*
X0077750Y0096144D01*
X0078450Y0097835D01*
X0078450Y0099665D01*
X0077750Y0101356D01*
X0076456Y0102650D01*
X0074765Y0103350D01*
X0067735Y0103350D01*
X0066044Y0102650D01*
X0065475Y0102080D01*
X0065475Y0105420D01*
X0066044Y0104850D01*
X0067735Y0104150D01*
X0074765Y0104150D01*
X0076456Y0104850D01*
X0077750Y0106144D01*
X0078450Y0107835D01*
X0078450Y0109665D01*
X0077750Y0111356D01*
X0076456Y0112650D01*
X0074765Y0113350D01*
X0067735Y0113350D01*
X0066044Y0112650D01*
X0065475Y0112080D01*
X0065475Y0115420D01*
X0066044Y0114850D01*
X0067735Y0114150D01*
X0074765Y0114150D01*
X0075433Y0114427D01*
X0106750Y0109361D01*
X0106750Y0108976D01*
X0110851Y0104875D01*
X0116649Y0104875D01*
X0120750Y0108976D01*
X0120750Y0114774D01*
X0116649Y0118875D01*
X0110851Y0118875D01*
X0108368Y0116392D01*
X0077754Y0121345D01*
X0077750Y0121356D01*
X0076456Y0122650D01*
X0074765Y0123350D01*
X0067735Y0123350D01*
X0066044Y0122650D01*
X0065846Y0122451D01*
X0066104Y0123247D01*
X0067166Y0124709D01*
X0068628Y0125771D01*
X0069345Y0126003D01*
X0072825Y0126003D01*
X0073997Y0127175D01*
X0073997Y0127655D01*
X0074302Y0127961D01*
X0074850Y0129284D01*
X0074850Y0130716D01*
X0074302Y0132039D01*
X0073997Y0132345D01*
X0073997Y0132825D01*
X0072825Y0133997D01*
X0067175Y0133997D01*
X0066003Y0132825D01*
X0066003Y0132563D01*
X0065286Y0132330D01*
X0063200Y0130814D01*
X0063200Y0220000D01*
X0063261Y0220770D01*
X0063737Y0222236D01*
X0064642Y0223482D01*
X0065889Y0224388D01*
X0067355Y0224864D01*
X0068125Y0224925D01*
X0125835Y0224925D01*
X0125450Y0223996D01*
X0125450Y0222604D01*
X0125983Y0221317D01*
X0126155Y0221146D01*
X0125027Y0221146D01*
X0122305Y0220018D01*
X0120222Y0217935D01*
X0119094Y0215213D01*
X0119094Y0212267D01*
X0120222Y0209545D01*
X0122305Y0207462D01*
X0125027Y0206335D01*
X0127973Y0206335D01*
X0130695Y0207462D01*
X0132778Y0209545D01*
X0133905Y0212267D01*
X0133905Y0213960D01*
X0154944Y0192922D01*
X0156083Y0192450D01*
X0188716Y0192450D01*
X0189166Y0192000D01*
X0183601Y0192000D01*
X0179500Y0187899D01*
X0179500Y0183341D01*
X0179382Y0183224D01*
X0178911Y0182790D01*
X0178878Y0182719D01*
X0173509Y0177350D01*
X0151159Y0177350D01*
X0149836Y0176802D01*
X0148823Y0175789D01*
X0140698Y0167664D01*
X0140150Y0166341D01*
X0140150Y0154616D01*
X0139759Y0154225D01*
X0085241Y0154225D01*
X0078378Y0161088D01*
X0077750Y0162606D01*
X0076456Y0163900D01*
X0074765Y0164600D01*
X0067735Y0164600D01*
X0066044Y0163900D01*
X0064750Y0162606D01*
X0064050Y0160915D01*
X0064050Y0159085D01*
X0064750Y0157394D01*
X0066044Y0156100D01*
X0067735Y0155400D01*
X0073884Y0155400D01*
X0074684Y0154600D01*
X0067735Y0154600D01*
X0066044Y0153900D01*
X0064750Y0152606D01*
X0064050Y0150915D01*
X0064050Y0149085D01*
X0064750Y0147394D01*
X0066044Y0146100D01*
X0067735Y0145400D01*
X0074509Y0145400D01*
X0075693Y0144215D01*
X0074765Y0144600D01*
X0067735Y0144600D01*
X0066044Y0143900D01*
X0064750Y0142606D01*
X0064050Y0140915D01*
X0064050Y0139085D01*
X0064750Y0137394D01*
X0066044Y0136100D01*
X0067735Y0135400D01*
X0074765Y0135400D01*
X0076456Y0136100D01*
X0077750Y0137394D01*
X0078450Y0139085D01*
X0078450Y0140915D01*
X0078035Y0141917D01*
X0079284Y0141400D01*
X0145716Y0141400D01*
X0147039Y0141948D01*
X0152039Y0146948D01*
X0153052Y0147961D01*
X0153600Y0149284D01*
X0153600Y0156300D01*
X0156399Y0156300D01*
X0160500Y0160401D01*
X0160500Y0166199D01*
X0156549Y0170150D01*
X0166951Y0170150D01*
X0163000Y0166199D01*
X0163000Y0160401D01*
X0167101Y0156300D01*
X0172899Y0156300D01*
X0177000Y0160401D01*
X0177000Y0166199D01*
X0173049Y0170150D01*
X0175716Y0170150D01*
X0177039Y0170698D01*
X0184341Y0178000D01*
X0189399Y0178000D01*
X0193500Y0182101D01*
X0193500Y0187666D01*
X0199514Y0181652D01*
X0199300Y0181134D01*
X0199300Y0178866D01*
X0200168Y0176771D01*
X0201771Y0175168D01*
X0202176Y0175000D01*
X0201771Y0174832D01*
X0200168Y0173229D01*
X0199300Y0171134D01*
X0199300Y0168866D01*
X0200168Y0166771D01*
X0201771Y0165168D01*
X0203866Y0164300D01*
X0206134Y0164300D01*
X0208229Y0165168D01*
X0209832Y0166771D01*
X0210520Y0168432D01*
X0212213Y0169662D01*
X0214089Y0172244D01*
X0215000Y0175048D01*
X0215000Y0015000D01*
X0207000Y0007000D01*
X0013000Y0007000D01*
X0007000Y0013000D01*
X0007000Y0227000D01*
X0010000Y0230000D01*
X0009665Y0229665D02*
X0062161Y0229665D01*
X0062919Y0230216D02*
X0062919Y0230216D01*
X0064296Y0230664D02*
X0055664Y0230664D01*
X0056662Y0231662D02*
X0203338Y0231662D01*
X0202339Y0232661D02*
X0057661Y0232661D01*
X0058659Y0233659D02*
X0201341Y0233659D01*
X0200342Y0234658D02*
X0059658Y0234658D01*
X0060656Y0235656D02*
X0199344Y0235656D01*
X0198345Y0236655D02*
X0061655Y0236655D01*
X0062653Y0237653D02*
X0197347Y0237653D01*
X0183322Y0191722D02*
X0173178Y0191722D01*
X0172899Y0192000D02*
X0167101Y0192000D01*
X0163000Y0187899D01*
X0163000Y0182101D01*
X0167101Y0178000D01*
X0172899Y0178000D01*
X0177000Y0182101D01*
X0177000Y0187899D01*
X0172899Y0192000D01*
X0174176Y0190723D02*
X0182324Y0190723D01*
X0181325Y0189725D02*
X0175175Y0189725D01*
X0176173Y0188726D02*
X0180327Y0188726D01*
X0179500Y0187728D02*
X0177000Y0187728D01*
X0177000Y0186729D02*
X0179500Y0186729D01*
X0179500Y0185731D02*
X0177000Y0185731D01*
X0177000Y0184732D02*
X0179500Y0184732D01*
X0179500Y0183734D02*
X0177000Y0183734D01*
X0177000Y0182735D02*
X0178885Y0182735D01*
X0177895Y0181737D02*
X0176636Y0181737D01*
X0176897Y0180738D02*
X0175637Y0180738D01*
X0175898Y0179739D02*
X0174639Y0179739D01*
X0174900Y0178741D02*
X0173640Y0178741D01*
X0173901Y0177742D02*
X0090664Y0177742D01*
X0090557Y0178000D02*
X0099328Y0178000D01*
X0100500Y0179172D01*
X0100500Y0190828D01*
X0099328Y0192000D01*
X0088951Y0192000D01*
X0085475Y0196278D01*
X0085475Y0214573D01*
X0085543Y0214854D01*
X0085475Y0215282D01*
X0085475Y0215716D01*
X0085364Y0215983D01*
X0085319Y0216269D01*
X0085093Y0216639D01*
X0084927Y0217039D01*
X0084722Y0217244D01*
X0084572Y0217490D01*
X0084221Y0217745D01*
X0083914Y0218052D01*
X0083647Y0218163D01*
X0077841Y0222385D01*
X0077750Y0222606D01*
X0076456Y0223900D01*
X0074765Y0224600D01*
X0067735Y0224600D01*
X0066044Y0223900D01*
X0064750Y0222606D01*
X0064050Y0220915D01*
X0064050Y0219085D01*
X0064750Y0217394D01*
X0066044Y0216100D01*
X0067735Y0215400D01*
X0074765Y0215400D01*
X0075045Y0215516D01*
X0078275Y0213167D01*
X0078275Y0211337D01*
X0077750Y0212606D01*
X0076456Y0213900D01*
X0074765Y0214600D01*
X0067735Y0214600D01*
X0066044Y0213900D01*
X0064750Y0212606D01*
X0064050Y0210915D01*
X0064050Y0209085D01*
X0064750Y0207394D01*
X0066044Y0206100D01*
X0067735Y0205400D01*
X0074765Y0205400D01*
X0076456Y0206100D01*
X0077750Y0207394D01*
X0078275Y0208663D01*
X0078275Y0201337D01*
X0077750Y0202606D01*
X0076456Y0203900D01*
X0074765Y0204600D01*
X0067735Y0204600D01*
X0066044Y0203900D01*
X0064750Y0202606D01*
X0064050Y0200915D01*
X0064050Y0199085D01*
X0064750Y0197394D01*
X0066044Y0196100D01*
X0067735Y0195400D01*
X0074765Y0195400D01*
X0076456Y0196100D01*
X0077750Y0197394D01*
X0078275Y0198663D01*
X0078275Y0195186D01*
X0078220Y0194658D01*
X0078275Y0194475D01*
X0078275Y0194284D01*
X0078478Y0193794D01*
X0078629Y0193286D01*
X0078750Y0193137D01*
X0078823Y0192961D01*
X0079198Y0192586D01*
X0086500Y0183599D01*
X0086500Y0180322D01*
X0086270Y0180322D01*
X0083492Y0181363D01*
X0083206Y0181546D01*
X0082828Y0181612D01*
X0082469Y0181747D01*
X0082130Y0181736D01*
X0077793Y0182501D01*
X0077750Y0182606D01*
X0076456Y0183900D01*
X0074765Y0184600D01*
X0067735Y0184600D01*
X0066044Y0183900D01*
X0064750Y0182606D01*
X0064050Y0180915D01*
X0064050Y0179085D01*
X0064750Y0177394D01*
X0066044Y0176100D01*
X0067735Y0175400D01*
X0074765Y0175400D01*
X0075314Y0175627D01*
X0080922Y0174638D01*
X0083689Y0173600D01*
X0076755Y0173600D01*
X0076456Y0173900D01*
X0074765Y0174600D01*
X0067735Y0174600D01*
X0066044Y0173900D01*
X0064750Y0172606D01*
X0064050Y0170915D01*
X0064050Y0169085D01*
X0064750Y0167394D01*
X0066044Y0166100D01*
X0067735Y0165400D01*
X0074765Y0165400D01*
X0076456Y0166100D01*
X0076755Y0166400D01*
X0086701Y0166400D01*
X0086500Y0166199D01*
X0086500Y0160401D01*
X0090601Y0156300D01*
X0096399Y0156300D01*
X0100500Y0160401D01*
X0100500Y0166199D01*
X0097174Y0169525D01*
X0106326Y0169525D01*
X0103000Y0166199D01*
X0103000Y0160401D01*
X0107101Y0156300D01*
X0112899Y0156300D01*
X0117000Y0160401D01*
X0117000Y0166199D01*
X0113674Y0169525D01*
X0122826Y0169525D01*
X0119500Y0166199D01*
X0119500Y0160401D01*
X0123601Y0156300D01*
X0129399Y0156300D01*
X0133500Y0160401D01*
X0133500Y0166199D01*
X0130174Y0169525D01*
X0136584Y0169525D01*
X0136765Y0169344D01*
X0141985Y0169344D01*
X0143156Y0170515D01*
X0143156Y0175735D01*
X0141985Y0176906D01*
X0136765Y0176906D01*
X0136584Y0176725D01*
X0093535Y0176725D01*
X0093237Y0176794D01*
X0092826Y0176725D01*
X0092409Y0176725D01*
X0092126Y0176608D01*
X0091824Y0176557D01*
X0091471Y0176336D01*
X0091086Y0176177D01*
X0090947Y0176038D01*
X0090947Y0177060D01*
X0090557Y0178000D01*
X0090947Y0176744D02*
X0092939Y0176744D01*
X0093453Y0176744D02*
X0136603Y0176744D01*
X0142147Y0176744D02*
X0149778Y0176744D01*
X0148779Y0175745D02*
X0143145Y0175745D01*
X0143156Y0174747D02*
X0147781Y0174747D01*
X0146782Y0173748D02*
X0143156Y0173748D01*
X0143156Y0172750D02*
X0145784Y0172750D01*
X0144785Y0171751D02*
X0143156Y0171751D01*
X0143156Y0170753D02*
X0143787Y0170753D01*
X0142788Y0169754D02*
X0142395Y0169754D01*
X0141790Y0168756D02*
X0130944Y0168756D01*
X0131942Y0167757D02*
X0140791Y0167757D01*
X0140323Y0166759D02*
X0132941Y0166759D01*
X0133500Y0165760D02*
X0140150Y0165760D01*
X0140150Y0164762D02*
X0133500Y0164762D01*
X0133500Y0163763D02*
X0140150Y0163763D01*
X0140150Y0162765D02*
X0133500Y0162765D01*
X0133500Y0161766D02*
X0140150Y0161766D01*
X0140150Y0160768D02*
X0133500Y0160768D01*
X0132869Y0159769D02*
X0140150Y0159769D01*
X0140150Y0158771D02*
X0131870Y0158771D01*
X0130872Y0157772D02*
X0140150Y0157772D01*
X0140150Y0156774D02*
X0129873Y0156774D01*
X0123127Y0156774D02*
X0113373Y0156774D01*
X0114372Y0157772D02*
X0122128Y0157772D01*
X0121130Y0158771D02*
X0115370Y0158771D01*
X0116369Y0159769D02*
X0120131Y0159769D01*
X0119500Y0160768D02*
X0117000Y0160768D01*
X0117000Y0161766D02*
X0119500Y0161766D01*
X0119500Y0162765D02*
X0117000Y0162765D01*
X0117000Y0163763D02*
X0119500Y0163763D01*
X0119500Y0164762D02*
X0117000Y0164762D01*
X0117000Y0165760D02*
X0119500Y0165760D01*
X0120059Y0166759D02*
X0116441Y0166759D01*
X0115442Y0167757D02*
X0121058Y0167757D01*
X0122056Y0168756D02*
X0114444Y0168756D01*
X0105556Y0168756D02*
X0097944Y0168756D01*
X0098942Y0167757D02*
X0104558Y0167757D01*
X0103559Y0166759D02*
X0099941Y0166759D01*
X0100500Y0165760D02*
X0103000Y0165760D01*
X0103000Y0164762D02*
X0100500Y0164762D01*
X0100500Y0163763D02*
X0103000Y0163763D01*
X0103000Y0162765D02*
X0100500Y0162765D01*
X0100500Y0161766D02*
X0103000Y0161766D01*
X0103000Y0160768D02*
X0100500Y0160768D01*
X0099869Y0159769D02*
X0103631Y0159769D01*
X0104630Y0158771D02*
X0098870Y0158771D01*
X0097872Y0157772D02*
X0105628Y0157772D01*
X0106627Y0156774D02*
X0096873Y0156774D01*
X0090127Y0156774D02*
X0082692Y0156774D01*
X0081694Y0157772D02*
X0089128Y0157772D01*
X0088130Y0158771D02*
X0080695Y0158771D01*
X0079697Y0159769D02*
X0087131Y0159769D01*
X0086500Y0160768D02*
X0078698Y0160768D01*
X0078097Y0161766D02*
X0086500Y0161766D01*
X0086500Y0162765D02*
X0077591Y0162765D01*
X0076592Y0163763D02*
X0086500Y0163763D01*
X0086500Y0164762D02*
X0063200Y0164762D01*
X0063200Y0165760D02*
X0066865Y0165760D01*
X0065386Y0166759D02*
X0063200Y0166759D01*
X0063200Y0167757D02*
X0064600Y0167757D01*
X0064186Y0168756D02*
X0063200Y0168756D01*
X0063200Y0169754D02*
X0064050Y0169754D01*
X0064050Y0170753D02*
X0063200Y0170753D01*
X0063200Y0171751D02*
X0064396Y0171751D01*
X0064895Y0172750D02*
X0063200Y0172750D01*
X0063200Y0173748D02*
X0065893Y0173748D01*
X0066901Y0175745D02*
X0063200Y0175745D01*
X0063200Y0174747D02*
X0080302Y0174747D01*
X0083293Y0173748D02*
X0076607Y0173748D01*
X0075635Y0165760D02*
X0086500Y0165760D01*
X0083691Y0155775D02*
X0140150Y0155775D01*
X0140150Y0154777D02*
X0084689Y0154777D01*
X0074507Y0154777D02*
X0063200Y0154777D01*
X0063200Y0155775D02*
X0066829Y0155775D01*
X0065371Y0156774D02*
X0063200Y0156774D01*
X0063200Y0157772D02*
X0064594Y0157772D01*
X0064180Y0158771D02*
X0063200Y0158771D01*
X0063200Y0159769D02*
X0064050Y0159769D01*
X0064050Y0160768D02*
X0063200Y0160768D01*
X0063200Y0161766D02*
X0064403Y0161766D01*
X0064909Y0162765D02*
X0063200Y0162765D01*
X0063200Y0163763D02*
X0065908Y0163763D01*
X0065923Y0153778D02*
X0063200Y0153778D01*
X0063200Y0152780D02*
X0064924Y0152780D01*
X0064409Y0151781D02*
X0063200Y0151781D01*
X0063200Y0150783D02*
X0064050Y0150783D01*
X0064050Y0149784D02*
X0063200Y0149784D01*
X0063200Y0148786D02*
X0064174Y0148786D01*
X0064588Y0147787D02*
X0063200Y0147787D01*
X0063200Y0146789D02*
X0065356Y0146789D01*
X0066793Y0145790D02*
X0063200Y0145790D01*
X0063200Y0144792D02*
X0075117Y0144792D01*
X0078085Y0141796D02*
X0078328Y0141796D01*
X0078450Y0140798D02*
X0183200Y0140798D01*
X0183200Y0141796D02*
X0146672Y0141796D01*
X0147886Y0142795D02*
X0183200Y0142795D01*
X0183200Y0143793D02*
X0148884Y0143793D01*
X0149883Y0144792D02*
X0183200Y0144792D01*
X0183200Y0145790D02*
X0150881Y0145790D01*
X0151880Y0146789D02*
X0183200Y0146789D01*
X0183200Y0147787D02*
X0152878Y0147787D01*
X0153394Y0148786D02*
X0183200Y0148786D01*
X0183200Y0149784D02*
X0153600Y0149784D01*
X0153600Y0150783D02*
X0183200Y0150783D01*
X0183200Y0151767D02*
X0183200Y0135631D01*
X0181271Y0134832D01*
X0179668Y0133229D01*
X0178800Y0131134D01*
X0178800Y0128866D01*
X0179668Y0126771D01*
X0181271Y0125168D01*
X0182216Y0124777D01*
X0180668Y0123229D01*
X0179800Y0121134D01*
X0179800Y0118866D01*
X0180668Y0116771D01*
X0182271Y0115168D01*
X0182845Y0114930D01*
X0182504Y0114819D01*
X0181775Y0114447D01*
X0181112Y0113966D01*
X0180534Y0113388D01*
X0180053Y0112725D01*
X0179681Y0111996D01*
X0179428Y0111218D01*
X0179314Y0110500D01*
X0184000Y0110500D01*
X0184000Y0109500D01*
X0185000Y0109500D01*
X0185000Y0110500D01*
X0189686Y0110500D01*
X0189572Y0111218D01*
X0189319Y0111996D01*
X0188947Y0112725D01*
X0188466Y0113388D01*
X0187888Y0113966D01*
X0187225Y0114447D01*
X0187120Y0114501D01*
X0188729Y0115168D01*
X0190332Y0116771D01*
X0191200Y0118866D01*
X0191200Y0121134D01*
X0190332Y0123229D01*
X0188729Y0124832D01*
X0187784Y0125223D01*
X0189332Y0126771D01*
X0190200Y0128866D01*
X0190200Y0131134D01*
X0189400Y0133065D01*
X0189400Y0149866D01*
X0197306Y0157772D01*
X0198178Y0158644D01*
X0198650Y0159783D01*
X0198650Y0166567D01*
X0198178Y0167706D01*
X0193090Y0172794D01*
X0192840Y0173398D01*
X0191898Y0174340D01*
X0190666Y0174850D01*
X0189334Y0174850D01*
X0188102Y0174340D01*
X0187160Y0173398D01*
X0186650Y0172166D01*
X0186650Y0170834D01*
X0186871Y0170300D01*
X0183601Y0170300D01*
X0179500Y0166199D01*
X0179500Y0160401D01*
X0183601Y0156300D01*
X0187066Y0156300D01*
X0183672Y0152906D01*
X0183200Y0151767D01*
X0183206Y0151781D02*
X0153600Y0151781D01*
X0153600Y0152780D02*
X0183620Y0152780D01*
X0184544Y0153778D02*
X0153600Y0153778D01*
X0153600Y0154777D02*
X0185543Y0154777D01*
X0186541Y0155775D02*
X0153600Y0155775D01*
X0156873Y0156774D02*
X0166627Y0156774D01*
X0165628Y0157772D02*
X0157872Y0157772D01*
X0158870Y0158771D02*
X0164630Y0158771D01*
X0163631Y0159769D02*
X0159869Y0159769D01*
X0160500Y0160768D02*
X0163000Y0160768D01*
X0163000Y0161766D02*
X0160500Y0161766D01*
X0160500Y0162765D02*
X0163000Y0162765D01*
X0163000Y0163763D02*
X0160500Y0163763D01*
X0160500Y0164762D02*
X0163000Y0164762D01*
X0163000Y0165760D02*
X0160500Y0165760D01*
X0159941Y0166759D02*
X0163559Y0166759D01*
X0164558Y0167757D02*
X0158942Y0167757D01*
X0157944Y0168756D02*
X0165556Y0168756D01*
X0166555Y0169754D02*
X0156945Y0169754D01*
X0159328Y0178000D02*
X0160500Y0179172D01*
X0160500Y0190828D01*
X0159328Y0192000D01*
X0147672Y0192000D01*
X0146500Y0190828D01*
X0146500Y0179172D01*
X0147672Y0178000D01*
X0159328Y0178000D01*
X0160069Y0178741D02*
X0166360Y0178741D01*
X0165361Y0179739D02*
X0160500Y0179739D01*
X0160500Y0180738D02*
X0164363Y0180738D01*
X0163364Y0181737D02*
X0160500Y0181737D01*
X0160500Y0182735D02*
X0163000Y0182735D01*
X0163000Y0183734D02*
X0160500Y0183734D01*
X0160500Y0184732D02*
X0163000Y0184732D01*
X0163000Y0185731D02*
X0160500Y0185731D01*
X0160500Y0186729D02*
X0163000Y0186729D01*
X0163000Y0187728D02*
X0160500Y0187728D01*
X0160500Y0188726D02*
X0163827Y0188726D01*
X0164825Y0189725D02*
X0160500Y0189725D01*
X0160500Y0190723D02*
X0165824Y0190723D01*
X0166822Y0191722D02*
X0159607Y0191722D01*
X0155431Y0192720D02*
X0113600Y0192720D01*
X0113600Y0191722D02*
X0123322Y0191722D01*
X0123601Y0192000D02*
X0119500Y0187899D01*
X0119500Y0182101D01*
X0123601Y0178000D01*
X0129399Y0178000D01*
X0133500Y0182101D01*
X0133500Y0187899D01*
X0129399Y0192000D01*
X0123601Y0192000D01*
X0122324Y0190723D02*
X0114176Y0190723D01*
X0113600Y0191299D02*
X0113600Y0198459D01*
X0113781Y0198640D01*
X0113781Y0203860D01*
X0112610Y0205031D01*
X0107390Y0205031D01*
X0106219Y0203860D01*
X0106219Y0198640D01*
X0106400Y0198459D01*
X0106400Y0191299D01*
X0103000Y0187899D01*
X0103000Y0182101D01*
X0107101Y0178000D01*
X0112899Y0178000D01*
X0117000Y0182101D01*
X0117000Y0187899D01*
X0113600Y0191299D01*
X0115175Y0189725D02*
X0121325Y0189725D01*
X0120327Y0188726D02*
X0116173Y0188726D01*
X0117000Y0187728D02*
X0119500Y0187728D01*
X0119500Y0186729D02*
X0117000Y0186729D01*
X0117000Y0185731D02*
X0119500Y0185731D01*
X0119500Y0184732D02*
X0117000Y0184732D01*
X0117000Y0183734D02*
X0119500Y0183734D01*
X0119500Y0182735D02*
X0117000Y0182735D01*
X0116636Y0181737D02*
X0119864Y0181737D01*
X0120863Y0180738D02*
X0115637Y0180738D01*
X0114639Y0179739D02*
X0121861Y0179739D01*
X0122860Y0178741D02*
X0113640Y0178741D01*
X0106360Y0178741D02*
X0100069Y0178741D01*
X0100500Y0179739D02*
X0105361Y0179739D01*
X0104363Y0180738D02*
X0100500Y0180738D01*
X0100500Y0181737D02*
X0103364Y0181737D01*
X0103000Y0182735D02*
X0100500Y0182735D01*
X0100500Y0183734D02*
X0103000Y0183734D01*
X0103000Y0184732D02*
X0100500Y0184732D01*
X0100500Y0185731D02*
X0103000Y0185731D01*
X0103000Y0186729D02*
X0100500Y0186729D01*
X0100500Y0187728D02*
X0103000Y0187728D01*
X0103827Y0188726D02*
X0100500Y0188726D01*
X0100500Y0189725D02*
X0104825Y0189725D01*
X0105824Y0190723D02*
X0100500Y0190723D01*
X0099607Y0191722D02*
X0106400Y0191722D01*
X0106400Y0192720D02*
X0088366Y0192720D01*
X0087555Y0193719D02*
X0106400Y0193719D01*
X0106400Y0194717D02*
X0086743Y0194717D01*
X0085932Y0195716D02*
X0106400Y0195716D01*
X0106400Y0196714D02*
X0085475Y0196714D01*
X0085475Y0197713D02*
X0106400Y0197713D01*
X0106219Y0198711D02*
X0085475Y0198711D01*
X0085475Y0199710D02*
X0106219Y0199710D01*
X0106219Y0200708D02*
X0085475Y0200708D01*
X0085475Y0201707D02*
X0106219Y0201707D01*
X0106219Y0202705D02*
X0085475Y0202705D01*
X0085475Y0203704D02*
X0106219Y0203704D01*
X0107062Y0204702D02*
X0085475Y0204702D01*
X0085475Y0205701D02*
X0142165Y0205701D01*
X0141167Y0206699D02*
X0128853Y0206699D01*
X0130931Y0207698D02*
X0140168Y0207698D01*
X0139170Y0208696D02*
X0131929Y0208696D01*
X0132840Y0209695D02*
X0138171Y0209695D01*
X0137173Y0210693D02*
X0133254Y0210693D01*
X0133667Y0211692D02*
X0136174Y0211692D01*
X0135176Y0212690D02*
X0133905Y0212690D01*
X0133905Y0213689D02*
X0134177Y0213689D01*
X0125834Y0221677D02*
X0078815Y0221677D01*
X0077680Y0222675D02*
X0125450Y0222675D01*
X0125450Y0223674D02*
X0076681Y0223674D01*
X0080188Y0220678D02*
X0090899Y0220678D01*
X0092027Y0221146D02*
X0089305Y0220018D01*
X0087222Y0217935D01*
X0086094Y0215213D01*
X0086094Y0212267D01*
X0087222Y0209545D01*
X0089305Y0207462D01*
X0092027Y0206335D01*
X0094973Y0206335D01*
X0097695Y0207462D01*
X0099778Y0209545D01*
X0100905Y0212267D01*
X0100905Y0215213D01*
X0099778Y0217935D01*
X0097695Y0220018D01*
X0094973Y0221146D01*
X0092027Y0221146D01*
X0096101Y0220678D02*
X0123899Y0220678D01*
X0121967Y0219680D02*
X0098033Y0219680D01*
X0099032Y0218681D02*
X0120968Y0218681D01*
X0120117Y0217683D02*
X0099883Y0217683D01*
X0100296Y0216684D02*
X0119704Y0216684D01*
X0119290Y0215686D02*
X0100710Y0215686D01*
X0100905Y0214687D02*
X0119094Y0214687D01*
X0119094Y0213689D02*
X0100905Y0213689D01*
X0100905Y0212690D02*
X0119094Y0212690D01*
X0119333Y0211692D02*
X0100667Y0211692D01*
X0100254Y0210693D02*
X0119746Y0210693D01*
X0120160Y0209695D02*
X0099840Y0209695D01*
X0098929Y0208696D02*
X0121071Y0208696D01*
X0122069Y0207698D02*
X0097931Y0207698D01*
X0095853Y0206699D02*
X0124147Y0206699D01*
X0113781Y0203704D02*
X0144162Y0203704D01*
X0143164Y0204702D02*
X0112938Y0204702D01*
X0113781Y0202705D02*
X0145161Y0202705D01*
X0146159Y0201707D02*
X0113781Y0201707D01*
X0113781Y0200708D02*
X0147158Y0200708D01*
X0148156Y0199710D02*
X0113781Y0199710D01*
X0113781Y0198711D02*
X0149155Y0198711D01*
X0150153Y0197713D02*
X0113600Y0197713D01*
X0113600Y0196714D02*
X0151152Y0196714D01*
X0152150Y0195716D02*
X0113600Y0195716D01*
X0113600Y0194717D02*
X0153149Y0194717D01*
X0154147Y0193719D02*
X0113600Y0193719D01*
X0129678Y0191722D02*
X0147393Y0191722D01*
X0146500Y0190723D02*
X0130676Y0190723D01*
X0131675Y0189725D02*
X0146500Y0189725D01*
X0146500Y0188726D02*
X0132673Y0188726D01*
X0133500Y0187728D02*
X0146500Y0187728D01*
X0146500Y0186729D02*
X0133500Y0186729D01*
X0133500Y0185731D02*
X0146500Y0185731D01*
X0146500Y0184732D02*
X0133500Y0184732D01*
X0133500Y0183734D02*
X0146500Y0183734D01*
X0146500Y0182735D02*
X0133500Y0182735D01*
X0133136Y0181737D02*
X0146500Y0181737D01*
X0146500Y0180738D02*
X0132137Y0180738D01*
X0131139Y0179739D02*
X0146500Y0179739D01*
X0146931Y0178741D02*
X0130140Y0178741D01*
X0127386Y0140529D02*
X0123285Y0136428D01*
X0123285Y0130629D01*
X0127386Y0126529D01*
X0133185Y0126529D01*
X0137285Y0130629D01*
X0137285Y0136428D01*
X0133185Y0140529D01*
X0127386Y0140529D01*
X0126656Y0139799D02*
X0117379Y0139799D01*
X0116649Y0140529D02*
X0110851Y0140529D01*
X0106750Y0136428D01*
X0106750Y0130629D01*
X0110851Y0126529D01*
X0116649Y0126529D01*
X0120750Y0130629D01*
X0120750Y0136428D01*
X0116649Y0140529D01*
X0118377Y0138801D02*
X0125658Y0138801D01*
X0124659Y0137802D02*
X0119376Y0137802D01*
X0120375Y0136803D02*
X0123661Y0136803D01*
X0123285Y0135805D02*
X0120750Y0135805D01*
X0120750Y0134806D02*
X0123285Y0134806D01*
X0123285Y0133808D02*
X0120750Y0133808D01*
X0120750Y0132809D02*
X0123285Y0132809D01*
X0123285Y0131811D02*
X0120750Y0131811D01*
X0120750Y0130812D02*
X0123285Y0130812D01*
X0124101Y0129814D02*
X0119935Y0129814D01*
X0118936Y0128815D02*
X0125099Y0128815D01*
X0126098Y0127817D02*
X0117938Y0127817D01*
X0116939Y0126818D02*
X0127096Y0126818D01*
X0133475Y0126818D02*
X0143632Y0126818D01*
X0143921Y0126529D02*
X0149720Y0126529D01*
X0153821Y0130629D01*
X0153821Y0136428D01*
X0149720Y0140529D01*
X0143921Y0140529D01*
X0139821Y0136428D01*
X0139821Y0130629D01*
X0143921Y0126529D01*
X0142633Y0127817D02*
X0134473Y0127817D01*
X0135472Y0128815D02*
X0141635Y0128815D01*
X0140636Y0129814D02*
X0136470Y0129814D01*
X0137285Y0130812D02*
X0139821Y0130812D01*
X0139821Y0131811D02*
X0137285Y0131811D01*
X0137285Y0132809D02*
X0139821Y0132809D01*
X0139821Y0133808D02*
X0137285Y0133808D01*
X0137285Y0134806D02*
X0139821Y0134806D01*
X0139821Y0135805D02*
X0137285Y0135805D01*
X0136910Y0136803D02*
X0140196Y0136803D01*
X0141195Y0137802D02*
X0135911Y0137802D01*
X0134913Y0138801D02*
X0142193Y0138801D01*
X0143192Y0139799D02*
X0133914Y0139799D01*
X0150450Y0139799D02*
X0183200Y0139799D01*
X0183200Y0138801D02*
X0167576Y0138801D01*
X0166798Y0139123D02*
X0163852Y0139123D01*
X0161130Y0137996D01*
X0159047Y0135912D01*
X0157919Y0133191D01*
X0157919Y0130244D01*
X0159047Y0127523D01*
X0161130Y0125439D01*
X0163852Y0124312D01*
X0166798Y0124312D01*
X0169520Y0125439D01*
X0171603Y0127523D01*
X0172730Y0130244D01*
X0172730Y0133191D01*
X0171603Y0135912D01*
X0169520Y0137996D01*
X0166798Y0139123D01*
X0169713Y0137802D02*
X0183200Y0137802D01*
X0183200Y0136803D02*
X0170712Y0136803D01*
X0171647Y0135805D02*
X0183200Y0135805D01*
X0181245Y0134806D02*
X0172061Y0134806D01*
X0172475Y0133808D02*
X0180247Y0133808D01*
X0179494Y0132809D02*
X0172730Y0132809D01*
X0172730Y0131811D02*
X0179080Y0131811D01*
X0178800Y0130812D02*
X0172730Y0130812D01*
X0172552Y0129814D02*
X0178800Y0129814D01*
X0178821Y0128815D02*
X0172138Y0128815D01*
X0171725Y0127817D02*
X0179235Y0127817D01*
X0179648Y0126818D02*
X0170899Y0126818D01*
X0169900Y0125820D02*
X0180619Y0125820D01*
X0182108Y0124821D02*
X0168028Y0124821D01*
X0162622Y0124821D02*
X0097949Y0124821D01*
X0096719Y0124312D02*
X0099441Y0125439D01*
X0101524Y0127523D01*
X0102652Y0130244D01*
X0102652Y0133191D01*
X0101524Y0135912D01*
X0099441Y0137996D01*
X0096719Y0139123D01*
X0093773Y0139123D01*
X0091051Y0137996D01*
X0088968Y0135912D01*
X0087841Y0133191D01*
X0087841Y0130244D01*
X0088968Y0127523D01*
X0091051Y0125439D01*
X0093773Y0124312D01*
X0096719Y0124312D01*
X0099821Y0125820D02*
X0160749Y0125820D01*
X0159751Y0126818D02*
X0150010Y0126818D01*
X0151009Y0127817D02*
X0158925Y0127817D01*
X0158511Y0128815D02*
X0152007Y0128815D01*
X0153006Y0129814D02*
X0158098Y0129814D01*
X0157919Y0130812D02*
X0153821Y0130812D01*
X0153821Y0131811D02*
X0157919Y0131811D01*
X0157919Y0132809D02*
X0153821Y0132809D01*
X0153821Y0133808D02*
X0158175Y0133808D01*
X0158589Y0134806D02*
X0153821Y0134806D01*
X0153821Y0135805D02*
X0159002Y0135805D01*
X0159938Y0136803D02*
X0153445Y0136803D01*
X0152447Y0137802D02*
X0160936Y0137802D01*
X0163073Y0138801D02*
X0151448Y0138801D01*
X0152649Y0118875D02*
X0140992Y0118875D01*
X0139821Y0117703D01*
X0139821Y0106047D01*
X0140992Y0104875D01*
X0152649Y0104875D01*
X0153821Y0106047D01*
X0153821Y0117703D01*
X0152649Y0118875D01*
X0152694Y0118830D02*
X0179815Y0118830D01*
X0179800Y0119829D02*
X0087125Y0119829D01*
X0093297Y0118830D02*
X0110806Y0118830D01*
X0109807Y0117832D02*
X0099470Y0117832D01*
X0105643Y0116833D02*
X0108809Y0116833D01*
X0106880Y0108845D02*
X0078450Y0108845D01*
X0078450Y0107847D02*
X0107879Y0107847D01*
X0108877Y0106848D02*
X0078041Y0106848D01*
X0077455Y0105850D02*
X0109876Y0105850D01*
X0103763Y0109844D02*
X0078376Y0109844D01*
X0077962Y0110842D02*
X0097591Y0110842D01*
X0091418Y0111841D02*
X0077265Y0111841D01*
X0075998Y0112839D02*
X0085246Y0112839D01*
X0079073Y0113838D02*
X0065475Y0113838D01*
X0065475Y0114836D02*
X0066078Y0114836D01*
X0066502Y0112839D02*
X0065475Y0112839D01*
X0058275Y0112839D02*
X0045998Y0112839D01*
X0046456Y0112650D02*
X0044765Y0113350D01*
X0037735Y0113350D01*
X0036044Y0112650D01*
X0034750Y0111356D01*
X0034050Y0109665D01*
X0034050Y0107835D01*
X0034750Y0106144D01*
X0036044Y0104850D01*
X0037735Y0104150D01*
X0044765Y0104150D01*
X0046456Y0104850D01*
X0047750Y0106144D01*
X0048450Y0107835D01*
X0048450Y0109665D01*
X0047750Y0111356D01*
X0046456Y0112650D01*
X0047265Y0111841D02*
X0058275Y0111841D01*
X0058275Y0110842D02*
X0047962Y0110842D01*
X0048376Y0109844D02*
X0058275Y0109844D01*
X0058275Y0108845D02*
X0048450Y0108845D01*
X0048450Y0107847D02*
X0058275Y0107847D01*
X0058275Y0106848D02*
X0048041Y0106848D01*
X0047455Y0105850D02*
X0058275Y0105850D01*
X0058275Y0104851D02*
X0046457Y0104851D01*
X0045962Y0102854D02*
X0058275Y0102854D01*
X0058275Y0101856D02*
X0047250Y0101856D01*
X0047750Y0101356D02*
X0046456Y0102650D01*
X0044765Y0103350D01*
X0037735Y0103350D01*
X0036044Y0102650D01*
X0034750Y0101356D01*
X0034050Y0099665D01*
X0034050Y0097835D01*
X0034750Y0096144D01*
X0036044Y0094850D01*
X0037735Y0094150D01*
X0044765Y0094150D01*
X0046456Y0094850D01*
X0047750Y0096144D01*
X0048450Y0097835D01*
X0048450Y0099665D01*
X0047750Y0101356D01*
X0047956Y0100857D02*
X0058275Y0100857D01*
X0058275Y0099859D02*
X0048370Y0099859D01*
X0048450Y0098860D02*
X0058275Y0098860D01*
X0058275Y0097862D02*
X0048450Y0097862D01*
X0048047Y0096863D02*
X0058275Y0096863D01*
X0058342Y0095865D02*
X0047470Y0095865D01*
X0046471Y0094866D02*
X0058666Y0094866D01*
X0058991Y0093868D02*
X0030658Y0093868D01*
X0030838Y0093688D02*
X0029938Y0094588D01*
X0026813Y0097713D01*
X0025637Y0098200D01*
X0019844Y0098200D01*
X0019832Y0098229D01*
X0018229Y0099832D01*
X0017824Y0100000D01*
X0018229Y0100168D01*
X0019832Y0101771D01*
X0020700Y0103866D01*
X0020700Y0106134D01*
X0019832Y0108229D01*
X0018229Y0109832D01*
X0017824Y0110000D01*
X0018229Y0110168D01*
X0019832Y0111771D01*
X0020700Y0113866D01*
X0020700Y0116134D01*
X0019832Y0118229D01*
X0018229Y0119832D01*
X0017824Y0120000D01*
X0018229Y0120168D01*
X0019832Y0121771D01*
X0020700Y0123866D01*
X0020700Y0126134D01*
X0019832Y0128229D01*
X0018229Y0129832D01*
X0017824Y0130000D01*
X0018229Y0130168D01*
X0019832Y0131771D01*
X0020700Y0133866D01*
X0020700Y0136134D01*
X0019832Y0138229D01*
X0018229Y0139832D01*
X0016134Y0140700D01*
X0013866Y0140700D01*
X0011771Y0139832D01*
X0010168Y0138229D01*
X0009300Y0136134D01*
X0009300Y0133866D01*
X0010168Y0131771D01*
X0011771Y0130168D01*
X0012176Y0130000D01*
X0011771Y0129832D01*
X0010168Y0128229D01*
X0009300Y0126134D01*
X0009300Y0123866D01*
X0010168Y0121771D01*
X0011771Y0120168D01*
X0012176Y0120000D01*
X0011771Y0119832D01*
X0010168Y0118229D01*
X0009300Y0116134D01*
X0009300Y0113866D01*
X0010168Y0111771D01*
X0011771Y0110168D01*
X0012176Y0110000D01*
X0011771Y0109832D01*
X0010168Y0108229D01*
X0009300Y0106134D01*
X0009300Y0103866D01*
X0010168Y0101771D01*
X0011771Y0100168D01*
X0012176Y0100000D01*
X0011771Y0099832D01*
X0010168Y0098229D01*
X0009300Y0096134D01*
X0009300Y0093866D01*
X0010168Y0091771D01*
X0011771Y0090168D01*
X0012176Y0090000D01*
X0011771Y0089832D01*
X0010168Y0088229D01*
X0009300Y0086134D01*
X0009300Y0083866D01*
X0010168Y0081771D01*
X0011771Y0080168D01*
X0012829Y0079730D01*
X0012275Y0079447D01*
X0011612Y0078966D01*
X0011034Y0078388D01*
X0010553Y0077725D01*
X0010181Y0076996D01*
X0009928Y0076218D01*
X0009814Y0075500D01*
X0014500Y0075500D01*
X0014500Y0074500D01*
X0009814Y0074500D01*
X0009928Y0073782D01*
X0010181Y0073004D01*
X0010553Y0072275D01*
X0011034Y0071612D01*
X0011612Y0071034D01*
X0012275Y0070553D01*
X0012829Y0070270D01*
X0011771Y0069832D01*
X0010168Y0068229D01*
X0009300Y0066134D01*
X0009300Y0063866D01*
X0010168Y0061771D01*
X0011771Y0060168D01*
X0012176Y0060000D01*
X0011771Y0059832D01*
X0010168Y0058229D01*
X0009300Y0056134D01*
X0009300Y0053866D01*
X0010168Y0051771D01*
X0011771Y0050168D01*
X0012176Y0050000D01*
X0011771Y0049832D01*
X0010168Y0048229D01*
X0009300Y0046134D01*
X0009300Y0043866D01*
X0010168Y0041771D01*
X0011771Y0040168D01*
X0013866Y0039300D01*
X0016134Y0039300D01*
X0018229Y0040168D01*
X0019832Y0041771D01*
X0020700Y0043866D01*
X0020700Y0046134D01*
X0019832Y0048229D01*
X0018229Y0049832D01*
X0017824Y0050000D01*
X0018229Y0050168D01*
X0019832Y0051771D01*
X0020700Y0053866D01*
X0020700Y0056134D01*
X0019832Y0058229D01*
X0018229Y0059832D01*
X0017824Y0060000D01*
X0018229Y0060168D01*
X0019832Y0061771D01*
X0020700Y0063866D01*
X0020700Y0066134D01*
X0019832Y0068229D01*
X0018229Y0069832D01*
X0017171Y0070270D01*
X0017725Y0070553D01*
X0018388Y0071034D01*
X0018966Y0071612D01*
X0019447Y0072275D01*
X0019819Y0073004D01*
X0020072Y0073782D01*
X0020186Y0074500D01*
X0015500Y0074500D01*
X0015500Y0075500D01*
X0020186Y0075500D01*
X0020072Y0076218D01*
X0019819Y0076996D01*
X0019447Y0077725D01*
X0018966Y0078388D01*
X0018388Y0078966D01*
X0017725Y0079447D01*
X0017171Y0079730D01*
X0018229Y0080168D01*
X0019832Y0081771D01*
X0020700Y0083866D01*
X0020700Y0086134D01*
X0019832Y0088229D01*
X0018229Y0089832D01*
X0017824Y0090000D01*
X0018229Y0090168D01*
X0019832Y0091771D01*
X0019844Y0091800D01*
X0023675Y0091800D01*
X0024925Y0090550D01*
X0024925Y0068738D01*
X0025412Y0067562D01*
X0034050Y0058925D01*
X0034050Y0057835D01*
X0034750Y0056144D01*
X0036044Y0054850D01*
X0037735Y0054150D01*
X0044765Y0054150D01*
X0046456Y0054850D01*
X0047750Y0056144D01*
X0048450Y0057835D01*
X0048450Y0059665D01*
X0047750Y0061356D01*
X0046456Y0062650D01*
X0044765Y0063350D01*
X0038675Y0063350D01*
X0037875Y0064150D01*
X0044765Y0064150D01*
X0046456Y0064850D01*
X0047750Y0066144D01*
X0048450Y0067835D01*
X0048450Y0069665D01*
X0047750Y0071356D01*
X0046456Y0072650D01*
X0044765Y0073350D01*
X0037735Y0073350D01*
X0036044Y0072650D01*
X0034750Y0071356D01*
X0034050Y0069665D01*
X0034050Y0067975D01*
X0031325Y0070700D01*
X0031325Y0092512D01*
X0030838Y0093688D01*
X0031177Y0092869D02*
X0036574Y0092869D01*
X0036044Y0092650D02*
X0034750Y0091356D01*
X0034050Y0089665D01*
X0034050Y0087835D01*
X0034750Y0086144D01*
X0036044Y0084850D01*
X0037735Y0084150D01*
X0044765Y0084150D01*
X0046456Y0084850D01*
X0047750Y0086144D01*
X0048450Y0087835D01*
X0048450Y0089665D01*
X0047750Y0091356D01*
X0046456Y0092650D01*
X0044765Y0093350D01*
X0037735Y0093350D01*
X0036044Y0092650D01*
X0035265Y0091870D02*
X0031325Y0091870D01*
X0031325Y0090872D02*
X0034550Y0090872D01*
X0034136Y0089873D02*
X0031325Y0089873D01*
X0031325Y0088875D02*
X0034050Y0088875D01*
X0034050Y0087876D02*
X0031325Y0087876D01*
X0031325Y0086878D02*
X0034446Y0086878D01*
X0035015Y0085879D02*
X0031325Y0085879D01*
X0031325Y0084881D02*
X0036014Y0084881D01*
X0036610Y0082884D02*
X0031325Y0082884D01*
X0031325Y0083882D02*
X0087216Y0083882D01*
X0087216Y0082884D02*
X0075890Y0082884D01*
X0076456Y0082650D02*
X0074765Y0083350D01*
X0067735Y0083350D01*
X0066044Y0082650D01*
X0064750Y0081356D01*
X0064050Y0079665D01*
X0064050Y0077835D01*
X0064750Y0076144D01*
X0066044Y0074850D01*
X0067735Y0074150D01*
X0072225Y0074150D01*
X0073725Y0073350D01*
X0067735Y0073350D01*
X0066044Y0072650D01*
X0064750Y0071356D01*
X0064050Y0069665D01*
X0064050Y0067835D01*
X0064750Y0066144D01*
X0066044Y0064850D01*
X0067735Y0064150D01*
X0074765Y0064150D01*
X0076456Y0064850D01*
X0077750Y0066144D01*
X0078450Y0067835D01*
X0078450Y0069665D01*
X0077831Y0071160D01*
X0086200Y0066697D01*
X0086357Y0066316D01*
X0087566Y0065107D01*
X0089145Y0064453D01*
X0090855Y0064453D01*
X0092434Y0065107D01*
X0093643Y0066316D01*
X0094297Y0067895D01*
X0094297Y0069605D01*
X0093643Y0071184D01*
X0092434Y0072393D01*
X0090855Y0073047D01*
X0089594Y0073047D01*
X0078450Y0078990D01*
X0078450Y0079665D01*
X0077750Y0081356D01*
X0076456Y0082650D01*
X0077220Y0081885D02*
X0087313Y0081885D01*
X0087216Y0082119D02*
X0088343Y0079398D01*
X0090426Y0077314D01*
X0093148Y0076187D01*
X0096094Y0076187D01*
X0098816Y0077314D01*
X0100899Y0079398D01*
X0102027Y0082119D01*
X0102027Y0085066D01*
X0100899Y0087787D01*
X0098816Y0089871D01*
X0096094Y0090998D01*
X0093148Y0090998D01*
X0090426Y0089871D01*
X0088343Y0087787D01*
X0087216Y0085066D01*
X0087216Y0082119D01*
X0087726Y0080887D02*
X0077944Y0080887D01*
X0078357Y0079888D02*
X0088140Y0079888D01*
X0088851Y0078890D02*
X0078638Y0078890D01*
X0080510Y0077891D02*
X0089849Y0077891D01*
X0091444Y0076893D02*
X0082382Y0076893D01*
X0084254Y0075894D02*
X0105401Y0075894D01*
X0105589Y0076152D02*
X0088173Y0052350D01*
X0076755Y0052350D01*
X0076456Y0052650D01*
X0074765Y0053350D01*
X0067735Y0053350D01*
X0066044Y0052650D01*
X0064750Y0051356D01*
X0064050Y0049665D01*
X0064050Y0047835D01*
X0064750Y0046144D01*
X0066044Y0044850D01*
X0067735Y0044150D01*
X0074765Y0044150D01*
X0076456Y0044850D01*
X0076755Y0045150D01*
X0089568Y0045150D01*
X0089844Y0045083D01*
X0090277Y0045150D01*
X0090716Y0045150D01*
X0090978Y0045259D01*
X0091259Y0045302D01*
X0091634Y0045530D01*
X0092039Y0045698D01*
X0092240Y0045899D01*
X0092482Y0046046D01*
X0092742Y0046400D01*
X0093052Y0046711D01*
X0093161Y0046973D01*
X0106125Y0064691D01*
X0106125Y0060851D01*
X0110226Y0056750D01*
X0116024Y0056750D01*
X0120125Y0060851D01*
X0120125Y0066649D01*
X0116024Y0070750D01*
X0110558Y0070750D01*
X0110577Y0070775D01*
X0119348Y0070775D01*
X0120671Y0071323D01*
X0127752Y0078404D01*
X0132560Y0078404D01*
X0136660Y0082504D01*
X0136660Y0088303D01*
X0132560Y0092404D01*
X0126761Y0092404D01*
X0122660Y0088303D01*
X0122660Y0083495D01*
X0117141Y0077975D01*
X0109182Y0077975D01*
X0108906Y0078042D01*
X0108473Y0077975D01*
X0108034Y0077975D01*
X0107772Y0077866D01*
X0107491Y0077823D01*
X0107116Y0077595D01*
X0106711Y0077427D01*
X0106510Y0077226D01*
X0106268Y0077079D01*
X0106008Y0076725D01*
X0105698Y0076414D01*
X0105589Y0076152D01*
X0106132Y0076893D02*
X0097798Y0076893D01*
X0099393Y0077891D02*
X0107832Y0077891D01*
X0109739Y0078890D02*
X0100391Y0078890D01*
X0101102Y0079888D02*
X0108741Y0079888D01*
X0107742Y0080887D02*
X0101516Y0080887D01*
X0101930Y0081885D02*
X0106744Y0081885D01*
X0106125Y0082504D02*
X0110226Y0078404D01*
X0116024Y0078404D01*
X0120125Y0082504D01*
X0120125Y0088303D01*
X0116024Y0092404D01*
X0110226Y0092404D01*
X0106125Y0088303D01*
X0106125Y0082504D01*
X0106125Y0082884D02*
X0102027Y0082884D01*
X0102027Y0083882D02*
X0106125Y0083882D01*
X0106125Y0084881D02*
X0102027Y0084881D01*
X0101689Y0085879D02*
X0106125Y0085879D01*
X0106125Y0086878D02*
X0101276Y0086878D01*
X0100810Y0087876D02*
X0106125Y0087876D01*
X0106697Y0088875D02*
X0099812Y0088875D01*
X0098809Y0089873D02*
X0107695Y0089873D01*
X0108694Y0090872D02*
X0096398Y0090872D01*
X0092844Y0090872D02*
X0077950Y0090872D01*
X0078364Y0089873D02*
X0090433Y0089873D01*
X0089431Y0088875D02*
X0078450Y0088875D01*
X0078450Y0087876D02*
X0088432Y0087876D01*
X0087966Y0086878D02*
X0078054Y0086878D01*
X0077485Y0085879D02*
X0087553Y0085879D01*
X0087216Y0084881D02*
X0076486Y0084881D01*
X0077235Y0091870D02*
X0109692Y0091870D01*
X0116558Y0091870D02*
X0126228Y0091870D01*
X0125229Y0090872D02*
X0117556Y0090872D01*
X0118555Y0089873D02*
X0124231Y0089873D01*
X0123232Y0088875D02*
X0119553Y0088875D01*
X0120125Y0087876D02*
X0122660Y0087876D01*
X0122660Y0086878D02*
X0120125Y0086878D01*
X0120125Y0085879D02*
X0122660Y0085879D01*
X0122660Y0084881D02*
X0120125Y0084881D01*
X0120125Y0083882D02*
X0122660Y0083882D01*
X0122050Y0082884D02*
X0120125Y0082884D01*
X0119506Y0081885D02*
X0121051Y0081885D01*
X0120053Y0080887D02*
X0118508Y0080887D01*
X0119054Y0079888D02*
X0117509Y0079888D01*
X0118056Y0078890D02*
X0116511Y0078890D01*
X0122247Y0072899D02*
X0182242Y0072899D01*
X0183240Y0073897D02*
X0123245Y0073897D01*
X0124244Y0074896D02*
X0184239Y0074896D01*
X0185237Y0075894D02*
X0125242Y0075894D01*
X0126241Y0076893D02*
X0161523Y0076893D01*
X0160505Y0077314D02*
X0158422Y0079398D01*
X0157294Y0082119D01*
X0157294Y0085066D01*
X0158422Y0087787D01*
X0160505Y0089871D01*
X0163227Y0090998D01*
X0166173Y0090998D01*
X0168895Y0089871D01*
X0170978Y0087787D01*
X0172105Y0085066D01*
X0172105Y0082119D01*
X0170978Y0079398D01*
X0168895Y0077314D01*
X0166173Y0076187D01*
X0163227Y0076187D01*
X0160505Y0077314D01*
X0159928Y0077891D02*
X0127239Y0077891D01*
X0133046Y0078890D02*
X0142810Y0078890D01*
X0143296Y0078404D02*
X0149095Y0078404D01*
X0153196Y0082504D01*
X0153196Y0088303D01*
X0149095Y0092404D01*
X0143296Y0092404D01*
X0139196Y0088303D01*
X0139196Y0082504D01*
X0143296Y0078404D01*
X0141812Y0079888D02*
X0134045Y0079888D01*
X0135043Y0080887D02*
X0140813Y0080887D01*
X0139815Y0081885D02*
X0136042Y0081885D01*
X0136660Y0082884D02*
X0139196Y0082884D01*
X0139196Y0083882D02*
X0136660Y0083882D01*
X0136660Y0084881D02*
X0139196Y0084881D01*
X0139196Y0085879D02*
X0136660Y0085879D01*
X0136660Y0086878D02*
X0139196Y0086878D01*
X0139196Y0087876D02*
X0136660Y0087876D01*
X0136088Y0088875D02*
X0139768Y0088875D01*
X0140766Y0089873D02*
X0135090Y0089873D01*
X0134091Y0090872D02*
X0141765Y0090872D01*
X0142763Y0091870D02*
X0133093Y0091870D01*
X0133185Y0104875D02*
X0127386Y0104875D01*
X0123285Y0108976D01*
X0123285Y0114774D01*
X0127386Y0118875D01*
X0133185Y0118875D01*
X0137285Y0114774D01*
X0137285Y0108976D01*
X0133185Y0104875D01*
X0134160Y0105850D02*
X0140018Y0105850D01*
X0139821Y0106848D02*
X0135158Y0106848D01*
X0136157Y0107847D02*
X0139821Y0107847D01*
X0139821Y0108845D02*
X0137155Y0108845D01*
X0137285Y0109844D02*
X0139821Y0109844D01*
X0139821Y0110842D02*
X0137285Y0110842D01*
X0137285Y0111841D02*
X0139821Y0111841D01*
X0139821Y0112839D02*
X0137285Y0112839D01*
X0137285Y0113838D02*
X0139821Y0113838D01*
X0139821Y0114836D02*
X0137224Y0114836D01*
X0136225Y0115835D02*
X0139821Y0115835D01*
X0139821Y0116833D02*
X0135227Y0116833D01*
X0134228Y0117832D02*
X0139949Y0117832D01*
X0140948Y0118830D02*
X0133230Y0118830D01*
X0127341Y0118830D02*
X0116694Y0118830D01*
X0117693Y0117832D02*
X0126343Y0117832D01*
X0125344Y0116833D02*
X0118691Y0116833D01*
X0119690Y0115835D02*
X0124346Y0115835D01*
X0123347Y0114836D02*
X0120688Y0114836D01*
X0120750Y0113838D02*
X0123285Y0113838D01*
X0123285Y0112839D02*
X0120750Y0112839D01*
X0120750Y0111841D02*
X0123285Y0111841D01*
X0123285Y0110842D02*
X0120750Y0110842D01*
X0120750Y0109844D02*
X0123285Y0109844D01*
X0123416Y0108845D02*
X0120620Y0108845D01*
X0119621Y0107847D02*
X0124414Y0107847D01*
X0125413Y0106848D02*
X0118623Y0106848D01*
X0117624Y0105850D02*
X0126411Y0105850D01*
X0110561Y0126818D02*
X0100820Y0126818D01*
X0101646Y0127817D02*
X0109562Y0127817D01*
X0108564Y0128815D02*
X0102060Y0128815D01*
X0102473Y0129814D02*
X0107565Y0129814D01*
X0106750Y0130812D02*
X0102652Y0130812D01*
X0102652Y0131811D02*
X0106750Y0131811D01*
X0106750Y0132809D02*
X0102652Y0132809D01*
X0102396Y0133808D02*
X0106750Y0133808D01*
X0106750Y0134806D02*
X0101982Y0134806D01*
X0101569Y0135805D02*
X0106750Y0135805D01*
X0107125Y0136803D02*
X0100633Y0136803D01*
X0099635Y0137802D02*
X0108124Y0137802D01*
X0109122Y0138801D02*
X0097498Y0138801D01*
X0092994Y0138801D02*
X0078332Y0138801D01*
X0078450Y0139799D02*
X0110121Y0139799D01*
X0092543Y0124821D02*
X0067322Y0124821D01*
X0066523Y0123823D02*
X0181262Y0123823D01*
X0180500Y0122824D02*
X0076034Y0122824D01*
X0077280Y0121826D02*
X0180087Y0121826D01*
X0179800Y0120827D02*
X0080952Y0120827D01*
X0073640Y0126818D02*
X0089672Y0126818D01*
X0088846Y0127817D02*
X0074158Y0127817D01*
X0074656Y0128815D02*
X0088432Y0128815D01*
X0088019Y0129814D02*
X0074850Y0129814D01*
X0074810Y0130812D02*
X0087841Y0130812D01*
X0087841Y0131811D02*
X0074396Y0131811D01*
X0073997Y0132809D02*
X0087841Y0132809D01*
X0088096Y0133808D02*
X0073014Y0133808D01*
X0075743Y0135805D02*
X0088923Y0135805D01*
X0088510Y0134806D02*
X0063200Y0134806D01*
X0063200Y0133808D02*
X0066986Y0133808D01*
X0066003Y0132809D02*
X0063200Y0132809D01*
X0063200Y0131811D02*
X0064572Y0131811D01*
X0065286Y0132330D02*
X0065286Y0132330D01*
X0066757Y0135805D02*
X0063200Y0135805D01*
X0063200Y0136803D02*
X0065341Y0136803D01*
X0064581Y0137802D02*
X0063200Y0137802D01*
X0063200Y0138801D02*
X0064168Y0138801D01*
X0064050Y0139799D02*
X0063200Y0139799D01*
X0063200Y0140798D02*
X0064050Y0140798D01*
X0064415Y0141796D02*
X0063200Y0141796D01*
X0063200Y0142795D02*
X0064939Y0142795D01*
X0065938Y0143793D02*
X0063200Y0143793D01*
X0056800Y0143793D02*
X0045437Y0143793D01*
X0045424Y0143800D02*
X0044810Y0143999D01*
X0044173Y0144100D01*
X0041550Y0144100D01*
X0041550Y0140300D01*
X0040950Y0140300D01*
X0040950Y0144100D01*
X0038327Y0144100D01*
X0037690Y0143999D01*
X0037076Y0143800D01*
X0036501Y0143507D01*
X0035979Y0143127D01*
X0035523Y0142671D01*
X0035143Y0142149D01*
X0034850Y0141574D01*
X0034651Y0140960D01*
X0034550Y0140323D01*
X0034550Y0140300D01*
X0040950Y0140300D01*
X0040950Y0139700D01*
X0041550Y0139700D01*
X0041550Y0140300D01*
X0047950Y0140300D01*
X0047950Y0140323D01*
X0047849Y0140960D01*
X0047650Y0141574D01*
X0047357Y0142149D01*
X0046977Y0142671D01*
X0046521Y0143127D01*
X0045999Y0143507D01*
X0045424Y0143800D01*
X0044765Y0145400D02*
X0046456Y0146100D01*
X0047750Y0147394D01*
X0048450Y0149085D01*
X0048450Y0150915D01*
X0047750Y0152606D01*
X0046456Y0153900D01*
X0044765Y0154600D01*
X0037735Y0154600D01*
X0036044Y0153900D01*
X0034750Y0152606D01*
X0034050Y0150915D01*
X0034050Y0149085D01*
X0034750Y0147394D01*
X0036044Y0146100D01*
X0037735Y0145400D01*
X0044765Y0145400D01*
X0045707Y0145790D02*
X0056800Y0145790D01*
X0056800Y0144792D02*
X0017321Y0144792D01*
X0018229Y0145168D02*
X0016134Y0144300D01*
X0013866Y0144300D01*
X0011771Y0145168D01*
X0010168Y0146771D01*
X0009300Y0148866D01*
X0009300Y0151134D01*
X0010168Y0153229D01*
X0011771Y0154832D01*
X0012176Y0155000D01*
X0011771Y0155168D01*
X0010168Y0156771D01*
X0009300Y0158866D01*
X0009300Y0161134D01*
X0010168Y0163229D01*
X0011771Y0164832D01*
X0012176Y0165000D01*
X0011771Y0165168D01*
X0010168Y0166771D01*
X0009300Y0168866D01*
X0009300Y0171134D01*
X0010168Y0173229D01*
X0011771Y0174832D01*
X0012176Y0175000D01*
X0011771Y0175168D01*
X0010168Y0176771D01*
X0009300Y0178866D01*
X0009300Y0181134D01*
X0010168Y0183229D01*
X0011771Y0184832D01*
X0012176Y0185000D01*
X0011771Y0185168D01*
X0010168Y0186771D01*
X0009300Y0188866D01*
X0009300Y0191134D01*
X0010168Y0193229D01*
X0011771Y0194832D01*
X0012176Y0195000D01*
X0011771Y0195168D01*
X0010168Y0196771D01*
X0009300Y0198866D01*
X0009300Y0201134D01*
X0010168Y0203229D01*
X0011771Y0204832D01*
X0012176Y0205000D01*
X0011771Y0205168D01*
X0010168Y0206771D01*
X0009300Y0208866D01*
X0009300Y0211134D01*
X0010168Y0213229D01*
X0011771Y0214832D01*
X0012176Y0215000D01*
X0011771Y0215168D01*
X0010168Y0216771D01*
X0009300Y0218866D01*
X0009300Y0221134D01*
X0010168Y0223229D01*
X0011771Y0224832D01*
X0013866Y0225700D01*
X0016134Y0225700D01*
X0018229Y0224832D01*
X0019832Y0223229D01*
X0020000Y0222824D01*
X0020168Y0223229D01*
X0021771Y0224832D01*
X0023866Y0225700D01*
X0026134Y0225700D01*
X0028229Y0224832D01*
X0029832Y0223229D01*
X0030700Y0221134D01*
X0030700Y0218866D01*
X0029832Y0216771D01*
X0028229Y0215168D01*
X0027824Y0215000D01*
X0028229Y0214832D01*
X0029300Y0213761D01*
X0029300Y0214387D01*
X0029787Y0215563D01*
X0034050Y0219825D01*
X0034050Y0220915D01*
X0034750Y0222606D01*
X0036044Y0223900D01*
X0037735Y0224600D01*
X0044765Y0224600D01*
X0046456Y0223900D01*
X0047750Y0222606D01*
X0048450Y0220915D01*
X0048450Y0219085D01*
X0047750Y0217394D01*
X0046456Y0216100D01*
X0044765Y0215400D01*
X0038675Y0215400D01*
X0037875Y0214600D01*
X0044765Y0214600D01*
X0046456Y0213900D01*
X0047750Y0212606D01*
X0048450Y0210915D01*
X0048450Y0209085D01*
X0047750Y0207394D01*
X0046456Y0206100D01*
X0044765Y0205400D01*
X0037735Y0205400D01*
X0036044Y0206100D01*
X0035577Y0206567D01*
X0035213Y0205687D01*
X0034313Y0204787D01*
X0026813Y0197287D01*
X0025637Y0196800D01*
X0019844Y0196800D01*
X0019832Y0196771D01*
X0018229Y0195168D01*
X0017824Y0195000D01*
X0018229Y0194832D01*
X0019832Y0193229D01*
X0020700Y0191134D01*
X0020700Y0188866D01*
X0019832Y0186771D01*
X0018229Y0185168D01*
X0017824Y0185000D01*
X0018229Y0184832D01*
X0019832Y0183229D01*
X0020700Y0181134D01*
X0020700Y0178866D01*
X0019832Y0176771D01*
X0018229Y0175168D01*
X0017824Y0175000D01*
X0018229Y0174832D01*
X0019832Y0173229D01*
X0020700Y0171134D01*
X0020700Y0168866D01*
X0019832Y0166771D01*
X0018229Y0165168D01*
X0017824Y0165000D01*
X0018229Y0164832D01*
X0019832Y0163229D01*
X0020700Y0161134D01*
X0020700Y0158866D01*
X0019832Y0156771D01*
X0018229Y0155168D01*
X0017824Y0155000D01*
X0018229Y0154832D01*
X0019832Y0153229D01*
X0020700Y0151134D01*
X0020700Y0148866D01*
X0019832Y0146771D01*
X0018229Y0145168D01*
X0018851Y0145790D02*
X0036793Y0145790D01*
X0035356Y0146789D02*
X0019839Y0146789D01*
X0020253Y0147787D02*
X0034588Y0147787D01*
X0034174Y0148786D02*
X0020667Y0148786D01*
X0020700Y0149784D02*
X0034050Y0149784D01*
X0034050Y0150783D02*
X0020700Y0150783D01*
X0020432Y0151781D02*
X0034409Y0151781D01*
X0034924Y0152780D02*
X0020018Y0152780D01*
X0019283Y0153778D02*
X0035923Y0153778D01*
X0036829Y0155775D02*
X0018836Y0155775D01*
X0018284Y0154777D02*
X0056800Y0154777D01*
X0056800Y0155775D02*
X0045671Y0155775D01*
X0046456Y0156100D02*
X0044765Y0155400D01*
X0037735Y0155400D01*
X0036044Y0156100D01*
X0034750Y0157394D01*
X0034050Y0159085D01*
X0034050Y0160915D01*
X0034750Y0162606D01*
X0036044Y0163900D01*
X0037735Y0164600D01*
X0044765Y0164600D01*
X0046456Y0163900D01*
X0047750Y0162606D01*
X0048450Y0160915D01*
X0048450Y0159085D01*
X0047750Y0157394D01*
X0046456Y0156100D01*
X0047129Y0156774D02*
X0056800Y0156774D01*
X0056800Y0157772D02*
X0047906Y0157772D01*
X0048320Y0158771D02*
X0056800Y0158771D01*
X0056800Y0159769D02*
X0048450Y0159769D01*
X0048450Y0160768D02*
X0056800Y0160768D01*
X0056800Y0161766D02*
X0048097Y0161766D01*
X0047591Y0162765D02*
X0056800Y0162765D01*
X0056800Y0163763D02*
X0046592Y0163763D01*
X0045635Y0165760D02*
X0056800Y0165760D01*
X0056800Y0164762D02*
X0018299Y0164762D01*
X0018821Y0165760D02*
X0036865Y0165760D01*
X0036044Y0166100D02*
X0037735Y0165400D01*
X0044765Y0165400D01*
X0046456Y0166100D01*
X0047750Y0167394D01*
X0048450Y0169085D01*
X0048450Y0170915D01*
X0047750Y0172606D01*
X0046456Y0173900D01*
X0044765Y0174600D01*
X0037735Y0174600D01*
X0036044Y0173900D01*
X0034750Y0172606D01*
X0034050Y0170915D01*
X0034050Y0169085D01*
X0034750Y0167394D01*
X0036044Y0166100D01*
X0035386Y0166759D02*
X0019820Y0166759D01*
X0020241Y0167757D02*
X0034600Y0167757D01*
X0034186Y0168756D02*
X0020654Y0168756D01*
X0020700Y0169754D02*
X0034050Y0169754D01*
X0034050Y0170753D02*
X0020700Y0170753D01*
X0020444Y0171751D02*
X0034396Y0171751D01*
X0034895Y0172750D02*
X0020031Y0172750D01*
X0019313Y0173748D02*
X0035893Y0173748D01*
X0036901Y0175745D02*
X0018806Y0175745D01*
X0018314Y0174747D02*
X0056800Y0174747D01*
X0056800Y0175745D02*
X0045599Y0175745D01*
X0044765Y0175400D02*
X0046456Y0176100D01*
X0047750Y0177394D01*
X0048450Y0179085D01*
X0048450Y0180915D01*
X0047750Y0182606D01*
X0046456Y0183900D01*
X0044765Y0184600D01*
X0037735Y0184600D01*
X0036044Y0183900D01*
X0034750Y0182606D01*
X0034050Y0180915D01*
X0034050Y0179085D01*
X0034750Y0177394D01*
X0036044Y0176100D01*
X0037735Y0175400D01*
X0044765Y0175400D01*
X0046607Y0173748D02*
X0056800Y0173748D01*
X0056800Y0172750D02*
X0047605Y0172750D01*
X0048104Y0171751D02*
X0056800Y0171751D01*
X0056800Y0170753D02*
X0048450Y0170753D01*
X0048450Y0169754D02*
X0056800Y0169754D01*
X0056800Y0168756D02*
X0048314Y0168756D01*
X0047900Y0167757D02*
X0056800Y0167757D01*
X0056800Y0166759D02*
X0047114Y0166759D01*
X0047099Y0176744D02*
X0056800Y0176744D01*
X0056800Y0177742D02*
X0047894Y0177742D01*
X0048307Y0178741D02*
X0056800Y0178741D01*
X0056800Y0179739D02*
X0048450Y0179739D01*
X0048450Y0180738D02*
X0056800Y0180738D01*
X0056800Y0181737D02*
X0048110Y0181737D01*
X0047620Y0182735D02*
X0056800Y0182735D01*
X0056800Y0183734D02*
X0046622Y0183734D01*
X0045563Y0185731D02*
X0056800Y0185731D01*
X0056800Y0186729D02*
X0047084Y0186729D01*
X0046456Y0186100D02*
X0047750Y0187394D01*
X0048450Y0189085D01*
X0048450Y0190915D01*
X0047750Y0192606D01*
X0046456Y0193900D01*
X0044765Y0194600D01*
X0037735Y0194600D01*
X0036044Y0193900D01*
X0034750Y0192606D01*
X0034050Y0190915D01*
X0034050Y0189085D01*
X0034750Y0187394D01*
X0036044Y0186100D01*
X0037735Y0185400D01*
X0044765Y0185400D01*
X0046456Y0186100D01*
X0047888Y0187728D02*
X0056800Y0187728D01*
X0056800Y0188726D02*
X0048301Y0188726D01*
X0048450Y0189725D02*
X0056800Y0189725D01*
X0056800Y0190723D02*
X0048450Y0190723D01*
X0048116Y0191722D02*
X0056800Y0191722D01*
X0056800Y0192720D02*
X0047635Y0192720D01*
X0046637Y0193719D02*
X0056800Y0193719D01*
X0056800Y0194717D02*
X0018344Y0194717D01*
X0018777Y0195716D02*
X0036973Y0195716D01*
X0037735Y0195400D02*
X0036044Y0196100D01*
X0034750Y0197394D01*
X0034050Y0199085D01*
X0034050Y0200915D01*
X0034750Y0202606D01*
X0036044Y0203900D01*
X0037735Y0204600D01*
X0044765Y0204600D01*
X0046456Y0203900D01*
X0047750Y0202606D01*
X0048450Y0200915D01*
X0048450Y0199085D01*
X0047750Y0197394D01*
X0046456Y0196100D01*
X0044765Y0195400D01*
X0037735Y0195400D01*
X0035863Y0193719D02*
X0019342Y0193719D01*
X0020043Y0192720D02*
X0034865Y0192720D01*
X0034384Y0191722D02*
X0020457Y0191722D01*
X0020700Y0190723D02*
X0034050Y0190723D01*
X0034050Y0189725D02*
X0020700Y0189725D01*
X0020642Y0188726D02*
X0034199Y0188726D01*
X0034612Y0187728D02*
X0020228Y0187728D01*
X0019790Y0186729D02*
X0035416Y0186729D01*
X0036937Y0185731D02*
X0018792Y0185731D01*
X0018329Y0184732D02*
X0056800Y0184732D01*
X0063200Y0184732D02*
X0085579Y0184732D01*
X0084768Y0185731D02*
X0075563Y0185731D01*
X0074765Y0185400D02*
X0076456Y0186100D01*
X0077750Y0187394D01*
X0078450Y0189085D01*
X0078450Y0190915D01*
X0077750Y0192606D01*
X0076456Y0193900D01*
X0074765Y0194600D01*
X0067735Y0194600D01*
X0066044Y0193900D01*
X0064750Y0192606D01*
X0064050Y0190915D01*
X0064050Y0189085D01*
X0064750Y0187394D01*
X0066044Y0186100D01*
X0067735Y0185400D01*
X0074765Y0185400D01*
X0076622Y0183734D02*
X0086391Y0183734D01*
X0086500Y0182735D02*
X0077620Y0182735D01*
X0077084Y0186729D02*
X0083957Y0186729D01*
X0083145Y0187728D02*
X0077888Y0187728D01*
X0078301Y0188726D02*
X0082334Y0188726D01*
X0081523Y0189725D02*
X0078450Y0189725D01*
X0078450Y0190723D02*
X0080711Y0190723D01*
X0079900Y0191722D02*
X0078116Y0191722D01*
X0077635Y0192720D02*
X0079064Y0192720D01*
X0078500Y0193719D02*
X0076637Y0193719D01*
X0078227Y0194717D02*
X0063200Y0194717D01*
X0063200Y0193719D02*
X0065863Y0193719D01*
X0064865Y0192720D02*
X0063200Y0192720D01*
X0063200Y0191722D02*
X0064384Y0191722D01*
X0064050Y0190723D02*
X0063200Y0190723D01*
X0063200Y0189725D02*
X0064050Y0189725D01*
X0064199Y0188726D02*
X0063200Y0188726D01*
X0063200Y0187728D02*
X0064612Y0187728D01*
X0065416Y0186729D02*
X0063200Y0186729D01*
X0063200Y0185731D02*
X0066937Y0185731D01*
X0065878Y0183734D02*
X0063200Y0183734D01*
X0063200Y0182735D02*
X0064880Y0182735D01*
X0064390Y0181737D02*
X0063200Y0181737D01*
X0063200Y0180738D02*
X0064050Y0180738D01*
X0064050Y0179739D02*
X0063200Y0179739D01*
X0063200Y0178741D02*
X0064192Y0178741D01*
X0064606Y0177742D02*
X0063200Y0177742D01*
X0063200Y0176744D02*
X0065401Y0176744D01*
X0082125Y0181737D02*
X0082153Y0181737D01*
X0082497Y0181737D02*
X0086500Y0181737D01*
X0086500Y0180738D02*
X0085160Y0180738D01*
X0078275Y0195716D02*
X0075527Y0195716D01*
X0077070Y0196714D02*
X0078275Y0196714D01*
X0078275Y0197713D02*
X0077882Y0197713D01*
X0078122Y0201707D02*
X0078275Y0201707D01*
X0078275Y0202705D02*
X0077650Y0202705D01*
X0078275Y0203704D02*
X0076652Y0203704D01*
X0078275Y0204702D02*
X0063200Y0204702D01*
X0063200Y0203704D02*
X0065848Y0203704D01*
X0064850Y0202705D02*
X0063200Y0202705D01*
X0063200Y0201707D02*
X0064378Y0201707D01*
X0064050Y0200708D02*
X0063200Y0200708D01*
X0063200Y0199710D02*
X0064050Y0199710D01*
X0064205Y0198711D02*
X0063200Y0198711D01*
X0063200Y0197713D02*
X0064618Y0197713D01*
X0065430Y0196714D02*
X0063200Y0196714D01*
X0063200Y0195716D02*
X0066973Y0195716D01*
X0067009Y0205701D02*
X0063200Y0205701D01*
X0063200Y0206699D02*
X0065445Y0206699D01*
X0064625Y0207698D02*
X0063200Y0207698D01*
X0063200Y0208696D02*
X0064211Y0208696D01*
X0064050Y0209695D02*
X0063200Y0209695D01*
X0063200Y0210693D02*
X0064050Y0210693D01*
X0064372Y0211692D02*
X0063200Y0211692D01*
X0063200Y0212690D02*
X0064835Y0212690D01*
X0065833Y0213689D02*
X0063200Y0213689D01*
X0063200Y0214687D02*
X0076184Y0214687D01*
X0076666Y0213689D02*
X0077557Y0213689D01*
X0077665Y0212690D02*
X0078275Y0212690D01*
X0078275Y0211692D02*
X0078128Y0211692D01*
X0078275Y0207698D02*
X0077875Y0207698D01*
X0078275Y0206699D02*
X0077055Y0206699D01*
X0078275Y0205701D02*
X0075491Y0205701D01*
X0067045Y0215686D02*
X0063200Y0215686D01*
X0063200Y0216684D02*
X0065460Y0216684D01*
X0064631Y0217683D02*
X0063200Y0217683D01*
X0063200Y0218681D02*
X0064217Y0218681D01*
X0064050Y0219680D02*
X0063200Y0219680D01*
X0063253Y0220678D02*
X0064050Y0220678D01*
X0064366Y0221677D02*
X0063555Y0221677D01*
X0064056Y0222675D02*
X0064820Y0222675D01*
X0064906Y0223674D02*
X0065819Y0223674D01*
X0066764Y0224672D02*
X0125730Y0224672D01*
X0091147Y0206699D02*
X0085475Y0206699D01*
X0085475Y0207698D02*
X0089069Y0207698D01*
X0088071Y0208696D02*
X0085475Y0208696D01*
X0085475Y0209695D02*
X0087160Y0209695D01*
X0086746Y0210693D02*
X0085475Y0210693D01*
X0085475Y0211692D02*
X0086333Y0211692D01*
X0086094Y0212690D02*
X0085475Y0212690D01*
X0085475Y0213689D02*
X0086094Y0213689D01*
X0086094Y0214687D02*
X0085502Y0214687D01*
X0085475Y0215686D02*
X0086290Y0215686D01*
X0086704Y0216684D02*
X0085074Y0216684D01*
X0084307Y0217683D02*
X0087117Y0217683D01*
X0087968Y0218681D02*
X0082934Y0218681D01*
X0081561Y0219680D02*
X0088967Y0219680D01*
X0060786Y0228667D02*
X0008667Y0228667D01*
X0007668Y0227668D02*
X0059698Y0227668D01*
X0060017Y0228108D02*
X0060017Y0228108D01*
X0058972Y0226670D02*
X0007000Y0226670D01*
X0007000Y0225671D02*
X0013796Y0225671D01*
X0011611Y0224672D02*
X0007000Y0224672D01*
X0007000Y0223674D02*
X0010613Y0223674D01*
X0009939Y0222675D02*
X0007000Y0222675D01*
X0007000Y0221677D02*
X0009525Y0221677D01*
X0009300Y0220678D02*
X0007000Y0220678D01*
X0007000Y0219680D02*
X0009300Y0219680D01*
X0009377Y0218681D02*
X0007000Y0218681D01*
X0007000Y0217683D02*
X0009790Y0217683D01*
X0010255Y0216684D02*
X0007000Y0216684D01*
X0007000Y0215686D02*
X0011253Y0215686D01*
X0011626Y0214687D02*
X0007000Y0214687D01*
X0007000Y0213689D02*
X0010628Y0213689D01*
X0009945Y0212690D02*
X0007000Y0212690D01*
X0007000Y0211692D02*
X0009531Y0211692D01*
X0009300Y0210693D02*
X0007000Y0210693D01*
X0007000Y0209695D02*
X0009300Y0209695D01*
X0009370Y0208696D02*
X0007000Y0208696D01*
X0007000Y0207698D02*
X0009784Y0207698D01*
X0010240Y0206699D02*
X0007000Y0206699D01*
X0007000Y0205701D02*
X0011238Y0205701D01*
X0011641Y0204702D02*
X0007000Y0204702D01*
X0007000Y0203704D02*
X0010643Y0203704D01*
X0009951Y0202705D02*
X0007000Y0202705D01*
X0007000Y0201707D02*
X0009537Y0201707D01*
X0009300Y0200708D02*
X0007000Y0200708D01*
X0007000Y0199710D02*
X0009300Y0199710D01*
X0009364Y0198711D02*
X0007000Y0198711D01*
X0007000Y0197713D02*
X0009778Y0197713D01*
X0010225Y0196714D02*
X0007000Y0196714D01*
X0007000Y0195716D02*
X0011223Y0195716D01*
X0011656Y0194717D02*
X0007000Y0194717D01*
X0007000Y0193719D02*
X0010658Y0193719D01*
X0009957Y0192720D02*
X0007000Y0192720D01*
X0007000Y0191722D02*
X0009543Y0191722D01*
X0009300Y0190723D02*
X0007000Y0190723D01*
X0007000Y0189725D02*
X0009300Y0189725D01*
X0009358Y0188726D02*
X0007000Y0188726D01*
X0007000Y0187728D02*
X0009772Y0187728D01*
X0010210Y0186729D02*
X0007000Y0186729D01*
X0007000Y0185731D02*
X0011208Y0185731D01*
X0011671Y0184732D02*
X0007000Y0184732D01*
X0007000Y0183734D02*
X0010673Y0183734D01*
X0009963Y0182735D02*
X0007000Y0182735D01*
X0007000Y0181737D02*
X0009550Y0181737D01*
X0009300Y0180738D02*
X0007000Y0180738D01*
X0007000Y0179739D02*
X0009300Y0179739D01*
X0009352Y0178741D02*
X0007000Y0178741D01*
X0007000Y0177742D02*
X0009765Y0177742D01*
X0010195Y0176744D02*
X0007000Y0176744D01*
X0007000Y0175745D02*
X0011194Y0175745D01*
X0011686Y0174747D02*
X0007000Y0174747D01*
X0007000Y0173748D02*
X0010687Y0173748D01*
X0009969Y0172750D02*
X0007000Y0172750D01*
X0007000Y0171751D02*
X0009556Y0171751D01*
X0009300Y0170753D02*
X0007000Y0170753D01*
X0007000Y0169754D02*
X0009300Y0169754D01*
X0009346Y0168756D02*
X0007000Y0168756D01*
X0007000Y0167757D02*
X0009759Y0167757D01*
X0010180Y0166759D02*
X0007000Y0166759D01*
X0007000Y0165760D02*
X0011179Y0165760D01*
X0011701Y0164762D02*
X0007000Y0164762D01*
X0007000Y0163763D02*
X0010702Y0163763D01*
X0009976Y0162765D02*
X0007000Y0162765D01*
X0007000Y0161766D02*
X0009562Y0161766D01*
X0009300Y0160768D02*
X0007000Y0160768D01*
X0007000Y0159769D02*
X0009300Y0159769D01*
X0009340Y0158771D02*
X0007000Y0158771D01*
X0007000Y0157772D02*
X0009753Y0157772D01*
X0010167Y0156774D02*
X0007000Y0156774D01*
X0007000Y0155775D02*
X0011164Y0155775D01*
X0011716Y0154777D02*
X0007000Y0154777D01*
X0007000Y0153778D02*
X0010717Y0153778D01*
X0009982Y0152780D02*
X0007000Y0152780D01*
X0007000Y0151781D02*
X0009568Y0151781D01*
X0009300Y0150783D02*
X0007000Y0150783D01*
X0007000Y0149784D02*
X0009300Y0149784D01*
X0009333Y0148786D02*
X0007000Y0148786D01*
X0007000Y0147787D02*
X0009747Y0147787D01*
X0010161Y0146789D02*
X0007000Y0146789D01*
X0007000Y0145790D02*
X0011149Y0145790D01*
X0012679Y0144792D02*
X0007000Y0144792D01*
X0007000Y0143793D02*
X0037063Y0143793D01*
X0035646Y0142795D02*
X0007000Y0142795D01*
X0007000Y0141796D02*
X0034964Y0141796D01*
X0034625Y0140798D02*
X0007000Y0140798D01*
X0007000Y0139799D02*
X0011738Y0139799D01*
X0010739Y0138801D02*
X0007000Y0138801D01*
X0007000Y0137802D02*
X0009991Y0137802D01*
X0009577Y0136803D02*
X0007000Y0136803D01*
X0007000Y0135805D02*
X0009300Y0135805D01*
X0009300Y0134806D02*
X0007000Y0134806D01*
X0007000Y0133808D02*
X0009324Y0133808D01*
X0009738Y0132809D02*
X0007000Y0132809D01*
X0007000Y0131811D02*
X0010151Y0131811D01*
X0011127Y0130812D02*
X0007000Y0130812D01*
X0007000Y0129814D02*
X0011753Y0129814D01*
X0010754Y0128815D02*
X0007000Y0128815D01*
X0007000Y0127817D02*
X0009997Y0127817D01*
X0009584Y0126818D02*
X0007000Y0126818D01*
X0007000Y0125820D02*
X0009300Y0125820D01*
X0009300Y0124821D02*
X0007000Y0124821D01*
X0007000Y0123823D02*
X0009318Y0123823D01*
X0009732Y0122824D02*
X0007000Y0122824D01*
X0007000Y0121826D02*
X0010145Y0121826D01*
X0011112Y0120827D02*
X0007000Y0120827D01*
X0007000Y0119829D02*
X0011768Y0119829D01*
X0010769Y0118830D02*
X0007000Y0118830D01*
X0007000Y0117832D02*
X0010003Y0117832D01*
X0009590Y0116833D02*
X0007000Y0116833D01*
X0007000Y0115835D02*
X0009300Y0115835D01*
X0009300Y0114836D02*
X0007000Y0114836D01*
X0007000Y0113838D02*
X0009312Y0113838D01*
X0009725Y0112839D02*
X0007000Y0112839D01*
X0007000Y0111841D02*
X0010139Y0111841D01*
X0011097Y0110842D02*
X0007000Y0110842D01*
X0007000Y0109844D02*
X0011799Y0109844D01*
X0010784Y0108845D02*
X0007000Y0108845D01*
X0007000Y0107847D02*
X0010009Y0107847D01*
X0009596Y0106848D02*
X0007000Y0106848D01*
X0007000Y0105850D02*
X0009300Y0105850D01*
X0009300Y0104851D02*
X0007000Y0104851D01*
X0007000Y0103853D02*
X0009306Y0103853D01*
X0009719Y0102854D02*
X0007000Y0102854D01*
X0007000Y0101856D02*
X0010133Y0101856D01*
X0011082Y0100857D02*
X0007000Y0100857D01*
X0007000Y0099859D02*
X0011835Y0099859D01*
X0010799Y0098860D02*
X0007000Y0098860D01*
X0007000Y0097862D02*
X0010016Y0097862D01*
X0009602Y0096863D02*
X0007000Y0096863D01*
X0007000Y0095865D02*
X0009300Y0095865D01*
X0009300Y0094866D02*
X0007000Y0094866D01*
X0007000Y0093868D02*
X0009300Y0093868D01*
X0009713Y0092869D02*
X0007000Y0092869D01*
X0007000Y0091870D02*
X0010127Y0091870D01*
X0011067Y0090872D02*
X0007000Y0090872D01*
X0007000Y0089873D02*
X0011871Y0089873D01*
X0010814Y0088875D02*
X0007000Y0088875D01*
X0007000Y0087876D02*
X0010022Y0087876D01*
X0009608Y0086878D02*
X0007000Y0086878D01*
X0007000Y0085879D02*
X0009300Y0085879D01*
X0009300Y0084881D02*
X0007000Y0084881D01*
X0007000Y0083882D02*
X0009300Y0083882D01*
X0009707Y0082884D02*
X0007000Y0082884D01*
X0007000Y0081885D02*
X0010120Y0081885D01*
X0011052Y0080887D02*
X0007000Y0080887D01*
X0007000Y0079888D02*
X0012446Y0079888D01*
X0011536Y0078890D02*
X0007000Y0078890D01*
X0007000Y0077891D02*
X0010673Y0077891D01*
X0010147Y0076893D02*
X0007000Y0076893D01*
X0007000Y0075894D02*
X0009877Y0075894D01*
X0009910Y0073897D02*
X0007000Y0073897D01*
X0007000Y0072899D02*
X0010235Y0072899D01*
X0010825Y0071900D02*
X0007000Y0071900D01*
X0007000Y0070902D02*
X0011794Y0070902D01*
X0011943Y0069903D02*
X0007000Y0069903D01*
X0007000Y0068905D02*
X0010844Y0068905D01*
X0010034Y0067906D02*
X0007000Y0067906D01*
X0007000Y0066908D02*
X0009621Y0066908D01*
X0009300Y0065909D02*
X0007000Y0065909D01*
X0007000Y0064911D02*
X0009300Y0064911D01*
X0009300Y0063912D02*
X0007000Y0063912D01*
X0007000Y0062914D02*
X0009695Y0062914D01*
X0010108Y0061915D02*
X0007000Y0061915D01*
X0007000Y0060917D02*
X0011022Y0060917D01*
X0011979Y0059918D02*
X0007000Y0059918D01*
X0007000Y0058920D02*
X0010859Y0058920D01*
X0010040Y0057921D02*
X0007000Y0057921D01*
X0007000Y0056923D02*
X0009627Y0056923D01*
X0009300Y0055924D02*
X0007000Y0055924D01*
X0007000Y0054926D02*
X0009300Y0054926D01*
X0009300Y0053927D02*
X0007000Y0053927D01*
X0007000Y0052929D02*
X0009688Y0052929D01*
X0010102Y0051930D02*
X0007000Y0051930D01*
X0007000Y0050932D02*
X0011007Y0050932D01*
X0012015Y0049933D02*
X0007000Y0049933D01*
X0007000Y0048934D02*
X0010873Y0048934D01*
X0010046Y0047936D02*
X0007000Y0047936D01*
X0007000Y0046937D02*
X0009633Y0046937D01*
X0009300Y0045939D02*
X0007000Y0045939D01*
X0007000Y0044940D02*
X0009300Y0044940D01*
X0009300Y0043942D02*
X0007000Y0043942D01*
X0007000Y0042943D02*
X0009682Y0042943D01*
X0010096Y0041945D02*
X0007000Y0041945D01*
X0007000Y0040946D02*
X0010993Y0040946D01*
X0012302Y0039948D02*
X0007000Y0039948D01*
X0007000Y0038949D02*
X0040950Y0038949D01*
X0040950Y0039050D02*
X0040950Y0038450D01*
X0041550Y0038450D01*
X0041550Y0039050D01*
X0040950Y0039050D01*
X0040950Y0042850D01*
X0038327Y0042850D01*
X0037690Y0042749D01*
X0037076Y0042550D01*
X0036501Y0042257D01*
X0035979Y0041877D01*
X0035523Y0041421D01*
X0035143Y0040899D01*
X0034850Y0040324D01*
X0034651Y0039710D01*
X0034550Y0039073D01*
X0034550Y0039050D01*
X0040950Y0039050D01*
X0041550Y0039050D02*
X0041550Y0042850D01*
X0044173Y0042850D01*
X0044810Y0042749D01*
X0045424Y0042550D01*
X0045999Y0042257D01*
X0046521Y0041877D01*
X0046977Y0041421D01*
X0047357Y0040899D01*
X0047650Y0040324D01*
X0047849Y0039710D01*
X0047950Y0039073D01*
X0047950Y0039050D01*
X0041550Y0039050D01*
X0041550Y0038949D02*
X0064050Y0038949D01*
X0064050Y0039665D02*
X0064050Y0037835D01*
X0064750Y0036144D01*
X0065645Y0035250D01*
X0065454Y0035250D01*
X0065319Y0035194D01*
X0065173Y0035184D01*
X0064588Y0034891D01*
X0063984Y0034641D01*
X0063881Y0034537D01*
X0063103Y0034148D01*
X0063103Y0034148D01*
X0060938Y0032017D01*
X0060938Y0032017D01*
X0059539Y0029320D01*
X0059280Y0027765D01*
X0058663Y0027149D01*
X0057750Y0024943D01*
X0057750Y0022557D01*
X0058663Y0020351D01*
X0060265Y0018750D01*
X0058663Y0017149D01*
X0057750Y0014943D01*
X0057750Y0012557D01*
X0058663Y0010351D01*
X0060351Y0008663D01*
X0062557Y0007750D01*
X0064943Y0007750D01*
X0067149Y0008663D01*
X0068837Y0010351D01*
X0069750Y0012557D01*
X0069750Y0014943D01*
X0068837Y0017149D01*
X0067235Y0018750D01*
X0068837Y0020351D01*
X0069750Y0022557D01*
X0069750Y0024943D01*
X0068837Y0027149D01*
X0068735Y0027250D01*
X0074125Y0027250D01*
X0074125Y0022811D01*
X0073293Y0021979D01*
X0072425Y0019884D01*
X0072425Y0017616D01*
X0073293Y0015521D01*
X0074896Y0013918D01*
X0076991Y0013050D01*
X0079259Y0013050D01*
X0081354Y0013918D01*
X0082957Y0015521D01*
X0083125Y0015926D01*
X0083293Y0015521D01*
X0084896Y0013918D01*
X0086991Y0013050D01*
X0089259Y0013050D01*
X0091354Y0013918D01*
X0092957Y0015521D01*
X0093825Y0017616D01*
X0093825Y0019884D01*
X0092957Y0021979D01*
X0092125Y0022811D01*
X0092125Y0027250D01*
X0164672Y0027250D01*
X0168869Y0028374D01*
X0172631Y0030547D01*
X0172631Y0030547D01*
X0175703Y0033619D01*
X0177876Y0037381D01*
X0179000Y0041578D01*
X0179000Y0058343D01*
X0197266Y0076609D01*
X0198391Y0077734D01*
X0199000Y0079204D01*
X0199000Y0113343D01*
X0201298Y0115641D01*
X0201771Y0115168D01*
X0202176Y0115000D01*
X0201771Y0114832D01*
X0200168Y0113229D01*
X0199300Y0111134D01*
X0199300Y0108866D01*
X0200168Y0106771D01*
X0201771Y0105168D01*
X0202176Y0105000D01*
X0201771Y0104832D01*
X0200168Y0103229D01*
X0199300Y0101134D01*
X0199300Y0098866D01*
X0200168Y0096771D01*
X0201771Y0095168D01*
X0202176Y0095000D01*
X0201771Y0094832D01*
X0200168Y0093229D01*
X0199300Y0091134D01*
X0199300Y0088866D01*
X0200168Y0086771D01*
X0201771Y0085168D01*
X0202176Y0085000D01*
X0201771Y0084832D01*
X0200168Y0083229D01*
X0199300Y0081134D01*
X0199300Y0078866D01*
X0200168Y0076771D01*
X0201771Y0075168D01*
X0203866Y0074300D01*
X0206134Y0074300D01*
X0208229Y0075168D01*
X0209832Y0076771D01*
X0210700Y0078866D01*
X0210700Y0081134D01*
X0209832Y0083229D01*
X0208229Y0084832D01*
X0207824Y0085000D01*
X0208229Y0085168D01*
X0209832Y0086771D01*
X0210700Y0088866D01*
X0210700Y0091134D01*
X0209832Y0093229D01*
X0208229Y0094832D01*
X0207824Y0095000D01*
X0208229Y0095168D01*
X0209832Y0096771D01*
X0210700Y0098866D01*
X0210700Y0101134D01*
X0209832Y0103229D01*
X0208229Y0104832D01*
X0207824Y0105000D01*
X0208229Y0105168D01*
X0209832Y0106771D01*
X0210700Y0108866D01*
X0210700Y0111134D01*
X0209832Y0113229D01*
X0208229Y0114832D01*
X0207824Y0115000D01*
X0208229Y0115168D01*
X0209832Y0116771D01*
X0210700Y0118866D01*
X0210700Y0121134D01*
X0209832Y0123229D01*
X0208229Y0124832D01*
X0207171Y0125270D01*
X0207725Y0125553D01*
X0208388Y0126034D01*
X0208966Y0126612D01*
X0209447Y0127275D01*
X0209819Y0128004D01*
X0210072Y0128782D01*
X0210186Y0129500D01*
X0205500Y0129500D01*
X0205500Y0130500D01*
X0210186Y0130500D01*
X0210072Y0131218D01*
X0209819Y0131996D01*
X0209447Y0132725D01*
X0208966Y0133388D01*
X0208388Y0133966D01*
X0207725Y0134447D01*
X0206996Y0134819D01*
X0206439Y0135000D01*
X0206996Y0135181D01*
X0207725Y0135553D01*
X0208388Y0136034D01*
X0208966Y0136612D01*
X0209447Y0137275D01*
X0209819Y0138004D01*
X0210072Y0138782D01*
X0210186Y0139500D01*
X0205500Y0139500D01*
X0205500Y0140500D01*
X0210186Y0140500D01*
X0210072Y0141218D01*
X0209819Y0141996D01*
X0209447Y0142725D01*
X0208966Y0143388D01*
X0208388Y0143966D01*
X0207725Y0144447D01*
X0207171Y0144730D01*
X0208229Y0145168D01*
X0209832Y0146771D01*
X0210700Y0148866D01*
X0210700Y0151134D01*
X0209832Y0153229D01*
X0208229Y0154832D01*
X0206134Y0155700D01*
X0203866Y0155700D01*
X0201771Y0154832D01*
X0200168Y0153229D01*
X0199300Y0151134D01*
X0199300Y0148866D01*
X0200168Y0146771D01*
X0201771Y0145168D01*
X0202829Y0144730D01*
X0202275Y0144447D01*
X0201612Y0143966D01*
X0201034Y0143388D01*
X0200553Y0142725D01*
X0200181Y0141996D01*
X0199928Y0141218D01*
X0199814Y0140500D01*
X0204500Y0140500D01*
X0204500Y0139500D01*
X0199814Y0139500D01*
X0199928Y0138782D01*
X0200181Y0138004D01*
X0200553Y0137275D01*
X0201034Y0136612D01*
X0201612Y0136034D01*
X0202275Y0135553D01*
X0203004Y0135181D01*
X0203561Y0135000D01*
X0203004Y0134819D01*
X0202275Y0134447D01*
X0201612Y0133966D01*
X0201034Y0133388D01*
X0200553Y0132725D01*
X0200181Y0131996D01*
X0199928Y0131218D01*
X0199814Y0130500D01*
X0204500Y0130500D01*
X0204500Y0139500D01*
X0205500Y0139500D01*
X0205500Y0134814D01*
X0205500Y0130500D01*
X0204500Y0130500D01*
X0204500Y0129500D01*
X0199814Y0129500D01*
X0199928Y0128782D01*
X0200181Y0128004D01*
X0200553Y0127275D01*
X0201034Y0126612D01*
X0201612Y0126034D01*
X0202275Y0125553D01*
X0202829Y0125270D01*
X0201771Y0124832D01*
X0200939Y0124000D01*
X0199204Y0124000D01*
X0197734Y0123391D01*
X0196609Y0122266D01*
X0191609Y0117266D01*
X0191000Y0115796D01*
X0191000Y0081657D01*
X0171609Y0062266D01*
X0171000Y0060796D01*
X0171000Y0043750D01*
X0170927Y0042641D01*
X0170353Y0040497D01*
X0169244Y0038576D01*
X0167674Y0037006D01*
X0165753Y0035897D01*
X0163609Y0035323D01*
X0162500Y0035250D01*
X0076855Y0035250D01*
X0077750Y0036144D01*
X0078450Y0037835D01*
X0078450Y0039665D01*
X0077750Y0041356D01*
X0076456Y0042650D01*
X0074765Y0043350D01*
X0067735Y0043350D01*
X0066044Y0042650D01*
X0064750Y0041356D01*
X0064050Y0039665D01*
X0064167Y0039948D02*
X0047772Y0039948D01*
X0047322Y0040946D02*
X0064581Y0040946D01*
X0065340Y0041945D02*
X0046428Y0041945D01*
X0044765Y0044150D02*
X0046456Y0044850D01*
X0047750Y0046144D01*
X0048450Y0047835D01*
X0048450Y0049665D01*
X0047750Y0051356D01*
X0046456Y0052650D01*
X0044765Y0053350D01*
X0037735Y0053350D01*
X0036044Y0052650D01*
X0034750Y0051356D01*
X0034050Y0049665D01*
X0034050Y0047835D01*
X0034750Y0046144D01*
X0036044Y0044850D01*
X0037735Y0044150D01*
X0044765Y0044150D01*
X0046546Y0044940D02*
X0065954Y0044940D01*
X0064956Y0045939D02*
X0047544Y0045939D01*
X0048078Y0046937D02*
X0064422Y0046937D01*
X0064050Y0047936D02*
X0048450Y0047936D01*
X0048450Y0048934D02*
X0064050Y0048934D01*
X0064161Y0049933D02*
X0048339Y0049933D01*
X0047925Y0050932D02*
X0064575Y0050932D01*
X0065325Y0051930D02*
X0047175Y0051930D01*
X0045782Y0052929D02*
X0066718Y0052929D01*
X0067735Y0054150D02*
X0074765Y0054150D01*
X0076456Y0054850D01*
X0077750Y0056144D01*
X0078450Y0057835D01*
X0078450Y0059665D01*
X0077750Y0061356D01*
X0076456Y0062650D01*
X0074765Y0063350D01*
X0067735Y0063350D01*
X0066044Y0062650D01*
X0064750Y0061356D01*
X0064050Y0059665D01*
X0064050Y0057835D01*
X0064750Y0056144D01*
X0066044Y0054850D01*
X0067735Y0054150D01*
X0065969Y0054926D02*
X0046531Y0054926D01*
X0047529Y0055924D02*
X0064971Y0055924D01*
X0064428Y0056923D02*
X0048072Y0056923D01*
X0048450Y0057921D02*
X0064050Y0057921D01*
X0064050Y0058920D02*
X0048450Y0058920D01*
X0048345Y0059918D02*
X0064155Y0059918D01*
X0064568Y0060917D02*
X0047932Y0060917D01*
X0047190Y0061915D02*
X0065310Y0061915D01*
X0066682Y0062914D02*
X0045818Y0062914D01*
X0046516Y0064911D02*
X0065984Y0064911D01*
X0064985Y0065909D02*
X0047515Y0065909D01*
X0048066Y0066908D02*
X0064434Y0066908D01*
X0064050Y0067906D02*
X0048450Y0067906D01*
X0048450Y0068905D02*
X0064050Y0068905D01*
X0064149Y0069903D02*
X0048351Y0069903D01*
X0047938Y0070902D02*
X0064562Y0070902D01*
X0065295Y0071900D02*
X0047205Y0071900D01*
X0045854Y0072899D02*
X0066646Y0072899D01*
X0065999Y0074896D02*
X0046501Y0074896D01*
X0046456Y0074850D02*
X0047750Y0076144D01*
X0048450Y0077835D01*
X0048450Y0079665D01*
X0047750Y0081356D01*
X0046456Y0082650D01*
X0044765Y0083350D01*
X0037735Y0083350D01*
X0036044Y0082650D01*
X0034750Y0081356D01*
X0034050Y0079665D01*
X0034050Y0077835D01*
X0034750Y0076144D01*
X0036044Y0074850D01*
X0037735Y0074150D01*
X0044765Y0074150D01*
X0046456Y0074850D01*
X0047500Y0075894D02*
X0065000Y0075894D01*
X0064440Y0076893D02*
X0048060Y0076893D01*
X0048450Y0077891D02*
X0064050Y0077891D01*
X0064050Y0078890D02*
X0048450Y0078890D01*
X0048357Y0079888D02*
X0064143Y0079888D01*
X0064556Y0080887D02*
X0047944Y0080887D01*
X0047220Y0081885D02*
X0065280Y0081885D01*
X0066610Y0082884D02*
X0045890Y0082884D01*
X0046486Y0084881D02*
X0066014Y0084881D01*
X0065015Y0085879D02*
X0047485Y0085879D01*
X0048054Y0086878D02*
X0064446Y0086878D01*
X0063282Y0087876D02*
X0048450Y0087876D01*
X0048450Y0088875D02*
X0061933Y0088875D01*
X0061961Y0088836D02*
X0061961Y0088836D01*
X0061961Y0088836D01*
X0061207Y0089873D02*
X0048364Y0089873D01*
X0047950Y0090872D02*
X0060482Y0090872D01*
X0059756Y0091870D02*
X0047235Y0091870D01*
X0045926Y0092869D02*
X0059315Y0092869D01*
X0059545Y0092161D02*
X0059545Y0092161D01*
X0067406Y0093868D02*
X0191000Y0093868D01*
X0191000Y0094866D02*
X0076471Y0094866D01*
X0077470Y0095865D02*
X0191000Y0095865D01*
X0191000Y0096863D02*
X0078047Y0096863D01*
X0078450Y0097862D02*
X0191000Y0097862D01*
X0191000Y0098860D02*
X0078450Y0098860D01*
X0078370Y0099859D02*
X0191000Y0099859D01*
X0191000Y0100857D02*
X0077956Y0100857D01*
X0077250Y0101856D02*
X0191000Y0101856D01*
X0191000Y0102854D02*
X0075962Y0102854D01*
X0076457Y0104851D02*
X0183768Y0104851D01*
X0184000Y0104851D02*
X0185000Y0104851D01*
X0185000Y0104814D02*
X0185718Y0104928D01*
X0186496Y0105181D01*
X0187225Y0105553D01*
X0187888Y0106034D01*
X0188466Y0106612D01*
X0188947Y0107275D01*
X0189319Y0108004D01*
X0189572Y0108782D01*
X0189686Y0109500D01*
X0185000Y0109500D01*
X0185000Y0104814D01*
X0185232Y0104851D02*
X0191000Y0104851D01*
X0191000Y0103853D02*
X0065475Y0103853D01*
X0065475Y0104851D02*
X0066043Y0104851D01*
X0066538Y0102854D02*
X0065475Y0102854D01*
X0058275Y0103853D02*
X0020694Y0103853D01*
X0020700Y0104851D02*
X0036043Y0104851D01*
X0035045Y0105850D02*
X0020700Y0105850D01*
X0020404Y0106848D02*
X0034459Y0106848D01*
X0034050Y0107847D02*
X0019991Y0107847D01*
X0019216Y0108845D02*
X0034050Y0108845D01*
X0034124Y0109844D02*
X0018201Y0109844D01*
X0018903Y0110842D02*
X0034538Y0110842D01*
X0035235Y0111841D02*
X0019861Y0111841D01*
X0020275Y0112839D02*
X0036502Y0112839D01*
X0036078Y0114836D02*
X0020700Y0114836D01*
X0020688Y0113838D02*
X0058275Y0113838D01*
X0058275Y0114836D02*
X0046422Y0114836D01*
X0050074Y0115835D02*
X0058275Y0115835D01*
X0058275Y0116833D02*
X0051359Y0116833D01*
X0052357Y0117832D02*
X0058275Y0117832D01*
X0058275Y0118830D02*
X0053356Y0118830D01*
X0054354Y0119829D02*
X0058275Y0119829D01*
X0058275Y0120827D02*
X0055353Y0120827D01*
X0056351Y0121826D02*
X0058275Y0121826D01*
X0058322Y0122824D02*
X0057350Y0122824D01*
X0058348Y0123823D02*
X0058646Y0123823D01*
X0054290Y0128815D02*
X0019246Y0128815D01*
X0020003Y0127817D02*
X0053291Y0127817D01*
X0052293Y0126818D02*
X0020416Y0126818D01*
X0020700Y0125820D02*
X0051294Y0125820D01*
X0050296Y0124821D02*
X0020700Y0124821D01*
X0020682Y0123823D02*
X0049297Y0123823D01*
X0048299Y0122824D02*
X0046034Y0122824D01*
X0051067Y0129814D02*
X0018247Y0129814D01*
X0018873Y0130812D02*
X0049998Y0130812D01*
X0049506Y0131811D02*
X0019849Y0131811D01*
X0020262Y0132809D02*
X0049278Y0132809D01*
X0049278Y0133808D02*
X0020676Y0133808D01*
X0020700Y0134806D02*
X0049658Y0134806D01*
X0050365Y0135805D02*
X0020700Y0135805D01*
X0020423Y0136803D02*
X0036074Y0136803D01*
X0035979Y0136873D02*
X0036501Y0136493D01*
X0037076Y0136200D01*
X0037690Y0136001D01*
X0038327Y0135900D01*
X0040950Y0135900D01*
X0040950Y0139700D01*
X0034550Y0139700D01*
X0034550Y0139677D01*
X0034651Y0139040D01*
X0034850Y0138426D01*
X0035143Y0137851D01*
X0035523Y0137329D01*
X0035979Y0136873D01*
X0035179Y0137802D02*
X0020009Y0137802D01*
X0019260Y0138801D02*
X0034729Y0138801D01*
X0040950Y0138801D02*
X0041550Y0138801D01*
X0041550Y0139700D02*
X0041550Y0135900D01*
X0044173Y0135900D01*
X0044810Y0136001D01*
X0045424Y0136200D01*
X0045999Y0136493D01*
X0046521Y0136873D01*
X0046977Y0137329D01*
X0047357Y0137851D01*
X0047650Y0138426D01*
X0047849Y0139040D01*
X0047950Y0139677D01*
X0047950Y0139700D01*
X0041550Y0139700D01*
X0041550Y0139799D02*
X0056800Y0139799D01*
X0056800Y0138801D02*
X0047771Y0138801D01*
X0047321Y0137802D02*
X0056800Y0137802D01*
X0056800Y0136803D02*
X0054296Y0136803D01*
X0055885Y0135805D02*
X0056800Y0135805D01*
X0056800Y0134806D02*
X0056592Y0134806D01*
X0056744Y0131811D02*
X0056800Y0131811D01*
X0056287Y0130812D02*
X0056252Y0130812D01*
X0055288Y0129814D02*
X0055183Y0129814D01*
X0051954Y0136803D02*
X0046426Y0136803D01*
X0047875Y0140798D02*
X0056800Y0140798D01*
X0056800Y0141796D02*
X0047536Y0141796D01*
X0046854Y0142795D02*
X0056800Y0142795D01*
X0056800Y0146789D02*
X0047144Y0146789D01*
X0047912Y0147787D02*
X0056800Y0147787D01*
X0056800Y0148786D02*
X0048326Y0148786D01*
X0048450Y0149784D02*
X0056800Y0149784D01*
X0056800Y0150783D02*
X0048450Y0150783D01*
X0048091Y0151781D02*
X0056800Y0151781D01*
X0056800Y0152780D02*
X0047576Y0152780D01*
X0046577Y0153778D02*
X0056800Y0153778D01*
X0041550Y0143793D02*
X0040950Y0143793D01*
X0040950Y0142795D02*
X0041550Y0142795D01*
X0041550Y0141796D02*
X0040950Y0141796D01*
X0040950Y0140798D02*
X0041550Y0140798D01*
X0040950Y0139799D02*
X0018262Y0139799D01*
X0019833Y0156774D02*
X0035371Y0156774D01*
X0034594Y0157772D02*
X0020247Y0157772D01*
X0020660Y0158771D02*
X0034180Y0158771D01*
X0034050Y0159769D02*
X0020700Y0159769D01*
X0020700Y0160768D02*
X0034050Y0160768D01*
X0034403Y0161766D02*
X0020438Y0161766D01*
X0020024Y0162765D02*
X0034909Y0162765D01*
X0035908Y0163763D02*
X0019298Y0163763D01*
X0019805Y0176744D02*
X0035401Y0176744D01*
X0034606Y0177742D02*
X0020235Y0177742D01*
X0020648Y0178741D02*
X0034192Y0178741D01*
X0034050Y0179739D02*
X0020700Y0179739D01*
X0020700Y0180738D02*
X0034050Y0180738D01*
X0034390Y0181737D02*
X0020450Y0181737D01*
X0020037Y0182735D02*
X0034880Y0182735D01*
X0035878Y0183734D02*
X0019327Y0183734D01*
X0019775Y0196714D02*
X0035430Y0196714D01*
X0034618Y0197713D02*
X0027238Y0197713D01*
X0028237Y0198711D02*
X0034205Y0198711D01*
X0034050Y0199710D02*
X0029235Y0199710D01*
X0030234Y0200708D02*
X0034050Y0200708D01*
X0034378Y0201707D02*
X0031232Y0201707D01*
X0032231Y0202705D02*
X0034850Y0202705D01*
X0035848Y0203704D02*
X0033229Y0203704D01*
X0034228Y0204702D02*
X0056800Y0204702D01*
X0056800Y0203704D02*
X0046652Y0203704D01*
X0047650Y0202705D02*
X0056800Y0202705D01*
X0056800Y0201707D02*
X0048122Y0201707D01*
X0048450Y0200708D02*
X0056800Y0200708D01*
X0056800Y0199710D02*
X0048450Y0199710D01*
X0048295Y0198711D02*
X0056800Y0198711D01*
X0056800Y0197713D02*
X0047882Y0197713D01*
X0047070Y0196714D02*
X0056800Y0196714D01*
X0056800Y0195716D02*
X0045527Y0195716D01*
X0045491Y0205701D02*
X0056800Y0205701D01*
X0056800Y0206699D02*
X0047055Y0206699D01*
X0047875Y0207698D02*
X0056800Y0207698D01*
X0056800Y0208696D02*
X0048289Y0208696D01*
X0048450Y0209695D02*
X0056800Y0209695D01*
X0056800Y0210693D02*
X0048450Y0210693D01*
X0048128Y0211692D02*
X0056800Y0211692D01*
X0056800Y0212690D02*
X0047665Y0212690D01*
X0046666Y0213689D02*
X0056800Y0213689D01*
X0056800Y0214687D02*
X0037963Y0214687D01*
X0033904Y0219680D02*
X0030700Y0219680D01*
X0030700Y0220678D02*
X0034050Y0220678D01*
X0034366Y0221677D02*
X0030475Y0221677D01*
X0030061Y0222675D02*
X0034820Y0222675D01*
X0035819Y0223674D02*
X0029387Y0223674D01*
X0028389Y0224672D02*
X0057735Y0224672D01*
X0057909Y0225206D02*
X0057909Y0225206D01*
X0058247Y0225671D02*
X0026204Y0225671D01*
X0023796Y0225671D02*
X0016204Y0225671D01*
X0018389Y0224672D02*
X0021611Y0224672D01*
X0020613Y0223674D02*
X0019387Y0223674D01*
X0028374Y0214687D02*
X0029425Y0214687D01*
X0029910Y0215686D02*
X0028747Y0215686D01*
X0029745Y0216684D02*
X0030909Y0216684D01*
X0030210Y0217683D02*
X0031907Y0217683D01*
X0032906Y0218681D02*
X0030623Y0218681D01*
X0035218Y0205701D02*
X0037009Y0205701D01*
X0045455Y0215686D02*
X0056800Y0215686D01*
X0056800Y0216684D02*
X0047040Y0216684D01*
X0047869Y0217683D02*
X0056800Y0217683D01*
X0056800Y0218681D02*
X0048283Y0218681D01*
X0048450Y0219680D02*
X0056800Y0219680D01*
X0056800Y0220678D02*
X0048450Y0220678D01*
X0048134Y0221677D02*
X0056800Y0221677D01*
X0057087Y0222675D02*
X0047680Y0222675D01*
X0046681Y0223674D02*
X0057411Y0223674D01*
X0041550Y0137802D02*
X0040950Y0137802D01*
X0040950Y0136803D02*
X0041550Y0136803D01*
X0036466Y0122824D02*
X0020268Y0122824D01*
X0019855Y0121826D02*
X0035220Y0121826D01*
X0034531Y0120827D02*
X0018888Y0120827D01*
X0018232Y0119829D02*
X0034118Y0119829D01*
X0034050Y0118830D02*
X0019231Y0118830D01*
X0019997Y0117832D02*
X0034051Y0117832D01*
X0034465Y0116833D02*
X0020410Y0116833D01*
X0020700Y0115835D02*
X0035060Y0115835D01*
X0036538Y0102854D02*
X0020281Y0102854D01*
X0019867Y0101856D02*
X0035250Y0101856D01*
X0034544Y0100857D02*
X0018918Y0100857D01*
X0018165Y0099859D02*
X0034130Y0099859D01*
X0034050Y0098860D02*
X0019201Y0098860D01*
X0018933Y0090872D02*
X0024603Y0090872D01*
X0024925Y0089873D02*
X0018129Y0089873D01*
X0019186Y0088875D02*
X0024925Y0088875D01*
X0024925Y0087876D02*
X0019978Y0087876D01*
X0020392Y0086878D02*
X0024925Y0086878D01*
X0024925Y0085879D02*
X0020700Y0085879D01*
X0020700Y0084881D02*
X0024925Y0084881D01*
X0024925Y0083882D02*
X0020700Y0083882D01*
X0020293Y0082884D02*
X0024925Y0082884D01*
X0024925Y0081885D02*
X0019880Y0081885D01*
X0018948Y0080887D02*
X0024925Y0080887D01*
X0024925Y0079888D02*
X0017554Y0079888D01*
X0018464Y0078890D02*
X0024925Y0078890D01*
X0024925Y0077891D02*
X0019327Y0077891D01*
X0019853Y0076893D02*
X0024925Y0076893D01*
X0024925Y0075894D02*
X0020123Y0075894D01*
X0020090Y0073897D02*
X0024925Y0073897D01*
X0024925Y0072899D02*
X0019765Y0072899D01*
X0019175Y0071900D02*
X0024925Y0071900D01*
X0024925Y0070902D02*
X0018206Y0070902D01*
X0018057Y0069903D02*
X0024925Y0069903D01*
X0024925Y0068905D02*
X0019156Y0068905D01*
X0019966Y0067906D02*
X0025270Y0067906D01*
X0026067Y0066908D02*
X0020379Y0066908D01*
X0020700Y0065909D02*
X0027065Y0065909D01*
X0028064Y0064911D02*
X0020700Y0064911D01*
X0020700Y0063912D02*
X0029062Y0063912D01*
X0030061Y0062914D02*
X0020305Y0062914D01*
X0019892Y0061915D02*
X0031059Y0061915D01*
X0032058Y0060917D02*
X0018978Y0060917D01*
X0018021Y0059918D02*
X0033056Y0059918D01*
X0034050Y0058920D02*
X0019141Y0058920D01*
X0019960Y0057921D02*
X0034050Y0057921D01*
X0034428Y0056923D02*
X0020373Y0056923D01*
X0020700Y0055924D02*
X0034971Y0055924D01*
X0035969Y0054926D02*
X0020700Y0054926D01*
X0020700Y0053927D02*
X0089327Y0053927D01*
X0088597Y0052929D02*
X0075782Y0052929D01*
X0076531Y0054926D02*
X0090058Y0054926D01*
X0090789Y0055924D02*
X0077529Y0055924D01*
X0078072Y0056923D02*
X0091519Y0056923D01*
X0092250Y0057921D02*
X0078450Y0057921D01*
X0078450Y0058920D02*
X0092980Y0058920D01*
X0093711Y0059918D02*
X0078345Y0059918D01*
X0077932Y0060917D02*
X0094442Y0060917D01*
X0095172Y0061915D02*
X0077190Y0061915D01*
X0075818Y0062914D02*
X0095903Y0062914D01*
X0096633Y0063912D02*
X0038113Y0063912D01*
X0034050Y0068905D02*
X0033121Y0068905D01*
X0032122Y0069903D02*
X0034149Y0069903D01*
X0034562Y0070902D02*
X0031325Y0070902D01*
X0031325Y0071900D02*
X0035295Y0071900D01*
X0036646Y0072899D02*
X0031325Y0072899D01*
X0031325Y0073897D02*
X0072699Y0073897D01*
X0077938Y0070902D02*
X0078315Y0070902D01*
X0078351Y0069903D02*
X0080188Y0069903D01*
X0078450Y0068905D02*
X0082060Y0068905D01*
X0083932Y0067906D02*
X0078450Y0067906D01*
X0078066Y0066908D02*
X0085804Y0066908D01*
X0086764Y0065909D02*
X0077515Y0065909D01*
X0076516Y0064911D02*
X0088041Y0064911D01*
X0091959Y0064911D02*
X0097364Y0064911D01*
X0098095Y0065909D02*
X0093236Y0065909D01*
X0093888Y0066908D02*
X0098825Y0066908D01*
X0099556Y0067906D02*
X0094297Y0067906D01*
X0094297Y0068905D02*
X0100287Y0068905D01*
X0101017Y0069903D02*
X0094173Y0069903D01*
X0093759Y0070902D02*
X0101748Y0070902D01*
X0102478Y0071900D02*
X0092926Y0071900D01*
X0091212Y0072899D02*
X0103209Y0072899D01*
X0103940Y0073897D02*
X0087999Y0073897D01*
X0086127Y0074896D02*
X0104670Y0074896D01*
X0105555Y0063912D02*
X0106125Y0063912D01*
X0106125Y0062914D02*
X0104824Y0062914D01*
X0104094Y0061915D02*
X0106125Y0061915D01*
X0106125Y0060917D02*
X0103363Y0060917D01*
X0102633Y0059918D02*
X0107057Y0059918D01*
X0108056Y0058920D02*
X0101902Y0058920D01*
X0101171Y0057921D02*
X0109054Y0057921D01*
X0110053Y0056923D02*
X0100441Y0056923D01*
X0099710Y0055924D02*
X0171000Y0055924D01*
X0171000Y0054926D02*
X0098979Y0054926D01*
X0098249Y0053927D02*
X0171000Y0053927D01*
X0171000Y0052929D02*
X0097518Y0052929D01*
X0096788Y0051930D02*
X0138456Y0051930D01*
X0138526Y0052000D02*
X0134425Y0047899D01*
X0134425Y0042101D01*
X0138526Y0038000D01*
X0144324Y0038000D01*
X0148425Y0042101D01*
X0148425Y0047899D01*
X0144324Y0052000D01*
X0138526Y0052000D01*
X0137457Y0050932D02*
X0096057Y0050932D01*
X0095326Y0049933D02*
X0136459Y0049933D01*
X0135460Y0048934D02*
X0094596Y0048934D01*
X0093865Y0047936D02*
X0134462Y0047936D01*
X0134425Y0046937D02*
X0093146Y0046937D01*
X0092306Y0045939D02*
X0134425Y0045939D01*
X0134425Y0044940D02*
X0076546Y0044940D01*
X0075747Y0042943D02*
X0134425Y0042943D01*
X0134425Y0043942D02*
X0020700Y0043942D01*
X0020700Y0044940D02*
X0035954Y0044940D01*
X0034956Y0045939D02*
X0020700Y0045939D01*
X0020367Y0046937D02*
X0034422Y0046937D01*
X0034050Y0047936D02*
X0019954Y0047936D01*
X0019127Y0048934D02*
X0034050Y0048934D01*
X0034161Y0049933D02*
X0017985Y0049933D01*
X0018993Y0050932D02*
X0034575Y0050932D01*
X0035325Y0051930D02*
X0019898Y0051930D01*
X0020312Y0052929D02*
X0036718Y0052929D01*
X0036072Y0041945D02*
X0019904Y0041945D01*
X0020318Y0042943D02*
X0066753Y0042943D01*
X0064050Y0037951D02*
X0047875Y0037951D01*
X0047849Y0037790D02*
X0047950Y0038427D01*
X0047950Y0038450D01*
X0041550Y0038450D01*
X0041550Y0034650D01*
X0044173Y0034650D01*
X0044810Y0034751D01*
X0045424Y0034950D01*
X0045999Y0035243D01*
X0046521Y0035623D01*
X0046977Y0036079D01*
X0047357Y0036601D01*
X0047650Y0037176D01*
X0047849Y0037790D01*
X0047536Y0036952D02*
X0064416Y0036952D01*
X0064941Y0035954D02*
X0046852Y0035954D01*
X0045434Y0034955D02*
X0064716Y0034955D01*
X0062908Y0033957D02*
X0019104Y0033957D01*
X0019832Y0033229D02*
X0018229Y0034832D01*
X0016134Y0035700D01*
X0013866Y0035700D01*
X0011771Y0034832D01*
X0010168Y0033229D01*
X0009300Y0031134D01*
X0009300Y0028866D01*
X0010168Y0026771D01*
X0011771Y0025168D01*
X0012176Y0025000D01*
X0011771Y0024832D01*
X0010168Y0023229D01*
X0009300Y0021134D01*
X0009300Y0018866D01*
X0010168Y0016771D01*
X0011771Y0015168D01*
X0013866Y0014300D01*
X0016134Y0014300D01*
X0018229Y0015168D01*
X0019832Y0016771D01*
X0020700Y0018866D01*
X0020700Y0021134D01*
X0019832Y0023229D01*
X0018229Y0024832D01*
X0017824Y0025000D01*
X0018177Y0025146D01*
X0028039Y0021859D01*
X0028663Y0020351D01*
X0030265Y0018750D01*
X0028663Y0017149D01*
X0027750Y0014943D01*
X0027750Y0012557D01*
X0028663Y0010351D01*
X0030351Y0008663D01*
X0032557Y0007750D01*
X0034943Y0007750D01*
X0037149Y0008663D01*
X0038837Y0010351D01*
X0039750Y0012557D01*
X0039750Y0014943D01*
X0038837Y0017149D01*
X0037235Y0018750D01*
X0038837Y0020351D01*
X0039750Y0022557D01*
X0039750Y0024943D01*
X0038837Y0027149D01*
X0037149Y0028837D01*
X0034943Y0029750D01*
X0032557Y0029750D01*
X0030351Y0028837D01*
X0030232Y0028717D01*
X0020334Y0032017D01*
X0019832Y0033229D01*
X0019944Y0032958D02*
X0061894Y0032958D01*
X0060909Y0031960D02*
X0020505Y0031960D01*
X0023500Y0030961D02*
X0060390Y0030961D01*
X0059872Y0029963D02*
X0026496Y0029963D01*
X0029491Y0028964D02*
X0030660Y0028964D01*
X0027692Y0021975D02*
X0020352Y0021975D01*
X0020700Y0020976D02*
X0028405Y0020976D01*
X0029037Y0019978D02*
X0020700Y0019978D01*
X0020700Y0018979D02*
X0030036Y0018979D01*
X0029495Y0017981D02*
X0020333Y0017981D01*
X0019920Y0016982D02*
X0028594Y0016982D01*
X0028181Y0015984D02*
X0019045Y0015984D01*
X0017788Y0014985D02*
X0027767Y0014985D01*
X0027750Y0013987D02*
X0007000Y0013987D01*
X0007000Y0014985D02*
X0012212Y0014985D01*
X0010955Y0015984D02*
X0007000Y0015984D01*
X0007000Y0016982D02*
X0010080Y0016982D01*
X0009667Y0017981D02*
X0007000Y0017981D01*
X0007000Y0018979D02*
X0009300Y0018979D01*
X0009300Y0019978D02*
X0007000Y0019978D01*
X0007000Y0020976D02*
X0009300Y0020976D01*
X0009648Y0021975D02*
X0007000Y0021975D01*
X0007000Y0022973D02*
X0010062Y0022973D01*
X0010911Y0023972D02*
X0007000Y0023972D01*
X0007000Y0024970D02*
X0012104Y0024970D01*
X0010970Y0025969D02*
X0007000Y0025969D01*
X0007000Y0026967D02*
X0010087Y0026967D01*
X0009673Y0027966D02*
X0007000Y0027966D01*
X0007000Y0028964D02*
X0009300Y0028964D01*
X0009300Y0029963D02*
X0007000Y0029963D01*
X0007000Y0030961D02*
X0009300Y0030961D01*
X0009642Y0031960D02*
X0007000Y0031960D01*
X0007000Y0032958D02*
X0010056Y0032958D01*
X0010896Y0033957D02*
X0007000Y0033957D01*
X0007000Y0034955D02*
X0012068Y0034955D01*
X0007000Y0035954D02*
X0035648Y0035954D01*
X0035523Y0036079D02*
X0035979Y0035623D01*
X0036501Y0035243D01*
X0037076Y0034950D01*
X0037690Y0034751D01*
X0038327Y0034650D01*
X0040950Y0034650D01*
X0040950Y0038450D01*
X0034550Y0038450D01*
X0034550Y0038427D01*
X0034651Y0037790D01*
X0034850Y0037176D01*
X0035143Y0036601D01*
X0035523Y0036079D01*
X0034964Y0036952D02*
X0007000Y0036952D01*
X0007000Y0037951D02*
X0034625Y0037951D01*
X0034728Y0039948D02*
X0017698Y0039948D01*
X0019007Y0040946D02*
X0035178Y0040946D01*
X0040950Y0040946D02*
X0041550Y0040946D01*
X0041550Y0039948D02*
X0040950Y0039948D01*
X0040950Y0041945D02*
X0041550Y0041945D01*
X0041550Y0037951D02*
X0040950Y0037951D01*
X0040950Y0036952D02*
X0041550Y0036952D01*
X0041550Y0035954D02*
X0040950Y0035954D01*
X0040950Y0034955D02*
X0041550Y0034955D01*
X0037066Y0034955D02*
X0017932Y0034955D01*
X0017896Y0024970D02*
X0018705Y0024970D01*
X0019089Y0023972D02*
X0021701Y0023972D01*
X0019938Y0022973D02*
X0024696Y0022973D01*
X0027750Y0012988D02*
X0007012Y0012988D01*
X0008010Y0011990D02*
X0027985Y0011990D01*
X0028398Y0010991D02*
X0009009Y0010991D01*
X0010007Y0009993D02*
X0029022Y0009993D01*
X0030021Y0008994D02*
X0011006Y0008994D01*
X0012004Y0007996D02*
X0031964Y0007996D01*
X0035536Y0007996D02*
X0061964Y0007996D01*
X0060021Y0008994D02*
X0037479Y0008994D01*
X0038478Y0009993D02*
X0059022Y0009993D01*
X0058398Y0010991D02*
X0039102Y0010991D01*
X0039515Y0011990D02*
X0057985Y0011990D01*
X0057750Y0012988D02*
X0039750Y0012988D01*
X0039750Y0013987D02*
X0057750Y0013987D01*
X0057767Y0014985D02*
X0039733Y0014985D01*
X0039319Y0015984D02*
X0058181Y0015984D01*
X0058594Y0016982D02*
X0038906Y0016982D01*
X0038005Y0017981D02*
X0059495Y0017981D01*
X0060036Y0018979D02*
X0037464Y0018979D01*
X0038463Y0019978D02*
X0059037Y0019978D01*
X0058405Y0020976D02*
X0039095Y0020976D01*
X0039509Y0021975D02*
X0057991Y0021975D01*
X0057750Y0022973D02*
X0039750Y0022973D01*
X0039750Y0023972D02*
X0057750Y0023972D01*
X0057761Y0024970D02*
X0039739Y0024970D01*
X0039325Y0025969D02*
X0058175Y0025969D01*
X0058588Y0026967D02*
X0038912Y0026967D01*
X0038020Y0027966D02*
X0059313Y0027966D01*
X0059479Y0028964D02*
X0036840Y0028964D01*
X0059539Y0029320D02*
X0059539Y0029320D01*
X0068912Y0026967D02*
X0074125Y0026967D01*
X0074125Y0025969D02*
X0069325Y0025969D01*
X0069739Y0024970D02*
X0074125Y0024970D01*
X0074125Y0023972D02*
X0069750Y0023972D01*
X0069750Y0022973D02*
X0074125Y0022973D01*
X0073291Y0021975D02*
X0069509Y0021975D01*
X0069095Y0020976D02*
X0072877Y0020976D01*
X0072464Y0019978D02*
X0068463Y0019978D01*
X0067464Y0018979D02*
X0072425Y0018979D01*
X0072425Y0017981D02*
X0068005Y0017981D01*
X0068906Y0016982D02*
X0072688Y0016982D01*
X0073101Y0015984D02*
X0069319Y0015984D01*
X0069733Y0014985D02*
X0073829Y0014985D01*
X0074827Y0013987D02*
X0069750Y0013987D01*
X0069750Y0012988D02*
X0134787Y0012988D01*
X0134425Y0013351D02*
X0138526Y0009250D01*
X0144324Y0009250D01*
X0148425Y0013351D01*
X0148425Y0019149D01*
X0144324Y0023250D01*
X0138526Y0023250D01*
X0134425Y0019149D01*
X0134425Y0013351D01*
X0134425Y0013987D02*
X0124605Y0013987D01*
X0124496Y0013931D02*
X0125225Y0014303D01*
X0125888Y0014784D01*
X0126466Y0015362D01*
X0126947Y0016025D01*
X0127319Y0016754D01*
X0127572Y0017532D01*
X0127686Y0018250D01*
X0123000Y0018250D01*
X0123000Y0019250D01*
X0122000Y0019250D01*
X0122000Y0023936D01*
X0121282Y0023822D01*
X0120504Y0023569D01*
X0119775Y0023197D01*
X0119112Y0022716D01*
X0118534Y0022138D01*
X0118053Y0021475D01*
X0117681Y0020746D01*
X0117500Y0020189D01*
X0117319Y0020746D01*
X0116947Y0021475D01*
X0116466Y0022138D01*
X0115888Y0022716D01*
X0115225Y0023197D01*
X0114496Y0023569D01*
X0113718Y0023822D01*
X0113000Y0023936D01*
X0113000Y0019250D01*
X0112000Y0019250D01*
X0112000Y0023936D01*
X0111282Y0023822D01*
X0110504Y0023569D01*
X0109775Y0023197D01*
X0109112Y0022716D01*
X0108534Y0022138D01*
X0108053Y0021475D01*
X0107681Y0020746D01*
X0107428Y0019968D01*
X0107314Y0019250D01*
X0112000Y0019250D01*
X0112000Y0018250D01*
X0107314Y0018250D01*
X0107428Y0017532D01*
X0107681Y0016754D01*
X0108053Y0016025D01*
X0108534Y0015362D01*
X0109112Y0014784D01*
X0109775Y0014303D01*
X0110504Y0013931D01*
X0111282Y0013678D01*
X0112000Y0013564D01*
X0112000Y0018250D01*
X0113000Y0018250D01*
X0113000Y0019250D01*
X0122000Y0019250D01*
X0122000Y0018250D01*
X0123000Y0018250D01*
X0123000Y0013564D01*
X0123718Y0013678D01*
X0124496Y0013931D01*
X0123000Y0013987D02*
X0122000Y0013987D01*
X0122000Y0013564D02*
X0122000Y0018250D01*
X0117314Y0018250D01*
X0113000Y0018250D01*
X0113000Y0013564D01*
X0113718Y0013678D01*
X0114496Y0013931D01*
X0115225Y0014303D01*
X0115888Y0014784D01*
X0116466Y0015362D01*
X0116947Y0016025D01*
X0117319Y0016754D01*
X0117500Y0017311D01*
X0117681Y0016754D01*
X0118053Y0016025D01*
X0118534Y0015362D01*
X0119112Y0014784D01*
X0119775Y0014303D01*
X0120504Y0013931D01*
X0121282Y0013678D01*
X0122000Y0013564D01*
X0122000Y0014985D02*
X0123000Y0014985D01*
X0123000Y0015984D02*
X0122000Y0015984D01*
X0122000Y0016982D02*
X0123000Y0016982D01*
X0123000Y0017981D02*
X0122000Y0017981D01*
X0122000Y0018979D02*
X0113000Y0018979D01*
X0113000Y0017981D02*
X0112000Y0017981D01*
X0112000Y0018979D02*
X0093825Y0018979D01*
X0093825Y0017981D02*
X0107357Y0017981D01*
X0107607Y0016982D02*
X0093562Y0016982D01*
X0093149Y0015984D02*
X0108082Y0015984D01*
X0108911Y0014985D02*
X0092421Y0014985D01*
X0091423Y0013987D02*
X0110395Y0013987D01*
X0112000Y0013987D02*
X0113000Y0013987D01*
X0113000Y0014985D02*
X0112000Y0014985D01*
X0112000Y0015984D02*
X0113000Y0015984D01*
X0113000Y0016982D02*
X0112000Y0016982D01*
X0112000Y0019978D02*
X0113000Y0019978D01*
X0113000Y0020976D02*
X0112000Y0020976D01*
X0112000Y0021975D02*
X0113000Y0021975D01*
X0113000Y0022973D02*
X0112000Y0022973D01*
X0115534Y0022973D02*
X0119466Y0022973D01*
X0118415Y0021975D02*
X0116585Y0021975D01*
X0117202Y0020976D02*
X0117798Y0020976D01*
X0117607Y0016982D02*
X0117393Y0016982D01*
X0116918Y0015984D02*
X0118082Y0015984D01*
X0118911Y0014985D02*
X0116089Y0014985D01*
X0114605Y0013987D02*
X0120395Y0013987D01*
X0123000Y0018979D02*
X0134425Y0018979D01*
X0134425Y0017981D02*
X0127643Y0017981D01*
X0127393Y0016982D02*
X0134425Y0016982D01*
X0134425Y0015984D02*
X0126918Y0015984D01*
X0126089Y0014985D02*
X0134425Y0014985D01*
X0135786Y0011990D02*
X0069515Y0011990D01*
X0069102Y0010991D02*
X0136784Y0010991D01*
X0137783Y0009993D02*
X0068478Y0009993D01*
X0067479Y0008994D02*
X0190031Y0008994D01*
X0190392Y0008844D02*
X0193338Y0008844D01*
X0196060Y0009972D01*
X0198143Y0012055D01*
X0199271Y0014777D01*
X0199271Y0017723D01*
X0198143Y0020445D01*
X0196060Y0022528D01*
X0193338Y0023655D01*
X0190392Y0023655D01*
X0187670Y0022528D01*
X0185587Y0020445D01*
X0184460Y0017723D01*
X0184460Y0014777D01*
X0185587Y0012055D01*
X0187670Y0009972D01*
X0190392Y0008844D01*
X0187650Y0009993D02*
X0168947Y0009993D01*
X0169046Y0010050D02*
X0169325Y0010329D01*
X0169523Y0010671D01*
X0169625Y0011053D01*
X0169625Y0015750D01*
X0163625Y0015750D01*
X0163625Y0016750D01*
X0162625Y0016750D01*
X0162625Y0022750D01*
X0157928Y0022750D01*
X0157546Y0022648D01*
X0157204Y0022450D01*
X0156925Y0022171D01*
X0156727Y0021829D01*
X0156625Y0021447D01*
X0156625Y0016750D01*
X0162625Y0016750D01*
X0162625Y0015750D01*
X0156625Y0015750D01*
X0156625Y0011053D01*
X0156727Y0010671D01*
X0156925Y0010329D01*
X0157204Y0010050D01*
X0157546Y0009852D01*
X0157928Y0009750D01*
X0162625Y0009750D01*
X0162625Y0015750D01*
X0163625Y0015750D01*
X0163625Y0009750D01*
X0168322Y0009750D01*
X0168704Y0009852D01*
X0169046Y0010050D01*
X0169609Y0010991D02*
X0186651Y0010991D01*
X0185653Y0011990D02*
X0169625Y0011990D01*
X0169625Y0012988D02*
X0185201Y0012988D01*
X0184787Y0013987D02*
X0169625Y0013987D01*
X0169625Y0014985D02*
X0184460Y0014985D01*
X0184460Y0015984D02*
X0163625Y0015984D01*
X0163625Y0016750D02*
X0169625Y0016750D01*
X0169625Y0021447D01*
X0169523Y0021829D01*
X0169325Y0022171D01*
X0169046Y0022450D01*
X0168704Y0022648D01*
X0168322Y0022750D01*
X0163625Y0022750D01*
X0163625Y0016750D01*
X0163625Y0016982D02*
X0162625Y0016982D01*
X0162625Y0015984D02*
X0148425Y0015984D01*
X0148425Y0016982D02*
X0156625Y0016982D01*
X0156625Y0017981D02*
X0148425Y0017981D01*
X0148425Y0018979D02*
X0156625Y0018979D01*
X0156625Y0019978D02*
X0147597Y0019978D01*
X0146598Y0020976D02*
X0156625Y0020976D01*
X0156811Y0021975D02*
X0145600Y0021975D01*
X0144601Y0022973D02*
X0188745Y0022973D01*
X0187117Y0021975D02*
X0169439Y0021975D01*
X0169625Y0020976D02*
X0186118Y0020976D01*
X0185394Y0019978D02*
X0169625Y0019978D01*
X0169625Y0018979D02*
X0184980Y0018979D01*
X0184566Y0017981D02*
X0169625Y0017981D01*
X0169625Y0016982D02*
X0184460Y0016982D01*
X0193699Y0008994D02*
X0208994Y0008994D01*
X0207996Y0007996D02*
X0065536Y0007996D01*
X0081423Y0013987D02*
X0084827Y0013987D01*
X0083829Y0014985D02*
X0082421Y0014985D01*
X0093786Y0019978D02*
X0107431Y0019978D01*
X0107798Y0020976D02*
X0093373Y0020976D01*
X0092959Y0021975D02*
X0108415Y0021975D01*
X0109466Y0022973D02*
X0092125Y0022973D01*
X0092125Y0023972D02*
X0215000Y0023972D01*
X0215000Y0024970D02*
X0092125Y0024970D01*
X0092125Y0025969D02*
X0215000Y0025969D01*
X0215000Y0026967D02*
X0092125Y0026967D01*
X0077559Y0035954D02*
X0165851Y0035954D01*
X0167581Y0036952D02*
X0078084Y0036952D01*
X0078450Y0037951D02*
X0168619Y0037951D01*
X0168322Y0038500D02*
X0168704Y0038602D01*
X0169046Y0038800D01*
X0169325Y0039079D01*
X0169523Y0039421D01*
X0169625Y0039803D01*
X0169625Y0044500D01*
X0163625Y0044500D01*
X0163625Y0045500D01*
X0162625Y0045500D01*
X0162625Y0051500D01*
X0157928Y0051500D01*
X0157546Y0051398D01*
X0157204Y0051200D01*
X0156925Y0050921D01*
X0156727Y0050579D01*
X0156625Y0050197D01*
X0156625Y0045500D01*
X0162625Y0045500D01*
X0162625Y0044500D01*
X0156625Y0044500D01*
X0156625Y0039803D01*
X0156727Y0039421D01*
X0156925Y0039079D01*
X0157204Y0038800D01*
X0157546Y0038602D01*
X0157928Y0038500D01*
X0162625Y0038500D01*
X0162625Y0044500D01*
X0163625Y0044500D01*
X0163625Y0038500D01*
X0168322Y0038500D01*
X0169196Y0038949D02*
X0169459Y0038949D01*
X0169625Y0039948D02*
X0170036Y0039948D01*
X0169625Y0040946D02*
X0170473Y0040946D01*
X0170741Y0041945D02*
X0169625Y0041945D01*
X0169625Y0042943D02*
X0170947Y0042943D01*
X0171000Y0043942D02*
X0169625Y0043942D01*
X0169625Y0045500D02*
X0169625Y0050197D01*
X0169523Y0050579D01*
X0169325Y0050921D01*
X0169046Y0051200D01*
X0168704Y0051398D01*
X0168322Y0051500D01*
X0163625Y0051500D01*
X0163625Y0045500D01*
X0169625Y0045500D01*
X0169625Y0045939D02*
X0171000Y0045939D01*
X0171000Y0046937D02*
X0169625Y0046937D01*
X0169625Y0047936D02*
X0171000Y0047936D01*
X0171000Y0048934D02*
X0169625Y0048934D01*
X0169625Y0049933D02*
X0171000Y0049933D01*
X0171000Y0050932D02*
X0169315Y0050932D01*
X0171000Y0051930D02*
X0144394Y0051930D01*
X0145393Y0050932D02*
X0156935Y0050932D01*
X0156625Y0049933D02*
X0146391Y0049933D01*
X0147390Y0048934D02*
X0156625Y0048934D01*
X0156625Y0047936D02*
X0148388Y0047936D01*
X0148425Y0046937D02*
X0156625Y0046937D01*
X0156625Y0045939D02*
X0148425Y0045939D01*
X0148425Y0044940D02*
X0162625Y0044940D01*
X0162625Y0043942D02*
X0163625Y0043942D01*
X0163625Y0044940D02*
X0171000Y0044940D01*
X0179000Y0044940D02*
X0184460Y0044940D01*
X0184460Y0043942D02*
X0179000Y0043942D01*
X0179000Y0042943D02*
X0184701Y0042943D01*
X0184460Y0043527D02*
X0185587Y0040805D01*
X0187670Y0038722D01*
X0190392Y0037594D01*
X0193338Y0037594D01*
X0196060Y0038722D01*
X0198143Y0040805D01*
X0199271Y0043527D01*
X0199271Y0046473D01*
X0198143Y0049195D01*
X0196060Y0051278D01*
X0193338Y0052405D01*
X0190392Y0052405D01*
X0187670Y0051278D01*
X0185587Y0049195D01*
X0184460Y0046473D01*
X0184460Y0043527D01*
X0185115Y0041945D02*
X0179000Y0041945D01*
X0178831Y0040946D02*
X0185529Y0040946D01*
X0186444Y0039948D02*
X0178563Y0039948D01*
X0178296Y0038949D02*
X0187443Y0038949D01*
X0189532Y0037951D02*
X0178028Y0037951D01*
X0177876Y0037381D02*
X0177876Y0037381D01*
X0177628Y0036952D02*
X0215000Y0036952D01*
X0215000Y0035954D02*
X0177051Y0035954D01*
X0176475Y0034955D02*
X0215000Y0034955D01*
X0215000Y0033957D02*
X0175898Y0033957D01*
X0175703Y0033619D02*
X0175703Y0033619D01*
X0175703Y0033619D01*
X0175043Y0032958D02*
X0215000Y0032958D01*
X0215000Y0031960D02*
X0174044Y0031960D01*
X0173046Y0030961D02*
X0215000Y0030961D01*
X0215000Y0029963D02*
X0171620Y0029963D01*
X0169890Y0028964D02*
X0215000Y0028964D01*
X0215000Y0027966D02*
X0167344Y0027966D01*
X0168869Y0028374D02*
X0168869Y0028374D01*
X0163625Y0021975D02*
X0162625Y0021975D01*
X0162625Y0020976D02*
X0163625Y0020976D01*
X0163625Y0019978D02*
X0162625Y0019978D01*
X0162625Y0018979D02*
X0163625Y0018979D01*
X0163625Y0017981D02*
X0162625Y0017981D01*
X0162625Y0014985D02*
X0163625Y0014985D01*
X0163625Y0013987D02*
X0162625Y0013987D01*
X0162625Y0012988D02*
X0163625Y0012988D01*
X0163625Y0011990D02*
X0162625Y0011990D01*
X0162625Y0010991D02*
X0163625Y0010991D01*
X0163625Y0009993D02*
X0162625Y0009993D01*
X0157303Y0009993D02*
X0145067Y0009993D01*
X0146066Y0010991D02*
X0156641Y0010991D01*
X0156625Y0011990D02*
X0147064Y0011990D01*
X0148063Y0012988D02*
X0156625Y0012988D01*
X0156625Y0013987D02*
X0148425Y0013987D01*
X0148425Y0014985D02*
X0156625Y0014985D01*
X0138249Y0022973D02*
X0125534Y0022973D01*
X0125225Y0023197D02*
X0124496Y0023569D01*
X0123718Y0023822D01*
X0123000Y0023936D01*
X0123000Y0019250D01*
X0127686Y0019250D01*
X0127572Y0019968D01*
X0127319Y0020746D01*
X0126947Y0021475D01*
X0126466Y0022138D01*
X0125888Y0022716D01*
X0125225Y0023197D01*
X0126585Y0021975D02*
X0137250Y0021975D01*
X0136252Y0020976D02*
X0127202Y0020976D01*
X0127569Y0019978D02*
X0135253Y0019978D01*
X0123000Y0019978D02*
X0122000Y0019978D01*
X0122000Y0020976D02*
X0123000Y0020976D01*
X0123000Y0021975D02*
X0122000Y0021975D01*
X0122000Y0022973D02*
X0123000Y0022973D01*
X0137576Y0038949D02*
X0078450Y0038949D01*
X0078333Y0039948D02*
X0136578Y0039948D01*
X0135579Y0040946D02*
X0077919Y0040946D01*
X0077160Y0041945D02*
X0134581Y0041945D01*
X0145274Y0038949D02*
X0157054Y0038949D01*
X0156625Y0039948D02*
X0146272Y0039948D01*
X0147271Y0040946D02*
X0156625Y0040946D01*
X0156625Y0041945D02*
X0148269Y0041945D01*
X0148425Y0042943D02*
X0156625Y0042943D01*
X0156625Y0043942D02*
X0148425Y0043942D01*
X0152024Y0056750D02*
X0140367Y0056750D01*
X0139196Y0057922D01*
X0139196Y0069578D01*
X0140367Y0070750D01*
X0152024Y0070750D01*
X0153196Y0069578D01*
X0153196Y0057922D01*
X0152024Y0056750D01*
X0152197Y0056923D02*
X0171000Y0056923D01*
X0171000Y0057921D02*
X0153195Y0057921D01*
X0153196Y0058920D02*
X0171000Y0058920D01*
X0171000Y0059918D02*
X0153196Y0059918D01*
X0153196Y0060917D02*
X0171050Y0060917D01*
X0171464Y0061915D02*
X0153196Y0061915D01*
X0153196Y0062914D02*
X0172257Y0062914D01*
X0173255Y0063912D02*
X0153196Y0063912D01*
X0153196Y0064911D02*
X0174254Y0064911D01*
X0175252Y0065909D02*
X0153196Y0065909D01*
X0153196Y0066908D02*
X0176251Y0066908D01*
X0177249Y0067906D02*
X0153196Y0067906D01*
X0153196Y0068905D02*
X0178248Y0068905D01*
X0179246Y0069903D02*
X0152871Y0069903D01*
X0149582Y0078890D02*
X0158930Y0078890D01*
X0158218Y0079888D02*
X0150580Y0079888D01*
X0151579Y0080887D02*
X0157805Y0080887D01*
X0157391Y0081885D02*
X0152577Y0081885D01*
X0153196Y0082884D02*
X0157294Y0082884D01*
X0157294Y0083882D02*
X0153196Y0083882D01*
X0153196Y0084881D02*
X0157294Y0084881D01*
X0157631Y0085879D02*
X0153196Y0085879D01*
X0153196Y0086878D02*
X0158045Y0086878D01*
X0158511Y0087876D02*
X0153196Y0087876D01*
X0152624Y0088875D02*
X0159509Y0088875D01*
X0160512Y0089873D02*
X0151625Y0089873D01*
X0150627Y0090872D02*
X0162922Y0090872D01*
X0166477Y0090872D02*
X0191000Y0090872D01*
X0191000Y0091870D02*
X0149628Y0091870D01*
X0153624Y0105850D02*
X0181366Y0105850D01*
X0181112Y0106034D02*
X0181775Y0105553D01*
X0182504Y0105181D01*
X0183282Y0104928D01*
X0184000Y0104814D01*
X0184000Y0109500D01*
X0179314Y0109500D01*
X0179428Y0108782D01*
X0179681Y0108004D01*
X0180053Y0107275D01*
X0180534Y0106612D01*
X0181112Y0106034D01*
X0180362Y0106848D02*
X0153821Y0106848D01*
X0153821Y0107847D02*
X0179761Y0107847D01*
X0179418Y0108845D02*
X0153821Y0108845D01*
X0153821Y0109844D02*
X0184000Y0109844D01*
X0184000Y0108845D02*
X0185000Y0108845D01*
X0185000Y0107847D02*
X0184000Y0107847D01*
X0184000Y0106848D02*
X0185000Y0106848D01*
X0185000Y0105850D02*
X0184000Y0105850D01*
X0187634Y0105850D02*
X0191000Y0105850D01*
X0191000Y0106848D02*
X0188638Y0106848D01*
X0189239Y0107847D02*
X0191000Y0107847D01*
X0191000Y0108845D02*
X0189582Y0108845D01*
X0191000Y0109844D02*
X0185000Y0109844D01*
X0189631Y0110842D02*
X0191000Y0110842D01*
X0191000Y0111841D02*
X0189370Y0111841D01*
X0188865Y0112839D02*
X0191000Y0112839D01*
X0191000Y0113838D02*
X0188016Y0113838D01*
X0187928Y0114836D02*
X0191000Y0114836D01*
X0191016Y0115835D02*
X0189396Y0115835D01*
X0190358Y0116833D02*
X0191430Y0116833D01*
X0190772Y0117832D02*
X0192175Y0117832D01*
X0191185Y0118830D02*
X0193173Y0118830D01*
X0194172Y0119829D02*
X0191200Y0119829D01*
X0191200Y0120827D02*
X0195170Y0120827D01*
X0196169Y0121826D02*
X0190913Y0121826D01*
X0190500Y0122824D02*
X0197167Y0122824D01*
X0198777Y0123823D02*
X0189738Y0123823D01*
X0188740Y0124821D02*
X0201760Y0124821D01*
X0201907Y0125820D02*
X0188381Y0125820D01*
X0189352Y0126818D02*
X0200884Y0126818D01*
X0200276Y0127817D02*
X0189765Y0127817D01*
X0190179Y0128815D02*
X0199923Y0128815D01*
X0199864Y0130812D02*
X0190200Y0130812D01*
X0190200Y0129814D02*
X0204500Y0129814D01*
X0204500Y0130812D02*
X0205500Y0130812D01*
X0205500Y0129814D02*
X0215000Y0129814D01*
X0215000Y0130812D02*
X0210136Y0130812D01*
X0209879Y0131811D02*
X0215000Y0131811D01*
X0215000Y0132809D02*
X0209386Y0132809D01*
X0208546Y0133808D02*
X0215000Y0133808D01*
X0215000Y0134806D02*
X0207021Y0134806D01*
X0208073Y0135805D02*
X0215000Y0135805D01*
X0215000Y0136803D02*
X0209105Y0136803D01*
X0209716Y0137802D02*
X0215000Y0137802D01*
X0215000Y0138801D02*
X0210075Y0138801D01*
X0210138Y0140798D02*
X0215000Y0140798D01*
X0215000Y0141796D02*
X0209884Y0141796D01*
X0209397Y0142795D02*
X0215000Y0142795D01*
X0215000Y0143793D02*
X0208561Y0143793D01*
X0207321Y0144792D02*
X0215000Y0144792D01*
X0215000Y0145790D02*
X0208851Y0145790D01*
X0209839Y0146789D02*
X0215000Y0146789D01*
X0215000Y0147787D02*
X0210253Y0147787D01*
X0210667Y0148786D02*
X0215000Y0148786D01*
X0215000Y0149784D02*
X0210700Y0149784D01*
X0210700Y0150783D02*
X0215000Y0150783D01*
X0215000Y0151781D02*
X0210432Y0151781D01*
X0210018Y0152780D02*
X0215000Y0152780D01*
X0215000Y0153778D02*
X0209283Y0153778D01*
X0208284Y0154777D02*
X0215000Y0154777D01*
X0215000Y0155775D02*
X0195309Y0155775D01*
X0194311Y0154777D02*
X0201716Y0154777D01*
X0200717Y0153778D02*
X0193312Y0153778D01*
X0192314Y0152780D02*
X0199982Y0152780D01*
X0199568Y0151781D02*
X0191315Y0151781D01*
X0190317Y0150783D02*
X0199300Y0150783D01*
X0199300Y0149784D02*
X0189400Y0149784D01*
X0189400Y0148786D02*
X0199333Y0148786D01*
X0199747Y0147787D02*
X0189400Y0147787D01*
X0189400Y0146789D02*
X0200161Y0146789D01*
X0201149Y0145790D02*
X0189400Y0145790D01*
X0189400Y0144792D02*
X0202679Y0144792D01*
X0201439Y0143793D02*
X0189400Y0143793D01*
X0189400Y0142795D02*
X0200603Y0142795D01*
X0200116Y0141796D02*
X0189400Y0141796D01*
X0189400Y0140798D02*
X0199862Y0140798D01*
X0199925Y0138801D02*
X0189400Y0138801D01*
X0189400Y0139799D02*
X0204500Y0139799D01*
X0204500Y0138801D02*
X0205500Y0138801D01*
X0205500Y0139799D02*
X0215000Y0139799D01*
X0215000Y0128815D02*
X0210077Y0128815D01*
X0209724Y0127817D02*
X0215000Y0127817D01*
X0215000Y0126818D02*
X0209116Y0126818D01*
X0208093Y0125820D02*
X0215000Y0125820D01*
X0215000Y0124821D02*
X0208240Y0124821D01*
X0209238Y0123823D02*
X0215000Y0123823D01*
X0215000Y0122824D02*
X0210000Y0122824D01*
X0210413Y0121826D02*
X0215000Y0121826D01*
X0215000Y0120827D02*
X0210700Y0120827D01*
X0210700Y0119829D02*
X0215000Y0119829D01*
X0215000Y0118830D02*
X0210685Y0118830D01*
X0210272Y0117832D02*
X0215000Y0117832D01*
X0215000Y0116833D02*
X0209858Y0116833D01*
X0208896Y0115835D02*
X0215000Y0115835D01*
X0215000Y0114836D02*
X0208219Y0114836D01*
X0209223Y0113838D02*
X0215000Y0113838D01*
X0215000Y0112839D02*
X0209994Y0112839D01*
X0210407Y0111841D02*
X0215000Y0111841D01*
X0215000Y0110842D02*
X0210700Y0110842D01*
X0210700Y0109844D02*
X0215000Y0109844D01*
X0215000Y0108845D02*
X0210691Y0108845D01*
X0210278Y0107847D02*
X0215000Y0107847D01*
X0215000Y0106848D02*
X0209864Y0106848D01*
X0208911Y0105850D02*
X0215000Y0105850D01*
X0215000Y0104851D02*
X0208183Y0104851D01*
X0209208Y0103853D02*
X0215000Y0103853D01*
X0215000Y0102854D02*
X0209987Y0102854D01*
X0210401Y0101856D02*
X0215000Y0101856D01*
X0215000Y0100857D02*
X0210700Y0100857D01*
X0210700Y0099859D02*
X0215000Y0099859D01*
X0215000Y0098860D02*
X0210697Y0098860D01*
X0210284Y0097862D02*
X0215000Y0097862D01*
X0215000Y0096863D02*
X0209870Y0096863D01*
X0208926Y0095865D02*
X0215000Y0095865D01*
X0215000Y0094866D02*
X0208147Y0094866D01*
X0209194Y0093868D02*
X0215000Y0093868D01*
X0215000Y0092869D02*
X0209981Y0092869D01*
X0210395Y0091870D02*
X0215000Y0091870D01*
X0215000Y0090872D02*
X0210700Y0090872D01*
X0210700Y0089873D02*
X0215000Y0089873D01*
X0215000Y0088875D02*
X0210700Y0088875D01*
X0210290Y0087876D02*
X0215000Y0087876D01*
X0215000Y0086878D02*
X0209876Y0086878D01*
X0208940Y0085879D02*
X0215000Y0085879D01*
X0215000Y0084881D02*
X0208111Y0084881D01*
X0209179Y0083882D02*
X0215000Y0083882D01*
X0215000Y0082884D02*
X0209975Y0082884D01*
X0210389Y0081885D02*
X0215000Y0081885D01*
X0215000Y0080887D02*
X0210700Y0080887D01*
X0210700Y0079888D02*
X0215000Y0079888D01*
X0215000Y0078890D02*
X0210700Y0078890D01*
X0210296Y0077891D02*
X0215000Y0077891D01*
X0215000Y0076893D02*
X0209883Y0076893D01*
X0208955Y0075894D02*
X0215000Y0075894D01*
X0215000Y0074896D02*
X0207572Y0074896D01*
X0202428Y0074896D02*
X0195553Y0074896D01*
X0196551Y0075894D02*
X0201045Y0075894D01*
X0200117Y0076893D02*
X0197550Y0076893D01*
X0198456Y0077891D02*
X0199704Y0077891D01*
X0199300Y0078890D02*
X0198870Y0078890D01*
X0199000Y0079888D02*
X0199300Y0079888D01*
X0199300Y0080887D02*
X0199000Y0080887D01*
X0199000Y0081885D02*
X0199611Y0081885D01*
X0200025Y0082884D02*
X0199000Y0082884D01*
X0199000Y0083882D02*
X0200821Y0083882D01*
X0201889Y0084881D02*
X0199000Y0084881D01*
X0199000Y0085879D02*
X0201060Y0085879D01*
X0200124Y0086878D02*
X0199000Y0086878D01*
X0199000Y0087876D02*
X0199710Y0087876D01*
X0199300Y0088875D02*
X0199000Y0088875D01*
X0199000Y0089873D02*
X0199300Y0089873D01*
X0199300Y0090872D02*
X0199000Y0090872D01*
X0199000Y0091870D02*
X0199605Y0091870D01*
X0200019Y0092869D02*
X0199000Y0092869D01*
X0199000Y0093868D02*
X0200806Y0093868D01*
X0201853Y0094866D02*
X0199000Y0094866D01*
X0199000Y0095865D02*
X0201074Y0095865D01*
X0200130Y0096863D02*
X0199000Y0096863D01*
X0199000Y0097862D02*
X0199716Y0097862D01*
X0199303Y0098860D02*
X0199000Y0098860D01*
X0199000Y0099859D02*
X0199300Y0099859D01*
X0199300Y0100857D02*
X0199000Y0100857D01*
X0199000Y0101856D02*
X0199599Y0101856D01*
X0200013Y0102854D02*
X0199000Y0102854D01*
X0199000Y0103853D02*
X0200792Y0103853D01*
X0201817Y0104851D02*
X0199000Y0104851D01*
X0199000Y0105850D02*
X0201089Y0105850D01*
X0200136Y0106848D02*
X0199000Y0106848D01*
X0199000Y0107847D02*
X0199722Y0107847D01*
X0199309Y0108845D02*
X0199000Y0108845D01*
X0199000Y0109844D02*
X0199300Y0109844D01*
X0199300Y0110842D02*
X0199000Y0110842D01*
X0199000Y0111841D02*
X0199593Y0111841D01*
X0200006Y0112839D02*
X0199000Y0112839D01*
X0199495Y0113838D02*
X0200777Y0113838D01*
X0200493Y0114836D02*
X0201781Y0114836D01*
X0200121Y0131811D02*
X0189920Y0131811D01*
X0189506Y0132809D02*
X0200614Y0132809D01*
X0201454Y0133808D02*
X0189400Y0133808D01*
X0189400Y0134806D02*
X0202979Y0134806D01*
X0201927Y0135805D02*
X0189400Y0135805D01*
X0189400Y0136803D02*
X0200895Y0136803D01*
X0200284Y0137802D02*
X0189400Y0137802D01*
X0204500Y0137802D02*
X0205500Y0137802D01*
X0205500Y0136803D02*
X0204500Y0136803D01*
X0204500Y0135805D02*
X0205500Y0135805D01*
X0205500Y0134806D02*
X0204500Y0134806D01*
X0204500Y0133808D02*
X0205500Y0133808D01*
X0205500Y0132809D02*
X0204500Y0132809D01*
X0204500Y0131811D02*
X0205500Y0131811D01*
X0196308Y0156774D02*
X0215000Y0156774D01*
X0215000Y0157772D02*
X0197306Y0157772D01*
X0198231Y0158771D02*
X0215000Y0158771D01*
X0215000Y0159769D02*
X0198644Y0159769D01*
X0198650Y0160768D02*
X0215000Y0160768D01*
X0215000Y0161766D02*
X0198650Y0161766D01*
X0198650Y0162765D02*
X0215000Y0162765D01*
X0215000Y0163763D02*
X0198650Y0163763D01*
X0198650Y0164762D02*
X0202751Y0164762D01*
X0201179Y0165760D02*
X0198650Y0165760D01*
X0198570Y0166759D02*
X0200180Y0166759D01*
X0199759Y0167757D02*
X0198127Y0167757D01*
X0197128Y0168756D02*
X0199346Y0168756D01*
X0199300Y0169754D02*
X0196130Y0169754D01*
X0195131Y0170753D02*
X0199300Y0170753D01*
X0199556Y0171751D02*
X0194133Y0171751D01*
X0193134Y0172750D02*
X0199969Y0172750D01*
X0200687Y0173748D02*
X0192489Y0173748D01*
X0190915Y0174747D02*
X0201686Y0174747D01*
X0201194Y0175745D02*
X0182087Y0175745D01*
X0181088Y0174747D02*
X0189085Y0174747D01*
X0187511Y0173748D02*
X0180090Y0173748D01*
X0179091Y0172750D02*
X0186892Y0172750D01*
X0186650Y0171751D02*
X0178093Y0171751D01*
X0177094Y0170753D02*
X0186683Y0170753D01*
X0183055Y0169754D02*
X0173445Y0169754D01*
X0174444Y0168756D02*
X0182056Y0168756D01*
X0181058Y0167757D02*
X0175442Y0167757D01*
X0176441Y0166759D02*
X0180059Y0166759D01*
X0179500Y0165760D02*
X0177000Y0165760D01*
X0177000Y0164762D02*
X0179500Y0164762D01*
X0179500Y0163763D02*
X0177000Y0163763D01*
X0177000Y0162765D02*
X0179500Y0162765D01*
X0179500Y0161766D02*
X0177000Y0161766D01*
X0177000Y0160768D02*
X0179500Y0160768D01*
X0180131Y0159769D02*
X0176369Y0159769D01*
X0175370Y0158771D02*
X0181130Y0158771D01*
X0182128Y0157772D02*
X0174372Y0157772D01*
X0173373Y0156774D02*
X0183127Y0156774D01*
X0183085Y0176744D02*
X0200195Y0176744D01*
X0199765Y0177742D02*
X0184084Y0177742D01*
X0190140Y0178741D02*
X0199352Y0178741D01*
X0199300Y0179739D02*
X0191139Y0179739D01*
X0192137Y0180738D02*
X0199300Y0180738D01*
X0199429Y0181737D02*
X0193136Y0181737D01*
X0193500Y0182735D02*
X0198431Y0182735D01*
X0197432Y0183734D02*
X0193500Y0183734D01*
X0193500Y0184732D02*
X0196434Y0184732D01*
X0195435Y0185731D02*
X0193500Y0185731D01*
X0193500Y0186729D02*
X0194437Y0186729D01*
X0210966Y0168756D02*
X0215000Y0168756D01*
X0215000Y0169754D02*
X0212280Y0169754D01*
X0212213Y0169662D02*
X0212213Y0169662D01*
X0212213Y0169662D01*
X0213005Y0170753D02*
X0215000Y0170753D01*
X0215000Y0171751D02*
X0213731Y0171751D01*
X0214089Y0172244D02*
X0214089Y0172244D01*
X0214253Y0172750D02*
X0215000Y0172750D01*
X0215000Y0173748D02*
X0214578Y0173748D01*
X0214902Y0174747D02*
X0215000Y0174747D01*
X0215000Y0167757D02*
X0210241Y0167757D01*
X0209820Y0166759D02*
X0215000Y0166759D01*
X0215000Y0165760D02*
X0208821Y0165760D01*
X0207249Y0164762D02*
X0215000Y0164762D01*
X0180228Y0117832D02*
X0153692Y0117832D01*
X0153821Y0116833D02*
X0180642Y0116833D01*
X0181604Y0115835D02*
X0153821Y0115835D01*
X0153821Y0114836D02*
X0182557Y0114836D01*
X0180984Y0113838D02*
X0153821Y0113838D01*
X0153821Y0112839D02*
X0180135Y0112839D01*
X0179630Y0111841D02*
X0153821Y0111841D01*
X0153821Y0110842D02*
X0179369Y0110842D01*
X0191000Y0092869D02*
X0075926Y0092869D01*
X0066466Y0122824D02*
X0065967Y0122824D01*
X0068780Y0125820D02*
X0090671Y0125820D01*
X0089859Y0136803D02*
X0077159Y0136803D01*
X0077919Y0137802D02*
X0090858Y0137802D01*
X0036029Y0094866D02*
X0029659Y0094866D01*
X0028661Y0095865D02*
X0035030Y0095865D01*
X0034453Y0096863D02*
X0027662Y0096863D01*
X0026454Y0097862D02*
X0034050Y0097862D01*
X0035280Y0081885D02*
X0031325Y0081885D01*
X0031325Y0080887D02*
X0034556Y0080887D01*
X0034143Y0079888D02*
X0031325Y0079888D01*
X0031325Y0078890D02*
X0034050Y0078890D01*
X0034050Y0077891D02*
X0031325Y0077891D01*
X0031325Y0076893D02*
X0034440Y0076893D01*
X0035000Y0075894D02*
X0031325Y0075894D01*
X0031325Y0074896D02*
X0035999Y0074896D01*
X0024925Y0074896D02*
X0015500Y0074896D01*
X0014500Y0074896D02*
X0007000Y0074896D01*
X0116871Y0069903D02*
X0125914Y0069903D01*
X0126761Y0070750D02*
X0122660Y0066649D01*
X0122660Y0060851D01*
X0126761Y0056750D01*
X0132560Y0056750D01*
X0136660Y0060851D01*
X0136660Y0066649D01*
X0132560Y0070750D01*
X0126761Y0070750D01*
X0124916Y0068905D02*
X0117870Y0068905D01*
X0118868Y0067906D02*
X0123917Y0067906D01*
X0122919Y0066908D02*
X0119867Y0066908D01*
X0120125Y0065909D02*
X0122660Y0065909D01*
X0122660Y0064911D02*
X0120125Y0064911D01*
X0120125Y0063912D02*
X0122660Y0063912D01*
X0122660Y0062914D02*
X0120125Y0062914D01*
X0120125Y0061915D02*
X0122660Y0061915D01*
X0122660Y0060917D02*
X0120125Y0060917D01*
X0119193Y0059918D02*
X0123593Y0059918D01*
X0124591Y0058920D02*
X0118194Y0058920D01*
X0117196Y0057921D02*
X0125590Y0057921D01*
X0126588Y0056923D02*
X0116197Y0056923D01*
X0119654Y0070902D02*
X0180245Y0070902D01*
X0181243Y0071900D02*
X0121248Y0071900D01*
X0133407Y0069903D02*
X0139521Y0069903D01*
X0139196Y0068905D02*
X0134405Y0068905D01*
X0135404Y0067906D02*
X0139196Y0067906D01*
X0139196Y0066908D02*
X0136402Y0066908D01*
X0136660Y0065909D02*
X0139196Y0065909D01*
X0139196Y0064911D02*
X0136660Y0064911D01*
X0136660Y0063912D02*
X0139196Y0063912D01*
X0139196Y0062914D02*
X0136660Y0062914D01*
X0136660Y0061915D02*
X0139196Y0061915D01*
X0139196Y0060917D02*
X0136660Y0060917D01*
X0135728Y0059918D02*
X0139196Y0059918D01*
X0139196Y0058920D02*
X0134730Y0058920D01*
X0133731Y0057921D02*
X0139196Y0057921D01*
X0140195Y0056923D02*
X0132733Y0056923D01*
X0162625Y0050932D02*
X0163625Y0050932D01*
X0163625Y0049933D02*
X0162625Y0049933D01*
X0162625Y0048934D02*
X0163625Y0048934D01*
X0163625Y0047936D02*
X0162625Y0047936D01*
X0162625Y0046937D02*
X0163625Y0046937D01*
X0163625Y0045939D02*
X0162625Y0045939D01*
X0162625Y0042943D02*
X0163625Y0042943D01*
X0163625Y0041945D02*
X0162625Y0041945D01*
X0162625Y0040946D02*
X0163625Y0040946D01*
X0163625Y0039948D02*
X0162625Y0039948D01*
X0162625Y0038949D02*
X0163625Y0038949D01*
X0179000Y0045939D02*
X0184460Y0045939D01*
X0184652Y0046937D02*
X0179000Y0046937D01*
X0179000Y0047936D02*
X0185066Y0047936D01*
X0185479Y0048934D02*
X0179000Y0048934D01*
X0179000Y0049933D02*
X0186325Y0049933D01*
X0187324Y0050932D02*
X0179000Y0050932D01*
X0179000Y0051930D02*
X0189244Y0051930D01*
X0194486Y0051930D02*
X0215000Y0051930D01*
X0215000Y0050932D02*
X0196407Y0050932D01*
X0197405Y0049933D02*
X0215000Y0049933D01*
X0215000Y0048934D02*
X0198251Y0048934D01*
X0198665Y0047936D02*
X0215000Y0047936D01*
X0215000Y0046937D02*
X0199078Y0046937D01*
X0199271Y0045939D02*
X0215000Y0045939D01*
X0215000Y0044940D02*
X0199271Y0044940D01*
X0199271Y0043942D02*
X0215000Y0043942D01*
X0215000Y0042943D02*
X0199029Y0042943D01*
X0198615Y0041945D02*
X0215000Y0041945D01*
X0215000Y0040946D02*
X0198202Y0040946D01*
X0197286Y0039948D02*
X0215000Y0039948D01*
X0215000Y0038949D02*
X0196288Y0038949D01*
X0194199Y0037951D02*
X0215000Y0037951D01*
X0215000Y0052929D02*
X0179000Y0052929D01*
X0179000Y0053927D02*
X0215000Y0053927D01*
X0215000Y0054926D02*
X0179000Y0054926D01*
X0179000Y0055924D02*
X0215000Y0055924D01*
X0215000Y0056923D02*
X0179000Y0056923D01*
X0179000Y0057921D02*
X0215000Y0057921D01*
X0215000Y0058920D02*
X0179576Y0058920D01*
X0180575Y0059918D02*
X0215000Y0059918D01*
X0215000Y0060917D02*
X0181573Y0060917D01*
X0182572Y0061915D02*
X0215000Y0061915D01*
X0215000Y0062914D02*
X0183571Y0062914D01*
X0184569Y0063912D02*
X0215000Y0063912D01*
X0215000Y0064911D02*
X0185568Y0064911D01*
X0186566Y0065909D02*
X0215000Y0065909D01*
X0215000Y0066908D02*
X0187565Y0066908D01*
X0188563Y0067906D02*
X0215000Y0067906D01*
X0215000Y0068905D02*
X0189562Y0068905D01*
X0190560Y0069903D02*
X0215000Y0069903D01*
X0215000Y0070902D02*
X0191559Y0070902D01*
X0192557Y0071900D02*
X0215000Y0071900D01*
X0215000Y0072899D02*
X0193556Y0072899D01*
X0194554Y0073897D02*
X0215000Y0073897D01*
X0191000Y0081885D02*
X0172008Y0081885D01*
X0172105Y0082884D02*
X0191000Y0082884D01*
X0191000Y0083882D02*
X0172105Y0083882D01*
X0172105Y0084881D02*
X0191000Y0084881D01*
X0191000Y0085879D02*
X0171768Y0085879D01*
X0171355Y0086878D02*
X0191000Y0086878D01*
X0191000Y0087876D02*
X0170889Y0087876D01*
X0169890Y0088875D02*
X0191000Y0088875D01*
X0191000Y0089873D02*
X0168888Y0089873D01*
X0171595Y0080887D02*
X0190230Y0080887D01*
X0189231Y0079888D02*
X0171181Y0079888D01*
X0170470Y0078890D02*
X0188233Y0078890D01*
X0187234Y0077891D02*
X0169472Y0077891D01*
X0167877Y0076893D02*
X0186236Y0076893D01*
X0194985Y0022973D02*
X0215000Y0022973D01*
X0215000Y0021975D02*
X0196613Y0021975D01*
X0197612Y0020976D02*
X0215000Y0020976D01*
X0215000Y0019978D02*
X0198337Y0019978D01*
X0198750Y0018979D02*
X0215000Y0018979D01*
X0215000Y0017981D02*
X0199164Y0017981D01*
X0199271Y0016982D02*
X0215000Y0016982D01*
X0215000Y0015984D02*
X0199271Y0015984D01*
X0199271Y0014985D02*
X0214985Y0014985D01*
X0213987Y0013987D02*
X0198943Y0013987D01*
X0198530Y0012988D02*
X0212988Y0012988D01*
X0211990Y0011990D02*
X0198078Y0011990D01*
X0197079Y0010991D02*
X0210991Y0010991D01*
X0209993Y0009993D02*
X0196081Y0009993D01*
D12*
X0205000Y0080000D03*
X0205000Y0090000D03*
X0205000Y0100000D03*
X0205000Y0110000D03*
X0205000Y0120000D03*
X0205000Y0130000D03*
X0205000Y0140000D03*
X0205000Y0150000D03*
X0205000Y0170000D03*
X0205000Y0180000D03*
X0205000Y0190000D03*
X0205000Y0200000D03*
X0205000Y0210000D03*
X0205000Y0220000D03*
X0184500Y0130000D03*
X0185500Y0120000D03*
X0184500Y0110000D03*
X0122500Y0018750D03*
X0112500Y0018750D03*
X0088125Y0018750D03*
X0078125Y0018750D03*
X0015000Y0020000D03*
X0015000Y0030000D03*
X0015000Y0045000D03*
X0015000Y0055000D03*
X0015000Y0065000D03*
X0015000Y0075000D03*
X0015000Y0085000D03*
X0015000Y0095000D03*
X0015000Y0105000D03*
X0015000Y0115000D03*
X0015000Y0125000D03*
X0015000Y0135000D03*
X0015000Y0150000D03*
X0015000Y0160000D03*
X0015000Y0170000D03*
X0015000Y0180000D03*
X0015000Y0190000D03*
X0015000Y0200000D03*
X0015000Y0210000D03*
X0015000Y0220000D03*
X0025000Y0220000D03*
X0025000Y0210000D03*
D13*
X0033750Y0023750D03*
X0033750Y0013750D03*
X0063750Y0013750D03*
X0063750Y0023750D03*
D14*
X0068650Y0038750D02*
X0073850Y0038750D01*
X0073850Y0048750D02*
X0068650Y0048750D01*
X0068650Y0058750D02*
X0073850Y0058750D01*
X0073850Y0068750D02*
X0068650Y0068750D01*
X0068650Y0078750D02*
X0073850Y0078750D01*
X0073850Y0088750D02*
X0068650Y0088750D01*
X0068650Y0098750D02*
X0073850Y0098750D01*
X0073850Y0108750D02*
X0068650Y0108750D01*
X0068650Y0118750D02*
X0073850Y0118750D01*
X0073850Y0140000D02*
X0068650Y0140000D01*
X0068650Y0150000D02*
X0073850Y0150000D01*
X0073850Y0160000D02*
X0068650Y0160000D01*
X0068650Y0170000D02*
X0073850Y0170000D01*
X0073850Y0180000D02*
X0068650Y0180000D01*
X0068650Y0190000D02*
X0073850Y0190000D01*
X0073850Y0200000D02*
X0068650Y0200000D01*
X0068650Y0210000D02*
X0073850Y0210000D01*
X0073850Y0220000D02*
X0068650Y0220000D01*
X0043850Y0220000D02*
X0038650Y0220000D01*
X0038650Y0210000D02*
X0043850Y0210000D01*
X0043850Y0200000D02*
X0038650Y0200000D01*
X0038650Y0190000D02*
X0043850Y0190000D01*
X0043850Y0180000D02*
X0038650Y0180000D01*
X0038650Y0170000D02*
X0043850Y0170000D01*
X0043850Y0160000D02*
X0038650Y0160000D01*
X0038650Y0150000D02*
X0043850Y0150000D01*
X0043850Y0140000D02*
X0038650Y0140000D01*
X0038650Y0118750D02*
X0043850Y0118750D01*
X0043850Y0108750D02*
X0038650Y0108750D01*
X0038650Y0098750D02*
X0043850Y0098750D01*
X0043850Y0088750D02*
X0038650Y0088750D01*
X0038650Y0078750D02*
X0043850Y0078750D01*
X0043850Y0068750D02*
X0038650Y0068750D01*
X0038650Y0058750D02*
X0043850Y0058750D01*
X0043850Y0048750D02*
X0038650Y0048750D01*
X0038650Y0038750D02*
X0043850Y0038750D01*
D15*
X0113125Y0063750D03*
X0129660Y0063750D03*
X0141425Y0045000D03*
X0141425Y0016250D03*
X0146196Y0085404D03*
X0129660Y0085404D03*
X0113125Y0085404D03*
X0113750Y0111875D03*
X0130285Y0111875D03*
X0130285Y0133529D03*
X0113750Y0133529D03*
X0110000Y0163300D03*
X0126500Y0163300D03*
X0126500Y0185000D03*
X0110000Y0185000D03*
X0093500Y0163300D03*
X0146821Y0133529D03*
X0153500Y0163300D03*
X0170000Y0163300D03*
X0186500Y0163300D03*
X0186500Y0185000D03*
X0170000Y0185000D03*
D16*
X0153500Y0185000D03*
X0093500Y0185000D03*
X0146821Y0111875D03*
X0146196Y0063750D03*
X0163125Y0045000D03*
X0163125Y0016250D03*
D17*
X0060000Y0130000D02*
X0060000Y0220000D01*
X0060002Y0220196D01*
X0060009Y0220393D01*
X0060021Y0220589D01*
X0060038Y0220784D01*
X0060059Y0220979D01*
X0060085Y0221174D01*
X0060116Y0221368D01*
X0060151Y0221561D01*
X0060191Y0221753D01*
X0060236Y0221944D01*
X0060285Y0222134D01*
X0060339Y0222323D01*
X0060398Y0222511D01*
X0060461Y0222697D01*
X0060528Y0222881D01*
X0060600Y0223064D01*
X0060676Y0223245D01*
X0060757Y0223424D01*
X0060842Y0223601D01*
X0060931Y0223776D01*
X0061024Y0223949D01*
X0061121Y0224119D01*
X0061223Y0224287D01*
X0061329Y0224453D01*
X0061438Y0224616D01*
X0061552Y0224776D01*
X0061669Y0224933D01*
X0061790Y0225088D01*
X0061915Y0225239D01*
X0062043Y0225388D01*
X0062175Y0225533D01*
X0062311Y0225675D01*
X0062450Y0225814D01*
X0062592Y0225950D01*
X0062737Y0226082D01*
X0062886Y0226210D01*
X0063037Y0226335D01*
X0063192Y0226456D01*
X0063349Y0226573D01*
X0063509Y0226687D01*
X0063672Y0226796D01*
X0063838Y0226902D01*
X0064006Y0227004D01*
X0064176Y0227101D01*
X0064349Y0227194D01*
X0064524Y0227283D01*
X0064701Y0227368D01*
X0064880Y0227449D01*
X0065061Y0227525D01*
X0065244Y0227597D01*
X0065428Y0227664D01*
X0065614Y0227727D01*
X0065802Y0227786D01*
X0065991Y0227840D01*
X0066181Y0227889D01*
X0066372Y0227934D01*
X0066564Y0227974D01*
X0066757Y0228009D01*
X0066951Y0228040D01*
X0067146Y0228066D01*
X0067341Y0228087D01*
X0067536Y0228104D01*
X0067732Y0228116D01*
X0067929Y0228123D01*
X0068125Y0228125D01*
X0204323Y0228125D01*
X0204505Y0228123D01*
X0204688Y0228116D01*
X0204870Y0228105D01*
X0205052Y0228090D01*
X0205233Y0228070D01*
X0205414Y0228046D01*
X0205594Y0228017D01*
X0205774Y0227984D01*
X0205953Y0227947D01*
X0206130Y0227906D01*
X0206307Y0227860D01*
X0206482Y0227810D01*
X0206657Y0227755D01*
X0206830Y0227697D01*
X0207001Y0227634D01*
X0207171Y0227567D01*
X0207339Y0227497D01*
X0207505Y0227422D01*
X0207670Y0227343D01*
X0207833Y0227260D01*
X0207993Y0227173D01*
X0208152Y0227083D01*
X0208308Y0226988D01*
X0208462Y0226890D01*
X0208613Y0226788D01*
X0208762Y0226683D01*
X0208908Y0226574D01*
X0209052Y0226461D01*
X0209193Y0226345D01*
X0209331Y0226226D01*
X0209466Y0226103D01*
X0209598Y0225977D01*
X0209727Y0225848D01*
X0209853Y0225716D01*
X0209976Y0225581D01*
X0210095Y0225443D01*
X0210211Y0225302D01*
X0210324Y0225158D01*
X0210433Y0225012D01*
X0210538Y0224863D01*
X0210640Y0224712D01*
X0210738Y0224558D01*
X0210833Y0224402D01*
X0210923Y0224243D01*
X0211010Y0224083D01*
X0211093Y0223920D01*
X0211172Y0223755D01*
X0211247Y0223589D01*
X0211317Y0223421D01*
X0211384Y0223251D01*
X0211447Y0223080D01*
X0211505Y0222907D01*
X0211560Y0222732D01*
X0211610Y0222557D01*
X0211656Y0222380D01*
X0211697Y0222203D01*
X0211734Y0222024D01*
X0211767Y0221844D01*
X0211796Y0221664D01*
X0211820Y0221483D01*
X0211840Y0221302D01*
X0211855Y0221120D01*
X0211866Y0220938D01*
X0211873Y0220755D01*
X0211875Y0220573D01*
X0211875Y0176875D01*
X0211873Y0176709D01*
X0211867Y0176543D01*
X0211857Y0176377D01*
X0211843Y0176211D01*
X0211825Y0176046D01*
X0211803Y0175882D01*
X0211777Y0175718D01*
X0211747Y0175554D01*
X0211713Y0175391D01*
X0211675Y0175230D01*
X0211634Y0175069D01*
X0211588Y0174909D01*
X0211539Y0174751D01*
X0211485Y0174593D01*
X0211428Y0174437D01*
X0211367Y0174282D01*
X0211303Y0174129D01*
X0211235Y0173978D01*
X0211163Y0173828D01*
X0211088Y0173680D01*
X0211009Y0173534D01*
X0210926Y0173390D01*
X0210840Y0173247D01*
X0210751Y0173107D01*
X0210658Y0172970D01*
X0210562Y0172834D01*
X0210463Y0172701D01*
X0210360Y0172570D01*
X0210255Y0172442D01*
X0210146Y0172316D01*
X0210034Y0172193D01*
X0209920Y0172073D01*
X0209802Y0171955D01*
X0209682Y0171841D01*
X0209559Y0171729D01*
X0209433Y0171620D01*
X0209305Y0171515D01*
X0209174Y0171412D01*
X0209041Y0171313D01*
X0208905Y0171217D01*
X0208768Y0171124D01*
X0208628Y0171035D01*
X0208485Y0170949D01*
X0208341Y0170866D01*
X0208195Y0170787D01*
X0208047Y0170712D01*
X0207897Y0170640D01*
X0207746Y0170572D01*
X0207593Y0170508D01*
X0207438Y0170447D01*
X0207282Y0170390D01*
X0207124Y0170336D01*
X0206966Y0170287D01*
X0206806Y0170241D01*
X0206645Y0170200D01*
X0206484Y0170162D01*
X0206321Y0170128D01*
X0206157Y0170098D01*
X0205993Y0170072D01*
X0205829Y0170050D01*
X0205664Y0170032D01*
X0205498Y0170018D01*
X0205332Y0170008D01*
X0205166Y0170002D01*
X0205000Y0170000D01*
X0205000Y0200000D02*
X0175000Y0200000D01*
X0060000Y0130000D02*
X0048750Y0118750D01*
X0041250Y0118750D01*
X0025000Y0095000D02*
X0028125Y0091875D01*
X0028125Y0069375D01*
X0038125Y0059375D01*
X0040625Y0059375D01*
X0041250Y0058750D01*
X0025000Y0095000D02*
X0015000Y0095000D01*
X0015000Y0200000D02*
X0025000Y0200000D01*
X0032500Y0207500D01*
X0032500Y0213750D01*
X0038750Y0220000D01*
X0041250Y0220000D01*
D18*
X0110000Y0201250D03*
X0139375Y0173125D03*
X0175000Y0200000D03*
D19*
X0053125Y0133125D03*
D20*
X0128950Y0223300D02*
X0156700Y0195550D01*
X0190000Y0195550D01*
X0204800Y0180750D01*
X0205000Y0180000D01*
X0195550Y0165950D02*
X0190000Y0171500D01*
X0195550Y0165950D02*
X0195550Y0160400D01*
X0186300Y0151150D01*
X0186300Y0130800D01*
X0184500Y0130000D01*
D21*
X0128950Y0223300D03*
D22*
X0200000Y0120000D02*
X0205000Y0120000D01*
X0200000Y0120000D02*
X0195000Y0115000D01*
X0195000Y0080000D01*
X0175000Y0060000D01*
X0175000Y0043750D01*
X0174996Y0043448D01*
X0174985Y0043146D01*
X0174967Y0042845D01*
X0174942Y0042544D01*
X0174909Y0042243D01*
X0174869Y0041944D01*
X0174822Y0041646D01*
X0174767Y0041348D01*
X0174706Y0041053D01*
X0174637Y0040759D01*
X0174561Y0040466D01*
X0174478Y0040176D01*
X0174388Y0039887D01*
X0174291Y0039601D01*
X0174188Y0039317D01*
X0174077Y0039036D01*
X0173960Y0038758D01*
X0173836Y0038482D01*
X0173705Y0038210D01*
X0173568Y0037941D01*
X0173425Y0037675D01*
X0173275Y0037413D01*
X0173118Y0037154D01*
X0172956Y0036900D01*
X0172787Y0036649D01*
X0172613Y0036403D01*
X0172432Y0036160D01*
X0172246Y0035923D01*
X0172054Y0035689D01*
X0171856Y0035461D01*
X0171653Y0035237D01*
X0171445Y0035019D01*
X0171231Y0034805D01*
X0171013Y0034597D01*
X0170789Y0034394D01*
X0170561Y0034196D01*
X0170327Y0034004D01*
X0170090Y0033818D01*
X0169847Y0033637D01*
X0169601Y0033463D01*
X0169350Y0033294D01*
X0169096Y0033132D01*
X0168837Y0032975D01*
X0168575Y0032825D01*
X0168309Y0032682D01*
X0168040Y0032545D01*
X0167768Y0032414D01*
X0167492Y0032290D01*
X0167214Y0032173D01*
X0166933Y0032062D01*
X0166649Y0031959D01*
X0166363Y0031862D01*
X0166074Y0031772D01*
X0165784Y0031689D01*
X0165491Y0031613D01*
X0165197Y0031544D01*
X0164902Y0031483D01*
X0164604Y0031428D01*
X0164306Y0031381D01*
X0164007Y0031341D01*
X0163706Y0031308D01*
X0163405Y0031283D01*
X0163104Y0031265D01*
X0162802Y0031254D01*
X0162500Y0031250D01*
X0088125Y0031250D01*
X0088125Y0018750D01*
X0078125Y0018750D02*
X0078125Y0031250D01*
X0088125Y0031250D01*
X0078125Y0031250D02*
X0066250Y0031250D01*
X0066118Y0031182D01*
X0065988Y0031110D01*
X0065859Y0031034D01*
X0065733Y0030956D01*
X0065609Y0030874D01*
X0065487Y0030789D01*
X0065367Y0030700D01*
X0065250Y0030608D01*
X0065135Y0030514D01*
X0065023Y0030416D01*
X0064913Y0030315D01*
X0064806Y0030212D01*
X0064702Y0030105D01*
X0064601Y0029996D01*
X0064503Y0029884D01*
X0064407Y0029770D01*
X0064315Y0029653D01*
X0064226Y0029534D01*
X0064140Y0029412D01*
X0064058Y0029289D01*
X0063979Y0029163D01*
X0063903Y0029034D01*
X0063830Y0028904D01*
X0063762Y0028773D01*
X0063696Y0028639D01*
X0063634Y0028503D01*
X0063576Y0028367D01*
X0063522Y0028228D01*
X0063471Y0028088D01*
X0063424Y0027947D01*
X0063381Y0027805D01*
X0063341Y0027661D01*
X0063305Y0027517D01*
X0063274Y0027371D01*
X0063246Y0027225D01*
X0063222Y0027078D01*
X0063202Y0026931D01*
X0063185Y0026783D01*
X0063173Y0026634D01*
X0063165Y0026486D01*
X0063161Y0026337D01*
X0063160Y0026188D01*
X0063164Y0026039D01*
X0063172Y0025891D01*
X0063183Y0025742D01*
X0063199Y0025594D01*
X0063218Y0025447D01*
X0063241Y0025300D01*
X0063269Y0025154D01*
X0063300Y0025008D01*
X0063335Y0024863D01*
X0063374Y0024720D01*
X0063416Y0024577D01*
X0063463Y0024436D01*
X0063513Y0024296D01*
X0063567Y0024157D01*
X0063624Y0024020D01*
X0063685Y0023884D01*
X0063750Y0023750D01*
D23*
X0071250Y0048750D02*
X0090000Y0048750D01*
X0108750Y0074375D01*
X0118632Y0074375D01*
X0129660Y0085404D01*
X0113750Y0111875D02*
X0071250Y0118750D01*
X0061875Y0120625D02*
X0061878Y0120852D01*
X0061886Y0121078D01*
X0061900Y0121304D01*
X0061919Y0121530D01*
X0061943Y0121755D01*
X0061973Y0121980D01*
X0062009Y0122203D01*
X0062050Y0122426D01*
X0062096Y0122648D01*
X0062147Y0122869D01*
X0062204Y0123088D01*
X0062266Y0123306D01*
X0062334Y0123522D01*
X0062406Y0123737D01*
X0062484Y0123949D01*
X0062567Y0124160D01*
X0062655Y0124369D01*
X0062748Y0124576D01*
X0062846Y0124780D01*
X0062949Y0124982D01*
X0063057Y0125181D01*
X0063169Y0125378D01*
X0063286Y0125572D01*
X0063408Y0125763D01*
X0063535Y0125951D01*
X0063665Y0126135D01*
X0063801Y0126317D01*
X0063941Y0126495D01*
X0064085Y0126670D01*
X0064233Y0126842D01*
X0064385Y0127010D01*
X0064541Y0127174D01*
X0064701Y0127334D01*
X0064865Y0127490D01*
X0065033Y0127642D01*
X0065205Y0127790D01*
X0065380Y0127934D01*
X0065558Y0128074D01*
X0065740Y0128210D01*
X0065924Y0128340D01*
X0066112Y0128467D01*
X0066303Y0128589D01*
X0066497Y0128706D01*
X0066694Y0128818D01*
X0066893Y0128926D01*
X0067095Y0129029D01*
X0067299Y0129127D01*
X0067506Y0129220D01*
X0067715Y0129308D01*
X0067926Y0129391D01*
X0068138Y0129469D01*
X0068353Y0129541D01*
X0068569Y0129609D01*
X0068787Y0129671D01*
X0069006Y0129728D01*
X0069227Y0129779D01*
X0069449Y0129825D01*
X0069672Y0129866D01*
X0069895Y0129902D01*
X0070120Y0129932D01*
X0070345Y0129956D01*
X0070571Y0129975D01*
X0070797Y0129989D01*
X0071023Y0129997D01*
X0071250Y0130000D01*
X0070000Y0130000D01*
X0061875Y0120625D02*
X0061875Y0098125D01*
X0061878Y0097898D01*
X0061886Y0097672D01*
X0061900Y0097446D01*
X0061919Y0097220D01*
X0061943Y0096995D01*
X0061973Y0096770D01*
X0062009Y0096547D01*
X0062050Y0096324D01*
X0062096Y0096102D01*
X0062147Y0095881D01*
X0062204Y0095662D01*
X0062266Y0095444D01*
X0062334Y0095228D01*
X0062406Y0095013D01*
X0062484Y0094801D01*
X0062567Y0094590D01*
X0062655Y0094381D01*
X0062748Y0094174D01*
X0062846Y0093970D01*
X0062949Y0093768D01*
X0063057Y0093569D01*
X0063169Y0093372D01*
X0063286Y0093178D01*
X0063408Y0092987D01*
X0063535Y0092799D01*
X0063665Y0092615D01*
X0063801Y0092433D01*
X0063941Y0092255D01*
X0064085Y0092080D01*
X0064233Y0091908D01*
X0064385Y0091740D01*
X0064541Y0091576D01*
X0064701Y0091416D01*
X0064865Y0091260D01*
X0065033Y0091108D01*
X0065205Y0090960D01*
X0065380Y0090816D01*
X0065558Y0090676D01*
X0065740Y0090540D01*
X0065924Y0090410D01*
X0066112Y0090283D01*
X0066303Y0090161D01*
X0066497Y0090044D01*
X0066694Y0089932D01*
X0066893Y0089824D01*
X0067095Y0089721D01*
X0067299Y0089623D01*
X0067506Y0089530D01*
X0067715Y0089442D01*
X0067926Y0089359D01*
X0068138Y0089281D01*
X0068353Y0089209D01*
X0068569Y0089141D01*
X0068787Y0089079D01*
X0069006Y0089022D01*
X0069227Y0088971D01*
X0069449Y0088925D01*
X0069672Y0088884D01*
X0069895Y0088848D01*
X0070120Y0088818D01*
X0070345Y0088794D01*
X0070571Y0088775D01*
X0070797Y0088761D01*
X0071023Y0088753D01*
X0071250Y0088750D01*
X0071250Y0078750D02*
X0090000Y0068750D01*
X0033750Y0023750D02*
X0015000Y0030000D01*
X0080000Y0145000D02*
X0145000Y0145000D01*
X0150000Y0150000D01*
X0150000Y0159800D01*
X0153500Y0163300D01*
X0143750Y0165625D02*
X0151875Y0173750D01*
X0175000Y0173750D01*
X0181875Y0180625D01*
X0185000Y0183500D01*
X0186500Y0185000D01*
X0143750Y0165625D02*
X0143750Y0153125D01*
X0141250Y0150625D01*
X0083750Y0150625D01*
X0074375Y0160000D01*
X0071250Y0160000D01*
X0071250Y0150000D02*
X0075000Y0150000D01*
X0080000Y0145000D01*
X0088125Y0170000D02*
X0071250Y0170000D01*
X0071250Y0180000D02*
X0081875Y0178125D01*
X0086875Y0176250D01*
X0088125Y0170000D02*
X0093125Y0173125D01*
X0139375Y0173125D01*
X0110000Y0185000D02*
X0110000Y0201250D01*
X0093500Y0185000D02*
X0090000Y0185000D01*
X0081875Y0195000D01*
X0081875Y0215000D01*
X0075000Y0220000D01*
X0071250Y0220000D01*
D24*
X0086875Y0176250D03*
D25*
X0070000Y0130000D03*
D26*
X0090000Y0068750D03*
D27*
X0190000Y0171500D03*
M02*
