%
M48
M72
T01C0.01500
T02C0.01800
T03C0.02362
T04C0.02462
T05C0.02662
T06C0.02762
T07C0.03062
T08C0.03200
T09C0.04000
T10C0.05600
T11C0.11811
%
T01
X190000Y171500
T02
X128950Y223300
T03
X139375Y173125
X110000Y201250
X175000Y200000
T04
X53125Y133125
T05
X70000Y130000
T06
X86875Y176250
T07
X90000Y68750
T08
X71250Y140000
X71250Y150000
X71250Y160000
X71250Y170000
X71250Y180000
X71250Y190000
X71250Y200000
X71250Y210000
X71250Y220000
X71250Y118750
X71250Y108750
X71250Y98750
X71250Y88750
X71250Y78750
X71250Y68750
X71250Y58750
X71250Y48750
X71250Y38750
X41250Y38750
X41250Y48750
X41250Y58750
X41250Y68750
X41250Y78750
X41250Y88750
X41250Y98750
X41250Y108750
X41250Y118750
X41250Y140000
X41250Y150000
X41250Y160000
X41250Y170000
X41250Y180000
X41250Y190000
X41250Y200000
X41250Y210000
X41250Y220000
T09
X205000Y80000
X205000Y90000
X205000Y100000
X205000Y110000
X205000Y120000
X205000Y130000
X205000Y140000
X205000Y150000
X205000Y170000
X205000Y180000
X205000Y190000
X205000Y200000
X205000Y210000
X205000Y220000
X25000Y210000
X25000Y220000
X15000Y220000
X15000Y210000
X15000Y200000
X15000Y190000
X15000Y180000
X15000Y170000
X15000Y160000
X15000Y150000
X15000Y135000
X15000Y125000
X15000Y115000
X15000Y105000
X15000Y95000
X15000Y85000
X15000Y75000
X15000Y65000
X15000Y55000
X15000Y45000
X15000Y30000
X15000Y20000
X33750Y23750
X33750Y13750
X63750Y13750
X63750Y23750
X78125Y18750
X88125Y18750
X112500Y18750
X122500Y18750
X184500Y130000
X185500Y120000
X184500Y110000
T10
X163125Y16250
X141425Y16250
X141425Y45000
X146196Y63750
X129660Y63750
X113125Y63750
X113125Y85404
X129660Y85404
X146196Y85404
X146821Y111875
X130285Y111875
X113750Y111875
X113750Y133529
X130285Y133529
X146821Y133529
X153500Y163300
X170000Y163300
X186500Y163300
X186500Y185000
X170000Y185000
X153500Y185000
X126500Y185000
X110000Y185000
X93500Y185000
X93500Y163300
X110000Y163300
X126500Y163300
X163125Y45000
T11
X191865Y16250
X191865Y45000
X164700Y83593
X165325Y131718
X95246Y131718
X94621Y83593
X93500Y213740
X126500Y213740
X153500Y213740
X186500Y213740
M30
