G75*
%MOIN*%
%OFA0B0*%
%FSLAX25Y25*%
%IPPOS*%
%LPD*%
%AMOC8*
5,1,8,0,0,1.08239X$1,22.5*
%
%ADD10C,0.00000*%
%ADD11C,0.01000*%
%ADD12C,0.01200*%
%ADD13C,0.07400*%
%ADD14C,0.08000*%
%ADD15C,0.05200*%
%ADD16OC8,0.10000*%
%ADD17R,0.10000X0.10000*%
%ADD18C,0.02400*%
%ADD19C,0.03000*%
%ADD20C,0.04000*%
%ADD21R,0.03562X0.03562*%
%ADD22C,0.03200*%
%ADD23C,0.04800*%
%ADD24C,0.04500*%
%ADD25C,0.03169*%
%ADD26C,0.05600*%
%ADD27C,0.05000*%
%ADD28C,0.03562*%
%ADD29OC8,0.05906*%
%ADD30C,0.02200*%
D10*
X0005000Y0005000D02*
X0015000Y0005000D01*
X0208701Y0005000D01*
X0185959Y0016250D02*
X0185961Y0016403D01*
X0185967Y0016557D01*
X0185977Y0016710D01*
X0185991Y0016862D01*
X0186009Y0017015D01*
X0186031Y0017166D01*
X0186056Y0017317D01*
X0186086Y0017468D01*
X0186120Y0017618D01*
X0186157Y0017766D01*
X0186198Y0017914D01*
X0186243Y0018060D01*
X0186292Y0018206D01*
X0186345Y0018350D01*
X0186401Y0018492D01*
X0186461Y0018633D01*
X0186525Y0018773D01*
X0186592Y0018911D01*
X0186663Y0019047D01*
X0186738Y0019181D01*
X0186815Y0019313D01*
X0186897Y0019443D01*
X0186981Y0019571D01*
X0187069Y0019697D01*
X0187160Y0019820D01*
X0187254Y0019941D01*
X0187352Y0020059D01*
X0187452Y0020175D01*
X0187556Y0020288D01*
X0187662Y0020399D01*
X0187771Y0020507D01*
X0187883Y0020612D01*
X0187997Y0020713D01*
X0188115Y0020812D01*
X0188234Y0020908D01*
X0188356Y0021001D01*
X0188481Y0021090D01*
X0188608Y0021177D01*
X0188737Y0021259D01*
X0188868Y0021339D01*
X0189001Y0021415D01*
X0189136Y0021488D01*
X0189273Y0021557D01*
X0189412Y0021622D01*
X0189552Y0021684D01*
X0189694Y0021742D01*
X0189837Y0021797D01*
X0189982Y0021848D01*
X0190128Y0021895D01*
X0190275Y0021938D01*
X0190423Y0021977D01*
X0190572Y0022013D01*
X0190722Y0022044D01*
X0190873Y0022072D01*
X0191024Y0022096D01*
X0191177Y0022116D01*
X0191329Y0022132D01*
X0191482Y0022144D01*
X0191635Y0022152D01*
X0191788Y0022156D01*
X0191942Y0022156D01*
X0192095Y0022152D01*
X0192248Y0022144D01*
X0192401Y0022132D01*
X0192553Y0022116D01*
X0192706Y0022096D01*
X0192857Y0022072D01*
X0193008Y0022044D01*
X0193158Y0022013D01*
X0193307Y0021977D01*
X0193455Y0021938D01*
X0193602Y0021895D01*
X0193748Y0021848D01*
X0193893Y0021797D01*
X0194036Y0021742D01*
X0194178Y0021684D01*
X0194318Y0021622D01*
X0194457Y0021557D01*
X0194594Y0021488D01*
X0194729Y0021415D01*
X0194862Y0021339D01*
X0194993Y0021259D01*
X0195122Y0021177D01*
X0195249Y0021090D01*
X0195374Y0021001D01*
X0195496Y0020908D01*
X0195615Y0020812D01*
X0195733Y0020713D01*
X0195847Y0020612D01*
X0195959Y0020507D01*
X0196068Y0020399D01*
X0196174Y0020288D01*
X0196278Y0020175D01*
X0196378Y0020059D01*
X0196476Y0019941D01*
X0196570Y0019820D01*
X0196661Y0019697D01*
X0196749Y0019571D01*
X0196833Y0019443D01*
X0196915Y0019313D01*
X0196992Y0019181D01*
X0197067Y0019047D01*
X0197138Y0018911D01*
X0197205Y0018773D01*
X0197269Y0018633D01*
X0197329Y0018492D01*
X0197385Y0018350D01*
X0197438Y0018206D01*
X0197487Y0018060D01*
X0197532Y0017914D01*
X0197573Y0017766D01*
X0197610Y0017618D01*
X0197644Y0017468D01*
X0197674Y0017317D01*
X0197699Y0017166D01*
X0197721Y0017015D01*
X0197739Y0016862D01*
X0197753Y0016710D01*
X0197763Y0016557D01*
X0197769Y0016403D01*
X0197771Y0016250D01*
X0197769Y0016097D01*
X0197763Y0015943D01*
X0197753Y0015790D01*
X0197739Y0015638D01*
X0197721Y0015485D01*
X0197699Y0015334D01*
X0197674Y0015183D01*
X0197644Y0015032D01*
X0197610Y0014882D01*
X0197573Y0014734D01*
X0197532Y0014586D01*
X0197487Y0014440D01*
X0197438Y0014294D01*
X0197385Y0014150D01*
X0197329Y0014008D01*
X0197269Y0013867D01*
X0197205Y0013727D01*
X0197138Y0013589D01*
X0197067Y0013453D01*
X0196992Y0013319D01*
X0196915Y0013187D01*
X0196833Y0013057D01*
X0196749Y0012929D01*
X0196661Y0012803D01*
X0196570Y0012680D01*
X0196476Y0012559D01*
X0196378Y0012441D01*
X0196278Y0012325D01*
X0196174Y0012212D01*
X0196068Y0012101D01*
X0195959Y0011993D01*
X0195847Y0011888D01*
X0195733Y0011787D01*
X0195615Y0011688D01*
X0195496Y0011592D01*
X0195374Y0011499D01*
X0195249Y0011410D01*
X0195122Y0011323D01*
X0194993Y0011241D01*
X0194862Y0011161D01*
X0194729Y0011085D01*
X0194594Y0011012D01*
X0194457Y0010943D01*
X0194318Y0010878D01*
X0194178Y0010816D01*
X0194036Y0010758D01*
X0193893Y0010703D01*
X0193748Y0010652D01*
X0193602Y0010605D01*
X0193455Y0010562D01*
X0193307Y0010523D01*
X0193158Y0010487D01*
X0193008Y0010456D01*
X0192857Y0010428D01*
X0192706Y0010404D01*
X0192553Y0010384D01*
X0192401Y0010368D01*
X0192248Y0010356D01*
X0192095Y0010348D01*
X0191942Y0010344D01*
X0191788Y0010344D01*
X0191635Y0010348D01*
X0191482Y0010356D01*
X0191329Y0010368D01*
X0191177Y0010384D01*
X0191024Y0010404D01*
X0190873Y0010428D01*
X0190722Y0010456D01*
X0190572Y0010487D01*
X0190423Y0010523D01*
X0190275Y0010562D01*
X0190128Y0010605D01*
X0189982Y0010652D01*
X0189837Y0010703D01*
X0189694Y0010758D01*
X0189552Y0010816D01*
X0189412Y0010878D01*
X0189273Y0010943D01*
X0189136Y0011012D01*
X0189001Y0011085D01*
X0188868Y0011161D01*
X0188737Y0011241D01*
X0188608Y0011323D01*
X0188481Y0011410D01*
X0188356Y0011499D01*
X0188234Y0011592D01*
X0188115Y0011688D01*
X0187997Y0011787D01*
X0187883Y0011888D01*
X0187771Y0011993D01*
X0187662Y0012101D01*
X0187556Y0012212D01*
X0187452Y0012325D01*
X0187352Y0012441D01*
X0187254Y0012559D01*
X0187160Y0012680D01*
X0187069Y0012803D01*
X0186981Y0012929D01*
X0186897Y0013057D01*
X0186815Y0013187D01*
X0186738Y0013319D01*
X0186663Y0013453D01*
X0186592Y0013589D01*
X0186525Y0013727D01*
X0186461Y0013867D01*
X0186401Y0014008D01*
X0186345Y0014150D01*
X0186292Y0014294D01*
X0186243Y0014440D01*
X0186198Y0014586D01*
X0186157Y0014734D01*
X0186120Y0014882D01*
X0186086Y0015032D01*
X0186056Y0015183D01*
X0186031Y0015334D01*
X0186009Y0015485D01*
X0185991Y0015638D01*
X0185977Y0015790D01*
X0185967Y0015943D01*
X0185961Y0016097D01*
X0185959Y0016250D01*
X0186196Y0051638D02*
X0186198Y0051791D01*
X0186204Y0051945D01*
X0186214Y0052098D01*
X0186228Y0052250D01*
X0186246Y0052403D01*
X0186268Y0052554D01*
X0186293Y0052705D01*
X0186323Y0052856D01*
X0186357Y0053006D01*
X0186394Y0053154D01*
X0186435Y0053302D01*
X0186480Y0053448D01*
X0186529Y0053594D01*
X0186582Y0053738D01*
X0186638Y0053880D01*
X0186698Y0054021D01*
X0186762Y0054161D01*
X0186829Y0054299D01*
X0186900Y0054435D01*
X0186975Y0054569D01*
X0187052Y0054701D01*
X0187134Y0054831D01*
X0187218Y0054959D01*
X0187306Y0055085D01*
X0187397Y0055208D01*
X0187491Y0055329D01*
X0187589Y0055447D01*
X0187689Y0055563D01*
X0187793Y0055676D01*
X0187899Y0055787D01*
X0188008Y0055895D01*
X0188120Y0056000D01*
X0188234Y0056101D01*
X0188352Y0056200D01*
X0188471Y0056296D01*
X0188593Y0056389D01*
X0188718Y0056478D01*
X0188845Y0056565D01*
X0188974Y0056647D01*
X0189105Y0056727D01*
X0189238Y0056803D01*
X0189373Y0056876D01*
X0189510Y0056945D01*
X0189649Y0057010D01*
X0189789Y0057072D01*
X0189931Y0057130D01*
X0190074Y0057185D01*
X0190219Y0057236D01*
X0190365Y0057283D01*
X0190512Y0057326D01*
X0190660Y0057365D01*
X0190809Y0057401D01*
X0190959Y0057432D01*
X0191110Y0057460D01*
X0191261Y0057484D01*
X0191414Y0057504D01*
X0191566Y0057520D01*
X0191719Y0057532D01*
X0191872Y0057540D01*
X0192025Y0057544D01*
X0192179Y0057544D01*
X0192332Y0057540D01*
X0192485Y0057532D01*
X0192638Y0057520D01*
X0192790Y0057504D01*
X0192943Y0057484D01*
X0193094Y0057460D01*
X0193245Y0057432D01*
X0193395Y0057401D01*
X0193544Y0057365D01*
X0193692Y0057326D01*
X0193839Y0057283D01*
X0193985Y0057236D01*
X0194130Y0057185D01*
X0194273Y0057130D01*
X0194415Y0057072D01*
X0194555Y0057010D01*
X0194694Y0056945D01*
X0194831Y0056876D01*
X0194966Y0056803D01*
X0195099Y0056727D01*
X0195230Y0056647D01*
X0195359Y0056565D01*
X0195486Y0056478D01*
X0195611Y0056389D01*
X0195733Y0056296D01*
X0195852Y0056200D01*
X0195970Y0056101D01*
X0196084Y0056000D01*
X0196196Y0055895D01*
X0196305Y0055787D01*
X0196411Y0055676D01*
X0196515Y0055563D01*
X0196615Y0055447D01*
X0196713Y0055329D01*
X0196807Y0055208D01*
X0196898Y0055085D01*
X0196986Y0054959D01*
X0197070Y0054831D01*
X0197152Y0054701D01*
X0197229Y0054569D01*
X0197304Y0054435D01*
X0197375Y0054299D01*
X0197442Y0054161D01*
X0197506Y0054021D01*
X0197566Y0053880D01*
X0197622Y0053738D01*
X0197675Y0053594D01*
X0197724Y0053448D01*
X0197769Y0053302D01*
X0197810Y0053154D01*
X0197847Y0053006D01*
X0197881Y0052856D01*
X0197911Y0052705D01*
X0197936Y0052554D01*
X0197958Y0052403D01*
X0197976Y0052250D01*
X0197990Y0052098D01*
X0198000Y0051945D01*
X0198006Y0051791D01*
X0198008Y0051638D01*
X0198006Y0051485D01*
X0198000Y0051331D01*
X0197990Y0051178D01*
X0197976Y0051026D01*
X0197958Y0050873D01*
X0197936Y0050722D01*
X0197911Y0050571D01*
X0197881Y0050420D01*
X0197847Y0050270D01*
X0197810Y0050122D01*
X0197769Y0049974D01*
X0197724Y0049828D01*
X0197675Y0049682D01*
X0197622Y0049538D01*
X0197566Y0049396D01*
X0197506Y0049255D01*
X0197442Y0049115D01*
X0197375Y0048977D01*
X0197304Y0048841D01*
X0197229Y0048707D01*
X0197152Y0048575D01*
X0197070Y0048445D01*
X0196986Y0048317D01*
X0196898Y0048191D01*
X0196807Y0048068D01*
X0196713Y0047947D01*
X0196615Y0047829D01*
X0196515Y0047713D01*
X0196411Y0047600D01*
X0196305Y0047489D01*
X0196196Y0047381D01*
X0196084Y0047276D01*
X0195970Y0047175D01*
X0195852Y0047076D01*
X0195733Y0046980D01*
X0195611Y0046887D01*
X0195486Y0046798D01*
X0195359Y0046711D01*
X0195230Y0046629D01*
X0195099Y0046549D01*
X0194966Y0046473D01*
X0194831Y0046400D01*
X0194694Y0046331D01*
X0194555Y0046266D01*
X0194415Y0046204D01*
X0194273Y0046146D01*
X0194130Y0046091D01*
X0193985Y0046040D01*
X0193839Y0045993D01*
X0193692Y0045950D01*
X0193544Y0045911D01*
X0193395Y0045875D01*
X0193245Y0045844D01*
X0193094Y0045816D01*
X0192943Y0045792D01*
X0192790Y0045772D01*
X0192638Y0045756D01*
X0192485Y0045744D01*
X0192332Y0045736D01*
X0192179Y0045732D01*
X0192025Y0045732D01*
X0191872Y0045736D01*
X0191719Y0045744D01*
X0191566Y0045756D01*
X0191414Y0045772D01*
X0191261Y0045792D01*
X0191110Y0045816D01*
X0190959Y0045844D01*
X0190809Y0045875D01*
X0190660Y0045911D01*
X0190512Y0045950D01*
X0190365Y0045993D01*
X0190219Y0046040D01*
X0190074Y0046091D01*
X0189931Y0046146D01*
X0189789Y0046204D01*
X0189649Y0046266D01*
X0189510Y0046331D01*
X0189373Y0046400D01*
X0189238Y0046473D01*
X0189105Y0046549D01*
X0188974Y0046629D01*
X0188845Y0046711D01*
X0188718Y0046798D01*
X0188593Y0046887D01*
X0188471Y0046980D01*
X0188352Y0047076D01*
X0188234Y0047175D01*
X0188120Y0047276D01*
X0188008Y0047381D01*
X0187899Y0047489D01*
X0187793Y0047600D01*
X0187689Y0047713D01*
X0187589Y0047829D01*
X0187491Y0047947D01*
X0187397Y0048068D01*
X0187306Y0048191D01*
X0187218Y0048317D01*
X0187134Y0048445D01*
X0187052Y0048575D01*
X0186975Y0048707D01*
X0186900Y0048841D01*
X0186829Y0048977D01*
X0186762Y0049115D01*
X0186698Y0049255D01*
X0186638Y0049396D01*
X0186582Y0049538D01*
X0186529Y0049682D01*
X0186480Y0049828D01*
X0186435Y0049974D01*
X0186394Y0050122D01*
X0186357Y0050270D01*
X0186323Y0050420D01*
X0186293Y0050571D01*
X0186268Y0050722D01*
X0186246Y0050873D01*
X0186228Y0051026D01*
X0186214Y0051178D01*
X0186204Y0051331D01*
X0186198Y0051485D01*
X0186196Y0051638D01*
X0138001Y0084621D02*
X0138003Y0084774D01*
X0138009Y0084928D01*
X0138019Y0085081D01*
X0138033Y0085233D01*
X0138051Y0085386D01*
X0138073Y0085537D01*
X0138098Y0085688D01*
X0138128Y0085839D01*
X0138162Y0085989D01*
X0138199Y0086137D01*
X0138240Y0086285D01*
X0138285Y0086431D01*
X0138334Y0086577D01*
X0138387Y0086721D01*
X0138443Y0086863D01*
X0138503Y0087004D01*
X0138567Y0087144D01*
X0138634Y0087282D01*
X0138705Y0087418D01*
X0138780Y0087552D01*
X0138857Y0087684D01*
X0138939Y0087814D01*
X0139023Y0087942D01*
X0139111Y0088068D01*
X0139202Y0088191D01*
X0139296Y0088312D01*
X0139394Y0088430D01*
X0139494Y0088546D01*
X0139598Y0088659D01*
X0139704Y0088770D01*
X0139813Y0088878D01*
X0139925Y0088983D01*
X0140039Y0089084D01*
X0140157Y0089183D01*
X0140276Y0089279D01*
X0140398Y0089372D01*
X0140523Y0089461D01*
X0140650Y0089548D01*
X0140779Y0089630D01*
X0140910Y0089710D01*
X0141043Y0089786D01*
X0141178Y0089859D01*
X0141315Y0089928D01*
X0141454Y0089993D01*
X0141594Y0090055D01*
X0141736Y0090113D01*
X0141879Y0090168D01*
X0142024Y0090219D01*
X0142170Y0090266D01*
X0142317Y0090309D01*
X0142465Y0090348D01*
X0142614Y0090384D01*
X0142764Y0090415D01*
X0142915Y0090443D01*
X0143066Y0090467D01*
X0143219Y0090487D01*
X0143371Y0090503D01*
X0143524Y0090515D01*
X0143677Y0090523D01*
X0143830Y0090527D01*
X0143984Y0090527D01*
X0144137Y0090523D01*
X0144290Y0090515D01*
X0144443Y0090503D01*
X0144595Y0090487D01*
X0144748Y0090467D01*
X0144899Y0090443D01*
X0145050Y0090415D01*
X0145200Y0090384D01*
X0145349Y0090348D01*
X0145497Y0090309D01*
X0145644Y0090266D01*
X0145790Y0090219D01*
X0145935Y0090168D01*
X0146078Y0090113D01*
X0146220Y0090055D01*
X0146360Y0089993D01*
X0146499Y0089928D01*
X0146636Y0089859D01*
X0146771Y0089786D01*
X0146904Y0089710D01*
X0147035Y0089630D01*
X0147164Y0089548D01*
X0147291Y0089461D01*
X0147416Y0089372D01*
X0147538Y0089279D01*
X0147657Y0089183D01*
X0147775Y0089084D01*
X0147889Y0088983D01*
X0148001Y0088878D01*
X0148110Y0088770D01*
X0148216Y0088659D01*
X0148320Y0088546D01*
X0148420Y0088430D01*
X0148518Y0088312D01*
X0148612Y0088191D01*
X0148703Y0088068D01*
X0148791Y0087942D01*
X0148875Y0087814D01*
X0148957Y0087684D01*
X0149034Y0087552D01*
X0149109Y0087418D01*
X0149180Y0087282D01*
X0149247Y0087144D01*
X0149311Y0087004D01*
X0149371Y0086863D01*
X0149427Y0086721D01*
X0149480Y0086577D01*
X0149529Y0086431D01*
X0149574Y0086285D01*
X0149615Y0086137D01*
X0149652Y0085989D01*
X0149686Y0085839D01*
X0149716Y0085688D01*
X0149741Y0085537D01*
X0149763Y0085386D01*
X0149781Y0085233D01*
X0149795Y0085081D01*
X0149805Y0084928D01*
X0149811Y0084774D01*
X0149813Y0084621D01*
X0149811Y0084468D01*
X0149805Y0084314D01*
X0149795Y0084161D01*
X0149781Y0084009D01*
X0149763Y0083856D01*
X0149741Y0083705D01*
X0149716Y0083554D01*
X0149686Y0083403D01*
X0149652Y0083253D01*
X0149615Y0083105D01*
X0149574Y0082957D01*
X0149529Y0082811D01*
X0149480Y0082665D01*
X0149427Y0082521D01*
X0149371Y0082379D01*
X0149311Y0082238D01*
X0149247Y0082098D01*
X0149180Y0081960D01*
X0149109Y0081824D01*
X0149034Y0081690D01*
X0148957Y0081558D01*
X0148875Y0081428D01*
X0148791Y0081300D01*
X0148703Y0081174D01*
X0148612Y0081051D01*
X0148518Y0080930D01*
X0148420Y0080812D01*
X0148320Y0080696D01*
X0148216Y0080583D01*
X0148110Y0080472D01*
X0148001Y0080364D01*
X0147889Y0080259D01*
X0147775Y0080158D01*
X0147657Y0080059D01*
X0147538Y0079963D01*
X0147416Y0079870D01*
X0147291Y0079781D01*
X0147164Y0079694D01*
X0147035Y0079612D01*
X0146904Y0079532D01*
X0146771Y0079456D01*
X0146636Y0079383D01*
X0146499Y0079314D01*
X0146360Y0079249D01*
X0146220Y0079187D01*
X0146078Y0079129D01*
X0145935Y0079074D01*
X0145790Y0079023D01*
X0145644Y0078976D01*
X0145497Y0078933D01*
X0145349Y0078894D01*
X0145200Y0078858D01*
X0145050Y0078827D01*
X0144899Y0078799D01*
X0144748Y0078775D01*
X0144595Y0078755D01*
X0144443Y0078739D01*
X0144290Y0078727D01*
X0144137Y0078719D01*
X0143984Y0078715D01*
X0143830Y0078715D01*
X0143677Y0078719D01*
X0143524Y0078727D01*
X0143371Y0078739D01*
X0143219Y0078755D01*
X0143066Y0078775D01*
X0142915Y0078799D01*
X0142764Y0078827D01*
X0142614Y0078858D01*
X0142465Y0078894D01*
X0142317Y0078933D01*
X0142170Y0078976D01*
X0142024Y0079023D01*
X0141879Y0079074D01*
X0141736Y0079129D01*
X0141594Y0079187D01*
X0141454Y0079249D01*
X0141315Y0079314D01*
X0141178Y0079383D01*
X0141043Y0079456D01*
X0140910Y0079532D01*
X0140779Y0079612D01*
X0140650Y0079694D01*
X0140523Y0079781D01*
X0140398Y0079870D01*
X0140276Y0079963D01*
X0140157Y0080059D01*
X0140039Y0080158D01*
X0139925Y0080259D01*
X0139813Y0080364D01*
X0139704Y0080472D01*
X0139598Y0080583D01*
X0139494Y0080696D01*
X0139394Y0080812D01*
X0139296Y0080930D01*
X0139202Y0081051D01*
X0139111Y0081174D01*
X0139023Y0081300D01*
X0138939Y0081428D01*
X0138857Y0081558D01*
X0138780Y0081690D01*
X0138705Y0081824D01*
X0138634Y0081960D01*
X0138567Y0082098D01*
X0138503Y0082238D01*
X0138443Y0082379D01*
X0138387Y0082521D01*
X0138334Y0082665D01*
X0138285Y0082811D01*
X0138240Y0082957D01*
X0138199Y0083105D01*
X0138162Y0083253D01*
X0138128Y0083403D01*
X0138098Y0083554D01*
X0138073Y0083705D01*
X0138051Y0083856D01*
X0138033Y0084009D01*
X0138019Y0084161D01*
X0138009Y0084314D01*
X0138003Y0084468D01*
X0138001Y0084621D01*
X0109562Y0099754D02*
X0109564Y0099907D01*
X0109570Y0100061D01*
X0109580Y0100214D01*
X0109594Y0100366D01*
X0109612Y0100519D01*
X0109634Y0100670D01*
X0109659Y0100821D01*
X0109689Y0100972D01*
X0109723Y0101122D01*
X0109760Y0101270D01*
X0109801Y0101418D01*
X0109846Y0101564D01*
X0109895Y0101710D01*
X0109948Y0101854D01*
X0110004Y0101996D01*
X0110064Y0102137D01*
X0110128Y0102277D01*
X0110195Y0102415D01*
X0110266Y0102551D01*
X0110341Y0102685D01*
X0110418Y0102817D01*
X0110500Y0102947D01*
X0110584Y0103075D01*
X0110672Y0103201D01*
X0110763Y0103324D01*
X0110857Y0103445D01*
X0110955Y0103563D01*
X0111055Y0103679D01*
X0111159Y0103792D01*
X0111265Y0103903D01*
X0111374Y0104011D01*
X0111486Y0104116D01*
X0111600Y0104217D01*
X0111718Y0104316D01*
X0111837Y0104412D01*
X0111959Y0104505D01*
X0112084Y0104594D01*
X0112211Y0104681D01*
X0112340Y0104763D01*
X0112471Y0104843D01*
X0112604Y0104919D01*
X0112739Y0104992D01*
X0112876Y0105061D01*
X0113015Y0105126D01*
X0113155Y0105188D01*
X0113297Y0105246D01*
X0113440Y0105301D01*
X0113585Y0105352D01*
X0113731Y0105399D01*
X0113878Y0105442D01*
X0114026Y0105481D01*
X0114175Y0105517D01*
X0114325Y0105548D01*
X0114476Y0105576D01*
X0114627Y0105600D01*
X0114780Y0105620D01*
X0114932Y0105636D01*
X0115085Y0105648D01*
X0115238Y0105656D01*
X0115391Y0105660D01*
X0115545Y0105660D01*
X0115698Y0105656D01*
X0115851Y0105648D01*
X0116004Y0105636D01*
X0116156Y0105620D01*
X0116309Y0105600D01*
X0116460Y0105576D01*
X0116611Y0105548D01*
X0116761Y0105517D01*
X0116910Y0105481D01*
X0117058Y0105442D01*
X0117205Y0105399D01*
X0117351Y0105352D01*
X0117496Y0105301D01*
X0117639Y0105246D01*
X0117781Y0105188D01*
X0117921Y0105126D01*
X0118060Y0105061D01*
X0118197Y0104992D01*
X0118332Y0104919D01*
X0118465Y0104843D01*
X0118596Y0104763D01*
X0118725Y0104681D01*
X0118852Y0104594D01*
X0118977Y0104505D01*
X0119099Y0104412D01*
X0119218Y0104316D01*
X0119336Y0104217D01*
X0119450Y0104116D01*
X0119562Y0104011D01*
X0119671Y0103903D01*
X0119777Y0103792D01*
X0119881Y0103679D01*
X0119981Y0103563D01*
X0120079Y0103445D01*
X0120173Y0103324D01*
X0120264Y0103201D01*
X0120352Y0103075D01*
X0120436Y0102947D01*
X0120518Y0102817D01*
X0120595Y0102685D01*
X0120670Y0102551D01*
X0120741Y0102415D01*
X0120808Y0102277D01*
X0120872Y0102137D01*
X0120932Y0101996D01*
X0120988Y0101854D01*
X0121041Y0101710D01*
X0121090Y0101564D01*
X0121135Y0101418D01*
X0121176Y0101270D01*
X0121213Y0101122D01*
X0121247Y0100972D01*
X0121277Y0100821D01*
X0121302Y0100670D01*
X0121324Y0100519D01*
X0121342Y0100366D01*
X0121356Y0100214D01*
X0121366Y0100061D01*
X0121372Y0099907D01*
X0121374Y0099754D01*
X0121372Y0099601D01*
X0121366Y0099447D01*
X0121356Y0099294D01*
X0121342Y0099142D01*
X0121324Y0098989D01*
X0121302Y0098838D01*
X0121277Y0098687D01*
X0121247Y0098536D01*
X0121213Y0098386D01*
X0121176Y0098238D01*
X0121135Y0098090D01*
X0121090Y0097944D01*
X0121041Y0097798D01*
X0120988Y0097654D01*
X0120932Y0097512D01*
X0120872Y0097371D01*
X0120808Y0097231D01*
X0120741Y0097093D01*
X0120670Y0096957D01*
X0120595Y0096823D01*
X0120518Y0096691D01*
X0120436Y0096561D01*
X0120352Y0096433D01*
X0120264Y0096307D01*
X0120173Y0096184D01*
X0120079Y0096063D01*
X0119981Y0095945D01*
X0119881Y0095829D01*
X0119777Y0095716D01*
X0119671Y0095605D01*
X0119562Y0095497D01*
X0119450Y0095392D01*
X0119336Y0095291D01*
X0119218Y0095192D01*
X0119099Y0095096D01*
X0118977Y0095003D01*
X0118852Y0094914D01*
X0118725Y0094827D01*
X0118596Y0094745D01*
X0118465Y0094665D01*
X0118332Y0094589D01*
X0118197Y0094516D01*
X0118060Y0094447D01*
X0117921Y0094382D01*
X0117781Y0094320D01*
X0117639Y0094262D01*
X0117496Y0094207D01*
X0117351Y0094156D01*
X0117205Y0094109D01*
X0117058Y0094066D01*
X0116910Y0094027D01*
X0116761Y0093991D01*
X0116611Y0093960D01*
X0116460Y0093932D01*
X0116309Y0093908D01*
X0116156Y0093888D01*
X0116004Y0093872D01*
X0115851Y0093860D01*
X0115698Y0093852D01*
X0115545Y0093848D01*
X0115391Y0093848D01*
X0115238Y0093852D01*
X0115085Y0093860D01*
X0114932Y0093872D01*
X0114780Y0093888D01*
X0114627Y0093908D01*
X0114476Y0093932D01*
X0114325Y0093960D01*
X0114175Y0093991D01*
X0114026Y0094027D01*
X0113878Y0094066D01*
X0113731Y0094109D01*
X0113585Y0094156D01*
X0113440Y0094207D01*
X0113297Y0094262D01*
X0113155Y0094320D01*
X0113015Y0094382D01*
X0112876Y0094447D01*
X0112739Y0094516D01*
X0112604Y0094589D01*
X0112471Y0094665D01*
X0112340Y0094745D01*
X0112211Y0094827D01*
X0112084Y0094914D01*
X0111959Y0095003D01*
X0111837Y0095096D01*
X0111718Y0095192D01*
X0111600Y0095291D01*
X0111486Y0095392D01*
X0111374Y0095497D01*
X0111265Y0095605D01*
X0111159Y0095716D01*
X0111055Y0095829D01*
X0110955Y0095945D01*
X0110857Y0096063D01*
X0110763Y0096184D01*
X0110672Y0096307D01*
X0110584Y0096433D01*
X0110500Y0096561D01*
X0110418Y0096691D01*
X0110341Y0096823D01*
X0110266Y0096957D01*
X0110195Y0097093D01*
X0110128Y0097231D01*
X0110064Y0097371D01*
X0110004Y0097512D01*
X0109948Y0097654D01*
X0109895Y0097798D01*
X0109846Y0097944D01*
X0109801Y0098090D01*
X0109760Y0098238D01*
X0109723Y0098386D01*
X0109689Y0098536D01*
X0109659Y0098687D01*
X0109634Y0098838D01*
X0109612Y0098989D01*
X0109594Y0099142D01*
X0109580Y0099294D01*
X0109570Y0099447D01*
X0109564Y0099601D01*
X0109562Y0099754D01*
X0138001Y0154700D02*
X0138003Y0154853D01*
X0138009Y0155007D01*
X0138019Y0155160D01*
X0138033Y0155312D01*
X0138051Y0155465D01*
X0138073Y0155616D01*
X0138098Y0155767D01*
X0138128Y0155918D01*
X0138162Y0156068D01*
X0138199Y0156216D01*
X0138240Y0156364D01*
X0138285Y0156510D01*
X0138334Y0156656D01*
X0138387Y0156800D01*
X0138443Y0156942D01*
X0138503Y0157083D01*
X0138567Y0157223D01*
X0138634Y0157361D01*
X0138705Y0157497D01*
X0138780Y0157631D01*
X0138857Y0157763D01*
X0138939Y0157893D01*
X0139023Y0158021D01*
X0139111Y0158147D01*
X0139202Y0158270D01*
X0139296Y0158391D01*
X0139394Y0158509D01*
X0139494Y0158625D01*
X0139598Y0158738D01*
X0139704Y0158849D01*
X0139813Y0158957D01*
X0139925Y0159062D01*
X0140039Y0159163D01*
X0140157Y0159262D01*
X0140276Y0159358D01*
X0140398Y0159451D01*
X0140523Y0159540D01*
X0140650Y0159627D01*
X0140779Y0159709D01*
X0140910Y0159789D01*
X0141043Y0159865D01*
X0141178Y0159938D01*
X0141315Y0160007D01*
X0141454Y0160072D01*
X0141594Y0160134D01*
X0141736Y0160192D01*
X0141879Y0160247D01*
X0142024Y0160298D01*
X0142170Y0160345D01*
X0142317Y0160388D01*
X0142465Y0160427D01*
X0142614Y0160463D01*
X0142764Y0160494D01*
X0142915Y0160522D01*
X0143066Y0160546D01*
X0143219Y0160566D01*
X0143371Y0160582D01*
X0143524Y0160594D01*
X0143677Y0160602D01*
X0143830Y0160606D01*
X0143984Y0160606D01*
X0144137Y0160602D01*
X0144290Y0160594D01*
X0144443Y0160582D01*
X0144595Y0160566D01*
X0144748Y0160546D01*
X0144899Y0160522D01*
X0145050Y0160494D01*
X0145200Y0160463D01*
X0145349Y0160427D01*
X0145497Y0160388D01*
X0145644Y0160345D01*
X0145790Y0160298D01*
X0145935Y0160247D01*
X0146078Y0160192D01*
X0146220Y0160134D01*
X0146360Y0160072D01*
X0146499Y0160007D01*
X0146636Y0159938D01*
X0146771Y0159865D01*
X0146904Y0159789D01*
X0147035Y0159709D01*
X0147164Y0159627D01*
X0147291Y0159540D01*
X0147416Y0159451D01*
X0147538Y0159358D01*
X0147657Y0159262D01*
X0147775Y0159163D01*
X0147889Y0159062D01*
X0148001Y0158957D01*
X0148110Y0158849D01*
X0148216Y0158738D01*
X0148320Y0158625D01*
X0148420Y0158509D01*
X0148518Y0158391D01*
X0148612Y0158270D01*
X0148703Y0158147D01*
X0148791Y0158021D01*
X0148875Y0157893D01*
X0148957Y0157763D01*
X0149034Y0157631D01*
X0149109Y0157497D01*
X0149180Y0157361D01*
X0149247Y0157223D01*
X0149311Y0157083D01*
X0149371Y0156942D01*
X0149427Y0156800D01*
X0149480Y0156656D01*
X0149529Y0156510D01*
X0149574Y0156364D01*
X0149615Y0156216D01*
X0149652Y0156068D01*
X0149686Y0155918D01*
X0149716Y0155767D01*
X0149741Y0155616D01*
X0149763Y0155465D01*
X0149781Y0155312D01*
X0149795Y0155160D01*
X0149805Y0155007D01*
X0149811Y0154853D01*
X0149813Y0154700D01*
X0149811Y0154547D01*
X0149805Y0154393D01*
X0149795Y0154240D01*
X0149781Y0154088D01*
X0149763Y0153935D01*
X0149741Y0153784D01*
X0149716Y0153633D01*
X0149686Y0153482D01*
X0149652Y0153332D01*
X0149615Y0153184D01*
X0149574Y0153036D01*
X0149529Y0152890D01*
X0149480Y0152744D01*
X0149427Y0152600D01*
X0149371Y0152458D01*
X0149311Y0152317D01*
X0149247Y0152177D01*
X0149180Y0152039D01*
X0149109Y0151903D01*
X0149034Y0151769D01*
X0148957Y0151637D01*
X0148875Y0151507D01*
X0148791Y0151379D01*
X0148703Y0151253D01*
X0148612Y0151130D01*
X0148518Y0151009D01*
X0148420Y0150891D01*
X0148320Y0150775D01*
X0148216Y0150662D01*
X0148110Y0150551D01*
X0148001Y0150443D01*
X0147889Y0150338D01*
X0147775Y0150237D01*
X0147657Y0150138D01*
X0147538Y0150042D01*
X0147416Y0149949D01*
X0147291Y0149860D01*
X0147164Y0149773D01*
X0147035Y0149691D01*
X0146904Y0149611D01*
X0146771Y0149535D01*
X0146636Y0149462D01*
X0146499Y0149393D01*
X0146360Y0149328D01*
X0146220Y0149266D01*
X0146078Y0149208D01*
X0145935Y0149153D01*
X0145790Y0149102D01*
X0145644Y0149055D01*
X0145497Y0149012D01*
X0145349Y0148973D01*
X0145200Y0148937D01*
X0145050Y0148906D01*
X0144899Y0148878D01*
X0144748Y0148854D01*
X0144595Y0148834D01*
X0144443Y0148818D01*
X0144290Y0148806D01*
X0144137Y0148798D01*
X0143984Y0148794D01*
X0143830Y0148794D01*
X0143677Y0148798D01*
X0143524Y0148806D01*
X0143371Y0148818D01*
X0143219Y0148834D01*
X0143066Y0148854D01*
X0142915Y0148878D01*
X0142764Y0148906D01*
X0142614Y0148937D01*
X0142465Y0148973D01*
X0142317Y0149012D01*
X0142170Y0149055D01*
X0142024Y0149102D01*
X0141879Y0149153D01*
X0141736Y0149208D01*
X0141594Y0149266D01*
X0141454Y0149328D01*
X0141315Y0149393D01*
X0141178Y0149462D01*
X0141043Y0149535D01*
X0140910Y0149611D01*
X0140779Y0149691D01*
X0140650Y0149773D01*
X0140523Y0149860D01*
X0140398Y0149949D01*
X0140276Y0150042D01*
X0140157Y0150138D01*
X0140039Y0150237D01*
X0139925Y0150338D01*
X0139813Y0150443D01*
X0139704Y0150551D01*
X0139598Y0150662D01*
X0139494Y0150775D01*
X0139394Y0150891D01*
X0139296Y0151009D01*
X0139202Y0151130D01*
X0139111Y0151253D01*
X0139023Y0151379D01*
X0138939Y0151507D01*
X0138857Y0151637D01*
X0138780Y0151769D01*
X0138705Y0151903D01*
X0138634Y0152039D01*
X0138567Y0152177D01*
X0138503Y0152317D01*
X0138443Y0152458D01*
X0138387Y0152600D01*
X0138334Y0152744D01*
X0138285Y0152890D01*
X0138240Y0153036D01*
X0138199Y0153184D01*
X0138162Y0153332D01*
X0138128Y0153482D01*
X0138098Y0153633D01*
X0138073Y0153784D01*
X0138051Y0153935D01*
X0138033Y0154088D01*
X0138019Y0154240D01*
X0138009Y0154393D01*
X0138003Y0154547D01*
X0138001Y0154700D01*
X0120594Y0213740D02*
X0120596Y0213893D01*
X0120602Y0214047D01*
X0120612Y0214200D01*
X0120626Y0214352D01*
X0120644Y0214505D01*
X0120666Y0214656D01*
X0120691Y0214807D01*
X0120721Y0214958D01*
X0120755Y0215108D01*
X0120792Y0215256D01*
X0120833Y0215404D01*
X0120878Y0215550D01*
X0120927Y0215696D01*
X0120980Y0215840D01*
X0121036Y0215982D01*
X0121096Y0216123D01*
X0121160Y0216263D01*
X0121227Y0216401D01*
X0121298Y0216537D01*
X0121373Y0216671D01*
X0121450Y0216803D01*
X0121532Y0216933D01*
X0121616Y0217061D01*
X0121704Y0217187D01*
X0121795Y0217310D01*
X0121889Y0217431D01*
X0121987Y0217549D01*
X0122087Y0217665D01*
X0122191Y0217778D01*
X0122297Y0217889D01*
X0122406Y0217997D01*
X0122518Y0218102D01*
X0122632Y0218203D01*
X0122750Y0218302D01*
X0122869Y0218398D01*
X0122991Y0218491D01*
X0123116Y0218580D01*
X0123243Y0218667D01*
X0123372Y0218749D01*
X0123503Y0218829D01*
X0123636Y0218905D01*
X0123771Y0218978D01*
X0123908Y0219047D01*
X0124047Y0219112D01*
X0124187Y0219174D01*
X0124329Y0219232D01*
X0124472Y0219287D01*
X0124617Y0219338D01*
X0124763Y0219385D01*
X0124910Y0219428D01*
X0125058Y0219467D01*
X0125207Y0219503D01*
X0125357Y0219534D01*
X0125508Y0219562D01*
X0125659Y0219586D01*
X0125812Y0219606D01*
X0125964Y0219622D01*
X0126117Y0219634D01*
X0126270Y0219642D01*
X0126423Y0219646D01*
X0126577Y0219646D01*
X0126730Y0219642D01*
X0126883Y0219634D01*
X0127036Y0219622D01*
X0127188Y0219606D01*
X0127341Y0219586D01*
X0127492Y0219562D01*
X0127643Y0219534D01*
X0127793Y0219503D01*
X0127942Y0219467D01*
X0128090Y0219428D01*
X0128237Y0219385D01*
X0128383Y0219338D01*
X0128528Y0219287D01*
X0128671Y0219232D01*
X0128813Y0219174D01*
X0128953Y0219112D01*
X0129092Y0219047D01*
X0129229Y0218978D01*
X0129364Y0218905D01*
X0129497Y0218829D01*
X0129628Y0218749D01*
X0129757Y0218667D01*
X0129884Y0218580D01*
X0130009Y0218491D01*
X0130131Y0218398D01*
X0130250Y0218302D01*
X0130368Y0218203D01*
X0130482Y0218102D01*
X0130594Y0217997D01*
X0130703Y0217889D01*
X0130809Y0217778D01*
X0130913Y0217665D01*
X0131013Y0217549D01*
X0131111Y0217431D01*
X0131205Y0217310D01*
X0131296Y0217187D01*
X0131384Y0217061D01*
X0131468Y0216933D01*
X0131550Y0216803D01*
X0131627Y0216671D01*
X0131702Y0216537D01*
X0131773Y0216401D01*
X0131840Y0216263D01*
X0131904Y0216123D01*
X0131964Y0215982D01*
X0132020Y0215840D01*
X0132073Y0215696D01*
X0132122Y0215550D01*
X0132167Y0215404D01*
X0132208Y0215256D01*
X0132245Y0215108D01*
X0132279Y0214958D01*
X0132309Y0214807D01*
X0132334Y0214656D01*
X0132356Y0214505D01*
X0132374Y0214352D01*
X0132388Y0214200D01*
X0132398Y0214047D01*
X0132404Y0213893D01*
X0132406Y0213740D01*
X0132404Y0213587D01*
X0132398Y0213433D01*
X0132388Y0213280D01*
X0132374Y0213128D01*
X0132356Y0212975D01*
X0132334Y0212824D01*
X0132309Y0212673D01*
X0132279Y0212522D01*
X0132245Y0212372D01*
X0132208Y0212224D01*
X0132167Y0212076D01*
X0132122Y0211930D01*
X0132073Y0211784D01*
X0132020Y0211640D01*
X0131964Y0211498D01*
X0131904Y0211357D01*
X0131840Y0211217D01*
X0131773Y0211079D01*
X0131702Y0210943D01*
X0131627Y0210809D01*
X0131550Y0210677D01*
X0131468Y0210547D01*
X0131384Y0210419D01*
X0131296Y0210293D01*
X0131205Y0210170D01*
X0131111Y0210049D01*
X0131013Y0209931D01*
X0130913Y0209815D01*
X0130809Y0209702D01*
X0130703Y0209591D01*
X0130594Y0209483D01*
X0130482Y0209378D01*
X0130368Y0209277D01*
X0130250Y0209178D01*
X0130131Y0209082D01*
X0130009Y0208989D01*
X0129884Y0208900D01*
X0129757Y0208813D01*
X0129628Y0208731D01*
X0129497Y0208651D01*
X0129364Y0208575D01*
X0129229Y0208502D01*
X0129092Y0208433D01*
X0128953Y0208368D01*
X0128813Y0208306D01*
X0128671Y0208248D01*
X0128528Y0208193D01*
X0128383Y0208142D01*
X0128237Y0208095D01*
X0128090Y0208052D01*
X0127942Y0208013D01*
X0127793Y0207977D01*
X0127643Y0207946D01*
X0127492Y0207918D01*
X0127341Y0207894D01*
X0127188Y0207874D01*
X0127036Y0207858D01*
X0126883Y0207846D01*
X0126730Y0207838D01*
X0126577Y0207834D01*
X0126423Y0207834D01*
X0126270Y0207838D01*
X0126117Y0207846D01*
X0125964Y0207858D01*
X0125812Y0207874D01*
X0125659Y0207894D01*
X0125508Y0207918D01*
X0125357Y0207946D01*
X0125207Y0207977D01*
X0125058Y0208013D01*
X0124910Y0208052D01*
X0124763Y0208095D01*
X0124617Y0208142D01*
X0124472Y0208193D01*
X0124329Y0208248D01*
X0124187Y0208306D01*
X0124047Y0208368D01*
X0123908Y0208433D01*
X0123771Y0208502D01*
X0123636Y0208575D01*
X0123503Y0208651D01*
X0123372Y0208731D01*
X0123243Y0208813D01*
X0123116Y0208900D01*
X0122991Y0208989D01*
X0122869Y0209082D01*
X0122750Y0209178D01*
X0122632Y0209277D01*
X0122518Y0209378D01*
X0122406Y0209483D01*
X0122297Y0209591D01*
X0122191Y0209702D01*
X0122087Y0209815D01*
X0121987Y0209931D01*
X0121889Y0210049D01*
X0121795Y0210170D01*
X0121704Y0210293D01*
X0121616Y0210419D01*
X0121532Y0210547D01*
X0121450Y0210677D01*
X0121373Y0210809D01*
X0121298Y0210943D01*
X0121227Y0211079D01*
X0121160Y0211217D01*
X0121096Y0211357D01*
X0121036Y0211498D01*
X0120980Y0211640D01*
X0120927Y0211784D01*
X0120878Y0211930D01*
X0120833Y0212076D01*
X0120792Y0212224D01*
X0120755Y0212372D01*
X0120721Y0212522D01*
X0120691Y0212673D01*
X0120666Y0212824D01*
X0120644Y0212975D01*
X0120626Y0213128D01*
X0120612Y0213280D01*
X0120602Y0213433D01*
X0120596Y0213587D01*
X0120594Y0213740D01*
X0087594Y0213740D02*
X0087596Y0213893D01*
X0087602Y0214047D01*
X0087612Y0214200D01*
X0087626Y0214352D01*
X0087644Y0214505D01*
X0087666Y0214656D01*
X0087691Y0214807D01*
X0087721Y0214958D01*
X0087755Y0215108D01*
X0087792Y0215256D01*
X0087833Y0215404D01*
X0087878Y0215550D01*
X0087927Y0215696D01*
X0087980Y0215840D01*
X0088036Y0215982D01*
X0088096Y0216123D01*
X0088160Y0216263D01*
X0088227Y0216401D01*
X0088298Y0216537D01*
X0088373Y0216671D01*
X0088450Y0216803D01*
X0088532Y0216933D01*
X0088616Y0217061D01*
X0088704Y0217187D01*
X0088795Y0217310D01*
X0088889Y0217431D01*
X0088987Y0217549D01*
X0089087Y0217665D01*
X0089191Y0217778D01*
X0089297Y0217889D01*
X0089406Y0217997D01*
X0089518Y0218102D01*
X0089632Y0218203D01*
X0089750Y0218302D01*
X0089869Y0218398D01*
X0089991Y0218491D01*
X0090116Y0218580D01*
X0090243Y0218667D01*
X0090372Y0218749D01*
X0090503Y0218829D01*
X0090636Y0218905D01*
X0090771Y0218978D01*
X0090908Y0219047D01*
X0091047Y0219112D01*
X0091187Y0219174D01*
X0091329Y0219232D01*
X0091472Y0219287D01*
X0091617Y0219338D01*
X0091763Y0219385D01*
X0091910Y0219428D01*
X0092058Y0219467D01*
X0092207Y0219503D01*
X0092357Y0219534D01*
X0092508Y0219562D01*
X0092659Y0219586D01*
X0092812Y0219606D01*
X0092964Y0219622D01*
X0093117Y0219634D01*
X0093270Y0219642D01*
X0093423Y0219646D01*
X0093577Y0219646D01*
X0093730Y0219642D01*
X0093883Y0219634D01*
X0094036Y0219622D01*
X0094188Y0219606D01*
X0094341Y0219586D01*
X0094492Y0219562D01*
X0094643Y0219534D01*
X0094793Y0219503D01*
X0094942Y0219467D01*
X0095090Y0219428D01*
X0095237Y0219385D01*
X0095383Y0219338D01*
X0095528Y0219287D01*
X0095671Y0219232D01*
X0095813Y0219174D01*
X0095953Y0219112D01*
X0096092Y0219047D01*
X0096229Y0218978D01*
X0096364Y0218905D01*
X0096497Y0218829D01*
X0096628Y0218749D01*
X0096757Y0218667D01*
X0096884Y0218580D01*
X0097009Y0218491D01*
X0097131Y0218398D01*
X0097250Y0218302D01*
X0097368Y0218203D01*
X0097482Y0218102D01*
X0097594Y0217997D01*
X0097703Y0217889D01*
X0097809Y0217778D01*
X0097913Y0217665D01*
X0098013Y0217549D01*
X0098111Y0217431D01*
X0098205Y0217310D01*
X0098296Y0217187D01*
X0098384Y0217061D01*
X0098468Y0216933D01*
X0098550Y0216803D01*
X0098627Y0216671D01*
X0098702Y0216537D01*
X0098773Y0216401D01*
X0098840Y0216263D01*
X0098904Y0216123D01*
X0098964Y0215982D01*
X0099020Y0215840D01*
X0099073Y0215696D01*
X0099122Y0215550D01*
X0099167Y0215404D01*
X0099208Y0215256D01*
X0099245Y0215108D01*
X0099279Y0214958D01*
X0099309Y0214807D01*
X0099334Y0214656D01*
X0099356Y0214505D01*
X0099374Y0214352D01*
X0099388Y0214200D01*
X0099398Y0214047D01*
X0099404Y0213893D01*
X0099406Y0213740D01*
X0099404Y0213587D01*
X0099398Y0213433D01*
X0099388Y0213280D01*
X0099374Y0213128D01*
X0099356Y0212975D01*
X0099334Y0212824D01*
X0099309Y0212673D01*
X0099279Y0212522D01*
X0099245Y0212372D01*
X0099208Y0212224D01*
X0099167Y0212076D01*
X0099122Y0211930D01*
X0099073Y0211784D01*
X0099020Y0211640D01*
X0098964Y0211498D01*
X0098904Y0211357D01*
X0098840Y0211217D01*
X0098773Y0211079D01*
X0098702Y0210943D01*
X0098627Y0210809D01*
X0098550Y0210677D01*
X0098468Y0210547D01*
X0098384Y0210419D01*
X0098296Y0210293D01*
X0098205Y0210170D01*
X0098111Y0210049D01*
X0098013Y0209931D01*
X0097913Y0209815D01*
X0097809Y0209702D01*
X0097703Y0209591D01*
X0097594Y0209483D01*
X0097482Y0209378D01*
X0097368Y0209277D01*
X0097250Y0209178D01*
X0097131Y0209082D01*
X0097009Y0208989D01*
X0096884Y0208900D01*
X0096757Y0208813D01*
X0096628Y0208731D01*
X0096497Y0208651D01*
X0096364Y0208575D01*
X0096229Y0208502D01*
X0096092Y0208433D01*
X0095953Y0208368D01*
X0095813Y0208306D01*
X0095671Y0208248D01*
X0095528Y0208193D01*
X0095383Y0208142D01*
X0095237Y0208095D01*
X0095090Y0208052D01*
X0094942Y0208013D01*
X0094793Y0207977D01*
X0094643Y0207946D01*
X0094492Y0207918D01*
X0094341Y0207894D01*
X0094188Y0207874D01*
X0094036Y0207858D01*
X0093883Y0207846D01*
X0093730Y0207838D01*
X0093577Y0207834D01*
X0093423Y0207834D01*
X0093270Y0207838D01*
X0093117Y0207846D01*
X0092964Y0207858D01*
X0092812Y0207874D01*
X0092659Y0207894D01*
X0092508Y0207918D01*
X0092357Y0207946D01*
X0092207Y0207977D01*
X0092058Y0208013D01*
X0091910Y0208052D01*
X0091763Y0208095D01*
X0091617Y0208142D01*
X0091472Y0208193D01*
X0091329Y0208248D01*
X0091187Y0208306D01*
X0091047Y0208368D01*
X0090908Y0208433D01*
X0090771Y0208502D01*
X0090636Y0208575D01*
X0090503Y0208651D01*
X0090372Y0208731D01*
X0090243Y0208813D01*
X0090116Y0208900D01*
X0089991Y0208989D01*
X0089869Y0209082D01*
X0089750Y0209178D01*
X0089632Y0209277D01*
X0089518Y0209378D01*
X0089406Y0209483D01*
X0089297Y0209591D01*
X0089191Y0209702D01*
X0089087Y0209815D01*
X0088987Y0209931D01*
X0088889Y0210049D01*
X0088795Y0210170D01*
X0088704Y0210293D01*
X0088616Y0210419D01*
X0088532Y0210547D01*
X0088450Y0210677D01*
X0088373Y0210809D01*
X0088298Y0210943D01*
X0088227Y0211079D01*
X0088160Y0211217D01*
X0088096Y0211357D01*
X0088036Y0211498D01*
X0087980Y0211640D01*
X0087927Y0211784D01*
X0087878Y0211930D01*
X0087833Y0212076D01*
X0087792Y0212224D01*
X0087755Y0212372D01*
X0087721Y0212522D01*
X0087691Y0212673D01*
X0087666Y0212824D01*
X0087644Y0212975D01*
X0087626Y0213128D01*
X0087612Y0213280D01*
X0087602Y0213433D01*
X0087596Y0213587D01*
X0087594Y0213740D01*
X0147594Y0213740D02*
X0147596Y0213893D01*
X0147602Y0214047D01*
X0147612Y0214200D01*
X0147626Y0214352D01*
X0147644Y0214505D01*
X0147666Y0214656D01*
X0147691Y0214807D01*
X0147721Y0214958D01*
X0147755Y0215108D01*
X0147792Y0215256D01*
X0147833Y0215404D01*
X0147878Y0215550D01*
X0147927Y0215696D01*
X0147980Y0215840D01*
X0148036Y0215982D01*
X0148096Y0216123D01*
X0148160Y0216263D01*
X0148227Y0216401D01*
X0148298Y0216537D01*
X0148373Y0216671D01*
X0148450Y0216803D01*
X0148532Y0216933D01*
X0148616Y0217061D01*
X0148704Y0217187D01*
X0148795Y0217310D01*
X0148889Y0217431D01*
X0148987Y0217549D01*
X0149087Y0217665D01*
X0149191Y0217778D01*
X0149297Y0217889D01*
X0149406Y0217997D01*
X0149518Y0218102D01*
X0149632Y0218203D01*
X0149750Y0218302D01*
X0149869Y0218398D01*
X0149991Y0218491D01*
X0150116Y0218580D01*
X0150243Y0218667D01*
X0150372Y0218749D01*
X0150503Y0218829D01*
X0150636Y0218905D01*
X0150771Y0218978D01*
X0150908Y0219047D01*
X0151047Y0219112D01*
X0151187Y0219174D01*
X0151329Y0219232D01*
X0151472Y0219287D01*
X0151617Y0219338D01*
X0151763Y0219385D01*
X0151910Y0219428D01*
X0152058Y0219467D01*
X0152207Y0219503D01*
X0152357Y0219534D01*
X0152508Y0219562D01*
X0152659Y0219586D01*
X0152812Y0219606D01*
X0152964Y0219622D01*
X0153117Y0219634D01*
X0153270Y0219642D01*
X0153423Y0219646D01*
X0153577Y0219646D01*
X0153730Y0219642D01*
X0153883Y0219634D01*
X0154036Y0219622D01*
X0154188Y0219606D01*
X0154341Y0219586D01*
X0154492Y0219562D01*
X0154643Y0219534D01*
X0154793Y0219503D01*
X0154942Y0219467D01*
X0155090Y0219428D01*
X0155237Y0219385D01*
X0155383Y0219338D01*
X0155528Y0219287D01*
X0155671Y0219232D01*
X0155813Y0219174D01*
X0155953Y0219112D01*
X0156092Y0219047D01*
X0156229Y0218978D01*
X0156364Y0218905D01*
X0156497Y0218829D01*
X0156628Y0218749D01*
X0156757Y0218667D01*
X0156884Y0218580D01*
X0157009Y0218491D01*
X0157131Y0218398D01*
X0157250Y0218302D01*
X0157368Y0218203D01*
X0157482Y0218102D01*
X0157594Y0217997D01*
X0157703Y0217889D01*
X0157809Y0217778D01*
X0157913Y0217665D01*
X0158013Y0217549D01*
X0158111Y0217431D01*
X0158205Y0217310D01*
X0158296Y0217187D01*
X0158384Y0217061D01*
X0158468Y0216933D01*
X0158550Y0216803D01*
X0158627Y0216671D01*
X0158702Y0216537D01*
X0158773Y0216401D01*
X0158840Y0216263D01*
X0158904Y0216123D01*
X0158964Y0215982D01*
X0159020Y0215840D01*
X0159073Y0215696D01*
X0159122Y0215550D01*
X0159167Y0215404D01*
X0159208Y0215256D01*
X0159245Y0215108D01*
X0159279Y0214958D01*
X0159309Y0214807D01*
X0159334Y0214656D01*
X0159356Y0214505D01*
X0159374Y0214352D01*
X0159388Y0214200D01*
X0159398Y0214047D01*
X0159404Y0213893D01*
X0159406Y0213740D01*
X0159404Y0213587D01*
X0159398Y0213433D01*
X0159388Y0213280D01*
X0159374Y0213128D01*
X0159356Y0212975D01*
X0159334Y0212824D01*
X0159309Y0212673D01*
X0159279Y0212522D01*
X0159245Y0212372D01*
X0159208Y0212224D01*
X0159167Y0212076D01*
X0159122Y0211930D01*
X0159073Y0211784D01*
X0159020Y0211640D01*
X0158964Y0211498D01*
X0158904Y0211357D01*
X0158840Y0211217D01*
X0158773Y0211079D01*
X0158702Y0210943D01*
X0158627Y0210809D01*
X0158550Y0210677D01*
X0158468Y0210547D01*
X0158384Y0210419D01*
X0158296Y0210293D01*
X0158205Y0210170D01*
X0158111Y0210049D01*
X0158013Y0209931D01*
X0157913Y0209815D01*
X0157809Y0209702D01*
X0157703Y0209591D01*
X0157594Y0209483D01*
X0157482Y0209378D01*
X0157368Y0209277D01*
X0157250Y0209178D01*
X0157131Y0209082D01*
X0157009Y0208989D01*
X0156884Y0208900D01*
X0156757Y0208813D01*
X0156628Y0208731D01*
X0156497Y0208651D01*
X0156364Y0208575D01*
X0156229Y0208502D01*
X0156092Y0208433D01*
X0155953Y0208368D01*
X0155813Y0208306D01*
X0155671Y0208248D01*
X0155528Y0208193D01*
X0155383Y0208142D01*
X0155237Y0208095D01*
X0155090Y0208052D01*
X0154942Y0208013D01*
X0154793Y0207977D01*
X0154643Y0207946D01*
X0154492Y0207918D01*
X0154341Y0207894D01*
X0154188Y0207874D01*
X0154036Y0207858D01*
X0153883Y0207846D01*
X0153730Y0207838D01*
X0153577Y0207834D01*
X0153423Y0207834D01*
X0153270Y0207838D01*
X0153117Y0207846D01*
X0152964Y0207858D01*
X0152812Y0207874D01*
X0152659Y0207894D01*
X0152508Y0207918D01*
X0152357Y0207946D01*
X0152207Y0207977D01*
X0152058Y0208013D01*
X0151910Y0208052D01*
X0151763Y0208095D01*
X0151617Y0208142D01*
X0151472Y0208193D01*
X0151329Y0208248D01*
X0151187Y0208306D01*
X0151047Y0208368D01*
X0150908Y0208433D01*
X0150771Y0208502D01*
X0150636Y0208575D01*
X0150503Y0208651D01*
X0150372Y0208731D01*
X0150243Y0208813D01*
X0150116Y0208900D01*
X0149991Y0208989D01*
X0149869Y0209082D01*
X0149750Y0209178D01*
X0149632Y0209277D01*
X0149518Y0209378D01*
X0149406Y0209483D01*
X0149297Y0209591D01*
X0149191Y0209702D01*
X0149087Y0209815D01*
X0148987Y0209931D01*
X0148889Y0210049D01*
X0148795Y0210170D01*
X0148704Y0210293D01*
X0148616Y0210419D01*
X0148532Y0210547D01*
X0148450Y0210677D01*
X0148373Y0210809D01*
X0148298Y0210943D01*
X0148227Y0211079D01*
X0148160Y0211217D01*
X0148096Y0211357D01*
X0148036Y0211498D01*
X0147980Y0211640D01*
X0147927Y0211784D01*
X0147878Y0211930D01*
X0147833Y0212076D01*
X0147792Y0212224D01*
X0147755Y0212372D01*
X0147721Y0212522D01*
X0147691Y0212673D01*
X0147666Y0212824D01*
X0147644Y0212975D01*
X0147626Y0213128D01*
X0147612Y0213280D01*
X0147602Y0213433D01*
X0147596Y0213587D01*
X0147594Y0213740D01*
X0180594Y0213740D02*
X0180596Y0213893D01*
X0180602Y0214047D01*
X0180612Y0214200D01*
X0180626Y0214352D01*
X0180644Y0214505D01*
X0180666Y0214656D01*
X0180691Y0214807D01*
X0180721Y0214958D01*
X0180755Y0215108D01*
X0180792Y0215256D01*
X0180833Y0215404D01*
X0180878Y0215550D01*
X0180927Y0215696D01*
X0180980Y0215840D01*
X0181036Y0215982D01*
X0181096Y0216123D01*
X0181160Y0216263D01*
X0181227Y0216401D01*
X0181298Y0216537D01*
X0181373Y0216671D01*
X0181450Y0216803D01*
X0181532Y0216933D01*
X0181616Y0217061D01*
X0181704Y0217187D01*
X0181795Y0217310D01*
X0181889Y0217431D01*
X0181987Y0217549D01*
X0182087Y0217665D01*
X0182191Y0217778D01*
X0182297Y0217889D01*
X0182406Y0217997D01*
X0182518Y0218102D01*
X0182632Y0218203D01*
X0182750Y0218302D01*
X0182869Y0218398D01*
X0182991Y0218491D01*
X0183116Y0218580D01*
X0183243Y0218667D01*
X0183372Y0218749D01*
X0183503Y0218829D01*
X0183636Y0218905D01*
X0183771Y0218978D01*
X0183908Y0219047D01*
X0184047Y0219112D01*
X0184187Y0219174D01*
X0184329Y0219232D01*
X0184472Y0219287D01*
X0184617Y0219338D01*
X0184763Y0219385D01*
X0184910Y0219428D01*
X0185058Y0219467D01*
X0185207Y0219503D01*
X0185357Y0219534D01*
X0185508Y0219562D01*
X0185659Y0219586D01*
X0185812Y0219606D01*
X0185964Y0219622D01*
X0186117Y0219634D01*
X0186270Y0219642D01*
X0186423Y0219646D01*
X0186577Y0219646D01*
X0186730Y0219642D01*
X0186883Y0219634D01*
X0187036Y0219622D01*
X0187188Y0219606D01*
X0187341Y0219586D01*
X0187492Y0219562D01*
X0187643Y0219534D01*
X0187793Y0219503D01*
X0187942Y0219467D01*
X0188090Y0219428D01*
X0188237Y0219385D01*
X0188383Y0219338D01*
X0188528Y0219287D01*
X0188671Y0219232D01*
X0188813Y0219174D01*
X0188953Y0219112D01*
X0189092Y0219047D01*
X0189229Y0218978D01*
X0189364Y0218905D01*
X0189497Y0218829D01*
X0189628Y0218749D01*
X0189757Y0218667D01*
X0189884Y0218580D01*
X0190009Y0218491D01*
X0190131Y0218398D01*
X0190250Y0218302D01*
X0190368Y0218203D01*
X0190482Y0218102D01*
X0190594Y0217997D01*
X0190703Y0217889D01*
X0190809Y0217778D01*
X0190913Y0217665D01*
X0191013Y0217549D01*
X0191111Y0217431D01*
X0191205Y0217310D01*
X0191296Y0217187D01*
X0191384Y0217061D01*
X0191468Y0216933D01*
X0191550Y0216803D01*
X0191627Y0216671D01*
X0191702Y0216537D01*
X0191773Y0216401D01*
X0191840Y0216263D01*
X0191904Y0216123D01*
X0191964Y0215982D01*
X0192020Y0215840D01*
X0192073Y0215696D01*
X0192122Y0215550D01*
X0192167Y0215404D01*
X0192208Y0215256D01*
X0192245Y0215108D01*
X0192279Y0214958D01*
X0192309Y0214807D01*
X0192334Y0214656D01*
X0192356Y0214505D01*
X0192374Y0214352D01*
X0192388Y0214200D01*
X0192398Y0214047D01*
X0192404Y0213893D01*
X0192406Y0213740D01*
X0192404Y0213587D01*
X0192398Y0213433D01*
X0192388Y0213280D01*
X0192374Y0213128D01*
X0192356Y0212975D01*
X0192334Y0212824D01*
X0192309Y0212673D01*
X0192279Y0212522D01*
X0192245Y0212372D01*
X0192208Y0212224D01*
X0192167Y0212076D01*
X0192122Y0211930D01*
X0192073Y0211784D01*
X0192020Y0211640D01*
X0191964Y0211498D01*
X0191904Y0211357D01*
X0191840Y0211217D01*
X0191773Y0211079D01*
X0191702Y0210943D01*
X0191627Y0210809D01*
X0191550Y0210677D01*
X0191468Y0210547D01*
X0191384Y0210419D01*
X0191296Y0210293D01*
X0191205Y0210170D01*
X0191111Y0210049D01*
X0191013Y0209931D01*
X0190913Y0209815D01*
X0190809Y0209702D01*
X0190703Y0209591D01*
X0190594Y0209483D01*
X0190482Y0209378D01*
X0190368Y0209277D01*
X0190250Y0209178D01*
X0190131Y0209082D01*
X0190009Y0208989D01*
X0189884Y0208900D01*
X0189757Y0208813D01*
X0189628Y0208731D01*
X0189497Y0208651D01*
X0189364Y0208575D01*
X0189229Y0208502D01*
X0189092Y0208433D01*
X0188953Y0208368D01*
X0188813Y0208306D01*
X0188671Y0208248D01*
X0188528Y0208193D01*
X0188383Y0208142D01*
X0188237Y0208095D01*
X0188090Y0208052D01*
X0187942Y0208013D01*
X0187793Y0207977D01*
X0187643Y0207946D01*
X0187492Y0207918D01*
X0187341Y0207894D01*
X0187188Y0207874D01*
X0187036Y0207858D01*
X0186883Y0207846D01*
X0186730Y0207838D01*
X0186577Y0207834D01*
X0186423Y0207834D01*
X0186270Y0207838D01*
X0186117Y0207846D01*
X0185964Y0207858D01*
X0185812Y0207874D01*
X0185659Y0207894D01*
X0185508Y0207918D01*
X0185357Y0207946D01*
X0185207Y0207977D01*
X0185058Y0208013D01*
X0184910Y0208052D01*
X0184763Y0208095D01*
X0184617Y0208142D01*
X0184472Y0208193D01*
X0184329Y0208248D01*
X0184187Y0208306D01*
X0184047Y0208368D01*
X0183908Y0208433D01*
X0183771Y0208502D01*
X0183636Y0208575D01*
X0183503Y0208651D01*
X0183372Y0208731D01*
X0183243Y0208813D01*
X0183116Y0208900D01*
X0182991Y0208989D01*
X0182869Y0209082D01*
X0182750Y0209178D01*
X0182632Y0209277D01*
X0182518Y0209378D01*
X0182406Y0209483D01*
X0182297Y0209591D01*
X0182191Y0209702D01*
X0182087Y0209815D01*
X0181987Y0209931D01*
X0181889Y0210049D01*
X0181795Y0210170D01*
X0181704Y0210293D01*
X0181616Y0210419D01*
X0181532Y0210547D01*
X0181450Y0210677D01*
X0181373Y0210809D01*
X0181298Y0210943D01*
X0181227Y0211079D01*
X0181160Y0211217D01*
X0181096Y0211357D01*
X0181036Y0211498D01*
X0180980Y0211640D01*
X0180927Y0211784D01*
X0180878Y0211930D01*
X0180833Y0212076D01*
X0180792Y0212224D01*
X0180755Y0212372D01*
X0180721Y0212522D01*
X0180691Y0212673D01*
X0180666Y0212824D01*
X0180644Y0212975D01*
X0180626Y0213128D01*
X0180612Y0213280D01*
X0180602Y0213433D01*
X0180596Y0213587D01*
X0180594Y0213740D01*
X0109562Y0029675D02*
X0109564Y0029828D01*
X0109570Y0029982D01*
X0109580Y0030135D01*
X0109594Y0030287D01*
X0109612Y0030440D01*
X0109634Y0030591D01*
X0109659Y0030742D01*
X0109689Y0030893D01*
X0109723Y0031043D01*
X0109760Y0031191D01*
X0109801Y0031339D01*
X0109846Y0031485D01*
X0109895Y0031631D01*
X0109948Y0031775D01*
X0110004Y0031917D01*
X0110064Y0032058D01*
X0110128Y0032198D01*
X0110195Y0032336D01*
X0110266Y0032472D01*
X0110341Y0032606D01*
X0110418Y0032738D01*
X0110500Y0032868D01*
X0110584Y0032996D01*
X0110672Y0033122D01*
X0110763Y0033245D01*
X0110857Y0033366D01*
X0110955Y0033484D01*
X0111055Y0033600D01*
X0111159Y0033713D01*
X0111265Y0033824D01*
X0111374Y0033932D01*
X0111486Y0034037D01*
X0111600Y0034138D01*
X0111718Y0034237D01*
X0111837Y0034333D01*
X0111959Y0034426D01*
X0112084Y0034515D01*
X0112211Y0034602D01*
X0112340Y0034684D01*
X0112471Y0034764D01*
X0112604Y0034840D01*
X0112739Y0034913D01*
X0112876Y0034982D01*
X0113015Y0035047D01*
X0113155Y0035109D01*
X0113297Y0035167D01*
X0113440Y0035222D01*
X0113585Y0035273D01*
X0113731Y0035320D01*
X0113878Y0035363D01*
X0114026Y0035402D01*
X0114175Y0035438D01*
X0114325Y0035469D01*
X0114476Y0035497D01*
X0114627Y0035521D01*
X0114780Y0035541D01*
X0114932Y0035557D01*
X0115085Y0035569D01*
X0115238Y0035577D01*
X0115391Y0035581D01*
X0115545Y0035581D01*
X0115698Y0035577D01*
X0115851Y0035569D01*
X0116004Y0035557D01*
X0116156Y0035541D01*
X0116309Y0035521D01*
X0116460Y0035497D01*
X0116611Y0035469D01*
X0116761Y0035438D01*
X0116910Y0035402D01*
X0117058Y0035363D01*
X0117205Y0035320D01*
X0117351Y0035273D01*
X0117496Y0035222D01*
X0117639Y0035167D01*
X0117781Y0035109D01*
X0117921Y0035047D01*
X0118060Y0034982D01*
X0118197Y0034913D01*
X0118332Y0034840D01*
X0118465Y0034764D01*
X0118596Y0034684D01*
X0118725Y0034602D01*
X0118852Y0034515D01*
X0118977Y0034426D01*
X0119099Y0034333D01*
X0119218Y0034237D01*
X0119336Y0034138D01*
X0119450Y0034037D01*
X0119562Y0033932D01*
X0119671Y0033824D01*
X0119777Y0033713D01*
X0119881Y0033600D01*
X0119981Y0033484D01*
X0120079Y0033366D01*
X0120173Y0033245D01*
X0120264Y0033122D01*
X0120352Y0032996D01*
X0120436Y0032868D01*
X0120518Y0032738D01*
X0120595Y0032606D01*
X0120670Y0032472D01*
X0120741Y0032336D01*
X0120808Y0032198D01*
X0120872Y0032058D01*
X0120932Y0031917D01*
X0120988Y0031775D01*
X0121041Y0031631D01*
X0121090Y0031485D01*
X0121135Y0031339D01*
X0121176Y0031191D01*
X0121213Y0031043D01*
X0121247Y0030893D01*
X0121277Y0030742D01*
X0121302Y0030591D01*
X0121324Y0030440D01*
X0121342Y0030287D01*
X0121356Y0030135D01*
X0121366Y0029982D01*
X0121372Y0029828D01*
X0121374Y0029675D01*
X0121372Y0029522D01*
X0121366Y0029368D01*
X0121356Y0029215D01*
X0121342Y0029063D01*
X0121324Y0028910D01*
X0121302Y0028759D01*
X0121277Y0028608D01*
X0121247Y0028457D01*
X0121213Y0028307D01*
X0121176Y0028159D01*
X0121135Y0028011D01*
X0121090Y0027865D01*
X0121041Y0027719D01*
X0120988Y0027575D01*
X0120932Y0027433D01*
X0120872Y0027292D01*
X0120808Y0027152D01*
X0120741Y0027014D01*
X0120670Y0026878D01*
X0120595Y0026744D01*
X0120518Y0026612D01*
X0120436Y0026482D01*
X0120352Y0026354D01*
X0120264Y0026228D01*
X0120173Y0026105D01*
X0120079Y0025984D01*
X0119981Y0025866D01*
X0119881Y0025750D01*
X0119777Y0025637D01*
X0119671Y0025526D01*
X0119562Y0025418D01*
X0119450Y0025313D01*
X0119336Y0025212D01*
X0119218Y0025113D01*
X0119099Y0025017D01*
X0118977Y0024924D01*
X0118852Y0024835D01*
X0118725Y0024748D01*
X0118596Y0024666D01*
X0118465Y0024586D01*
X0118332Y0024510D01*
X0118197Y0024437D01*
X0118060Y0024368D01*
X0117921Y0024303D01*
X0117781Y0024241D01*
X0117639Y0024183D01*
X0117496Y0024128D01*
X0117351Y0024077D01*
X0117205Y0024030D01*
X0117058Y0023987D01*
X0116910Y0023948D01*
X0116761Y0023912D01*
X0116611Y0023881D01*
X0116460Y0023853D01*
X0116309Y0023829D01*
X0116156Y0023809D01*
X0116004Y0023793D01*
X0115851Y0023781D01*
X0115698Y0023773D01*
X0115545Y0023769D01*
X0115391Y0023769D01*
X0115238Y0023773D01*
X0115085Y0023781D01*
X0114932Y0023793D01*
X0114780Y0023809D01*
X0114627Y0023829D01*
X0114476Y0023853D01*
X0114325Y0023881D01*
X0114175Y0023912D01*
X0114026Y0023948D01*
X0113878Y0023987D01*
X0113731Y0024030D01*
X0113585Y0024077D01*
X0113440Y0024128D01*
X0113297Y0024183D01*
X0113155Y0024241D01*
X0113015Y0024303D01*
X0112876Y0024368D01*
X0112739Y0024437D01*
X0112604Y0024510D01*
X0112471Y0024586D01*
X0112340Y0024666D01*
X0112211Y0024748D01*
X0112084Y0024835D01*
X0111959Y0024924D01*
X0111837Y0025017D01*
X0111718Y0025113D01*
X0111600Y0025212D01*
X0111486Y0025313D01*
X0111374Y0025418D01*
X0111265Y0025526D01*
X0111159Y0025637D01*
X0111055Y0025750D01*
X0110955Y0025866D01*
X0110857Y0025984D01*
X0110763Y0026105D01*
X0110672Y0026228D01*
X0110584Y0026354D01*
X0110500Y0026482D01*
X0110418Y0026612D01*
X0110341Y0026744D01*
X0110266Y0026878D01*
X0110195Y0027014D01*
X0110128Y0027152D01*
X0110064Y0027292D01*
X0110004Y0027433D01*
X0109948Y0027575D01*
X0109895Y0027719D01*
X0109846Y0027865D01*
X0109801Y0028011D01*
X0109760Y0028159D01*
X0109723Y0028307D01*
X0109689Y0028457D01*
X0109659Y0028608D01*
X0109634Y0028759D01*
X0109612Y0028910D01*
X0109594Y0029063D01*
X0109580Y0029215D01*
X0109570Y0029368D01*
X0109564Y0029522D01*
X0109562Y0029675D01*
D11*
X0217500Y0005000D02*
X0217500Y0230000D01*
D12*
X0208125Y0230000D01*
X0198125Y0240000D01*
X0064375Y0240000D01*
X0054375Y0230000D01*
X0010000Y0230000D01*
X0005000Y0225000D01*
X0005000Y0015000D01*
X0015000Y0005000D01*
X0216875Y0005000D01*
D13*
X0205000Y0080000D03*
X0205000Y0090000D03*
X0205000Y0100000D03*
X0205000Y0110000D03*
X0205000Y0120000D03*
X0205000Y0130000D03*
X0205000Y0140000D03*
X0205000Y0150000D03*
X0205000Y0170000D03*
X0205000Y0180000D03*
X0205000Y0190000D03*
X0205000Y0200000D03*
X0205000Y0210000D03*
X0205000Y0220000D03*
X0184500Y0130000D03*
X0185500Y0120000D03*
X0184500Y0110000D03*
X0122500Y0018750D03*
X0112500Y0018750D03*
X0088125Y0018750D03*
X0078125Y0018750D03*
X0015000Y0020000D03*
X0015000Y0030000D03*
X0015000Y0045000D03*
X0015000Y0055000D03*
X0015000Y0065000D03*
X0015000Y0075000D03*
X0015000Y0085000D03*
X0015000Y0095000D03*
X0015000Y0105000D03*
X0015000Y0115000D03*
X0015000Y0125000D03*
X0015000Y0135000D03*
X0015000Y0150000D03*
X0015000Y0160000D03*
X0015000Y0170000D03*
X0015000Y0180000D03*
X0015000Y0190000D03*
X0015000Y0200000D03*
X0015000Y0210000D03*
X0015000Y0220000D03*
X0025000Y0220000D03*
X0025000Y0210000D03*
D14*
X0033750Y0021250D03*
X0033750Y0010625D03*
X0063750Y0010625D03*
X0063750Y0021250D03*
D15*
X0068650Y0038750D02*
X0073850Y0038750D01*
X0073850Y0048750D02*
X0068650Y0048750D01*
X0068650Y0058750D02*
X0073850Y0058750D01*
X0073850Y0068750D02*
X0068650Y0068750D01*
X0068650Y0078750D02*
X0073850Y0078750D01*
X0073850Y0088750D02*
X0068650Y0088750D01*
X0068650Y0098750D02*
X0073850Y0098750D01*
X0073850Y0108750D02*
X0068650Y0108750D01*
X0068650Y0118750D02*
X0073850Y0118750D01*
X0073850Y0140000D02*
X0068650Y0140000D01*
X0068650Y0150000D02*
X0073850Y0150000D01*
X0073850Y0160000D02*
X0068650Y0160000D01*
X0068650Y0170000D02*
X0073850Y0170000D01*
X0073850Y0180000D02*
X0068650Y0180000D01*
X0068650Y0190000D02*
X0073850Y0190000D01*
X0073850Y0200000D02*
X0068650Y0200000D01*
X0068650Y0210000D02*
X0073850Y0210000D01*
X0073850Y0220000D02*
X0068650Y0220000D01*
X0043850Y0220000D02*
X0038650Y0220000D01*
X0038650Y0210000D02*
X0043850Y0210000D01*
X0043850Y0200000D02*
X0038650Y0200000D01*
X0038650Y0190000D02*
X0043850Y0190000D01*
X0043850Y0180000D02*
X0038650Y0180000D01*
X0038650Y0170000D02*
X0043850Y0170000D01*
X0043850Y0160000D02*
X0038650Y0160000D01*
X0038650Y0150000D02*
X0043850Y0150000D01*
X0043850Y0140000D02*
X0038650Y0140000D01*
X0038650Y0118750D02*
X0043850Y0118750D01*
X0043850Y0108750D02*
X0038650Y0108750D01*
X0038650Y0098750D02*
X0043850Y0098750D01*
X0043850Y0088750D02*
X0038650Y0088750D01*
X0038650Y0078750D02*
X0043850Y0078750D01*
X0043850Y0068750D02*
X0038650Y0068750D01*
X0038650Y0058750D02*
X0043850Y0058750D01*
X0043850Y0048750D02*
X0038650Y0048750D01*
X0038650Y0038750D02*
X0043850Y0038750D01*
D16*
X0095625Y0064715D03*
X0095625Y0081250D03*
X0117279Y0081250D03*
X0117279Y0064715D03*
X0117279Y0048179D03*
X0141662Y0051638D03*
X0141425Y0016250D03*
X0142096Y0103125D03*
X0142096Y0119660D03*
X0142096Y0136196D03*
X0163750Y0119660D03*
X0163750Y0103125D03*
X0170000Y0163300D03*
X0153500Y0163300D03*
X0170000Y0185000D03*
X0186500Y0185000D03*
X0186500Y0163300D03*
X0126500Y0163300D03*
X0110000Y0163300D03*
X0093500Y0163300D03*
X0110000Y0185000D03*
X0126500Y0185000D03*
D17*
X0153500Y0185000D03*
X0163750Y0136196D03*
X0093500Y0185000D03*
X0163362Y0051638D03*
X0163125Y0016250D03*
X0095625Y0048179D03*
D18*
X0053802Y0098802D02*
X0043750Y0088750D01*
X0041250Y0088750D01*
X0029026Y0079696D02*
X0028689Y0080123D01*
X0028362Y0080558D01*
X0028046Y0081002D01*
X0027741Y0081453D01*
X0027447Y0081911D01*
X0027165Y0082376D01*
X0026894Y0082848D01*
X0026634Y0083327D01*
X0026387Y0083812D01*
X0026151Y0084303D01*
X0025928Y0084799D01*
X0025716Y0085301D01*
X0025518Y0085808D01*
X0025331Y0086319D01*
X0025157Y0086835D01*
X0024996Y0087355D01*
X0024997Y0087355D02*
X0022592Y0095472D01*
X0028299Y0098312D02*
X0029966Y0091852D01*
X0034737Y0083098D02*
X0038750Y0078750D01*
X0041250Y0078750D01*
X0036875Y0070000D02*
X0041250Y0068750D01*
X0036875Y0070000D02*
X0029026Y0079696D01*
X0024158Y0074615D02*
X0032160Y0057112D01*
X0034767Y0053358D02*
X0038750Y0049375D01*
X0041250Y0048750D01*
X0034767Y0053358D02*
X0034553Y0053577D01*
X0034344Y0053801D01*
X0034141Y0054030D01*
X0033943Y0054264D01*
X0033751Y0054503D01*
X0033564Y0054746D01*
X0033384Y0054993D01*
X0033209Y0055245D01*
X0033040Y0055500D01*
X0032877Y0055760D01*
X0032721Y0056023D01*
X0032571Y0056290D01*
X0032427Y0056561D01*
X0032290Y0056835D01*
X0032159Y0057112D01*
X0021663Y0078885D02*
X0018125Y0083750D01*
X0015000Y0085000D01*
X0022592Y0095472D02*
X0022484Y0095822D01*
X0022367Y0096169D01*
X0022242Y0096513D01*
X0022108Y0096854D01*
X0021967Y0097191D01*
X0021817Y0097525D01*
X0021659Y0097855D01*
X0021493Y0098182D01*
X0021319Y0098504D01*
X0021137Y0098822D01*
X0020948Y0099135D01*
X0020751Y0099444D01*
X0020547Y0099747D01*
X0020335Y0100046D01*
X0020117Y0100339D01*
X0019891Y0100627D01*
X0019658Y0100910D01*
X0019418Y0101187D01*
X0019172Y0101458D01*
X0018919Y0101722D01*
X0018660Y0101981D01*
X0018395Y0102233D01*
X0018123Y0102479D01*
X0017846Y0102718D01*
X0017563Y0102950D01*
X0015000Y0105000D01*
X0019779Y0111283D02*
X0015000Y0115000D01*
X0015000Y0125000D02*
X0040000Y0150000D01*
X0041250Y0150000D01*
X0041250Y0160000D02*
X0040000Y0160000D01*
X0015000Y0135000D01*
X0015000Y0150000D02*
X0041250Y0170000D01*
X0041250Y0180000D02*
X0015000Y0160000D01*
X0015000Y0170000D02*
X0041250Y0190000D01*
X0041250Y0200000D02*
X0015000Y0180000D01*
X0015000Y0190000D02*
X0041250Y0210000D01*
X0058125Y0222500D02*
X0058125Y0123207D01*
X0063125Y0121310D02*
X0063125Y0221250D01*
X0058125Y0222500D02*
X0058127Y0222681D01*
X0058134Y0222862D01*
X0058145Y0223043D01*
X0058160Y0223224D01*
X0058180Y0223404D01*
X0058204Y0223584D01*
X0058232Y0223763D01*
X0058265Y0223941D01*
X0058302Y0224118D01*
X0058343Y0224295D01*
X0058388Y0224470D01*
X0058438Y0224645D01*
X0058492Y0224818D01*
X0058550Y0224989D01*
X0058612Y0225160D01*
X0058679Y0225328D01*
X0058749Y0225495D01*
X0058823Y0225661D01*
X0058902Y0225824D01*
X0058984Y0225985D01*
X0059070Y0226145D01*
X0059160Y0226302D01*
X0059254Y0226457D01*
X0059351Y0226610D01*
X0059453Y0226760D01*
X0059557Y0226908D01*
X0059666Y0227054D01*
X0059777Y0227196D01*
X0059893Y0227336D01*
X0060011Y0227473D01*
X0060133Y0227608D01*
X0060258Y0227739D01*
X0060386Y0227867D01*
X0060517Y0227992D01*
X0060652Y0228114D01*
X0060789Y0228232D01*
X0060929Y0228348D01*
X0061071Y0228459D01*
X0061217Y0228568D01*
X0061365Y0228672D01*
X0061515Y0228774D01*
X0061668Y0228871D01*
X0061823Y0228965D01*
X0061980Y0229055D01*
X0062140Y0229141D01*
X0062301Y0229223D01*
X0062464Y0229302D01*
X0062630Y0229376D01*
X0062797Y0229446D01*
X0062965Y0229513D01*
X0063136Y0229575D01*
X0063307Y0229633D01*
X0063480Y0229687D01*
X0063655Y0229737D01*
X0063830Y0229782D01*
X0064007Y0229823D01*
X0064184Y0229860D01*
X0064362Y0229893D01*
X0064541Y0229921D01*
X0064721Y0229945D01*
X0064901Y0229965D01*
X0065082Y0229980D01*
X0065263Y0229991D01*
X0065444Y0229998D01*
X0065625Y0230000D01*
X0092992Y0230000D01*
X0088644Y0225625D02*
X0067500Y0225625D01*
X0067370Y0225623D01*
X0067241Y0225617D01*
X0067112Y0225608D01*
X0066983Y0225594D01*
X0066854Y0225577D01*
X0066726Y0225556D01*
X0066599Y0225531D01*
X0066472Y0225503D01*
X0066347Y0225470D01*
X0066222Y0225434D01*
X0066099Y0225395D01*
X0065977Y0225351D01*
X0065856Y0225304D01*
X0065736Y0225254D01*
X0065618Y0225200D01*
X0065502Y0225142D01*
X0065388Y0225081D01*
X0065275Y0225017D01*
X0065165Y0224949D01*
X0065056Y0224879D01*
X0064949Y0224805D01*
X0064845Y0224727D01*
X0064743Y0224647D01*
X0064644Y0224564D01*
X0064547Y0224478D01*
X0064453Y0224389D01*
X0064361Y0224297D01*
X0064272Y0224203D01*
X0064186Y0224106D01*
X0064103Y0224007D01*
X0064023Y0223905D01*
X0063945Y0223801D01*
X0063871Y0223694D01*
X0063801Y0223585D01*
X0063733Y0223475D01*
X0063669Y0223362D01*
X0063608Y0223248D01*
X0063550Y0223132D01*
X0063496Y0223014D01*
X0063446Y0222894D01*
X0063399Y0222773D01*
X0063355Y0222651D01*
X0063316Y0222528D01*
X0063280Y0222403D01*
X0063247Y0222278D01*
X0063219Y0222151D01*
X0063194Y0222024D01*
X0063173Y0221896D01*
X0063156Y0221767D01*
X0063142Y0221638D01*
X0063133Y0221509D01*
X0063127Y0221380D01*
X0063125Y0221250D01*
X0088644Y0225625D02*
X0088947Y0225621D01*
X0089249Y0225610D01*
X0089551Y0225592D01*
X0089852Y0225566D01*
X0090153Y0225532D01*
X0090453Y0225492D01*
X0090751Y0225444D01*
X0091049Y0225388D01*
X0091345Y0225325D01*
X0091639Y0225256D01*
X0091932Y0225178D01*
X0092222Y0225094D01*
X0092511Y0225003D01*
X0092797Y0224904D01*
X0093080Y0224799D01*
X0093361Y0224687D01*
X0093639Y0224567D01*
X0093914Y0224441D01*
X0094186Y0224309D01*
X0094455Y0224169D01*
X0094720Y0224024D01*
X0094981Y0223871D01*
X0095239Y0223713D01*
X0095493Y0223548D01*
X0095742Y0223376D01*
X0095987Y0223199D01*
X0096228Y0223016D01*
X0096464Y0222827D01*
X0096696Y0222632D01*
X0096922Y0222432D01*
X0097144Y0222226D01*
X0097361Y0222015D01*
X0097360Y0222015D02*
X0112661Y0206714D01*
X0118858Y0208553D02*
X0099654Y0227289D01*
X0099487Y0227447D01*
X0099316Y0227602D01*
X0099142Y0227753D01*
X0098964Y0227899D01*
X0098783Y0228042D01*
X0098598Y0228179D01*
X0098410Y0228312D01*
X0098218Y0228441D01*
X0098024Y0228565D01*
X0097827Y0228684D01*
X0097627Y0228798D01*
X0097424Y0228908D01*
X0097219Y0229013D01*
X0097011Y0229112D01*
X0096801Y0229207D01*
X0096588Y0229296D01*
X0096374Y0229380D01*
X0096157Y0229460D01*
X0095939Y0229533D01*
X0095719Y0229602D01*
X0095497Y0229665D01*
X0095274Y0229723D01*
X0095050Y0229775D01*
X0094824Y0229822D01*
X0094598Y0229864D01*
X0094370Y0229900D01*
X0094142Y0229930D01*
X0093912Y0229955D01*
X0093683Y0229975D01*
X0093453Y0229989D01*
X0093222Y0229997D01*
X0092992Y0230000D01*
X0112661Y0206713D02*
X0113064Y0206321D01*
X0113476Y0205938D01*
X0113898Y0205565D01*
X0114328Y0205203D01*
X0114767Y0204851D01*
X0115215Y0204511D01*
X0115671Y0204181D01*
X0116135Y0203863D01*
X0116606Y0203556D01*
X0117085Y0203261D01*
X0117571Y0202978D01*
X0118064Y0202706D01*
X0118563Y0202447D01*
X0119069Y0202201D01*
X0119580Y0201966D01*
X0120098Y0201745D01*
X0120620Y0201536D01*
X0121147Y0201340D01*
X0121679Y0201157D01*
X0122215Y0200987D01*
X0122756Y0200830D01*
X0123300Y0200687D01*
X0123847Y0200557D01*
X0124397Y0200440D01*
X0124950Y0200337D01*
X0125506Y0200248D01*
X0126063Y0200172D01*
X0126622Y0200110D01*
X0127183Y0200062D01*
X0127744Y0200028D01*
X0128306Y0200007D01*
X0128869Y0200000D01*
X0175000Y0200000D01*
X0170407Y0211526D02*
X0174839Y0216874D01*
X0170407Y0211526D02*
X0170122Y0211190D01*
X0169829Y0210862D01*
X0169528Y0210541D01*
X0169219Y0210227D01*
X0168903Y0209921D01*
X0168579Y0209623D01*
X0168249Y0209333D01*
X0167911Y0209050D01*
X0167566Y0208777D01*
X0167215Y0208511D01*
X0166858Y0208255D01*
X0166494Y0208007D01*
X0166124Y0207768D01*
X0165749Y0207538D01*
X0165368Y0207318D01*
X0164982Y0207107D01*
X0164591Y0206905D01*
X0164195Y0206713D01*
X0163794Y0206530D01*
X0163389Y0206358D01*
X0162980Y0206195D01*
X0162567Y0206043D01*
X0162151Y0205900D01*
X0161731Y0205768D01*
X0161308Y0205646D01*
X0160883Y0205535D01*
X0160454Y0205433D01*
X0160024Y0205343D01*
X0159591Y0205263D01*
X0159156Y0205193D01*
X0158720Y0205134D01*
X0158283Y0205086D01*
X0157844Y0205048D01*
X0157405Y0205021D01*
X0156965Y0205005D01*
X0156525Y0205000D01*
X0127587Y0205000D01*
X0127285Y0205004D01*
X0126983Y0205015D01*
X0126682Y0205033D01*
X0126381Y0205058D01*
X0126081Y0205091D01*
X0125781Y0205131D01*
X0125483Y0205178D01*
X0125186Y0205233D01*
X0124891Y0205294D01*
X0124597Y0205363D01*
X0124304Y0205439D01*
X0124014Y0205522D01*
X0123726Y0205611D01*
X0123439Y0205708D01*
X0123156Y0205812D01*
X0122875Y0205922D01*
X0122597Y0206039D01*
X0122321Y0206163D01*
X0122049Y0206294D01*
X0121780Y0206431D01*
X0121514Y0206574D01*
X0121252Y0206724D01*
X0120993Y0206880D01*
X0120739Y0207043D01*
X0120488Y0207211D01*
X0120242Y0207386D01*
X0120000Y0207566D01*
X0119762Y0207752D01*
X0119529Y0207944D01*
X0119300Y0208142D01*
X0119077Y0208344D01*
X0118858Y0208553D01*
X0174839Y0216874D02*
X0175275Y0217388D01*
X0175725Y0217891D01*
X0176186Y0218384D01*
X0176659Y0218864D01*
X0177143Y0219333D01*
X0177639Y0219790D01*
X0178146Y0220235D01*
X0178664Y0220668D01*
X0179192Y0221087D01*
X0179730Y0221494D01*
X0180278Y0221887D01*
X0180836Y0222267D01*
X0181402Y0222633D01*
X0181977Y0222985D01*
X0182561Y0223323D01*
X0183153Y0223647D01*
X0183752Y0223956D01*
X0184359Y0224250D01*
X0184973Y0224530D01*
X0185594Y0224794D01*
X0186220Y0225043D01*
X0186853Y0225277D01*
X0187491Y0225495D01*
X0188134Y0225698D01*
X0188782Y0225885D01*
X0189435Y0226056D01*
X0190091Y0226211D01*
X0190751Y0226350D01*
X0191415Y0226473D01*
X0192081Y0226579D01*
X0192749Y0226669D01*
X0193419Y0226743D01*
X0194091Y0226801D01*
X0194765Y0226842D01*
X0195439Y0226867D01*
X0196113Y0226875D01*
X0205185Y0226875D01*
X0205362Y0226873D01*
X0205538Y0226866D01*
X0205715Y0226856D01*
X0205891Y0226841D01*
X0206067Y0226822D01*
X0206242Y0226798D01*
X0206417Y0226771D01*
X0206590Y0226739D01*
X0206763Y0226703D01*
X0206936Y0226662D01*
X0207107Y0226618D01*
X0207277Y0226570D01*
X0207445Y0226517D01*
X0207613Y0226460D01*
X0207779Y0226400D01*
X0207943Y0226335D01*
X0208106Y0226266D01*
X0208268Y0226194D01*
X0208427Y0226117D01*
X0208584Y0226037D01*
X0208740Y0225953D01*
X0208893Y0225865D01*
X0209045Y0225774D01*
X0209194Y0225679D01*
X0209340Y0225580D01*
X0209485Y0225478D01*
X0209626Y0225372D01*
X0209766Y0225263D01*
X0209902Y0225151D01*
X0210036Y0225035D01*
X0210167Y0224917D01*
X0210295Y0224795D01*
X0210420Y0224670D01*
X0210542Y0224542D01*
X0210660Y0224411D01*
X0210776Y0224277D01*
X0210888Y0224141D01*
X0210997Y0224001D01*
X0211103Y0223860D01*
X0211205Y0223715D01*
X0211304Y0223569D01*
X0211399Y0223420D01*
X0211490Y0223268D01*
X0211578Y0223115D01*
X0211662Y0222959D01*
X0211742Y0222802D01*
X0211819Y0222643D01*
X0211891Y0222481D01*
X0211960Y0222318D01*
X0212025Y0222154D01*
X0212085Y0221988D01*
X0212142Y0221820D01*
X0212195Y0221652D01*
X0212243Y0221482D01*
X0212287Y0221311D01*
X0212328Y0221138D01*
X0212364Y0220965D01*
X0212396Y0220792D01*
X0212423Y0220617D01*
X0212447Y0220442D01*
X0212466Y0220266D01*
X0212481Y0220090D01*
X0212491Y0219913D01*
X0212498Y0219737D01*
X0212500Y0219560D01*
X0212500Y0199824D01*
X0208486Y0192324D02*
X0205000Y0190000D01*
X0208486Y0192324D02*
X0208664Y0192446D01*
X0208840Y0192572D01*
X0209012Y0192703D01*
X0209181Y0192837D01*
X0209347Y0192976D01*
X0209509Y0193118D01*
X0209668Y0193264D01*
X0209824Y0193414D01*
X0209976Y0193568D01*
X0210124Y0193725D01*
X0210268Y0193886D01*
X0210408Y0194051D01*
X0210545Y0194218D01*
X0210677Y0194389D01*
X0210805Y0194563D01*
X0210929Y0194740D01*
X0211049Y0194920D01*
X0211164Y0195102D01*
X0211275Y0195288D01*
X0211382Y0195476D01*
X0211484Y0195666D01*
X0211581Y0195859D01*
X0211674Y0196054D01*
X0211762Y0196252D01*
X0211845Y0196451D01*
X0211924Y0196652D01*
X0211997Y0196855D01*
X0212066Y0197060D01*
X0212130Y0197267D01*
X0212188Y0197475D01*
X0212242Y0197684D01*
X0212291Y0197894D01*
X0212335Y0198106D01*
X0212373Y0198319D01*
X0212407Y0198532D01*
X0212435Y0198746D01*
X0212459Y0198961D01*
X0212477Y0199176D01*
X0212490Y0199392D01*
X0212497Y0199608D01*
X0212500Y0199824D01*
X0049228Y0101728D02*
X0046250Y0098750D01*
X0041250Y0098750D01*
X0029965Y0091852D02*
X0030091Y0091389D01*
X0030227Y0090929D01*
X0030374Y0090472D01*
X0030531Y0090019D01*
X0030699Y0089570D01*
X0030878Y0089125D01*
X0031067Y0088684D01*
X0031266Y0088248D01*
X0031476Y0087817D01*
X0031695Y0087390D01*
X0031925Y0086969D01*
X0032164Y0086554D01*
X0032413Y0086144D01*
X0032672Y0085740D01*
X0032940Y0085342D01*
X0033217Y0084951D01*
X0033503Y0084566D01*
X0033798Y0084188D01*
X0034102Y0083817D01*
X0034415Y0083454D01*
X0034736Y0083097D01*
X0028298Y0098312D02*
X0028145Y0098877D01*
X0027978Y0099438D01*
X0027798Y0099995D01*
X0027604Y0100547D01*
X0027397Y0101094D01*
X0027176Y0101636D01*
X0026942Y0102173D01*
X0026696Y0102703D01*
X0026436Y0103228D01*
X0026164Y0103746D01*
X0025879Y0104257D01*
X0025582Y0104761D01*
X0025273Y0105258D01*
X0024952Y0105747D01*
X0024618Y0106229D01*
X0024274Y0106702D01*
X0023918Y0107166D01*
X0023550Y0107622D01*
X0023172Y0108068D01*
X0022783Y0108505D01*
X0022383Y0108933D01*
X0021974Y0109351D01*
X0021554Y0109758D01*
X0021124Y0110156D01*
X0020685Y0110542D01*
X0020236Y0110918D01*
X0019779Y0111283D01*
X0049228Y0101729D02*
X0049733Y0102246D01*
X0050226Y0102775D01*
X0050706Y0103316D01*
X0051173Y0103868D01*
X0051626Y0104430D01*
X0052066Y0105004D01*
X0052493Y0105588D01*
X0052905Y0106182D01*
X0053303Y0106785D01*
X0053687Y0107398D01*
X0054056Y0108020D01*
X0054409Y0108650D01*
X0054748Y0109288D01*
X0055072Y0109935D01*
X0055380Y0110589D01*
X0055673Y0111250D01*
X0055949Y0111918D01*
X0056210Y0112592D01*
X0056454Y0113272D01*
X0056683Y0113958D01*
X0056895Y0114649D01*
X0057090Y0115345D01*
X0057269Y0116046D01*
X0057431Y0116750D01*
X0057576Y0117458D01*
X0057704Y0118170D01*
X0057816Y0118884D01*
X0057910Y0119601D01*
X0057987Y0120320D01*
X0058048Y0121040D01*
X0058091Y0121762D01*
X0058116Y0122484D01*
X0058125Y0123207D01*
X0063125Y0121310D02*
X0063116Y0120552D01*
X0063089Y0119795D01*
X0063044Y0119039D01*
X0062981Y0118284D01*
X0062900Y0117531D01*
X0062801Y0116780D01*
X0062684Y0116031D01*
X0062550Y0115286D01*
X0062398Y0114544D01*
X0062228Y0113805D01*
X0062040Y0113071D01*
X0061836Y0112342D01*
X0061614Y0111618D01*
X0061374Y0110899D01*
X0061118Y0110186D01*
X0060845Y0109479D01*
X0060555Y0108779D01*
X0060248Y0108087D01*
X0059926Y0107401D01*
X0059586Y0106724D01*
X0059231Y0106055D01*
X0058860Y0105394D01*
X0058474Y0104742D01*
X0058072Y0104100D01*
X0057655Y0103468D01*
X0057223Y0102846D01*
X0056776Y0102234D01*
X0056315Y0101633D01*
X0055839Y0101043D01*
X0055350Y0100464D01*
X0054847Y0099898D01*
X0054331Y0099343D01*
X0053802Y0098801D01*
X0021663Y0078885D02*
X0021982Y0078436D01*
X0022291Y0077981D01*
X0022589Y0077518D01*
X0022877Y0077049D01*
X0023155Y0076574D01*
X0023422Y0076093D01*
X0023678Y0075606D01*
X0023924Y0075113D01*
X0024158Y0074615D01*
D19*
X0020591Y0072316D02*
X0020686Y0072109D01*
X0027992Y0056126D01*
X0027992Y0056126D01*
X0028340Y0055366D01*
X0028687Y0054606D01*
X0028975Y0053977D01*
X0030717Y0051468D01*
X0031206Y0050979D01*
X0033050Y0049135D01*
X0033050Y0047636D01*
X0033903Y0045578D01*
X0035478Y0044003D01*
X0036724Y0043487D01*
X0036692Y0043476D01*
X0035977Y0043112D01*
X0035328Y0042640D01*
X0034760Y0042072D01*
X0034288Y0041423D01*
X0033924Y0040708D01*
X0033676Y0039944D01*
X0033550Y0039151D01*
X0033550Y0038750D01*
X0041250Y0038750D01*
X0048950Y0038750D01*
X0048950Y0039151D01*
X0048824Y0039944D01*
X0048576Y0040708D01*
X0048212Y0041423D01*
X0047740Y0042072D01*
X0047172Y0042640D01*
X0046523Y0043112D01*
X0045808Y0043476D01*
X0045776Y0043487D01*
X0047022Y0044003D01*
X0048597Y0045578D01*
X0049450Y0047636D01*
X0049450Y0049864D01*
X0048597Y0051922D01*
X0047022Y0053497D01*
X0046412Y0053750D01*
X0047022Y0054003D01*
X0048597Y0055578D01*
X0049450Y0057636D01*
X0049450Y0059864D01*
X0048597Y0061922D01*
X0047022Y0063497D01*
X0046412Y0063750D01*
X0047022Y0064003D01*
X0048597Y0065578D01*
X0049450Y0067636D01*
X0049450Y0069864D01*
X0048597Y0071922D01*
X0047022Y0073497D01*
X0046412Y0073750D01*
X0047022Y0074003D01*
X0048597Y0075578D01*
X0049450Y0077636D01*
X0049450Y0079864D01*
X0048597Y0081922D01*
X0047022Y0083497D01*
X0046412Y0083750D01*
X0047022Y0084003D01*
X0048597Y0085578D01*
X0049450Y0087636D01*
X0049450Y0088510D01*
X0056181Y0095241D01*
X0056650Y0095710D01*
X0056650Y0035948D01*
X0057607Y0033637D01*
X0058430Y0032815D01*
X0058491Y0032753D01*
X0058747Y0032498D01*
X0059138Y0032106D01*
X0060193Y0031052D01*
X0064361Y0028646D01*
X0069009Y0027400D01*
X0104915Y0027400D01*
X0106606Y0028100D01*
X0107062Y0028557D01*
X0107062Y0028003D01*
X0108342Y0024914D01*
X0109223Y0024033D01*
X0108461Y0023479D01*
X0107771Y0022789D01*
X0107197Y0022000D01*
X0106754Y0021130D01*
X0106453Y0020202D01*
X0106300Y0019238D01*
X0106300Y0018750D01*
X0112500Y0018750D01*
X0122500Y0018750D01*
X0128700Y0018750D01*
X0128700Y0019238D01*
X0128547Y0020202D01*
X0128246Y0021130D01*
X0127803Y0022000D01*
X0127229Y0022789D01*
X0126539Y0023479D01*
X0125750Y0024053D01*
X0124880Y0024496D01*
X0123952Y0024797D01*
X0122988Y0024950D01*
X0122608Y0024950D01*
X0123873Y0028003D01*
X0123873Y0031347D01*
X0122712Y0034150D01*
X0135402Y0034150D01*
X0137299Y0034069D01*
X0137473Y0034004D01*
X0138208Y0034030D01*
X0138942Y0033999D01*
X0139116Y0034063D01*
X0139302Y0034069D01*
X0139971Y0034374D01*
X0140661Y0034626D01*
X0140798Y0034752D01*
X0146776Y0037482D01*
X0147515Y0037774D01*
X0147604Y0037860D01*
X0147717Y0037911D01*
X0148259Y0038493D01*
X0154885Y0044904D01*
X0154921Y0044919D01*
X0155541Y0045539D01*
X0155952Y0045937D01*
X0155958Y0045909D01*
X0156146Y0045454D01*
X0156420Y0045045D01*
X0156768Y0044696D01*
X0157178Y0044423D01*
X0157633Y0044234D01*
X0158116Y0044138D01*
X0163362Y0044138D01*
X0168608Y0044138D01*
X0169091Y0044234D01*
X0169546Y0044423D01*
X0169956Y0044696D01*
X0170000Y0044741D01*
X0170000Y0042516D01*
X0169926Y0041435D01*
X0169338Y0039354D01*
X0168207Y0037511D01*
X0167463Y0036723D01*
X0167167Y0036449D01*
X0166733Y0036048D01*
X0166583Y0035910D01*
X0166026Y0035456D01*
X0164765Y0034772D01*
X0163374Y0034420D01*
X0162657Y0034375D01*
X0155737Y0034375D01*
X0150426Y0032998D01*
X0145630Y0030332D01*
X0143644Y0028441D01*
X0143644Y0028441D01*
X0142924Y0027755D01*
X0142924Y0027755D01*
X0139244Y0024250D01*
X0138111Y0024250D01*
X0133425Y0019564D01*
X0133425Y0012936D01*
X0138111Y0008250D01*
X0144739Y0008250D01*
X0149425Y0012936D01*
X0149425Y0019564D01*
X0149131Y0019857D01*
X0150540Y0021199D01*
X0151659Y0022137D01*
X0154204Y0023552D01*
X0157024Y0024283D01*
X0158480Y0024375D01*
X0164628Y0024375D01*
X0168451Y0025345D01*
X0171917Y0027225D01*
X0173366Y0028562D01*
X0174097Y0029237D01*
X0174977Y0030049D01*
X0174977Y0030049D01*
X0176065Y0031054D01*
X0176065Y0031054D01*
X0178655Y0035275D01*
X0180000Y0040040D01*
X0180000Y0043303D01*
X0180109Y0046073D01*
X0180976Y0051546D01*
X0182688Y0056816D01*
X0185203Y0061753D01*
X0188460Y0066235D01*
X0190342Y0068271D01*
X0191046Y0068975D01*
X0192490Y0070419D01*
X0195865Y0075470D01*
X0195865Y0075470D01*
X0198190Y0081082D01*
X0198190Y0081082D01*
X0199245Y0086386D01*
X0199320Y0086205D01*
X0200525Y0085000D01*
X0199320Y0083795D01*
X0198300Y0081333D01*
X0198300Y0078667D01*
X0199320Y0076205D01*
X0201205Y0074320D01*
X0203667Y0073300D01*
X0206333Y0073300D01*
X0208795Y0074320D01*
X0210680Y0076205D01*
X0211700Y0078667D01*
X0211700Y0081333D01*
X0210680Y0083795D01*
X0209475Y0085000D01*
X0210680Y0086205D01*
X0211700Y0088667D01*
X0211700Y0091333D01*
X0210680Y0093795D01*
X0209475Y0095000D01*
X0210680Y0096205D01*
X0211700Y0098667D01*
X0211700Y0101333D01*
X0210680Y0103795D01*
X0209475Y0105000D01*
X0210680Y0106205D01*
X0211700Y0108667D01*
X0211700Y0111333D01*
X0210680Y0113795D01*
X0209475Y0115000D01*
X0210680Y0116205D01*
X0211700Y0118667D01*
X0211700Y0121333D01*
X0210680Y0123795D01*
X0209122Y0125354D01*
X0209729Y0125961D01*
X0210303Y0126750D01*
X0210746Y0127620D01*
X0211047Y0128548D01*
X0211200Y0129512D01*
X0211200Y0130000D01*
X0211200Y0130488D01*
X0211047Y0131452D01*
X0210746Y0132380D01*
X0210303Y0133250D01*
X0209729Y0134039D01*
X0209039Y0134729D01*
X0208666Y0135000D01*
X0209039Y0135271D01*
X0209729Y0135961D01*
X0210303Y0136750D01*
X0210746Y0137620D01*
X0211047Y0138548D01*
X0211200Y0139512D01*
X0211200Y0140000D01*
X0211200Y0140488D01*
X0211047Y0141452D01*
X0210746Y0142380D01*
X0210303Y0143250D01*
X0209729Y0144039D01*
X0209122Y0144646D01*
X0210680Y0146205D01*
X0211700Y0148667D01*
X0211700Y0151333D01*
X0210680Y0153795D01*
X0208795Y0155680D01*
X0206333Y0156700D01*
X0203667Y0156700D01*
X0201205Y0155680D01*
X0199320Y0153795D01*
X0199119Y0153310D01*
X0199063Y0153292D01*
X0198363Y0153058D01*
X0195415Y0151236D01*
X0194893Y0150714D01*
X0194190Y0150011D01*
X0193487Y0149308D01*
X0193487Y0149308D01*
X0193380Y0149201D01*
X0192587Y0148408D01*
X0192587Y0148408D01*
X0190470Y0144742D01*
X0189375Y0140654D01*
X0189375Y0134600D01*
X0188295Y0135680D01*
X0185833Y0136700D01*
X0183167Y0136700D01*
X0181496Y0136008D01*
X0181901Y0138041D01*
X0183209Y0141199D01*
X0185108Y0144041D01*
X0186205Y0145252D01*
X0195824Y0153684D01*
X0196111Y0153834D01*
X0196431Y0154216D01*
X0196806Y0154545D01*
X0196950Y0154836D01*
X0197972Y0156057D01*
X0197972Y0156057D01*
X0199972Y0159714D01*
X0201220Y0163690D01*
X0201220Y0163690D01*
X0201284Y0164287D01*
X0203667Y0163300D01*
X0206333Y0163300D01*
X0208795Y0164320D01*
X0210680Y0166205D01*
X0211700Y0168667D01*
X0211700Y0171333D01*
X0210680Y0173795D01*
X0209475Y0175000D01*
X0210680Y0176205D01*
X0211700Y0178667D01*
X0211700Y0181333D01*
X0210680Y0183795D01*
X0209475Y0185000D01*
X0210680Y0186205D01*
X0211700Y0188667D01*
X0211700Y0189419D01*
X0212633Y0190041D01*
X0212633Y0190041D01*
X0214500Y0192470D01*
X0214500Y0014500D01*
X0208100Y0008100D01*
X0194154Y0008100D01*
X0196626Y0009124D01*
X0198991Y0011489D01*
X0200271Y0014578D01*
X0200271Y0017922D01*
X0198991Y0021011D01*
X0196626Y0023376D01*
X0193537Y0024655D01*
X0190193Y0024655D01*
X0187104Y0023376D01*
X0184739Y0021011D01*
X0183460Y0017922D01*
X0183460Y0014578D01*
X0184739Y0011489D01*
X0187104Y0009124D01*
X0189576Y0008100D01*
X0070281Y0008100D01*
X0070750Y0009233D01*
X0070750Y0012017D01*
X0069684Y0014590D01*
X0068750Y0015524D01*
X0068750Y0016351D01*
X0069684Y0017285D01*
X0070750Y0019858D01*
X0070750Y0022642D01*
X0069684Y0025215D01*
X0067715Y0027184D01*
X0065142Y0028250D01*
X0062358Y0028250D01*
X0059785Y0027184D01*
X0057816Y0025215D01*
X0056750Y0022642D01*
X0056750Y0019858D01*
X0057816Y0017285D01*
X0058750Y0016351D01*
X0058750Y0015524D01*
X0057816Y0014590D01*
X0056750Y0012017D01*
X0056750Y0009233D01*
X0057219Y0008100D01*
X0040281Y0008100D01*
X0040750Y0009233D01*
X0040750Y0012017D01*
X0039684Y0014590D01*
X0038337Y0015937D01*
X0039684Y0017285D01*
X0040750Y0019858D01*
X0040750Y0022642D01*
X0039684Y0025215D01*
X0037715Y0027184D01*
X0035142Y0028250D01*
X0032358Y0028250D01*
X0029785Y0027184D01*
X0028975Y0026374D01*
X0028975Y0045033D01*
X0029057Y0045349D01*
X0028975Y0045940D01*
X0028975Y0046537D01*
X0028850Y0046838D01*
X0028598Y0048651D01*
X0028598Y0048651D01*
X0026714Y0053107D01*
X0023741Y0056923D01*
X0022197Y0058090D01*
X0021915Y0058416D01*
X0021474Y0058637D01*
X0021082Y0058933D01*
X0020664Y0059042D01*
X0020278Y0059235D01*
X0020237Y0059238D01*
X0019475Y0060000D01*
X0020680Y0061205D01*
X0021700Y0063667D01*
X0021700Y0066333D01*
X0020680Y0068795D01*
X0019122Y0070354D01*
X0019729Y0070961D01*
X0020303Y0071750D01*
X0020591Y0072316D01*
X0020686Y0072109D02*
X0020686Y0072109D01*
X0021208Y0070967D02*
X0019734Y0070967D01*
X0021022Y0067969D02*
X0022578Y0067969D01*
X0021700Y0064970D02*
X0023949Y0064970D01*
X0025320Y0061972D02*
X0020998Y0061972D01*
X0020929Y0058973D02*
X0026691Y0058973D01*
X0028061Y0055975D02*
X0024480Y0055975D01*
X0023741Y0056923D02*
X0023741Y0056923D01*
X0023741Y0056923D01*
X0026714Y0053107D02*
X0026714Y0053107D01*
X0026769Y0052976D02*
X0029670Y0052976D01*
X0028687Y0054606D02*
X0028687Y0054606D01*
X0031206Y0050979D02*
X0031206Y0050979D01*
X0032208Y0049978D02*
X0028037Y0049978D01*
X0028830Y0046979D02*
X0033322Y0046979D01*
X0035531Y0043981D02*
X0028975Y0043981D01*
X0028975Y0040982D02*
X0034063Y0040982D01*
X0033550Y0038750D02*
X0033550Y0038349D01*
X0033676Y0037556D01*
X0033924Y0036792D01*
X0034288Y0036077D01*
X0034760Y0035428D01*
X0035328Y0034860D01*
X0035977Y0034388D01*
X0036692Y0034024D01*
X0037456Y0033776D01*
X0038249Y0033650D01*
X0041250Y0033650D01*
X0044251Y0033650D01*
X0045044Y0033776D01*
X0045808Y0034024D01*
X0046523Y0034388D01*
X0047172Y0034860D01*
X0047740Y0035428D01*
X0048212Y0036077D01*
X0048576Y0036792D01*
X0048824Y0037556D01*
X0048950Y0038349D01*
X0048950Y0038750D01*
X0041250Y0038750D01*
X0041250Y0038750D01*
X0041250Y0033650D01*
X0041250Y0038750D01*
X0041250Y0038750D01*
X0041250Y0038750D01*
X0033550Y0038750D01*
X0033608Y0037984D02*
X0028975Y0037984D01*
X0028975Y0034985D02*
X0035202Y0034985D01*
X0041250Y0034985D02*
X0041250Y0034985D01*
X0041250Y0037984D02*
X0041250Y0037984D01*
X0047298Y0034985D02*
X0057049Y0034985D01*
X0057607Y0033637D02*
X0057607Y0033637D01*
X0059258Y0031987D02*
X0028975Y0031987D01*
X0028975Y0028988D02*
X0063767Y0028988D01*
X0064361Y0028646D02*
X0064361Y0028646D01*
X0060193Y0031052D02*
X0060193Y0031052D01*
X0058590Y0025990D02*
X0038910Y0025990D01*
X0040606Y0022991D02*
X0056894Y0022991D01*
X0056750Y0019993D02*
X0040750Y0019993D01*
X0039394Y0016994D02*
X0058106Y0016994D01*
X0057569Y0013996D02*
X0039931Y0013996D01*
X0040750Y0010997D02*
X0056750Y0010997D01*
X0069931Y0013996D02*
X0073404Y0013996D01*
X0074330Y0013070D02*
X0076792Y0012050D01*
X0079458Y0012050D01*
X0081920Y0013070D01*
X0083125Y0014275D01*
X0084330Y0013070D01*
X0086792Y0012050D01*
X0089458Y0012050D01*
X0091920Y0013070D01*
X0093805Y0014955D01*
X0094825Y0017417D01*
X0094825Y0020083D01*
X0093805Y0022545D01*
X0091920Y0024430D01*
X0089458Y0025450D01*
X0086792Y0025450D01*
X0084330Y0024430D01*
X0083125Y0023225D01*
X0081920Y0024430D01*
X0079458Y0025450D01*
X0076792Y0025450D01*
X0074330Y0024430D01*
X0072445Y0022545D01*
X0071425Y0020083D01*
X0071425Y0017417D01*
X0072445Y0014955D01*
X0074330Y0013070D01*
X0070750Y0010997D02*
X0135364Y0010997D01*
X0133425Y0013996D02*
X0126504Y0013996D01*
X0126539Y0014021D02*
X0127229Y0014711D01*
X0127803Y0015500D01*
X0128246Y0016370D01*
X0128547Y0017298D01*
X0128700Y0018262D01*
X0128700Y0018750D01*
X0122500Y0018750D01*
X0122500Y0018750D01*
X0122500Y0018750D01*
X0122500Y0012550D01*
X0122988Y0012550D01*
X0123952Y0012703D01*
X0124880Y0013004D01*
X0125750Y0013447D01*
X0126539Y0014021D01*
X0128448Y0016994D02*
X0133425Y0016994D01*
X0133854Y0019993D02*
X0128580Y0019993D01*
X0127027Y0022991D02*
X0136852Y0022991D01*
X0141070Y0025990D02*
X0123039Y0025990D01*
X0123873Y0028988D02*
X0144219Y0028988D01*
X0145630Y0030332D02*
X0145630Y0030332D01*
X0148606Y0031987D02*
X0123608Y0031987D01*
X0122500Y0018750D02*
X0116300Y0018750D01*
X0112500Y0018750D01*
X0112500Y0018750D01*
X0112500Y0012550D01*
X0112988Y0012550D01*
X0113952Y0012703D01*
X0114880Y0013004D01*
X0115750Y0013447D01*
X0116539Y0014021D01*
X0117229Y0014711D01*
X0117500Y0015084D01*
X0117771Y0014711D01*
X0118461Y0014021D01*
X0119250Y0013447D01*
X0120120Y0013004D01*
X0121048Y0012703D01*
X0122012Y0012550D01*
X0122500Y0012550D01*
X0122500Y0018750D01*
X0122500Y0018750D01*
X0122500Y0016994D02*
X0122500Y0016994D01*
X0122500Y0013996D02*
X0122500Y0013996D01*
X0118496Y0013996D02*
X0116504Y0013996D01*
X0112500Y0013996D02*
X0112500Y0013996D01*
X0112500Y0012550D02*
X0112500Y0018750D01*
X0112500Y0018750D01*
X0112500Y0018750D01*
X0106300Y0018750D01*
X0106300Y0018262D01*
X0106453Y0017298D01*
X0106754Y0016370D01*
X0107197Y0015500D01*
X0107771Y0014711D01*
X0108461Y0014021D01*
X0109250Y0013447D01*
X0110120Y0013004D01*
X0111048Y0012703D01*
X0112012Y0012550D01*
X0112500Y0012550D01*
X0108496Y0013996D02*
X0092846Y0013996D01*
X0094650Y0016994D02*
X0106551Y0016994D01*
X0106420Y0019993D02*
X0094825Y0019993D01*
X0093359Y0022991D02*
X0107973Y0022991D01*
X0107896Y0025990D02*
X0068910Y0025990D01*
X0070606Y0022991D02*
X0072891Y0022991D01*
X0071425Y0019993D02*
X0070750Y0019993D01*
X0071600Y0016994D02*
X0069394Y0016994D01*
X0082846Y0013996D02*
X0083404Y0013996D01*
X0112500Y0016994D02*
X0112500Y0016994D01*
X0141308Y0034985D02*
X0165157Y0034985D01*
X0166733Y0036048D02*
X0166733Y0036048D01*
X0168497Y0037984D02*
X0147784Y0037984D01*
X0150831Y0040982D02*
X0169798Y0040982D01*
X0170000Y0043981D02*
X0153930Y0043981D01*
X0163362Y0044138D02*
X0163362Y0051638D01*
X0163362Y0044138D01*
X0163362Y0046979D02*
X0163362Y0046979D01*
X0163362Y0049978D02*
X0163362Y0049978D01*
X0163362Y0051638D02*
X0163362Y0051638D01*
X0163362Y0051638D01*
X0163362Y0059138D01*
X0168608Y0059138D01*
X0169091Y0059042D01*
X0169546Y0058854D01*
X0169956Y0058580D01*
X0170304Y0058232D01*
X0170577Y0057822D01*
X0170766Y0057367D01*
X0170862Y0056884D01*
X0170862Y0052310D01*
X0171116Y0053913D01*
X0171116Y0053913D01*
X0173320Y0060696D01*
X0173320Y0060696D01*
X0176558Y0067051D01*
X0176558Y0067051D01*
X0180750Y0072821D01*
X0180750Y0072821D01*
X0182568Y0074639D01*
X0182611Y0074682D01*
X0183271Y0075342D01*
X0183271Y0075342D01*
X0184645Y0076858D01*
X0186914Y0080254D01*
X0188478Y0084029D01*
X0189275Y0088035D01*
X0189375Y0090078D01*
X0189375Y0106162D01*
X0189229Y0105961D01*
X0188539Y0105271D01*
X0187750Y0104697D01*
X0186880Y0104254D01*
X0185952Y0103953D01*
X0184988Y0103800D01*
X0184500Y0103800D01*
X0184500Y0110000D01*
X0184500Y0110000D01*
X0184500Y0110000D01*
X0178300Y0110000D01*
X0178300Y0110488D01*
X0178453Y0111452D01*
X0178754Y0112380D01*
X0179197Y0113250D01*
X0179771Y0114039D01*
X0180461Y0114729D01*
X0180944Y0115080D01*
X0179820Y0116205D01*
X0178800Y0118667D01*
X0178800Y0119552D01*
X0177846Y0120505D01*
X0176421Y0121931D01*
X0176421Y0121931D01*
X0174134Y0125892D01*
X0174134Y0125892D01*
X0172950Y0130310D01*
X0172950Y0135504D01*
X0173935Y0140457D01*
X0173935Y0140457D01*
X0175868Y0145123D01*
X0175868Y0145123D01*
X0178673Y0149322D01*
X0178673Y0149322D01*
X0179980Y0150629D01*
X0180042Y0150753D01*
X0180554Y0151202D01*
X0181035Y0151684D01*
X0181164Y0151737D01*
X0185228Y0155300D01*
X0183186Y0155300D01*
X0180686Y0157800D01*
X0175814Y0157800D01*
X0173314Y0155300D01*
X0169071Y0155300D01*
X0158589Y0144818D01*
X0158589Y0144818D01*
X0157886Y0144115D01*
X0157886Y0144115D01*
X0157842Y0144071D01*
X0157835Y0144064D01*
X0158153Y0144196D01*
X0169347Y0144196D01*
X0170449Y0143739D01*
X0171293Y0142895D01*
X0171750Y0141793D01*
X0171750Y0130599D01*
X0171293Y0129496D01*
X0170449Y0128653D01*
X0169347Y0128196D01*
X0158153Y0128196D01*
X0157051Y0128653D01*
X0156207Y0129496D01*
X0155750Y0130599D01*
X0155750Y0141793D01*
X0156081Y0142591D01*
X0153953Y0141363D01*
X0153953Y0141363D01*
X0150838Y0140528D01*
X0149078Y0140528D01*
X0150096Y0139510D01*
X0150096Y0132882D01*
X0145410Y0128196D01*
X0138783Y0128196D01*
X0134096Y0132882D01*
X0134096Y0139510D01*
X0135115Y0140528D01*
X0130633Y0140528D01*
X0130633Y0138839D01*
X0130500Y0138518D01*
X0130500Y0132278D01*
X0135288Y0127490D01*
X0136125Y0125469D01*
X0136125Y0125003D01*
X0138783Y0127660D01*
X0145410Y0127660D01*
X0150096Y0122974D01*
X0150096Y0116347D01*
X0145410Y0111660D01*
X0138783Y0111660D01*
X0136579Y0113864D01*
X0136125Y0113864D01*
X0136125Y0108467D01*
X0138783Y0111125D01*
X0145410Y0111125D01*
X0150096Y0106439D01*
X0150096Y0099811D01*
X0145410Y0095125D01*
X0138783Y0095125D01*
X0136908Y0097000D01*
X0136125Y0097000D01*
X0136125Y0087797D01*
X0136782Y0089382D01*
X0139146Y0091747D01*
X0142236Y0093027D01*
X0145579Y0093027D01*
X0148669Y0091747D01*
X0151033Y0089382D01*
X0151240Y0088883D01*
X0155650Y0100354D01*
X0155650Y0100415D01*
X0155750Y0100656D01*
X0155750Y0106439D01*
X0160436Y0111125D01*
X0164620Y0111125D01*
X0164084Y0111660D01*
X0160436Y0111660D01*
X0155750Y0116347D01*
X0155750Y0122974D01*
X0160436Y0127660D01*
X0167064Y0127660D01*
X0171750Y0122974D01*
X0171750Y0117005D01*
X0176984Y0111771D01*
X0177620Y0111150D01*
X0177631Y0111125D01*
X0177650Y0111106D01*
X0177990Y0110284D01*
X0178300Y0109559D01*
X0178300Y0110000D01*
X0184500Y0110000D01*
X0184500Y0103800D01*
X0184012Y0103800D01*
X0183048Y0103953D01*
X0182120Y0104254D01*
X0181250Y0104697D01*
X0180461Y0105271D01*
X0179771Y0105961D01*
X0179197Y0106750D01*
X0178754Y0107620D01*
X0178453Y0108548D01*
X0178350Y0109196D01*
X0178350Y0108526D01*
X0178454Y0099379D01*
X0178464Y0099354D01*
X0178464Y0098466D01*
X0178474Y0097577D01*
X0178464Y0097552D01*
X0178464Y0097524D01*
X0178124Y0096704D01*
X0177793Y0095878D01*
X0177774Y0095859D01*
X0177764Y0095834D01*
X0177135Y0095205D01*
X0176514Y0094570D01*
X0176489Y0094559D01*
X0173850Y0091920D01*
X0173850Y0084487D01*
X0173906Y0084317D01*
X0173850Y0083577D01*
X0173850Y0082835D01*
X0173782Y0082670D01*
X0173768Y0082492D01*
X0173434Y0081830D01*
X0173150Y0081144D01*
X0173024Y0081018D01*
X0172943Y0080859D01*
X0172380Y0080375D01*
X0171856Y0079850D01*
X0171767Y0079814D01*
X0169694Y0077884D01*
X0165180Y0072562D01*
X0165180Y0072562D01*
X0161555Y0066600D01*
X0158907Y0060145D01*
X0158669Y0059138D01*
X0163362Y0059138D01*
X0163362Y0051638D01*
X0163362Y0052976D02*
X0163362Y0052976D01*
X0163362Y0055975D02*
X0163362Y0055975D01*
X0163362Y0058973D02*
X0163362Y0058973D01*
X0159656Y0061972D02*
X0173970Y0061972D01*
X0172760Y0058973D02*
X0169258Y0058973D01*
X0170862Y0055975D02*
X0171786Y0055975D01*
X0170967Y0052976D02*
X0170862Y0052976D01*
X0180727Y0049978D02*
X0183697Y0049978D01*
X0183697Y0049966D02*
X0184976Y0046877D01*
X0187341Y0044512D01*
X0190430Y0043233D01*
X0193774Y0043233D01*
X0196863Y0044512D01*
X0199228Y0046877D01*
X0200508Y0049966D01*
X0200508Y0053310D01*
X0199228Y0056400D01*
X0196863Y0058764D01*
X0193774Y0060044D01*
X0190430Y0060044D01*
X0187341Y0058764D01*
X0184976Y0056400D01*
X0183697Y0053310D01*
X0183697Y0049966D01*
X0183697Y0052976D02*
X0181440Y0052976D01*
X0182415Y0055975D02*
X0184800Y0055975D01*
X0183787Y0058973D02*
X0187846Y0058973D01*
X0185363Y0061972D02*
X0214500Y0061972D01*
X0214500Y0064970D02*
X0187541Y0064970D01*
X0190063Y0067969D02*
X0214500Y0067969D01*
X0214500Y0070967D02*
X0192856Y0070967D01*
X0192490Y0070419D02*
X0192490Y0070419D01*
X0191046Y0068975D02*
X0191046Y0068975D01*
X0194860Y0073966D02*
X0202060Y0073966D01*
X0199005Y0076964D02*
X0196484Y0076964D01*
X0197726Y0079963D02*
X0198300Y0079963D01*
X0198564Y0082961D02*
X0198975Y0082961D01*
X0199160Y0085960D02*
X0199565Y0085960D01*
X0210435Y0085960D02*
X0214500Y0085960D01*
X0214500Y0088958D02*
X0211700Y0088958D01*
X0211441Y0091957D02*
X0214500Y0091957D01*
X0214500Y0094955D02*
X0209520Y0094955D01*
X0211404Y0097954D02*
X0214500Y0097954D01*
X0214500Y0100952D02*
X0211700Y0100952D01*
X0210524Y0103951D02*
X0214500Y0103951D01*
X0214500Y0106949D02*
X0210988Y0106949D01*
X0211700Y0109948D02*
X0214500Y0109948D01*
X0214500Y0112946D02*
X0211032Y0112946D01*
X0210420Y0115945D02*
X0214500Y0115945D01*
X0214500Y0118943D02*
X0211700Y0118943D01*
X0211448Y0121942D02*
X0214500Y0121942D01*
X0214500Y0124940D02*
X0209535Y0124940D01*
X0210849Y0127939D02*
X0214500Y0127939D01*
X0214500Y0130937D02*
X0211129Y0130937D01*
X0211200Y0130000D02*
X0205000Y0130000D01*
X0205000Y0130000D01*
X0205000Y0133800D01*
X0205000Y0140000D01*
X0211200Y0140000D01*
X0205000Y0140000D01*
X0205000Y0140000D01*
X0205000Y0140000D01*
X0205000Y0130000D01*
X0205000Y0130000D01*
X0211200Y0130000D01*
X0209804Y0133936D02*
X0214500Y0133936D01*
X0214500Y0136934D02*
X0210396Y0136934D01*
X0211200Y0139933D02*
X0214500Y0139933D01*
X0214500Y0142932D02*
X0210465Y0142932D01*
X0210405Y0145930D02*
X0214500Y0145930D01*
X0214500Y0148929D02*
X0211700Y0148929D01*
X0211454Y0151927D02*
X0214500Y0151927D01*
X0214500Y0154926D02*
X0209550Y0154926D01*
X0214500Y0157924D02*
X0198993Y0157924D01*
X0199972Y0159714D02*
X0199972Y0159714D01*
X0200351Y0160923D02*
X0214500Y0160923D01*
X0214500Y0163921D02*
X0207832Y0163921D01*
X0210976Y0166920D02*
X0214500Y0166920D01*
X0214500Y0169918D02*
X0211700Y0169918D01*
X0211044Y0172917D02*
X0214500Y0172917D01*
X0214500Y0175915D02*
X0210390Y0175915D01*
X0211700Y0178914D02*
X0214500Y0178914D01*
X0214500Y0181912D02*
X0211460Y0181912D01*
X0209565Y0184911D02*
X0214500Y0184911D01*
X0214500Y0187909D02*
X0211386Y0187909D01*
X0213299Y0190908D02*
X0214500Y0190908D01*
X0202168Y0163921D02*
X0201245Y0163921D01*
X0200450Y0154926D02*
X0197025Y0154926D01*
X0198363Y0153058D02*
X0198363Y0153058D01*
X0196533Y0151927D02*
X0193820Y0151927D01*
X0195415Y0151236D02*
X0195415Y0151236D01*
X0193380Y0149201D02*
X0193380Y0149201D01*
X0193107Y0148929D02*
X0190400Y0148929D01*
X0191156Y0145930D02*
X0186979Y0145930D01*
X0190470Y0144742D02*
X0190470Y0144742D01*
X0189985Y0142932D02*
X0184367Y0142932D01*
X0182685Y0139933D02*
X0189375Y0139933D01*
X0189375Y0136934D02*
X0181681Y0136934D01*
X0173831Y0139933D02*
X0171750Y0139933D01*
X0171750Y0136934D02*
X0173234Y0136934D01*
X0172950Y0133936D02*
X0171750Y0133936D01*
X0171750Y0130937D02*
X0172950Y0130937D01*
X0173585Y0127939D02*
X0134839Y0127939D01*
X0136041Y0130937D02*
X0131841Y0130937D01*
X0130500Y0133936D02*
X0134096Y0133936D01*
X0134096Y0136934D02*
X0130500Y0136934D01*
X0130633Y0139933D02*
X0134520Y0139933D01*
X0148152Y0130937D02*
X0155750Y0130937D01*
X0155750Y0133936D02*
X0150096Y0133936D01*
X0150096Y0136934D02*
X0155750Y0136934D01*
X0155750Y0139933D02*
X0149673Y0139933D01*
X0159701Y0145930D02*
X0176407Y0145930D01*
X0178411Y0148929D02*
X0162700Y0148929D01*
X0165698Y0151927D02*
X0181381Y0151927D01*
X0184801Y0154926D02*
X0168697Y0154926D01*
X0171257Y0142932D02*
X0174960Y0142932D01*
X0174683Y0124940D02*
X0169784Y0124940D01*
X0171750Y0121942D02*
X0176414Y0121942D01*
X0178800Y0118943D02*
X0171750Y0118943D01*
X0172810Y0115945D02*
X0180080Y0115945D01*
X0179043Y0112946D02*
X0175809Y0112946D01*
X0178134Y0109948D02*
X0178300Y0109948D01*
X0178368Y0106949D02*
X0179096Y0106949D01*
X0178402Y0103951D02*
X0183059Y0103951D01*
X0184500Y0103951D02*
X0184500Y0103951D01*
X0185940Y0103951D02*
X0189375Y0103951D01*
X0189375Y0100952D02*
X0178436Y0100952D01*
X0178470Y0097954D02*
X0189375Y0097954D01*
X0189375Y0094955D02*
X0176891Y0094955D01*
X0173887Y0091957D02*
X0189375Y0091957D01*
X0189320Y0088958D02*
X0173850Y0088958D01*
X0173850Y0085960D02*
X0188862Y0085960D01*
X0188036Y0082961D02*
X0173850Y0082961D01*
X0171968Y0079963D02*
X0186719Y0079963D01*
X0184716Y0076964D02*
X0168914Y0076964D01*
X0166371Y0073966D02*
X0181895Y0073966D01*
X0179403Y0070967D02*
X0164210Y0070967D01*
X0162387Y0067969D02*
X0177225Y0067969D01*
X0175498Y0064970D02*
X0160886Y0064970D01*
X0180252Y0046979D02*
X0184934Y0046979D01*
X0188624Y0043981D02*
X0180027Y0043981D01*
X0180000Y0040982D02*
X0214500Y0040982D01*
X0214500Y0037984D02*
X0179419Y0037984D01*
X0178477Y0034985D02*
X0214500Y0034985D01*
X0214500Y0031987D02*
X0176638Y0031987D01*
X0174097Y0029237D02*
X0174097Y0029237D01*
X0173827Y0028988D02*
X0214500Y0028988D01*
X0214500Y0025990D02*
X0169640Y0025990D01*
X0168451Y0025345D02*
X0168451Y0025345D01*
X0168371Y0023750D02*
X0163125Y0023750D01*
X0163125Y0016250D01*
X0163125Y0016250D01*
X0170625Y0016250D01*
X0170625Y0021496D01*
X0170529Y0021979D01*
X0170340Y0022434D01*
X0170067Y0022844D01*
X0169719Y0023192D01*
X0169309Y0023465D01*
X0168854Y0023654D01*
X0168371Y0023750D01*
X0169919Y0022991D02*
X0186719Y0022991D01*
X0184317Y0019993D02*
X0170625Y0019993D01*
X0170625Y0016994D02*
X0183460Y0016994D01*
X0183701Y0013996D02*
X0170625Y0013996D01*
X0170625Y0016250D02*
X0170625Y0011004D01*
X0170529Y0010521D01*
X0170340Y0010066D01*
X0170067Y0009656D01*
X0169719Y0009308D01*
X0169309Y0009035D01*
X0168854Y0008846D01*
X0168371Y0008750D01*
X0163125Y0008750D01*
X0163125Y0016250D01*
X0163125Y0016250D01*
X0163125Y0016250D01*
X0155625Y0016250D01*
X0155625Y0021496D01*
X0155721Y0021979D01*
X0155910Y0022434D01*
X0156183Y0022844D01*
X0156531Y0023192D01*
X0156941Y0023465D01*
X0157396Y0023654D01*
X0157879Y0023750D01*
X0163125Y0023750D01*
X0163125Y0016250D01*
X0170625Y0016250D01*
X0170624Y0010997D02*
X0185231Y0010997D01*
X0197011Y0022991D02*
X0214500Y0022991D01*
X0214500Y0019993D02*
X0199413Y0019993D01*
X0200271Y0016994D02*
X0214500Y0016994D01*
X0213996Y0013996D02*
X0200029Y0013996D01*
X0198499Y0010997D02*
X0210997Y0010997D01*
X0214500Y0043981D02*
X0195580Y0043981D01*
X0199270Y0046979D02*
X0214500Y0046979D01*
X0214500Y0049978D02*
X0200508Y0049978D01*
X0200508Y0052976D02*
X0214500Y0052976D01*
X0214500Y0055975D02*
X0199404Y0055975D01*
X0196359Y0058973D02*
X0214500Y0058973D01*
X0214500Y0073966D02*
X0207940Y0073966D01*
X0210995Y0076964D02*
X0214500Y0076964D01*
X0214500Y0079963D02*
X0211700Y0079963D01*
X0211025Y0082961D02*
X0214500Y0082961D01*
X0184500Y0106949D02*
X0184500Y0106949D01*
X0184500Y0109948D02*
X0184500Y0109948D01*
X0205000Y0130937D02*
X0205000Y0130937D01*
X0205000Y0133936D02*
X0205000Y0133936D01*
X0205000Y0136934D02*
X0205000Y0136934D01*
X0205000Y0139933D02*
X0205000Y0139933D01*
X0159150Y0112946D02*
X0146696Y0112946D01*
X0146587Y0109948D02*
X0159259Y0109948D01*
X0156261Y0106949D02*
X0149586Y0106949D01*
X0150096Y0103951D02*
X0155750Y0103951D01*
X0155750Y0100952D02*
X0150096Y0100952D01*
X0148239Y0097954D02*
X0154727Y0097954D01*
X0153575Y0094955D02*
X0136125Y0094955D01*
X0136125Y0091957D02*
X0139653Y0091957D01*
X0136606Y0088958D02*
X0136125Y0088958D01*
X0148162Y0091957D02*
X0152422Y0091957D01*
X0151269Y0088958D02*
X0151209Y0088958D01*
X0137606Y0109948D02*
X0136125Y0109948D01*
X0136125Y0112946D02*
X0137497Y0112946D01*
X0148130Y0124940D02*
X0157716Y0124940D01*
X0155750Y0121942D02*
X0150096Y0121942D01*
X0150096Y0118943D02*
X0155750Y0118943D01*
X0156152Y0115945D02*
X0149695Y0115945D01*
X0150426Y0032998D02*
X0150426Y0032998D01*
X0153196Y0022991D02*
X0156331Y0022991D01*
X0155625Y0019993D02*
X0149273Y0019993D01*
X0149425Y0016994D02*
X0155625Y0016994D01*
X0155625Y0016250D02*
X0155625Y0011004D01*
X0155721Y0010521D01*
X0155910Y0010066D01*
X0156183Y0009656D01*
X0156531Y0009308D01*
X0156941Y0009035D01*
X0157396Y0008846D01*
X0157879Y0008750D01*
X0163125Y0008750D01*
X0163125Y0016250D01*
X0163125Y0016250D01*
X0155625Y0016250D01*
X0155625Y0013996D02*
X0149425Y0013996D01*
X0147486Y0010997D02*
X0155626Y0010997D01*
X0163125Y0010997D02*
X0163125Y0010997D01*
X0163125Y0013996D02*
X0163125Y0013996D01*
X0163125Y0016994D02*
X0163125Y0016994D01*
X0163125Y0019993D02*
X0163125Y0019993D01*
X0163125Y0022991D02*
X0163125Y0022991D01*
X0171917Y0027225D02*
X0171917Y0027225D01*
X0173366Y0028562D02*
X0173366Y0028562D01*
X0056650Y0037984D02*
X0048892Y0037984D01*
X0048437Y0040982D02*
X0056650Y0040982D01*
X0056650Y0043981D02*
X0046969Y0043981D01*
X0049178Y0046979D02*
X0056650Y0046979D01*
X0056650Y0049978D02*
X0049403Y0049978D01*
X0047543Y0052976D02*
X0056650Y0052976D01*
X0056650Y0055975D02*
X0048762Y0055975D01*
X0049450Y0058973D02*
X0056650Y0058973D01*
X0056650Y0061972D02*
X0048548Y0061972D01*
X0047990Y0064970D02*
X0056650Y0064970D01*
X0056650Y0067969D02*
X0049450Y0067969D01*
X0048993Y0070967D02*
X0056650Y0070967D01*
X0056650Y0073966D02*
X0046933Y0073966D01*
X0049172Y0076964D02*
X0056650Y0076964D01*
X0056650Y0079963D02*
X0049409Y0079963D01*
X0047558Y0082961D02*
X0056650Y0082961D01*
X0056650Y0085960D02*
X0048756Y0085960D01*
X0049898Y0088958D02*
X0056650Y0088958D01*
X0056650Y0091957D02*
X0052897Y0091957D01*
X0055895Y0094955D02*
X0056650Y0094955D01*
X0049450Y0108796D02*
X0049450Y0109864D01*
X0048597Y0111922D01*
X0047022Y0113497D01*
X0046412Y0113750D01*
X0047022Y0114003D01*
X0048597Y0115578D01*
X0049450Y0117636D01*
X0049450Y0119864D01*
X0048597Y0121922D01*
X0047022Y0123497D01*
X0044964Y0124350D01*
X0037536Y0124350D01*
X0035478Y0123497D01*
X0033903Y0121922D01*
X0033050Y0119864D01*
X0033050Y0117636D01*
X0033903Y0115578D01*
X0035478Y0114003D01*
X0036088Y0113750D01*
X0035478Y0113497D01*
X0033903Y0111922D01*
X0033050Y0109864D01*
X0033050Y0107636D01*
X0033903Y0105578D01*
X0035478Y0104003D01*
X0036088Y0103750D01*
X0035478Y0103497D01*
X0033903Y0101922D01*
X0033050Y0099864D01*
X0033050Y0097636D01*
X0033903Y0095578D01*
X0035478Y0094003D01*
X0036088Y0093750D01*
X0035478Y0093497D01*
X0034241Y0092260D01*
X0034032Y0092902D01*
X0033824Y0093711D01*
X0032557Y0098619D01*
X0032365Y0099361D01*
X0031589Y0102369D01*
X0028767Y0107903D01*
X0024809Y0112691D01*
X0024809Y0112691D01*
X0023017Y0114086D01*
X0021700Y0115110D01*
X0021700Y0116333D01*
X0020680Y0118795D01*
X0019475Y0120000D01*
X0020680Y0121205D01*
X0021700Y0123667D01*
X0021700Y0125760D01*
X0033943Y0138004D01*
X0034288Y0137327D01*
X0034760Y0136678D01*
X0035328Y0136110D01*
X0035977Y0135638D01*
X0036692Y0135274D01*
X0037456Y0135026D01*
X0038249Y0134900D01*
X0041250Y0134900D01*
X0044251Y0134900D01*
X0045044Y0135026D01*
X0045808Y0135274D01*
X0046523Y0135638D01*
X0047172Y0136110D01*
X0047740Y0136678D01*
X0048212Y0137327D01*
X0048576Y0138042D01*
X0048824Y0138806D01*
X0048950Y0139599D01*
X0048950Y0140000D01*
X0048950Y0140401D01*
X0048824Y0141194D01*
X0048576Y0141958D01*
X0048212Y0142673D01*
X0047740Y0143322D01*
X0047172Y0143890D01*
X0046523Y0144362D01*
X0045808Y0144726D01*
X0045776Y0144737D01*
X0047022Y0145253D01*
X0048597Y0146828D01*
X0049450Y0148886D01*
X0049450Y0151114D01*
X0048597Y0153172D01*
X0047022Y0154747D01*
X0046412Y0155000D01*
X0047022Y0155253D01*
X0048597Y0156828D01*
X0049450Y0158886D01*
X0049450Y0161114D01*
X0048597Y0163172D01*
X0047022Y0164747D01*
X0046412Y0165000D01*
X0047022Y0165253D01*
X0048597Y0166828D01*
X0049450Y0168886D01*
X0049450Y0171114D01*
X0048597Y0173172D01*
X0047022Y0174747D01*
X0046412Y0175000D01*
X0047022Y0175253D01*
X0048597Y0176828D01*
X0049450Y0178886D01*
X0049450Y0181114D01*
X0048597Y0183172D01*
X0047022Y0184747D01*
X0046412Y0185000D01*
X0047022Y0185253D01*
X0048597Y0186828D01*
X0049450Y0188886D01*
X0049450Y0191114D01*
X0048597Y0193172D01*
X0047022Y0194747D01*
X0046412Y0195000D01*
X0047022Y0195253D01*
X0048597Y0196828D01*
X0049450Y0198886D01*
X0049450Y0201114D01*
X0048597Y0203172D01*
X0047022Y0204747D01*
X0046412Y0205000D01*
X0047022Y0205253D01*
X0048597Y0206828D01*
X0049450Y0208886D01*
X0049450Y0211114D01*
X0048597Y0213172D01*
X0047022Y0214747D01*
X0046412Y0215000D01*
X0047022Y0215253D01*
X0048597Y0216828D01*
X0049450Y0218886D01*
X0049450Y0221114D01*
X0048597Y0223172D01*
X0047022Y0224747D01*
X0044964Y0225600D01*
X0037536Y0225600D01*
X0035478Y0224747D01*
X0033903Y0223172D01*
X0033050Y0221114D01*
X0033050Y0218886D01*
X0033903Y0216828D01*
X0035478Y0215253D01*
X0036088Y0215000D01*
X0035478Y0214747D01*
X0033903Y0213172D01*
X0033050Y0211114D01*
X0033050Y0209033D01*
X0031299Y0207698D01*
X0031700Y0208667D01*
X0031700Y0211333D01*
X0030680Y0213795D01*
X0029475Y0215000D01*
X0030680Y0216205D01*
X0031700Y0218667D01*
X0031700Y0221333D01*
X0030680Y0223795D01*
X0028795Y0225680D01*
X0026333Y0226700D01*
X0023667Y0226700D01*
X0021205Y0225680D01*
X0020525Y0225000D01*
X0019475Y0225000D01*
X0018795Y0225680D01*
X0016333Y0226700D01*
X0013667Y0226700D01*
X0011205Y0225680D01*
X0009320Y0223795D01*
X0008300Y0221333D01*
X0008300Y0218667D01*
X0009320Y0216205D01*
X0010525Y0215000D01*
X0009320Y0213795D01*
X0008300Y0211333D01*
X0008300Y0208667D01*
X0009320Y0206205D01*
X0010525Y0205000D01*
X0009320Y0203795D01*
X0008300Y0201333D01*
X0008300Y0198667D01*
X0009320Y0196205D01*
X0010525Y0195000D01*
X0009320Y0193795D01*
X0008300Y0191333D01*
X0008300Y0188667D01*
X0009320Y0186205D01*
X0010525Y0185000D01*
X0009320Y0183795D01*
X0008300Y0181333D01*
X0008300Y0178667D01*
X0009320Y0176205D01*
X0010525Y0175000D01*
X0009320Y0173795D01*
X0008300Y0171333D01*
X0008300Y0168667D01*
X0009320Y0166205D01*
X0010525Y0165000D01*
X0009320Y0163795D01*
X0008300Y0161333D01*
X0008300Y0158667D01*
X0009320Y0156205D01*
X0010525Y0155000D01*
X0009320Y0153795D01*
X0008300Y0151333D01*
X0008300Y0148667D01*
X0009320Y0146205D01*
X0011205Y0144320D01*
X0013667Y0143300D01*
X0016333Y0143300D01*
X0018087Y0144027D01*
X0015760Y0141700D01*
X0013667Y0141700D01*
X0011205Y0140680D01*
X0009320Y0138795D01*
X0008300Y0136333D01*
X0008300Y0133667D01*
X0009320Y0131205D01*
X0010525Y0130000D01*
X0009320Y0128795D01*
X0008300Y0126333D01*
X0008300Y0123667D01*
X0009320Y0121205D01*
X0010525Y0120000D01*
X0009320Y0118795D01*
X0008300Y0116333D01*
X0008300Y0113667D01*
X0009320Y0111205D01*
X0010525Y0110000D01*
X0009320Y0108795D01*
X0008300Y0106333D01*
X0008300Y0103667D01*
X0009320Y0101205D01*
X0010525Y0100000D01*
X0009320Y0098795D01*
X0008300Y0096333D01*
X0008300Y0093667D01*
X0009320Y0091205D01*
X0010525Y0090000D01*
X0009320Y0088795D01*
X0008300Y0086333D01*
X0008300Y0083667D01*
X0009320Y0081205D01*
X0010878Y0079646D01*
X0010271Y0079039D01*
X0009697Y0078250D01*
X0009254Y0077380D01*
X0008953Y0076452D01*
X0008800Y0075488D01*
X0008800Y0075000D01*
X0015000Y0075000D01*
X0015000Y0075000D01*
X0008800Y0075000D01*
X0008800Y0074512D01*
X0008953Y0073548D01*
X0009254Y0072620D01*
X0009697Y0071750D01*
X0010271Y0070961D01*
X0010878Y0070354D01*
X0009320Y0068795D01*
X0008300Y0066333D01*
X0008300Y0063667D01*
X0009320Y0061205D01*
X0010525Y0060000D01*
X0009320Y0058795D01*
X0008300Y0056333D01*
X0008300Y0053667D01*
X0009320Y0051205D01*
X0010525Y0050000D01*
X0009320Y0048795D01*
X0008300Y0046333D01*
X0008300Y0043667D01*
X0009320Y0041205D01*
X0010400Y0040125D01*
X0010400Y0034875D01*
X0009320Y0033795D01*
X0008300Y0031333D01*
X0008300Y0028667D01*
X0009320Y0026205D01*
X0010525Y0025000D01*
X0009320Y0023795D01*
X0008300Y0021333D01*
X0008300Y0018667D01*
X0009320Y0016205D01*
X0011205Y0014320D01*
X0013667Y0013300D01*
X0016333Y0013300D01*
X0018795Y0014320D01*
X0019875Y0015400D01*
X0021307Y0015400D01*
X0023727Y0011434D01*
X0027214Y0008113D01*
X0027219Y0008100D01*
X0016284Y0008100D01*
X0008100Y0016284D01*
X0008100Y0223716D01*
X0011284Y0226900D01*
X0054753Y0226900D01*
X0053925Y0224353D01*
X0053925Y0123207D01*
X0053799Y0120641D01*
X0052798Y0115609D01*
X0050834Y0110868D01*
X0049450Y0108796D01*
X0049415Y0109948D02*
X0050220Y0109948D01*
X0051695Y0112946D02*
X0047573Y0112946D01*
X0048749Y0115945D02*
X0052865Y0115945D01*
X0053461Y0118943D02*
X0049450Y0118943D01*
X0048578Y0121942D02*
X0053863Y0121942D01*
X0053925Y0124940D02*
X0021700Y0124940D01*
X0020985Y0121942D02*
X0033922Y0121942D01*
X0033050Y0118943D02*
X0020532Y0118943D01*
X0021700Y0115945D02*
X0033750Y0115945D01*
X0034927Y0112946D02*
X0024481Y0112946D01*
X0023017Y0114086D02*
X0023017Y0114086D01*
X0027077Y0109948D02*
X0033085Y0109948D01*
X0033334Y0106949D02*
X0029253Y0106949D01*
X0030782Y0103951D02*
X0035603Y0103951D01*
X0033501Y0100952D02*
X0031955Y0100952D01*
X0032365Y0099361D02*
X0032365Y0099361D01*
X0032729Y0097954D02*
X0033050Y0097954D01*
X0033502Y0094955D02*
X0034525Y0094955D01*
X0033824Y0093711D02*
X0033824Y0093711D01*
X0009483Y0088958D02*
X0008100Y0088958D01*
X0008100Y0085960D02*
X0008300Y0085960D01*
X0008100Y0082961D02*
X0008592Y0082961D01*
X0008100Y0079963D02*
X0010562Y0079963D01*
X0009119Y0076964D02*
X0008100Y0076964D01*
X0008100Y0073966D02*
X0008887Y0073966D01*
X0008100Y0070967D02*
X0010266Y0070967D01*
X0008978Y0067969D02*
X0008100Y0067969D01*
X0008100Y0064970D02*
X0008300Y0064970D01*
X0008100Y0061972D02*
X0009002Y0061972D01*
X0009498Y0058973D02*
X0008100Y0058973D01*
X0008100Y0055975D02*
X0008300Y0055975D01*
X0008100Y0052976D02*
X0008586Y0052976D01*
X0008100Y0049978D02*
X0010502Y0049978D01*
X0008568Y0046979D02*
X0008100Y0046979D01*
X0008100Y0043981D02*
X0008300Y0043981D01*
X0008100Y0040982D02*
X0009543Y0040982D01*
X0010400Y0037984D02*
X0008100Y0037984D01*
X0008100Y0034985D02*
X0010400Y0034985D01*
X0008571Y0031987D02*
X0008100Y0031987D01*
X0008100Y0028988D02*
X0008300Y0028988D01*
X0008100Y0025990D02*
X0009535Y0025990D01*
X0008987Y0022991D02*
X0008100Y0022991D01*
X0008100Y0019993D02*
X0008300Y0019993D01*
X0008100Y0016994D02*
X0008993Y0016994D01*
X0010389Y0013996D02*
X0011988Y0013996D01*
X0013387Y0010997D02*
X0024186Y0010997D01*
X0023727Y0011434D02*
X0023727Y0011434D01*
X0022164Y0013996D02*
X0018012Y0013996D01*
X0009008Y0091957D02*
X0008100Y0091957D01*
X0008100Y0094955D02*
X0008300Y0094955D01*
X0008100Y0097954D02*
X0008972Y0097954D01*
X0009572Y0100952D02*
X0008100Y0100952D01*
X0008100Y0103951D02*
X0008300Y0103951D01*
X0008100Y0106949D02*
X0008555Y0106949D01*
X0008100Y0109948D02*
X0010473Y0109948D01*
X0008599Y0112946D02*
X0008100Y0112946D01*
X0008100Y0115945D02*
X0008300Y0115945D01*
X0008100Y0118943D02*
X0009468Y0118943D01*
X0009015Y0121942D02*
X0008100Y0121942D01*
X0008100Y0124940D02*
X0008300Y0124940D01*
X0008100Y0127939D02*
X0008965Y0127939D01*
X0009587Y0130937D02*
X0008100Y0130937D01*
X0008100Y0133936D02*
X0008300Y0133936D01*
X0008100Y0136934D02*
X0008549Y0136934D01*
X0008100Y0139933D02*
X0010458Y0139933D01*
X0008100Y0142932D02*
X0016992Y0142932D01*
X0009595Y0145930D02*
X0008100Y0145930D01*
X0008100Y0148929D02*
X0008300Y0148929D01*
X0008100Y0151927D02*
X0008546Y0151927D01*
X0008100Y0154926D02*
X0010450Y0154926D01*
X0008608Y0157924D02*
X0008100Y0157924D01*
X0008100Y0160923D02*
X0008300Y0160923D01*
X0008100Y0163921D02*
X0009446Y0163921D01*
X0009024Y0166920D02*
X0008100Y0166920D01*
X0008100Y0169918D02*
X0008300Y0169918D01*
X0008100Y0172917D02*
X0008956Y0172917D01*
X0009610Y0175915D02*
X0008100Y0175915D01*
X0008100Y0178914D02*
X0008300Y0178914D01*
X0008100Y0181912D02*
X0008540Y0181912D01*
X0008100Y0184911D02*
X0010435Y0184911D01*
X0008614Y0187909D02*
X0008100Y0187909D01*
X0008100Y0190908D02*
X0008300Y0190908D01*
X0008100Y0193906D02*
X0009431Y0193906D01*
X0009030Y0196905D02*
X0008100Y0196905D01*
X0008100Y0199903D02*
X0008300Y0199903D01*
X0008100Y0202902D02*
X0008950Y0202902D01*
X0009625Y0205900D02*
X0008100Y0205900D01*
X0008100Y0208899D02*
X0008300Y0208899D01*
X0008100Y0211897D02*
X0008534Y0211897D01*
X0008100Y0214896D02*
X0010421Y0214896D01*
X0008620Y0217894D02*
X0008100Y0217894D01*
X0008100Y0220893D02*
X0008300Y0220893D01*
X0008275Y0223891D02*
X0009416Y0223891D01*
X0011274Y0226890D02*
X0054749Y0226890D01*
X0053925Y0223891D02*
X0047878Y0223891D01*
X0049450Y0220893D02*
X0053925Y0220893D01*
X0053925Y0217894D02*
X0049039Y0217894D01*
X0046664Y0214896D02*
X0053925Y0214896D01*
X0053925Y0211897D02*
X0049126Y0211897D01*
X0049450Y0208899D02*
X0053925Y0208899D01*
X0053925Y0205900D02*
X0047670Y0205900D01*
X0048709Y0202902D02*
X0053925Y0202902D01*
X0053925Y0199903D02*
X0049450Y0199903D01*
X0048629Y0196905D02*
X0053925Y0196905D01*
X0053925Y0193906D02*
X0047863Y0193906D01*
X0049450Y0190908D02*
X0053925Y0190908D01*
X0053925Y0187909D02*
X0049045Y0187909D01*
X0046628Y0184911D02*
X0053925Y0184911D01*
X0053925Y0181912D02*
X0049119Y0181912D01*
X0049450Y0178914D02*
X0053925Y0178914D01*
X0053925Y0175915D02*
X0047685Y0175915D01*
X0048703Y0172917D02*
X0053925Y0172917D01*
X0053925Y0169918D02*
X0049450Y0169918D01*
X0048635Y0166920D02*
X0053925Y0166920D01*
X0053925Y0163921D02*
X0047848Y0163921D01*
X0049450Y0160923D02*
X0053925Y0160923D01*
X0053925Y0157924D02*
X0049052Y0157924D01*
X0046592Y0154926D02*
X0053925Y0154926D01*
X0053925Y0151927D02*
X0049113Y0151927D01*
X0049450Y0148929D02*
X0053925Y0148929D01*
X0053925Y0145930D02*
X0047700Y0145930D01*
X0048024Y0142932D02*
X0053925Y0142932D01*
X0053925Y0139933D02*
X0048950Y0139933D01*
X0048950Y0140000D02*
X0041250Y0140000D01*
X0048950Y0140000D01*
X0047927Y0136934D02*
X0053925Y0136934D01*
X0053925Y0133936D02*
X0029876Y0133936D01*
X0032874Y0136934D02*
X0034573Y0136934D01*
X0041250Y0136934D02*
X0041250Y0136934D01*
X0041250Y0134900D02*
X0041250Y0140000D01*
X0041250Y0140000D01*
X0041250Y0140000D01*
X0041250Y0134900D01*
X0041250Y0139933D02*
X0041250Y0139933D01*
X0053925Y0130937D02*
X0026877Y0130937D01*
X0023879Y0127939D02*
X0053925Y0127939D01*
X0032874Y0208899D02*
X0031700Y0208899D01*
X0031466Y0211897D02*
X0033374Y0211897D01*
X0035836Y0214896D02*
X0029579Y0214896D01*
X0031380Y0217894D02*
X0033461Y0217894D01*
X0033050Y0220893D02*
X0031700Y0220893D01*
X0030584Y0223891D02*
X0034622Y0223891D01*
D20*
X0025000Y0220000D02*
X0015000Y0220000D01*
X0015000Y0210000D02*
X0025000Y0210000D01*
X0071317Y0139933D02*
X0124639Y0139933D01*
X0124639Y0145528D02*
X0149226Y0145528D01*
X0154351Y0147651D02*
X0170000Y0163300D01*
X0154350Y0147651D02*
X0154223Y0147526D01*
X0154093Y0147405D01*
X0153960Y0147288D01*
X0153823Y0147173D01*
X0153685Y0147062D01*
X0153543Y0146954D01*
X0153399Y0146850D01*
X0153252Y0146749D01*
X0153103Y0146652D01*
X0152952Y0146559D01*
X0152798Y0146469D01*
X0152642Y0146384D01*
X0152484Y0146302D01*
X0152324Y0146224D01*
X0152163Y0146150D01*
X0151999Y0146080D01*
X0151834Y0146014D01*
X0151667Y0145952D01*
X0151499Y0145894D01*
X0151330Y0145840D01*
X0151159Y0145791D01*
X0150987Y0145745D01*
X0150814Y0145704D01*
X0150640Y0145667D01*
X0150465Y0145635D01*
X0150289Y0145606D01*
X0150113Y0145583D01*
X0149936Y0145563D01*
X0149759Y0145548D01*
X0149582Y0145537D01*
X0149404Y0145530D01*
X0149226Y0145528D01*
X0194375Y0138538D02*
X0194375Y0090078D01*
X0194368Y0089463D01*
X0194346Y0088849D01*
X0194309Y0088235D01*
X0194258Y0087622D01*
X0194192Y0087010D01*
X0194112Y0086401D01*
X0194017Y0085793D01*
X0193908Y0085188D01*
X0193784Y0084586D01*
X0193647Y0083986D01*
X0193495Y0083390D01*
X0193328Y0082798D01*
X0193148Y0082210D01*
X0192954Y0081627D01*
X0192746Y0081048D01*
X0192524Y0080475D01*
X0192289Y0079906D01*
X0192040Y0079344D01*
X0191778Y0078788D01*
X0191503Y0078238D01*
X0191214Y0077695D01*
X0190913Y0077158D01*
X0190599Y0076630D01*
X0190273Y0076108D01*
X0189935Y0075595D01*
X0189584Y0075090D01*
X0189221Y0074593D01*
X0188847Y0074105D01*
X0188461Y0073627D01*
X0188064Y0073157D01*
X0187656Y0072697D01*
X0187237Y0072247D01*
X0186807Y0071807D01*
X0175000Y0043303D02*
X0175000Y0042516D01*
X0170855Y0033049D02*
X0169975Y0032236D01*
X0162657Y0029375D02*
X0158480Y0029375D01*
X0162657Y0029375D02*
X0162916Y0029378D01*
X0163176Y0029387D01*
X0163435Y0029403D01*
X0163693Y0029425D01*
X0163951Y0029453D01*
X0164208Y0029487D01*
X0164464Y0029527D01*
X0164720Y0029574D01*
X0164974Y0029627D01*
X0165226Y0029685D01*
X0165478Y0029750D01*
X0165727Y0029821D01*
X0165975Y0029898D01*
X0166221Y0029981D01*
X0166465Y0030069D01*
X0166706Y0030164D01*
X0166946Y0030264D01*
X0167182Y0030370D01*
X0167416Y0030482D01*
X0167648Y0030599D01*
X0167876Y0030722D01*
X0168102Y0030850D01*
X0168324Y0030983D01*
X0168543Y0031122D01*
X0168759Y0031266D01*
X0168971Y0031416D01*
X0169180Y0031570D01*
X0169385Y0031729D01*
X0169585Y0031894D01*
X0169782Y0032063D01*
X0169975Y0032236D01*
X0170855Y0033048D02*
X0171082Y0033263D01*
X0171304Y0033483D01*
X0171520Y0033709D01*
X0171731Y0033940D01*
X0171937Y0034176D01*
X0172136Y0034417D01*
X0172330Y0034662D01*
X0172518Y0034913D01*
X0172699Y0035167D01*
X0172874Y0035427D01*
X0173043Y0035690D01*
X0173206Y0035957D01*
X0173362Y0036228D01*
X0173511Y0036503D01*
X0173654Y0036781D01*
X0173789Y0037063D01*
X0173918Y0037348D01*
X0174040Y0037636D01*
X0174155Y0037927D01*
X0174263Y0038221D01*
X0174364Y0038517D01*
X0174457Y0038815D01*
X0174543Y0039116D01*
X0174622Y0039419D01*
X0174694Y0039723D01*
X0174758Y0040029D01*
X0174814Y0040337D01*
X0174864Y0040646D01*
X0174905Y0040956D01*
X0174939Y0041267D01*
X0174966Y0041578D01*
X0174985Y0041891D01*
X0174996Y0042203D01*
X0175000Y0042516D01*
X0147092Y0024820D02*
X0138750Y0016875D01*
X0141425Y0016250D01*
X0147092Y0024820D02*
X0147380Y0025087D01*
X0147674Y0025348D01*
X0147974Y0025601D01*
X0148280Y0025848D01*
X0148591Y0026086D01*
X0148908Y0026318D01*
X0149231Y0026542D01*
X0149559Y0026758D01*
X0149892Y0026966D01*
X0150230Y0027166D01*
X0150572Y0027358D01*
X0150919Y0027542D01*
X0151270Y0027718D01*
X0151626Y0027885D01*
X0151985Y0028044D01*
X0152348Y0028194D01*
X0152714Y0028335D01*
X0153083Y0028468D01*
X0153456Y0028592D01*
X0153832Y0028707D01*
X0154210Y0028813D01*
X0154590Y0028910D01*
X0154973Y0028998D01*
X0155357Y0029077D01*
X0155744Y0029147D01*
X0156132Y0029207D01*
X0156521Y0029258D01*
X0156912Y0029300D01*
X0157303Y0029333D01*
X0157695Y0029356D01*
X0158087Y0029370D01*
X0158480Y0029375D01*
X0106875Y0046426D02*
X0106881Y0046934D01*
X0106900Y0047442D01*
X0106931Y0047949D01*
X0106975Y0048455D01*
X0107031Y0048960D01*
X0107099Y0049463D01*
X0107180Y0049965D01*
X0107273Y0050465D01*
X0107378Y0050962D01*
X0107495Y0051456D01*
X0107625Y0051947D01*
X0107766Y0052435D01*
X0107920Y0052920D01*
X0108085Y0053400D01*
X0108262Y0053876D01*
X0108451Y0054348D01*
X0108651Y0054815D01*
X0108863Y0055277D01*
X0109085Y0055733D01*
X0109319Y0056184D01*
X0109564Y0056629D01*
X0109820Y0057068D01*
X0110087Y0057501D01*
X0110364Y0057927D01*
X0110651Y0058346D01*
X0110949Y0058758D01*
X0111256Y0059162D01*
X0111574Y0059559D01*
X0111901Y0059947D01*
X0112238Y0060328D01*
X0112583Y0060700D01*
X0112938Y0061064D01*
X0112938Y0061063D02*
X0116590Y0064715D01*
X0117279Y0064715D01*
X0106875Y0046426D02*
X0106875Y0042500D01*
X0103125Y0038750D01*
X0071250Y0038750D01*
X0063750Y0021250D02*
X0063750Y0010625D01*
X0071250Y0068750D02*
X0090000Y0065000D01*
X0095625Y0064715D01*
X0075000Y0088750D02*
X0085453Y0098728D01*
X0075000Y0088750D02*
X0071250Y0088750D01*
X0020625Y0070625D02*
X0015000Y0075000D01*
X0197619Y0146369D02*
X0197725Y0146475D01*
X0201588Y0148863D02*
X0205000Y0150000D01*
X0201588Y0148863D02*
X0201360Y0148784D01*
X0201134Y0148699D01*
X0200911Y0148609D01*
X0200689Y0148514D01*
X0200470Y0148413D01*
X0200254Y0148307D01*
X0200040Y0148195D01*
X0199829Y0148079D01*
X0199621Y0147957D01*
X0199416Y0147830D01*
X0199214Y0147698D01*
X0199015Y0147562D01*
X0198820Y0147420D01*
X0198628Y0147274D01*
X0198440Y0147123D01*
X0198255Y0146968D01*
X0198075Y0146808D01*
X0197898Y0146644D01*
X0197725Y0146476D01*
X0197619Y0146369D02*
X0197435Y0146181D01*
X0197255Y0145988D01*
X0197080Y0145791D01*
X0196910Y0145589D01*
X0196744Y0145384D01*
X0196584Y0145175D01*
X0196429Y0144962D01*
X0196278Y0144746D01*
X0196133Y0144526D01*
X0195993Y0144302D01*
X0195859Y0144075D01*
X0195730Y0143846D01*
X0195606Y0143613D01*
X0195488Y0143377D01*
X0195376Y0143139D01*
X0195269Y0142898D01*
X0195168Y0142654D01*
X0195073Y0142408D01*
X0194984Y0142160D01*
X0194901Y0141910D01*
X0194824Y0141658D01*
X0194752Y0141404D01*
X0194687Y0141149D01*
X0194628Y0140892D01*
X0194575Y0140634D01*
X0194528Y0140375D01*
X0194488Y0140114D01*
X0194453Y0139853D01*
X0194425Y0139591D01*
X0194403Y0139328D01*
X0194388Y0139065D01*
X0194378Y0138802D01*
X0194375Y0138538D01*
X0186807Y0071807D02*
X0186137Y0071121D01*
X0185483Y0070419D01*
X0184846Y0069701D01*
X0184226Y0068969D01*
X0183624Y0068222D01*
X0183040Y0067460D01*
X0182475Y0066686D01*
X0181927Y0065898D01*
X0181399Y0065097D01*
X0180890Y0064284D01*
X0180401Y0063459D01*
X0179931Y0062622D01*
X0179481Y0061775D01*
X0179052Y0060917D01*
X0178643Y0060049D01*
X0178255Y0059171D01*
X0177888Y0058285D01*
X0177542Y0057390D01*
X0177217Y0056487D01*
X0176914Y0055577D01*
X0176633Y0054660D01*
X0176374Y0053736D01*
X0176136Y0052807D01*
X0175921Y0051872D01*
X0175728Y0050932D01*
X0175558Y0049988D01*
X0175410Y0049040D01*
X0175285Y0048089D01*
X0175183Y0047135D01*
X0175103Y0046179D01*
X0175046Y0045221D01*
X0175011Y0044262D01*
X0175000Y0043303D01*
D21*
X0175000Y0090000D03*
X0175000Y0200000D03*
X0110000Y0201250D03*
X0050000Y0128750D03*
X0032500Y0031875D03*
D22*
X0024686Y0019689D02*
X0024792Y0019343D01*
X0024907Y0018999D01*
X0025029Y0018659D01*
X0025160Y0018321D01*
X0025299Y0017986D01*
X0025446Y0017655D01*
X0025600Y0017328D01*
X0025762Y0017004D01*
X0025932Y0016684D01*
X0026110Y0016368D01*
X0026295Y0016057D01*
X0026487Y0015750D01*
X0026687Y0015448D01*
X0026893Y0015151D01*
X0027107Y0014858D01*
X0027328Y0014571D01*
X0027555Y0014289D01*
X0027789Y0014013D01*
X0028030Y0013742D01*
X0028277Y0013477D01*
X0028530Y0013218D01*
X0028789Y0012965D01*
X0029054Y0012719D01*
X0029325Y0012478D01*
X0029602Y0012245D01*
X0029884Y0012018D01*
X0030171Y0011797D01*
X0030464Y0011584D01*
X0030762Y0011377D01*
X0031064Y0011178D01*
X0031371Y0010986D01*
X0031683Y0010802D01*
X0031998Y0010624D01*
X0031998Y0010625D02*
X0033750Y0010625D01*
X0024685Y0019690D02*
X0022500Y0020000D01*
X0024375Y0020000D01*
X0024375Y0045622D01*
X0019038Y0054712D02*
X0015000Y0055000D01*
X0015000Y0045000D02*
X0015000Y0030000D01*
X0015000Y0020000D02*
X0022500Y0020000D01*
X0024375Y0045622D02*
X0024324Y0045956D01*
X0024265Y0046289D01*
X0024198Y0046620D01*
X0024123Y0046950D01*
X0024040Y0047278D01*
X0023949Y0047603D01*
X0023850Y0047926D01*
X0023742Y0048247D01*
X0023628Y0048565D01*
X0023505Y0048880D01*
X0023375Y0049192D01*
X0023237Y0049500D01*
X0023091Y0049805D01*
X0022938Y0050107D01*
X0022778Y0050404D01*
X0022610Y0050698D01*
X0022436Y0050987D01*
X0022254Y0051272D01*
X0022065Y0051553D01*
X0021870Y0051828D01*
X0021667Y0052099D01*
X0021459Y0052365D01*
X0021243Y0052626D01*
X0021022Y0052881D01*
X0020794Y0053131D01*
X0020560Y0053375D01*
X0020320Y0053613D01*
X0020075Y0053845D01*
X0019824Y0054071D01*
X0019567Y0054291D01*
X0019305Y0054505D01*
X0019038Y0054712D01*
X0061250Y0037199D02*
X0061250Y0099500D01*
X0070250Y0108500D01*
X0071250Y0108750D01*
X0074576Y0099500D02*
X0074724Y0099502D01*
X0074872Y0099508D01*
X0075020Y0099517D01*
X0075168Y0099530D01*
X0075315Y0099547D01*
X0075462Y0099567D01*
X0075608Y0099592D01*
X0075754Y0099620D01*
X0075899Y0099651D01*
X0076043Y0099687D01*
X0076186Y0099726D01*
X0076328Y0099768D01*
X0076469Y0099815D01*
X0076608Y0099864D01*
X0076747Y0099918D01*
X0076884Y0099974D01*
X0077019Y0100034D01*
X0077153Y0100098D01*
X0077285Y0100165D01*
X0077416Y0100235D01*
X0077545Y0100309D01*
X0077671Y0100386D01*
X0077796Y0100466D01*
X0077919Y0100549D01*
X0078040Y0100635D01*
X0078158Y0100724D01*
X0078274Y0100817D01*
X0078388Y0100912D01*
X0078499Y0101010D01*
X0078608Y0101111D01*
X0078714Y0101214D01*
X0080550Y0103050D01*
X0074576Y0099500D02*
X0072500Y0099500D01*
X0071250Y0098750D01*
X0091870Y0108355D02*
X0116195Y0110578D01*
X0120386Y0109367D01*
X0120523Y0109325D01*
X0120660Y0109279D01*
X0120795Y0109230D01*
X0120928Y0109178D01*
X0121061Y0109121D01*
X0121191Y0109062D01*
X0121320Y0108998D01*
X0121448Y0108932D01*
X0121573Y0108861D01*
X0121696Y0108788D01*
X0121818Y0108711D01*
X0121937Y0108631D01*
X0122055Y0108548D01*
X0122169Y0108462D01*
X0122282Y0108372D01*
X0122392Y0108280D01*
X0122500Y0108185D01*
X0122605Y0108087D01*
X0122707Y0107986D01*
X0122807Y0107882D01*
X0122903Y0107776D01*
X0122997Y0107667D01*
X0123088Y0107556D01*
X0123176Y0107442D01*
X0123261Y0107326D01*
X0123343Y0107208D01*
X0123421Y0107087D01*
X0123496Y0106965D01*
X0123568Y0106841D01*
X0123637Y0106714D01*
X0123702Y0106586D01*
X0123763Y0106456D01*
X0123822Y0106325D01*
X0123876Y0106192D01*
X0123927Y0106058D01*
X0123974Y0105922D01*
X0124018Y0105785D01*
X0124058Y0105647D01*
X0124094Y0105508D01*
X0124127Y0105368D01*
X0124156Y0105227D01*
X0124181Y0105086D01*
X0124202Y0104943D01*
X0124219Y0104801D01*
X0124233Y0104658D01*
X0124242Y0104514D01*
X0124248Y0104371D01*
X0124250Y0104227D01*
X0124250Y0092750D01*
X0091869Y0108356D02*
X0091432Y0108310D01*
X0090996Y0108255D01*
X0090561Y0108189D01*
X0090127Y0108112D01*
X0089696Y0108025D01*
X0089267Y0107928D01*
X0088841Y0107820D01*
X0088417Y0107703D01*
X0087996Y0107575D01*
X0087578Y0107437D01*
X0087164Y0107290D01*
X0086753Y0107132D01*
X0086346Y0106965D01*
X0085944Y0106787D01*
X0085545Y0106601D01*
X0085152Y0106405D01*
X0084763Y0106199D01*
X0084379Y0105984D01*
X0084000Y0105760D01*
X0083627Y0105528D01*
X0083260Y0105286D01*
X0082898Y0105035D01*
X0082543Y0104776D01*
X0082193Y0104509D01*
X0081851Y0104233D01*
X0081515Y0103949D01*
X0081186Y0103657D01*
X0080864Y0103357D01*
X0080549Y0103050D01*
X0073285Y0149995D02*
X0071250Y0150000D01*
X0073285Y0149995D02*
X0087239Y0150088D01*
X0087238Y0150088D02*
X0087636Y0150096D01*
X0088033Y0150113D01*
X0088430Y0150140D01*
X0088826Y0150177D01*
X0089221Y0150223D01*
X0089615Y0150279D01*
X0090008Y0150345D01*
X0090398Y0150420D01*
X0090787Y0150504D01*
X0091173Y0150598D01*
X0091557Y0150702D01*
X0091939Y0150815D01*
X0092317Y0150937D01*
X0092693Y0151068D01*
X0093065Y0151209D01*
X0093434Y0151358D01*
X0093798Y0151517D01*
X0094159Y0151684D01*
X0094516Y0151860D01*
X0094868Y0152045D01*
X0095216Y0152238D01*
X0095559Y0152440D01*
X0095896Y0152650D01*
X0096229Y0152869D01*
X0096556Y0153095D01*
X0096877Y0153329D01*
X0097193Y0153571D01*
X0097503Y0153821D01*
X0097806Y0154078D01*
X0098103Y0154343D01*
X0098394Y0154615D01*
X0098678Y0154893D01*
X0098954Y0155179D01*
X0099224Y0155471D01*
X0099487Y0155770D01*
X0099742Y0156075D01*
X0099990Y0156386D01*
X0100230Y0156703D01*
X0100462Y0157026D01*
X0100686Y0157355D01*
X0100903Y0157689D01*
X0101110Y0158028D01*
X0101310Y0158372D01*
X0101750Y0159152D01*
X0085738Y0176628D02*
X0134314Y0176882D01*
X0135315Y0166430D02*
X0144116Y0163919D01*
X0148706Y0163266D01*
X0153500Y0163300D01*
X0149672Y0171500D02*
X0072500Y0171500D01*
X0071250Y0170000D01*
X0072500Y0178250D02*
X0071250Y0180000D01*
X0072500Y0178250D02*
X0081000Y0178250D01*
X0085738Y0176628D01*
X0087071Y0195000D02*
X0114338Y0195000D01*
X0118029Y0193471D02*
X0126500Y0185000D01*
X0118029Y0193471D02*
X0117928Y0193570D01*
X0117824Y0193666D01*
X0117717Y0193758D01*
X0117608Y0193849D01*
X0117497Y0193936D01*
X0117383Y0194020D01*
X0117267Y0194101D01*
X0117149Y0194178D01*
X0117029Y0194253D01*
X0116907Y0194324D01*
X0116783Y0194392D01*
X0116657Y0194456D01*
X0116530Y0194518D01*
X0116401Y0194575D01*
X0116270Y0194629D01*
X0116138Y0194680D01*
X0116005Y0194727D01*
X0115870Y0194770D01*
X0115735Y0194810D01*
X0115598Y0194846D01*
X0115460Y0194878D01*
X0115322Y0194906D01*
X0115183Y0194931D01*
X0115043Y0194952D01*
X0114902Y0194969D01*
X0114762Y0194983D01*
X0114621Y0194992D01*
X0114479Y0194998D01*
X0114338Y0195000D01*
X0110000Y0201250D02*
X0094874Y0201250D01*
X0087071Y0195000D02*
X0086665Y0195005D01*
X0086259Y0195019D01*
X0085853Y0195043D01*
X0085448Y0195077D01*
X0085044Y0195121D01*
X0084642Y0195174D01*
X0084240Y0195236D01*
X0083840Y0195308D01*
X0083442Y0195390D01*
X0083046Y0195481D01*
X0082653Y0195582D01*
X0082262Y0195691D01*
X0081873Y0195811D01*
X0081488Y0195939D01*
X0081105Y0196076D01*
X0080726Y0196223D01*
X0080351Y0196378D01*
X0079979Y0196543D01*
X0079612Y0196716D01*
X0079249Y0196898D01*
X0078890Y0197088D01*
X0078535Y0197287D01*
X0078186Y0197494D01*
X0077842Y0197710D01*
X0077503Y0197934D01*
X0077169Y0198165D01*
X0076841Y0198405D01*
X0076518Y0198652D01*
X0076202Y0198907D01*
X0075892Y0199170D01*
X0075588Y0199439D01*
X0075291Y0199716D01*
X0075000Y0200000D01*
X0071250Y0200000D01*
X0071250Y0210000D02*
X0073750Y0210000D01*
X0074259Y0209503D01*
X0074779Y0209019D01*
X0075311Y0208547D01*
X0075854Y0208088D01*
X0076407Y0207641D01*
X0076971Y0207209D01*
X0077545Y0206789D01*
X0078129Y0206384D01*
X0078723Y0205992D01*
X0079326Y0205615D01*
X0079937Y0205252D01*
X0080557Y0204904D01*
X0081185Y0204571D01*
X0081821Y0204253D01*
X0082464Y0203950D01*
X0083114Y0203662D01*
X0083771Y0203390D01*
X0084434Y0203134D01*
X0085103Y0202893D01*
X0085778Y0202669D01*
X0086458Y0202460D01*
X0087142Y0202268D01*
X0087831Y0202092D01*
X0088524Y0201933D01*
X0089220Y0201790D01*
X0089920Y0201664D01*
X0090622Y0201554D01*
X0091327Y0201461D01*
X0092034Y0201385D01*
X0092743Y0201326D01*
X0093453Y0201284D01*
X0094163Y0201258D01*
X0094874Y0201250D01*
X0126250Y0232500D02*
X0140625Y0212500D01*
X0153500Y0185000D02*
X0153041Y0184543D01*
X0152571Y0184097D01*
X0152090Y0183662D01*
X0151600Y0183239D01*
X0151099Y0182827D01*
X0150588Y0182428D01*
X0150068Y0182042D01*
X0149539Y0181667D01*
X0149002Y0181306D01*
X0148455Y0180957D01*
X0147901Y0180622D01*
X0147338Y0180300D01*
X0146769Y0179992D01*
X0146191Y0179697D01*
X0145607Y0179416D01*
X0145017Y0179149D01*
X0144420Y0178897D01*
X0143817Y0178659D01*
X0143209Y0178435D01*
X0142596Y0178226D01*
X0141978Y0178032D01*
X0141355Y0177852D01*
X0140728Y0177688D01*
X0140098Y0177539D01*
X0139464Y0177404D01*
X0138827Y0177285D01*
X0138187Y0177181D01*
X0137545Y0177093D01*
X0136901Y0177020D01*
X0136256Y0176962D01*
X0135609Y0176920D01*
X0134962Y0176894D01*
X0134314Y0176882D01*
X0149672Y0171500D02*
X0150021Y0171504D01*
X0150370Y0171517D01*
X0150719Y0171537D01*
X0151067Y0171566D01*
X0151414Y0171604D01*
X0151760Y0171649D01*
X0152105Y0171703D01*
X0152449Y0171765D01*
X0152791Y0171835D01*
X0153132Y0171914D01*
X0153470Y0172000D01*
X0153806Y0172094D01*
X0154140Y0172197D01*
X0154471Y0172307D01*
X0154800Y0172425D01*
X0155126Y0172551D01*
X0155448Y0172685D01*
X0155768Y0172826D01*
X0156084Y0172975D01*
X0156396Y0173131D01*
X0156704Y0173295D01*
X0157009Y0173466D01*
X0157309Y0173644D01*
X0157605Y0173829D01*
X0157897Y0174022D01*
X0158184Y0174221D01*
X0158466Y0174427D01*
X0158743Y0174639D01*
X0159015Y0174859D01*
X0159281Y0175084D01*
X0159543Y0175316D01*
X0159798Y0175554D01*
X0160048Y0175798D01*
X0169250Y0185000D01*
X0170000Y0185000D01*
X0163750Y0119660D02*
X0164750Y0117500D01*
X0173750Y0108500D01*
X0173864Y0098439D01*
X0169250Y0093825D01*
X0169250Y0083750D01*
X0154829Y0085399D02*
X0160250Y0099500D01*
X0162500Y0101750D01*
X0163750Y0103125D01*
X0152315Y0050231D02*
X0152315Y0048819D01*
X0144974Y0041716D01*
X0138224Y0038634D01*
X0135500Y0038750D01*
X0110750Y0038750D01*
X0104000Y0032000D01*
X0071415Y0032000D01*
X0061744Y0036006D02*
X0061690Y0036062D01*
X0061639Y0036121D01*
X0061591Y0036182D01*
X0061545Y0036246D01*
X0061503Y0036311D01*
X0061463Y0036378D01*
X0061427Y0036447D01*
X0061394Y0036518D01*
X0061364Y0036590D01*
X0061337Y0036663D01*
X0061314Y0036737D01*
X0061295Y0036813D01*
X0061279Y0036889D01*
X0061266Y0036966D01*
X0061257Y0037043D01*
X0061252Y0037121D01*
X0061250Y0037199D01*
X0061744Y0036006D02*
X0061984Y0035771D01*
X0062230Y0035543D01*
X0062482Y0035321D01*
X0062738Y0035105D01*
X0063000Y0034895D01*
X0063268Y0034692D01*
X0063540Y0034495D01*
X0063816Y0034305D01*
X0064098Y0034122D01*
X0064384Y0033946D01*
X0064674Y0033777D01*
X0064968Y0033615D01*
X0065266Y0033460D01*
X0065567Y0033313D01*
X0065873Y0033173D01*
X0066181Y0033041D01*
X0066493Y0032916D01*
X0066807Y0032800D01*
X0067125Y0032690D01*
X0067445Y0032589D01*
X0067767Y0032495D01*
X0068092Y0032410D01*
X0068418Y0032332D01*
X0068747Y0032263D01*
X0069077Y0032201D01*
X0069408Y0032148D01*
X0069741Y0032103D01*
X0070074Y0032066D01*
X0070409Y0032037D01*
X0070744Y0032016D01*
X0071079Y0032004D01*
X0071415Y0032000D01*
X0152315Y0050230D02*
X0152417Y0051394D01*
X0152546Y0052554D01*
X0152703Y0053711D01*
X0152887Y0054865D01*
X0153099Y0056013D01*
X0153337Y0057156D01*
X0153603Y0058293D01*
X0153896Y0059423D01*
X0154216Y0060547D01*
X0154563Y0061662D01*
X0154936Y0062768D01*
X0155335Y0063866D01*
X0155760Y0064953D01*
X0156211Y0066031D01*
X0156687Y0067097D01*
X0157189Y0068151D01*
X0157715Y0069194D01*
X0158267Y0070223D01*
X0158842Y0071239D01*
X0159442Y0072241D01*
X0160065Y0073229D01*
X0160712Y0074201D01*
X0161381Y0075158D01*
X0162073Y0076099D01*
X0162788Y0077022D01*
X0163524Y0077929D01*
X0164281Y0078818D01*
X0165060Y0079688D01*
X0165859Y0080540D01*
X0166678Y0081372D01*
X0167516Y0082185D01*
X0168374Y0082978D01*
X0169250Y0083749D01*
D23*
X0126250Y0232500D03*
D24*
X0140625Y0212500D03*
D25*
X0135315Y0166430D03*
X0101750Y0159152D03*
X0190000Y0171500D03*
D26*
X0127325Y0163300D02*
X0126500Y0163300D01*
D27*
X0110000Y0163300D01*
X0124639Y0160614D02*
X0124639Y0145528D01*
X0124639Y0139933D01*
X0125133Y0139933D01*
X0125000Y0139800D01*
X0125000Y0130000D01*
X0130625Y0124375D01*
X0130625Y0119364D01*
X0138463Y0119364D01*
X0138792Y0119693D01*
X0142064Y0119693D01*
X0142096Y0119660D01*
X0130625Y0119364D02*
X0130625Y0102500D01*
X0141471Y0102500D01*
X0142096Y0103125D01*
X0130625Y0102500D02*
X0130625Y0081875D01*
X0131250Y0081250D01*
X0117279Y0081250D01*
X0117279Y0064715D02*
X0117279Y0064596D01*
X0122500Y0059375D01*
X0122502Y0059317D01*
X0122507Y0059260D01*
X0122516Y0059203D01*
X0122529Y0059147D01*
X0122545Y0059092D01*
X0122565Y0059037D01*
X0122588Y0058985D01*
X0122614Y0058933D01*
X0122644Y0058884D01*
X0122676Y0058836D01*
X0122712Y0058791D01*
X0122750Y0058748D01*
X0122791Y0058707D01*
X0122835Y0058670D01*
X0122880Y0058634D01*
X0122928Y0058602D01*
X0122978Y0058573D01*
X0123030Y0058548D01*
X0123083Y0058525D01*
X0127520Y0056810D01*
X0130800Y0055625D01*
X0141662Y0051638D01*
X0071317Y0139933D02*
X0071250Y0140000D01*
X0124639Y0160614D02*
X0127325Y0163300D01*
X0170000Y0163300D02*
X0186500Y0163300D01*
D28*
X0124250Y0092750D03*
X0154829Y0085399D03*
D29*
X0085453Y0098728D03*
D30*
X0071875Y0079375D02*
X0071600Y0079000D01*
X0071250Y0078750D01*
X0177050Y0132597D02*
X0177050Y0132979D01*
X0180937Y0123213D02*
X0182600Y0121550D01*
X0184450Y0121550D01*
X0185500Y0120000D01*
X0180937Y0123213D02*
X0180716Y0123439D01*
X0180501Y0123670D01*
X0180291Y0123906D01*
X0180087Y0124147D01*
X0179889Y0124393D01*
X0179697Y0124644D01*
X0179511Y0124899D01*
X0179331Y0125159D01*
X0179157Y0125422D01*
X0178989Y0125690D01*
X0178828Y0125961D01*
X0178673Y0126237D01*
X0178525Y0126516D01*
X0178384Y0126798D01*
X0178249Y0127084D01*
X0178121Y0127373D01*
X0178001Y0127665D01*
X0177887Y0127959D01*
X0177780Y0128256D01*
X0177680Y0128556D01*
X0177588Y0128858D01*
X0177502Y0129162D01*
X0177424Y0129468D01*
X0177353Y0129776D01*
X0177290Y0130085D01*
X0177234Y0130396D01*
X0177185Y0130708D01*
X0177144Y0131021D01*
X0177110Y0131336D01*
X0177084Y0131650D01*
X0177065Y0131966D01*
X0177054Y0132281D01*
X0177050Y0132597D01*
X0183358Y0148208D02*
X0193490Y0157090D01*
X0197400Y0169547D02*
X0197400Y0196779D01*
X0201764Y0207314D02*
X0204800Y0210350D01*
X0205000Y0210000D01*
X0197400Y0212200D02*
X0204800Y0219600D01*
X0205000Y0220000D01*
X0197400Y0212250D02*
X0197400Y0212200D01*
X0197400Y0212250D02*
X0180723Y0192192D01*
X0178275Y0188399D02*
X0178275Y0182568D01*
X0179561Y0179464D02*
X0182600Y0177050D01*
X0182575Y0177050D01*
X0190000Y0171500D01*
X0197400Y0169547D02*
X0197431Y0169142D01*
X0197453Y0168737D01*
X0197464Y0168331D01*
X0197467Y0167925D01*
X0197459Y0167519D01*
X0197442Y0167113D01*
X0197415Y0166708D01*
X0197379Y0166304D01*
X0197333Y0165901D01*
X0197277Y0165499D01*
X0197212Y0165098D01*
X0197137Y0164699D01*
X0197053Y0164302D01*
X0196959Y0163907D01*
X0196856Y0163514D01*
X0196744Y0163124D01*
X0196622Y0162737D01*
X0196491Y0162352D01*
X0196352Y0161971D01*
X0196203Y0161593D01*
X0196045Y0161219D01*
X0195878Y0160849D01*
X0195703Y0160483D01*
X0195519Y0160121D01*
X0195326Y0159764D01*
X0195125Y0159411D01*
X0194915Y0159064D01*
X0194698Y0158721D01*
X0194472Y0158383D01*
X0194238Y0158052D01*
X0193997Y0157725D01*
X0193747Y0157405D01*
X0193490Y0157090D01*
X0183358Y0148207D02*
X0183000Y0147841D01*
X0182650Y0147465D01*
X0182310Y0147082D01*
X0181979Y0146691D01*
X0181658Y0146292D01*
X0181346Y0145885D01*
X0181043Y0145471D01*
X0180751Y0145050D01*
X0180469Y0144622D01*
X0180197Y0144188D01*
X0179935Y0143747D01*
X0179684Y0143300D01*
X0179444Y0142847D01*
X0179215Y0142389D01*
X0178996Y0141925D01*
X0178789Y0141457D01*
X0178593Y0140983D01*
X0178408Y0140505D01*
X0178234Y0140023D01*
X0178073Y0139536D01*
X0177922Y0139046D01*
X0177784Y0138553D01*
X0177657Y0138056D01*
X0177542Y0137557D01*
X0177439Y0137055D01*
X0177348Y0136550D01*
X0177269Y0136044D01*
X0177202Y0135536D01*
X0177148Y0135026D01*
X0177105Y0134515D01*
X0177074Y0134004D01*
X0177056Y0133492D01*
X0177050Y0132979D01*
X0179561Y0179464D02*
X0179472Y0179555D01*
X0179386Y0179650D01*
X0179302Y0179746D01*
X0179221Y0179845D01*
X0179144Y0179946D01*
X0179069Y0180050D01*
X0178997Y0180156D01*
X0178929Y0180263D01*
X0178863Y0180373D01*
X0178801Y0180485D01*
X0178742Y0180598D01*
X0178686Y0180713D01*
X0178634Y0180829D01*
X0178585Y0180947D01*
X0178540Y0181067D01*
X0178498Y0181187D01*
X0178459Y0181309D01*
X0178425Y0181432D01*
X0178393Y0181556D01*
X0178366Y0181680D01*
X0178342Y0181806D01*
X0178321Y0181932D01*
X0178305Y0182058D01*
X0178292Y0182185D01*
X0178282Y0182313D01*
X0178277Y0182440D01*
X0178275Y0182568D01*
X0178275Y0188400D02*
X0178313Y0188554D01*
X0178354Y0188707D01*
X0178399Y0188860D01*
X0178447Y0189011D01*
X0178499Y0189161D01*
X0178555Y0189310D01*
X0178614Y0189457D01*
X0178677Y0189603D01*
X0178743Y0189747D01*
X0178812Y0189890D01*
X0178885Y0190031D01*
X0178962Y0190171D01*
X0179041Y0190308D01*
X0179124Y0190443D01*
X0179210Y0190577D01*
X0179300Y0190708D01*
X0179392Y0190837D01*
X0179487Y0190964D01*
X0179586Y0191089D01*
X0179687Y0191211D01*
X0179792Y0191331D01*
X0179899Y0191448D01*
X0180009Y0191563D01*
X0180121Y0191675D01*
X0180237Y0191784D01*
X0180354Y0191890D01*
X0180475Y0191994D01*
X0180598Y0192095D01*
X0180723Y0192192D01*
X0197400Y0196779D02*
X0197404Y0197134D01*
X0197417Y0197488D01*
X0197438Y0197842D01*
X0197467Y0198195D01*
X0197505Y0198548D01*
X0197552Y0198899D01*
X0197606Y0199250D01*
X0197669Y0199598D01*
X0197740Y0199946D01*
X0197820Y0200291D01*
X0197908Y0200635D01*
X0198003Y0200976D01*
X0198107Y0201315D01*
X0198219Y0201652D01*
X0198339Y0201985D01*
X0198467Y0202316D01*
X0198603Y0202644D01*
X0198746Y0202968D01*
X0198897Y0203289D01*
X0199056Y0203606D01*
X0199222Y0203919D01*
X0199396Y0204228D01*
X0199577Y0204533D01*
X0199765Y0204833D01*
X0199960Y0205129D01*
X0200162Y0205421D01*
X0200372Y0205707D01*
X0200587Y0205988D01*
X0200810Y0206264D01*
X0201039Y0206535D01*
X0201274Y0206800D01*
X0201516Y0207060D01*
X0201764Y0207313D01*
M02*
