G75*
%MOIN*%
%OFA0B0*%
%FSLAX25Y25*%
%IPPOS*%
%LPD*%
%AMOC8*
5,1,8,0,0,1.08239X$1,22.5*
%
%ADD10C,0.00000*%
%ADD11C,0.01000*%
%ADD12C,0.01200*%
%ADD13C,0.07800*%
%ADD14C,0.00500*%
%ADD15C,0.05600*%
%ADD16OC8,0.10400*%
%ADD17R,0.10400X0.10400*%
%ADD18C,0.12211*%
D10*
X0005000Y0005000D02*
X0015000Y0005000D01*
X0208701Y0005000D01*
X0185959Y0016250D02*
X0185961Y0016403D01*
X0185967Y0016557D01*
X0185977Y0016710D01*
X0185991Y0016862D01*
X0186009Y0017015D01*
X0186031Y0017166D01*
X0186056Y0017317D01*
X0186086Y0017468D01*
X0186120Y0017618D01*
X0186157Y0017766D01*
X0186198Y0017914D01*
X0186243Y0018060D01*
X0186292Y0018206D01*
X0186345Y0018350D01*
X0186401Y0018492D01*
X0186461Y0018633D01*
X0186525Y0018773D01*
X0186592Y0018911D01*
X0186663Y0019047D01*
X0186738Y0019181D01*
X0186815Y0019313D01*
X0186897Y0019443D01*
X0186981Y0019571D01*
X0187069Y0019697D01*
X0187160Y0019820D01*
X0187254Y0019941D01*
X0187352Y0020059D01*
X0187452Y0020175D01*
X0187556Y0020288D01*
X0187662Y0020399D01*
X0187771Y0020507D01*
X0187883Y0020612D01*
X0187997Y0020713D01*
X0188115Y0020812D01*
X0188234Y0020908D01*
X0188356Y0021001D01*
X0188481Y0021090D01*
X0188608Y0021177D01*
X0188737Y0021259D01*
X0188868Y0021339D01*
X0189001Y0021415D01*
X0189136Y0021488D01*
X0189273Y0021557D01*
X0189412Y0021622D01*
X0189552Y0021684D01*
X0189694Y0021742D01*
X0189837Y0021797D01*
X0189982Y0021848D01*
X0190128Y0021895D01*
X0190275Y0021938D01*
X0190423Y0021977D01*
X0190572Y0022013D01*
X0190722Y0022044D01*
X0190873Y0022072D01*
X0191024Y0022096D01*
X0191177Y0022116D01*
X0191329Y0022132D01*
X0191482Y0022144D01*
X0191635Y0022152D01*
X0191788Y0022156D01*
X0191942Y0022156D01*
X0192095Y0022152D01*
X0192248Y0022144D01*
X0192401Y0022132D01*
X0192553Y0022116D01*
X0192706Y0022096D01*
X0192857Y0022072D01*
X0193008Y0022044D01*
X0193158Y0022013D01*
X0193307Y0021977D01*
X0193455Y0021938D01*
X0193602Y0021895D01*
X0193748Y0021848D01*
X0193893Y0021797D01*
X0194036Y0021742D01*
X0194178Y0021684D01*
X0194318Y0021622D01*
X0194457Y0021557D01*
X0194594Y0021488D01*
X0194729Y0021415D01*
X0194862Y0021339D01*
X0194993Y0021259D01*
X0195122Y0021177D01*
X0195249Y0021090D01*
X0195374Y0021001D01*
X0195496Y0020908D01*
X0195615Y0020812D01*
X0195733Y0020713D01*
X0195847Y0020612D01*
X0195959Y0020507D01*
X0196068Y0020399D01*
X0196174Y0020288D01*
X0196278Y0020175D01*
X0196378Y0020059D01*
X0196476Y0019941D01*
X0196570Y0019820D01*
X0196661Y0019697D01*
X0196749Y0019571D01*
X0196833Y0019443D01*
X0196915Y0019313D01*
X0196992Y0019181D01*
X0197067Y0019047D01*
X0197138Y0018911D01*
X0197205Y0018773D01*
X0197269Y0018633D01*
X0197329Y0018492D01*
X0197385Y0018350D01*
X0197438Y0018206D01*
X0197487Y0018060D01*
X0197532Y0017914D01*
X0197573Y0017766D01*
X0197610Y0017618D01*
X0197644Y0017468D01*
X0197674Y0017317D01*
X0197699Y0017166D01*
X0197721Y0017015D01*
X0197739Y0016862D01*
X0197753Y0016710D01*
X0197763Y0016557D01*
X0197769Y0016403D01*
X0197771Y0016250D01*
X0197769Y0016097D01*
X0197763Y0015943D01*
X0197753Y0015790D01*
X0197739Y0015638D01*
X0197721Y0015485D01*
X0197699Y0015334D01*
X0197674Y0015183D01*
X0197644Y0015032D01*
X0197610Y0014882D01*
X0197573Y0014734D01*
X0197532Y0014586D01*
X0197487Y0014440D01*
X0197438Y0014294D01*
X0197385Y0014150D01*
X0197329Y0014008D01*
X0197269Y0013867D01*
X0197205Y0013727D01*
X0197138Y0013589D01*
X0197067Y0013453D01*
X0196992Y0013319D01*
X0196915Y0013187D01*
X0196833Y0013057D01*
X0196749Y0012929D01*
X0196661Y0012803D01*
X0196570Y0012680D01*
X0196476Y0012559D01*
X0196378Y0012441D01*
X0196278Y0012325D01*
X0196174Y0012212D01*
X0196068Y0012101D01*
X0195959Y0011993D01*
X0195847Y0011888D01*
X0195733Y0011787D01*
X0195615Y0011688D01*
X0195496Y0011592D01*
X0195374Y0011499D01*
X0195249Y0011410D01*
X0195122Y0011323D01*
X0194993Y0011241D01*
X0194862Y0011161D01*
X0194729Y0011085D01*
X0194594Y0011012D01*
X0194457Y0010943D01*
X0194318Y0010878D01*
X0194178Y0010816D01*
X0194036Y0010758D01*
X0193893Y0010703D01*
X0193748Y0010652D01*
X0193602Y0010605D01*
X0193455Y0010562D01*
X0193307Y0010523D01*
X0193158Y0010487D01*
X0193008Y0010456D01*
X0192857Y0010428D01*
X0192706Y0010404D01*
X0192553Y0010384D01*
X0192401Y0010368D01*
X0192248Y0010356D01*
X0192095Y0010348D01*
X0191942Y0010344D01*
X0191788Y0010344D01*
X0191635Y0010348D01*
X0191482Y0010356D01*
X0191329Y0010368D01*
X0191177Y0010384D01*
X0191024Y0010404D01*
X0190873Y0010428D01*
X0190722Y0010456D01*
X0190572Y0010487D01*
X0190423Y0010523D01*
X0190275Y0010562D01*
X0190128Y0010605D01*
X0189982Y0010652D01*
X0189837Y0010703D01*
X0189694Y0010758D01*
X0189552Y0010816D01*
X0189412Y0010878D01*
X0189273Y0010943D01*
X0189136Y0011012D01*
X0189001Y0011085D01*
X0188868Y0011161D01*
X0188737Y0011241D01*
X0188608Y0011323D01*
X0188481Y0011410D01*
X0188356Y0011499D01*
X0188234Y0011592D01*
X0188115Y0011688D01*
X0187997Y0011787D01*
X0187883Y0011888D01*
X0187771Y0011993D01*
X0187662Y0012101D01*
X0187556Y0012212D01*
X0187452Y0012325D01*
X0187352Y0012441D01*
X0187254Y0012559D01*
X0187160Y0012680D01*
X0187069Y0012803D01*
X0186981Y0012929D01*
X0186897Y0013057D01*
X0186815Y0013187D01*
X0186738Y0013319D01*
X0186663Y0013453D01*
X0186592Y0013589D01*
X0186525Y0013727D01*
X0186461Y0013867D01*
X0186401Y0014008D01*
X0186345Y0014150D01*
X0186292Y0014294D01*
X0186243Y0014440D01*
X0186198Y0014586D01*
X0186157Y0014734D01*
X0186120Y0014882D01*
X0186086Y0015032D01*
X0186056Y0015183D01*
X0186031Y0015334D01*
X0186009Y0015485D01*
X0185991Y0015638D01*
X0185977Y0015790D01*
X0185967Y0015943D01*
X0185961Y0016097D01*
X0185959Y0016250D01*
X0186196Y0051638D02*
X0186198Y0051791D01*
X0186204Y0051945D01*
X0186214Y0052098D01*
X0186228Y0052250D01*
X0186246Y0052403D01*
X0186268Y0052554D01*
X0186293Y0052705D01*
X0186323Y0052856D01*
X0186357Y0053006D01*
X0186394Y0053154D01*
X0186435Y0053302D01*
X0186480Y0053448D01*
X0186529Y0053594D01*
X0186582Y0053738D01*
X0186638Y0053880D01*
X0186698Y0054021D01*
X0186762Y0054161D01*
X0186829Y0054299D01*
X0186900Y0054435D01*
X0186975Y0054569D01*
X0187052Y0054701D01*
X0187134Y0054831D01*
X0187218Y0054959D01*
X0187306Y0055085D01*
X0187397Y0055208D01*
X0187491Y0055329D01*
X0187589Y0055447D01*
X0187689Y0055563D01*
X0187793Y0055676D01*
X0187899Y0055787D01*
X0188008Y0055895D01*
X0188120Y0056000D01*
X0188234Y0056101D01*
X0188352Y0056200D01*
X0188471Y0056296D01*
X0188593Y0056389D01*
X0188718Y0056478D01*
X0188845Y0056565D01*
X0188974Y0056647D01*
X0189105Y0056727D01*
X0189238Y0056803D01*
X0189373Y0056876D01*
X0189510Y0056945D01*
X0189649Y0057010D01*
X0189789Y0057072D01*
X0189931Y0057130D01*
X0190074Y0057185D01*
X0190219Y0057236D01*
X0190365Y0057283D01*
X0190512Y0057326D01*
X0190660Y0057365D01*
X0190809Y0057401D01*
X0190959Y0057432D01*
X0191110Y0057460D01*
X0191261Y0057484D01*
X0191414Y0057504D01*
X0191566Y0057520D01*
X0191719Y0057532D01*
X0191872Y0057540D01*
X0192025Y0057544D01*
X0192179Y0057544D01*
X0192332Y0057540D01*
X0192485Y0057532D01*
X0192638Y0057520D01*
X0192790Y0057504D01*
X0192943Y0057484D01*
X0193094Y0057460D01*
X0193245Y0057432D01*
X0193395Y0057401D01*
X0193544Y0057365D01*
X0193692Y0057326D01*
X0193839Y0057283D01*
X0193985Y0057236D01*
X0194130Y0057185D01*
X0194273Y0057130D01*
X0194415Y0057072D01*
X0194555Y0057010D01*
X0194694Y0056945D01*
X0194831Y0056876D01*
X0194966Y0056803D01*
X0195099Y0056727D01*
X0195230Y0056647D01*
X0195359Y0056565D01*
X0195486Y0056478D01*
X0195611Y0056389D01*
X0195733Y0056296D01*
X0195852Y0056200D01*
X0195970Y0056101D01*
X0196084Y0056000D01*
X0196196Y0055895D01*
X0196305Y0055787D01*
X0196411Y0055676D01*
X0196515Y0055563D01*
X0196615Y0055447D01*
X0196713Y0055329D01*
X0196807Y0055208D01*
X0196898Y0055085D01*
X0196986Y0054959D01*
X0197070Y0054831D01*
X0197152Y0054701D01*
X0197229Y0054569D01*
X0197304Y0054435D01*
X0197375Y0054299D01*
X0197442Y0054161D01*
X0197506Y0054021D01*
X0197566Y0053880D01*
X0197622Y0053738D01*
X0197675Y0053594D01*
X0197724Y0053448D01*
X0197769Y0053302D01*
X0197810Y0053154D01*
X0197847Y0053006D01*
X0197881Y0052856D01*
X0197911Y0052705D01*
X0197936Y0052554D01*
X0197958Y0052403D01*
X0197976Y0052250D01*
X0197990Y0052098D01*
X0198000Y0051945D01*
X0198006Y0051791D01*
X0198008Y0051638D01*
X0198006Y0051485D01*
X0198000Y0051331D01*
X0197990Y0051178D01*
X0197976Y0051026D01*
X0197958Y0050873D01*
X0197936Y0050722D01*
X0197911Y0050571D01*
X0197881Y0050420D01*
X0197847Y0050270D01*
X0197810Y0050122D01*
X0197769Y0049974D01*
X0197724Y0049828D01*
X0197675Y0049682D01*
X0197622Y0049538D01*
X0197566Y0049396D01*
X0197506Y0049255D01*
X0197442Y0049115D01*
X0197375Y0048977D01*
X0197304Y0048841D01*
X0197229Y0048707D01*
X0197152Y0048575D01*
X0197070Y0048445D01*
X0196986Y0048317D01*
X0196898Y0048191D01*
X0196807Y0048068D01*
X0196713Y0047947D01*
X0196615Y0047829D01*
X0196515Y0047713D01*
X0196411Y0047600D01*
X0196305Y0047489D01*
X0196196Y0047381D01*
X0196084Y0047276D01*
X0195970Y0047175D01*
X0195852Y0047076D01*
X0195733Y0046980D01*
X0195611Y0046887D01*
X0195486Y0046798D01*
X0195359Y0046711D01*
X0195230Y0046629D01*
X0195099Y0046549D01*
X0194966Y0046473D01*
X0194831Y0046400D01*
X0194694Y0046331D01*
X0194555Y0046266D01*
X0194415Y0046204D01*
X0194273Y0046146D01*
X0194130Y0046091D01*
X0193985Y0046040D01*
X0193839Y0045993D01*
X0193692Y0045950D01*
X0193544Y0045911D01*
X0193395Y0045875D01*
X0193245Y0045844D01*
X0193094Y0045816D01*
X0192943Y0045792D01*
X0192790Y0045772D01*
X0192638Y0045756D01*
X0192485Y0045744D01*
X0192332Y0045736D01*
X0192179Y0045732D01*
X0192025Y0045732D01*
X0191872Y0045736D01*
X0191719Y0045744D01*
X0191566Y0045756D01*
X0191414Y0045772D01*
X0191261Y0045792D01*
X0191110Y0045816D01*
X0190959Y0045844D01*
X0190809Y0045875D01*
X0190660Y0045911D01*
X0190512Y0045950D01*
X0190365Y0045993D01*
X0190219Y0046040D01*
X0190074Y0046091D01*
X0189931Y0046146D01*
X0189789Y0046204D01*
X0189649Y0046266D01*
X0189510Y0046331D01*
X0189373Y0046400D01*
X0189238Y0046473D01*
X0189105Y0046549D01*
X0188974Y0046629D01*
X0188845Y0046711D01*
X0188718Y0046798D01*
X0188593Y0046887D01*
X0188471Y0046980D01*
X0188352Y0047076D01*
X0188234Y0047175D01*
X0188120Y0047276D01*
X0188008Y0047381D01*
X0187899Y0047489D01*
X0187793Y0047600D01*
X0187689Y0047713D01*
X0187589Y0047829D01*
X0187491Y0047947D01*
X0187397Y0048068D01*
X0187306Y0048191D01*
X0187218Y0048317D01*
X0187134Y0048445D01*
X0187052Y0048575D01*
X0186975Y0048707D01*
X0186900Y0048841D01*
X0186829Y0048977D01*
X0186762Y0049115D01*
X0186698Y0049255D01*
X0186638Y0049396D01*
X0186582Y0049538D01*
X0186529Y0049682D01*
X0186480Y0049828D01*
X0186435Y0049974D01*
X0186394Y0050122D01*
X0186357Y0050270D01*
X0186323Y0050420D01*
X0186293Y0050571D01*
X0186268Y0050722D01*
X0186246Y0050873D01*
X0186228Y0051026D01*
X0186214Y0051178D01*
X0186204Y0051331D01*
X0186198Y0051485D01*
X0186196Y0051638D01*
X0138001Y0084621D02*
X0138003Y0084774D01*
X0138009Y0084928D01*
X0138019Y0085081D01*
X0138033Y0085233D01*
X0138051Y0085386D01*
X0138073Y0085537D01*
X0138098Y0085688D01*
X0138128Y0085839D01*
X0138162Y0085989D01*
X0138199Y0086137D01*
X0138240Y0086285D01*
X0138285Y0086431D01*
X0138334Y0086577D01*
X0138387Y0086721D01*
X0138443Y0086863D01*
X0138503Y0087004D01*
X0138567Y0087144D01*
X0138634Y0087282D01*
X0138705Y0087418D01*
X0138780Y0087552D01*
X0138857Y0087684D01*
X0138939Y0087814D01*
X0139023Y0087942D01*
X0139111Y0088068D01*
X0139202Y0088191D01*
X0139296Y0088312D01*
X0139394Y0088430D01*
X0139494Y0088546D01*
X0139598Y0088659D01*
X0139704Y0088770D01*
X0139813Y0088878D01*
X0139925Y0088983D01*
X0140039Y0089084D01*
X0140157Y0089183D01*
X0140276Y0089279D01*
X0140398Y0089372D01*
X0140523Y0089461D01*
X0140650Y0089548D01*
X0140779Y0089630D01*
X0140910Y0089710D01*
X0141043Y0089786D01*
X0141178Y0089859D01*
X0141315Y0089928D01*
X0141454Y0089993D01*
X0141594Y0090055D01*
X0141736Y0090113D01*
X0141879Y0090168D01*
X0142024Y0090219D01*
X0142170Y0090266D01*
X0142317Y0090309D01*
X0142465Y0090348D01*
X0142614Y0090384D01*
X0142764Y0090415D01*
X0142915Y0090443D01*
X0143066Y0090467D01*
X0143219Y0090487D01*
X0143371Y0090503D01*
X0143524Y0090515D01*
X0143677Y0090523D01*
X0143830Y0090527D01*
X0143984Y0090527D01*
X0144137Y0090523D01*
X0144290Y0090515D01*
X0144443Y0090503D01*
X0144595Y0090487D01*
X0144748Y0090467D01*
X0144899Y0090443D01*
X0145050Y0090415D01*
X0145200Y0090384D01*
X0145349Y0090348D01*
X0145497Y0090309D01*
X0145644Y0090266D01*
X0145790Y0090219D01*
X0145935Y0090168D01*
X0146078Y0090113D01*
X0146220Y0090055D01*
X0146360Y0089993D01*
X0146499Y0089928D01*
X0146636Y0089859D01*
X0146771Y0089786D01*
X0146904Y0089710D01*
X0147035Y0089630D01*
X0147164Y0089548D01*
X0147291Y0089461D01*
X0147416Y0089372D01*
X0147538Y0089279D01*
X0147657Y0089183D01*
X0147775Y0089084D01*
X0147889Y0088983D01*
X0148001Y0088878D01*
X0148110Y0088770D01*
X0148216Y0088659D01*
X0148320Y0088546D01*
X0148420Y0088430D01*
X0148518Y0088312D01*
X0148612Y0088191D01*
X0148703Y0088068D01*
X0148791Y0087942D01*
X0148875Y0087814D01*
X0148957Y0087684D01*
X0149034Y0087552D01*
X0149109Y0087418D01*
X0149180Y0087282D01*
X0149247Y0087144D01*
X0149311Y0087004D01*
X0149371Y0086863D01*
X0149427Y0086721D01*
X0149480Y0086577D01*
X0149529Y0086431D01*
X0149574Y0086285D01*
X0149615Y0086137D01*
X0149652Y0085989D01*
X0149686Y0085839D01*
X0149716Y0085688D01*
X0149741Y0085537D01*
X0149763Y0085386D01*
X0149781Y0085233D01*
X0149795Y0085081D01*
X0149805Y0084928D01*
X0149811Y0084774D01*
X0149813Y0084621D01*
X0149811Y0084468D01*
X0149805Y0084314D01*
X0149795Y0084161D01*
X0149781Y0084009D01*
X0149763Y0083856D01*
X0149741Y0083705D01*
X0149716Y0083554D01*
X0149686Y0083403D01*
X0149652Y0083253D01*
X0149615Y0083105D01*
X0149574Y0082957D01*
X0149529Y0082811D01*
X0149480Y0082665D01*
X0149427Y0082521D01*
X0149371Y0082379D01*
X0149311Y0082238D01*
X0149247Y0082098D01*
X0149180Y0081960D01*
X0149109Y0081824D01*
X0149034Y0081690D01*
X0148957Y0081558D01*
X0148875Y0081428D01*
X0148791Y0081300D01*
X0148703Y0081174D01*
X0148612Y0081051D01*
X0148518Y0080930D01*
X0148420Y0080812D01*
X0148320Y0080696D01*
X0148216Y0080583D01*
X0148110Y0080472D01*
X0148001Y0080364D01*
X0147889Y0080259D01*
X0147775Y0080158D01*
X0147657Y0080059D01*
X0147538Y0079963D01*
X0147416Y0079870D01*
X0147291Y0079781D01*
X0147164Y0079694D01*
X0147035Y0079612D01*
X0146904Y0079532D01*
X0146771Y0079456D01*
X0146636Y0079383D01*
X0146499Y0079314D01*
X0146360Y0079249D01*
X0146220Y0079187D01*
X0146078Y0079129D01*
X0145935Y0079074D01*
X0145790Y0079023D01*
X0145644Y0078976D01*
X0145497Y0078933D01*
X0145349Y0078894D01*
X0145200Y0078858D01*
X0145050Y0078827D01*
X0144899Y0078799D01*
X0144748Y0078775D01*
X0144595Y0078755D01*
X0144443Y0078739D01*
X0144290Y0078727D01*
X0144137Y0078719D01*
X0143984Y0078715D01*
X0143830Y0078715D01*
X0143677Y0078719D01*
X0143524Y0078727D01*
X0143371Y0078739D01*
X0143219Y0078755D01*
X0143066Y0078775D01*
X0142915Y0078799D01*
X0142764Y0078827D01*
X0142614Y0078858D01*
X0142465Y0078894D01*
X0142317Y0078933D01*
X0142170Y0078976D01*
X0142024Y0079023D01*
X0141879Y0079074D01*
X0141736Y0079129D01*
X0141594Y0079187D01*
X0141454Y0079249D01*
X0141315Y0079314D01*
X0141178Y0079383D01*
X0141043Y0079456D01*
X0140910Y0079532D01*
X0140779Y0079612D01*
X0140650Y0079694D01*
X0140523Y0079781D01*
X0140398Y0079870D01*
X0140276Y0079963D01*
X0140157Y0080059D01*
X0140039Y0080158D01*
X0139925Y0080259D01*
X0139813Y0080364D01*
X0139704Y0080472D01*
X0139598Y0080583D01*
X0139494Y0080696D01*
X0139394Y0080812D01*
X0139296Y0080930D01*
X0139202Y0081051D01*
X0139111Y0081174D01*
X0139023Y0081300D01*
X0138939Y0081428D01*
X0138857Y0081558D01*
X0138780Y0081690D01*
X0138705Y0081824D01*
X0138634Y0081960D01*
X0138567Y0082098D01*
X0138503Y0082238D01*
X0138443Y0082379D01*
X0138387Y0082521D01*
X0138334Y0082665D01*
X0138285Y0082811D01*
X0138240Y0082957D01*
X0138199Y0083105D01*
X0138162Y0083253D01*
X0138128Y0083403D01*
X0138098Y0083554D01*
X0138073Y0083705D01*
X0138051Y0083856D01*
X0138033Y0084009D01*
X0138019Y0084161D01*
X0138009Y0084314D01*
X0138003Y0084468D01*
X0138001Y0084621D01*
X0109562Y0099754D02*
X0109564Y0099907D01*
X0109570Y0100061D01*
X0109580Y0100214D01*
X0109594Y0100366D01*
X0109612Y0100519D01*
X0109634Y0100670D01*
X0109659Y0100821D01*
X0109689Y0100972D01*
X0109723Y0101122D01*
X0109760Y0101270D01*
X0109801Y0101418D01*
X0109846Y0101564D01*
X0109895Y0101710D01*
X0109948Y0101854D01*
X0110004Y0101996D01*
X0110064Y0102137D01*
X0110128Y0102277D01*
X0110195Y0102415D01*
X0110266Y0102551D01*
X0110341Y0102685D01*
X0110418Y0102817D01*
X0110500Y0102947D01*
X0110584Y0103075D01*
X0110672Y0103201D01*
X0110763Y0103324D01*
X0110857Y0103445D01*
X0110955Y0103563D01*
X0111055Y0103679D01*
X0111159Y0103792D01*
X0111265Y0103903D01*
X0111374Y0104011D01*
X0111486Y0104116D01*
X0111600Y0104217D01*
X0111718Y0104316D01*
X0111837Y0104412D01*
X0111959Y0104505D01*
X0112084Y0104594D01*
X0112211Y0104681D01*
X0112340Y0104763D01*
X0112471Y0104843D01*
X0112604Y0104919D01*
X0112739Y0104992D01*
X0112876Y0105061D01*
X0113015Y0105126D01*
X0113155Y0105188D01*
X0113297Y0105246D01*
X0113440Y0105301D01*
X0113585Y0105352D01*
X0113731Y0105399D01*
X0113878Y0105442D01*
X0114026Y0105481D01*
X0114175Y0105517D01*
X0114325Y0105548D01*
X0114476Y0105576D01*
X0114627Y0105600D01*
X0114780Y0105620D01*
X0114932Y0105636D01*
X0115085Y0105648D01*
X0115238Y0105656D01*
X0115391Y0105660D01*
X0115545Y0105660D01*
X0115698Y0105656D01*
X0115851Y0105648D01*
X0116004Y0105636D01*
X0116156Y0105620D01*
X0116309Y0105600D01*
X0116460Y0105576D01*
X0116611Y0105548D01*
X0116761Y0105517D01*
X0116910Y0105481D01*
X0117058Y0105442D01*
X0117205Y0105399D01*
X0117351Y0105352D01*
X0117496Y0105301D01*
X0117639Y0105246D01*
X0117781Y0105188D01*
X0117921Y0105126D01*
X0118060Y0105061D01*
X0118197Y0104992D01*
X0118332Y0104919D01*
X0118465Y0104843D01*
X0118596Y0104763D01*
X0118725Y0104681D01*
X0118852Y0104594D01*
X0118977Y0104505D01*
X0119099Y0104412D01*
X0119218Y0104316D01*
X0119336Y0104217D01*
X0119450Y0104116D01*
X0119562Y0104011D01*
X0119671Y0103903D01*
X0119777Y0103792D01*
X0119881Y0103679D01*
X0119981Y0103563D01*
X0120079Y0103445D01*
X0120173Y0103324D01*
X0120264Y0103201D01*
X0120352Y0103075D01*
X0120436Y0102947D01*
X0120518Y0102817D01*
X0120595Y0102685D01*
X0120670Y0102551D01*
X0120741Y0102415D01*
X0120808Y0102277D01*
X0120872Y0102137D01*
X0120932Y0101996D01*
X0120988Y0101854D01*
X0121041Y0101710D01*
X0121090Y0101564D01*
X0121135Y0101418D01*
X0121176Y0101270D01*
X0121213Y0101122D01*
X0121247Y0100972D01*
X0121277Y0100821D01*
X0121302Y0100670D01*
X0121324Y0100519D01*
X0121342Y0100366D01*
X0121356Y0100214D01*
X0121366Y0100061D01*
X0121372Y0099907D01*
X0121374Y0099754D01*
X0121372Y0099601D01*
X0121366Y0099447D01*
X0121356Y0099294D01*
X0121342Y0099142D01*
X0121324Y0098989D01*
X0121302Y0098838D01*
X0121277Y0098687D01*
X0121247Y0098536D01*
X0121213Y0098386D01*
X0121176Y0098238D01*
X0121135Y0098090D01*
X0121090Y0097944D01*
X0121041Y0097798D01*
X0120988Y0097654D01*
X0120932Y0097512D01*
X0120872Y0097371D01*
X0120808Y0097231D01*
X0120741Y0097093D01*
X0120670Y0096957D01*
X0120595Y0096823D01*
X0120518Y0096691D01*
X0120436Y0096561D01*
X0120352Y0096433D01*
X0120264Y0096307D01*
X0120173Y0096184D01*
X0120079Y0096063D01*
X0119981Y0095945D01*
X0119881Y0095829D01*
X0119777Y0095716D01*
X0119671Y0095605D01*
X0119562Y0095497D01*
X0119450Y0095392D01*
X0119336Y0095291D01*
X0119218Y0095192D01*
X0119099Y0095096D01*
X0118977Y0095003D01*
X0118852Y0094914D01*
X0118725Y0094827D01*
X0118596Y0094745D01*
X0118465Y0094665D01*
X0118332Y0094589D01*
X0118197Y0094516D01*
X0118060Y0094447D01*
X0117921Y0094382D01*
X0117781Y0094320D01*
X0117639Y0094262D01*
X0117496Y0094207D01*
X0117351Y0094156D01*
X0117205Y0094109D01*
X0117058Y0094066D01*
X0116910Y0094027D01*
X0116761Y0093991D01*
X0116611Y0093960D01*
X0116460Y0093932D01*
X0116309Y0093908D01*
X0116156Y0093888D01*
X0116004Y0093872D01*
X0115851Y0093860D01*
X0115698Y0093852D01*
X0115545Y0093848D01*
X0115391Y0093848D01*
X0115238Y0093852D01*
X0115085Y0093860D01*
X0114932Y0093872D01*
X0114780Y0093888D01*
X0114627Y0093908D01*
X0114476Y0093932D01*
X0114325Y0093960D01*
X0114175Y0093991D01*
X0114026Y0094027D01*
X0113878Y0094066D01*
X0113731Y0094109D01*
X0113585Y0094156D01*
X0113440Y0094207D01*
X0113297Y0094262D01*
X0113155Y0094320D01*
X0113015Y0094382D01*
X0112876Y0094447D01*
X0112739Y0094516D01*
X0112604Y0094589D01*
X0112471Y0094665D01*
X0112340Y0094745D01*
X0112211Y0094827D01*
X0112084Y0094914D01*
X0111959Y0095003D01*
X0111837Y0095096D01*
X0111718Y0095192D01*
X0111600Y0095291D01*
X0111486Y0095392D01*
X0111374Y0095497D01*
X0111265Y0095605D01*
X0111159Y0095716D01*
X0111055Y0095829D01*
X0110955Y0095945D01*
X0110857Y0096063D01*
X0110763Y0096184D01*
X0110672Y0096307D01*
X0110584Y0096433D01*
X0110500Y0096561D01*
X0110418Y0096691D01*
X0110341Y0096823D01*
X0110266Y0096957D01*
X0110195Y0097093D01*
X0110128Y0097231D01*
X0110064Y0097371D01*
X0110004Y0097512D01*
X0109948Y0097654D01*
X0109895Y0097798D01*
X0109846Y0097944D01*
X0109801Y0098090D01*
X0109760Y0098238D01*
X0109723Y0098386D01*
X0109689Y0098536D01*
X0109659Y0098687D01*
X0109634Y0098838D01*
X0109612Y0098989D01*
X0109594Y0099142D01*
X0109580Y0099294D01*
X0109570Y0099447D01*
X0109564Y0099601D01*
X0109562Y0099754D01*
X0138001Y0154700D02*
X0138003Y0154853D01*
X0138009Y0155007D01*
X0138019Y0155160D01*
X0138033Y0155312D01*
X0138051Y0155465D01*
X0138073Y0155616D01*
X0138098Y0155767D01*
X0138128Y0155918D01*
X0138162Y0156068D01*
X0138199Y0156216D01*
X0138240Y0156364D01*
X0138285Y0156510D01*
X0138334Y0156656D01*
X0138387Y0156800D01*
X0138443Y0156942D01*
X0138503Y0157083D01*
X0138567Y0157223D01*
X0138634Y0157361D01*
X0138705Y0157497D01*
X0138780Y0157631D01*
X0138857Y0157763D01*
X0138939Y0157893D01*
X0139023Y0158021D01*
X0139111Y0158147D01*
X0139202Y0158270D01*
X0139296Y0158391D01*
X0139394Y0158509D01*
X0139494Y0158625D01*
X0139598Y0158738D01*
X0139704Y0158849D01*
X0139813Y0158957D01*
X0139925Y0159062D01*
X0140039Y0159163D01*
X0140157Y0159262D01*
X0140276Y0159358D01*
X0140398Y0159451D01*
X0140523Y0159540D01*
X0140650Y0159627D01*
X0140779Y0159709D01*
X0140910Y0159789D01*
X0141043Y0159865D01*
X0141178Y0159938D01*
X0141315Y0160007D01*
X0141454Y0160072D01*
X0141594Y0160134D01*
X0141736Y0160192D01*
X0141879Y0160247D01*
X0142024Y0160298D01*
X0142170Y0160345D01*
X0142317Y0160388D01*
X0142465Y0160427D01*
X0142614Y0160463D01*
X0142764Y0160494D01*
X0142915Y0160522D01*
X0143066Y0160546D01*
X0143219Y0160566D01*
X0143371Y0160582D01*
X0143524Y0160594D01*
X0143677Y0160602D01*
X0143830Y0160606D01*
X0143984Y0160606D01*
X0144137Y0160602D01*
X0144290Y0160594D01*
X0144443Y0160582D01*
X0144595Y0160566D01*
X0144748Y0160546D01*
X0144899Y0160522D01*
X0145050Y0160494D01*
X0145200Y0160463D01*
X0145349Y0160427D01*
X0145497Y0160388D01*
X0145644Y0160345D01*
X0145790Y0160298D01*
X0145935Y0160247D01*
X0146078Y0160192D01*
X0146220Y0160134D01*
X0146360Y0160072D01*
X0146499Y0160007D01*
X0146636Y0159938D01*
X0146771Y0159865D01*
X0146904Y0159789D01*
X0147035Y0159709D01*
X0147164Y0159627D01*
X0147291Y0159540D01*
X0147416Y0159451D01*
X0147538Y0159358D01*
X0147657Y0159262D01*
X0147775Y0159163D01*
X0147889Y0159062D01*
X0148001Y0158957D01*
X0148110Y0158849D01*
X0148216Y0158738D01*
X0148320Y0158625D01*
X0148420Y0158509D01*
X0148518Y0158391D01*
X0148612Y0158270D01*
X0148703Y0158147D01*
X0148791Y0158021D01*
X0148875Y0157893D01*
X0148957Y0157763D01*
X0149034Y0157631D01*
X0149109Y0157497D01*
X0149180Y0157361D01*
X0149247Y0157223D01*
X0149311Y0157083D01*
X0149371Y0156942D01*
X0149427Y0156800D01*
X0149480Y0156656D01*
X0149529Y0156510D01*
X0149574Y0156364D01*
X0149615Y0156216D01*
X0149652Y0156068D01*
X0149686Y0155918D01*
X0149716Y0155767D01*
X0149741Y0155616D01*
X0149763Y0155465D01*
X0149781Y0155312D01*
X0149795Y0155160D01*
X0149805Y0155007D01*
X0149811Y0154853D01*
X0149813Y0154700D01*
X0149811Y0154547D01*
X0149805Y0154393D01*
X0149795Y0154240D01*
X0149781Y0154088D01*
X0149763Y0153935D01*
X0149741Y0153784D01*
X0149716Y0153633D01*
X0149686Y0153482D01*
X0149652Y0153332D01*
X0149615Y0153184D01*
X0149574Y0153036D01*
X0149529Y0152890D01*
X0149480Y0152744D01*
X0149427Y0152600D01*
X0149371Y0152458D01*
X0149311Y0152317D01*
X0149247Y0152177D01*
X0149180Y0152039D01*
X0149109Y0151903D01*
X0149034Y0151769D01*
X0148957Y0151637D01*
X0148875Y0151507D01*
X0148791Y0151379D01*
X0148703Y0151253D01*
X0148612Y0151130D01*
X0148518Y0151009D01*
X0148420Y0150891D01*
X0148320Y0150775D01*
X0148216Y0150662D01*
X0148110Y0150551D01*
X0148001Y0150443D01*
X0147889Y0150338D01*
X0147775Y0150237D01*
X0147657Y0150138D01*
X0147538Y0150042D01*
X0147416Y0149949D01*
X0147291Y0149860D01*
X0147164Y0149773D01*
X0147035Y0149691D01*
X0146904Y0149611D01*
X0146771Y0149535D01*
X0146636Y0149462D01*
X0146499Y0149393D01*
X0146360Y0149328D01*
X0146220Y0149266D01*
X0146078Y0149208D01*
X0145935Y0149153D01*
X0145790Y0149102D01*
X0145644Y0149055D01*
X0145497Y0149012D01*
X0145349Y0148973D01*
X0145200Y0148937D01*
X0145050Y0148906D01*
X0144899Y0148878D01*
X0144748Y0148854D01*
X0144595Y0148834D01*
X0144443Y0148818D01*
X0144290Y0148806D01*
X0144137Y0148798D01*
X0143984Y0148794D01*
X0143830Y0148794D01*
X0143677Y0148798D01*
X0143524Y0148806D01*
X0143371Y0148818D01*
X0143219Y0148834D01*
X0143066Y0148854D01*
X0142915Y0148878D01*
X0142764Y0148906D01*
X0142614Y0148937D01*
X0142465Y0148973D01*
X0142317Y0149012D01*
X0142170Y0149055D01*
X0142024Y0149102D01*
X0141879Y0149153D01*
X0141736Y0149208D01*
X0141594Y0149266D01*
X0141454Y0149328D01*
X0141315Y0149393D01*
X0141178Y0149462D01*
X0141043Y0149535D01*
X0140910Y0149611D01*
X0140779Y0149691D01*
X0140650Y0149773D01*
X0140523Y0149860D01*
X0140398Y0149949D01*
X0140276Y0150042D01*
X0140157Y0150138D01*
X0140039Y0150237D01*
X0139925Y0150338D01*
X0139813Y0150443D01*
X0139704Y0150551D01*
X0139598Y0150662D01*
X0139494Y0150775D01*
X0139394Y0150891D01*
X0139296Y0151009D01*
X0139202Y0151130D01*
X0139111Y0151253D01*
X0139023Y0151379D01*
X0138939Y0151507D01*
X0138857Y0151637D01*
X0138780Y0151769D01*
X0138705Y0151903D01*
X0138634Y0152039D01*
X0138567Y0152177D01*
X0138503Y0152317D01*
X0138443Y0152458D01*
X0138387Y0152600D01*
X0138334Y0152744D01*
X0138285Y0152890D01*
X0138240Y0153036D01*
X0138199Y0153184D01*
X0138162Y0153332D01*
X0138128Y0153482D01*
X0138098Y0153633D01*
X0138073Y0153784D01*
X0138051Y0153935D01*
X0138033Y0154088D01*
X0138019Y0154240D01*
X0138009Y0154393D01*
X0138003Y0154547D01*
X0138001Y0154700D01*
X0120594Y0213740D02*
X0120596Y0213893D01*
X0120602Y0214047D01*
X0120612Y0214200D01*
X0120626Y0214352D01*
X0120644Y0214505D01*
X0120666Y0214656D01*
X0120691Y0214807D01*
X0120721Y0214958D01*
X0120755Y0215108D01*
X0120792Y0215256D01*
X0120833Y0215404D01*
X0120878Y0215550D01*
X0120927Y0215696D01*
X0120980Y0215840D01*
X0121036Y0215982D01*
X0121096Y0216123D01*
X0121160Y0216263D01*
X0121227Y0216401D01*
X0121298Y0216537D01*
X0121373Y0216671D01*
X0121450Y0216803D01*
X0121532Y0216933D01*
X0121616Y0217061D01*
X0121704Y0217187D01*
X0121795Y0217310D01*
X0121889Y0217431D01*
X0121987Y0217549D01*
X0122087Y0217665D01*
X0122191Y0217778D01*
X0122297Y0217889D01*
X0122406Y0217997D01*
X0122518Y0218102D01*
X0122632Y0218203D01*
X0122750Y0218302D01*
X0122869Y0218398D01*
X0122991Y0218491D01*
X0123116Y0218580D01*
X0123243Y0218667D01*
X0123372Y0218749D01*
X0123503Y0218829D01*
X0123636Y0218905D01*
X0123771Y0218978D01*
X0123908Y0219047D01*
X0124047Y0219112D01*
X0124187Y0219174D01*
X0124329Y0219232D01*
X0124472Y0219287D01*
X0124617Y0219338D01*
X0124763Y0219385D01*
X0124910Y0219428D01*
X0125058Y0219467D01*
X0125207Y0219503D01*
X0125357Y0219534D01*
X0125508Y0219562D01*
X0125659Y0219586D01*
X0125812Y0219606D01*
X0125964Y0219622D01*
X0126117Y0219634D01*
X0126270Y0219642D01*
X0126423Y0219646D01*
X0126577Y0219646D01*
X0126730Y0219642D01*
X0126883Y0219634D01*
X0127036Y0219622D01*
X0127188Y0219606D01*
X0127341Y0219586D01*
X0127492Y0219562D01*
X0127643Y0219534D01*
X0127793Y0219503D01*
X0127942Y0219467D01*
X0128090Y0219428D01*
X0128237Y0219385D01*
X0128383Y0219338D01*
X0128528Y0219287D01*
X0128671Y0219232D01*
X0128813Y0219174D01*
X0128953Y0219112D01*
X0129092Y0219047D01*
X0129229Y0218978D01*
X0129364Y0218905D01*
X0129497Y0218829D01*
X0129628Y0218749D01*
X0129757Y0218667D01*
X0129884Y0218580D01*
X0130009Y0218491D01*
X0130131Y0218398D01*
X0130250Y0218302D01*
X0130368Y0218203D01*
X0130482Y0218102D01*
X0130594Y0217997D01*
X0130703Y0217889D01*
X0130809Y0217778D01*
X0130913Y0217665D01*
X0131013Y0217549D01*
X0131111Y0217431D01*
X0131205Y0217310D01*
X0131296Y0217187D01*
X0131384Y0217061D01*
X0131468Y0216933D01*
X0131550Y0216803D01*
X0131627Y0216671D01*
X0131702Y0216537D01*
X0131773Y0216401D01*
X0131840Y0216263D01*
X0131904Y0216123D01*
X0131964Y0215982D01*
X0132020Y0215840D01*
X0132073Y0215696D01*
X0132122Y0215550D01*
X0132167Y0215404D01*
X0132208Y0215256D01*
X0132245Y0215108D01*
X0132279Y0214958D01*
X0132309Y0214807D01*
X0132334Y0214656D01*
X0132356Y0214505D01*
X0132374Y0214352D01*
X0132388Y0214200D01*
X0132398Y0214047D01*
X0132404Y0213893D01*
X0132406Y0213740D01*
X0132404Y0213587D01*
X0132398Y0213433D01*
X0132388Y0213280D01*
X0132374Y0213128D01*
X0132356Y0212975D01*
X0132334Y0212824D01*
X0132309Y0212673D01*
X0132279Y0212522D01*
X0132245Y0212372D01*
X0132208Y0212224D01*
X0132167Y0212076D01*
X0132122Y0211930D01*
X0132073Y0211784D01*
X0132020Y0211640D01*
X0131964Y0211498D01*
X0131904Y0211357D01*
X0131840Y0211217D01*
X0131773Y0211079D01*
X0131702Y0210943D01*
X0131627Y0210809D01*
X0131550Y0210677D01*
X0131468Y0210547D01*
X0131384Y0210419D01*
X0131296Y0210293D01*
X0131205Y0210170D01*
X0131111Y0210049D01*
X0131013Y0209931D01*
X0130913Y0209815D01*
X0130809Y0209702D01*
X0130703Y0209591D01*
X0130594Y0209483D01*
X0130482Y0209378D01*
X0130368Y0209277D01*
X0130250Y0209178D01*
X0130131Y0209082D01*
X0130009Y0208989D01*
X0129884Y0208900D01*
X0129757Y0208813D01*
X0129628Y0208731D01*
X0129497Y0208651D01*
X0129364Y0208575D01*
X0129229Y0208502D01*
X0129092Y0208433D01*
X0128953Y0208368D01*
X0128813Y0208306D01*
X0128671Y0208248D01*
X0128528Y0208193D01*
X0128383Y0208142D01*
X0128237Y0208095D01*
X0128090Y0208052D01*
X0127942Y0208013D01*
X0127793Y0207977D01*
X0127643Y0207946D01*
X0127492Y0207918D01*
X0127341Y0207894D01*
X0127188Y0207874D01*
X0127036Y0207858D01*
X0126883Y0207846D01*
X0126730Y0207838D01*
X0126577Y0207834D01*
X0126423Y0207834D01*
X0126270Y0207838D01*
X0126117Y0207846D01*
X0125964Y0207858D01*
X0125812Y0207874D01*
X0125659Y0207894D01*
X0125508Y0207918D01*
X0125357Y0207946D01*
X0125207Y0207977D01*
X0125058Y0208013D01*
X0124910Y0208052D01*
X0124763Y0208095D01*
X0124617Y0208142D01*
X0124472Y0208193D01*
X0124329Y0208248D01*
X0124187Y0208306D01*
X0124047Y0208368D01*
X0123908Y0208433D01*
X0123771Y0208502D01*
X0123636Y0208575D01*
X0123503Y0208651D01*
X0123372Y0208731D01*
X0123243Y0208813D01*
X0123116Y0208900D01*
X0122991Y0208989D01*
X0122869Y0209082D01*
X0122750Y0209178D01*
X0122632Y0209277D01*
X0122518Y0209378D01*
X0122406Y0209483D01*
X0122297Y0209591D01*
X0122191Y0209702D01*
X0122087Y0209815D01*
X0121987Y0209931D01*
X0121889Y0210049D01*
X0121795Y0210170D01*
X0121704Y0210293D01*
X0121616Y0210419D01*
X0121532Y0210547D01*
X0121450Y0210677D01*
X0121373Y0210809D01*
X0121298Y0210943D01*
X0121227Y0211079D01*
X0121160Y0211217D01*
X0121096Y0211357D01*
X0121036Y0211498D01*
X0120980Y0211640D01*
X0120927Y0211784D01*
X0120878Y0211930D01*
X0120833Y0212076D01*
X0120792Y0212224D01*
X0120755Y0212372D01*
X0120721Y0212522D01*
X0120691Y0212673D01*
X0120666Y0212824D01*
X0120644Y0212975D01*
X0120626Y0213128D01*
X0120612Y0213280D01*
X0120602Y0213433D01*
X0120596Y0213587D01*
X0120594Y0213740D01*
X0087594Y0213740D02*
X0087596Y0213893D01*
X0087602Y0214047D01*
X0087612Y0214200D01*
X0087626Y0214352D01*
X0087644Y0214505D01*
X0087666Y0214656D01*
X0087691Y0214807D01*
X0087721Y0214958D01*
X0087755Y0215108D01*
X0087792Y0215256D01*
X0087833Y0215404D01*
X0087878Y0215550D01*
X0087927Y0215696D01*
X0087980Y0215840D01*
X0088036Y0215982D01*
X0088096Y0216123D01*
X0088160Y0216263D01*
X0088227Y0216401D01*
X0088298Y0216537D01*
X0088373Y0216671D01*
X0088450Y0216803D01*
X0088532Y0216933D01*
X0088616Y0217061D01*
X0088704Y0217187D01*
X0088795Y0217310D01*
X0088889Y0217431D01*
X0088987Y0217549D01*
X0089087Y0217665D01*
X0089191Y0217778D01*
X0089297Y0217889D01*
X0089406Y0217997D01*
X0089518Y0218102D01*
X0089632Y0218203D01*
X0089750Y0218302D01*
X0089869Y0218398D01*
X0089991Y0218491D01*
X0090116Y0218580D01*
X0090243Y0218667D01*
X0090372Y0218749D01*
X0090503Y0218829D01*
X0090636Y0218905D01*
X0090771Y0218978D01*
X0090908Y0219047D01*
X0091047Y0219112D01*
X0091187Y0219174D01*
X0091329Y0219232D01*
X0091472Y0219287D01*
X0091617Y0219338D01*
X0091763Y0219385D01*
X0091910Y0219428D01*
X0092058Y0219467D01*
X0092207Y0219503D01*
X0092357Y0219534D01*
X0092508Y0219562D01*
X0092659Y0219586D01*
X0092812Y0219606D01*
X0092964Y0219622D01*
X0093117Y0219634D01*
X0093270Y0219642D01*
X0093423Y0219646D01*
X0093577Y0219646D01*
X0093730Y0219642D01*
X0093883Y0219634D01*
X0094036Y0219622D01*
X0094188Y0219606D01*
X0094341Y0219586D01*
X0094492Y0219562D01*
X0094643Y0219534D01*
X0094793Y0219503D01*
X0094942Y0219467D01*
X0095090Y0219428D01*
X0095237Y0219385D01*
X0095383Y0219338D01*
X0095528Y0219287D01*
X0095671Y0219232D01*
X0095813Y0219174D01*
X0095953Y0219112D01*
X0096092Y0219047D01*
X0096229Y0218978D01*
X0096364Y0218905D01*
X0096497Y0218829D01*
X0096628Y0218749D01*
X0096757Y0218667D01*
X0096884Y0218580D01*
X0097009Y0218491D01*
X0097131Y0218398D01*
X0097250Y0218302D01*
X0097368Y0218203D01*
X0097482Y0218102D01*
X0097594Y0217997D01*
X0097703Y0217889D01*
X0097809Y0217778D01*
X0097913Y0217665D01*
X0098013Y0217549D01*
X0098111Y0217431D01*
X0098205Y0217310D01*
X0098296Y0217187D01*
X0098384Y0217061D01*
X0098468Y0216933D01*
X0098550Y0216803D01*
X0098627Y0216671D01*
X0098702Y0216537D01*
X0098773Y0216401D01*
X0098840Y0216263D01*
X0098904Y0216123D01*
X0098964Y0215982D01*
X0099020Y0215840D01*
X0099073Y0215696D01*
X0099122Y0215550D01*
X0099167Y0215404D01*
X0099208Y0215256D01*
X0099245Y0215108D01*
X0099279Y0214958D01*
X0099309Y0214807D01*
X0099334Y0214656D01*
X0099356Y0214505D01*
X0099374Y0214352D01*
X0099388Y0214200D01*
X0099398Y0214047D01*
X0099404Y0213893D01*
X0099406Y0213740D01*
X0099404Y0213587D01*
X0099398Y0213433D01*
X0099388Y0213280D01*
X0099374Y0213128D01*
X0099356Y0212975D01*
X0099334Y0212824D01*
X0099309Y0212673D01*
X0099279Y0212522D01*
X0099245Y0212372D01*
X0099208Y0212224D01*
X0099167Y0212076D01*
X0099122Y0211930D01*
X0099073Y0211784D01*
X0099020Y0211640D01*
X0098964Y0211498D01*
X0098904Y0211357D01*
X0098840Y0211217D01*
X0098773Y0211079D01*
X0098702Y0210943D01*
X0098627Y0210809D01*
X0098550Y0210677D01*
X0098468Y0210547D01*
X0098384Y0210419D01*
X0098296Y0210293D01*
X0098205Y0210170D01*
X0098111Y0210049D01*
X0098013Y0209931D01*
X0097913Y0209815D01*
X0097809Y0209702D01*
X0097703Y0209591D01*
X0097594Y0209483D01*
X0097482Y0209378D01*
X0097368Y0209277D01*
X0097250Y0209178D01*
X0097131Y0209082D01*
X0097009Y0208989D01*
X0096884Y0208900D01*
X0096757Y0208813D01*
X0096628Y0208731D01*
X0096497Y0208651D01*
X0096364Y0208575D01*
X0096229Y0208502D01*
X0096092Y0208433D01*
X0095953Y0208368D01*
X0095813Y0208306D01*
X0095671Y0208248D01*
X0095528Y0208193D01*
X0095383Y0208142D01*
X0095237Y0208095D01*
X0095090Y0208052D01*
X0094942Y0208013D01*
X0094793Y0207977D01*
X0094643Y0207946D01*
X0094492Y0207918D01*
X0094341Y0207894D01*
X0094188Y0207874D01*
X0094036Y0207858D01*
X0093883Y0207846D01*
X0093730Y0207838D01*
X0093577Y0207834D01*
X0093423Y0207834D01*
X0093270Y0207838D01*
X0093117Y0207846D01*
X0092964Y0207858D01*
X0092812Y0207874D01*
X0092659Y0207894D01*
X0092508Y0207918D01*
X0092357Y0207946D01*
X0092207Y0207977D01*
X0092058Y0208013D01*
X0091910Y0208052D01*
X0091763Y0208095D01*
X0091617Y0208142D01*
X0091472Y0208193D01*
X0091329Y0208248D01*
X0091187Y0208306D01*
X0091047Y0208368D01*
X0090908Y0208433D01*
X0090771Y0208502D01*
X0090636Y0208575D01*
X0090503Y0208651D01*
X0090372Y0208731D01*
X0090243Y0208813D01*
X0090116Y0208900D01*
X0089991Y0208989D01*
X0089869Y0209082D01*
X0089750Y0209178D01*
X0089632Y0209277D01*
X0089518Y0209378D01*
X0089406Y0209483D01*
X0089297Y0209591D01*
X0089191Y0209702D01*
X0089087Y0209815D01*
X0088987Y0209931D01*
X0088889Y0210049D01*
X0088795Y0210170D01*
X0088704Y0210293D01*
X0088616Y0210419D01*
X0088532Y0210547D01*
X0088450Y0210677D01*
X0088373Y0210809D01*
X0088298Y0210943D01*
X0088227Y0211079D01*
X0088160Y0211217D01*
X0088096Y0211357D01*
X0088036Y0211498D01*
X0087980Y0211640D01*
X0087927Y0211784D01*
X0087878Y0211930D01*
X0087833Y0212076D01*
X0087792Y0212224D01*
X0087755Y0212372D01*
X0087721Y0212522D01*
X0087691Y0212673D01*
X0087666Y0212824D01*
X0087644Y0212975D01*
X0087626Y0213128D01*
X0087612Y0213280D01*
X0087602Y0213433D01*
X0087596Y0213587D01*
X0087594Y0213740D01*
X0147594Y0213740D02*
X0147596Y0213893D01*
X0147602Y0214047D01*
X0147612Y0214200D01*
X0147626Y0214352D01*
X0147644Y0214505D01*
X0147666Y0214656D01*
X0147691Y0214807D01*
X0147721Y0214958D01*
X0147755Y0215108D01*
X0147792Y0215256D01*
X0147833Y0215404D01*
X0147878Y0215550D01*
X0147927Y0215696D01*
X0147980Y0215840D01*
X0148036Y0215982D01*
X0148096Y0216123D01*
X0148160Y0216263D01*
X0148227Y0216401D01*
X0148298Y0216537D01*
X0148373Y0216671D01*
X0148450Y0216803D01*
X0148532Y0216933D01*
X0148616Y0217061D01*
X0148704Y0217187D01*
X0148795Y0217310D01*
X0148889Y0217431D01*
X0148987Y0217549D01*
X0149087Y0217665D01*
X0149191Y0217778D01*
X0149297Y0217889D01*
X0149406Y0217997D01*
X0149518Y0218102D01*
X0149632Y0218203D01*
X0149750Y0218302D01*
X0149869Y0218398D01*
X0149991Y0218491D01*
X0150116Y0218580D01*
X0150243Y0218667D01*
X0150372Y0218749D01*
X0150503Y0218829D01*
X0150636Y0218905D01*
X0150771Y0218978D01*
X0150908Y0219047D01*
X0151047Y0219112D01*
X0151187Y0219174D01*
X0151329Y0219232D01*
X0151472Y0219287D01*
X0151617Y0219338D01*
X0151763Y0219385D01*
X0151910Y0219428D01*
X0152058Y0219467D01*
X0152207Y0219503D01*
X0152357Y0219534D01*
X0152508Y0219562D01*
X0152659Y0219586D01*
X0152812Y0219606D01*
X0152964Y0219622D01*
X0153117Y0219634D01*
X0153270Y0219642D01*
X0153423Y0219646D01*
X0153577Y0219646D01*
X0153730Y0219642D01*
X0153883Y0219634D01*
X0154036Y0219622D01*
X0154188Y0219606D01*
X0154341Y0219586D01*
X0154492Y0219562D01*
X0154643Y0219534D01*
X0154793Y0219503D01*
X0154942Y0219467D01*
X0155090Y0219428D01*
X0155237Y0219385D01*
X0155383Y0219338D01*
X0155528Y0219287D01*
X0155671Y0219232D01*
X0155813Y0219174D01*
X0155953Y0219112D01*
X0156092Y0219047D01*
X0156229Y0218978D01*
X0156364Y0218905D01*
X0156497Y0218829D01*
X0156628Y0218749D01*
X0156757Y0218667D01*
X0156884Y0218580D01*
X0157009Y0218491D01*
X0157131Y0218398D01*
X0157250Y0218302D01*
X0157368Y0218203D01*
X0157482Y0218102D01*
X0157594Y0217997D01*
X0157703Y0217889D01*
X0157809Y0217778D01*
X0157913Y0217665D01*
X0158013Y0217549D01*
X0158111Y0217431D01*
X0158205Y0217310D01*
X0158296Y0217187D01*
X0158384Y0217061D01*
X0158468Y0216933D01*
X0158550Y0216803D01*
X0158627Y0216671D01*
X0158702Y0216537D01*
X0158773Y0216401D01*
X0158840Y0216263D01*
X0158904Y0216123D01*
X0158964Y0215982D01*
X0159020Y0215840D01*
X0159073Y0215696D01*
X0159122Y0215550D01*
X0159167Y0215404D01*
X0159208Y0215256D01*
X0159245Y0215108D01*
X0159279Y0214958D01*
X0159309Y0214807D01*
X0159334Y0214656D01*
X0159356Y0214505D01*
X0159374Y0214352D01*
X0159388Y0214200D01*
X0159398Y0214047D01*
X0159404Y0213893D01*
X0159406Y0213740D01*
X0159404Y0213587D01*
X0159398Y0213433D01*
X0159388Y0213280D01*
X0159374Y0213128D01*
X0159356Y0212975D01*
X0159334Y0212824D01*
X0159309Y0212673D01*
X0159279Y0212522D01*
X0159245Y0212372D01*
X0159208Y0212224D01*
X0159167Y0212076D01*
X0159122Y0211930D01*
X0159073Y0211784D01*
X0159020Y0211640D01*
X0158964Y0211498D01*
X0158904Y0211357D01*
X0158840Y0211217D01*
X0158773Y0211079D01*
X0158702Y0210943D01*
X0158627Y0210809D01*
X0158550Y0210677D01*
X0158468Y0210547D01*
X0158384Y0210419D01*
X0158296Y0210293D01*
X0158205Y0210170D01*
X0158111Y0210049D01*
X0158013Y0209931D01*
X0157913Y0209815D01*
X0157809Y0209702D01*
X0157703Y0209591D01*
X0157594Y0209483D01*
X0157482Y0209378D01*
X0157368Y0209277D01*
X0157250Y0209178D01*
X0157131Y0209082D01*
X0157009Y0208989D01*
X0156884Y0208900D01*
X0156757Y0208813D01*
X0156628Y0208731D01*
X0156497Y0208651D01*
X0156364Y0208575D01*
X0156229Y0208502D01*
X0156092Y0208433D01*
X0155953Y0208368D01*
X0155813Y0208306D01*
X0155671Y0208248D01*
X0155528Y0208193D01*
X0155383Y0208142D01*
X0155237Y0208095D01*
X0155090Y0208052D01*
X0154942Y0208013D01*
X0154793Y0207977D01*
X0154643Y0207946D01*
X0154492Y0207918D01*
X0154341Y0207894D01*
X0154188Y0207874D01*
X0154036Y0207858D01*
X0153883Y0207846D01*
X0153730Y0207838D01*
X0153577Y0207834D01*
X0153423Y0207834D01*
X0153270Y0207838D01*
X0153117Y0207846D01*
X0152964Y0207858D01*
X0152812Y0207874D01*
X0152659Y0207894D01*
X0152508Y0207918D01*
X0152357Y0207946D01*
X0152207Y0207977D01*
X0152058Y0208013D01*
X0151910Y0208052D01*
X0151763Y0208095D01*
X0151617Y0208142D01*
X0151472Y0208193D01*
X0151329Y0208248D01*
X0151187Y0208306D01*
X0151047Y0208368D01*
X0150908Y0208433D01*
X0150771Y0208502D01*
X0150636Y0208575D01*
X0150503Y0208651D01*
X0150372Y0208731D01*
X0150243Y0208813D01*
X0150116Y0208900D01*
X0149991Y0208989D01*
X0149869Y0209082D01*
X0149750Y0209178D01*
X0149632Y0209277D01*
X0149518Y0209378D01*
X0149406Y0209483D01*
X0149297Y0209591D01*
X0149191Y0209702D01*
X0149087Y0209815D01*
X0148987Y0209931D01*
X0148889Y0210049D01*
X0148795Y0210170D01*
X0148704Y0210293D01*
X0148616Y0210419D01*
X0148532Y0210547D01*
X0148450Y0210677D01*
X0148373Y0210809D01*
X0148298Y0210943D01*
X0148227Y0211079D01*
X0148160Y0211217D01*
X0148096Y0211357D01*
X0148036Y0211498D01*
X0147980Y0211640D01*
X0147927Y0211784D01*
X0147878Y0211930D01*
X0147833Y0212076D01*
X0147792Y0212224D01*
X0147755Y0212372D01*
X0147721Y0212522D01*
X0147691Y0212673D01*
X0147666Y0212824D01*
X0147644Y0212975D01*
X0147626Y0213128D01*
X0147612Y0213280D01*
X0147602Y0213433D01*
X0147596Y0213587D01*
X0147594Y0213740D01*
X0180594Y0213740D02*
X0180596Y0213893D01*
X0180602Y0214047D01*
X0180612Y0214200D01*
X0180626Y0214352D01*
X0180644Y0214505D01*
X0180666Y0214656D01*
X0180691Y0214807D01*
X0180721Y0214958D01*
X0180755Y0215108D01*
X0180792Y0215256D01*
X0180833Y0215404D01*
X0180878Y0215550D01*
X0180927Y0215696D01*
X0180980Y0215840D01*
X0181036Y0215982D01*
X0181096Y0216123D01*
X0181160Y0216263D01*
X0181227Y0216401D01*
X0181298Y0216537D01*
X0181373Y0216671D01*
X0181450Y0216803D01*
X0181532Y0216933D01*
X0181616Y0217061D01*
X0181704Y0217187D01*
X0181795Y0217310D01*
X0181889Y0217431D01*
X0181987Y0217549D01*
X0182087Y0217665D01*
X0182191Y0217778D01*
X0182297Y0217889D01*
X0182406Y0217997D01*
X0182518Y0218102D01*
X0182632Y0218203D01*
X0182750Y0218302D01*
X0182869Y0218398D01*
X0182991Y0218491D01*
X0183116Y0218580D01*
X0183243Y0218667D01*
X0183372Y0218749D01*
X0183503Y0218829D01*
X0183636Y0218905D01*
X0183771Y0218978D01*
X0183908Y0219047D01*
X0184047Y0219112D01*
X0184187Y0219174D01*
X0184329Y0219232D01*
X0184472Y0219287D01*
X0184617Y0219338D01*
X0184763Y0219385D01*
X0184910Y0219428D01*
X0185058Y0219467D01*
X0185207Y0219503D01*
X0185357Y0219534D01*
X0185508Y0219562D01*
X0185659Y0219586D01*
X0185812Y0219606D01*
X0185964Y0219622D01*
X0186117Y0219634D01*
X0186270Y0219642D01*
X0186423Y0219646D01*
X0186577Y0219646D01*
X0186730Y0219642D01*
X0186883Y0219634D01*
X0187036Y0219622D01*
X0187188Y0219606D01*
X0187341Y0219586D01*
X0187492Y0219562D01*
X0187643Y0219534D01*
X0187793Y0219503D01*
X0187942Y0219467D01*
X0188090Y0219428D01*
X0188237Y0219385D01*
X0188383Y0219338D01*
X0188528Y0219287D01*
X0188671Y0219232D01*
X0188813Y0219174D01*
X0188953Y0219112D01*
X0189092Y0219047D01*
X0189229Y0218978D01*
X0189364Y0218905D01*
X0189497Y0218829D01*
X0189628Y0218749D01*
X0189757Y0218667D01*
X0189884Y0218580D01*
X0190009Y0218491D01*
X0190131Y0218398D01*
X0190250Y0218302D01*
X0190368Y0218203D01*
X0190482Y0218102D01*
X0190594Y0217997D01*
X0190703Y0217889D01*
X0190809Y0217778D01*
X0190913Y0217665D01*
X0191013Y0217549D01*
X0191111Y0217431D01*
X0191205Y0217310D01*
X0191296Y0217187D01*
X0191384Y0217061D01*
X0191468Y0216933D01*
X0191550Y0216803D01*
X0191627Y0216671D01*
X0191702Y0216537D01*
X0191773Y0216401D01*
X0191840Y0216263D01*
X0191904Y0216123D01*
X0191964Y0215982D01*
X0192020Y0215840D01*
X0192073Y0215696D01*
X0192122Y0215550D01*
X0192167Y0215404D01*
X0192208Y0215256D01*
X0192245Y0215108D01*
X0192279Y0214958D01*
X0192309Y0214807D01*
X0192334Y0214656D01*
X0192356Y0214505D01*
X0192374Y0214352D01*
X0192388Y0214200D01*
X0192398Y0214047D01*
X0192404Y0213893D01*
X0192406Y0213740D01*
X0192404Y0213587D01*
X0192398Y0213433D01*
X0192388Y0213280D01*
X0192374Y0213128D01*
X0192356Y0212975D01*
X0192334Y0212824D01*
X0192309Y0212673D01*
X0192279Y0212522D01*
X0192245Y0212372D01*
X0192208Y0212224D01*
X0192167Y0212076D01*
X0192122Y0211930D01*
X0192073Y0211784D01*
X0192020Y0211640D01*
X0191964Y0211498D01*
X0191904Y0211357D01*
X0191840Y0211217D01*
X0191773Y0211079D01*
X0191702Y0210943D01*
X0191627Y0210809D01*
X0191550Y0210677D01*
X0191468Y0210547D01*
X0191384Y0210419D01*
X0191296Y0210293D01*
X0191205Y0210170D01*
X0191111Y0210049D01*
X0191013Y0209931D01*
X0190913Y0209815D01*
X0190809Y0209702D01*
X0190703Y0209591D01*
X0190594Y0209483D01*
X0190482Y0209378D01*
X0190368Y0209277D01*
X0190250Y0209178D01*
X0190131Y0209082D01*
X0190009Y0208989D01*
X0189884Y0208900D01*
X0189757Y0208813D01*
X0189628Y0208731D01*
X0189497Y0208651D01*
X0189364Y0208575D01*
X0189229Y0208502D01*
X0189092Y0208433D01*
X0188953Y0208368D01*
X0188813Y0208306D01*
X0188671Y0208248D01*
X0188528Y0208193D01*
X0188383Y0208142D01*
X0188237Y0208095D01*
X0188090Y0208052D01*
X0187942Y0208013D01*
X0187793Y0207977D01*
X0187643Y0207946D01*
X0187492Y0207918D01*
X0187341Y0207894D01*
X0187188Y0207874D01*
X0187036Y0207858D01*
X0186883Y0207846D01*
X0186730Y0207838D01*
X0186577Y0207834D01*
X0186423Y0207834D01*
X0186270Y0207838D01*
X0186117Y0207846D01*
X0185964Y0207858D01*
X0185812Y0207874D01*
X0185659Y0207894D01*
X0185508Y0207918D01*
X0185357Y0207946D01*
X0185207Y0207977D01*
X0185058Y0208013D01*
X0184910Y0208052D01*
X0184763Y0208095D01*
X0184617Y0208142D01*
X0184472Y0208193D01*
X0184329Y0208248D01*
X0184187Y0208306D01*
X0184047Y0208368D01*
X0183908Y0208433D01*
X0183771Y0208502D01*
X0183636Y0208575D01*
X0183503Y0208651D01*
X0183372Y0208731D01*
X0183243Y0208813D01*
X0183116Y0208900D01*
X0182991Y0208989D01*
X0182869Y0209082D01*
X0182750Y0209178D01*
X0182632Y0209277D01*
X0182518Y0209378D01*
X0182406Y0209483D01*
X0182297Y0209591D01*
X0182191Y0209702D01*
X0182087Y0209815D01*
X0181987Y0209931D01*
X0181889Y0210049D01*
X0181795Y0210170D01*
X0181704Y0210293D01*
X0181616Y0210419D01*
X0181532Y0210547D01*
X0181450Y0210677D01*
X0181373Y0210809D01*
X0181298Y0210943D01*
X0181227Y0211079D01*
X0181160Y0211217D01*
X0181096Y0211357D01*
X0181036Y0211498D01*
X0180980Y0211640D01*
X0180927Y0211784D01*
X0180878Y0211930D01*
X0180833Y0212076D01*
X0180792Y0212224D01*
X0180755Y0212372D01*
X0180721Y0212522D01*
X0180691Y0212673D01*
X0180666Y0212824D01*
X0180644Y0212975D01*
X0180626Y0213128D01*
X0180612Y0213280D01*
X0180602Y0213433D01*
X0180596Y0213587D01*
X0180594Y0213740D01*
X0109562Y0029675D02*
X0109564Y0029828D01*
X0109570Y0029982D01*
X0109580Y0030135D01*
X0109594Y0030287D01*
X0109612Y0030440D01*
X0109634Y0030591D01*
X0109659Y0030742D01*
X0109689Y0030893D01*
X0109723Y0031043D01*
X0109760Y0031191D01*
X0109801Y0031339D01*
X0109846Y0031485D01*
X0109895Y0031631D01*
X0109948Y0031775D01*
X0110004Y0031917D01*
X0110064Y0032058D01*
X0110128Y0032198D01*
X0110195Y0032336D01*
X0110266Y0032472D01*
X0110341Y0032606D01*
X0110418Y0032738D01*
X0110500Y0032868D01*
X0110584Y0032996D01*
X0110672Y0033122D01*
X0110763Y0033245D01*
X0110857Y0033366D01*
X0110955Y0033484D01*
X0111055Y0033600D01*
X0111159Y0033713D01*
X0111265Y0033824D01*
X0111374Y0033932D01*
X0111486Y0034037D01*
X0111600Y0034138D01*
X0111718Y0034237D01*
X0111837Y0034333D01*
X0111959Y0034426D01*
X0112084Y0034515D01*
X0112211Y0034602D01*
X0112340Y0034684D01*
X0112471Y0034764D01*
X0112604Y0034840D01*
X0112739Y0034913D01*
X0112876Y0034982D01*
X0113015Y0035047D01*
X0113155Y0035109D01*
X0113297Y0035167D01*
X0113440Y0035222D01*
X0113585Y0035273D01*
X0113731Y0035320D01*
X0113878Y0035363D01*
X0114026Y0035402D01*
X0114175Y0035438D01*
X0114325Y0035469D01*
X0114476Y0035497D01*
X0114627Y0035521D01*
X0114780Y0035541D01*
X0114932Y0035557D01*
X0115085Y0035569D01*
X0115238Y0035577D01*
X0115391Y0035581D01*
X0115545Y0035581D01*
X0115698Y0035577D01*
X0115851Y0035569D01*
X0116004Y0035557D01*
X0116156Y0035541D01*
X0116309Y0035521D01*
X0116460Y0035497D01*
X0116611Y0035469D01*
X0116761Y0035438D01*
X0116910Y0035402D01*
X0117058Y0035363D01*
X0117205Y0035320D01*
X0117351Y0035273D01*
X0117496Y0035222D01*
X0117639Y0035167D01*
X0117781Y0035109D01*
X0117921Y0035047D01*
X0118060Y0034982D01*
X0118197Y0034913D01*
X0118332Y0034840D01*
X0118465Y0034764D01*
X0118596Y0034684D01*
X0118725Y0034602D01*
X0118852Y0034515D01*
X0118977Y0034426D01*
X0119099Y0034333D01*
X0119218Y0034237D01*
X0119336Y0034138D01*
X0119450Y0034037D01*
X0119562Y0033932D01*
X0119671Y0033824D01*
X0119777Y0033713D01*
X0119881Y0033600D01*
X0119981Y0033484D01*
X0120079Y0033366D01*
X0120173Y0033245D01*
X0120264Y0033122D01*
X0120352Y0032996D01*
X0120436Y0032868D01*
X0120518Y0032738D01*
X0120595Y0032606D01*
X0120670Y0032472D01*
X0120741Y0032336D01*
X0120808Y0032198D01*
X0120872Y0032058D01*
X0120932Y0031917D01*
X0120988Y0031775D01*
X0121041Y0031631D01*
X0121090Y0031485D01*
X0121135Y0031339D01*
X0121176Y0031191D01*
X0121213Y0031043D01*
X0121247Y0030893D01*
X0121277Y0030742D01*
X0121302Y0030591D01*
X0121324Y0030440D01*
X0121342Y0030287D01*
X0121356Y0030135D01*
X0121366Y0029982D01*
X0121372Y0029828D01*
X0121374Y0029675D01*
X0121372Y0029522D01*
X0121366Y0029368D01*
X0121356Y0029215D01*
X0121342Y0029063D01*
X0121324Y0028910D01*
X0121302Y0028759D01*
X0121277Y0028608D01*
X0121247Y0028457D01*
X0121213Y0028307D01*
X0121176Y0028159D01*
X0121135Y0028011D01*
X0121090Y0027865D01*
X0121041Y0027719D01*
X0120988Y0027575D01*
X0120932Y0027433D01*
X0120872Y0027292D01*
X0120808Y0027152D01*
X0120741Y0027014D01*
X0120670Y0026878D01*
X0120595Y0026744D01*
X0120518Y0026612D01*
X0120436Y0026482D01*
X0120352Y0026354D01*
X0120264Y0026228D01*
X0120173Y0026105D01*
X0120079Y0025984D01*
X0119981Y0025866D01*
X0119881Y0025750D01*
X0119777Y0025637D01*
X0119671Y0025526D01*
X0119562Y0025418D01*
X0119450Y0025313D01*
X0119336Y0025212D01*
X0119218Y0025113D01*
X0119099Y0025017D01*
X0118977Y0024924D01*
X0118852Y0024835D01*
X0118725Y0024748D01*
X0118596Y0024666D01*
X0118465Y0024586D01*
X0118332Y0024510D01*
X0118197Y0024437D01*
X0118060Y0024368D01*
X0117921Y0024303D01*
X0117781Y0024241D01*
X0117639Y0024183D01*
X0117496Y0024128D01*
X0117351Y0024077D01*
X0117205Y0024030D01*
X0117058Y0023987D01*
X0116910Y0023948D01*
X0116761Y0023912D01*
X0116611Y0023881D01*
X0116460Y0023853D01*
X0116309Y0023829D01*
X0116156Y0023809D01*
X0116004Y0023793D01*
X0115851Y0023781D01*
X0115698Y0023773D01*
X0115545Y0023769D01*
X0115391Y0023769D01*
X0115238Y0023773D01*
X0115085Y0023781D01*
X0114932Y0023793D01*
X0114780Y0023809D01*
X0114627Y0023829D01*
X0114476Y0023853D01*
X0114325Y0023881D01*
X0114175Y0023912D01*
X0114026Y0023948D01*
X0113878Y0023987D01*
X0113731Y0024030D01*
X0113585Y0024077D01*
X0113440Y0024128D01*
X0113297Y0024183D01*
X0113155Y0024241D01*
X0113015Y0024303D01*
X0112876Y0024368D01*
X0112739Y0024437D01*
X0112604Y0024510D01*
X0112471Y0024586D01*
X0112340Y0024666D01*
X0112211Y0024748D01*
X0112084Y0024835D01*
X0111959Y0024924D01*
X0111837Y0025017D01*
X0111718Y0025113D01*
X0111600Y0025212D01*
X0111486Y0025313D01*
X0111374Y0025418D01*
X0111265Y0025526D01*
X0111159Y0025637D01*
X0111055Y0025750D01*
X0110955Y0025866D01*
X0110857Y0025984D01*
X0110763Y0026105D01*
X0110672Y0026228D01*
X0110584Y0026354D01*
X0110500Y0026482D01*
X0110418Y0026612D01*
X0110341Y0026744D01*
X0110266Y0026878D01*
X0110195Y0027014D01*
X0110128Y0027152D01*
X0110064Y0027292D01*
X0110004Y0027433D01*
X0109948Y0027575D01*
X0109895Y0027719D01*
X0109846Y0027865D01*
X0109801Y0028011D01*
X0109760Y0028159D01*
X0109723Y0028307D01*
X0109689Y0028457D01*
X0109659Y0028608D01*
X0109634Y0028759D01*
X0109612Y0028910D01*
X0109594Y0029063D01*
X0109580Y0029215D01*
X0109570Y0029368D01*
X0109564Y0029522D01*
X0109562Y0029675D01*
D11*
X0217500Y0005000D02*
X0217500Y0230000D01*
D12*
X0208125Y0230000D01*
X0198125Y0240000D01*
X0064375Y0240000D01*
X0054375Y0230000D01*
X0010000Y0230000D01*
X0005000Y0225000D01*
X0005000Y0015000D01*
X0015000Y0005000D01*
X0216875Y0005000D01*
D13*
X0205000Y0080000D03*
X0205000Y0090000D03*
X0205000Y0100000D03*
X0205000Y0110000D03*
X0205000Y0120000D03*
X0205000Y0130000D03*
X0205000Y0140000D03*
X0205000Y0150000D03*
X0205000Y0170000D03*
X0205000Y0180000D03*
X0205000Y0190000D03*
X0205000Y0200000D03*
X0205000Y0210000D03*
X0205000Y0220000D03*
X0184500Y0130000D03*
X0185500Y0120000D03*
X0184500Y0110000D03*
X0122500Y0018750D03*
X0112500Y0018750D03*
X0088125Y0018750D03*
X0078125Y0018750D03*
X0015000Y0020000D03*
X0015000Y0030000D03*
X0015000Y0045000D03*
X0015000Y0055000D03*
X0015000Y0065000D03*
X0015000Y0075000D03*
X0015000Y0085000D03*
X0015000Y0095000D03*
X0015000Y0105000D03*
X0015000Y0115000D03*
X0015000Y0125000D03*
X0015000Y0135000D03*
X0015000Y0150000D03*
X0015000Y0160000D03*
X0015000Y0170000D03*
X0015000Y0180000D03*
X0015000Y0190000D03*
X0015000Y0200000D03*
X0015000Y0210000D03*
X0015000Y0220000D03*
X0025000Y0220000D03*
X0025000Y0210000D03*
D14*
X0033710Y0024970D02*
X0032989Y0024907D01*
X0032295Y0024705D01*
X0031653Y0024371D01*
X0031089Y0023918D01*
X0030624Y0023364D01*
X0030276Y0022729D01*
X0030059Y0022039D01*
X0029980Y0021320D01*
X0030028Y0020660D01*
X0030190Y0020019D01*
X0030461Y0019415D01*
X0030832Y0018868D01*
X0031293Y0018393D01*
X0031830Y0018006D01*
X0032425Y0017717D01*
X0033062Y0017537D01*
X0033720Y0017470D01*
X0034378Y0017535D01*
X0035015Y0017714D01*
X0035612Y0018001D01*
X0036149Y0018387D01*
X0036611Y0018860D01*
X0036984Y0019406D01*
X0037256Y0020009D01*
X0037420Y0020650D01*
X0037470Y0021310D01*
X0037389Y0022033D01*
X0037168Y0022726D01*
X0036817Y0023363D01*
X0036348Y0023919D01*
X0035780Y0024372D01*
X0035134Y0024707D01*
X0034435Y0024908D01*
X0033710Y0024970D01*
X0033371Y0024940D02*
X0034059Y0024940D01*
X0035645Y0024442D02*
X0031790Y0024442D01*
X0031121Y0023943D02*
X0036317Y0023943D01*
X0036747Y0023445D02*
X0030692Y0023445D01*
X0030395Y0022946D02*
X0037047Y0022946D01*
X0037257Y0022448D02*
X0030187Y0022448D01*
X0030049Y0021949D02*
X0037398Y0021949D01*
X0037454Y0021451D02*
X0029994Y0021451D01*
X0030007Y0020952D02*
X0037443Y0020952D01*
X0037370Y0020454D02*
X0030080Y0020454D01*
X0030218Y0019955D02*
X0037232Y0019955D01*
X0037007Y0019457D02*
X0030442Y0019457D01*
X0030771Y0018958D02*
X0036678Y0018958D01*
X0036220Y0018460D02*
X0031229Y0018460D01*
X0031922Y0017961D02*
X0035530Y0017961D01*
X0034408Y0014308D02*
X0035045Y0014128D01*
X0035640Y0013839D01*
X0036177Y0013452D01*
X0036638Y0012977D01*
X0037009Y0012430D01*
X0037280Y0011826D01*
X0037442Y0011185D01*
X0037490Y0010525D01*
X0037412Y0009806D01*
X0037194Y0009116D01*
X0036846Y0008481D01*
X0036381Y0007927D01*
X0035817Y0007474D01*
X0035175Y0007140D01*
X0034481Y0006938D01*
X0033760Y0006875D01*
X0033035Y0006937D01*
X0032336Y0007138D01*
X0031690Y0007473D01*
X0031122Y0007927D01*
X0030653Y0008483D01*
X0030302Y0009119D01*
X0030081Y0009812D01*
X0030000Y0010535D01*
X0030050Y0011195D01*
X0030214Y0011836D01*
X0030486Y0012439D01*
X0030859Y0012985D01*
X0031321Y0013459D01*
X0031859Y0013844D01*
X0032455Y0014131D01*
X0033092Y0014310D01*
X0033750Y0014375D01*
X0034408Y0014308D01*
X0035364Y0013973D02*
X0032126Y0013973D01*
X0031344Y0013475D02*
X0036145Y0013475D01*
X0036639Y0012976D02*
X0030853Y0012976D01*
X0030513Y0012478D02*
X0036977Y0012478D01*
X0037212Y0011979D02*
X0030278Y0011979D01*
X0030123Y0011481D02*
X0037367Y0011481D01*
X0037457Y0010982D02*
X0030034Y0010982D01*
X0030006Y0010484D02*
X0037486Y0010484D01*
X0037431Y0009985D02*
X0030062Y0009985D01*
X0030185Y0009487D02*
X0037311Y0009487D01*
X0037124Y0008988D02*
X0030374Y0008988D01*
X0030649Y0008490D02*
X0036851Y0008490D01*
X0036435Y0007991D02*
X0031068Y0007991D01*
X0031666Y0007493D02*
X0035840Y0007493D01*
X0034673Y0006994D02*
X0032836Y0006994D01*
X0060095Y0009985D02*
X0067458Y0009985D01*
X0067441Y0009836D02*
X0067224Y0009146D01*
X0066876Y0008511D01*
X0066411Y0007957D01*
X0065847Y0007504D01*
X0065205Y0007170D01*
X0064511Y0006968D01*
X0063790Y0006905D01*
X0063065Y0006967D01*
X0062366Y0007168D01*
X0061720Y0007503D01*
X0061152Y0007956D01*
X0060683Y0008512D01*
X0060332Y0009149D01*
X0060111Y0009842D01*
X0060030Y0010565D01*
X0060080Y0011225D01*
X0060244Y0011866D01*
X0060516Y0012469D01*
X0060889Y0013015D01*
X0061351Y0013488D01*
X0061888Y0013874D01*
X0062485Y0014161D01*
X0063122Y0014340D01*
X0063780Y0014405D01*
X0064438Y0014338D01*
X0065075Y0014158D01*
X0065670Y0013869D01*
X0066207Y0013482D01*
X0066668Y0013007D01*
X0067039Y0012460D01*
X0067310Y0011856D01*
X0067472Y0011215D01*
X0067520Y0010555D01*
X0067441Y0009836D01*
X0067331Y0009487D02*
X0060224Y0009487D01*
X0060421Y0008988D02*
X0067138Y0008988D01*
X0066858Y0008490D02*
X0060702Y0008490D01*
X0061123Y0007991D02*
X0066440Y0007991D01*
X0065824Y0007493D02*
X0061740Y0007493D01*
X0062970Y0006994D02*
X0064600Y0006994D01*
X0067512Y0010484D02*
X0060039Y0010484D01*
X0060062Y0010982D02*
X0067489Y0010982D01*
X0067405Y0011481D02*
X0060145Y0011481D01*
X0060295Y0011979D02*
X0067255Y0011979D01*
X0067027Y0012478D02*
X0060522Y0012478D01*
X0060862Y0012976D02*
X0066689Y0012976D01*
X0066214Y0013475D02*
X0061338Y0013475D01*
X0062094Y0013973D02*
X0065456Y0013973D01*
X0064408Y0017565D02*
X0063750Y0017500D01*
X0063092Y0017567D01*
X0062455Y0017747D01*
X0061860Y0018036D01*
X0061323Y0018423D01*
X0060862Y0018898D01*
X0060491Y0019445D01*
X0060220Y0020049D01*
X0060058Y0020690D01*
X0060010Y0021350D01*
X0060088Y0022069D01*
X0060306Y0022759D01*
X0060654Y0023394D01*
X0061119Y0023948D01*
X0061683Y0024401D01*
X0062325Y0024735D01*
X0063019Y0024937D01*
X0063740Y0025000D01*
X0064465Y0024938D01*
X0065164Y0024737D01*
X0065810Y0024402D01*
X0066378Y0023948D01*
X0066847Y0023392D01*
X0067198Y0022756D01*
X0067419Y0022063D01*
X0067500Y0021340D01*
X0067450Y0020680D01*
X0067286Y0020039D01*
X0067014Y0019436D01*
X0066641Y0018890D01*
X0066179Y0018416D01*
X0065641Y0018031D01*
X0065045Y0017744D01*
X0064408Y0017565D01*
X0065497Y0017961D02*
X0062013Y0017961D01*
X0061288Y0018460D02*
X0066221Y0018460D01*
X0066688Y0018958D02*
X0060821Y0018958D01*
X0060485Y0019457D02*
X0067023Y0019457D01*
X0067249Y0019955D02*
X0060262Y0019955D01*
X0060118Y0020454D02*
X0067392Y0020454D01*
X0067470Y0020952D02*
X0060039Y0020952D01*
X0060021Y0021451D02*
X0067487Y0021451D01*
X0067431Y0021949D02*
X0060075Y0021949D01*
X0060208Y0022448D02*
X0067296Y0022448D01*
X0067093Y0022946D02*
X0060409Y0022946D01*
X0060697Y0023445D02*
X0066803Y0023445D01*
X0066382Y0023943D02*
X0061115Y0023943D01*
X0061762Y0024442D02*
X0065733Y0024442D01*
X0064441Y0024940D02*
X0063058Y0024940D01*
D15*
X0068650Y0038750D02*
X0073850Y0038750D01*
X0073850Y0048750D02*
X0068650Y0048750D01*
X0068650Y0058750D02*
X0073850Y0058750D01*
X0073850Y0068750D02*
X0068650Y0068750D01*
X0068650Y0078750D02*
X0073850Y0078750D01*
X0073850Y0088750D02*
X0068650Y0088750D01*
X0068650Y0098750D02*
X0073850Y0098750D01*
X0073850Y0108750D02*
X0068650Y0108750D01*
X0068650Y0118750D02*
X0073850Y0118750D01*
X0073850Y0140000D02*
X0068650Y0140000D01*
X0068650Y0150000D02*
X0073850Y0150000D01*
X0073850Y0160000D02*
X0068650Y0160000D01*
X0068650Y0170000D02*
X0073850Y0170000D01*
X0073850Y0180000D02*
X0068650Y0180000D01*
X0068650Y0190000D02*
X0073850Y0190000D01*
X0073850Y0200000D02*
X0068650Y0200000D01*
X0068650Y0210000D02*
X0073850Y0210000D01*
X0073850Y0220000D02*
X0068650Y0220000D01*
X0043850Y0220000D02*
X0038650Y0220000D01*
X0038650Y0210000D02*
X0043850Y0210000D01*
X0043850Y0200000D02*
X0038650Y0200000D01*
X0038650Y0190000D02*
X0043850Y0190000D01*
X0043850Y0180000D02*
X0038650Y0180000D01*
X0038650Y0170000D02*
X0043850Y0170000D01*
X0043850Y0160000D02*
X0038650Y0160000D01*
X0038650Y0150000D02*
X0043850Y0150000D01*
X0043850Y0140000D02*
X0038650Y0140000D01*
X0038650Y0118750D02*
X0043850Y0118750D01*
X0043850Y0108750D02*
X0038650Y0108750D01*
X0038650Y0098750D02*
X0043850Y0098750D01*
X0043850Y0088750D02*
X0038650Y0088750D01*
X0038650Y0078750D02*
X0043850Y0078750D01*
X0043850Y0068750D02*
X0038650Y0068750D01*
X0038650Y0058750D02*
X0043850Y0058750D01*
X0043850Y0048750D02*
X0038650Y0048750D01*
X0038650Y0038750D02*
X0043850Y0038750D01*
D16*
X0095625Y0064715D03*
X0095625Y0081250D03*
X0117279Y0081250D03*
X0117279Y0064715D03*
X0117279Y0048179D03*
X0141662Y0051638D03*
X0141425Y0016250D03*
X0142096Y0103125D03*
X0142096Y0119660D03*
X0142096Y0136196D03*
X0163750Y0119660D03*
X0163750Y0103125D03*
X0170000Y0163300D03*
X0153500Y0163300D03*
X0170000Y0185000D03*
X0186500Y0185000D03*
X0186500Y0163300D03*
X0126500Y0163300D03*
X0110000Y0163300D03*
X0093500Y0163300D03*
X0110000Y0185000D03*
X0126500Y0185000D03*
D17*
X0153500Y0185000D03*
X0163750Y0136196D03*
X0093500Y0185000D03*
X0163362Y0051638D03*
X0163125Y0016250D03*
X0095625Y0048179D03*
D18*
X0115468Y0029675D03*
X0143907Y0084621D03*
X0115468Y0099754D03*
X0143907Y0154700D03*
X0153500Y0213740D03*
X0126500Y0213740D03*
X0093500Y0213740D03*
X0186500Y0213740D03*
X0192102Y0051638D03*
X0191865Y0016250D03*
M02*
