%
M48
M72
T01C0.01969
T02C0.02362
T03C0.03000
T04C0.03200
T05C0.03937
T06C0.04000
T07C0.05600
T08C0.11811
%
T01
X135315Y166430
X101750Y159152
X190000Y171500
T02
X154829Y85399
X124250Y92750
X110000Y201250
X175000Y200000
X175000Y90000
X32500Y31875
X50000Y128750
T03
X140625Y212500
T04
X71250Y98750
X71250Y88750
X71250Y78750
X71250Y68750
X71250Y58750
X71250Y48750
X71250Y38750
X41250Y38750
X41250Y48750
X41250Y58750
X41250Y68750
X41250Y78750
X41250Y88750
X41250Y98750
X41250Y108750
X41250Y118750
X41250Y140000
X41250Y150000
X41250Y160000
X41250Y170000
X41250Y180000
X41250Y190000
X41250Y200000
X41250Y210000
X41250Y220000
X71250Y220000
X71250Y210000
X71250Y200000
X71250Y190000
X71250Y180000
X71250Y170000
X71250Y160000
X71250Y150000
X71250Y140000
X71250Y118750
X71250Y108750
X126250Y232500
T05
X85453Y98728
T06
X205000Y220000
X205000Y210000
X205000Y200000
X205000Y190000
X205000Y180000
X205000Y170000
X205000Y150000
X205000Y140000
X205000Y130000
X205000Y120000
X205000Y110000
X205000Y100000
X205000Y90000
X205000Y80000
X15000Y20000
X15000Y30000
X15000Y45000
X15000Y55000
X15000Y65000
X15000Y75000
X15000Y85000
X15000Y95000
X15000Y105000
X15000Y115000
X15000Y125000
X15000Y135000
X15000Y150000
X15000Y160000
X15000Y170000
X15000Y180000
X15000Y190000
X15000Y200000
X15000Y210000
X15000Y220000
X25000Y220000
X25000Y210000
X184500Y130000
X185500Y120000
X184500Y110000
X112500Y18750
X122500Y18750
X88125Y18750
X78125Y18750
X63750Y21250
X63750Y10625
X33750Y10625
X33750Y21250
T07
X163125Y16250
X141425Y16250
X117279Y48179
X117279Y64715
X117279Y81250
X95625Y81250
X95625Y64715
X95625Y48179
X141662Y51638
X163362Y51638
X142096Y103125
X142096Y119660
X142096Y136196
X126500Y163300
X110000Y163300
X93500Y163300
X93500Y185000
X110000Y185000
X126500Y185000
X153500Y185000
X170000Y185000
X186500Y185000
X186500Y163300
X170000Y163300
X153500Y163300
X163750Y136196
X163750Y119660
X163750Y103125
T08
X191865Y16250
X192102Y51638
X143907Y84621
X115468Y99754
X143907Y154700
X126500Y213740
X93500Y213740
X153500Y213740
X186500Y213740
X115468Y29675
M30
