G75*
%MOIN*%
%OFA0B0*%
%FSLAX25Y25*%
%IPPOS*%
%LPD*%
%AMOC8*
5,1,8,0,0,1.08239X$1,22.5*
%
%ADD10C,0.00000*%
%ADD11C,0.00200*%
%ADD12C,0.01000*%
%ADD13C,0.01200*%
%ADD14C,0.00300*%
%ADD15C,0.00500*%
%ADD16C,0.00100*%
%ADD17C,0.00800*%
%ADD18R,0.09843X0.05906*%
%ADD19C,0.00900*%
%ADD20R,0.05906X0.09843*%
%ADD21C,0.00400*%
D10*
X0005000Y0005000D02*
X0015000Y0005000D01*
X0208701Y0005000D01*
X0185959Y0016250D02*
X0185961Y0016403D01*
X0185967Y0016557D01*
X0185977Y0016710D01*
X0185991Y0016862D01*
X0186009Y0017015D01*
X0186031Y0017166D01*
X0186056Y0017317D01*
X0186086Y0017468D01*
X0186120Y0017618D01*
X0186157Y0017766D01*
X0186198Y0017914D01*
X0186243Y0018060D01*
X0186292Y0018206D01*
X0186345Y0018350D01*
X0186401Y0018492D01*
X0186461Y0018633D01*
X0186525Y0018773D01*
X0186592Y0018911D01*
X0186663Y0019047D01*
X0186738Y0019181D01*
X0186815Y0019313D01*
X0186897Y0019443D01*
X0186981Y0019571D01*
X0187069Y0019697D01*
X0187160Y0019820D01*
X0187254Y0019941D01*
X0187352Y0020059D01*
X0187452Y0020175D01*
X0187556Y0020288D01*
X0187662Y0020399D01*
X0187771Y0020507D01*
X0187883Y0020612D01*
X0187997Y0020713D01*
X0188115Y0020812D01*
X0188234Y0020908D01*
X0188356Y0021001D01*
X0188481Y0021090D01*
X0188608Y0021177D01*
X0188737Y0021259D01*
X0188868Y0021339D01*
X0189001Y0021415D01*
X0189136Y0021488D01*
X0189273Y0021557D01*
X0189412Y0021622D01*
X0189552Y0021684D01*
X0189694Y0021742D01*
X0189837Y0021797D01*
X0189982Y0021848D01*
X0190128Y0021895D01*
X0190275Y0021938D01*
X0190423Y0021977D01*
X0190572Y0022013D01*
X0190722Y0022044D01*
X0190873Y0022072D01*
X0191024Y0022096D01*
X0191177Y0022116D01*
X0191329Y0022132D01*
X0191482Y0022144D01*
X0191635Y0022152D01*
X0191788Y0022156D01*
X0191942Y0022156D01*
X0192095Y0022152D01*
X0192248Y0022144D01*
X0192401Y0022132D01*
X0192553Y0022116D01*
X0192706Y0022096D01*
X0192857Y0022072D01*
X0193008Y0022044D01*
X0193158Y0022013D01*
X0193307Y0021977D01*
X0193455Y0021938D01*
X0193602Y0021895D01*
X0193748Y0021848D01*
X0193893Y0021797D01*
X0194036Y0021742D01*
X0194178Y0021684D01*
X0194318Y0021622D01*
X0194457Y0021557D01*
X0194594Y0021488D01*
X0194729Y0021415D01*
X0194862Y0021339D01*
X0194993Y0021259D01*
X0195122Y0021177D01*
X0195249Y0021090D01*
X0195374Y0021001D01*
X0195496Y0020908D01*
X0195615Y0020812D01*
X0195733Y0020713D01*
X0195847Y0020612D01*
X0195959Y0020507D01*
X0196068Y0020399D01*
X0196174Y0020288D01*
X0196278Y0020175D01*
X0196378Y0020059D01*
X0196476Y0019941D01*
X0196570Y0019820D01*
X0196661Y0019697D01*
X0196749Y0019571D01*
X0196833Y0019443D01*
X0196915Y0019313D01*
X0196992Y0019181D01*
X0197067Y0019047D01*
X0197138Y0018911D01*
X0197205Y0018773D01*
X0197269Y0018633D01*
X0197329Y0018492D01*
X0197385Y0018350D01*
X0197438Y0018206D01*
X0197487Y0018060D01*
X0197532Y0017914D01*
X0197573Y0017766D01*
X0197610Y0017618D01*
X0197644Y0017468D01*
X0197674Y0017317D01*
X0197699Y0017166D01*
X0197721Y0017015D01*
X0197739Y0016862D01*
X0197753Y0016710D01*
X0197763Y0016557D01*
X0197769Y0016403D01*
X0197771Y0016250D01*
X0197769Y0016097D01*
X0197763Y0015943D01*
X0197753Y0015790D01*
X0197739Y0015638D01*
X0197721Y0015485D01*
X0197699Y0015334D01*
X0197674Y0015183D01*
X0197644Y0015032D01*
X0197610Y0014882D01*
X0197573Y0014734D01*
X0197532Y0014586D01*
X0197487Y0014440D01*
X0197438Y0014294D01*
X0197385Y0014150D01*
X0197329Y0014008D01*
X0197269Y0013867D01*
X0197205Y0013727D01*
X0197138Y0013589D01*
X0197067Y0013453D01*
X0196992Y0013319D01*
X0196915Y0013187D01*
X0196833Y0013057D01*
X0196749Y0012929D01*
X0196661Y0012803D01*
X0196570Y0012680D01*
X0196476Y0012559D01*
X0196378Y0012441D01*
X0196278Y0012325D01*
X0196174Y0012212D01*
X0196068Y0012101D01*
X0195959Y0011993D01*
X0195847Y0011888D01*
X0195733Y0011787D01*
X0195615Y0011688D01*
X0195496Y0011592D01*
X0195374Y0011499D01*
X0195249Y0011410D01*
X0195122Y0011323D01*
X0194993Y0011241D01*
X0194862Y0011161D01*
X0194729Y0011085D01*
X0194594Y0011012D01*
X0194457Y0010943D01*
X0194318Y0010878D01*
X0194178Y0010816D01*
X0194036Y0010758D01*
X0193893Y0010703D01*
X0193748Y0010652D01*
X0193602Y0010605D01*
X0193455Y0010562D01*
X0193307Y0010523D01*
X0193158Y0010487D01*
X0193008Y0010456D01*
X0192857Y0010428D01*
X0192706Y0010404D01*
X0192553Y0010384D01*
X0192401Y0010368D01*
X0192248Y0010356D01*
X0192095Y0010348D01*
X0191942Y0010344D01*
X0191788Y0010344D01*
X0191635Y0010348D01*
X0191482Y0010356D01*
X0191329Y0010368D01*
X0191177Y0010384D01*
X0191024Y0010404D01*
X0190873Y0010428D01*
X0190722Y0010456D01*
X0190572Y0010487D01*
X0190423Y0010523D01*
X0190275Y0010562D01*
X0190128Y0010605D01*
X0189982Y0010652D01*
X0189837Y0010703D01*
X0189694Y0010758D01*
X0189552Y0010816D01*
X0189412Y0010878D01*
X0189273Y0010943D01*
X0189136Y0011012D01*
X0189001Y0011085D01*
X0188868Y0011161D01*
X0188737Y0011241D01*
X0188608Y0011323D01*
X0188481Y0011410D01*
X0188356Y0011499D01*
X0188234Y0011592D01*
X0188115Y0011688D01*
X0187997Y0011787D01*
X0187883Y0011888D01*
X0187771Y0011993D01*
X0187662Y0012101D01*
X0187556Y0012212D01*
X0187452Y0012325D01*
X0187352Y0012441D01*
X0187254Y0012559D01*
X0187160Y0012680D01*
X0187069Y0012803D01*
X0186981Y0012929D01*
X0186897Y0013057D01*
X0186815Y0013187D01*
X0186738Y0013319D01*
X0186663Y0013453D01*
X0186592Y0013589D01*
X0186525Y0013727D01*
X0186461Y0013867D01*
X0186401Y0014008D01*
X0186345Y0014150D01*
X0186292Y0014294D01*
X0186243Y0014440D01*
X0186198Y0014586D01*
X0186157Y0014734D01*
X0186120Y0014882D01*
X0186086Y0015032D01*
X0186056Y0015183D01*
X0186031Y0015334D01*
X0186009Y0015485D01*
X0185991Y0015638D01*
X0185977Y0015790D01*
X0185967Y0015943D01*
X0185961Y0016097D01*
X0185959Y0016250D01*
X0185959Y0045000D02*
X0185961Y0045153D01*
X0185967Y0045307D01*
X0185977Y0045460D01*
X0185991Y0045612D01*
X0186009Y0045765D01*
X0186031Y0045916D01*
X0186056Y0046067D01*
X0186086Y0046218D01*
X0186120Y0046368D01*
X0186157Y0046516D01*
X0186198Y0046664D01*
X0186243Y0046810D01*
X0186292Y0046956D01*
X0186345Y0047100D01*
X0186401Y0047242D01*
X0186461Y0047383D01*
X0186525Y0047523D01*
X0186592Y0047661D01*
X0186663Y0047797D01*
X0186738Y0047931D01*
X0186815Y0048063D01*
X0186897Y0048193D01*
X0186981Y0048321D01*
X0187069Y0048447D01*
X0187160Y0048570D01*
X0187254Y0048691D01*
X0187352Y0048809D01*
X0187452Y0048925D01*
X0187556Y0049038D01*
X0187662Y0049149D01*
X0187771Y0049257D01*
X0187883Y0049362D01*
X0187997Y0049463D01*
X0188115Y0049562D01*
X0188234Y0049658D01*
X0188356Y0049751D01*
X0188481Y0049840D01*
X0188608Y0049927D01*
X0188737Y0050009D01*
X0188868Y0050089D01*
X0189001Y0050165D01*
X0189136Y0050238D01*
X0189273Y0050307D01*
X0189412Y0050372D01*
X0189552Y0050434D01*
X0189694Y0050492D01*
X0189837Y0050547D01*
X0189982Y0050598D01*
X0190128Y0050645D01*
X0190275Y0050688D01*
X0190423Y0050727D01*
X0190572Y0050763D01*
X0190722Y0050794D01*
X0190873Y0050822D01*
X0191024Y0050846D01*
X0191177Y0050866D01*
X0191329Y0050882D01*
X0191482Y0050894D01*
X0191635Y0050902D01*
X0191788Y0050906D01*
X0191942Y0050906D01*
X0192095Y0050902D01*
X0192248Y0050894D01*
X0192401Y0050882D01*
X0192553Y0050866D01*
X0192706Y0050846D01*
X0192857Y0050822D01*
X0193008Y0050794D01*
X0193158Y0050763D01*
X0193307Y0050727D01*
X0193455Y0050688D01*
X0193602Y0050645D01*
X0193748Y0050598D01*
X0193893Y0050547D01*
X0194036Y0050492D01*
X0194178Y0050434D01*
X0194318Y0050372D01*
X0194457Y0050307D01*
X0194594Y0050238D01*
X0194729Y0050165D01*
X0194862Y0050089D01*
X0194993Y0050009D01*
X0195122Y0049927D01*
X0195249Y0049840D01*
X0195374Y0049751D01*
X0195496Y0049658D01*
X0195615Y0049562D01*
X0195733Y0049463D01*
X0195847Y0049362D01*
X0195959Y0049257D01*
X0196068Y0049149D01*
X0196174Y0049038D01*
X0196278Y0048925D01*
X0196378Y0048809D01*
X0196476Y0048691D01*
X0196570Y0048570D01*
X0196661Y0048447D01*
X0196749Y0048321D01*
X0196833Y0048193D01*
X0196915Y0048063D01*
X0196992Y0047931D01*
X0197067Y0047797D01*
X0197138Y0047661D01*
X0197205Y0047523D01*
X0197269Y0047383D01*
X0197329Y0047242D01*
X0197385Y0047100D01*
X0197438Y0046956D01*
X0197487Y0046810D01*
X0197532Y0046664D01*
X0197573Y0046516D01*
X0197610Y0046368D01*
X0197644Y0046218D01*
X0197674Y0046067D01*
X0197699Y0045916D01*
X0197721Y0045765D01*
X0197739Y0045612D01*
X0197753Y0045460D01*
X0197763Y0045307D01*
X0197769Y0045153D01*
X0197771Y0045000D01*
X0197769Y0044847D01*
X0197763Y0044693D01*
X0197753Y0044540D01*
X0197739Y0044388D01*
X0197721Y0044235D01*
X0197699Y0044084D01*
X0197674Y0043933D01*
X0197644Y0043782D01*
X0197610Y0043632D01*
X0197573Y0043484D01*
X0197532Y0043336D01*
X0197487Y0043190D01*
X0197438Y0043044D01*
X0197385Y0042900D01*
X0197329Y0042758D01*
X0197269Y0042617D01*
X0197205Y0042477D01*
X0197138Y0042339D01*
X0197067Y0042203D01*
X0196992Y0042069D01*
X0196915Y0041937D01*
X0196833Y0041807D01*
X0196749Y0041679D01*
X0196661Y0041553D01*
X0196570Y0041430D01*
X0196476Y0041309D01*
X0196378Y0041191D01*
X0196278Y0041075D01*
X0196174Y0040962D01*
X0196068Y0040851D01*
X0195959Y0040743D01*
X0195847Y0040638D01*
X0195733Y0040537D01*
X0195615Y0040438D01*
X0195496Y0040342D01*
X0195374Y0040249D01*
X0195249Y0040160D01*
X0195122Y0040073D01*
X0194993Y0039991D01*
X0194862Y0039911D01*
X0194729Y0039835D01*
X0194594Y0039762D01*
X0194457Y0039693D01*
X0194318Y0039628D01*
X0194178Y0039566D01*
X0194036Y0039508D01*
X0193893Y0039453D01*
X0193748Y0039402D01*
X0193602Y0039355D01*
X0193455Y0039312D01*
X0193307Y0039273D01*
X0193158Y0039237D01*
X0193008Y0039206D01*
X0192857Y0039178D01*
X0192706Y0039154D01*
X0192553Y0039134D01*
X0192401Y0039118D01*
X0192248Y0039106D01*
X0192095Y0039098D01*
X0191942Y0039094D01*
X0191788Y0039094D01*
X0191635Y0039098D01*
X0191482Y0039106D01*
X0191329Y0039118D01*
X0191177Y0039134D01*
X0191024Y0039154D01*
X0190873Y0039178D01*
X0190722Y0039206D01*
X0190572Y0039237D01*
X0190423Y0039273D01*
X0190275Y0039312D01*
X0190128Y0039355D01*
X0189982Y0039402D01*
X0189837Y0039453D01*
X0189694Y0039508D01*
X0189552Y0039566D01*
X0189412Y0039628D01*
X0189273Y0039693D01*
X0189136Y0039762D01*
X0189001Y0039835D01*
X0188868Y0039911D01*
X0188737Y0039991D01*
X0188608Y0040073D01*
X0188481Y0040160D01*
X0188356Y0040249D01*
X0188234Y0040342D01*
X0188115Y0040438D01*
X0187997Y0040537D01*
X0187883Y0040638D01*
X0187771Y0040743D01*
X0187662Y0040851D01*
X0187556Y0040962D01*
X0187452Y0041075D01*
X0187352Y0041191D01*
X0187254Y0041309D01*
X0187160Y0041430D01*
X0187069Y0041553D01*
X0186981Y0041679D01*
X0186897Y0041807D01*
X0186815Y0041937D01*
X0186738Y0042069D01*
X0186663Y0042203D01*
X0186592Y0042339D01*
X0186525Y0042477D01*
X0186461Y0042617D01*
X0186401Y0042758D01*
X0186345Y0042900D01*
X0186292Y0043044D01*
X0186243Y0043190D01*
X0186198Y0043336D01*
X0186157Y0043484D01*
X0186120Y0043632D01*
X0186086Y0043782D01*
X0186056Y0043933D01*
X0186031Y0044084D01*
X0186009Y0044235D01*
X0185991Y0044388D01*
X0185977Y0044540D01*
X0185967Y0044693D01*
X0185961Y0044847D01*
X0185959Y0045000D01*
X0158848Y0064532D02*
X0158850Y0064685D01*
X0158856Y0064839D01*
X0158866Y0064992D01*
X0158880Y0065144D01*
X0158898Y0065297D01*
X0158920Y0065448D01*
X0158945Y0065599D01*
X0158975Y0065750D01*
X0159009Y0065900D01*
X0159046Y0066048D01*
X0159087Y0066196D01*
X0159132Y0066342D01*
X0159181Y0066488D01*
X0159234Y0066632D01*
X0159290Y0066774D01*
X0159350Y0066915D01*
X0159414Y0067055D01*
X0159481Y0067193D01*
X0159552Y0067329D01*
X0159627Y0067463D01*
X0159704Y0067595D01*
X0159786Y0067725D01*
X0159870Y0067853D01*
X0159958Y0067979D01*
X0160049Y0068102D01*
X0160143Y0068223D01*
X0160241Y0068341D01*
X0160341Y0068457D01*
X0160445Y0068570D01*
X0160551Y0068681D01*
X0160660Y0068789D01*
X0160772Y0068894D01*
X0160886Y0068995D01*
X0161004Y0069094D01*
X0161123Y0069190D01*
X0161245Y0069283D01*
X0161370Y0069372D01*
X0161497Y0069459D01*
X0161626Y0069541D01*
X0161757Y0069621D01*
X0161890Y0069697D01*
X0162025Y0069770D01*
X0162162Y0069839D01*
X0162301Y0069904D01*
X0162441Y0069966D01*
X0162583Y0070024D01*
X0162726Y0070079D01*
X0162871Y0070130D01*
X0163017Y0070177D01*
X0163164Y0070220D01*
X0163312Y0070259D01*
X0163461Y0070295D01*
X0163611Y0070326D01*
X0163762Y0070354D01*
X0163913Y0070378D01*
X0164066Y0070398D01*
X0164218Y0070414D01*
X0164371Y0070426D01*
X0164524Y0070434D01*
X0164677Y0070438D01*
X0164831Y0070438D01*
X0164984Y0070434D01*
X0165137Y0070426D01*
X0165290Y0070414D01*
X0165442Y0070398D01*
X0165595Y0070378D01*
X0165746Y0070354D01*
X0165897Y0070326D01*
X0166047Y0070295D01*
X0166196Y0070259D01*
X0166344Y0070220D01*
X0166491Y0070177D01*
X0166637Y0070130D01*
X0166782Y0070079D01*
X0166925Y0070024D01*
X0167067Y0069966D01*
X0167207Y0069904D01*
X0167346Y0069839D01*
X0167483Y0069770D01*
X0167618Y0069697D01*
X0167751Y0069621D01*
X0167882Y0069541D01*
X0168011Y0069459D01*
X0168138Y0069372D01*
X0168263Y0069283D01*
X0168385Y0069190D01*
X0168504Y0069094D01*
X0168622Y0068995D01*
X0168736Y0068894D01*
X0168848Y0068789D01*
X0168957Y0068681D01*
X0169063Y0068570D01*
X0169167Y0068457D01*
X0169267Y0068341D01*
X0169365Y0068223D01*
X0169459Y0068102D01*
X0169550Y0067979D01*
X0169638Y0067853D01*
X0169722Y0067725D01*
X0169804Y0067595D01*
X0169881Y0067463D01*
X0169956Y0067329D01*
X0170027Y0067193D01*
X0170094Y0067055D01*
X0170158Y0066915D01*
X0170218Y0066774D01*
X0170274Y0066632D01*
X0170327Y0066488D01*
X0170376Y0066342D01*
X0170421Y0066196D01*
X0170462Y0066048D01*
X0170499Y0065900D01*
X0170533Y0065750D01*
X0170563Y0065599D01*
X0170588Y0065448D01*
X0170610Y0065297D01*
X0170628Y0065144D01*
X0170642Y0064992D01*
X0170652Y0064839D01*
X0170658Y0064685D01*
X0170660Y0064532D01*
X0170658Y0064379D01*
X0170652Y0064225D01*
X0170642Y0064072D01*
X0170628Y0063920D01*
X0170610Y0063767D01*
X0170588Y0063616D01*
X0170563Y0063465D01*
X0170533Y0063314D01*
X0170499Y0063164D01*
X0170462Y0063016D01*
X0170421Y0062868D01*
X0170376Y0062722D01*
X0170327Y0062576D01*
X0170274Y0062432D01*
X0170218Y0062290D01*
X0170158Y0062149D01*
X0170094Y0062009D01*
X0170027Y0061871D01*
X0169956Y0061735D01*
X0169881Y0061601D01*
X0169804Y0061469D01*
X0169722Y0061339D01*
X0169638Y0061211D01*
X0169550Y0061085D01*
X0169459Y0060962D01*
X0169365Y0060841D01*
X0169267Y0060723D01*
X0169167Y0060607D01*
X0169063Y0060494D01*
X0168957Y0060383D01*
X0168848Y0060275D01*
X0168736Y0060170D01*
X0168622Y0060069D01*
X0168504Y0059970D01*
X0168385Y0059874D01*
X0168263Y0059781D01*
X0168138Y0059692D01*
X0168011Y0059605D01*
X0167882Y0059523D01*
X0167751Y0059443D01*
X0167618Y0059367D01*
X0167483Y0059294D01*
X0167346Y0059225D01*
X0167207Y0059160D01*
X0167067Y0059098D01*
X0166925Y0059040D01*
X0166782Y0058985D01*
X0166637Y0058934D01*
X0166491Y0058887D01*
X0166344Y0058844D01*
X0166196Y0058805D01*
X0166047Y0058769D01*
X0165897Y0058738D01*
X0165746Y0058710D01*
X0165595Y0058686D01*
X0165442Y0058666D01*
X0165290Y0058650D01*
X0165137Y0058638D01*
X0164984Y0058630D01*
X0164831Y0058626D01*
X0164677Y0058626D01*
X0164524Y0058630D01*
X0164371Y0058638D01*
X0164218Y0058650D01*
X0164066Y0058666D01*
X0163913Y0058686D01*
X0163762Y0058710D01*
X0163611Y0058738D01*
X0163461Y0058769D01*
X0163312Y0058805D01*
X0163164Y0058844D01*
X0163017Y0058887D01*
X0162871Y0058934D01*
X0162726Y0058985D01*
X0162583Y0059040D01*
X0162441Y0059098D01*
X0162301Y0059160D01*
X0162162Y0059225D01*
X0162025Y0059294D01*
X0161890Y0059367D01*
X0161757Y0059443D01*
X0161626Y0059523D01*
X0161497Y0059605D01*
X0161370Y0059692D01*
X0161245Y0059781D01*
X0161123Y0059874D01*
X0161004Y0059970D01*
X0160886Y0060069D01*
X0160772Y0060170D01*
X0160660Y0060275D01*
X0160551Y0060383D01*
X0160445Y0060494D01*
X0160341Y0060607D01*
X0160241Y0060723D01*
X0160143Y0060841D01*
X0160049Y0060962D01*
X0159958Y0061085D01*
X0159870Y0061211D01*
X0159786Y0061339D01*
X0159704Y0061469D01*
X0159627Y0061601D01*
X0159552Y0061735D01*
X0159481Y0061871D01*
X0159414Y0062009D01*
X0159350Y0062149D01*
X0159290Y0062290D01*
X0159234Y0062432D01*
X0159181Y0062576D01*
X0159132Y0062722D01*
X0159087Y0062868D01*
X0159046Y0063016D01*
X0159009Y0063164D01*
X0158975Y0063314D01*
X0158945Y0063465D01*
X0158920Y0063616D01*
X0158898Y0063767D01*
X0158880Y0063920D01*
X0158866Y0064072D01*
X0158856Y0064225D01*
X0158850Y0064379D01*
X0158848Y0064532D01*
X0159473Y0112032D02*
X0159475Y0112185D01*
X0159481Y0112339D01*
X0159491Y0112492D01*
X0159505Y0112644D01*
X0159523Y0112797D01*
X0159545Y0112948D01*
X0159570Y0113099D01*
X0159600Y0113250D01*
X0159634Y0113400D01*
X0159671Y0113548D01*
X0159712Y0113696D01*
X0159757Y0113842D01*
X0159806Y0113988D01*
X0159859Y0114132D01*
X0159915Y0114274D01*
X0159975Y0114415D01*
X0160039Y0114555D01*
X0160106Y0114693D01*
X0160177Y0114829D01*
X0160252Y0114963D01*
X0160329Y0115095D01*
X0160411Y0115225D01*
X0160495Y0115353D01*
X0160583Y0115479D01*
X0160674Y0115602D01*
X0160768Y0115723D01*
X0160866Y0115841D01*
X0160966Y0115957D01*
X0161070Y0116070D01*
X0161176Y0116181D01*
X0161285Y0116289D01*
X0161397Y0116394D01*
X0161511Y0116495D01*
X0161629Y0116594D01*
X0161748Y0116690D01*
X0161870Y0116783D01*
X0161995Y0116872D01*
X0162122Y0116959D01*
X0162251Y0117041D01*
X0162382Y0117121D01*
X0162515Y0117197D01*
X0162650Y0117270D01*
X0162787Y0117339D01*
X0162926Y0117404D01*
X0163066Y0117466D01*
X0163208Y0117524D01*
X0163351Y0117579D01*
X0163496Y0117630D01*
X0163642Y0117677D01*
X0163789Y0117720D01*
X0163937Y0117759D01*
X0164086Y0117795D01*
X0164236Y0117826D01*
X0164387Y0117854D01*
X0164538Y0117878D01*
X0164691Y0117898D01*
X0164843Y0117914D01*
X0164996Y0117926D01*
X0165149Y0117934D01*
X0165302Y0117938D01*
X0165456Y0117938D01*
X0165609Y0117934D01*
X0165762Y0117926D01*
X0165915Y0117914D01*
X0166067Y0117898D01*
X0166220Y0117878D01*
X0166371Y0117854D01*
X0166522Y0117826D01*
X0166672Y0117795D01*
X0166821Y0117759D01*
X0166969Y0117720D01*
X0167116Y0117677D01*
X0167262Y0117630D01*
X0167407Y0117579D01*
X0167550Y0117524D01*
X0167692Y0117466D01*
X0167832Y0117404D01*
X0167971Y0117339D01*
X0168108Y0117270D01*
X0168243Y0117197D01*
X0168376Y0117121D01*
X0168507Y0117041D01*
X0168636Y0116959D01*
X0168763Y0116872D01*
X0168888Y0116783D01*
X0169010Y0116690D01*
X0169129Y0116594D01*
X0169247Y0116495D01*
X0169361Y0116394D01*
X0169473Y0116289D01*
X0169582Y0116181D01*
X0169688Y0116070D01*
X0169792Y0115957D01*
X0169892Y0115841D01*
X0169990Y0115723D01*
X0170084Y0115602D01*
X0170175Y0115479D01*
X0170263Y0115353D01*
X0170347Y0115225D01*
X0170429Y0115095D01*
X0170506Y0114963D01*
X0170581Y0114829D01*
X0170652Y0114693D01*
X0170719Y0114555D01*
X0170783Y0114415D01*
X0170843Y0114274D01*
X0170899Y0114132D01*
X0170952Y0113988D01*
X0171001Y0113842D01*
X0171046Y0113696D01*
X0171087Y0113548D01*
X0171124Y0113400D01*
X0171158Y0113250D01*
X0171188Y0113099D01*
X0171213Y0112948D01*
X0171235Y0112797D01*
X0171253Y0112644D01*
X0171267Y0112492D01*
X0171277Y0112339D01*
X0171283Y0112185D01*
X0171285Y0112032D01*
X0171283Y0111879D01*
X0171277Y0111725D01*
X0171267Y0111572D01*
X0171253Y0111420D01*
X0171235Y0111267D01*
X0171213Y0111116D01*
X0171188Y0110965D01*
X0171158Y0110814D01*
X0171124Y0110664D01*
X0171087Y0110516D01*
X0171046Y0110368D01*
X0171001Y0110222D01*
X0170952Y0110076D01*
X0170899Y0109932D01*
X0170843Y0109790D01*
X0170783Y0109649D01*
X0170719Y0109509D01*
X0170652Y0109371D01*
X0170581Y0109235D01*
X0170506Y0109101D01*
X0170429Y0108969D01*
X0170347Y0108839D01*
X0170263Y0108711D01*
X0170175Y0108585D01*
X0170084Y0108462D01*
X0169990Y0108341D01*
X0169892Y0108223D01*
X0169792Y0108107D01*
X0169688Y0107994D01*
X0169582Y0107883D01*
X0169473Y0107775D01*
X0169361Y0107670D01*
X0169247Y0107569D01*
X0169129Y0107470D01*
X0169010Y0107374D01*
X0168888Y0107281D01*
X0168763Y0107192D01*
X0168636Y0107105D01*
X0168507Y0107023D01*
X0168376Y0106943D01*
X0168243Y0106867D01*
X0168108Y0106794D01*
X0167971Y0106725D01*
X0167832Y0106660D01*
X0167692Y0106598D01*
X0167550Y0106540D01*
X0167407Y0106485D01*
X0167262Y0106434D01*
X0167116Y0106387D01*
X0166969Y0106344D01*
X0166821Y0106305D01*
X0166672Y0106269D01*
X0166522Y0106238D01*
X0166371Y0106210D01*
X0166220Y0106186D01*
X0166067Y0106166D01*
X0165915Y0106150D01*
X0165762Y0106138D01*
X0165609Y0106130D01*
X0165456Y0106126D01*
X0165302Y0106126D01*
X0165149Y0106130D01*
X0164996Y0106138D01*
X0164843Y0106150D01*
X0164691Y0106166D01*
X0164538Y0106186D01*
X0164387Y0106210D01*
X0164236Y0106238D01*
X0164086Y0106269D01*
X0163937Y0106305D01*
X0163789Y0106344D01*
X0163642Y0106387D01*
X0163496Y0106434D01*
X0163351Y0106485D01*
X0163208Y0106540D01*
X0163066Y0106598D01*
X0162926Y0106660D01*
X0162787Y0106725D01*
X0162650Y0106794D01*
X0162515Y0106867D01*
X0162382Y0106943D01*
X0162251Y0107023D01*
X0162122Y0107105D01*
X0161995Y0107192D01*
X0161870Y0107281D01*
X0161748Y0107374D01*
X0161629Y0107470D01*
X0161511Y0107569D01*
X0161397Y0107670D01*
X0161285Y0107775D01*
X0161176Y0107883D01*
X0161070Y0107994D01*
X0160966Y0108107D01*
X0160866Y0108223D01*
X0160768Y0108341D01*
X0160674Y0108462D01*
X0160583Y0108585D01*
X0160495Y0108711D01*
X0160411Y0108839D01*
X0160329Y0108969D01*
X0160252Y0109101D01*
X0160177Y0109235D01*
X0160106Y0109371D01*
X0160039Y0109509D01*
X0159975Y0109649D01*
X0159915Y0109790D01*
X0159859Y0109932D01*
X0159806Y0110076D01*
X0159757Y0110222D01*
X0159712Y0110368D01*
X0159671Y0110516D01*
X0159634Y0110664D01*
X0159600Y0110814D01*
X0159570Y0110965D01*
X0159545Y0111116D01*
X0159523Y0111267D01*
X0159505Y0111420D01*
X0159491Y0111572D01*
X0159481Y0111725D01*
X0159475Y0111879D01*
X0159473Y0112032D01*
X0089394Y0112032D02*
X0089396Y0112185D01*
X0089402Y0112339D01*
X0089412Y0112492D01*
X0089426Y0112644D01*
X0089444Y0112797D01*
X0089466Y0112948D01*
X0089491Y0113099D01*
X0089521Y0113250D01*
X0089555Y0113400D01*
X0089592Y0113548D01*
X0089633Y0113696D01*
X0089678Y0113842D01*
X0089727Y0113988D01*
X0089780Y0114132D01*
X0089836Y0114274D01*
X0089896Y0114415D01*
X0089960Y0114555D01*
X0090027Y0114693D01*
X0090098Y0114829D01*
X0090173Y0114963D01*
X0090250Y0115095D01*
X0090332Y0115225D01*
X0090416Y0115353D01*
X0090504Y0115479D01*
X0090595Y0115602D01*
X0090689Y0115723D01*
X0090787Y0115841D01*
X0090887Y0115957D01*
X0090991Y0116070D01*
X0091097Y0116181D01*
X0091206Y0116289D01*
X0091318Y0116394D01*
X0091432Y0116495D01*
X0091550Y0116594D01*
X0091669Y0116690D01*
X0091791Y0116783D01*
X0091916Y0116872D01*
X0092043Y0116959D01*
X0092172Y0117041D01*
X0092303Y0117121D01*
X0092436Y0117197D01*
X0092571Y0117270D01*
X0092708Y0117339D01*
X0092847Y0117404D01*
X0092987Y0117466D01*
X0093129Y0117524D01*
X0093272Y0117579D01*
X0093417Y0117630D01*
X0093563Y0117677D01*
X0093710Y0117720D01*
X0093858Y0117759D01*
X0094007Y0117795D01*
X0094157Y0117826D01*
X0094308Y0117854D01*
X0094459Y0117878D01*
X0094612Y0117898D01*
X0094764Y0117914D01*
X0094917Y0117926D01*
X0095070Y0117934D01*
X0095223Y0117938D01*
X0095377Y0117938D01*
X0095530Y0117934D01*
X0095683Y0117926D01*
X0095836Y0117914D01*
X0095988Y0117898D01*
X0096141Y0117878D01*
X0096292Y0117854D01*
X0096443Y0117826D01*
X0096593Y0117795D01*
X0096742Y0117759D01*
X0096890Y0117720D01*
X0097037Y0117677D01*
X0097183Y0117630D01*
X0097328Y0117579D01*
X0097471Y0117524D01*
X0097613Y0117466D01*
X0097753Y0117404D01*
X0097892Y0117339D01*
X0098029Y0117270D01*
X0098164Y0117197D01*
X0098297Y0117121D01*
X0098428Y0117041D01*
X0098557Y0116959D01*
X0098684Y0116872D01*
X0098809Y0116783D01*
X0098931Y0116690D01*
X0099050Y0116594D01*
X0099168Y0116495D01*
X0099282Y0116394D01*
X0099394Y0116289D01*
X0099503Y0116181D01*
X0099609Y0116070D01*
X0099713Y0115957D01*
X0099813Y0115841D01*
X0099911Y0115723D01*
X0100005Y0115602D01*
X0100096Y0115479D01*
X0100184Y0115353D01*
X0100268Y0115225D01*
X0100350Y0115095D01*
X0100427Y0114963D01*
X0100502Y0114829D01*
X0100573Y0114693D01*
X0100640Y0114555D01*
X0100704Y0114415D01*
X0100764Y0114274D01*
X0100820Y0114132D01*
X0100873Y0113988D01*
X0100922Y0113842D01*
X0100967Y0113696D01*
X0101008Y0113548D01*
X0101045Y0113400D01*
X0101079Y0113250D01*
X0101109Y0113099D01*
X0101134Y0112948D01*
X0101156Y0112797D01*
X0101174Y0112644D01*
X0101188Y0112492D01*
X0101198Y0112339D01*
X0101204Y0112185D01*
X0101206Y0112032D01*
X0101204Y0111879D01*
X0101198Y0111725D01*
X0101188Y0111572D01*
X0101174Y0111420D01*
X0101156Y0111267D01*
X0101134Y0111116D01*
X0101109Y0110965D01*
X0101079Y0110814D01*
X0101045Y0110664D01*
X0101008Y0110516D01*
X0100967Y0110368D01*
X0100922Y0110222D01*
X0100873Y0110076D01*
X0100820Y0109932D01*
X0100764Y0109790D01*
X0100704Y0109649D01*
X0100640Y0109509D01*
X0100573Y0109371D01*
X0100502Y0109235D01*
X0100427Y0109101D01*
X0100350Y0108969D01*
X0100268Y0108839D01*
X0100184Y0108711D01*
X0100096Y0108585D01*
X0100005Y0108462D01*
X0099911Y0108341D01*
X0099813Y0108223D01*
X0099713Y0108107D01*
X0099609Y0107994D01*
X0099503Y0107883D01*
X0099394Y0107775D01*
X0099282Y0107670D01*
X0099168Y0107569D01*
X0099050Y0107470D01*
X0098931Y0107374D01*
X0098809Y0107281D01*
X0098684Y0107192D01*
X0098557Y0107105D01*
X0098428Y0107023D01*
X0098297Y0106943D01*
X0098164Y0106867D01*
X0098029Y0106794D01*
X0097892Y0106725D01*
X0097753Y0106660D01*
X0097613Y0106598D01*
X0097471Y0106540D01*
X0097328Y0106485D01*
X0097183Y0106434D01*
X0097037Y0106387D01*
X0096890Y0106344D01*
X0096742Y0106305D01*
X0096593Y0106269D01*
X0096443Y0106238D01*
X0096292Y0106210D01*
X0096141Y0106186D01*
X0095988Y0106166D01*
X0095836Y0106150D01*
X0095683Y0106138D01*
X0095530Y0106130D01*
X0095377Y0106126D01*
X0095223Y0106126D01*
X0095070Y0106130D01*
X0094917Y0106138D01*
X0094764Y0106150D01*
X0094612Y0106166D01*
X0094459Y0106186D01*
X0094308Y0106210D01*
X0094157Y0106238D01*
X0094007Y0106269D01*
X0093858Y0106305D01*
X0093710Y0106344D01*
X0093563Y0106387D01*
X0093417Y0106434D01*
X0093272Y0106485D01*
X0093129Y0106540D01*
X0092987Y0106598D01*
X0092847Y0106660D01*
X0092708Y0106725D01*
X0092571Y0106794D01*
X0092436Y0106867D01*
X0092303Y0106943D01*
X0092172Y0107023D01*
X0092043Y0107105D01*
X0091916Y0107192D01*
X0091791Y0107281D01*
X0091669Y0107374D01*
X0091550Y0107470D01*
X0091432Y0107569D01*
X0091318Y0107670D01*
X0091206Y0107775D01*
X0091097Y0107883D01*
X0090991Y0107994D01*
X0090887Y0108107D01*
X0090787Y0108223D01*
X0090689Y0108341D01*
X0090595Y0108462D01*
X0090504Y0108585D01*
X0090416Y0108711D01*
X0090332Y0108839D01*
X0090250Y0108969D01*
X0090173Y0109101D01*
X0090098Y0109235D01*
X0090027Y0109371D01*
X0089960Y0109509D01*
X0089896Y0109649D01*
X0089836Y0109790D01*
X0089780Y0109932D01*
X0089727Y0110076D01*
X0089678Y0110222D01*
X0089633Y0110368D01*
X0089592Y0110516D01*
X0089555Y0110664D01*
X0089521Y0110814D01*
X0089491Y0110965D01*
X0089466Y0111116D01*
X0089444Y0111267D01*
X0089426Y0111420D01*
X0089412Y0111572D01*
X0089402Y0111725D01*
X0089396Y0111879D01*
X0089394Y0112032D01*
X0088769Y0064532D02*
X0088771Y0064685D01*
X0088777Y0064839D01*
X0088787Y0064992D01*
X0088801Y0065144D01*
X0088819Y0065297D01*
X0088841Y0065448D01*
X0088866Y0065599D01*
X0088896Y0065750D01*
X0088930Y0065900D01*
X0088967Y0066048D01*
X0089008Y0066196D01*
X0089053Y0066342D01*
X0089102Y0066488D01*
X0089155Y0066632D01*
X0089211Y0066774D01*
X0089271Y0066915D01*
X0089335Y0067055D01*
X0089402Y0067193D01*
X0089473Y0067329D01*
X0089548Y0067463D01*
X0089625Y0067595D01*
X0089707Y0067725D01*
X0089791Y0067853D01*
X0089879Y0067979D01*
X0089970Y0068102D01*
X0090064Y0068223D01*
X0090162Y0068341D01*
X0090262Y0068457D01*
X0090366Y0068570D01*
X0090472Y0068681D01*
X0090581Y0068789D01*
X0090693Y0068894D01*
X0090807Y0068995D01*
X0090925Y0069094D01*
X0091044Y0069190D01*
X0091166Y0069283D01*
X0091291Y0069372D01*
X0091418Y0069459D01*
X0091547Y0069541D01*
X0091678Y0069621D01*
X0091811Y0069697D01*
X0091946Y0069770D01*
X0092083Y0069839D01*
X0092222Y0069904D01*
X0092362Y0069966D01*
X0092504Y0070024D01*
X0092647Y0070079D01*
X0092792Y0070130D01*
X0092938Y0070177D01*
X0093085Y0070220D01*
X0093233Y0070259D01*
X0093382Y0070295D01*
X0093532Y0070326D01*
X0093683Y0070354D01*
X0093834Y0070378D01*
X0093987Y0070398D01*
X0094139Y0070414D01*
X0094292Y0070426D01*
X0094445Y0070434D01*
X0094598Y0070438D01*
X0094752Y0070438D01*
X0094905Y0070434D01*
X0095058Y0070426D01*
X0095211Y0070414D01*
X0095363Y0070398D01*
X0095516Y0070378D01*
X0095667Y0070354D01*
X0095818Y0070326D01*
X0095968Y0070295D01*
X0096117Y0070259D01*
X0096265Y0070220D01*
X0096412Y0070177D01*
X0096558Y0070130D01*
X0096703Y0070079D01*
X0096846Y0070024D01*
X0096988Y0069966D01*
X0097128Y0069904D01*
X0097267Y0069839D01*
X0097404Y0069770D01*
X0097539Y0069697D01*
X0097672Y0069621D01*
X0097803Y0069541D01*
X0097932Y0069459D01*
X0098059Y0069372D01*
X0098184Y0069283D01*
X0098306Y0069190D01*
X0098425Y0069094D01*
X0098543Y0068995D01*
X0098657Y0068894D01*
X0098769Y0068789D01*
X0098878Y0068681D01*
X0098984Y0068570D01*
X0099088Y0068457D01*
X0099188Y0068341D01*
X0099286Y0068223D01*
X0099380Y0068102D01*
X0099471Y0067979D01*
X0099559Y0067853D01*
X0099643Y0067725D01*
X0099725Y0067595D01*
X0099802Y0067463D01*
X0099877Y0067329D01*
X0099948Y0067193D01*
X0100015Y0067055D01*
X0100079Y0066915D01*
X0100139Y0066774D01*
X0100195Y0066632D01*
X0100248Y0066488D01*
X0100297Y0066342D01*
X0100342Y0066196D01*
X0100383Y0066048D01*
X0100420Y0065900D01*
X0100454Y0065750D01*
X0100484Y0065599D01*
X0100509Y0065448D01*
X0100531Y0065297D01*
X0100549Y0065144D01*
X0100563Y0064992D01*
X0100573Y0064839D01*
X0100579Y0064685D01*
X0100581Y0064532D01*
X0100579Y0064379D01*
X0100573Y0064225D01*
X0100563Y0064072D01*
X0100549Y0063920D01*
X0100531Y0063767D01*
X0100509Y0063616D01*
X0100484Y0063465D01*
X0100454Y0063314D01*
X0100420Y0063164D01*
X0100383Y0063016D01*
X0100342Y0062868D01*
X0100297Y0062722D01*
X0100248Y0062576D01*
X0100195Y0062432D01*
X0100139Y0062290D01*
X0100079Y0062149D01*
X0100015Y0062009D01*
X0099948Y0061871D01*
X0099877Y0061735D01*
X0099802Y0061601D01*
X0099725Y0061469D01*
X0099643Y0061339D01*
X0099559Y0061211D01*
X0099471Y0061085D01*
X0099380Y0060962D01*
X0099286Y0060841D01*
X0099188Y0060723D01*
X0099088Y0060607D01*
X0098984Y0060494D01*
X0098878Y0060383D01*
X0098769Y0060275D01*
X0098657Y0060170D01*
X0098543Y0060069D01*
X0098425Y0059970D01*
X0098306Y0059874D01*
X0098184Y0059781D01*
X0098059Y0059692D01*
X0097932Y0059605D01*
X0097803Y0059523D01*
X0097672Y0059443D01*
X0097539Y0059367D01*
X0097404Y0059294D01*
X0097267Y0059225D01*
X0097128Y0059160D01*
X0096988Y0059098D01*
X0096846Y0059040D01*
X0096703Y0058985D01*
X0096558Y0058934D01*
X0096412Y0058887D01*
X0096265Y0058844D01*
X0096117Y0058805D01*
X0095968Y0058769D01*
X0095818Y0058738D01*
X0095667Y0058710D01*
X0095516Y0058686D01*
X0095363Y0058666D01*
X0095211Y0058650D01*
X0095058Y0058638D01*
X0094905Y0058630D01*
X0094752Y0058626D01*
X0094598Y0058626D01*
X0094445Y0058630D01*
X0094292Y0058638D01*
X0094139Y0058650D01*
X0093987Y0058666D01*
X0093834Y0058686D01*
X0093683Y0058710D01*
X0093532Y0058738D01*
X0093382Y0058769D01*
X0093233Y0058805D01*
X0093085Y0058844D01*
X0092938Y0058887D01*
X0092792Y0058934D01*
X0092647Y0058985D01*
X0092504Y0059040D01*
X0092362Y0059098D01*
X0092222Y0059160D01*
X0092083Y0059225D01*
X0091946Y0059294D01*
X0091811Y0059367D01*
X0091678Y0059443D01*
X0091547Y0059523D01*
X0091418Y0059605D01*
X0091291Y0059692D01*
X0091166Y0059781D01*
X0091044Y0059874D01*
X0090925Y0059970D01*
X0090807Y0060069D01*
X0090693Y0060170D01*
X0090581Y0060275D01*
X0090472Y0060383D01*
X0090366Y0060494D01*
X0090262Y0060607D01*
X0090162Y0060723D01*
X0090064Y0060841D01*
X0089970Y0060962D01*
X0089879Y0061085D01*
X0089791Y0061211D01*
X0089707Y0061339D01*
X0089625Y0061469D01*
X0089548Y0061601D01*
X0089473Y0061735D01*
X0089402Y0061871D01*
X0089335Y0062009D01*
X0089271Y0062149D01*
X0089211Y0062290D01*
X0089155Y0062432D01*
X0089102Y0062576D01*
X0089053Y0062722D01*
X0089008Y0062868D01*
X0088967Y0063016D01*
X0088930Y0063164D01*
X0088896Y0063314D01*
X0088866Y0063465D01*
X0088841Y0063616D01*
X0088819Y0063767D01*
X0088801Y0063920D01*
X0088787Y0064072D01*
X0088777Y0064225D01*
X0088771Y0064379D01*
X0088769Y0064532D01*
X0087594Y0213740D02*
X0087596Y0213893D01*
X0087602Y0214047D01*
X0087612Y0214200D01*
X0087626Y0214352D01*
X0087644Y0214505D01*
X0087666Y0214656D01*
X0087691Y0214807D01*
X0087721Y0214958D01*
X0087755Y0215108D01*
X0087792Y0215256D01*
X0087833Y0215404D01*
X0087878Y0215550D01*
X0087927Y0215696D01*
X0087980Y0215840D01*
X0088036Y0215982D01*
X0088096Y0216123D01*
X0088160Y0216263D01*
X0088227Y0216401D01*
X0088298Y0216537D01*
X0088373Y0216671D01*
X0088450Y0216803D01*
X0088532Y0216933D01*
X0088616Y0217061D01*
X0088704Y0217187D01*
X0088795Y0217310D01*
X0088889Y0217431D01*
X0088987Y0217549D01*
X0089087Y0217665D01*
X0089191Y0217778D01*
X0089297Y0217889D01*
X0089406Y0217997D01*
X0089518Y0218102D01*
X0089632Y0218203D01*
X0089750Y0218302D01*
X0089869Y0218398D01*
X0089991Y0218491D01*
X0090116Y0218580D01*
X0090243Y0218667D01*
X0090372Y0218749D01*
X0090503Y0218829D01*
X0090636Y0218905D01*
X0090771Y0218978D01*
X0090908Y0219047D01*
X0091047Y0219112D01*
X0091187Y0219174D01*
X0091329Y0219232D01*
X0091472Y0219287D01*
X0091617Y0219338D01*
X0091763Y0219385D01*
X0091910Y0219428D01*
X0092058Y0219467D01*
X0092207Y0219503D01*
X0092357Y0219534D01*
X0092508Y0219562D01*
X0092659Y0219586D01*
X0092812Y0219606D01*
X0092964Y0219622D01*
X0093117Y0219634D01*
X0093270Y0219642D01*
X0093423Y0219646D01*
X0093577Y0219646D01*
X0093730Y0219642D01*
X0093883Y0219634D01*
X0094036Y0219622D01*
X0094188Y0219606D01*
X0094341Y0219586D01*
X0094492Y0219562D01*
X0094643Y0219534D01*
X0094793Y0219503D01*
X0094942Y0219467D01*
X0095090Y0219428D01*
X0095237Y0219385D01*
X0095383Y0219338D01*
X0095528Y0219287D01*
X0095671Y0219232D01*
X0095813Y0219174D01*
X0095953Y0219112D01*
X0096092Y0219047D01*
X0096229Y0218978D01*
X0096364Y0218905D01*
X0096497Y0218829D01*
X0096628Y0218749D01*
X0096757Y0218667D01*
X0096884Y0218580D01*
X0097009Y0218491D01*
X0097131Y0218398D01*
X0097250Y0218302D01*
X0097368Y0218203D01*
X0097482Y0218102D01*
X0097594Y0217997D01*
X0097703Y0217889D01*
X0097809Y0217778D01*
X0097913Y0217665D01*
X0098013Y0217549D01*
X0098111Y0217431D01*
X0098205Y0217310D01*
X0098296Y0217187D01*
X0098384Y0217061D01*
X0098468Y0216933D01*
X0098550Y0216803D01*
X0098627Y0216671D01*
X0098702Y0216537D01*
X0098773Y0216401D01*
X0098840Y0216263D01*
X0098904Y0216123D01*
X0098964Y0215982D01*
X0099020Y0215840D01*
X0099073Y0215696D01*
X0099122Y0215550D01*
X0099167Y0215404D01*
X0099208Y0215256D01*
X0099245Y0215108D01*
X0099279Y0214958D01*
X0099309Y0214807D01*
X0099334Y0214656D01*
X0099356Y0214505D01*
X0099374Y0214352D01*
X0099388Y0214200D01*
X0099398Y0214047D01*
X0099404Y0213893D01*
X0099406Y0213740D01*
X0099404Y0213587D01*
X0099398Y0213433D01*
X0099388Y0213280D01*
X0099374Y0213128D01*
X0099356Y0212975D01*
X0099334Y0212824D01*
X0099309Y0212673D01*
X0099279Y0212522D01*
X0099245Y0212372D01*
X0099208Y0212224D01*
X0099167Y0212076D01*
X0099122Y0211930D01*
X0099073Y0211784D01*
X0099020Y0211640D01*
X0098964Y0211498D01*
X0098904Y0211357D01*
X0098840Y0211217D01*
X0098773Y0211079D01*
X0098702Y0210943D01*
X0098627Y0210809D01*
X0098550Y0210677D01*
X0098468Y0210547D01*
X0098384Y0210419D01*
X0098296Y0210293D01*
X0098205Y0210170D01*
X0098111Y0210049D01*
X0098013Y0209931D01*
X0097913Y0209815D01*
X0097809Y0209702D01*
X0097703Y0209591D01*
X0097594Y0209483D01*
X0097482Y0209378D01*
X0097368Y0209277D01*
X0097250Y0209178D01*
X0097131Y0209082D01*
X0097009Y0208989D01*
X0096884Y0208900D01*
X0096757Y0208813D01*
X0096628Y0208731D01*
X0096497Y0208651D01*
X0096364Y0208575D01*
X0096229Y0208502D01*
X0096092Y0208433D01*
X0095953Y0208368D01*
X0095813Y0208306D01*
X0095671Y0208248D01*
X0095528Y0208193D01*
X0095383Y0208142D01*
X0095237Y0208095D01*
X0095090Y0208052D01*
X0094942Y0208013D01*
X0094793Y0207977D01*
X0094643Y0207946D01*
X0094492Y0207918D01*
X0094341Y0207894D01*
X0094188Y0207874D01*
X0094036Y0207858D01*
X0093883Y0207846D01*
X0093730Y0207838D01*
X0093577Y0207834D01*
X0093423Y0207834D01*
X0093270Y0207838D01*
X0093117Y0207846D01*
X0092964Y0207858D01*
X0092812Y0207874D01*
X0092659Y0207894D01*
X0092508Y0207918D01*
X0092357Y0207946D01*
X0092207Y0207977D01*
X0092058Y0208013D01*
X0091910Y0208052D01*
X0091763Y0208095D01*
X0091617Y0208142D01*
X0091472Y0208193D01*
X0091329Y0208248D01*
X0091187Y0208306D01*
X0091047Y0208368D01*
X0090908Y0208433D01*
X0090771Y0208502D01*
X0090636Y0208575D01*
X0090503Y0208651D01*
X0090372Y0208731D01*
X0090243Y0208813D01*
X0090116Y0208900D01*
X0089991Y0208989D01*
X0089869Y0209082D01*
X0089750Y0209178D01*
X0089632Y0209277D01*
X0089518Y0209378D01*
X0089406Y0209483D01*
X0089297Y0209591D01*
X0089191Y0209702D01*
X0089087Y0209815D01*
X0088987Y0209931D01*
X0088889Y0210049D01*
X0088795Y0210170D01*
X0088704Y0210293D01*
X0088616Y0210419D01*
X0088532Y0210547D01*
X0088450Y0210677D01*
X0088373Y0210809D01*
X0088298Y0210943D01*
X0088227Y0211079D01*
X0088160Y0211217D01*
X0088096Y0211357D01*
X0088036Y0211498D01*
X0087980Y0211640D01*
X0087927Y0211784D01*
X0087878Y0211930D01*
X0087833Y0212076D01*
X0087792Y0212224D01*
X0087755Y0212372D01*
X0087721Y0212522D01*
X0087691Y0212673D01*
X0087666Y0212824D01*
X0087644Y0212975D01*
X0087626Y0213128D01*
X0087612Y0213280D01*
X0087602Y0213433D01*
X0087596Y0213587D01*
X0087594Y0213740D01*
X0120594Y0213740D02*
X0120596Y0213893D01*
X0120602Y0214047D01*
X0120612Y0214200D01*
X0120626Y0214352D01*
X0120644Y0214505D01*
X0120666Y0214656D01*
X0120691Y0214807D01*
X0120721Y0214958D01*
X0120755Y0215108D01*
X0120792Y0215256D01*
X0120833Y0215404D01*
X0120878Y0215550D01*
X0120927Y0215696D01*
X0120980Y0215840D01*
X0121036Y0215982D01*
X0121096Y0216123D01*
X0121160Y0216263D01*
X0121227Y0216401D01*
X0121298Y0216537D01*
X0121373Y0216671D01*
X0121450Y0216803D01*
X0121532Y0216933D01*
X0121616Y0217061D01*
X0121704Y0217187D01*
X0121795Y0217310D01*
X0121889Y0217431D01*
X0121987Y0217549D01*
X0122087Y0217665D01*
X0122191Y0217778D01*
X0122297Y0217889D01*
X0122406Y0217997D01*
X0122518Y0218102D01*
X0122632Y0218203D01*
X0122750Y0218302D01*
X0122869Y0218398D01*
X0122991Y0218491D01*
X0123116Y0218580D01*
X0123243Y0218667D01*
X0123372Y0218749D01*
X0123503Y0218829D01*
X0123636Y0218905D01*
X0123771Y0218978D01*
X0123908Y0219047D01*
X0124047Y0219112D01*
X0124187Y0219174D01*
X0124329Y0219232D01*
X0124472Y0219287D01*
X0124617Y0219338D01*
X0124763Y0219385D01*
X0124910Y0219428D01*
X0125058Y0219467D01*
X0125207Y0219503D01*
X0125357Y0219534D01*
X0125508Y0219562D01*
X0125659Y0219586D01*
X0125812Y0219606D01*
X0125964Y0219622D01*
X0126117Y0219634D01*
X0126270Y0219642D01*
X0126423Y0219646D01*
X0126577Y0219646D01*
X0126730Y0219642D01*
X0126883Y0219634D01*
X0127036Y0219622D01*
X0127188Y0219606D01*
X0127341Y0219586D01*
X0127492Y0219562D01*
X0127643Y0219534D01*
X0127793Y0219503D01*
X0127942Y0219467D01*
X0128090Y0219428D01*
X0128237Y0219385D01*
X0128383Y0219338D01*
X0128528Y0219287D01*
X0128671Y0219232D01*
X0128813Y0219174D01*
X0128953Y0219112D01*
X0129092Y0219047D01*
X0129229Y0218978D01*
X0129364Y0218905D01*
X0129497Y0218829D01*
X0129628Y0218749D01*
X0129757Y0218667D01*
X0129884Y0218580D01*
X0130009Y0218491D01*
X0130131Y0218398D01*
X0130250Y0218302D01*
X0130368Y0218203D01*
X0130482Y0218102D01*
X0130594Y0217997D01*
X0130703Y0217889D01*
X0130809Y0217778D01*
X0130913Y0217665D01*
X0131013Y0217549D01*
X0131111Y0217431D01*
X0131205Y0217310D01*
X0131296Y0217187D01*
X0131384Y0217061D01*
X0131468Y0216933D01*
X0131550Y0216803D01*
X0131627Y0216671D01*
X0131702Y0216537D01*
X0131773Y0216401D01*
X0131840Y0216263D01*
X0131904Y0216123D01*
X0131964Y0215982D01*
X0132020Y0215840D01*
X0132073Y0215696D01*
X0132122Y0215550D01*
X0132167Y0215404D01*
X0132208Y0215256D01*
X0132245Y0215108D01*
X0132279Y0214958D01*
X0132309Y0214807D01*
X0132334Y0214656D01*
X0132356Y0214505D01*
X0132374Y0214352D01*
X0132388Y0214200D01*
X0132398Y0214047D01*
X0132404Y0213893D01*
X0132406Y0213740D01*
X0132404Y0213587D01*
X0132398Y0213433D01*
X0132388Y0213280D01*
X0132374Y0213128D01*
X0132356Y0212975D01*
X0132334Y0212824D01*
X0132309Y0212673D01*
X0132279Y0212522D01*
X0132245Y0212372D01*
X0132208Y0212224D01*
X0132167Y0212076D01*
X0132122Y0211930D01*
X0132073Y0211784D01*
X0132020Y0211640D01*
X0131964Y0211498D01*
X0131904Y0211357D01*
X0131840Y0211217D01*
X0131773Y0211079D01*
X0131702Y0210943D01*
X0131627Y0210809D01*
X0131550Y0210677D01*
X0131468Y0210547D01*
X0131384Y0210419D01*
X0131296Y0210293D01*
X0131205Y0210170D01*
X0131111Y0210049D01*
X0131013Y0209931D01*
X0130913Y0209815D01*
X0130809Y0209702D01*
X0130703Y0209591D01*
X0130594Y0209483D01*
X0130482Y0209378D01*
X0130368Y0209277D01*
X0130250Y0209178D01*
X0130131Y0209082D01*
X0130009Y0208989D01*
X0129884Y0208900D01*
X0129757Y0208813D01*
X0129628Y0208731D01*
X0129497Y0208651D01*
X0129364Y0208575D01*
X0129229Y0208502D01*
X0129092Y0208433D01*
X0128953Y0208368D01*
X0128813Y0208306D01*
X0128671Y0208248D01*
X0128528Y0208193D01*
X0128383Y0208142D01*
X0128237Y0208095D01*
X0128090Y0208052D01*
X0127942Y0208013D01*
X0127793Y0207977D01*
X0127643Y0207946D01*
X0127492Y0207918D01*
X0127341Y0207894D01*
X0127188Y0207874D01*
X0127036Y0207858D01*
X0126883Y0207846D01*
X0126730Y0207838D01*
X0126577Y0207834D01*
X0126423Y0207834D01*
X0126270Y0207838D01*
X0126117Y0207846D01*
X0125964Y0207858D01*
X0125812Y0207874D01*
X0125659Y0207894D01*
X0125508Y0207918D01*
X0125357Y0207946D01*
X0125207Y0207977D01*
X0125058Y0208013D01*
X0124910Y0208052D01*
X0124763Y0208095D01*
X0124617Y0208142D01*
X0124472Y0208193D01*
X0124329Y0208248D01*
X0124187Y0208306D01*
X0124047Y0208368D01*
X0123908Y0208433D01*
X0123771Y0208502D01*
X0123636Y0208575D01*
X0123503Y0208651D01*
X0123372Y0208731D01*
X0123243Y0208813D01*
X0123116Y0208900D01*
X0122991Y0208989D01*
X0122869Y0209082D01*
X0122750Y0209178D01*
X0122632Y0209277D01*
X0122518Y0209378D01*
X0122406Y0209483D01*
X0122297Y0209591D01*
X0122191Y0209702D01*
X0122087Y0209815D01*
X0121987Y0209931D01*
X0121889Y0210049D01*
X0121795Y0210170D01*
X0121704Y0210293D01*
X0121616Y0210419D01*
X0121532Y0210547D01*
X0121450Y0210677D01*
X0121373Y0210809D01*
X0121298Y0210943D01*
X0121227Y0211079D01*
X0121160Y0211217D01*
X0121096Y0211357D01*
X0121036Y0211498D01*
X0120980Y0211640D01*
X0120927Y0211784D01*
X0120878Y0211930D01*
X0120833Y0212076D01*
X0120792Y0212224D01*
X0120755Y0212372D01*
X0120721Y0212522D01*
X0120691Y0212673D01*
X0120666Y0212824D01*
X0120644Y0212975D01*
X0120626Y0213128D01*
X0120612Y0213280D01*
X0120602Y0213433D01*
X0120596Y0213587D01*
X0120594Y0213740D01*
X0147594Y0213740D02*
X0147596Y0213893D01*
X0147602Y0214047D01*
X0147612Y0214200D01*
X0147626Y0214352D01*
X0147644Y0214505D01*
X0147666Y0214656D01*
X0147691Y0214807D01*
X0147721Y0214958D01*
X0147755Y0215108D01*
X0147792Y0215256D01*
X0147833Y0215404D01*
X0147878Y0215550D01*
X0147927Y0215696D01*
X0147980Y0215840D01*
X0148036Y0215982D01*
X0148096Y0216123D01*
X0148160Y0216263D01*
X0148227Y0216401D01*
X0148298Y0216537D01*
X0148373Y0216671D01*
X0148450Y0216803D01*
X0148532Y0216933D01*
X0148616Y0217061D01*
X0148704Y0217187D01*
X0148795Y0217310D01*
X0148889Y0217431D01*
X0148987Y0217549D01*
X0149087Y0217665D01*
X0149191Y0217778D01*
X0149297Y0217889D01*
X0149406Y0217997D01*
X0149518Y0218102D01*
X0149632Y0218203D01*
X0149750Y0218302D01*
X0149869Y0218398D01*
X0149991Y0218491D01*
X0150116Y0218580D01*
X0150243Y0218667D01*
X0150372Y0218749D01*
X0150503Y0218829D01*
X0150636Y0218905D01*
X0150771Y0218978D01*
X0150908Y0219047D01*
X0151047Y0219112D01*
X0151187Y0219174D01*
X0151329Y0219232D01*
X0151472Y0219287D01*
X0151617Y0219338D01*
X0151763Y0219385D01*
X0151910Y0219428D01*
X0152058Y0219467D01*
X0152207Y0219503D01*
X0152357Y0219534D01*
X0152508Y0219562D01*
X0152659Y0219586D01*
X0152812Y0219606D01*
X0152964Y0219622D01*
X0153117Y0219634D01*
X0153270Y0219642D01*
X0153423Y0219646D01*
X0153577Y0219646D01*
X0153730Y0219642D01*
X0153883Y0219634D01*
X0154036Y0219622D01*
X0154188Y0219606D01*
X0154341Y0219586D01*
X0154492Y0219562D01*
X0154643Y0219534D01*
X0154793Y0219503D01*
X0154942Y0219467D01*
X0155090Y0219428D01*
X0155237Y0219385D01*
X0155383Y0219338D01*
X0155528Y0219287D01*
X0155671Y0219232D01*
X0155813Y0219174D01*
X0155953Y0219112D01*
X0156092Y0219047D01*
X0156229Y0218978D01*
X0156364Y0218905D01*
X0156497Y0218829D01*
X0156628Y0218749D01*
X0156757Y0218667D01*
X0156884Y0218580D01*
X0157009Y0218491D01*
X0157131Y0218398D01*
X0157250Y0218302D01*
X0157368Y0218203D01*
X0157482Y0218102D01*
X0157594Y0217997D01*
X0157703Y0217889D01*
X0157809Y0217778D01*
X0157913Y0217665D01*
X0158013Y0217549D01*
X0158111Y0217431D01*
X0158205Y0217310D01*
X0158296Y0217187D01*
X0158384Y0217061D01*
X0158468Y0216933D01*
X0158550Y0216803D01*
X0158627Y0216671D01*
X0158702Y0216537D01*
X0158773Y0216401D01*
X0158840Y0216263D01*
X0158904Y0216123D01*
X0158964Y0215982D01*
X0159020Y0215840D01*
X0159073Y0215696D01*
X0159122Y0215550D01*
X0159167Y0215404D01*
X0159208Y0215256D01*
X0159245Y0215108D01*
X0159279Y0214958D01*
X0159309Y0214807D01*
X0159334Y0214656D01*
X0159356Y0214505D01*
X0159374Y0214352D01*
X0159388Y0214200D01*
X0159398Y0214047D01*
X0159404Y0213893D01*
X0159406Y0213740D01*
X0159404Y0213587D01*
X0159398Y0213433D01*
X0159388Y0213280D01*
X0159374Y0213128D01*
X0159356Y0212975D01*
X0159334Y0212824D01*
X0159309Y0212673D01*
X0159279Y0212522D01*
X0159245Y0212372D01*
X0159208Y0212224D01*
X0159167Y0212076D01*
X0159122Y0211930D01*
X0159073Y0211784D01*
X0159020Y0211640D01*
X0158964Y0211498D01*
X0158904Y0211357D01*
X0158840Y0211217D01*
X0158773Y0211079D01*
X0158702Y0210943D01*
X0158627Y0210809D01*
X0158550Y0210677D01*
X0158468Y0210547D01*
X0158384Y0210419D01*
X0158296Y0210293D01*
X0158205Y0210170D01*
X0158111Y0210049D01*
X0158013Y0209931D01*
X0157913Y0209815D01*
X0157809Y0209702D01*
X0157703Y0209591D01*
X0157594Y0209483D01*
X0157482Y0209378D01*
X0157368Y0209277D01*
X0157250Y0209178D01*
X0157131Y0209082D01*
X0157009Y0208989D01*
X0156884Y0208900D01*
X0156757Y0208813D01*
X0156628Y0208731D01*
X0156497Y0208651D01*
X0156364Y0208575D01*
X0156229Y0208502D01*
X0156092Y0208433D01*
X0155953Y0208368D01*
X0155813Y0208306D01*
X0155671Y0208248D01*
X0155528Y0208193D01*
X0155383Y0208142D01*
X0155237Y0208095D01*
X0155090Y0208052D01*
X0154942Y0208013D01*
X0154793Y0207977D01*
X0154643Y0207946D01*
X0154492Y0207918D01*
X0154341Y0207894D01*
X0154188Y0207874D01*
X0154036Y0207858D01*
X0153883Y0207846D01*
X0153730Y0207838D01*
X0153577Y0207834D01*
X0153423Y0207834D01*
X0153270Y0207838D01*
X0153117Y0207846D01*
X0152964Y0207858D01*
X0152812Y0207874D01*
X0152659Y0207894D01*
X0152508Y0207918D01*
X0152357Y0207946D01*
X0152207Y0207977D01*
X0152058Y0208013D01*
X0151910Y0208052D01*
X0151763Y0208095D01*
X0151617Y0208142D01*
X0151472Y0208193D01*
X0151329Y0208248D01*
X0151187Y0208306D01*
X0151047Y0208368D01*
X0150908Y0208433D01*
X0150771Y0208502D01*
X0150636Y0208575D01*
X0150503Y0208651D01*
X0150372Y0208731D01*
X0150243Y0208813D01*
X0150116Y0208900D01*
X0149991Y0208989D01*
X0149869Y0209082D01*
X0149750Y0209178D01*
X0149632Y0209277D01*
X0149518Y0209378D01*
X0149406Y0209483D01*
X0149297Y0209591D01*
X0149191Y0209702D01*
X0149087Y0209815D01*
X0148987Y0209931D01*
X0148889Y0210049D01*
X0148795Y0210170D01*
X0148704Y0210293D01*
X0148616Y0210419D01*
X0148532Y0210547D01*
X0148450Y0210677D01*
X0148373Y0210809D01*
X0148298Y0210943D01*
X0148227Y0211079D01*
X0148160Y0211217D01*
X0148096Y0211357D01*
X0148036Y0211498D01*
X0147980Y0211640D01*
X0147927Y0211784D01*
X0147878Y0211930D01*
X0147833Y0212076D01*
X0147792Y0212224D01*
X0147755Y0212372D01*
X0147721Y0212522D01*
X0147691Y0212673D01*
X0147666Y0212824D01*
X0147644Y0212975D01*
X0147626Y0213128D01*
X0147612Y0213280D01*
X0147602Y0213433D01*
X0147596Y0213587D01*
X0147594Y0213740D01*
X0180594Y0213740D02*
X0180596Y0213893D01*
X0180602Y0214047D01*
X0180612Y0214200D01*
X0180626Y0214352D01*
X0180644Y0214505D01*
X0180666Y0214656D01*
X0180691Y0214807D01*
X0180721Y0214958D01*
X0180755Y0215108D01*
X0180792Y0215256D01*
X0180833Y0215404D01*
X0180878Y0215550D01*
X0180927Y0215696D01*
X0180980Y0215840D01*
X0181036Y0215982D01*
X0181096Y0216123D01*
X0181160Y0216263D01*
X0181227Y0216401D01*
X0181298Y0216537D01*
X0181373Y0216671D01*
X0181450Y0216803D01*
X0181532Y0216933D01*
X0181616Y0217061D01*
X0181704Y0217187D01*
X0181795Y0217310D01*
X0181889Y0217431D01*
X0181987Y0217549D01*
X0182087Y0217665D01*
X0182191Y0217778D01*
X0182297Y0217889D01*
X0182406Y0217997D01*
X0182518Y0218102D01*
X0182632Y0218203D01*
X0182750Y0218302D01*
X0182869Y0218398D01*
X0182991Y0218491D01*
X0183116Y0218580D01*
X0183243Y0218667D01*
X0183372Y0218749D01*
X0183503Y0218829D01*
X0183636Y0218905D01*
X0183771Y0218978D01*
X0183908Y0219047D01*
X0184047Y0219112D01*
X0184187Y0219174D01*
X0184329Y0219232D01*
X0184472Y0219287D01*
X0184617Y0219338D01*
X0184763Y0219385D01*
X0184910Y0219428D01*
X0185058Y0219467D01*
X0185207Y0219503D01*
X0185357Y0219534D01*
X0185508Y0219562D01*
X0185659Y0219586D01*
X0185812Y0219606D01*
X0185964Y0219622D01*
X0186117Y0219634D01*
X0186270Y0219642D01*
X0186423Y0219646D01*
X0186577Y0219646D01*
X0186730Y0219642D01*
X0186883Y0219634D01*
X0187036Y0219622D01*
X0187188Y0219606D01*
X0187341Y0219586D01*
X0187492Y0219562D01*
X0187643Y0219534D01*
X0187793Y0219503D01*
X0187942Y0219467D01*
X0188090Y0219428D01*
X0188237Y0219385D01*
X0188383Y0219338D01*
X0188528Y0219287D01*
X0188671Y0219232D01*
X0188813Y0219174D01*
X0188953Y0219112D01*
X0189092Y0219047D01*
X0189229Y0218978D01*
X0189364Y0218905D01*
X0189497Y0218829D01*
X0189628Y0218749D01*
X0189757Y0218667D01*
X0189884Y0218580D01*
X0190009Y0218491D01*
X0190131Y0218398D01*
X0190250Y0218302D01*
X0190368Y0218203D01*
X0190482Y0218102D01*
X0190594Y0217997D01*
X0190703Y0217889D01*
X0190809Y0217778D01*
X0190913Y0217665D01*
X0191013Y0217549D01*
X0191111Y0217431D01*
X0191205Y0217310D01*
X0191296Y0217187D01*
X0191384Y0217061D01*
X0191468Y0216933D01*
X0191550Y0216803D01*
X0191627Y0216671D01*
X0191702Y0216537D01*
X0191773Y0216401D01*
X0191840Y0216263D01*
X0191904Y0216123D01*
X0191964Y0215982D01*
X0192020Y0215840D01*
X0192073Y0215696D01*
X0192122Y0215550D01*
X0192167Y0215404D01*
X0192208Y0215256D01*
X0192245Y0215108D01*
X0192279Y0214958D01*
X0192309Y0214807D01*
X0192334Y0214656D01*
X0192356Y0214505D01*
X0192374Y0214352D01*
X0192388Y0214200D01*
X0192398Y0214047D01*
X0192404Y0213893D01*
X0192406Y0213740D01*
X0192404Y0213587D01*
X0192398Y0213433D01*
X0192388Y0213280D01*
X0192374Y0213128D01*
X0192356Y0212975D01*
X0192334Y0212824D01*
X0192309Y0212673D01*
X0192279Y0212522D01*
X0192245Y0212372D01*
X0192208Y0212224D01*
X0192167Y0212076D01*
X0192122Y0211930D01*
X0192073Y0211784D01*
X0192020Y0211640D01*
X0191964Y0211498D01*
X0191904Y0211357D01*
X0191840Y0211217D01*
X0191773Y0211079D01*
X0191702Y0210943D01*
X0191627Y0210809D01*
X0191550Y0210677D01*
X0191468Y0210547D01*
X0191384Y0210419D01*
X0191296Y0210293D01*
X0191205Y0210170D01*
X0191111Y0210049D01*
X0191013Y0209931D01*
X0190913Y0209815D01*
X0190809Y0209702D01*
X0190703Y0209591D01*
X0190594Y0209483D01*
X0190482Y0209378D01*
X0190368Y0209277D01*
X0190250Y0209178D01*
X0190131Y0209082D01*
X0190009Y0208989D01*
X0189884Y0208900D01*
X0189757Y0208813D01*
X0189628Y0208731D01*
X0189497Y0208651D01*
X0189364Y0208575D01*
X0189229Y0208502D01*
X0189092Y0208433D01*
X0188953Y0208368D01*
X0188813Y0208306D01*
X0188671Y0208248D01*
X0188528Y0208193D01*
X0188383Y0208142D01*
X0188237Y0208095D01*
X0188090Y0208052D01*
X0187942Y0208013D01*
X0187793Y0207977D01*
X0187643Y0207946D01*
X0187492Y0207918D01*
X0187341Y0207894D01*
X0187188Y0207874D01*
X0187036Y0207858D01*
X0186883Y0207846D01*
X0186730Y0207838D01*
X0186577Y0207834D01*
X0186423Y0207834D01*
X0186270Y0207838D01*
X0186117Y0207846D01*
X0185964Y0207858D01*
X0185812Y0207874D01*
X0185659Y0207894D01*
X0185508Y0207918D01*
X0185357Y0207946D01*
X0185207Y0207977D01*
X0185058Y0208013D01*
X0184910Y0208052D01*
X0184763Y0208095D01*
X0184617Y0208142D01*
X0184472Y0208193D01*
X0184329Y0208248D01*
X0184187Y0208306D01*
X0184047Y0208368D01*
X0183908Y0208433D01*
X0183771Y0208502D01*
X0183636Y0208575D01*
X0183503Y0208651D01*
X0183372Y0208731D01*
X0183243Y0208813D01*
X0183116Y0208900D01*
X0182991Y0208989D01*
X0182869Y0209082D01*
X0182750Y0209178D01*
X0182632Y0209277D01*
X0182518Y0209378D01*
X0182406Y0209483D01*
X0182297Y0209591D01*
X0182191Y0209702D01*
X0182087Y0209815D01*
X0181987Y0209931D01*
X0181889Y0210049D01*
X0181795Y0210170D01*
X0181704Y0210293D01*
X0181616Y0210419D01*
X0181532Y0210547D01*
X0181450Y0210677D01*
X0181373Y0210809D01*
X0181298Y0210943D01*
X0181227Y0211079D01*
X0181160Y0211217D01*
X0181096Y0211357D01*
X0181036Y0211498D01*
X0180980Y0211640D01*
X0180927Y0211784D01*
X0180878Y0211930D01*
X0180833Y0212076D01*
X0180792Y0212224D01*
X0180755Y0212372D01*
X0180721Y0212522D01*
X0180691Y0212673D01*
X0180666Y0212824D01*
X0180644Y0212975D01*
X0180626Y0213128D01*
X0180612Y0213280D01*
X0180602Y0213433D01*
X0180596Y0213587D01*
X0180594Y0213740D01*
D11*
X0178350Y0130051D02*
X0177749Y0130051D01*
X0177749Y0129451D01*
X0177149Y0130051D02*
X0176848Y0129751D01*
X0176848Y0129150D01*
X0177149Y0128850D01*
X0178350Y0128850D01*
X0178650Y0129150D01*
X0178650Y0129751D01*
X0178350Y0130051D01*
X0178399Y0120051D02*
X0178999Y0120051D01*
X0179299Y0119751D01*
X0179299Y0118850D01*
X0179299Y0119451D02*
X0179900Y0120051D01*
X0179900Y0118850D02*
X0178098Y0118850D01*
X0178098Y0119751D01*
X0178399Y0120051D01*
X0178975Y0111859D02*
X0177774Y0111859D01*
X0177473Y0111559D01*
X0177473Y0110658D01*
X0179275Y0110658D01*
X0179275Y0111559D01*
X0178975Y0111859D01*
X0179275Y0110018D02*
X0177473Y0110018D01*
X0177473Y0108817D02*
X0179275Y0110018D01*
X0179275Y0108817D02*
X0177473Y0108817D01*
X0177774Y0108176D02*
X0177473Y0107876D01*
X0177473Y0107275D01*
X0177774Y0106975D01*
X0178975Y0106975D01*
X0179275Y0107275D01*
X0179275Y0107876D01*
X0178975Y0108176D01*
X0178374Y0108176D01*
X0178374Y0107576D01*
X0032400Y0208826D02*
X0030598Y0208826D01*
X0030598Y0209426D02*
X0030598Y0208225D01*
X0030598Y0210067D02*
X0032400Y0211268D01*
X0032400Y0210067D02*
X0030598Y0211268D01*
X0031174Y0218225D02*
X0031174Y0219126D01*
X0030874Y0219426D01*
X0030274Y0219426D01*
X0029973Y0219126D01*
X0029973Y0218225D01*
X0031775Y0218225D01*
X0031174Y0218826D02*
X0031775Y0219426D01*
X0031775Y0220067D02*
X0029973Y0221268D01*
X0029973Y0220067D02*
X0031775Y0221268D01*
X0022400Y0032484D02*
X0022400Y0031283D01*
X0020598Y0031283D01*
X0020899Y0030643D02*
X0020598Y0030342D01*
X0020598Y0029742D01*
X0020899Y0029442D01*
X0022100Y0029442D01*
X0022400Y0029742D01*
X0022400Y0030342D01*
X0022100Y0030643D01*
X0022100Y0028801D02*
X0021799Y0028801D01*
X0021499Y0028501D01*
X0021499Y0027900D01*
X0021199Y0027600D01*
X0020899Y0027600D01*
X0020598Y0027900D01*
X0020598Y0028501D01*
X0020899Y0028801D01*
X0022100Y0028801D02*
X0022400Y0028501D01*
X0022400Y0027900D01*
X0022100Y0027600D01*
X0022400Y0021859D02*
X0021199Y0021859D01*
X0020598Y0021259D01*
X0021199Y0020658D01*
X0022400Y0020658D01*
X0022100Y0020018D02*
X0020899Y0020018D01*
X0020598Y0019717D01*
X0020598Y0018817D01*
X0022400Y0018817D01*
X0022400Y0019717D01*
X0022100Y0020018D01*
X0021499Y0020658D02*
X0021499Y0021859D01*
X0021799Y0018176D02*
X0022100Y0018176D01*
X0022400Y0017876D01*
X0022400Y0017275D01*
X0022100Y0016975D01*
X0021499Y0017275D02*
X0021499Y0017876D01*
X0021799Y0018176D01*
X0020899Y0018176D02*
X0020598Y0017876D01*
X0020598Y0017275D01*
X0020899Y0016975D01*
X0021199Y0016975D01*
X0021499Y0017275D01*
D12*
X0037750Y0013750D02*
X0038750Y0013750D01*
X0038750Y0018750D01*
X0058750Y0018750D01*
X0058750Y0013750D01*
X0059750Y0013750D01*
X0058750Y0013750D02*
X0058750Y0008750D01*
X0038750Y0008750D01*
X0038750Y0013750D01*
X0038750Y0018750D02*
X0038750Y0023750D01*
X0037750Y0023750D01*
X0038750Y0023750D02*
X0038750Y0028750D01*
X0058750Y0028750D01*
X0058750Y0023750D01*
X0059750Y0023750D01*
X0058750Y0023750D02*
X0058750Y0018750D01*
X0038750Y0018750D01*
X0217500Y0005000D02*
X0217500Y0230000D01*
D13*
X0208125Y0230000D01*
X0198125Y0240000D01*
X0064375Y0240000D01*
X0054375Y0230000D01*
X0010000Y0230000D01*
X0005000Y0225000D01*
X0005000Y0015000D01*
X0015000Y0005000D01*
X0216875Y0005000D01*
D14*
X0164318Y0028267D02*
X0164318Y0030119D01*
X0164318Y0028267D02*
X0163700Y0027650D01*
X0163083Y0028267D01*
X0162466Y0027650D01*
X0161849Y0028267D01*
X0161849Y0030119D01*
X0160634Y0029502D02*
X0160634Y0027650D01*
X0158783Y0027650D01*
X0158166Y0028267D01*
X0158783Y0028884D01*
X0160634Y0028884D01*
X0160634Y0029502D02*
X0160017Y0030119D01*
X0158783Y0030119D01*
X0156951Y0029502D02*
X0156951Y0027650D01*
X0156951Y0029502D02*
X0156334Y0030119D01*
X0155100Y0030119D01*
X0154482Y0029502D01*
X0153268Y0028884D02*
X0153268Y0028267D01*
X0152651Y0027650D01*
X0151416Y0027650D01*
X0150799Y0028267D01*
X0151416Y0029502D02*
X0150799Y0030119D01*
X0150799Y0030736D01*
X0151416Y0031353D01*
X0152651Y0031353D01*
X0153268Y0030736D01*
X0154482Y0031353D02*
X0154482Y0027650D01*
X0153268Y0028884D02*
X0152651Y0029502D01*
X0151416Y0029502D01*
X0149585Y0029502D02*
X0147116Y0029502D01*
X0145902Y0029502D02*
X0145902Y0027650D01*
X0144050Y0027650D01*
X0143433Y0028267D01*
X0144050Y0028884D01*
X0145902Y0028884D01*
X0145902Y0029502D02*
X0145285Y0030119D01*
X0144050Y0030119D01*
X0142219Y0029502D02*
X0142219Y0027650D01*
X0142219Y0029502D02*
X0141601Y0030119D01*
X0139750Y0030119D01*
X0139750Y0027650D01*
X0138535Y0027650D02*
X0136684Y0027650D01*
X0136067Y0028267D01*
X0136684Y0028884D01*
X0138535Y0028884D01*
X0138535Y0029502D02*
X0138535Y0027650D01*
X0138535Y0029502D02*
X0137918Y0030119D01*
X0136684Y0030119D01*
X0134852Y0030119D02*
X0133001Y0030119D01*
X0132384Y0029502D01*
X0132384Y0028267D01*
X0133001Y0027650D01*
X0134852Y0027650D01*
X0131163Y0027650D02*
X0129928Y0027650D01*
X0130545Y0027650D02*
X0130545Y0030119D01*
X0129928Y0030119D01*
X0130545Y0031353D02*
X0130545Y0031970D01*
X0128090Y0031353D02*
X0128090Y0027650D01*
X0127473Y0027650D02*
X0128707Y0027650D01*
X0126252Y0027650D02*
X0125017Y0027650D01*
X0125634Y0027650D02*
X0125634Y0031353D01*
X0125017Y0031353D01*
X0123179Y0031353D02*
X0123179Y0031970D01*
X0123179Y0030119D02*
X0122562Y0030119D01*
X0123179Y0030119D02*
X0123179Y0027650D01*
X0122562Y0027650D02*
X0123796Y0027650D01*
X0121348Y0028884D02*
X0121348Y0031353D01*
X0121348Y0028884D02*
X0120113Y0027650D01*
X0118879Y0028884D01*
X0118879Y0031353D01*
X0118882Y0033650D02*
X0120116Y0033650D01*
X0120734Y0034267D01*
X0120734Y0034884D01*
X0120116Y0035502D01*
X0118265Y0035502D01*
X0118265Y0034267D01*
X0118882Y0033650D01*
X0117050Y0033650D02*
X0114582Y0033650D01*
X0115816Y0033650D02*
X0115816Y0037353D01*
X0114582Y0036119D01*
X0113367Y0036736D02*
X0110899Y0034267D01*
X0111516Y0033650D01*
X0112750Y0033650D01*
X0113367Y0034267D01*
X0113367Y0036736D01*
X0112750Y0037353D01*
X0111516Y0037353D01*
X0110899Y0036736D01*
X0110899Y0034267D01*
X0109684Y0033650D02*
X0107215Y0033650D01*
X0109684Y0036119D01*
X0109684Y0036736D01*
X0109067Y0037353D01*
X0107833Y0037353D01*
X0107215Y0036736D01*
X0105998Y0039650D02*
X0104763Y0039650D01*
X0104146Y0040267D01*
X0104146Y0041502D01*
X0104763Y0042119D01*
X0105998Y0042119D01*
X0106615Y0041502D01*
X0106615Y0040884D01*
X0104146Y0040884D01*
X0102932Y0041502D02*
X0102932Y0039650D01*
X0102932Y0041502D02*
X0102315Y0042119D01*
X0100463Y0042119D01*
X0100463Y0039650D01*
X0099249Y0039650D02*
X0097397Y0039650D01*
X0096780Y0040267D01*
X0096780Y0041502D01*
X0097397Y0042119D01*
X0099249Y0042119D01*
X0099249Y0039033D01*
X0098631Y0038416D01*
X0098014Y0038416D01*
X0098018Y0036119D02*
X0096166Y0036119D01*
X0096166Y0033650D01*
X0094945Y0033650D02*
X0093711Y0033650D01*
X0094328Y0033650D02*
X0094328Y0036119D01*
X0093711Y0036119D01*
X0092493Y0036119D02*
X0091876Y0036119D01*
X0090641Y0034884D01*
X0090641Y0033650D02*
X0090641Y0036119D01*
X0089427Y0035502D02*
X0089427Y0034267D01*
X0088810Y0033650D01*
X0086958Y0033650D01*
X0086958Y0032416D02*
X0086958Y0036119D01*
X0088810Y0036119D01*
X0089427Y0035502D01*
X0085744Y0034884D02*
X0085744Y0034267D01*
X0085127Y0033650D01*
X0083892Y0033650D01*
X0083275Y0034267D01*
X0083892Y0035502D02*
X0085127Y0035502D01*
X0085744Y0034884D01*
X0085744Y0036736D02*
X0085127Y0037353D01*
X0083892Y0037353D01*
X0083275Y0036736D01*
X0083275Y0036119D01*
X0083892Y0035502D01*
X0083275Y0039650D02*
X0085127Y0039650D01*
X0085744Y0040267D01*
X0085744Y0042736D01*
X0085127Y0043353D01*
X0083275Y0043353D01*
X0083275Y0039650D01*
X0086958Y0040267D02*
X0086958Y0041502D01*
X0087575Y0042119D01*
X0088810Y0042119D01*
X0089427Y0041502D01*
X0089427Y0040884D01*
X0086958Y0040884D01*
X0086958Y0040267D02*
X0087575Y0039650D01*
X0088810Y0039650D01*
X0090641Y0039650D02*
X0092493Y0039650D01*
X0093110Y0040267D01*
X0092493Y0040884D01*
X0091258Y0040884D01*
X0090641Y0041502D01*
X0091258Y0042119D01*
X0093110Y0042119D01*
X0094324Y0042119D02*
X0094942Y0042119D01*
X0094942Y0039650D01*
X0095559Y0039650D02*
X0094324Y0039650D01*
X0094328Y0037970D02*
X0094328Y0037353D01*
X0098018Y0036119D02*
X0098635Y0035502D01*
X0098635Y0033650D01*
X0099849Y0034267D02*
X0100466Y0033650D01*
X0102318Y0033650D01*
X0102318Y0033033D02*
X0102318Y0036119D01*
X0100466Y0036119D01*
X0099849Y0035502D01*
X0099849Y0034267D01*
X0101084Y0032416D02*
X0101701Y0032416D01*
X0102318Y0033033D01*
X0102308Y0030736D02*
X0102308Y0028267D01*
X0102925Y0027650D01*
X0104146Y0027650D02*
X0104146Y0031353D01*
X0104763Y0030119D02*
X0105998Y0030119D01*
X0106615Y0029502D01*
X0106615Y0027650D01*
X0107829Y0028267D02*
X0108446Y0028884D01*
X0110298Y0028884D01*
X0110298Y0029502D02*
X0110298Y0027650D01*
X0108446Y0027650D01*
X0107829Y0028267D01*
X0108446Y0030119D02*
X0109681Y0030119D01*
X0110298Y0029502D01*
X0111512Y0030119D02*
X0113364Y0030119D01*
X0113981Y0029502D01*
X0113981Y0027650D01*
X0111512Y0027650D02*
X0111512Y0030119D01*
X0106608Y0024360D02*
X0104139Y0024360D01*
X0103522Y0023743D01*
X0103522Y0021891D01*
X0107225Y0021891D01*
X0107225Y0023743D01*
X0106608Y0024360D01*
X0107225Y0020677D02*
X0103522Y0020677D01*
X0103522Y0018208D02*
X0107225Y0020677D01*
X0107225Y0018208D02*
X0103522Y0018208D01*
X0104139Y0016994D02*
X0103522Y0016377D01*
X0103522Y0015142D01*
X0104139Y0014525D01*
X0106608Y0014525D01*
X0107225Y0015142D01*
X0107225Y0016377D01*
X0106608Y0016994D01*
X0105373Y0016994D01*
X0105373Y0015759D01*
X0100476Y0027650D02*
X0098625Y0027650D01*
X0098008Y0028267D01*
X0098625Y0028884D01*
X0100476Y0028884D01*
X0100476Y0029502D02*
X0100476Y0027650D01*
X0100476Y0029502D02*
X0099859Y0030119D01*
X0098625Y0030119D01*
X0096793Y0031353D02*
X0096793Y0027650D01*
X0094324Y0031353D01*
X0094324Y0027650D01*
X0089427Y0027650D02*
X0087575Y0027650D01*
X0086958Y0028267D01*
X0086958Y0030119D01*
X0085744Y0029502D02*
X0085127Y0030119D01*
X0083275Y0030119D01*
X0083275Y0031353D02*
X0083275Y0027650D01*
X0085127Y0027650D01*
X0085744Y0028267D01*
X0085744Y0029502D01*
X0089427Y0030119D02*
X0089427Y0027033D01*
X0088810Y0026416D01*
X0088193Y0026416D01*
X0101691Y0030119D02*
X0102925Y0030119D01*
X0104146Y0029502D02*
X0104763Y0030119D01*
X0108446Y0039650D02*
X0107829Y0040267D01*
X0107829Y0041502D01*
X0108446Y0042119D01*
X0110298Y0042119D01*
X0110298Y0043353D02*
X0110298Y0039650D01*
X0108446Y0039650D01*
X0115196Y0041502D02*
X0116430Y0041502D01*
X0117651Y0041502D02*
X0117651Y0040267D01*
X0118268Y0039650D01*
X0119503Y0039650D01*
X0120120Y0040267D01*
X0120120Y0041502D01*
X0119503Y0042119D01*
X0118268Y0042119D01*
X0117651Y0041502D01*
X0115813Y0042736D02*
X0116430Y0043353D01*
X0115813Y0042736D02*
X0115813Y0039650D01*
X0119499Y0036736D02*
X0118265Y0035502D01*
X0119499Y0036736D02*
X0120734Y0037353D01*
X0121334Y0039650D02*
X0121334Y0042119D01*
X0122569Y0042119D02*
X0123186Y0042119D01*
X0122569Y0042119D02*
X0121334Y0040884D01*
X0128087Y0039650D02*
X0128087Y0043353D01*
X0129321Y0042119D01*
X0130555Y0043353D01*
X0130555Y0039650D01*
X0133004Y0039650D02*
X0133004Y0043353D01*
X0131770Y0043353D02*
X0134238Y0043353D01*
X0135453Y0043353D02*
X0136687Y0043353D01*
X0136070Y0043353D02*
X0136070Y0039650D01*
X0135453Y0039650D02*
X0136687Y0039650D01*
X0137908Y0039650D02*
X0139143Y0039650D01*
X0138525Y0039650D02*
X0138525Y0043353D01*
X0137908Y0043353D02*
X0139143Y0043353D01*
X0140364Y0043353D02*
X0140364Y0039650D01*
X0142215Y0039650D01*
X0142832Y0040267D01*
X0142832Y0042736D01*
X0142215Y0043353D01*
X0140364Y0043353D01*
X0128090Y0031353D02*
X0127473Y0031353D01*
X0094942Y0043353D02*
X0094942Y0043970D01*
X0009525Y0028930D02*
X0009075Y0029380D01*
X0009525Y0028930D02*
X0009525Y0028029D01*
X0009075Y0027579D01*
X0007273Y0027579D01*
X0006823Y0028029D01*
X0006823Y0028930D01*
X0007273Y0029380D01*
X0007273Y0026618D02*
X0006823Y0026168D01*
X0006823Y0025267D01*
X0007273Y0024817D01*
X0006823Y0023876D02*
X0006823Y0022975D01*
X0006823Y0023425D02*
X0009525Y0023425D01*
X0009525Y0022975D02*
X0009525Y0023876D01*
X0009525Y0024817D02*
X0007723Y0026618D01*
X0007273Y0026618D01*
X0009525Y0026618D02*
X0009525Y0024817D01*
X0023425Y0225475D02*
X0022975Y0225925D01*
X0023425Y0225475D02*
X0024326Y0225475D01*
X0024777Y0225925D01*
X0024777Y0226376D01*
X0024326Y0226826D01*
X0023425Y0226826D01*
X0022975Y0227277D01*
X0022975Y0227727D01*
X0023425Y0228177D01*
X0024326Y0228177D01*
X0024777Y0227727D01*
X0025737Y0228177D02*
X0025737Y0225475D01*
X0025737Y0226376D02*
X0027088Y0226376D01*
X0027539Y0226826D01*
X0027539Y0227727D01*
X0027088Y0228177D01*
X0025737Y0228177D01*
X0028500Y0228177D02*
X0029400Y0228177D01*
X0028950Y0228177D02*
X0028950Y0225475D01*
X0028500Y0225475D02*
X0029400Y0225475D01*
D15*
X0052996Y0216879D02*
X0054497Y0215378D01*
X0053747Y0213777D02*
X0052996Y0213777D01*
X0053747Y0213777D02*
X0055248Y0212276D01*
X0057500Y0212276D01*
X0055248Y0212276D02*
X0053747Y0210774D01*
X0052996Y0210774D01*
X0054497Y0209173D02*
X0057500Y0209173D01*
X0055248Y0209173D02*
X0055248Y0206170D01*
X0054497Y0206170D02*
X0052996Y0207672D01*
X0054497Y0209173D01*
X0054497Y0206170D02*
X0057500Y0206170D01*
X0057500Y0204569D02*
X0055999Y0203068D01*
X0055999Y0203818D02*
X0055999Y0201566D01*
X0057500Y0201566D02*
X0052996Y0201566D01*
X0052996Y0203818D01*
X0053747Y0204569D01*
X0055248Y0204569D01*
X0055999Y0203818D01*
X0055248Y0199965D02*
X0053747Y0199965D01*
X0052996Y0199214D01*
X0052996Y0196962D01*
X0057500Y0196962D01*
X0055999Y0196962D02*
X0055999Y0199214D01*
X0055248Y0199965D01*
X0055999Y0198464D02*
X0057500Y0199965D01*
X0057500Y0195361D02*
X0054497Y0195361D01*
X0052996Y0193860D01*
X0054497Y0192359D01*
X0057500Y0192359D01*
X0058251Y0190757D02*
X0058251Y0187755D01*
X0057500Y0186153D02*
X0052996Y0186153D01*
X0052996Y0183151D02*
X0057500Y0186153D01*
X0057500Y0183151D02*
X0052996Y0183151D01*
X0053747Y0181549D02*
X0052996Y0180799D01*
X0052996Y0179297D01*
X0053747Y0178547D01*
X0056749Y0178547D01*
X0057500Y0179297D01*
X0057500Y0180799D01*
X0056749Y0181549D01*
X0053747Y0181549D01*
X0052996Y0176945D02*
X0052996Y0173943D01*
X0052996Y0175444D02*
X0057500Y0175444D01*
X0056749Y0172341D02*
X0055248Y0172341D01*
X0055248Y0170840D01*
X0053747Y0169339D02*
X0056749Y0169339D01*
X0057500Y0170090D01*
X0057500Y0171591D01*
X0056749Y0172341D01*
X0053747Y0172341D02*
X0052996Y0171591D01*
X0052996Y0170090D01*
X0053747Y0169339D01*
X0052996Y0167738D02*
X0057500Y0167738D01*
X0052996Y0164735D01*
X0057500Y0164735D01*
X0057500Y0163167D02*
X0057500Y0161666D01*
X0057500Y0162416D02*
X0052996Y0162416D01*
X0052996Y0161666D02*
X0052996Y0163167D01*
X0057500Y0160064D02*
X0057500Y0157062D01*
X0052996Y0157062D01*
X0053747Y0155460D02*
X0055248Y0155460D01*
X0055999Y0154710D01*
X0055999Y0152458D01*
X0057500Y0152458D02*
X0052996Y0152458D01*
X0052996Y0154710D01*
X0053747Y0155460D01*
X0055999Y0153959D02*
X0057500Y0155460D01*
X0057500Y0150856D02*
X0054497Y0150856D01*
X0052996Y0149355D01*
X0054497Y0147854D01*
X0057500Y0147854D01*
X0056749Y0146253D02*
X0057500Y0145502D01*
X0057500Y0143250D01*
X0052996Y0143250D01*
X0052996Y0145502D01*
X0053747Y0146253D01*
X0056749Y0146253D01*
X0055248Y0147854D02*
X0055248Y0150856D01*
X0054497Y0115881D02*
X0053747Y0115881D01*
X0052996Y0115130D01*
X0052996Y0113629D01*
X0053747Y0112878D01*
X0053747Y0111277D02*
X0052996Y0111277D01*
X0053747Y0111277D02*
X0055248Y0109776D01*
X0057500Y0109776D01*
X0055248Y0109776D02*
X0053747Y0108274D01*
X0052996Y0108274D01*
X0054497Y0106673D02*
X0057500Y0106673D01*
X0055248Y0106673D02*
X0055248Y0103670D01*
X0054497Y0103670D02*
X0052996Y0105172D01*
X0054497Y0106673D01*
X0054497Y0103670D02*
X0057500Y0103670D01*
X0057500Y0102069D02*
X0055999Y0100568D01*
X0055999Y0101318D02*
X0055999Y0099066D01*
X0057500Y0099066D02*
X0052996Y0099066D01*
X0052996Y0101318D01*
X0053747Y0102069D01*
X0055248Y0102069D01*
X0055999Y0101318D01*
X0055248Y0097465D02*
X0053747Y0097465D01*
X0052996Y0096714D01*
X0052996Y0094462D01*
X0057500Y0094462D01*
X0055999Y0094462D02*
X0055999Y0096714D01*
X0055248Y0097465D01*
X0055999Y0095964D02*
X0057500Y0097465D01*
X0057500Y0092861D02*
X0054497Y0092861D01*
X0052996Y0091360D01*
X0054497Y0089859D01*
X0057500Y0089859D01*
X0058251Y0088257D02*
X0058251Y0085255D01*
X0057500Y0083653D02*
X0052996Y0083653D01*
X0052996Y0080651D02*
X0057500Y0083653D01*
X0057500Y0080651D02*
X0052996Y0080651D01*
X0053747Y0079049D02*
X0052996Y0078299D01*
X0052996Y0076797D01*
X0053747Y0076047D01*
X0056749Y0076047D01*
X0057500Y0076797D01*
X0057500Y0078299D01*
X0056749Y0079049D01*
X0053747Y0079049D01*
X0052996Y0074445D02*
X0052996Y0071443D01*
X0052996Y0072944D02*
X0057500Y0072944D01*
X0056749Y0069841D02*
X0055248Y0069841D01*
X0055248Y0068340D01*
X0053747Y0066839D02*
X0056749Y0066839D01*
X0057500Y0067590D01*
X0057500Y0069091D01*
X0056749Y0069841D01*
X0053747Y0069841D02*
X0052996Y0069091D01*
X0052996Y0067590D01*
X0053747Y0066839D01*
X0052996Y0065238D02*
X0057500Y0065238D01*
X0052996Y0062235D01*
X0057500Y0062235D01*
X0057500Y0060667D02*
X0057500Y0059166D01*
X0057500Y0059916D02*
X0052996Y0059916D01*
X0052996Y0059166D02*
X0052996Y0060667D01*
X0057500Y0057564D02*
X0057500Y0054562D01*
X0052996Y0054562D01*
X0053747Y0052960D02*
X0055248Y0052960D01*
X0055999Y0052210D01*
X0055999Y0049958D01*
X0057500Y0049958D02*
X0052996Y0049958D01*
X0052996Y0052210D01*
X0053747Y0052960D01*
X0055999Y0051459D02*
X0057500Y0052960D01*
X0057500Y0048356D02*
X0054497Y0048356D01*
X0052996Y0046855D01*
X0054497Y0045354D01*
X0057500Y0045354D01*
X0056749Y0043753D02*
X0057500Y0043002D01*
X0057500Y0040750D01*
X0052996Y0040750D01*
X0052996Y0043002D01*
X0053747Y0043753D01*
X0056749Y0043753D01*
X0055248Y0045354D02*
X0055248Y0048356D01*
X0055248Y0089859D02*
X0055248Y0092861D01*
X0057500Y0112878D02*
X0054497Y0115881D01*
X0057500Y0115881D02*
X0057500Y0112878D01*
X0102549Y0093233D02*
X0102549Y0055438D01*
X0156880Y0055438D01*
X0156880Y0093233D01*
X0102549Y0093233D01*
X0103174Y0102938D02*
X0103174Y0140733D01*
X0157505Y0140733D01*
X0157505Y0102938D01*
X0103174Y0102938D01*
X0178389Y0061460D02*
X0178389Y0061043D01*
X0178806Y0060626D01*
X0179640Y0060626D01*
X0180057Y0060209D01*
X0180057Y0059792D01*
X0179640Y0059375D01*
X0178806Y0059375D01*
X0178389Y0059792D01*
X0178389Y0061460D02*
X0178806Y0061877D01*
X0179640Y0061877D01*
X0180057Y0061460D01*
X0181151Y0061877D02*
X0182819Y0061877D01*
X0181985Y0061877D02*
X0181985Y0059375D01*
X0183914Y0059375D02*
X0185582Y0059375D01*
X0186676Y0059375D02*
X0186676Y0061877D01*
X0187927Y0061877D01*
X0188344Y0061460D01*
X0188344Y0060626D01*
X0187927Y0060209D01*
X0186676Y0060209D01*
X0184748Y0060626D02*
X0183914Y0060626D01*
X0183914Y0061877D02*
X0183914Y0059375D01*
X0183914Y0061877D02*
X0185582Y0061877D01*
X0189438Y0061877D02*
X0189438Y0059375D01*
X0189438Y0060209D02*
X0190690Y0060209D01*
X0191107Y0060626D01*
X0191107Y0061460D01*
X0190690Y0061877D01*
X0189438Y0061877D01*
X0192201Y0061877D02*
X0192201Y0059375D01*
X0193869Y0059375D01*
X0194963Y0059375D02*
X0194963Y0061877D01*
X0196214Y0061877D01*
X0196631Y0061460D01*
X0196631Y0060626D01*
X0196214Y0060209D01*
X0194963Y0060209D01*
X0195797Y0060209D02*
X0196631Y0059375D01*
X0197726Y0058958D02*
X0199394Y0058958D01*
X0200488Y0059375D02*
X0200488Y0061877D01*
X0201739Y0061877D01*
X0202156Y0061460D01*
X0202156Y0060626D01*
X0201739Y0060209D01*
X0200488Y0060209D01*
X0203250Y0059375D02*
X0203250Y0061877D01*
X0204918Y0061877D02*
X0204918Y0059375D01*
X0204084Y0060209D01*
X0203250Y0059375D01*
X0206013Y0059375D02*
X0206013Y0061877D01*
X0207264Y0061877D01*
X0207681Y0061460D01*
X0207681Y0060626D01*
X0207264Y0060209D01*
X0206013Y0060209D01*
X0206847Y0060209D02*
X0207681Y0059375D01*
X0193869Y0061877D02*
X0192201Y0061877D01*
X0192201Y0060626D02*
X0193035Y0060626D01*
X0192497Y0031877D02*
X0194165Y0029375D01*
X0194165Y0031877D01*
X0195259Y0031460D02*
X0195259Y0029792D01*
X0195676Y0029375D01*
X0196510Y0029375D01*
X0196927Y0029792D01*
X0196927Y0031460D01*
X0196510Y0031877D01*
X0195676Y0031877D01*
X0195259Y0031460D01*
X0198021Y0028958D02*
X0199689Y0028958D01*
X0200784Y0030209D02*
X0201618Y0029375D01*
X0202452Y0030209D01*
X0202452Y0031877D01*
X0203546Y0031877D02*
X0204380Y0031877D01*
X0203963Y0031877D02*
X0203963Y0029375D01*
X0203546Y0029375D02*
X0204380Y0029375D01*
X0205388Y0029375D02*
X0205388Y0031877D01*
X0207056Y0029375D01*
X0207056Y0031877D01*
X0200784Y0031877D02*
X0200784Y0030209D01*
X0192497Y0029375D02*
X0192497Y0031877D01*
X0191489Y0031877D02*
X0190655Y0031877D01*
X0191072Y0031877D02*
X0191072Y0029375D01*
X0190655Y0029375D02*
X0191489Y0029375D01*
X0189561Y0029792D02*
X0189561Y0031877D01*
X0187893Y0031877D02*
X0187893Y0029792D01*
X0188310Y0029375D01*
X0189144Y0029375D01*
X0189561Y0029792D01*
X0186798Y0029792D02*
X0186798Y0031460D01*
X0186381Y0031877D01*
X0185130Y0031877D01*
X0185130Y0029375D01*
X0186381Y0029375D01*
X0186798Y0029792D01*
X0184036Y0029375D02*
X0183202Y0030209D01*
X0183619Y0030209D02*
X0182368Y0030209D01*
X0182368Y0029375D02*
X0182368Y0031877D01*
X0183619Y0031877D01*
X0184036Y0031460D01*
X0184036Y0030626D01*
X0183619Y0030209D01*
X0181274Y0030626D02*
X0179606Y0030626D01*
X0179606Y0031043D02*
X0180440Y0031877D01*
X0181274Y0031043D01*
X0181274Y0029375D01*
X0179606Y0029375D02*
X0179606Y0031043D01*
X0193046Y0107450D02*
X0193046Y0109702D01*
X0193797Y0110453D01*
X0195298Y0110453D01*
X0196049Y0109702D01*
X0196049Y0107450D01*
X0197550Y0107450D02*
X0193046Y0107450D01*
X0196049Y0108951D02*
X0197550Y0110453D01*
X0196799Y0112054D02*
X0197550Y0112805D01*
X0197550Y0114306D01*
X0196799Y0115056D01*
X0195298Y0115056D01*
X0195298Y0113555D01*
X0193797Y0112054D02*
X0196799Y0112054D01*
X0193797Y0112054D02*
X0193046Y0112805D01*
X0193046Y0114306D01*
X0193797Y0115056D01*
X0195298Y0116658D02*
X0195298Y0119660D01*
X0193046Y0121262D02*
X0197550Y0121262D01*
X0197550Y0124264D01*
X0197550Y0125866D02*
X0197550Y0128868D01*
X0197550Y0130470D02*
X0197550Y0132722D01*
X0196799Y0133472D01*
X0193797Y0133472D01*
X0193046Y0132722D01*
X0193046Y0130470D01*
X0197550Y0130470D01*
X0195298Y0127367D02*
X0195298Y0125866D01*
X0193046Y0125866D02*
X0197550Y0125866D01*
X0193046Y0125866D02*
X0193046Y0128868D01*
X0057500Y0215378D02*
X0057500Y0218381D01*
X0057500Y0216879D02*
X0052996Y0216879D01*
X0055248Y0195361D02*
X0055248Y0192359D01*
D16*
X0041024Y0020301D02*
X0040523Y0020301D01*
X0040273Y0020051D01*
X0039801Y0020051D02*
X0039801Y0019551D01*
X0039551Y0019300D01*
X0038800Y0019300D01*
X0038800Y0018800D02*
X0038800Y0020301D01*
X0039551Y0020301D01*
X0039801Y0020051D01*
X0039300Y0019300D02*
X0039801Y0018800D01*
X0040273Y0018800D02*
X0041274Y0019801D01*
X0041274Y0020051D01*
X0041024Y0020301D01*
X0041274Y0018800D02*
X0040273Y0018800D01*
X0055853Y0018701D02*
X0056604Y0018701D01*
X0056854Y0018451D01*
X0056854Y0017951D01*
X0056604Y0017700D01*
X0055853Y0017700D01*
X0055853Y0017200D02*
X0055853Y0018701D01*
X0056354Y0017700D02*
X0056854Y0017200D01*
X0057327Y0017200D02*
X0058328Y0017200D01*
X0057827Y0017200D02*
X0057827Y0018701D01*
X0057327Y0018201D01*
D17*
X0055915Y0022150D02*
X0053813Y0023551D01*
X0055915Y0024952D01*
X0053813Y0026354D02*
X0053813Y0022150D01*
X0052012Y0025653D02*
X0049209Y0022851D01*
X0049209Y0022150D01*
X0047608Y0022150D02*
X0046907Y0022150D01*
X0046907Y0022851D01*
X0047608Y0022851D01*
X0047608Y0022150D01*
X0044405Y0022150D02*
X0044405Y0026354D01*
X0042304Y0024252D01*
X0045106Y0024252D01*
X0049209Y0026354D02*
X0052012Y0026354D01*
X0052012Y0025653D01*
X0044250Y0033750D02*
X0044250Y0034750D01*
X0044250Y0033750D02*
X0068250Y0033750D01*
X0068250Y0034750D01*
X0068250Y0042750D02*
X0068250Y0044750D01*
X0068250Y0052750D02*
X0068250Y0054750D01*
X0068250Y0062750D02*
X0068250Y0064750D01*
X0068250Y0072750D02*
X0068250Y0074750D01*
X0068250Y0082750D02*
X0068250Y0084750D01*
X0068250Y0092750D02*
X0068250Y0094750D01*
X0068250Y0102750D02*
X0068250Y0104750D01*
X0068250Y0112750D02*
X0068250Y0114750D01*
X0068250Y0122750D02*
X0068250Y0123750D01*
X0060250Y0123750D01*
X0060248Y0123624D01*
X0060242Y0123499D01*
X0060232Y0123374D01*
X0060218Y0123249D01*
X0060201Y0123124D01*
X0060179Y0123000D01*
X0060154Y0122877D01*
X0060124Y0122755D01*
X0060091Y0122634D01*
X0060054Y0122514D01*
X0060014Y0122395D01*
X0059969Y0122278D01*
X0059921Y0122161D01*
X0059869Y0122047D01*
X0059814Y0121934D01*
X0059755Y0121823D01*
X0059693Y0121714D01*
X0059627Y0121607D01*
X0059558Y0121502D01*
X0059486Y0121399D01*
X0059411Y0121298D01*
X0059332Y0121200D01*
X0059250Y0121105D01*
X0059166Y0121012D01*
X0059078Y0120922D01*
X0058988Y0120834D01*
X0058895Y0120750D01*
X0058800Y0120668D01*
X0058702Y0120589D01*
X0058601Y0120514D01*
X0058498Y0120442D01*
X0058393Y0120373D01*
X0058286Y0120307D01*
X0058177Y0120245D01*
X0058066Y0120186D01*
X0057953Y0120131D01*
X0057839Y0120079D01*
X0057722Y0120031D01*
X0057605Y0119986D01*
X0057486Y0119946D01*
X0057366Y0119909D01*
X0057245Y0119876D01*
X0057123Y0119846D01*
X0057000Y0119821D01*
X0056876Y0119799D01*
X0056751Y0119782D01*
X0056626Y0119768D01*
X0056501Y0119758D01*
X0056376Y0119752D01*
X0056250Y0119750D01*
X0056124Y0119752D01*
X0055999Y0119758D01*
X0055874Y0119768D01*
X0055749Y0119782D01*
X0055624Y0119799D01*
X0055500Y0119821D01*
X0055377Y0119846D01*
X0055255Y0119876D01*
X0055134Y0119909D01*
X0055014Y0119946D01*
X0054895Y0119986D01*
X0054778Y0120031D01*
X0054661Y0120079D01*
X0054547Y0120131D01*
X0054434Y0120186D01*
X0054323Y0120245D01*
X0054214Y0120307D01*
X0054107Y0120373D01*
X0054002Y0120442D01*
X0053899Y0120514D01*
X0053798Y0120589D01*
X0053700Y0120668D01*
X0053605Y0120750D01*
X0053512Y0120834D01*
X0053422Y0120922D01*
X0053334Y0121012D01*
X0053250Y0121105D01*
X0053168Y0121200D01*
X0053089Y0121298D01*
X0053014Y0121399D01*
X0052942Y0121502D01*
X0052873Y0121607D01*
X0052807Y0121714D01*
X0052745Y0121823D01*
X0052686Y0121934D01*
X0052631Y0122047D01*
X0052579Y0122161D01*
X0052531Y0122278D01*
X0052486Y0122395D01*
X0052446Y0122514D01*
X0052409Y0122634D01*
X0052376Y0122755D01*
X0052346Y0122877D01*
X0052321Y0123000D01*
X0052299Y0123124D01*
X0052282Y0123249D01*
X0052268Y0123374D01*
X0052258Y0123499D01*
X0052252Y0123624D01*
X0052250Y0123750D01*
X0044250Y0123750D01*
X0044250Y0122750D01*
X0044250Y0114750D02*
X0044250Y0112750D01*
X0044250Y0104750D02*
X0044250Y0102750D01*
X0044250Y0094750D02*
X0044250Y0092750D01*
X0044250Y0084750D02*
X0044250Y0082750D01*
X0044250Y0074750D02*
X0044250Y0072750D01*
X0044250Y0064750D02*
X0044250Y0062750D01*
X0044250Y0054750D02*
X0044250Y0052750D01*
X0044250Y0044750D02*
X0044250Y0042750D01*
X0042752Y0015354D02*
X0040650Y0013252D01*
X0043452Y0013252D01*
X0042752Y0011150D02*
X0042752Y0015354D01*
X0045254Y0011851D02*
X0045955Y0011851D01*
X0045955Y0011150D01*
X0045254Y0011150D01*
X0045254Y0011851D01*
X0047556Y0011851D02*
X0047556Y0011150D01*
X0047556Y0011851D02*
X0050358Y0014653D01*
X0050358Y0015354D01*
X0047556Y0015354D01*
X0052160Y0015354D02*
X0052160Y0011150D01*
X0052160Y0012551D02*
X0054262Y0013952D01*
X0052160Y0012551D02*
X0054262Y0011150D01*
X0044250Y0135000D02*
X0044250Y0136000D01*
X0044250Y0135000D02*
X0068250Y0135000D01*
X0068250Y0136000D01*
X0068250Y0144000D02*
X0068250Y0146000D01*
X0068250Y0154000D02*
X0068250Y0156000D01*
X0068250Y0164000D02*
X0068250Y0166000D01*
X0068250Y0174000D02*
X0068250Y0176000D01*
X0068250Y0184000D02*
X0068250Y0186000D01*
X0068250Y0194000D02*
X0068250Y0196000D01*
X0068250Y0204000D02*
X0068250Y0206000D01*
X0068250Y0214000D02*
X0068250Y0216000D01*
X0068250Y0224000D02*
X0068250Y0225000D01*
X0060250Y0225000D01*
X0060248Y0224874D01*
X0060242Y0224749D01*
X0060232Y0224624D01*
X0060218Y0224499D01*
X0060201Y0224374D01*
X0060179Y0224250D01*
X0060154Y0224127D01*
X0060124Y0224005D01*
X0060091Y0223884D01*
X0060054Y0223764D01*
X0060014Y0223645D01*
X0059969Y0223528D01*
X0059921Y0223411D01*
X0059869Y0223297D01*
X0059814Y0223184D01*
X0059755Y0223073D01*
X0059693Y0222964D01*
X0059627Y0222857D01*
X0059558Y0222752D01*
X0059486Y0222649D01*
X0059411Y0222548D01*
X0059332Y0222450D01*
X0059250Y0222355D01*
X0059166Y0222262D01*
X0059078Y0222172D01*
X0058988Y0222084D01*
X0058895Y0222000D01*
X0058800Y0221918D01*
X0058702Y0221839D01*
X0058601Y0221764D01*
X0058498Y0221692D01*
X0058393Y0221623D01*
X0058286Y0221557D01*
X0058177Y0221495D01*
X0058066Y0221436D01*
X0057953Y0221381D01*
X0057839Y0221329D01*
X0057722Y0221281D01*
X0057605Y0221236D01*
X0057486Y0221196D01*
X0057366Y0221159D01*
X0057245Y0221126D01*
X0057123Y0221096D01*
X0057000Y0221071D01*
X0056876Y0221049D01*
X0056751Y0221032D01*
X0056626Y0221018D01*
X0056501Y0221008D01*
X0056376Y0221002D01*
X0056250Y0221000D01*
X0056124Y0221002D01*
X0055999Y0221008D01*
X0055874Y0221018D01*
X0055749Y0221032D01*
X0055624Y0221049D01*
X0055500Y0221071D01*
X0055377Y0221096D01*
X0055255Y0221126D01*
X0055134Y0221159D01*
X0055014Y0221196D01*
X0054895Y0221236D01*
X0054778Y0221281D01*
X0054661Y0221329D01*
X0054547Y0221381D01*
X0054434Y0221436D01*
X0054323Y0221495D01*
X0054214Y0221557D01*
X0054107Y0221623D01*
X0054002Y0221692D01*
X0053899Y0221764D01*
X0053798Y0221839D01*
X0053700Y0221918D01*
X0053605Y0222000D01*
X0053512Y0222084D01*
X0053422Y0222172D01*
X0053334Y0222262D01*
X0053250Y0222355D01*
X0053168Y0222450D01*
X0053089Y0222548D01*
X0053014Y0222649D01*
X0052942Y0222752D01*
X0052873Y0222857D01*
X0052807Y0222964D01*
X0052745Y0223073D01*
X0052686Y0223184D01*
X0052631Y0223297D01*
X0052579Y0223411D01*
X0052531Y0223528D01*
X0052486Y0223645D01*
X0052446Y0223764D01*
X0052409Y0223884D01*
X0052376Y0224005D01*
X0052346Y0224127D01*
X0052321Y0224250D01*
X0052299Y0224374D01*
X0052282Y0224499D01*
X0052268Y0224624D01*
X0052258Y0224749D01*
X0052252Y0224874D01*
X0052250Y0225000D01*
X0044250Y0225000D01*
X0044250Y0224000D01*
X0044250Y0216000D02*
X0044250Y0214000D01*
X0044250Y0206000D02*
X0044250Y0204000D01*
X0044250Y0196000D02*
X0044250Y0194000D01*
X0044250Y0186000D02*
X0044250Y0184000D01*
X0044250Y0176000D02*
X0044250Y0174000D01*
X0044250Y0166000D02*
X0044250Y0164000D01*
X0044250Y0156000D02*
X0044250Y0154000D01*
X0044250Y0146000D02*
X0044250Y0144000D01*
X0082441Y0189898D02*
X0086772Y0189898D01*
X0082441Y0189898D02*
X0082441Y0239504D01*
X0137559Y0239504D01*
X0137559Y0189111D01*
X0133228Y0189111D01*
X0142441Y0189898D02*
X0146772Y0189898D01*
X0142441Y0189898D02*
X0142441Y0239504D01*
X0197559Y0239504D01*
X0197559Y0189111D01*
X0193228Y0189111D01*
X0217629Y0056059D02*
X0168023Y0056059D01*
X0168023Y0051728D01*
X0167236Y0038272D02*
X0167236Y0033941D01*
X0217629Y0033941D01*
X0217629Y0056059D01*
X0217629Y0027309D02*
X0168023Y0027309D01*
X0168023Y0022978D01*
X0167236Y0009522D02*
X0167236Y0005191D01*
X0217629Y0005191D01*
X0217629Y0027309D01*
D18*
X0170000Y0236158D03*
X0110000Y0236158D03*
D19*
X0109716Y0153929D02*
X0111767Y0153929D01*
X0112451Y0153245D01*
X0112451Y0151877D01*
X0111767Y0151193D01*
X0109716Y0151193D01*
X0109716Y0149825D02*
X0109716Y0153929D01*
X0107847Y0153245D02*
X0107847Y0151877D01*
X0107164Y0151193D01*
X0105112Y0151193D01*
X0105112Y0149825D02*
X0105112Y0153929D01*
X0107164Y0153929D01*
X0107847Y0153245D01*
X0103244Y0153929D02*
X0100508Y0153929D01*
X0100508Y0149825D01*
X0103244Y0149825D01*
X0101876Y0151877D02*
X0100508Y0151877D01*
X0098640Y0153929D02*
X0095904Y0153929D01*
X0097272Y0153929D02*
X0097272Y0149825D01*
X0094036Y0150509D02*
X0093352Y0149825D01*
X0091984Y0149825D01*
X0091300Y0150509D01*
X0091984Y0151877D02*
X0093352Y0151877D01*
X0094036Y0151193D01*
X0094036Y0150509D01*
X0091984Y0151877D02*
X0091300Y0152561D01*
X0091300Y0153245D01*
X0091984Y0153929D01*
X0093352Y0153929D01*
X0094036Y0153245D01*
X0114320Y0153929D02*
X0114320Y0149825D01*
X0117055Y0149825D01*
X0118924Y0149825D02*
X0118924Y0153929D01*
X0120975Y0153929D01*
X0121659Y0153245D01*
X0121659Y0151877D01*
X0120975Y0151193D01*
X0118924Y0151193D01*
X0120291Y0151193D02*
X0121659Y0149825D01*
X0123527Y0149141D02*
X0126263Y0149141D01*
X0128131Y0149825D02*
X0130867Y0149825D01*
X0129499Y0149825D02*
X0129499Y0153929D01*
X0128131Y0152561D01*
X0117055Y0153929D02*
X0114320Y0153929D01*
X0114320Y0151877D02*
X0115687Y0151877D01*
X0149425Y0151134D02*
X0150109Y0150450D01*
X0151477Y0150450D01*
X0152161Y0151134D01*
X0152161Y0151818D01*
X0151477Y0152502D01*
X0150109Y0152502D01*
X0149425Y0153186D01*
X0149425Y0153870D01*
X0150109Y0154554D01*
X0151477Y0154554D01*
X0152161Y0153870D01*
X0154029Y0154554D02*
X0156765Y0154554D01*
X0155397Y0154554D02*
X0155397Y0150450D01*
X0158633Y0150450D02*
X0161369Y0150450D01*
X0163237Y0150450D02*
X0163237Y0154554D01*
X0165289Y0154554D01*
X0165972Y0153870D01*
X0165972Y0152502D01*
X0165289Y0151818D01*
X0163237Y0151818D01*
X0160001Y0152502D02*
X0158633Y0152502D01*
X0158633Y0154554D02*
X0158633Y0150450D01*
X0158633Y0154554D02*
X0161369Y0154554D01*
X0167841Y0154554D02*
X0167841Y0150450D01*
X0167841Y0151818D02*
X0169892Y0151818D01*
X0170576Y0152502D01*
X0170576Y0153870D01*
X0169892Y0154554D01*
X0167841Y0154554D01*
X0172445Y0154554D02*
X0172445Y0150450D01*
X0175180Y0150450D01*
X0177049Y0150450D02*
X0177049Y0154554D01*
X0179100Y0154554D01*
X0179784Y0153870D01*
X0179784Y0152502D01*
X0179100Y0151818D01*
X0177049Y0151818D01*
X0178416Y0151818D02*
X0179784Y0150450D01*
X0181652Y0149766D02*
X0184388Y0149766D01*
X0186256Y0150450D02*
X0188992Y0153186D01*
X0188992Y0153870D01*
X0188308Y0154554D01*
X0186940Y0154554D01*
X0186256Y0153870D01*
X0186256Y0150450D02*
X0188992Y0150450D01*
X0175180Y0154554D02*
X0172445Y0154554D01*
X0172445Y0152502D02*
X0173812Y0152502D01*
D20*
X0214283Y0045000D03*
X0214283Y0016250D03*
D21*
X0133665Y0096592D02*
X0132898Y0095825D01*
X0131363Y0095825D01*
X0130596Y0096592D01*
X0129061Y0095058D02*
X0125992Y0095058D01*
X0124457Y0095825D02*
X0122923Y0097360D01*
X0123690Y0097360D02*
X0121388Y0097360D01*
X0121388Y0095825D02*
X0121388Y0100429D01*
X0123690Y0100429D01*
X0124457Y0099662D01*
X0124457Y0098127D01*
X0123690Y0097360D01*
X0119853Y0095825D02*
X0116784Y0095825D01*
X0116784Y0100429D01*
X0119853Y0100429D01*
X0118319Y0098127D02*
X0116784Y0098127D01*
X0115250Y0098127D02*
X0115250Y0099662D01*
X0114482Y0100429D01*
X0112180Y0100429D01*
X0112180Y0095825D01*
X0112180Y0097360D02*
X0114482Y0097360D01*
X0115250Y0098127D01*
X0110646Y0098127D02*
X0109878Y0097360D01*
X0107576Y0097360D01*
X0107576Y0095825D02*
X0107576Y0100429D01*
X0109878Y0100429D01*
X0110646Y0099662D01*
X0110646Y0098127D01*
X0106042Y0100429D02*
X0102972Y0100429D01*
X0102972Y0095825D01*
X0106042Y0095825D01*
X0104507Y0098127D02*
X0102972Y0098127D01*
X0101438Y0100429D02*
X0098369Y0100429D01*
X0099903Y0100429D02*
X0099903Y0095825D01*
X0096834Y0096592D02*
X0096834Y0097360D01*
X0096067Y0098127D01*
X0094532Y0098127D01*
X0093765Y0098894D01*
X0093765Y0099662D01*
X0094532Y0100429D01*
X0096067Y0100429D01*
X0096834Y0099662D01*
X0096834Y0096592D02*
X0096067Y0095825D01*
X0094532Y0095825D01*
X0093765Y0096592D01*
X0130596Y0099662D02*
X0131363Y0100429D01*
X0132898Y0100429D01*
X0133665Y0099662D01*
X0133665Y0098894D01*
X0132898Y0098127D01*
X0133665Y0097360D01*
X0133665Y0096592D01*
X0132898Y0098127D02*
X0132131Y0098127D01*
X0131648Y0052304D02*
X0129346Y0050002D01*
X0132415Y0050002D01*
X0131648Y0047700D02*
X0131648Y0052304D01*
X0127811Y0046933D02*
X0124742Y0046933D01*
X0123207Y0047700D02*
X0121673Y0049235D01*
X0122440Y0049235D02*
X0120138Y0049235D01*
X0120138Y0047700D02*
X0120138Y0052304D01*
X0122440Y0052304D01*
X0123207Y0051537D01*
X0123207Y0050002D01*
X0122440Y0049235D01*
X0118603Y0047700D02*
X0115534Y0047700D01*
X0115534Y0052304D01*
X0118603Y0052304D01*
X0117069Y0050002D02*
X0115534Y0050002D01*
X0114000Y0050002D02*
X0113232Y0049235D01*
X0110930Y0049235D01*
X0110930Y0047700D02*
X0110930Y0052304D01*
X0113232Y0052304D01*
X0114000Y0051537D01*
X0114000Y0050002D01*
X0109396Y0050002D02*
X0108628Y0049235D01*
X0106326Y0049235D01*
X0106326Y0047700D02*
X0106326Y0052304D01*
X0108628Y0052304D01*
X0109396Y0051537D01*
X0109396Y0050002D01*
X0104792Y0052304D02*
X0101722Y0052304D01*
X0101722Y0047700D01*
X0104792Y0047700D01*
X0103257Y0050002D02*
X0101722Y0050002D01*
X0100188Y0052304D02*
X0097119Y0052304D01*
X0098653Y0052304D02*
X0098653Y0047700D01*
X0095584Y0048467D02*
X0094817Y0047700D01*
X0093282Y0047700D01*
X0092515Y0048467D01*
X0093282Y0050002D02*
X0094817Y0050002D01*
X0095584Y0049235D01*
X0095584Y0048467D01*
X0093282Y0050002D02*
X0092515Y0050769D01*
X0092515Y0051537D01*
X0093282Y0052304D01*
X0094817Y0052304D01*
X0095584Y0051537D01*
X0096399Y0021610D02*
X0093997Y0021610D01*
X0093997Y0019208D02*
X0096399Y0019208D01*
X0097600Y0020409D01*
X0096399Y0021610D01*
X0095798Y0017927D02*
X0096999Y0017927D01*
X0097600Y0017327D01*
X0097600Y0016126D01*
X0096999Y0015525D01*
X0095798Y0015525D02*
X0095198Y0016726D01*
X0095198Y0017327D01*
X0095798Y0017927D01*
X0093997Y0017927D02*
X0093997Y0015525D01*
X0095798Y0015525D01*
M02*
