G75*
%MOIN*%
%OFA0B0*%
%FSLAX25Y25*%
%IPPOS*%
%LPD*%
%AMOC8*
5,1,8,0,0,1.08239X$1,22.5*
%
%ADD10C,0.00000*%
%ADD11C,0.01000*%
%ADD12C,0.01200*%
%ADD13C,0.07400*%
%ADD14C,0.08000*%
%ADD15C,0.05200*%
%ADD16OC8,0.10000*%
%ADD17R,0.10000X0.10000*%
%ADD18C,0.02400*%
%ADD19C,0.03000*%
%ADD20R,0.03562X0.03562*%
%ADD21C,0.03200*%
%ADD22C,0.04800*%
%ADD23C,0.04500*%
%ADD24C,0.04000*%
%ADD25C,0.02700*%
%ADD26C,0.02200*%
D10*
X0005000Y0005000D02*
X0015000Y0005000D01*
X0208701Y0005000D01*
X0185959Y0016250D02*
X0185961Y0016403D01*
X0185967Y0016557D01*
X0185977Y0016710D01*
X0185991Y0016862D01*
X0186009Y0017015D01*
X0186031Y0017166D01*
X0186056Y0017317D01*
X0186086Y0017468D01*
X0186120Y0017618D01*
X0186157Y0017766D01*
X0186198Y0017914D01*
X0186243Y0018060D01*
X0186292Y0018206D01*
X0186345Y0018350D01*
X0186401Y0018492D01*
X0186461Y0018633D01*
X0186525Y0018773D01*
X0186592Y0018911D01*
X0186663Y0019047D01*
X0186738Y0019181D01*
X0186815Y0019313D01*
X0186897Y0019443D01*
X0186981Y0019571D01*
X0187069Y0019697D01*
X0187160Y0019820D01*
X0187254Y0019941D01*
X0187352Y0020059D01*
X0187452Y0020175D01*
X0187556Y0020288D01*
X0187662Y0020399D01*
X0187771Y0020507D01*
X0187883Y0020612D01*
X0187997Y0020713D01*
X0188115Y0020812D01*
X0188234Y0020908D01*
X0188356Y0021001D01*
X0188481Y0021090D01*
X0188608Y0021177D01*
X0188737Y0021259D01*
X0188868Y0021339D01*
X0189001Y0021415D01*
X0189136Y0021488D01*
X0189273Y0021557D01*
X0189412Y0021622D01*
X0189552Y0021684D01*
X0189694Y0021742D01*
X0189837Y0021797D01*
X0189982Y0021848D01*
X0190128Y0021895D01*
X0190275Y0021938D01*
X0190423Y0021977D01*
X0190572Y0022013D01*
X0190722Y0022044D01*
X0190873Y0022072D01*
X0191024Y0022096D01*
X0191177Y0022116D01*
X0191329Y0022132D01*
X0191482Y0022144D01*
X0191635Y0022152D01*
X0191788Y0022156D01*
X0191942Y0022156D01*
X0192095Y0022152D01*
X0192248Y0022144D01*
X0192401Y0022132D01*
X0192553Y0022116D01*
X0192706Y0022096D01*
X0192857Y0022072D01*
X0193008Y0022044D01*
X0193158Y0022013D01*
X0193307Y0021977D01*
X0193455Y0021938D01*
X0193602Y0021895D01*
X0193748Y0021848D01*
X0193893Y0021797D01*
X0194036Y0021742D01*
X0194178Y0021684D01*
X0194318Y0021622D01*
X0194457Y0021557D01*
X0194594Y0021488D01*
X0194729Y0021415D01*
X0194862Y0021339D01*
X0194993Y0021259D01*
X0195122Y0021177D01*
X0195249Y0021090D01*
X0195374Y0021001D01*
X0195496Y0020908D01*
X0195615Y0020812D01*
X0195733Y0020713D01*
X0195847Y0020612D01*
X0195959Y0020507D01*
X0196068Y0020399D01*
X0196174Y0020288D01*
X0196278Y0020175D01*
X0196378Y0020059D01*
X0196476Y0019941D01*
X0196570Y0019820D01*
X0196661Y0019697D01*
X0196749Y0019571D01*
X0196833Y0019443D01*
X0196915Y0019313D01*
X0196992Y0019181D01*
X0197067Y0019047D01*
X0197138Y0018911D01*
X0197205Y0018773D01*
X0197269Y0018633D01*
X0197329Y0018492D01*
X0197385Y0018350D01*
X0197438Y0018206D01*
X0197487Y0018060D01*
X0197532Y0017914D01*
X0197573Y0017766D01*
X0197610Y0017618D01*
X0197644Y0017468D01*
X0197674Y0017317D01*
X0197699Y0017166D01*
X0197721Y0017015D01*
X0197739Y0016862D01*
X0197753Y0016710D01*
X0197763Y0016557D01*
X0197769Y0016403D01*
X0197771Y0016250D01*
X0197769Y0016097D01*
X0197763Y0015943D01*
X0197753Y0015790D01*
X0197739Y0015638D01*
X0197721Y0015485D01*
X0197699Y0015334D01*
X0197674Y0015183D01*
X0197644Y0015032D01*
X0197610Y0014882D01*
X0197573Y0014734D01*
X0197532Y0014586D01*
X0197487Y0014440D01*
X0197438Y0014294D01*
X0197385Y0014150D01*
X0197329Y0014008D01*
X0197269Y0013867D01*
X0197205Y0013727D01*
X0197138Y0013589D01*
X0197067Y0013453D01*
X0196992Y0013319D01*
X0196915Y0013187D01*
X0196833Y0013057D01*
X0196749Y0012929D01*
X0196661Y0012803D01*
X0196570Y0012680D01*
X0196476Y0012559D01*
X0196378Y0012441D01*
X0196278Y0012325D01*
X0196174Y0012212D01*
X0196068Y0012101D01*
X0195959Y0011993D01*
X0195847Y0011888D01*
X0195733Y0011787D01*
X0195615Y0011688D01*
X0195496Y0011592D01*
X0195374Y0011499D01*
X0195249Y0011410D01*
X0195122Y0011323D01*
X0194993Y0011241D01*
X0194862Y0011161D01*
X0194729Y0011085D01*
X0194594Y0011012D01*
X0194457Y0010943D01*
X0194318Y0010878D01*
X0194178Y0010816D01*
X0194036Y0010758D01*
X0193893Y0010703D01*
X0193748Y0010652D01*
X0193602Y0010605D01*
X0193455Y0010562D01*
X0193307Y0010523D01*
X0193158Y0010487D01*
X0193008Y0010456D01*
X0192857Y0010428D01*
X0192706Y0010404D01*
X0192553Y0010384D01*
X0192401Y0010368D01*
X0192248Y0010356D01*
X0192095Y0010348D01*
X0191942Y0010344D01*
X0191788Y0010344D01*
X0191635Y0010348D01*
X0191482Y0010356D01*
X0191329Y0010368D01*
X0191177Y0010384D01*
X0191024Y0010404D01*
X0190873Y0010428D01*
X0190722Y0010456D01*
X0190572Y0010487D01*
X0190423Y0010523D01*
X0190275Y0010562D01*
X0190128Y0010605D01*
X0189982Y0010652D01*
X0189837Y0010703D01*
X0189694Y0010758D01*
X0189552Y0010816D01*
X0189412Y0010878D01*
X0189273Y0010943D01*
X0189136Y0011012D01*
X0189001Y0011085D01*
X0188868Y0011161D01*
X0188737Y0011241D01*
X0188608Y0011323D01*
X0188481Y0011410D01*
X0188356Y0011499D01*
X0188234Y0011592D01*
X0188115Y0011688D01*
X0187997Y0011787D01*
X0187883Y0011888D01*
X0187771Y0011993D01*
X0187662Y0012101D01*
X0187556Y0012212D01*
X0187452Y0012325D01*
X0187352Y0012441D01*
X0187254Y0012559D01*
X0187160Y0012680D01*
X0187069Y0012803D01*
X0186981Y0012929D01*
X0186897Y0013057D01*
X0186815Y0013187D01*
X0186738Y0013319D01*
X0186663Y0013453D01*
X0186592Y0013589D01*
X0186525Y0013727D01*
X0186461Y0013867D01*
X0186401Y0014008D01*
X0186345Y0014150D01*
X0186292Y0014294D01*
X0186243Y0014440D01*
X0186198Y0014586D01*
X0186157Y0014734D01*
X0186120Y0014882D01*
X0186086Y0015032D01*
X0186056Y0015183D01*
X0186031Y0015334D01*
X0186009Y0015485D01*
X0185991Y0015638D01*
X0185977Y0015790D01*
X0185967Y0015943D01*
X0185961Y0016097D01*
X0185959Y0016250D01*
X0185959Y0045000D02*
X0185961Y0045153D01*
X0185967Y0045307D01*
X0185977Y0045460D01*
X0185991Y0045612D01*
X0186009Y0045765D01*
X0186031Y0045916D01*
X0186056Y0046067D01*
X0186086Y0046218D01*
X0186120Y0046368D01*
X0186157Y0046516D01*
X0186198Y0046664D01*
X0186243Y0046810D01*
X0186292Y0046956D01*
X0186345Y0047100D01*
X0186401Y0047242D01*
X0186461Y0047383D01*
X0186525Y0047523D01*
X0186592Y0047661D01*
X0186663Y0047797D01*
X0186738Y0047931D01*
X0186815Y0048063D01*
X0186897Y0048193D01*
X0186981Y0048321D01*
X0187069Y0048447D01*
X0187160Y0048570D01*
X0187254Y0048691D01*
X0187352Y0048809D01*
X0187452Y0048925D01*
X0187556Y0049038D01*
X0187662Y0049149D01*
X0187771Y0049257D01*
X0187883Y0049362D01*
X0187997Y0049463D01*
X0188115Y0049562D01*
X0188234Y0049658D01*
X0188356Y0049751D01*
X0188481Y0049840D01*
X0188608Y0049927D01*
X0188737Y0050009D01*
X0188868Y0050089D01*
X0189001Y0050165D01*
X0189136Y0050238D01*
X0189273Y0050307D01*
X0189412Y0050372D01*
X0189552Y0050434D01*
X0189694Y0050492D01*
X0189837Y0050547D01*
X0189982Y0050598D01*
X0190128Y0050645D01*
X0190275Y0050688D01*
X0190423Y0050727D01*
X0190572Y0050763D01*
X0190722Y0050794D01*
X0190873Y0050822D01*
X0191024Y0050846D01*
X0191177Y0050866D01*
X0191329Y0050882D01*
X0191482Y0050894D01*
X0191635Y0050902D01*
X0191788Y0050906D01*
X0191942Y0050906D01*
X0192095Y0050902D01*
X0192248Y0050894D01*
X0192401Y0050882D01*
X0192553Y0050866D01*
X0192706Y0050846D01*
X0192857Y0050822D01*
X0193008Y0050794D01*
X0193158Y0050763D01*
X0193307Y0050727D01*
X0193455Y0050688D01*
X0193602Y0050645D01*
X0193748Y0050598D01*
X0193893Y0050547D01*
X0194036Y0050492D01*
X0194178Y0050434D01*
X0194318Y0050372D01*
X0194457Y0050307D01*
X0194594Y0050238D01*
X0194729Y0050165D01*
X0194862Y0050089D01*
X0194993Y0050009D01*
X0195122Y0049927D01*
X0195249Y0049840D01*
X0195374Y0049751D01*
X0195496Y0049658D01*
X0195615Y0049562D01*
X0195733Y0049463D01*
X0195847Y0049362D01*
X0195959Y0049257D01*
X0196068Y0049149D01*
X0196174Y0049038D01*
X0196278Y0048925D01*
X0196378Y0048809D01*
X0196476Y0048691D01*
X0196570Y0048570D01*
X0196661Y0048447D01*
X0196749Y0048321D01*
X0196833Y0048193D01*
X0196915Y0048063D01*
X0196992Y0047931D01*
X0197067Y0047797D01*
X0197138Y0047661D01*
X0197205Y0047523D01*
X0197269Y0047383D01*
X0197329Y0047242D01*
X0197385Y0047100D01*
X0197438Y0046956D01*
X0197487Y0046810D01*
X0197532Y0046664D01*
X0197573Y0046516D01*
X0197610Y0046368D01*
X0197644Y0046218D01*
X0197674Y0046067D01*
X0197699Y0045916D01*
X0197721Y0045765D01*
X0197739Y0045612D01*
X0197753Y0045460D01*
X0197763Y0045307D01*
X0197769Y0045153D01*
X0197771Y0045000D01*
X0197769Y0044847D01*
X0197763Y0044693D01*
X0197753Y0044540D01*
X0197739Y0044388D01*
X0197721Y0044235D01*
X0197699Y0044084D01*
X0197674Y0043933D01*
X0197644Y0043782D01*
X0197610Y0043632D01*
X0197573Y0043484D01*
X0197532Y0043336D01*
X0197487Y0043190D01*
X0197438Y0043044D01*
X0197385Y0042900D01*
X0197329Y0042758D01*
X0197269Y0042617D01*
X0197205Y0042477D01*
X0197138Y0042339D01*
X0197067Y0042203D01*
X0196992Y0042069D01*
X0196915Y0041937D01*
X0196833Y0041807D01*
X0196749Y0041679D01*
X0196661Y0041553D01*
X0196570Y0041430D01*
X0196476Y0041309D01*
X0196378Y0041191D01*
X0196278Y0041075D01*
X0196174Y0040962D01*
X0196068Y0040851D01*
X0195959Y0040743D01*
X0195847Y0040638D01*
X0195733Y0040537D01*
X0195615Y0040438D01*
X0195496Y0040342D01*
X0195374Y0040249D01*
X0195249Y0040160D01*
X0195122Y0040073D01*
X0194993Y0039991D01*
X0194862Y0039911D01*
X0194729Y0039835D01*
X0194594Y0039762D01*
X0194457Y0039693D01*
X0194318Y0039628D01*
X0194178Y0039566D01*
X0194036Y0039508D01*
X0193893Y0039453D01*
X0193748Y0039402D01*
X0193602Y0039355D01*
X0193455Y0039312D01*
X0193307Y0039273D01*
X0193158Y0039237D01*
X0193008Y0039206D01*
X0192857Y0039178D01*
X0192706Y0039154D01*
X0192553Y0039134D01*
X0192401Y0039118D01*
X0192248Y0039106D01*
X0192095Y0039098D01*
X0191942Y0039094D01*
X0191788Y0039094D01*
X0191635Y0039098D01*
X0191482Y0039106D01*
X0191329Y0039118D01*
X0191177Y0039134D01*
X0191024Y0039154D01*
X0190873Y0039178D01*
X0190722Y0039206D01*
X0190572Y0039237D01*
X0190423Y0039273D01*
X0190275Y0039312D01*
X0190128Y0039355D01*
X0189982Y0039402D01*
X0189837Y0039453D01*
X0189694Y0039508D01*
X0189552Y0039566D01*
X0189412Y0039628D01*
X0189273Y0039693D01*
X0189136Y0039762D01*
X0189001Y0039835D01*
X0188868Y0039911D01*
X0188737Y0039991D01*
X0188608Y0040073D01*
X0188481Y0040160D01*
X0188356Y0040249D01*
X0188234Y0040342D01*
X0188115Y0040438D01*
X0187997Y0040537D01*
X0187883Y0040638D01*
X0187771Y0040743D01*
X0187662Y0040851D01*
X0187556Y0040962D01*
X0187452Y0041075D01*
X0187352Y0041191D01*
X0187254Y0041309D01*
X0187160Y0041430D01*
X0187069Y0041553D01*
X0186981Y0041679D01*
X0186897Y0041807D01*
X0186815Y0041937D01*
X0186738Y0042069D01*
X0186663Y0042203D01*
X0186592Y0042339D01*
X0186525Y0042477D01*
X0186461Y0042617D01*
X0186401Y0042758D01*
X0186345Y0042900D01*
X0186292Y0043044D01*
X0186243Y0043190D01*
X0186198Y0043336D01*
X0186157Y0043484D01*
X0186120Y0043632D01*
X0186086Y0043782D01*
X0186056Y0043933D01*
X0186031Y0044084D01*
X0186009Y0044235D01*
X0185991Y0044388D01*
X0185977Y0044540D01*
X0185967Y0044693D01*
X0185961Y0044847D01*
X0185959Y0045000D01*
X0158848Y0064532D02*
X0158850Y0064685D01*
X0158856Y0064839D01*
X0158866Y0064992D01*
X0158880Y0065144D01*
X0158898Y0065297D01*
X0158920Y0065448D01*
X0158945Y0065599D01*
X0158975Y0065750D01*
X0159009Y0065900D01*
X0159046Y0066048D01*
X0159087Y0066196D01*
X0159132Y0066342D01*
X0159181Y0066488D01*
X0159234Y0066632D01*
X0159290Y0066774D01*
X0159350Y0066915D01*
X0159414Y0067055D01*
X0159481Y0067193D01*
X0159552Y0067329D01*
X0159627Y0067463D01*
X0159704Y0067595D01*
X0159786Y0067725D01*
X0159870Y0067853D01*
X0159958Y0067979D01*
X0160049Y0068102D01*
X0160143Y0068223D01*
X0160241Y0068341D01*
X0160341Y0068457D01*
X0160445Y0068570D01*
X0160551Y0068681D01*
X0160660Y0068789D01*
X0160772Y0068894D01*
X0160886Y0068995D01*
X0161004Y0069094D01*
X0161123Y0069190D01*
X0161245Y0069283D01*
X0161370Y0069372D01*
X0161497Y0069459D01*
X0161626Y0069541D01*
X0161757Y0069621D01*
X0161890Y0069697D01*
X0162025Y0069770D01*
X0162162Y0069839D01*
X0162301Y0069904D01*
X0162441Y0069966D01*
X0162583Y0070024D01*
X0162726Y0070079D01*
X0162871Y0070130D01*
X0163017Y0070177D01*
X0163164Y0070220D01*
X0163312Y0070259D01*
X0163461Y0070295D01*
X0163611Y0070326D01*
X0163762Y0070354D01*
X0163913Y0070378D01*
X0164066Y0070398D01*
X0164218Y0070414D01*
X0164371Y0070426D01*
X0164524Y0070434D01*
X0164677Y0070438D01*
X0164831Y0070438D01*
X0164984Y0070434D01*
X0165137Y0070426D01*
X0165290Y0070414D01*
X0165442Y0070398D01*
X0165595Y0070378D01*
X0165746Y0070354D01*
X0165897Y0070326D01*
X0166047Y0070295D01*
X0166196Y0070259D01*
X0166344Y0070220D01*
X0166491Y0070177D01*
X0166637Y0070130D01*
X0166782Y0070079D01*
X0166925Y0070024D01*
X0167067Y0069966D01*
X0167207Y0069904D01*
X0167346Y0069839D01*
X0167483Y0069770D01*
X0167618Y0069697D01*
X0167751Y0069621D01*
X0167882Y0069541D01*
X0168011Y0069459D01*
X0168138Y0069372D01*
X0168263Y0069283D01*
X0168385Y0069190D01*
X0168504Y0069094D01*
X0168622Y0068995D01*
X0168736Y0068894D01*
X0168848Y0068789D01*
X0168957Y0068681D01*
X0169063Y0068570D01*
X0169167Y0068457D01*
X0169267Y0068341D01*
X0169365Y0068223D01*
X0169459Y0068102D01*
X0169550Y0067979D01*
X0169638Y0067853D01*
X0169722Y0067725D01*
X0169804Y0067595D01*
X0169881Y0067463D01*
X0169956Y0067329D01*
X0170027Y0067193D01*
X0170094Y0067055D01*
X0170158Y0066915D01*
X0170218Y0066774D01*
X0170274Y0066632D01*
X0170327Y0066488D01*
X0170376Y0066342D01*
X0170421Y0066196D01*
X0170462Y0066048D01*
X0170499Y0065900D01*
X0170533Y0065750D01*
X0170563Y0065599D01*
X0170588Y0065448D01*
X0170610Y0065297D01*
X0170628Y0065144D01*
X0170642Y0064992D01*
X0170652Y0064839D01*
X0170658Y0064685D01*
X0170660Y0064532D01*
X0170658Y0064379D01*
X0170652Y0064225D01*
X0170642Y0064072D01*
X0170628Y0063920D01*
X0170610Y0063767D01*
X0170588Y0063616D01*
X0170563Y0063465D01*
X0170533Y0063314D01*
X0170499Y0063164D01*
X0170462Y0063016D01*
X0170421Y0062868D01*
X0170376Y0062722D01*
X0170327Y0062576D01*
X0170274Y0062432D01*
X0170218Y0062290D01*
X0170158Y0062149D01*
X0170094Y0062009D01*
X0170027Y0061871D01*
X0169956Y0061735D01*
X0169881Y0061601D01*
X0169804Y0061469D01*
X0169722Y0061339D01*
X0169638Y0061211D01*
X0169550Y0061085D01*
X0169459Y0060962D01*
X0169365Y0060841D01*
X0169267Y0060723D01*
X0169167Y0060607D01*
X0169063Y0060494D01*
X0168957Y0060383D01*
X0168848Y0060275D01*
X0168736Y0060170D01*
X0168622Y0060069D01*
X0168504Y0059970D01*
X0168385Y0059874D01*
X0168263Y0059781D01*
X0168138Y0059692D01*
X0168011Y0059605D01*
X0167882Y0059523D01*
X0167751Y0059443D01*
X0167618Y0059367D01*
X0167483Y0059294D01*
X0167346Y0059225D01*
X0167207Y0059160D01*
X0167067Y0059098D01*
X0166925Y0059040D01*
X0166782Y0058985D01*
X0166637Y0058934D01*
X0166491Y0058887D01*
X0166344Y0058844D01*
X0166196Y0058805D01*
X0166047Y0058769D01*
X0165897Y0058738D01*
X0165746Y0058710D01*
X0165595Y0058686D01*
X0165442Y0058666D01*
X0165290Y0058650D01*
X0165137Y0058638D01*
X0164984Y0058630D01*
X0164831Y0058626D01*
X0164677Y0058626D01*
X0164524Y0058630D01*
X0164371Y0058638D01*
X0164218Y0058650D01*
X0164066Y0058666D01*
X0163913Y0058686D01*
X0163762Y0058710D01*
X0163611Y0058738D01*
X0163461Y0058769D01*
X0163312Y0058805D01*
X0163164Y0058844D01*
X0163017Y0058887D01*
X0162871Y0058934D01*
X0162726Y0058985D01*
X0162583Y0059040D01*
X0162441Y0059098D01*
X0162301Y0059160D01*
X0162162Y0059225D01*
X0162025Y0059294D01*
X0161890Y0059367D01*
X0161757Y0059443D01*
X0161626Y0059523D01*
X0161497Y0059605D01*
X0161370Y0059692D01*
X0161245Y0059781D01*
X0161123Y0059874D01*
X0161004Y0059970D01*
X0160886Y0060069D01*
X0160772Y0060170D01*
X0160660Y0060275D01*
X0160551Y0060383D01*
X0160445Y0060494D01*
X0160341Y0060607D01*
X0160241Y0060723D01*
X0160143Y0060841D01*
X0160049Y0060962D01*
X0159958Y0061085D01*
X0159870Y0061211D01*
X0159786Y0061339D01*
X0159704Y0061469D01*
X0159627Y0061601D01*
X0159552Y0061735D01*
X0159481Y0061871D01*
X0159414Y0062009D01*
X0159350Y0062149D01*
X0159290Y0062290D01*
X0159234Y0062432D01*
X0159181Y0062576D01*
X0159132Y0062722D01*
X0159087Y0062868D01*
X0159046Y0063016D01*
X0159009Y0063164D01*
X0158975Y0063314D01*
X0158945Y0063465D01*
X0158920Y0063616D01*
X0158898Y0063767D01*
X0158880Y0063920D01*
X0158866Y0064072D01*
X0158856Y0064225D01*
X0158850Y0064379D01*
X0158848Y0064532D01*
X0159473Y0123907D02*
X0159475Y0124060D01*
X0159481Y0124214D01*
X0159491Y0124367D01*
X0159505Y0124519D01*
X0159523Y0124672D01*
X0159545Y0124823D01*
X0159570Y0124974D01*
X0159600Y0125125D01*
X0159634Y0125275D01*
X0159671Y0125423D01*
X0159712Y0125571D01*
X0159757Y0125717D01*
X0159806Y0125863D01*
X0159859Y0126007D01*
X0159915Y0126149D01*
X0159975Y0126290D01*
X0160039Y0126430D01*
X0160106Y0126568D01*
X0160177Y0126704D01*
X0160252Y0126838D01*
X0160329Y0126970D01*
X0160411Y0127100D01*
X0160495Y0127228D01*
X0160583Y0127354D01*
X0160674Y0127477D01*
X0160768Y0127598D01*
X0160866Y0127716D01*
X0160966Y0127832D01*
X0161070Y0127945D01*
X0161176Y0128056D01*
X0161285Y0128164D01*
X0161397Y0128269D01*
X0161511Y0128370D01*
X0161629Y0128469D01*
X0161748Y0128565D01*
X0161870Y0128658D01*
X0161995Y0128747D01*
X0162122Y0128834D01*
X0162251Y0128916D01*
X0162382Y0128996D01*
X0162515Y0129072D01*
X0162650Y0129145D01*
X0162787Y0129214D01*
X0162926Y0129279D01*
X0163066Y0129341D01*
X0163208Y0129399D01*
X0163351Y0129454D01*
X0163496Y0129505D01*
X0163642Y0129552D01*
X0163789Y0129595D01*
X0163937Y0129634D01*
X0164086Y0129670D01*
X0164236Y0129701D01*
X0164387Y0129729D01*
X0164538Y0129753D01*
X0164691Y0129773D01*
X0164843Y0129789D01*
X0164996Y0129801D01*
X0165149Y0129809D01*
X0165302Y0129813D01*
X0165456Y0129813D01*
X0165609Y0129809D01*
X0165762Y0129801D01*
X0165915Y0129789D01*
X0166067Y0129773D01*
X0166220Y0129753D01*
X0166371Y0129729D01*
X0166522Y0129701D01*
X0166672Y0129670D01*
X0166821Y0129634D01*
X0166969Y0129595D01*
X0167116Y0129552D01*
X0167262Y0129505D01*
X0167407Y0129454D01*
X0167550Y0129399D01*
X0167692Y0129341D01*
X0167832Y0129279D01*
X0167971Y0129214D01*
X0168108Y0129145D01*
X0168243Y0129072D01*
X0168376Y0128996D01*
X0168507Y0128916D01*
X0168636Y0128834D01*
X0168763Y0128747D01*
X0168888Y0128658D01*
X0169010Y0128565D01*
X0169129Y0128469D01*
X0169247Y0128370D01*
X0169361Y0128269D01*
X0169473Y0128164D01*
X0169582Y0128056D01*
X0169688Y0127945D01*
X0169792Y0127832D01*
X0169892Y0127716D01*
X0169990Y0127598D01*
X0170084Y0127477D01*
X0170175Y0127354D01*
X0170263Y0127228D01*
X0170347Y0127100D01*
X0170429Y0126970D01*
X0170506Y0126838D01*
X0170581Y0126704D01*
X0170652Y0126568D01*
X0170719Y0126430D01*
X0170783Y0126290D01*
X0170843Y0126149D01*
X0170899Y0126007D01*
X0170952Y0125863D01*
X0171001Y0125717D01*
X0171046Y0125571D01*
X0171087Y0125423D01*
X0171124Y0125275D01*
X0171158Y0125125D01*
X0171188Y0124974D01*
X0171213Y0124823D01*
X0171235Y0124672D01*
X0171253Y0124519D01*
X0171267Y0124367D01*
X0171277Y0124214D01*
X0171283Y0124060D01*
X0171285Y0123907D01*
X0171283Y0123754D01*
X0171277Y0123600D01*
X0171267Y0123447D01*
X0171253Y0123295D01*
X0171235Y0123142D01*
X0171213Y0122991D01*
X0171188Y0122840D01*
X0171158Y0122689D01*
X0171124Y0122539D01*
X0171087Y0122391D01*
X0171046Y0122243D01*
X0171001Y0122097D01*
X0170952Y0121951D01*
X0170899Y0121807D01*
X0170843Y0121665D01*
X0170783Y0121524D01*
X0170719Y0121384D01*
X0170652Y0121246D01*
X0170581Y0121110D01*
X0170506Y0120976D01*
X0170429Y0120844D01*
X0170347Y0120714D01*
X0170263Y0120586D01*
X0170175Y0120460D01*
X0170084Y0120337D01*
X0169990Y0120216D01*
X0169892Y0120098D01*
X0169792Y0119982D01*
X0169688Y0119869D01*
X0169582Y0119758D01*
X0169473Y0119650D01*
X0169361Y0119545D01*
X0169247Y0119444D01*
X0169129Y0119345D01*
X0169010Y0119249D01*
X0168888Y0119156D01*
X0168763Y0119067D01*
X0168636Y0118980D01*
X0168507Y0118898D01*
X0168376Y0118818D01*
X0168243Y0118742D01*
X0168108Y0118669D01*
X0167971Y0118600D01*
X0167832Y0118535D01*
X0167692Y0118473D01*
X0167550Y0118415D01*
X0167407Y0118360D01*
X0167262Y0118309D01*
X0167116Y0118262D01*
X0166969Y0118219D01*
X0166821Y0118180D01*
X0166672Y0118144D01*
X0166522Y0118113D01*
X0166371Y0118085D01*
X0166220Y0118061D01*
X0166067Y0118041D01*
X0165915Y0118025D01*
X0165762Y0118013D01*
X0165609Y0118005D01*
X0165456Y0118001D01*
X0165302Y0118001D01*
X0165149Y0118005D01*
X0164996Y0118013D01*
X0164843Y0118025D01*
X0164691Y0118041D01*
X0164538Y0118061D01*
X0164387Y0118085D01*
X0164236Y0118113D01*
X0164086Y0118144D01*
X0163937Y0118180D01*
X0163789Y0118219D01*
X0163642Y0118262D01*
X0163496Y0118309D01*
X0163351Y0118360D01*
X0163208Y0118415D01*
X0163066Y0118473D01*
X0162926Y0118535D01*
X0162787Y0118600D01*
X0162650Y0118669D01*
X0162515Y0118742D01*
X0162382Y0118818D01*
X0162251Y0118898D01*
X0162122Y0118980D01*
X0161995Y0119067D01*
X0161870Y0119156D01*
X0161748Y0119249D01*
X0161629Y0119345D01*
X0161511Y0119444D01*
X0161397Y0119545D01*
X0161285Y0119650D01*
X0161176Y0119758D01*
X0161070Y0119869D01*
X0160966Y0119982D01*
X0160866Y0120098D01*
X0160768Y0120216D01*
X0160674Y0120337D01*
X0160583Y0120460D01*
X0160495Y0120586D01*
X0160411Y0120714D01*
X0160329Y0120844D01*
X0160252Y0120976D01*
X0160177Y0121110D01*
X0160106Y0121246D01*
X0160039Y0121384D01*
X0159975Y0121524D01*
X0159915Y0121665D01*
X0159859Y0121807D01*
X0159806Y0121951D01*
X0159757Y0122097D01*
X0159712Y0122243D01*
X0159671Y0122391D01*
X0159634Y0122539D01*
X0159600Y0122689D01*
X0159570Y0122840D01*
X0159545Y0122991D01*
X0159523Y0123142D01*
X0159505Y0123295D01*
X0159491Y0123447D01*
X0159481Y0123600D01*
X0159475Y0123754D01*
X0159473Y0123907D01*
X0089394Y0123907D02*
X0089396Y0124060D01*
X0089402Y0124214D01*
X0089412Y0124367D01*
X0089426Y0124519D01*
X0089444Y0124672D01*
X0089466Y0124823D01*
X0089491Y0124974D01*
X0089521Y0125125D01*
X0089555Y0125275D01*
X0089592Y0125423D01*
X0089633Y0125571D01*
X0089678Y0125717D01*
X0089727Y0125863D01*
X0089780Y0126007D01*
X0089836Y0126149D01*
X0089896Y0126290D01*
X0089960Y0126430D01*
X0090027Y0126568D01*
X0090098Y0126704D01*
X0090173Y0126838D01*
X0090250Y0126970D01*
X0090332Y0127100D01*
X0090416Y0127228D01*
X0090504Y0127354D01*
X0090595Y0127477D01*
X0090689Y0127598D01*
X0090787Y0127716D01*
X0090887Y0127832D01*
X0090991Y0127945D01*
X0091097Y0128056D01*
X0091206Y0128164D01*
X0091318Y0128269D01*
X0091432Y0128370D01*
X0091550Y0128469D01*
X0091669Y0128565D01*
X0091791Y0128658D01*
X0091916Y0128747D01*
X0092043Y0128834D01*
X0092172Y0128916D01*
X0092303Y0128996D01*
X0092436Y0129072D01*
X0092571Y0129145D01*
X0092708Y0129214D01*
X0092847Y0129279D01*
X0092987Y0129341D01*
X0093129Y0129399D01*
X0093272Y0129454D01*
X0093417Y0129505D01*
X0093563Y0129552D01*
X0093710Y0129595D01*
X0093858Y0129634D01*
X0094007Y0129670D01*
X0094157Y0129701D01*
X0094308Y0129729D01*
X0094459Y0129753D01*
X0094612Y0129773D01*
X0094764Y0129789D01*
X0094917Y0129801D01*
X0095070Y0129809D01*
X0095223Y0129813D01*
X0095377Y0129813D01*
X0095530Y0129809D01*
X0095683Y0129801D01*
X0095836Y0129789D01*
X0095988Y0129773D01*
X0096141Y0129753D01*
X0096292Y0129729D01*
X0096443Y0129701D01*
X0096593Y0129670D01*
X0096742Y0129634D01*
X0096890Y0129595D01*
X0097037Y0129552D01*
X0097183Y0129505D01*
X0097328Y0129454D01*
X0097471Y0129399D01*
X0097613Y0129341D01*
X0097753Y0129279D01*
X0097892Y0129214D01*
X0098029Y0129145D01*
X0098164Y0129072D01*
X0098297Y0128996D01*
X0098428Y0128916D01*
X0098557Y0128834D01*
X0098684Y0128747D01*
X0098809Y0128658D01*
X0098931Y0128565D01*
X0099050Y0128469D01*
X0099168Y0128370D01*
X0099282Y0128269D01*
X0099394Y0128164D01*
X0099503Y0128056D01*
X0099609Y0127945D01*
X0099713Y0127832D01*
X0099813Y0127716D01*
X0099911Y0127598D01*
X0100005Y0127477D01*
X0100096Y0127354D01*
X0100184Y0127228D01*
X0100268Y0127100D01*
X0100350Y0126970D01*
X0100427Y0126838D01*
X0100502Y0126704D01*
X0100573Y0126568D01*
X0100640Y0126430D01*
X0100704Y0126290D01*
X0100764Y0126149D01*
X0100820Y0126007D01*
X0100873Y0125863D01*
X0100922Y0125717D01*
X0100967Y0125571D01*
X0101008Y0125423D01*
X0101045Y0125275D01*
X0101079Y0125125D01*
X0101109Y0124974D01*
X0101134Y0124823D01*
X0101156Y0124672D01*
X0101174Y0124519D01*
X0101188Y0124367D01*
X0101198Y0124214D01*
X0101204Y0124060D01*
X0101206Y0123907D01*
X0101204Y0123754D01*
X0101198Y0123600D01*
X0101188Y0123447D01*
X0101174Y0123295D01*
X0101156Y0123142D01*
X0101134Y0122991D01*
X0101109Y0122840D01*
X0101079Y0122689D01*
X0101045Y0122539D01*
X0101008Y0122391D01*
X0100967Y0122243D01*
X0100922Y0122097D01*
X0100873Y0121951D01*
X0100820Y0121807D01*
X0100764Y0121665D01*
X0100704Y0121524D01*
X0100640Y0121384D01*
X0100573Y0121246D01*
X0100502Y0121110D01*
X0100427Y0120976D01*
X0100350Y0120844D01*
X0100268Y0120714D01*
X0100184Y0120586D01*
X0100096Y0120460D01*
X0100005Y0120337D01*
X0099911Y0120216D01*
X0099813Y0120098D01*
X0099713Y0119982D01*
X0099609Y0119869D01*
X0099503Y0119758D01*
X0099394Y0119650D01*
X0099282Y0119545D01*
X0099168Y0119444D01*
X0099050Y0119345D01*
X0098931Y0119249D01*
X0098809Y0119156D01*
X0098684Y0119067D01*
X0098557Y0118980D01*
X0098428Y0118898D01*
X0098297Y0118818D01*
X0098164Y0118742D01*
X0098029Y0118669D01*
X0097892Y0118600D01*
X0097753Y0118535D01*
X0097613Y0118473D01*
X0097471Y0118415D01*
X0097328Y0118360D01*
X0097183Y0118309D01*
X0097037Y0118262D01*
X0096890Y0118219D01*
X0096742Y0118180D01*
X0096593Y0118144D01*
X0096443Y0118113D01*
X0096292Y0118085D01*
X0096141Y0118061D01*
X0095988Y0118041D01*
X0095836Y0118025D01*
X0095683Y0118013D01*
X0095530Y0118005D01*
X0095377Y0118001D01*
X0095223Y0118001D01*
X0095070Y0118005D01*
X0094917Y0118013D01*
X0094764Y0118025D01*
X0094612Y0118041D01*
X0094459Y0118061D01*
X0094308Y0118085D01*
X0094157Y0118113D01*
X0094007Y0118144D01*
X0093858Y0118180D01*
X0093710Y0118219D01*
X0093563Y0118262D01*
X0093417Y0118309D01*
X0093272Y0118360D01*
X0093129Y0118415D01*
X0092987Y0118473D01*
X0092847Y0118535D01*
X0092708Y0118600D01*
X0092571Y0118669D01*
X0092436Y0118742D01*
X0092303Y0118818D01*
X0092172Y0118898D01*
X0092043Y0118980D01*
X0091916Y0119067D01*
X0091791Y0119156D01*
X0091669Y0119249D01*
X0091550Y0119345D01*
X0091432Y0119444D01*
X0091318Y0119545D01*
X0091206Y0119650D01*
X0091097Y0119758D01*
X0090991Y0119869D01*
X0090887Y0119982D01*
X0090787Y0120098D01*
X0090689Y0120216D01*
X0090595Y0120337D01*
X0090504Y0120460D01*
X0090416Y0120586D01*
X0090332Y0120714D01*
X0090250Y0120844D01*
X0090173Y0120976D01*
X0090098Y0121110D01*
X0090027Y0121246D01*
X0089960Y0121384D01*
X0089896Y0121524D01*
X0089836Y0121665D01*
X0089780Y0121807D01*
X0089727Y0121951D01*
X0089678Y0122097D01*
X0089633Y0122243D01*
X0089592Y0122391D01*
X0089555Y0122539D01*
X0089521Y0122689D01*
X0089491Y0122840D01*
X0089466Y0122991D01*
X0089444Y0123142D01*
X0089426Y0123295D01*
X0089412Y0123447D01*
X0089402Y0123600D01*
X0089396Y0123754D01*
X0089394Y0123907D01*
X0088769Y0064532D02*
X0088771Y0064685D01*
X0088777Y0064839D01*
X0088787Y0064992D01*
X0088801Y0065144D01*
X0088819Y0065297D01*
X0088841Y0065448D01*
X0088866Y0065599D01*
X0088896Y0065750D01*
X0088930Y0065900D01*
X0088967Y0066048D01*
X0089008Y0066196D01*
X0089053Y0066342D01*
X0089102Y0066488D01*
X0089155Y0066632D01*
X0089211Y0066774D01*
X0089271Y0066915D01*
X0089335Y0067055D01*
X0089402Y0067193D01*
X0089473Y0067329D01*
X0089548Y0067463D01*
X0089625Y0067595D01*
X0089707Y0067725D01*
X0089791Y0067853D01*
X0089879Y0067979D01*
X0089970Y0068102D01*
X0090064Y0068223D01*
X0090162Y0068341D01*
X0090262Y0068457D01*
X0090366Y0068570D01*
X0090472Y0068681D01*
X0090581Y0068789D01*
X0090693Y0068894D01*
X0090807Y0068995D01*
X0090925Y0069094D01*
X0091044Y0069190D01*
X0091166Y0069283D01*
X0091291Y0069372D01*
X0091418Y0069459D01*
X0091547Y0069541D01*
X0091678Y0069621D01*
X0091811Y0069697D01*
X0091946Y0069770D01*
X0092083Y0069839D01*
X0092222Y0069904D01*
X0092362Y0069966D01*
X0092504Y0070024D01*
X0092647Y0070079D01*
X0092792Y0070130D01*
X0092938Y0070177D01*
X0093085Y0070220D01*
X0093233Y0070259D01*
X0093382Y0070295D01*
X0093532Y0070326D01*
X0093683Y0070354D01*
X0093834Y0070378D01*
X0093987Y0070398D01*
X0094139Y0070414D01*
X0094292Y0070426D01*
X0094445Y0070434D01*
X0094598Y0070438D01*
X0094752Y0070438D01*
X0094905Y0070434D01*
X0095058Y0070426D01*
X0095211Y0070414D01*
X0095363Y0070398D01*
X0095516Y0070378D01*
X0095667Y0070354D01*
X0095818Y0070326D01*
X0095968Y0070295D01*
X0096117Y0070259D01*
X0096265Y0070220D01*
X0096412Y0070177D01*
X0096558Y0070130D01*
X0096703Y0070079D01*
X0096846Y0070024D01*
X0096988Y0069966D01*
X0097128Y0069904D01*
X0097267Y0069839D01*
X0097404Y0069770D01*
X0097539Y0069697D01*
X0097672Y0069621D01*
X0097803Y0069541D01*
X0097932Y0069459D01*
X0098059Y0069372D01*
X0098184Y0069283D01*
X0098306Y0069190D01*
X0098425Y0069094D01*
X0098543Y0068995D01*
X0098657Y0068894D01*
X0098769Y0068789D01*
X0098878Y0068681D01*
X0098984Y0068570D01*
X0099088Y0068457D01*
X0099188Y0068341D01*
X0099286Y0068223D01*
X0099380Y0068102D01*
X0099471Y0067979D01*
X0099559Y0067853D01*
X0099643Y0067725D01*
X0099725Y0067595D01*
X0099802Y0067463D01*
X0099877Y0067329D01*
X0099948Y0067193D01*
X0100015Y0067055D01*
X0100079Y0066915D01*
X0100139Y0066774D01*
X0100195Y0066632D01*
X0100248Y0066488D01*
X0100297Y0066342D01*
X0100342Y0066196D01*
X0100383Y0066048D01*
X0100420Y0065900D01*
X0100454Y0065750D01*
X0100484Y0065599D01*
X0100509Y0065448D01*
X0100531Y0065297D01*
X0100549Y0065144D01*
X0100563Y0064992D01*
X0100573Y0064839D01*
X0100579Y0064685D01*
X0100581Y0064532D01*
X0100579Y0064379D01*
X0100573Y0064225D01*
X0100563Y0064072D01*
X0100549Y0063920D01*
X0100531Y0063767D01*
X0100509Y0063616D01*
X0100484Y0063465D01*
X0100454Y0063314D01*
X0100420Y0063164D01*
X0100383Y0063016D01*
X0100342Y0062868D01*
X0100297Y0062722D01*
X0100248Y0062576D01*
X0100195Y0062432D01*
X0100139Y0062290D01*
X0100079Y0062149D01*
X0100015Y0062009D01*
X0099948Y0061871D01*
X0099877Y0061735D01*
X0099802Y0061601D01*
X0099725Y0061469D01*
X0099643Y0061339D01*
X0099559Y0061211D01*
X0099471Y0061085D01*
X0099380Y0060962D01*
X0099286Y0060841D01*
X0099188Y0060723D01*
X0099088Y0060607D01*
X0098984Y0060494D01*
X0098878Y0060383D01*
X0098769Y0060275D01*
X0098657Y0060170D01*
X0098543Y0060069D01*
X0098425Y0059970D01*
X0098306Y0059874D01*
X0098184Y0059781D01*
X0098059Y0059692D01*
X0097932Y0059605D01*
X0097803Y0059523D01*
X0097672Y0059443D01*
X0097539Y0059367D01*
X0097404Y0059294D01*
X0097267Y0059225D01*
X0097128Y0059160D01*
X0096988Y0059098D01*
X0096846Y0059040D01*
X0096703Y0058985D01*
X0096558Y0058934D01*
X0096412Y0058887D01*
X0096265Y0058844D01*
X0096117Y0058805D01*
X0095968Y0058769D01*
X0095818Y0058738D01*
X0095667Y0058710D01*
X0095516Y0058686D01*
X0095363Y0058666D01*
X0095211Y0058650D01*
X0095058Y0058638D01*
X0094905Y0058630D01*
X0094752Y0058626D01*
X0094598Y0058626D01*
X0094445Y0058630D01*
X0094292Y0058638D01*
X0094139Y0058650D01*
X0093987Y0058666D01*
X0093834Y0058686D01*
X0093683Y0058710D01*
X0093532Y0058738D01*
X0093382Y0058769D01*
X0093233Y0058805D01*
X0093085Y0058844D01*
X0092938Y0058887D01*
X0092792Y0058934D01*
X0092647Y0058985D01*
X0092504Y0059040D01*
X0092362Y0059098D01*
X0092222Y0059160D01*
X0092083Y0059225D01*
X0091946Y0059294D01*
X0091811Y0059367D01*
X0091678Y0059443D01*
X0091547Y0059523D01*
X0091418Y0059605D01*
X0091291Y0059692D01*
X0091166Y0059781D01*
X0091044Y0059874D01*
X0090925Y0059970D01*
X0090807Y0060069D01*
X0090693Y0060170D01*
X0090581Y0060275D01*
X0090472Y0060383D01*
X0090366Y0060494D01*
X0090262Y0060607D01*
X0090162Y0060723D01*
X0090064Y0060841D01*
X0089970Y0060962D01*
X0089879Y0061085D01*
X0089791Y0061211D01*
X0089707Y0061339D01*
X0089625Y0061469D01*
X0089548Y0061601D01*
X0089473Y0061735D01*
X0089402Y0061871D01*
X0089335Y0062009D01*
X0089271Y0062149D01*
X0089211Y0062290D01*
X0089155Y0062432D01*
X0089102Y0062576D01*
X0089053Y0062722D01*
X0089008Y0062868D01*
X0088967Y0063016D01*
X0088930Y0063164D01*
X0088896Y0063314D01*
X0088866Y0063465D01*
X0088841Y0063616D01*
X0088819Y0063767D01*
X0088801Y0063920D01*
X0088787Y0064072D01*
X0088777Y0064225D01*
X0088771Y0064379D01*
X0088769Y0064532D01*
X0087594Y0213740D02*
X0087596Y0213893D01*
X0087602Y0214047D01*
X0087612Y0214200D01*
X0087626Y0214352D01*
X0087644Y0214505D01*
X0087666Y0214656D01*
X0087691Y0214807D01*
X0087721Y0214958D01*
X0087755Y0215108D01*
X0087792Y0215256D01*
X0087833Y0215404D01*
X0087878Y0215550D01*
X0087927Y0215696D01*
X0087980Y0215840D01*
X0088036Y0215982D01*
X0088096Y0216123D01*
X0088160Y0216263D01*
X0088227Y0216401D01*
X0088298Y0216537D01*
X0088373Y0216671D01*
X0088450Y0216803D01*
X0088532Y0216933D01*
X0088616Y0217061D01*
X0088704Y0217187D01*
X0088795Y0217310D01*
X0088889Y0217431D01*
X0088987Y0217549D01*
X0089087Y0217665D01*
X0089191Y0217778D01*
X0089297Y0217889D01*
X0089406Y0217997D01*
X0089518Y0218102D01*
X0089632Y0218203D01*
X0089750Y0218302D01*
X0089869Y0218398D01*
X0089991Y0218491D01*
X0090116Y0218580D01*
X0090243Y0218667D01*
X0090372Y0218749D01*
X0090503Y0218829D01*
X0090636Y0218905D01*
X0090771Y0218978D01*
X0090908Y0219047D01*
X0091047Y0219112D01*
X0091187Y0219174D01*
X0091329Y0219232D01*
X0091472Y0219287D01*
X0091617Y0219338D01*
X0091763Y0219385D01*
X0091910Y0219428D01*
X0092058Y0219467D01*
X0092207Y0219503D01*
X0092357Y0219534D01*
X0092508Y0219562D01*
X0092659Y0219586D01*
X0092812Y0219606D01*
X0092964Y0219622D01*
X0093117Y0219634D01*
X0093270Y0219642D01*
X0093423Y0219646D01*
X0093577Y0219646D01*
X0093730Y0219642D01*
X0093883Y0219634D01*
X0094036Y0219622D01*
X0094188Y0219606D01*
X0094341Y0219586D01*
X0094492Y0219562D01*
X0094643Y0219534D01*
X0094793Y0219503D01*
X0094942Y0219467D01*
X0095090Y0219428D01*
X0095237Y0219385D01*
X0095383Y0219338D01*
X0095528Y0219287D01*
X0095671Y0219232D01*
X0095813Y0219174D01*
X0095953Y0219112D01*
X0096092Y0219047D01*
X0096229Y0218978D01*
X0096364Y0218905D01*
X0096497Y0218829D01*
X0096628Y0218749D01*
X0096757Y0218667D01*
X0096884Y0218580D01*
X0097009Y0218491D01*
X0097131Y0218398D01*
X0097250Y0218302D01*
X0097368Y0218203D01*
X0097482Y0218102D01*
X0097594Y0217997D01*
X0097703Y0217889D01*
X0097809Y0217778D01*
X0097913Y0217665D01*
X0098013Y0217549D01*
X0098111Y0217431D01*
X0098205Y0217310D01*
X0098296Y0217187D01*
X0098384Y0217061D01*
X0098468Y0216933D01*
X0098550Y0216803D01*
X0098627Y0216671D01*
X0098702Y0216537D01*
X0098773Y0216401D01*
X0098840Y0216263D01*
X0098904Y0216123D01*
X0098964Y0215982D01*
X0099020Y0215840D01*
X0099073Y0215696D01*
X0099122Y0215550D01*
X0099167Y0215404D01*
X0099208Y0215256D01*
X0099245Y0215108D01*
X0099279Y0214958D01*
X0099309Y0214807D01*
X0099334Y0214656D01*
X0099356Y0214505D01*
X0099374Y0214352D01*
X0099388Y0214200D01*
X0099398Y0214047D01*
X0099404Y0213893D01*
X0099406Y0213740D01*
X0099404Y0213587D01*
X0099398Y0213433D01*
X0099388Y0213280D01*
X0099374Y0213128D01*
X0099356Y0212975D01*
X0099334Y0212824D01*
X0099309Y0212673D01*
X0099279Y0212522D01*
X0099245Y0212372D01*
X0099208Y0212224D01*
X0099167Y0212076D01*
X0099122Y0211930D01*
X0099073Y0211784D01*
X0099020Y0211640D01*
X0098964Y0211498D01*
X0098904Y0211357D01*
X0098840Y0211217D01*
X0098773Y0211079D01*
X0098702Y0210943D01*
X0098627Y0210809D01*
X0098550Y0210677D01*
X0098468Y0210547D01*
X0098384Y0210419D01*
X0098296Y0210293D01*
X0098205Y0210170D01*
X0098111Y0210049D01*
X0098013Y0209931D01*
X0097913Y0209815D01*
X0097809Y0209702D01*
X0097703Y0209591D01*
X0097594Y0209483D01*
X0097482Y0209378D01*
X0097368Y0209277D01*
X0097250Y0209178D01*
X0097131Y0209082D01*
X0097009Y0208989D01*
X0096884Y0208900D01*
X0096757Y0208813D01*
X0096628Y0208731D01*
X0096497Y0208651D01*
X0096364Y0208575D01*
X0096229Y0208502D01*
X0096092Y0208433D01*
X0095953Y0208368D01*
X0095813Y0208306D01*
X0095671Y0208248D01*
X0095528Y0208193D01*
X0095383Y0208142D01*
X0095237Y0208095D01*
X0095090Y0208052D01*
X0094942Y0208013D01*
X0094793Y0207977D01*
X0094643Y0207946D01*
X0094492Y0207918D01*
X0094341Y0207894D01*
X0094188Y0207874D01*
X0094036Y0207858D01*
X0093883Y0207846D01*
X0093730Y0207838D01*
X0093577Y0207834D01*
X0093423Y0207834D01*
X0093270Y0207838D01*
X0093117Y0207846D01*
X0092964Y0207858D01*
X0092812Y0207874D01*
X0092659Y0207894D01*
X0092508Y0207918D01*
X0092357Y0207946D01*
X0092207Y0207977D01*
X0092058Y0208013D01*
X0091910Y0208052D01*
X0091763Y0208095D01*
X0091617Y0208142D01*
X0091472Y0208193D01*
X0091329Y0208248D01*
X0091187Y0208306D01*
X0091047Y0208368D01*
X0090908Y0208433D01*
X0090771Y0208502D01*
X0090636Y0208575D01*
X0090503Y0208651D01*
X0090372Y0208731D01*
X0090243Y0208813D01*
X0090116Y0208900D01*
X0089991Y0208989D01*
X0089869Y0209082D01*
X0089750Y0209178D01*
X0089632Y0209277D01*
X0089518Y0209378D01*
X0089406Y0209483D01*
X0089297Y0209591D01*
X0089191Y0209702D01*
X0089087Y0209815D01*
X0088987Y0209931D01*
X0088889Y0210049D01*
X0088795Y0210170D01*
X0088704Y0210293D01*
X0088616Y0210419D01*
X0088532Y0210547D01*
X0088450Y0210677D01*
X0088373Y0210809D01*
X0088298Y0210943D01*
X0088227Y0211079D01*
X0088160Y0211217D01*
X0088096Y0211357D01*
X0088036Y0211498D01*
X0087980Y0211640D01*
X0087927Y0211784D01*
X0087878Y0211930D01*
X0087833Y0212076D01*
X0087792Y0212224D01*
X0087755Y0212372D01*
X0087721Y0212522D01*
X0087691Y0212673D01*
X0087666Y0212824D01*
X0087644Y0212975D01*
X0087626Y0213128D01*
X0087612Y0213280D01*
X0087602Y0213433D01*
X0087596Y0213587D01*
X0087594Y0213740D01*
X0120594Y0213740D02*
X0120596Y0213893D01*
X0120602Y0214047D01*
X0120612Y0214200D01*
X0120626Y0214352D01*
X0120644Y0214505D01*
X0120666Y0214656D01*
X0120691Y0214807D01*
X0120721Y0214958D01*
X0120755Y0215108D01*
X0120792Y0215256D01*
X0120833Y0215404D01*
X0120878Y0215550D01*
X0120927Y0215696D01*
X0120980Y0215840D01*
X0121036Y0215982D01*
X0121096Y0216123D01*
X0121160Y0216263D01*
X0121227Y0216401D01*
X0121298Y0216537D01*
X0121373Y0216671D01*
X0121450Y0216803D01*
X0121532Y0216933D01*
X0121616Y0217061D01*
X0121704Y0217187D01*
X0121795Y0217310D01*
X0121889Y0217431D01*
X0121987Y0217549D01*
X0122087Y0217665D01*
X0122191Y0217778D01*
X0122297Y0217889D01*
X0122406Y0217997D01*
X0122518Y0218102D01*
X0122632Y0218203D01*
X0122750Y0218302D01*
X0122869Y0218398D01*
X0122991Y0218491D01*
X0123116Y0218580D01*
X0123243Y0218667D01*
X0123372Y0218749D01*
X0123503Y0218829D01*
X0123636Y0218905D01*
X0123771Y0218978D01*
X0123908Y0219047D01*
X0124047Y0219112D01*
X0124187Y0219174D01*
X0124329Y0219232D01*
X0124472Y0219287D01*
X0124617Y0219338D01*
X0124763Y0219385D01*
X0124910Y0219428D01*
X0125058Y0219467D01*
X0125207Y0219503D01*
X0125357Y0219534D01*
X0125508Y0219562D01*
X0125659Y0219586D01*
X0125812Y0219606D01*
X0125964Y0219622D01*
X0126117Y0219634D01*
X0126270Y0219642D01*
X0126423Y0219646D01*
X0126577Y0219646D01*
X0126730Y0219642D01*
X0126883Y0219634D01*
X0127036Y0219622D01*
X0127188Y0219606D01*
X0127341Y0219586D01*
X0127492Y0219562D01*
X0127643Y0219534D01*
X0127793Y0219503D01*
X0127942Y0219467D01*
X0128090Y0219428D01*
X0128237Y0219385D01*
X0128383Y0219338D01*
X0128528Y0219287D01*
X0128671Y0219232D01*
X0128813Y0219174D01*
X0128953Y0219112D01*
X0129092Y0219047D01*
X0129229Y0218978D01*
X0129364Y0218905D01*
X0129497Y0218829D01*
X0129628Y0218749D01*
X0129757Y0218667D01*
X0129884Y0218580D01*
X0130009Y0218491D01*
X0130131Y0218398D01*
X0130250Y0218302D01*
X0130368Y0218203D01*
X0130482Y0218102D01*
X0130594Y0217997D01*
X0130703Y0217889D01*
X0130809Y0217778D01*
X0130913Y0217665D01*
X0131013Y0217549D01*
X0131111Y0217431D01*
X0131205Y0217310D01*
X0131296Y0217187D01*
X0131384Y0217061D01*
X0131468Y0216933D01*
X0131550Y0216803D01*
X0131627Y0216671D01*
X0131702Y0216537D01*
X0131773Y0216401D01*
X0131840Y0216263D01*
X0131904Y0216123D01*
X0131964Y0215982D01*
X0132020Y0215840D01*
X0132073Y0215696D01*
X0132122Y0215550D01*
X0132167Y0215404D01*
X0132208Y0215256D01*
X0132245Y0215108D01*
X0132279Y0214958D01*
X0132309Y0214807D01*
X0132334Y0214656D01*
X0132356Y0214505D01*
X0132374Y0214352D01*
X0132388Y0214200D01*
X0132398Y0214047D01*
X0132404Y0213893D01*
X0132406Y0213740D01*
X0132404Y0213587D01*
X0132398Y0213433D01*
X0132388Y0213280D01*
X0132374Y0213128D01*
X0132356Y0212975D01*
X0132334Y0212824D01*
X0132309Y0212673D01*
X0132279Y0212522D01*
X0132245Y0212372D01*
X0132208Y0212224D01*
X0132167Y0212076D01*
X0132122Y0211930D01*
X0132073Y0211784D01*
X0132020Y0211640D01*
X0131964Y0211498D01*
X0131904Y0211357D01*
X0131840Y0211217D01*
X0131773Y0211079D01*
X0131702Y0210943D01*
X0131627Y0210809D01*
X0131550Y0210677D01*
X0131468Y0210547D01*
X0131384Y0210419D01*
X0131296Y0210293D01*
X0131205Y0210170D01*
X0131111Y0210049D01*
X0131013Y0209931D01*
X0130913Y0209815D01*
X0130809Y0209702D01*
X0130703Y0209591D01*
X0130594Y0209483D01*
X0130482Y0209378D01*
X0130368Y0209277D01*
X0130250Y0209178D01*
X0130131Y0209082D01*
X0130009Y0208989D01*
X0129884Y0208900D01*
X0129757Y0208813D01*
X0129628Y0208731D01*
X0129497Y0208651D01*
X0129364Y0208575D01*
X0129229Y0208502D01*
X0129092Y0208433D01*
X0128953Y0208368D01*
X0128813Y0208306D01*
X0128671Y0208248D01*
X0128528Y0208193D01*
X0128383Y0208142D01*
X0128237Y0208095D01*
X0128090Y0208052D01*
X0127942Y0208013D01*
X0127793Y0207977D01*
X0127643Y0207946D01*
X0127492Y0207918D01*
X0127341Y0207894D01*
X0127188Y0207874D01*
X0127036Y0207858D01*
X0126883Y0207846D01*
X0126730Y0207838D01*
X0126577Y0207834D01*
X0126423Y0207834D01*
X0126270Y0207838D01*
X0126117Y0207846D01*
X0125964Y0207858D01*
X0125812Y0207874D01*
X0125659Y0207894D01*
X0125508Y0207918D01*
X0125357Y0207946D01*
X0125207Y0207977D01*
X0125058Y0208013D01*
X0124910Y0208052D01*
X0124763Y0208095D01*
X0124617Y0208142D01*
X0124472Y0208193D01*
X0124329Y0208248D01*
X0124187Y0208306D01*
X0124047Y0208368D01*
X0123908Y0208433D01*
X0123771Y0208502D01*
X0123636Y0208575D01*
X0123503Y0208651D01*
X0123372Y0208731D01*
X0123243Y0208813D01*
X0123116Y0208900D01*
X0122991Y0208989D01*
X0122869Y0209082D01*
X0122750Y0209178D01*
X0122632Y0209277D01*
X0122518Y0209378D01*
X0122406Y0209483D01*
X0122297Y0209591D01*
X0122191Y0209702D01*
X0122087Y0209815D01*
X0121987Y0209931D01*
X0121889Y0210049D01*
X0121795Y0210170D01*
X0121704Y0210293D01*
X0121616Y0210419D01*
X0121532Y0210547D01*
X0121450Y0210677D01*
X0121373Y0210809D01*
X0121298Y0210943D01*
X0121227Y0211079D01*
X0121160Y0211217D01*
X0121096Y0211357D01*
X0121036Y0211498D01*
X0120980Y0211640D01*
X0120927Y0211784D01*
X0120878Y0211930D01*
X0120833Y0212076D01*
X0120792Y0212224D01*
X0120755Y0212372D01*
X0120721Y0212522D01*
X0120691Y0212673D01*
X0120666Y0212824D01*
X0120644Y0212975D01*
X0120626Y0213128D01*
X0120612Y0213280D01*
X0120602Y0213433D01*
X0120596Y0213587D01*
X0120594Y0213740D01*
X0147594Y0213740D02*
X0147596Y0213893D01*
X0147602Y0214047D01*
X0147612Y0214200D01*
X0147626Y0214352D01*
X0147644Y0214505D01*
X0147666Y0214656D01*
X0147691Y0214807D01*
X0147721Y0214958D01*
X0147755Y0215108D01*
X0147792Y0215256D01*
X0147833Y0215404D01*
X0147878Y0215550D01*
X0147927Y0215696D01*
X0147980Y0215840D01*
X0148036Y0215982D01*
X0148096Y0216123D01*
X0148160Y0216263D01*
X0148227Y0216401D01*
X0148298Y0216537D01*
X0148373Y0216671D01*
X0148450Y0216803D01*
X0148532Y0216933D01*
X0148616Y0217061D01*
X0148704Y0217187D01*
X0148795Y0217310D01*
X0148889Y0217431D01*
X0148987Y0217549D01*
X0149087Y0217665D01*
X0149191Y0217778D01*
X0149297Y0217889D01*
X0149406Y0217997D01*
X0149518Y0218102D01*
X0149632Y0218203D01*
X0149750Y0218302D01*
X0149869Y0218398D01*
X0149991Y0218491D01*
X0150116Y0218580D01*
X0150243Y0218667D01*
X0150372Y0218749D01*
X0150503Y0218829D01*
X0150636Y0218905D01*
X0150771Y0218978D01*
X0150908Y0219047D01*
X0151047Y0219112D01*
X0151187Y0219174D01*
X0151329Y0219232D01*
X0151472Y0219287D01*
X0151617Y0219338D01*
X0151763Y0219385D01*
X0151910Y0219428D01*
X0152058Y0219467D01*
X0152207Y0219503D01*
X0152357Y0219534D01*
X0152508Y0219562D01*
X0152659Y0219586D01*
X0152812Y0219606D01*
X0152964Y0219622D01*
X0153117Y0219634D01*
X0153270Y0219642D01*
X0153423Y0219646D01*
X0153577Y0219646D01*
X0153730Y0219642D01*
X0153883Y0219634D01*
X0154036Y0219622D01*
X0154188Y0219606D01*
X0154341Y0219586D01*
X0154492Y0219562D01*
X0154643Y0219534D01*
X0154793Y0219503D01*
X0154942Y0219467D01*
X0155090Y0219428D01*
X0155237Y0219385D01*
X0155383Y0219338D01*
X0155528Y0219287D01*
X0155671Y0219232D01*
X0155813Y0219174D01*
X0155953Y0219112D01*
X0156092Y0219047D01*
X0156229Y0218978D01*
X0156364Y0218905D01*
X0156497Y0218829D01*
X0156628Y0218749D01*
X0156757Y0218667D01*
X0156884Y0218580D01*
X0157009Y0218491D01*
X0157131Y0218398D01*
X0157250Y0218302D01*
X0157368Y0218203D01*
X0157482Y0218102D01*
X0157594Y0217997D01*
X0157703Y0217889D01*
X0157809Y0217778D01*
X0157913Y0217665D01*
X0158013Y0217549D01*
X0158111Y0217431D01*
X0158205Y0217310D01*
X0158296Y0217187D01*
X0158384Y0217061D01*
X0158468Y0216933D01*
X0158550Y0216803D01*
X0158627Y0216671D01*
X0158702Y0216537D01*
X0158773Y0216401D01*
X0158840Y0216263D01*
X0158904Y0216123D01*
X0158964Y0215982D01*
X0159020Y0215840D01*
X0159073Y0215696D01*
X0159122Y0215550D01*
X0159167Y0215404D01*
X0159208Y0215256D01*
X0159245Y0215108D01*
X0159279Y0214958D01*
X0159309Y0214807D01*
X0159334Y0214656D01*
X0159356Y0214505D01*
X0159374Y0214352D01*
X0159388Y0214200D01*
X0159398Y0214047D01*
X0159404Y0213893D01*
X0159406Y0213740D01*
X0159404Y0213587D01*
X0159398Y0213433D01*
X0159388Y0213280D01*
X0159374Y0213128D01*
X0159356Y0212975D01*
X0159334Y0212824D01*
X0159309Y0212673D01*
X0159279Y0212522D01*
X0159245Y0212372D01*
X0159208Y0212224D01*
X0159167Y0212076D01*
X0159122Y0211930D01*
X0159073Y0211784D01*
X0159020Y0211640D01*
X0158964Y0211498D01*
X0158904Y0211357D01*
X0158840Y0211217D01*
X0158773Y0211079D01*
X0158702Y0210943D01*
X0158627Y0210809D01*
X0158550Y0210677D01*
X0158468Y0210547D01*
X0158384Y0210419D01*
X0158296Y0210293D01*
X0158205Y0210170D01*
X0158111Y0210049D01*
X0158013Y0209931D01*
X0157913Y0209815D01*
X0157809Y0209702D01*
X0157703Y0209591D01*
X0157594Y0209483D01*
X0157482Y0209378D01*
X0157368Y0209277D01*
X0157250Y0209178D01*
X0157131Y0209082D01*
X0157009Y0208989D01*
X0156884Y0208900D01*
X0156757Y0208813D01*
X0156628Y0208731D01*
X0156497Y0208651D01*
X0156364Y0208575D01*
X0156229Y0208502D01*
X0156092Y0208433D01*
X0155953Y0208368D01*
X0155813Y0208306D01*
X0155671Y0208248D01*
X0155528Y0208193D01*
X0155383Y0208142D01*
X0155237Y0208095D01*
X0155090Y0208052D01*
X0154942Y0208013D01*
X0154793Y0207977D01*
X0154643Y0207946D01*
X0154492Y0207918D01*
X0154341Y0207894D01*
X0154188Y0207874D01*
X0154036Y0207858D01*
X0153883Y0207846D01*
X0153730Y0207838D01*
X0153577Y0207834D01*
X0153423Y0207834D01*
X0153270Y0207838D01*
X0153117Y0207846D01*
X0152964Y0207858D01*
X0152812Y0207874D01*
X0152659Y0207894D01*
X0152508Y0207918D01*
X0152357Y0207946D01*
X0152207Y0207977D01*
X0152058Y0208013D01*
X0151910Y0208052D01*
X0151763Y0208095D01*
X0151617Y0208142D01*
X0151472Y0208193D01*
X0151329Y0208248D01*
X0151187Y0208306D01*
X0151047Y0208368D01*
X0150908Y0208433D01*
X0150771Y0208502D01*
X0150636Y0208575D01*
X0150503Y0208651D01*
X0150372Y0208731D01*
X0150243Y0208813D01*
X0150116Y0208900D01*
X0149991Y0208989D01*
X0149869Y0209082D01*
X0149750Y0209178D01*
X0149632Y0209277D01*
X0149518Y0209378D01*
X0149406Y0209483D01*
X0149297Y0209591D01*
X0149191Y0209702D01*
X0149087Y0209815D01*
X0148987Y0209931D01*
X0148889Y0210049D01*
X0148795Y0210170D01*
X0148704Y0210293D01*
X0148616Y0210419D01*
X0148532Y0210547D01*
X0148450Y0210677D01*
X0148373Y0210809D01*
X0148298Y0210943D01*
X0148227Y0211079D01*
X0148160Y0211217D01*
X0148096Y0211357D01*
X0148036Y0211498D01*
X0147980Y0211640D01*
X0147927Y0211784D01*
X0147878Y0211930D01*
X0147833Y0212076D01*
X0147792Y0212224D01*
X0147755Y0212372D01*
X0147721Y0212522D01*
X0147691Y0212673D01*
X0147666Y0212824D01*
X0147644Y0212975D01*
X0147626Y0213128D01*
X0147612Y0213280D01*
X0147602Y0213433D01*
X0147596Y0213587D01*
X0147594Y0213740D01*
X0180594Y0213740D02*
X0180596Y0213893D01*
X0180602Y0214047D01*
X0180612Y0214200D01*
X0180626Y0214352D01*
X0180644Y0214505D01*
X0180666Y0214656D01*
X0180691Y0214807D01*
X0180721Y0214958D01*
X0180755Y0215108D01*
X0180792Y0215256D01*
X0180833Y0215404D01*
X0180878Y0215550D01*
X0180927Y0215696D01*
X0180980Y0215840D01*
X0181036Y0215982D01*
X0181096Y0216123D01*
X0181160Y0216263D01*
X0181227Y0216401D01*
X0181298Y0216537D01*
X0181373Y0216671D01*
X0181450Y0216803D01*
X0181532Y0216933D01*
X0181616Y0217061D01*
X0181704Y0217187D01*
X0181795Y0217310D01*
X0181889Y0217431D01*
X0181987Y0217549D01*
X0182087Y0217665D01*
X0182191Y0217778D01*
X0182297Y0217889D01*
X0182406Y0217997D01*
X0182518Y0218102D01*
X0182632Y0218203D01*
X0182750Y0218302D01*
X0182869Y0218398D01*
X0182991Y0218491D01*
X0183116Y0218580D01*
X0183243Y0218667D01*
X0183372Y0218749D01*
X0183503Y0218829D01*
X0183636Y0218905D01*
X0183771Y0218978D01*
X0183908Y0219047D01*
X0184047Y0219112D01*
X0184187Y0219174D01*
X0184329Y0219232D01*
X0184472Y0219287D01*
X0184617Y0219338D01*
X0184763Y0219385D01*
X0184910Y0219428D01*
X0185058Y0219467D01*
X0185207Y0219503D01*
X0185357Y0219534D01*
X0185508Y0219562D01*
X0185659Y0219586D01*
X0185812Y0219606D01*
X0185964Y0219622D01*
X0186117Y0219634D01*
X0186270Y0219642D01*
X0186423Y0219646D01*
X0186577Y0219646D01*
X0186730Y0219642D01*
X0186883Y0219634D01*
X0187036Y0219622D01*
X0187188Y0219606D01*
X0187341Y0219586D01*
X0187492Y0219562D01*
X0187643Y0219534D01*
X0187793Y0219503D01*
X0187942Y0219467D01*
X0188090Y0219428D01*
X0188237Y0219385D01*
X0188383Y0219338D01*
X0188528Y0219287D01*
X0188671Y0219232D01*
X0188813Y0219174D01*
X0188953Y0219112D01*
X0189092Y0219047D01*
X0189229Y0218978D01*
X0189364Y0218905D01*
X0189497Y0218829D01*
X0189628Y0218749D01*
X0189757Y0218667D01*
X0189884Y0218580D01*
X0190009Y0218491D01*
X0190131Y0218398D01*
X0190250Y0218302D01*
X0190368Y0218203D01*
X0190482Y0218102D01*
X0190594Y0217997D01*
X0190703Y0217889D01*
X0190809Y0217778D01*
X0190913Y0217665D01*
X0191013Y0217549D01*
X0191111Y0217431D01*
X0191205Y0217310D01*
X0191296Y0217187D01*
X0191384Y0217061D01*
X0191468Y0216933D01*
X0191550Y0216803D01*
X0191627Y0216671D01*
X0191702Y0216537D01*
X0191773Y0216401D01*
X0191840Y0216263D01*
X0191904Y0216123D01*
X0191964Y0215982D01*
X0192020Y0215840D01*
X0192073Y0215696D01*
X0192122Y0215550D01*
X0192167Y0215404D01*
X0192208Y0215256D01*
X0192245Y0215108D01*
X0192279Y0214958D01*
X0192309Y0214807D01*
X0192334Y0214656D01*
X0192356Y0214505D01*
X0192374Y0214352D01*
X0192388Y0214200D01*
X0192398Y0214047D01*
X0192404Y0213893D01*
X0192406Y0213740D01*
X0192404Y0213587D01*
X0192398Y0213433D01*
X0192388Y0213280D01*
X0192374Y0213128D01*
X0192356Y0212975D01*
X0192334Y0212824D01*
X0192309Y0212673D01*
X0192279Y0212522D01*
X0192245Y0212372D01*
X0192208Y0212224D01*
X0192167Y0212076D01*
X0192122Y0211930D01*
X0192073Y0211784D01*
X0192020Y0211640D01*
X0191964Y0211498D01*
X0191904Y0211357D01*
X0191840Y0211217D01*
X0191773Y0211079D01*
X0191702Y0210943D01*
X0191627Y0210809D01*
X0191550Y0210677D01*
X0191468Y0210547D01*
X0191384Y0210419D01*
X0191296Y0210293D01*
X0191205Y0210170D01*
X0191111Y0210049D01*
X0191013Y0209931D01*
X0190913Y0209815D01*
X0190809Y0209702D01*
X0190703Y0209591D01*
X0190594Y0209483D01*
X0190482Y0209378D01*
X0190368Y0209277D01*
X0190250Y0209178D01*
X0190131Y0209082D01*
X0190009Y0208989D01*
X0189884Y0208900D01*
X0189757Y0208813D01*
X0189628Y0208731D01*
X0189497Y0208651D01*
X0189364Y0208575D01*
X0189229Y0208502D01*
X0189092Y0208433D01*
X0188953Y0208368D01*
X0188813Y0208306D01*
X0188671Y0208248D01*
X0188528Y0208193D01*
X0188383Y0208142D01*
X0188237Y0208095D01*
X0188090Y0208052D01*
X0187942Y0208013D01*
X0187793Y0207977D01*
X0187643Y0207946D01*
X0187492Y0207918D01*
X0187341Y0207894D01*
X0187188Y0207874D01*
X0187036Y0207858D01*
X0186883Y0207846D01*
X0186730Y0207838D01*
X0186577Y0207834D01*
X0186423Y0207834D01*
X0186270Y0207838D01*
X0186117Y0207846D01*
X0185964Y0207858D01*
X0185812Y0207874D01*
X0185659Y0207894D01*
X0185508Y0207918D01*
X0185357Y0207946D01*
X0185207Y0207977D01*
X0185058Y0208013D01*
X0184910Y0208052D01*
X0184763Y0208095D01*
X0184617Y0208142D01*
X0184472Y0208193D01*
X0184329Y0208248D01*
X0184187Y0208306D01*
X0184047Y0208368D01*
X0183908Y0208433D01*
X0183771Y0208502D01*
X0183636Y0208575D01*
X0183503Y0208651D01*
X0183372Y0208731D01*
X0183243Y0208813D01*
X0183116Y0208900D01*
X0182991Y0208989D01*
X0182869Y0209082D01*
X0182750Y0209178D01*
X0182632Y0209277D01*
X0182518Y0209378D01*
X0182406Y0209483D01*
X0182297Y0209591D01*
X0182191Y0209702D01*
X0182087Y0209815D01*
X0181987Y0209931D01*
X0181889Y0210049D01*
X0181795Y0210170D01*
X0181704Y0210293D01*
X0181616Y0210419D01*
X0181532Y0210547D01*
X0181450Y0210677D01*
X0181373Y0210809D01*
X0181298Y0210943D01*
X0181227Y0211079D01*
X0181160Y0211217D01*
X0181096Y0211357D01*
X0181036Y0211498D01*
X0180980Y0211640D01*
X0180927Y0211784D01*
X0180878Y0211930D01*
X0180833Y0212076D01*
X0180792Y0212224D01*
X0180755Y0212372D01*
X0180721Y0212522D01*
X0180691Y0212673D01*
X0180666Y0212824D01*
X0180644Y0212975D01*
X0180626Y0213128D01*
X0180612Y0213280D01*
X0180602Y0213433D01*
X0180596Y0213587D01*
X0180594Y0213740D01*
D11*
X0217500Y0230000D02*
X0217500Y0005000D01*
D12*
X0216875Y0005000D02*
X0015000Y0005000D01*
X0005000Y0015000D01*
X0005000Y0225000D01*
X0010000Y0230000D01*
X0054375Y0230000D01*
X0064375Y0240000D01*
X0198125Y0240000D01*
X0208125Y0230000D01*
X0217500Y0230000D01*
D13*
X0205000Y0220000D03*
X0205000Y0210000D03*
X0205000Y0200000D03*
X0205000Y0190000D03*
X0205000Y0180000D03*
X0205000Y0170000D03*
X0205000Y0150000D03*
X0205000Y0140000D03*
X0205000Y0130000D03*
X0205000Y0120000D03*
X0205000Y0110000D03*
X0205000Y0100000D03*
X0205000Y0090000D03*
X0205000Y0080000D03*
X0184500Y0110000D03*
X0185500Y0120000D03*
X0184500Y0130000D03*
X0122500Y0018750D03*
X0112500Y0018750D03*
X0088125Y0018750D03*
X0078125Y0018750D03*
X0015000Y0020000D03*
X0015000Y0030000D03*
X0015000Y0045000D03*
X0015000Y0055000D03*
X0015000Y0065000D03*
X0015000Y0075000D03*
X0015000Y0085000D03*
X0015000Y0095000D03*
X0015000Y0105000D03*
X0015000Y0115000D03*
X0015000Y0125000D03*
X0015000Y0135000D03*
X0015000Y0150000D03*
X0015000Y0160000D03*
X0015000Y0170000D03*
X0015000Y0180000D03*
X0015000Y0190000D03*
X0015000Y0200000D03*
X0015000Y0210000D03*
X0015000Y0220000D03*
X0025000Y0220000D03*
X0025000Y0210000D03*
D14*
X0033750Y0021250D03*
X0033750Y0010625D03*
X0063750Y0010625D03*
X0063750Y0021250D03*
D15*
X0068650Y0038750D02*
X0073850Y0038750D01*
X0073850Y0048750D02*
X0068650Y0048750D01*
X0068650Y0058750D02*
X0073850Y0058750D01*
X0073850Y0068750D02*
X0068650Y0068750D01*
X0068650Y0078750D02*
X0073850Y0078750D01*
X0073850Y0088750D02*
X0068650Y0088750D01*
X0068650Y0098750D02*
X0073850Y0098750D01*
X0073850Y0108750D02*
X0068650Y0108750D01*
X0068650Y0118750D02*
X0073850Y0118750D01*
X0073850Y0140000D02*
X0068650Y0140000D01*
X0068650Y0150000D02*
X0073850Y0150000D01*
X0073850Y0160000D02*
X0068650Y0160000D01*
X0068650Y0170000D02*
X0073850Y0170000D01*
X0073850Y0180000D02*
X0068650Y0180000D01*
X0068650Y0190000D02*
X0073850Y0190000D01*
X0073850Y0200000D02*
X0068650Y0200000D01*
X0068650Y0210000D02*
X0073850Y0210000D01*
X0073850Y0220000D02*
X0068650Y0220000D01*
X0043850Y0220000D02*
X0038650Y0220000D01*
X0038650Y0210000D02*
X0043850Y0210000D01*
X0043850Y0200000D02*
X0038650Y0200000D01*
X0038650Y0190000D02*
X0043850Y0190000D01*
X0043850Y0180000D02*
X0038650Y0180000D01*
X0038650Y0170000D02*
X0043850Y0170000D01*
X0043850Y0160000D02*
X0038650Y0160000D01*
X0038650Y0150000D02*
X0043850Y0150000D01*
X0043850Y0140000D02*
X0038650Y0140000D01*
X0038650Y0118750D02*
X0043850Y0118750D01*
X0043850Y0108750D02*
X0038650Y0108750D01*
X0038650Y0098750D02*
X0043850Y0098750D01*
X0043850Y0088750D02*
X0038650Y0088750D01*
X0038650Y0078750D02*
X0043850Y0078750D01*
X0043850Y0068750D02*
X0038650Y0068750D01*
X0038650Y0058750D02*
X0043850Y0058750D01*
X0043850Y0048750D02*
X0038650Y0048750D01*
X0038650Y0038750D02*
X0043850Y0038750D01*
D16*
X0113179Y0062721D03*
X0129715Y0062721D03*
X0146250Y0062721D03*
X0141425Y0045000D03*
X0141425Y0016250D03*
X0146250Y0084375D03*
X0129715Y0084375D03*
X0130340Y0122096D03*
X0146875Y0122096D03*
X0146875Y0143750D03*
X0130340Y0143750D03*
X0126500Y0163300D03*
X0110000Y0163300D03*
X0093500Y0163300D03*
X0110000Y0185000D03*
X0126500Y0185000D03*
X0153500Y0163300D03*
X0170000Y0163300D03*
X0186500Y0163300D03*
X0186500Y0185000D03*
X0170000Y0185000D03*
X0113804Y0122096D03*
D17*
X0113804Y0143750D03*
X0093500Y0185000D03*
X0153500Y0185000D03*
X0113179Y0084375D03*
X0163125Y0045000D03*
X0163125Y0016250D03*
D18*
X0037230Y0060269D02*
X0036730Y0060782D01*
X0036243Y0061307D01*
X0035769Y0061843D01*
X0035307Y0062391D01*
X0034860Y0062950D01*
X0034426Y0063520D01*
X0034006Y0064100D01*
X0033601Y0064690D01*
X0033210Y0065290D01*
X0032834Y0065900D01*
X0032474Y0066518D01*
X0032128Y0067145D01*
X0031798Y0067781D01*
X0031483Y0068424D01*
X0031185Y0069075D01*
X0030902Y0069733D01*
X0030636Y0070397D01*
X0030385Y0071068D01*
X0030152Y0071745D01*
X0029935Y0072428D01*
X0029735Y0073115D01*
X0029552Y0073808D01*
X0029385Y0074504D01*
X0029236Y0075205D01*
X0029104Y0075908D01*
X0028990Y0076615D01*
X0028893Y0077325D01*
X0028813Y0078036D01*
X0028750Y0078750D01*
X0015377Y0095000D02*
X0015000Y0095000D01*
X0015000Y0095001D02*
X0015423Y0094891D01*
X0015844Y0094771D01*
X0016262Y0094641D01*
X0016676Y0094501D01*
X0017087Y0094351D01*
X0017495Y0094191D01*
X0017898Y0094022D01*
X0018297Y0093842D01*
X0018691Y0093654D01*
X0019081Y0093455D01*
X0019466Y0093248D01*
X0019846Y0093031D01*
X0020221Y0092805D01*
X0020590Y0092570D01*
X0020953Y0092326D01*
X0021311Y0092073D01*
X0021662Y0091812D01*
X0022006Y0091543D01*
X0022344Y0091265D01*
X0022676Y0090980D01*
X0023000Y0090686D01*
X0023317Y0090384D01*
X0023627Y0090076D01*
X0023929Y0089759D01*
X0024223Y0089436D01*
X0024510Y0089105D01*
X0024789Y0088768D01*
X0025059Y0088424D01*
X0025321Y0088073D01*
X0025574Y0087717D01*
X0025819Y0087354D01*
X0026055Y0086986D01*
X0026282Y0086612D01*
X0026500Y0086232D01*
X0026708Y0085848D01*
X0026908Y0085459D01*
X0027098Y0085064D01*
X0027278Y0084666D01*
X0027449Y0084263D01*
X0027609Y0083856D01*
X0027760Y0083446D01*
X0027902Y0083031D01*
X0028033Y0082614D01*
X0028154Y0082194D01*
X0028264Y0081770D01*
X0028365Y0081345D01*
X0028455Y0080917D01*
X0028535Y0080486D01*
X0028604Y0080054D01*
X0028663Y0079621D01*
X0028712Y0079186D01*
X0028750Y0078750D01*
X0037230Y0060270D02*
X0038125Y0059375D01*
X0040625Y0059375D01*
X0041250Y0058750D01*
X0041250Y0118750D02*
X0045731Y0118750D01*
X0050885Y0120885D02*
X0053451Y0123451D01*
X0050885Y0120885D02*
X0050761Y0120764D01*
X0050634Y0120645D01*
X0050504Y0120530D01*
X0050372Y0120418D01*
X0050237Y0120309D01*
X0050099Y0120204D01*
X0049959Y0120102D01*
X0049817Y0120003D01*
X0049672Y0119907D01*
X0049525Y0119815D01*
X0049376Y0119727D01*
X0049224Y0119642D01*
X0049071Y0119560D01*
X0048916Y0119483D01*
X0048759Y0119409D01*
X0048600Y0119339D01*
X0048440Y0119272D01*
X0048278Y0119210D01*
X0048115Y0119151D01*
X0047950Y0119096D01*
X0047785Y0119045D01*
X0047618Y0118998D01*
X0047449Y0118955D01*
X0047280Y0118917D01*
X0047110Y0118882D01*
X0046940Y0118851D01*
X0046768Y0118824D01*
X0046596Y0118802D01*
X0046424Y0118783D01*
X0046251Y0118769D01*
X0046078Y0118758D01*
X0045904Y0118752D01*
X0045731Y0118750D01*
X0053451Y0123450D02*
X0053834Y0123843D01*
X0054207Y0124245D01*
X0054571Y0124656D01*
X0054924Y0125076D01*
X0055267Y0125505D01*
X0055600Y0125942D01*
X0055921Y0126386D01*
X0056231Y0126839D01*
X0056531Y0127299D01*
X0056819Y0127766D01*
X0057095Y0128240D01*
X0057360Y0128721D01*
X0057612Y0129208D01*
X0057853Y0129701D01*
X0058082Y0130200D01*
X0058298Y0130705D01*
X0058502Y0131214D01*
X0058693Y0131729D01*
X0058871Y0132248D01*
X0059037Y0132771D01*
X0059190Y0133298D01*
X0059330Y0133829D01*
X0059457Y0134363D01*
X0059570Y0134900D01*
X0059671Y0135439D01*
X0059758Y0135981D01*
X0059832Y0136525D01*
X0059892Y0137070D01*
X0059939Y0137617D01*
X0059973Y0138165D01*
X0059993Y0138713D01*
X0060000Y0139262D01*
X0060000Y0220000D01*
X0060017Y0220181D01*
X0060039Y0220362D01*
X0060065Y0220542D01*
X0060095Y0220721D01*
X0060130Y0220899D01*
X0060169Y0221077D01*
X0060212Y0221254D01*
X0060260Y0221429D01*
X0060312Y0221604D01*
X0060368Y0221777D01*
X0060428Y0221948D01*
X0060492Y0222118D01*
X0060560Y0222287D01*
X0060633Y0222454D01*
X0060709Y0222619D01*
X0060789Y0222782D01*
X0060874Y0222943D01*
X0060962Y0223102D01*
X0061054Y0223259D01*
X0061150Y0223414D01*
X0061249Y0223566D01*
X0061352Y0223716D01*
X0061459Y0223863D01*
X0061569Y0224008D01*
X0061683Y0224150D01*
X0061800Y0224289D01*
X0061920Y0224425D01*
X0062044Y0224559D01*
X0062171Y0224689D01*
X0062301Y0224816D01*
X0062434Y0224940D01*
X0062570Y0225061D01*
X0062708Y0225179D01*
X0062850Y0225293D01*
X0062994Y0225403D01*
X0063141Y0225510D01*
X0063291Y0225614D01*
X0063443Y0225714D01*
X0063597Y0225810D01*
X0063754Y0225902D01*
X0063913Y0225991D01*
X0064074Y0226076D01*
X0064237Y0226157D01*
X0064401Y0226234D01*
X0064568Y0226306D01*
X0064736Y0226375D01*
X0064906Y0226440D01*
X0065078Y0226501D01*
X0065251Y0226557D01*
X0065425Y0226609D01*
X0065600Y0226657D01*
X0065777Y0226701D01*
X0065954Y0226741D01*
X0066133Y0226776D01*
X0066312Y0226807D01*
X0066492Y0226833D01*
X0066672Y0226855D01*
X0066853Y0226873D01*
X0067035Y0226887D01*
X0067216Y0226896D01*
X0067398Y0226900D01*
X0067580Y0226901D01*
X0067762Y0226896D01*
X0067944Y0226888D01*
X0068125Y0226875D01*
X0206823Y0226875D01*
X0206971Y0226856D01*
X0207119Y0226834D01*
X0207266Y0226808D01*
X0207413Y0226778D01*
X0207559Y0226745D01*
X0207703Y0226707D01*
X0207847Y0226666D01*
X0207990Y0226621D01*
X0208131Y0226572D01*
X0208271Y0226520D01*
X0208410Y0226463D01*
X0208547Y0226404D01*
X0208682Y0226340D01*
X0208816Y0226274D01*
X0208948Y0226203D01*
X0209078Y0226130D01*
X0209206Y0226053D01*
X0209332Y0225972D01*
X0209456Y0225889D01*
X0209578Y0225802D01*
X0209697Y0225712D01*
X0209814Y0225618D01*
X0209928Y0225522D01*
X0210040Y0225423D01*
X0210150Y0225321D01*
X0210256Y0225216D01*
X0210360Y0225109D01*
X0210461Y0224998D01*
X0210559Y0224886D01*
X0210654Y0224770D01*
X0210746Y0224652D01*
X0210835Y0224532D01*
X0210920Y0224409D01*
X0211003Y0224285D01*
X0211082Y0224158D01*
X0211158Y0224029D01*
X0211230Y0223898D01*
X0211299Y0223766D01*
X0211365Y0223631D01*
X0211427Y0223495D01*
X0211485Y0223357D01*
X0211540Y0223218D01*
X0211591Y0223078D01*
X0211638Y0222936D01*
X0211682Y0222793D01*
X0211722Y0222649D01*
X0211758Y0222504D01*
X0211790Y0222358D01*
X0211818Y0222211D01*
X0211843Y0222064D01*
X0211864Y0221915D01*
X0211881Y0221767D01*
X0211894Y0221618D01*
X0211903Y0221469D01*
X0211908Y0221319D01*
X0211909Y0221170D01*
X0211906Y0221020D01*
X0211900Y0220871D01*
X0211889Y0220722D01*
X0211875Y0220573D01*
X0211875Y0176875D01*
X0211873Y0176709D01*
X0211867Y0176543D01*
X0211857Y0176377D01*
X0211843Y0176211D01*
X0211825Y0176046D01*
X0211803Y0175882D01*
X0211777Y0175718D01*
X0211747Y0175554D01*
X0211713Y0175391D01*
X0211675Y0175230D01*
X0211634Y0175069D01*
X0211588Y0174909D01*
X0211539Y0174751D01*
X0211485Y0174593D01*
X0211428Y0174437D01*
X0211367Y0174282D01*
X0211303Y0174129D01*
X0211235Y0173978D01*
X0211163Y0173828D01*
X0211088Y0173680D01*
X0211009Y0173534D01*
X0210926Y0173390D01*
X0210840Y0173247D01*
X0210751Y0173107D01*
X0210658Y0172970D01*
X0210562Y0172834D01*
X0210463Y0172701D01*
X0210360Y0172570D01*
X0210255Y0172442D01*
X0210146Y0172316D01*
X0210034Y0172193D01*
X0209920Y0172073D01*
X0209802Y0171955D01*
X0209682Y0171841D01*
X0209559Y0171729D01*
X0209433Y0171620D01*
X0209305Y0171515D01*
X0209174Y0171412D01*
X0209041Y0171313D01*
X0208905Y0171217D01*
X0208768Y0171124D01*
X0208628Y0171035D01*
X0208485Y0170949D01*
X0208341Y0170866D01*
X0208195Y0170787D01*
X0208047Y0170712D01*
X0207897Y0170640D01*
X0207746Y0170572D01*
X0207593Y0170508D01*
X0207438Y0170447D01*
X0207282Y0170390D01*
X0207124Y0170336D01*
X0206966Y0170287D01*
X0206806Y0170241D01*
X0206645Y0170200D01*
X0206484Y0170162D01*
X0206321Y0170128D01*
X0206157Y0170098D01*
X0205993Y0170072D01*
X0205829Y0170050D01*
X0205664Y0170032D01*
X0205498Y0170018D01*
X0205332Y0170008D01*
X0205166Y0170002D01*
X0205000Y0170000D01*
X0205000Y0200000D02*
X0175000Y0200000D01*
X0041250Y0220000D02*
X0038750Y0220000D01*
X0034604Y0215854D01*
X0034484Y0215732D01*
X0034368Y0215607D01*
X0034254Y0215479D01*
X0034144Y0215348D01*
X0034037Y0215215D01*
X0033933Y0215080D01*
X0033832Y0214942D01*
X0033734Y0214801D01*
X0033640Y0214658D01*
X0033550Y0214514D01*
X0033462Y0214367D01*
X0033379Y0214217D01*
X0033298Y0214066D01*
X0033222Y0213914D01*
X0033149Y0213759D01*
X0033080Y0213603D01*
X0033015Y0213445D01*
X0032953Y0213285D01*
X0032895Y0213124D01*
X0032841Y0212962D01*
X0032791Y0212799D01*
X0032745Y0212634D01*
X0032702Y0212468D01*
X0032664Y0212302D01*
X0032630Y0212134D01*
X0032599Y0211966D01*
X0032573Y0211797D01*
X0032551Y0211628D01*
X0032533Y0211458D01*
X0032518Y0211287D01*
X0032508Y0211117D01*
X0032502Y0210946D01*
X0032500Y0210775D01*
X0030184Y0205184D02*
X0028275Y0203275D01*
X0030184Y0205185D02*
X0030316Y0205319D01*
X0030444Y0205457D01*
X0030569Y0205598D01*
X0030690Y0205741D01*
X0030809Y0205888D01*
X0030923Y0206037D01*
X0031034Y0206189D01*
X0031141Y0206344D01*
X0031245Y0206501D01*
X0031345Y0206660D01*
X0031441Y0206822D01*
X0031533Y0206986D01*
X0031621Y0207152D01*
X0031705Y0207321D01*
X0031786Y0207491D01*
X0031862Y0207663D01*
X0031934Y0207837D01*
X0032002Y0208012D01*
X0032065Y0208189D01*
X0032125Y0208368D01*
X0032180Y0208548D01*
X0032231Y0208729D01*
X0032277Y0208911D01*
X0032319Y0209094D01*
X0032357Y0209279D01*
X0032391Y0209464D01*
X0032420Y0209650D01*
X0032444Y0209836D01*
X0032464Y0210023D01*
X0032480Y0210211D01*
X0032491Y0210399D01*
X0032498Y0210587D01*
X0032500Y0210775D01*
X0028274Y0203275D02*
X0028084Y0203089D01*
X0027889Y0202907D01*
X0027690Y0202731D01*
X0027487Y0202559D01*
X0027280Y0202392D01*
X0027069Y0202230D01*
X0026854Y0202073D01*
X0026635Y0201921D01*
X0026413Y0201775D01*
X0026188Y0201634D01*
X0025959Y0201498D01*
X0025727Y0201368D01*
X0025492Y0201243D01*
X0025254Y0201124D01*
X0025013Y0201010D01*
X0024770Y0200903D01*
X0024524Y0200801D01*
X0024276Y0200705D01*
X0024026Y0200615D01*
X0023773Y0200531D01*
X0023519Y0200453D01*
X0023263Y0200381D01*
X0023005Y0200315D01*
X0022745Y0200255D01*
X0022485Y0200202D01*
X0022223Y0200155D01*
X0021960Y0200114D01*
X0021696Y0200079D01*
X0021432Y0200051D01*
X0021167Y0200028D01*
X0020901Y0200013D01*
X0020635Y0200003D01*
X0020369Y0200000D01*
X0015000Y0200000D01*
D19*
X0009166Y0202902D02*
X0008100Y0202902D01*
X0009490Y0203682D02*
X0008500Y0201293D01*
X0008500Y0198707D01*
X0009490Y0196318D01*
X0010808Y0195000D01*
X0009490Y0193682D01*
X0008500Y0191293D01*
X0008500Y0188707D01*
X0009490Y0186318D01*
X0010808Y0185000D01*
X0009490Y0183682D01*
X0008500Y0181293D01*
X0008500Y0178707D01*
X0009490Y0176318D01*
X0010808Y0175000D01*
X0009490Y0173682D01*
X0008500Y0171293D01*
X0008500Y0168707D01*
X0009490Y0166318D01*
X0010808Y0165000D01*
X0009490Y0163682D01*
X0008500Y0161293D01*
X0008500Y0158707D01*
X0009490Y0156318D01*
X0010808Y0155000D01*
X0009490Y0153682D01*
X0008500Y0151293D01*
X0008500Y0148707D01*
X0009490Y0146318D01*
X0011318Y0144490D01*
X0013707Y0143500D01*
X0016293Y0143500D01*
X0018682Y0144490D01*
X0020510Y0146318D01*
X0021500Y0148707D01*
X0021500Y0151293D01*
X0020510Y0153682D01*
X0019192Y0155000D01*
X0020510Y0156318D01*
X0021500Y0158707D01*
X0021500Y0161293D01*
X0020510Y0163682D01*
X0019192Y0165000D01*
X0020510Y0166318D01*
X0021500Y0168707D01*
X0021500Y0171293D01*
X0020510Y0173682D01*
X0019192Y0175000D01*
X0020510Y0176318D01*
X0021500Y0178707D01*
X0021500Y0181293D01*
X0020510Y0183682D01*
X0019192Y0185000D01*
X0020510Y0186318D01*
X0021500Y0188707D01*
X0021500Y0191293D01*
X0020510Y0193682D01*
X0019192Y0195000D01*
X0020192Y0196000D01*
X0022367Y0196000D01*
X0026228Y0197035D01*
X0026228Y0197035D01*
X0029690Y0199033D01*
X0030540Y0199884D01*
X0030540Y0199884D01*
X0032450Y0201793D01*
X0032611Y0201954D01*
X0033576Y0202919D01*
X0034121Y0203464D01*
X0034121Y0203464D01*
X0035376Y0205637D01*
X0035591Y0205422D01*
X0036610Y0205000D01*
X0035591Y0204578D01*
X0034072Y0203059D01*
X0033250Y0201074D01*
X0033250Y0198926D01*
X0034072Y0196941D01*
X0035591Y0195422D01*
X0036610Y0195000D01*
X0035591Y0194578D01*
X0034072Y0193059D01*
X0033250Y0191074D01*
X0033250Y0188926D01*
X0034072Y0186941D01*
X0035591Y0185422D01*
X0036610Y0185000D01*
X0035591Y0184578D01*
X0034072Y0183059D01*
X0033250Y0181074D01*
X0033250Y0178926D01*
X0034072Y0176941D01*
X0035591Y0175422D01*
X0036610Y0175000D01*
X0035591Y0174578D01*
X0034072Y0173059D01*
X0033250Y0171074D01*
X0033250Y0168926D01*
X0034072Y0166941D01*
X0035591Y0165422D01*
X0036610Y0165000D01*
X0035591Y0164578D01*
X0034072Y0163059D01*
X0033250Y0161074D01*
X0033250Y0158926D01*
X0034072Y0156941D01*
X0035591Y0155422D01*
X0036610Y0155000D01*
X0035591Y0154578D01*
X0034072Y0153059D01*
X0033250Y0151074D01*
X0033250Y0148926D01*
X0034072Y0146941D01*
X0035591Y0145422D01*
X0037017Y0144832D01*
X0036692Y0144726D01*
X0035977Y0144362D01*
X0035328Y0143890D01*
X0034760Y0143322D01*
X0034288Y0142673D01*
X0033924Y0141958D01*
X0033676Y0141194D01*
X0033550Y0140401D01*
X0033550Y0140000D01*
X0041250Y0140000D01*
X0041250Y0140000D01*
X0033550Y0140000D01*
X0033550Y0139599D01*
X0033676Y0138806D01*
X0033924Y0138042D01*
X0034288Y0137327D01*
X0034760Y0136678D01*
X0035328Y0136110D01*
X0035977Y0135638D01*
X0036692Y0135274D01*
X0037456Y0135026D01*
X0038249Y0134900D01*
X0040845Y0134900D01*
X0034651Y0130322D01*
X0034223Y0130006D01*
X0033339Y0129352D01*
X0032112Y0128446D01*
X0032112Y0128446D01*
X0032112Y0128446D01*
X0029345Y0124816D01*
X0029345Y0124816D01*
X0027701Y0120558D01*
X0027701Y0120558D01*
X0027311Y0116010D01*
X0027311Y0116010D01*
X0027759Y0113772D01*
X0027930Y0112914D01*
X0028129Y0111921D01*
X0030178Y0108751D01*
X0031002Y0108163D01*
X0032310Y0107228D01*
X0032426Y0107146D01*
X0033764Y0106190D01*
X0033880Y0106035D01*
X0033946Y0105996D01*
X0034072Y0105691D01*
X0035591Y0104172D01*
X0036610Y0103750D01*
X0035591Y0103328D01*
X0034072Y0101809D01*
X0033250Y0099824D01*
X0033250Y0097676D01*
X0034072Y0095691D01*
X0035591Y0094172D01*
X0036610Y0093750D01*
X0035591Y0093328D01*
X0034072Y0091809D01*
X0033250Y0089824D01*
X0033250Y0087676D01*
X0034072Y0085691D01*
X0035591Y0084172D01*
X0036610Y0083750D01*
X0035591Y0083328D01*
X0034072Y0081809D01*
X0033250Y0079824D01*
X0033250Y0077676D01*
X0034072Y0075691D01*
X0035591Y0074172D01*
X0036610Y0073750D01*
X0035591Y0073328D01*
X0034323Y0072060D01*
X0034124Y0072492D01*
X0033006Y0076826D01*
X0032739Y0079050D01*
X0032679Y0079843D01*
X0032679Y0079843D01*
X0032529Y0081833D01*
X0032529Y0081833D01*
X0030742Y0087122D01*
X0030742Y0087122D01*
X0027697Y0091802D01*
X0023586Y0095579D01*
X0021285Y0096813D01*
X0020510Y0098682D01*
X0019192Y0100000D01*
X0020510Y0101318D01*
X0021500Y0103707D01*
X0021500Y0106293D01*
X0020510Y0108682D01*
X0019192Y0110000D01*
X0020510Y0111318D01*
X0021500Y0113707D01*
X0021500Y0116293D01*
X0020510Y0118682D01*
X0019192Y0120000D01*
X0020510Y0121318D01*
X0021500Y0123707D01*
X0021500Y0126293D01*
X0020510Y0128682D01*
X0019192Y0130000D01*
X0020510Y0131318D01*
X0021500Y0133707D01*
X0021500Y0136293D01*
X0020510Y0138682D01*
X0018682Y0140510D01*
X0016293Y0141500D01*
X0013707Y0141500D01*
X0011318Y0140510D01*
X0009490Y0138682D01*
X0008500Y0136293D01*
X0008500Y0133707D01*
X0009490Y0131318D01*
X0010808Y0130000D01*
X0009490Y0128682D01*
X0008500Y0126293D01*
X0008500Y0123707D01*
X0009490Y0121318D01*
X0010808Y0120000D01*
X0009490Y0118682D01*
X0008500Y0116293D01*
X0008500Y0113707D01*
X0009490Y0111318D01*
X0010808Y0110000D01*
X0009490Y0108682D01*
X0008500Y0106293D01*
X0008500Y0103707D01*
X0009490Y0101318D01*
X0010808Y0100000D01*
X0009490Y0098682D01*
X0008500Y0096293D01*
X0008500Y0093707D01*
X0009490Y0091318D01*
X0010808Y0090000D01*
X0009490Y0088682D01*
X0008500Y0086293D01*
X0008500Y0083707D01*
X0009490Y0081318D01*
X0011029Y0079779D01*
X0010961Y0079729D01*
X0010271Y0079039D01*
X0009697Y0078250D01*
X0009254Y0077380D01*
X0008953Y0076452D01*
X0008800Y0075488D01*
X0008800Y0075000D01*
X0015000Y0075000D01*
X0021200Y0075000D01*
X0021200Y0075488D01*
X0021047Y0076452D01*
X0020746Y0077380D01*
X0020303Y0078250D01*
X0019729Y0079039D01*
X0019039Y0079729D01*
X0018971Y0079779D01*
X0020510Y0081318D01*
X0021500Y0083707D01*
X0021500Y0086293D01*
X0021374Y0086597D01*
X0021457Y0086521D01*
X0023385Y0083556D01*
X0024518Y0080205D01*
X0024761Y0078450D01*
X0024786Y0078121D01*
X0024821Y0077657D01*
X0024983Y0075500D01*
X0024983Y0075500D01*
X0026462Y0069770D01*
X0026462Y0069770D01*
X0028930Y0064391D01*
X0028930Y0064391D01*
X0032310Y0059534D01*
X0033250Y0058593D01*
X0033250Y0057676D01*
X0034072Y0055691D01*
X0035591Y0054172D01*
X0036610Y0053750D01*
X0035591Y0053328D01*
X0034072Y0051809D01*
X0033250Y0049824D01*
X0033250Y0047676D01*
X0034072Y0045691D01*
X0035591Y0044172D01*
X0037017Y0043582D01*
X0036692Y0043476D01*
X0035977Y0043112D01*
X0035328Y0042640D01*
X0034760Y0042072D01*
X0034288Y0041423D01*
X0033924Y0040708D01*
X0033676Y0039944D01*
X0033550Y0039151D01*
X0033550Y0038750D01*
X0041250Y0038750D01*
X0048950Y0038750D01*
X0048950Y0039151D01*
X0048824Y0039944D01*
X0048576Y0040708D01*
X0048212Y0041423D01*
X0047740Y0042072D01*
X0047172Y0042640D01*
X0046523Y0043112D01*
X0045808Y0043476D01*
X0045483Y0043582D01*
X0046909Y0044172D01*
X0048428Y0045691D01*
X0049250Y0047676D01*
X0049250Y0049824D01*
X0048428Y0051809D01*
X0046909Y0053328D01*
X0045890Y0053750D01*
X0046909Y0054172D01*
X0048428Y0055691D01*
X0049250Y0057676D01*
X0049250Y0059824D01*
X0048428Y0061809D01*
X0046909Y0063328D01*
X0045890Y0063750D01*
X0046909Y0064172D01*
X0048428Y0065691D01*
X0049250Y0067676D01*
X0049250Y0069824D01*
X0048428Y0071809D01*
X0046909Y0073328D01*
X0045890Y0073750D01*
X0046909Y0074172D01*
X0048428Y0075691D01*
X0049250Y0077676D01*
X0049250Y0079824D01*
X0048428Y0081809D01*
X0046909Y0083328D01*
X0045890Y0083750D01*
X0046909Y0084172D01*
X0048428Y0085691D01*
X0049250Y0087676D01*
X0049250Y0089824D01*
X0048428Y0091809D01*
X0046909Y0093328D01*
X0045890Y0093750D01*
X0046909Y0094172D01*
X0048428Y0095691D01*
X0049250Y0097676D01*
X0049250Y0099824D01*
X0048428Y0101809D01*
X0046909Y0103328D01*
X0045890Y0103750D01*
X0046909Y0104172D01*
X0048428Y0105691D01*
X0049250Y0107676D01*
X0049250Y0109824D01*
X0048428Y0111809D01*
X0046909Y0113328D01*
X0045890Y0113750D01*
X0046909Y0114172D01*
X0047585Y0114849D01*
X0050088Y0115519D01*
X0050088Y0115519D01*
X0052662Y0117005D01*
X0053151Y0117494D01*
X0055717Y0120060D01*
X0056199Y0120542D01*
X0056279Y0120622D01*
X0057205Y0121548D01*
X0057027Y0121150D01*
X0057025Y0121085D01*
X0057000Y0121025D01*
X0057000Y0120212D01*
X0054477Y0031525D01*
X0055100Y0029890D01*
X0056303Y0028617D01*
X0057900Y0027902D01*
X0058120Y0027895D01*
X0057843Y0024759D01*
X0056950Y0022603D01*
X0056950Y0019897D01*
X0057985Y0017398D01*
X0059446Y0015937D01*
X0057985Y0014477D01*
X0056950Y0011978D01*
X0056950Y0009272D01*
X0057436Y0008100D01*
X0040064Y0008100D01*
X0040550Y0009272D01*
X0040550Y0011978D01*
X0039515Y0014477D01*
X0038054Y0015937D01*
X0039515Y0017398D01*
X0040550Y0019897D01*
X0040550Y0022603D01*
X0039515Y0025102D01*
X0037602Y0027015D01*
X0035103Y0028050D01*
X0032397Y0028050D01*
X0030907Y0027432D01*
X0021228Y0031949D01*
X0020510Y0033682D01*
X0018682Y0035510D01*
X0016293Y0036500D01*
X0013707Y0036500D01*
X0011318Y0035510D01*
X0009490Y0033682D01*
X0008500Y0031293D01*
X0008500Y0028707D01*
X0009490Y0026318D01*
X0010808Y0025000D01*
X0009490Y0023682D01*
X0008500Y0021293D01*
X0008500Y0018707D01*
X0009490Y0016318D01*
X0011318Y0014490D01*
X0013707Y0013500D01*
X0016293Y0013500D01*
X0018682Y0014490D01*
X0020510Y0016318D01*
X0021500Y0018707D01*
X0021500Y0021293D01*
X0021080Y0022307D01*
X0027119Y0019489D01*
X0027985Y0017398D01*
X0029446Y0015937D01*
X0027985Y0014477D01*
X0026950Y0011978D01*
X0026950Y0009272D01*
X0027436Y0008100D01*
X0016284Y0008100D01*
X0008100Y0016284D01*
X0008100Y0223716D01*
X0011284Y0226900D01*
X0051861Y0226900D01*
X0051581Y0226416D01*
X0050600Y0222754D01*
X0050600Y0151348D01*
X0050518Y0149685D01*
X0049870Y0146424D01*
X0048597Y0143353D01*
X0048176Y0142722D01*
X0047740Y0143322D01*
X0047172Y0143890D01*
X0046523Y0144362D01*
X0045808Y0144726D01*
X0045483Y0144832D01*
X0046909Y0145422D01*
X0048428Y0146941D01*
X0049250Y0148926D01*
X0049250Y0151074D01*
X0048428Y0153059D01*
X0046909Y0154578D01*
X0045890Y0155000D01*
X0046909Y0155422D01*
X0048428Y0156941D01*
X0049250Y0158926D01*
X0049250Y0161074D01*
X0048428Y0163059D01*
X0046909Y0164578D01*
X0045890Y0165000D01*
X0046909Y0165422D01*
X0048428Y0166941D01*
X0049250Y0168926D01*
X0049250Y0171074D01*
X0048428Y0173059D01*
X0046909Y0174578D01*
X0045890Y0175000D01*
X0046909Y0175422D01*
X0048428Y0176941D01*
X0049250Y0178926D01*
X0049250Y0181074D01*
X0048428Y0183059D01*
X0046909Y0184578D01*
X0045890Y0185000D01*
X0046909Y0185422D01*
X0048428Y0186941D01*
X0049250Y0188926D01*
X0049250Y0191074D01*
X0048428Y0193059D01*
X0046909Y0194578D01*
X0045890Y0195000D01*
X0046909Y0195422D01*
X0048428Y0196941D01*
X0049250Y0198926D01*
X0049250Y0201074D01*
X0048428Y0203059D01*
X0046909Y0204578D01*
X0045890Y0205000D01*
X0046909Y0205422D01*
X0048428Y0206941D01*
X0049250Y0208926D01*
X0049250Y0211074D01*
X0048428Y0213059D01*
X0046909Y0214578D01*
X0045890Y0215000D01*
X0046909Y0215422D01*
X0048428Y0216941D01*
X0049250Y0218926D01*
X0049250Y0221074D01*
X0048428Y0223059D01*
X0046909Y0224578D01*
X0044924Y0225400D01*
X0037576Y0225400D01*
X0035591Y0224578D01*
X0034072Y0223059D01*
X0033250Y0221074D01*
X0033250Y0220157D01*
X0031288Y0218195D01*
X0031500Y0218707D01*
X0031500Y0221293D01*
X0030510Y0223682D01*
X0028682Y0225510D01*
X0026293Y0226500D01*
X0023707Y0226500D01*
X0021318Y0225510D01*
X0020000Y0224192D01*
X0018682Y0225510D01*
X0016293Y0226500D01*
X0013707Y0226500D01*
X0011318Y0225510D01*
X0009490Y0223682D01*
X0008500Y0221293D01*
X0008500Y0218707D01*
X0009490Y0216318D01*
X0010808Y0215000D01*
X0009490Y0213682D01*
X0008500Y0211293D01*
X0008500Y0208707D01*
X0009490Y0206318D01*
X0010808Y0205000D01*
X0009490Y0203682D01*
X0009907Y0205900D02*
X0008100Y0205900D01*
X0008100Y0208899D02*
X0008500Y0208899D01*
X0008750Y0211897D02*
X0008100Y0211897D01*
X0008100Y0214896D02*
X0010703Y0214896D01*
X0008837Y0217894D02*
X0008100Y0217894D01*
X0008100Y0220893D02*
X0008500Y0220893D01*
X0008275Y0223891D02*
X0009699Y0223891D01*
X0011274Y0226890D02*
X0051855Y0226890D01*
X0051581Y0226416D02*
X0051581Y0226416D01*
X0050905Y0223891D02*
X0047595Y0223891D01*
X0049250Y0220893D02*
X0050600Y0220893D01*
X0050600Y0217894D02*
X0048823Y0217894D01*
X0050600Y0214896D02*
X0046141Y0214896D01*
X0048909Y0211897D02*
X0050600Y0211897D01*
X0050600Y0208899D02*
X0049239Y0208899D01*
X0050600Y0205900D02*
X0047387Y0205900D01*
X0048493Y0202902D02*
X0050600Y0202902D01*
X0050600Y0199903D02*
X0049250Y0199903D01*
X0048391Y0196905D02*
X0050600Y0196905D01*
X0050600Y0193906D02*
X0047581Y0193906D01*
X0049250Y0190908D02*
X0050600Y0190908D01*
X0050600Y0187909D02*
X0048829Y0187909D01*
X0050600Y0184911D02*
X0046105Y0184911D01*
X0048903Y0181912D02*
X0050600Y0181912D01*
X0050600Y0178914D02*
X0049245Y0178914D01*
X0050600Y0175915D02*
X0047402Y0175915D01*
X0048487Y0172917D02*
X0050600Y0172917D01*
X0050600Y0169918D02*
X0049250Y0169918D01*
X0048406Y0166920D02*
X0050600Y0166920D01*
X0050600Y0163921D02*
X0047566Y0163921D01*
X0049250Y0160923D02*
X0050600Y0160923D01*
X0050600Y0157924D02*
X0048835Y0157924D01*
X0050600Y0154926D02*
X0046069Y0154926D01*
X0048897Y0151927D02*
X0050600Y0151927D01*
X0050368Y0148929D02*
X0049250Y0148929D01*
X0049665Y0145930D02*
X0047417Y0145930D01*
X0048024Y0142932D02*
X0048316Y0142932D01*
X0055957Y0138380D02*
X0053649Y0134927D01*
X0053649Y0134927D01*
X0052474Y0133751D01*
X0052474Y0133751D01*
X0048492Y0129770D01*
X0048319Y0129482D01*
X0047879Y0129157D01*
X0047492Y0128770D01*
X0047182Y0128641D01*
X0041105Y0124150D01*
X0044924Y0124150D01*
X0046909Y0123328D01*
X0047146Y0123091D01*
X0047733Y0123430D01*
X0047733Y0123430D01*
X0048056Y0123713D01*
X0050060Y0125717D01*
X0050537Y0126194D01*
X0050622Y0126279D01*
X0051832Y0127614D01*
X0053832Y0130607D01*
X0055209Y0133932D01*
X0055912Y0137462D01*
X0055957Y0138380D01*
X0055807Y0136934D02*
X0054991Y0136934D01*
X0055210Y0133936D02*
X0052659Y0133936D01*
X0053969Y0130937D02*
X0049660Y0130937D01*
X0052049Y0127939D02*
X0046232Y0127939D01*
X0049284Y0124940D02*
X0042175Y0124940D01*
X0035483Y0130937D02*
X0020130Y0130937D01*
X0020818Y0127939D02*
X0031726Y0127939D01*
X0029440Y0124940D02*
X0021500Y0124940D01*
X0020769Y0121942D02*
X0028235Y0121942D01*
X0027562Y0118943D02*
X0020249Y0118943D01*
X0021500Y0115945D02*
X0027324Y0115945D01*
X0027924Y0112946D02*
X0021185Y0112946D01*
X0019244Y0109948D02*
X0029404Y0109948D01*
X0030178Y0108751D02*
X0030178Y0108751D01*
X0030178Y0108751D01*
X0031002Y0108163D02*
X0031002Y0108163D01*
X0032701Y0106949D02*
X0021228Y0106949D01*
X0021500Y0103951D02*
X0036125Y0103951D01*
X0033717Y0100952D02*
X0020145Y0100952D01*
X0020812Y0097954D02*
X0033250Y0097954D01*
X0034808Y0094955D02*
X0024265Y0094955D01*
X0023586Y0095579D02*
X0023586Y0095579D01*
X0027529Y0091957D02*
X0034220Y0091957D01*
X0033250Y0088958D02*
X0029547Y0088958D01*
X0027697Y0091802D02*
X0027697Y0091802D01*
X0031135Y0085960D02*
X0033961Y0085960D01*
X0035225Y0082961D02*
X0032148Y0082961D01*
X0032670Y0079963D02*
X0033307Y0079963D01*
X0033545Y0076964D02*
X0032989Y0076964D01*
X0033744Y0073966D02*
X0036089Y0073966D01*
X0027289Y0067969D02*
X0020806Y0067969D01*
X0020510Y0068682D02*
X0018971Y0070221D01*
X0019039Y0070271D01*
X0019729Y0070961D01*
X0020303Y0071750D01*
X0020746Y0072620D01*
X0021047Y0073548D01*
X0021200Y0074512D01*
X0021200Y0075000D01*
X0015000Y0075000D01*
X0015000Y0075000D01*
X0015000Y0075000D01*
X0008800Y0075000D01*
X0008800Y0074512D01*
X0008953Y0073548D01*
X0009254Y0072620D01*
X0009697Y0071750D01*
X0010271Y0070961D01*
X0010961Y0070271D01*
X0011029Y0070221D01*
X0009490Y0068682D01*
X0008500Y0066293D01*
X0008500Y0063707D01*
X0009490Y0061318D01*
X0010808Y0060000D01*
X0009490Y0058682D01*
X0008500Y0056293D01*
X0008500Y0053707D01*
X0009490Y0051318D01*
X0010808Y0050000D01*
X0009490Y0048682D01*
X0008500Y0046293D01*
X0008500Y0043707D01*
X0009490Y0041318D01*
X0011318Y0039490D01*
X0013707Y0038500D01*
X0016293Y0038500D01*
X0018682Y0039490D01*
X0020510Y0041318D01*
X0021500Y0043707D01*
X0021500Y0046293D01*
X0020510Y0048682D01*
X0019192Y0050000D01*
X0020510Y0051318D01*
X0021500Y0053707D01*
X0021500Y0056293D01*
X0020510Y0058682D01*
X0019192Y0060000D01*
X0020510Y0061318D01*
X0021500Y0063707D01*
X0021500Y0066293D01*
X0020510Y0068682D01*
X0019734Y0070967D02*
X0026153Y0070967D01*
X0025379Y0073966D02*
X0021113Y0073966D01*
X0020881Y0076964D02*
X0024873Y0076964D01*
X0024821Y0077657D02*
X0024821Y0077657D01*
X0024761Y0078450D02*
X0024761Y0078450D01*
X0024552Y0079963D02*
X0019155Y0079963D01*
X0021191Y0082961D02*
X0023586Y0082961D01*
X0021822Y0085960D02*
X0021500Y0085960D01*
X0009766Y0088958D02*
X0008100Y0088958D01*
X0008100Y0085960D02*
X0008500Y0085960D01*
X0008809Y0082961D02*
X0008100Y0082961D01*
X0008100Y0079963D02*
X0010845Y0079963D01*
X0009119Y0076964D02*
X0008100Y0076964D01*
X0008100Y0073966D02*
X0008887Y0073966D01*
X0008100Y0070967D02*
X0010266Y0070967D01*
X0009194Y0067969D02*
X0008100Y0067969D01*
X0008100Y0064970D02*
X0008500Y0064970D01*
X0008100Y0061972D02*
X0009219Y0061972D01*
X0009781Y0058973D02*
X0008100Y0058973D01*
X0008100Y0055975D02*
X0008500Y0055975D01*
X0008803Y0052976D02*
X0008100Y0052976D01*
X0008100Y0049978D02*
X0010785Y0049978D01*
X0008784Y0046979D02*
X0008100Y0046979D01*
X0008100Y0043981D02*
X0008500Y0043981D01*
X0008100Y0040982D02*
X0009825Y0040982D01*
X0008100Y0037984D02*
X0033608Y0037984D01*
X0033550Y0038349D02*
X0033676Y0037556D01*
X0033924Y0036792D01*
X0034288Y0036077D01*
X0034760Y0035428D01*
X0035328Y0034860D01*
X0035977Y0034388D01*
X0036692Y0034024D01*
X0037456Y0033776D01*
X0038249Y0033650D01*
X0041250Y0033650D01*
X0044251Y0033650D01*
X0045044Y0033776D01*
X0045808Y0034024D01*
X0046523Y0034388D01*
X0047172Y0034860D01*
X0047740Y0035428D01*
X0048212Y0036077D01*
X0048576Y0036792D01*
X0048824Y0037556D01*
X0048950Y0038349D01*
X0048950Y0038750D01*
X0041250Y0038750D01*
X0041250Y0038750D01*
X0041250Y0033650D01*
X0041250Y0038750D01*
X0041250Y0038750D01*
X0041250Y0038750D01*
X0033550Y0038750D01*
X0033550Y0038349D01*
X0034063Y0040982D02*
X0020175Y0040982D01*
X0021500Y0043981D02*
X0036053Y0043981D01*
X0033539Y0046979D02*
X0021216Y0046979D01*
X0019215Y0049978D02*
X0033314Y0049978D01*
X0035239Y0052976D02*
X0021197Y0052976D01*
X0021500Y0055975D02*
X0033955Y0055975D01*
X0032870Y0058973D02*
X0020219Y0058973D01*
X0020781Y0061972D02*
X0030613Y0061972D01*
X0028665Y0064970D02*
X0021500Y0064970D01*
X0009225Y0091957D02*
X0008100Y0091957D01*
X0008100Y0094955D02*
X0008500Y0094955D01*
X0008100Y0097954D02*
X0009188Y0097954D01*
X0009855Y0100952D02*
X0008100Y0100952D01*
X0008100Y0103951D02*
X0008500Y0103951D01*
X0008772Y0106949D02*
X0008100Y0106949D01*
X0008100Y0109948D02*
X0010756Y0109948D01*
X0008815Y0112946D02*
X0008100Y0112946D01*
X0008100Y0115945D02*
X0008500Y0115945D01*
X0008100Y0118943D02*
X0009751Y0118943D01*
X0009231Y0121942D02*
X0008100Y0121942D01*
X0008100Y0124940D02*
X0008500Y0124940D01*
X0008100Y0127939D02*
X0009182Y0127939D01*
X0009870Y0130937D02*
X0008100Y0130937D01*
X0008100Y0133936D02*
X0008500Y0133936D01*
X0008766Y0136934D02*
X0008100Y0136934D01*
X0008100Y0139933D02*
X0010741Y0139933D01*
X0008100Y0142932D02*
X0034476Y0142932D01*
X0033550Y0139933D02*
X0019259Y0139933D01*
X0021234Y0136934D02*
X0034573Y0136934D01*
X0039540Y0133936D02*
X0021500Y0133936D01*
X0020122Y0145930D02*
X0035083Y0145930D01*
X0033250Y0148929D02*
X0021500Y0148929D01*
X0021237Y0151927D02*
X0033603Y0151927D01*
X0036431Y0154926D02*
X0019267Y0154926D01*
X0021176Y0157924D02*
X0033665Y0157924D01*
X0033250Y0160923D02*
X0021500Y0160923D01*
X0020271Y0163921D02*
X0034934Y0163921D01*
X0034094Y0166920D02*
X0020760Y0166920D01*
X0021500Y0169918D02*
X0033250Y0169918D01*
X0034013Y0172917D02*
X0020827Y0172917D01*
X0020108Y0175915D02*
X0035098Y0175915D01*
X0033255Y0178914D02*
X0021500Y0178914D01*
X0021243Y0181912D02*
X0033597Y0181912D01*
X0036395Y0184911D02*
X0019282Y0184911D01*
X0021169Y0187909D02*
X0033671Y0187909D01*
X0033250Y0190908D02*
X0021500Y0190908D01*
X0020286Y0193906D02*
X0034919Y0193906D01*
X0034109Y0196905D02*
X0025744Y0196905D01*
X0029690Y0199033D02*
X0029690Y0199033D01*
X0030560Y0199903D02*
X0033250Y0199903D01*
X0033559Y0202902D02*
X0034007Y0202902D01*
X0033250Y0220893D02*
X0031500Y0220893D01*
X0030301Y0223891D02*
X0034905Y0223891D01*
X0009247Y0196905D02*
X0008100Y0196905D01*
X0008100Y0199903D02*
X0008500Y0199903D01*
X0008100Y0193906D02*
X0009714Y0193906D01*
X0008500Y0190908D02*
X0008100Y0190908D01*
X0008100Y0187909D02*
X0008830Y0187909D01*
X0008100Y0184911D02*
X0010718Y0184911D01*
X0008757Y0181912D02*
X0008100Y0181912D01*
X0008100Y0178914D02*
X0008500Y0178914D01*
X0008100Y0175915D02*
X0009892Y0175915D01*
X0009173Y0172917D02*
X0008100Y0172917D01*
X0008100Y0169918D02*
X0008500Y0169918D01*
X0008100Y0166920D02*
X0009240Y0166920D01*
X0009729Y0163921D02*
X0008100Y0163921D01*
X0008100Y0160923D02*
X0008500Y0160923D01*
X0008824Y0157924D02*
X0008100Y0157924D01*
X0008100Y0154926D02*
X0010733Y0154926D01*
X0008763Y0151927D02*
X0008100Y0151927D01*
X0008100Y0148929D02*
X0008500Y0148929D01*
X0008100Y0145930D02*
X0009878Y0145930D01*
X0034651Y0130322D02*
X0034651Y0130322D01*
X0027930Y0112914D02*
X0027930Y0112914D01*
X0028129Y0111921D02*
X0028129Y0111921D01*
X0047290Y0112946D02*
X0056793Y0112946D01*
X0056708Y0109948D02*
X0049199Y0109948D01*
X0048949Y0106949D02*
X0056623Y0106949D01*
X0056537Y0103951D02*
X0046375Y0103951D01*
X0048783Y0100952D02*
X0056452Y0100952D01*
X0056367Y0097954D02*
X0049250Y0097954D01*
X0047692Y0094955D02*
X0056281Y0094955D01*
X0056196Y0091957D02*
X0048280Y0091957D01*
X0049250Y0088958D02*
X0056111Y0088958D01*
X0056026Y0085960D02*
X0048539Y0085960D01*
X0047275Y0082961D02*
X0055940Y0082961D01*
X0055855Y0079963D02*
X0049193Y0079963D01*
X0048955Y0076964D02*
X0055770Y0076964D01*
X0055684Y0073966D02*
X0046411Y0073966D01*
X0048777Y0070967D02*
X0055599Y0070967D01*
X0055514Y0067969D02*
X0049250Y0067969D01*
X0047707Y0064970D02*
X0055428Y0064970D01*
X0055343Y0061972D02*
X0048265Y0061972D01*
X0049250Y0058973D02*
X0055258Y0058973D01*
X0055172Y0055975D02*
X0048545Y0055975D01*
X0047261Y0052976D02*
X0055087Y0052976D01*
X0055002Y0049978D02*
X0049186Y0049978D01*
X0048961Y0046979D02*
X0054917Y0046979D01*
X0054831Y0043981D02*
X0046447Y0043981D01*
X0048437Y0040982D02*
X0054746Y0040982D01*
X0054661Y0037984D02*
X0048892Y0037984D01*
X0047298Y0034985D02*
X0054575Y0034985D01*
X0054490Y0031987D02*
X0021213Y0031987D01*
X0019207Y0034985D02*
X0035202Y0034985D01*
X0041250Y0034985D02*
X0041250Y0034985D01*
X0041250Y0037984D02*
X0041250Y0037984D01*
X0038627Y0025990D02*
X0057952Y0025990D01*
X0057111Y0022991D02*
X0040389Y0022991D01*
X0040550Y0019993D02*
X0056950Y0019993D01*
X0058389Y0016994D02*
X0039111Y0016994D01*
X0039714Y0013996D02*
X0057786Y0013996D01*
X0056950Y0010997D02*
X0040550Y0010997D01*
X0027786Y0013996D02*
X0017489Y0013996D01*
X0013387Y0010997D02*
X0026950Y0010997D01*
X0028389Y0016994D02*
X0020790Y0016994D01*
X0021500Y0019993D02*
X0026040Y0019993D01*
X0027573Y0028988D02*
X0055952Y0028988D01*
X0068167Y0026450D02*
X0073325Y0026450D01*
X0073325Y0023142D01*
X0072615Y0022432D01*
X0071625Y0020043D01*
X0071625Y0017457D01*
X0072615Y0015068D01*
X0074443Y0013240D01*
X0076832Y0012250D01*
X0079418Y0012250D01*
X0081807Y0013240D01*
X0083125Y0014558D01*
X0084443Y0013240D01*
X0086832Y0012250D01*
X0089418Y0012250D01*
X0091807Y0013240D01*
X0093635Y0015068D01*
X0094625Y0017457D01*
X0094625Y0020043D01*
X0093635Y0022432D01*
X0092925Y0023142D01*
X0092925Y0026450D01*
X0164778Y0026450D01*
X0169178Y0027629D01*
X0173122Y0029907D01*
X0176343Y0033128D01*
X0178621Y0037072D01*
X0178621Y0037072D01*
X0179800Y0041472D01*
X0179800Y0043750D01*
X0179906Y0046451D01*
X0180751Y0051788D01*
X0182421Y0056926D01*
X0184874Y0061740D01*
X0188049Y0066111D01*
X0189885Y0068096D01*
X0190151Y0068362D01*
X0190508Y0068719D01*
X0192717Y0070929D01*
X0196189Y0076125D01*
X0196189Y0076125D01*
X0198581Y0081899D01*
X0199469Y0086367D01*
X0199490Y0086318D01*
X0200808Y0085000D01*
X0199490Y0083682D01*
X0198500Y0081293D01*
X0198500Y0078707D01*
X0199490Y0076318D01*
X0201318Y0074490D01*
X0203707Y0073500D01*
X0206293Y0073500D01*
X0208682Y0074490D01*
X0210510Y0076318D01*
X0211500Y0078707D01*
X0211500Y0081293D01*
X0210510Y0083682D01*
X0209192Y0085000D01*
X0210510Y0086318D01*
X0211500Y0088707D01*
X0211500Y0091293D01*
X0210510Y0093682D01*
X0209192Y0095000D01*
X0210510Y0096318D01*
X0211500Y0098707D01*
X0211500Y0101293D01*
X0210510Y0103682D01*
X0209192Y0105000D01*
X0210510Y0106318D01*
X0211500Y0108707D01*
X0211500Y0111293D01*
X0210510Y0113682D01*
X0209192Y0115000D01*
X0210510Y0116318D01*
X0211500Y0118707D01*
X0211500Y0121293D01*
X0210510Y0123682D01*
X0208971Y0125221D01*
X0209039Y0125271D01*
X0209729Y0125961D01*
X0210303Y0126750D01*
X0210746Y0127620D01*
X0211047Y0128548D01*
X0211200Y0129512D01*
X0211200Y0130000D01*
X0211200Y0130488D01*
X0211047Y0131452D01*
X0210746Y0132380D01*
X0210303Y0133250D01*
X0209729Y0134039D01*
X0209039Y0134729D01*
X0208666Y0135000D01*
X0209039Y0135271D01*
X0209729Y0135961D01*
X0210303Y0136750D01*
X0210746Y0137620D01*
X0211047Y0138548D01*
X0211200Y0139512D01*
X0211200Y0140000D01*
X0211200Y0140488D01*
X0211047Y0141452D01*
X0210746Y0142380D01*
X0210303Y0143250D01*
X0209729Y0144039D01*
X0209039Y0144729D01*
X0208971Y0144779D01*
X0210510Y0146318D01*
X0211500Y0148707D01*
X0211500Y0151293D01*
X0210510Y0153682D01*
X0208682Y0155510D01*
X0206293Y0156500D01*
X0203707Y0156500D01*
X0201318Y0155510D01*
X0199490Y0153682D01*
X0198500Y0151293D01*
X0198500Y0148707D01*
X0199490Y0146318D01*
X0201029Y0144779D01*
X0200961Y0144729D01*
X0200271Y0144039D01*
X0199697Y0143250D01*
X0199254Y0142380D01*
X0198953Y0141452D01*
X0198800Y0140488D01*
X0198800Y0140000D01*
X0205000Y0140000D01*
X0211200Y0140000D01*
X0205000Y0140000D01*
X0205000Y0140000D01*
X0205000Y0140000D01*
X0205000Y0133800D01*
X0205000Y0130000D01*
X0211200Y0130000D01*
X0205000Y0130000D01*
X0205000Y0130000D01*
X0205000Y0130000D01*
X0205000Y0130000D01*
X0198800Y0130000D01*
X0198800Y0130488D01*
X0198953Y0131452D01*
X0199254Y0132380D01*
X0199697Y0133250D01*
X0200271Y0134039D01*
X0200961Y0134729D01*
X0201334Y0135000D01*
X0200961Y0135271D01*
X0200271Y0135961D01*
X0199697Y0136750D01*
X0199254Y0137620D01*
X0198953Y0138548D01*
X0198800Y0139512D01*
X0198800Y0140000D01*
X0205000Y0140000D01*
X0205000Y0140000D01*
X0205000Y0130000D01*
X0198800Y0130000D01*
X0198800Y0129512D01*
X0198953Y0128548D01*
X0199254Y0127620D01*
X0199697Y0126750D01*
X0200271Y0125961D01*
X0200961Y0125271D01*
X0201029Y0125221D01*
X0199713Y0123905D01*
X0199287Y0123791D01*
X0195913Y0121843D01*
X0195913Y0121843D01*
X0193157Y0119087D01*
X0191209Y0115713D01*
X0191209Y0115713D01*
X0190284Y0112262D01*
X0190246Y0112380D01*
X0189803Y0113250D01*
X0189229Y0114039D01*
X0188897Y0114371D01*
X0189182Y0114490D01*
X0191010Y0116318D01*
X0192000Y0118707D01*
X0192000Y0121293D01*
X0191010Y0123682D01*
X0189192Y0125500D01*
X0190010Y0126318D01*
X0191000Y0128707D01*
X0191000Y0131293D01*
X0190200Y0133224D01*
X0190200Y0137322D01*
X0190211Y0137349D01*
X0190200Y0138097D01*
X0190200Y0138137D01*
X0190290Y0140736D01*
X0191234Y0145868D01*
X0193161Y0150717D01*
X0195996Y0155097D01*
X0197544Y0156855D01*
X0197834Y0157064D01*
X0198018Y0157362D01*
X0198263Y0157614D01*
X0198422Y0158016D01*
X0198650Y0158383D01*
X0198706Y0158730D01*
X0198836Y0159056D01*
X0198830Y0159488D01*
X0199275Y0162227D01*
X0199359Y0162741D01*
X0199572Y0164055D01*
X0199163Y0166684D01*
X0197959Y0169057D01*
X0197566Y0169449D01*
X0197018Y0169998D01*
X0196469Y0170546D01*
X0193768Y0173247D01*
X0193518Y0173851D01*
X0192351Y0175018D01*
X0190825Y0175650D01*
X0189175Y0175650D01*
X0187649Y0175018D01*
X0186482Y0173851D01*
X0185850Y0172325D01*
X0185850Y0171100D01*
X0183269Y0171100D01*
X0178700Y0166531D01*
X0178700Y0160069D01*
X0183269Y0155500D01*
X0186813Y0155500D01*
X0186081Y0154370D01*
X0186081Y0154370D01*
X0183578Y0148069D01*
X0182351Y0141402D01*
X0182351Y0141402D01*
X0182400Y0138040D01*
X0182400Y0136166D01*
X0180818Y0135510D01*
X0178990Y0133682D01*
X0178000Y0131293D01*
X0178000Y0129468D01*
X0177601Y0130959D01*
X0175670Y0134302D01*
X0175670Y0134302D01*
X0174924Y0135049D01*
X0173741Y0136231D01*
X0173686Y0136286D01*
X0154473Y0155500D01*
X0156731Y0155500D01*
X0161300Y0160069D01*
X0161300Y0166531D01*
X0156731Y0171100D01*
X0155987Y0171100D01*
X0156857Y0171460D01*
X0159936Y0172073D01*
X0161505Y0172150D01*
X0176850Y0172150D01*
X0180336Y0173084D01*
X0183461Y0174889D01*
X0184118Y0175546D01*
X0184118Y0175546D01*
X0185304Y0176732D01*
X0185356Y0176783D01*
X0185773Y0177200D01*
X0189731Y0177200D01*
X0194300Y0181769D01*
X0194300Y0184477D01*
X0198500Y0180277D01*
X0198500Y0178707D01*
X0199490Y0176318D01*
X0200808Y0175000D01*
X0199490Y0173682D01*
X0198500Y0171293D01*
X0198500Y0168707D01*
X0199490Y0166318D01*
X0201318Y0164490D01*
X0203707Y0163500D01*
X0206293Y0163500D01*
X0208682Y0164490D01*
X0210510Y0166318D01*
X0211173Y0167918D01*
X0212786Y0169089D01*
X0212786Y0169089D01*
X0212786Y0169089D01*
X0214500Y0171449D01*
X0214500Y0014500D01*
X0208100Y0008100D01*
X0194154Y0008100D01*
X0196626Y0009124D01*
X0198991Y0011489D01*
X0200271Y0014578D01*
X0200271Y0017922D01*
X0198991Y0021011D01*
X0196626Y0023376D01*
X0193537Y0024655D01*
X0190193Y0024655D01*
X0187104Y0023376D01*
X0184739Y0021011D01*
X0183460Y0017922D01*
X0183460Y0014578D01*
X0184739Y0011489D01*
X0187104Y0009124D01*
X0189576Y0008100D01*
X0070064Y0008100D01*
X0070550Y0009272D01*
X0070550Y0011978D01*
X0069515Y0014477D01*
X0068054Y0015937D01*
X0069515Y0017398D01*
X0070550Y0019897D01*
X0070550Y0022603D01*
X0069515Y0025102D01*
X0068167Y0026450D01*
X0068627Y0025990D02*
X0073325Y0025990D01*
X0073174Y0022991D02*
X0070389Y0022991D01*
X0070550Y0019993D02*
X0071625Y0019993D01*
X0071817Y0016994D02*
X0069111Y0016994D01*
X0069714Y0013996D02*
X0073687Y0013996D01*
X0070550Y0010997D02*
X0135647Y0010997D01*
X0133625Y0013019D02*
X0138194Y0008450D01*
X0144656Y0008450D01*
X0149225Y0013019D01*
X0149225Y0019481D01*
X0144656Y0024050D01*
X0138194Y0024050D01*
X0133625Y0019481D01*
X0133625Y0013019D01*
X0133625Y0013996D02*
X0126504Y0013996D01*
X0126539Y0014021D02*
X0127229Y0014711D01*
X0127803Y0015500D01*
X0128246Y0016370D01*
X0128547Y0017298D01*
X0128700Y0018262D01*
X0128700Y0018750D01*
X0128700Y0019238D01*
X0128547Y0020202D01*
X0128246Y0021130D01*
X0127803Y0022000D01*
X0127229Y0022789D01*
X0126539Y0023479D01*
X0125750Y0024053D01*
X0124880Y0024496D01*
X0123952Y0024797D01*
X0122988Y0024950D01*
X0122500Y0024950D01*
X0122500Y0018750D01*
X0122500Y0018750D01*
X0128700Y0018750D01*
X0122500Y0018750D01*
X0122500Y0018750D01*
X0122500Y0024950D01*
X0122012Y0024950D01*
X0121048Y0024797D01*
X0120120Y0024496D01*
X0119250Y0024053D01*
X0118461Y0023479D01*
X0117771Y0022789D01*
X0117500Y0022416D01*
X0117229Y0022789D01*
X0116539Y0023479D01*
X0115750Y0024053D01*
X0114880Y0024496D01*
X0113952Y0024797D01*
X0112988Y0024950D01*
X0112500Y0024950D01*
X0112500Y0018750D01*
X0112500Y0018750D01*
X0122500Y0018750D01*
X0122500Y0012550D01*
X0122988Y0012550D01*
X0123952Y0012703D01*
X0124880Y0013004D01*
X0125750Y0013447D01*
X0126539Y0014021D01*
X0128448Y0016994D02*
X0133625Y0016994D01*
X0134137Y0019993D02*
X0128580Y0019993D01*
X0127027Y0022991D02*
X0137135Y0022991D01*
X0145715Y0022991D02*
X0156331Y0022991D01*
X0156183Y0022844D02*
X0155910Y0022434D01*
X0155721Y0021979D01*
X0155625Y0021496D01*
X0155625Y0016250D01*
X0163125Y0016250D01*
X0163125Y0016250D01*
X0163125Y0023750D01*
X0168371Y0023750D01*
X0168854Y0023654D01*
X0169309Y0023465D01*
X0169719Y0023192D01*
X0170067Y0022844D01*
X0170340Y0022434D01*
X0170529Y0021979D01*
X0170625Y0021496D01*
X0170625Y0016250D01*
X0163125Y0016250D01*
X0163125Y0016250D01*
X0163125Y0016250D01*
X0163125Y0023750D01*
X0157879Y0023750D01*
X0157396Y0023654D01*
X0156941Y0023465D01*
X0156531Y0023192D01*
X0156183Y0022844D01*
X0155625Y0019993D02*
X0148713Y0019993D01*
X0149225Y0016994D02*
X0155625Y0016994D01*
X0155625Y0016250D02*
X0155625Y0011004D01*
X0155721Y0010521D01*
X0155910Y0010066D01*
X0156183Y0009656D01*
X0156531Y0009308D01*
X0156941Y0009035D01*
X0157396Y0008846D01*
X0157879Y0008750D01*
X0163125Y0008750D01*
X0168371Y0008750D01*
X0168854Y0008846D01*
X0169309Y0009035D01*
X0169719Y0009308D01*
X0170067Y0009656D01*
X0170340Y0010066D01*
X0170529Y0010521D01*
X0170625Y0011004D01*
X0170625Y0016250D01*
X0163125Y0016250D01*
X0163125Y0008750D01*
X0163125Y0016250D01*
X0163125Y0016250D01*
X0155625Y0016250D01*
X0155625Y0013996D02*
X0149225Y0013996D01*
X0147203Y0010997D02*
X0155626Y0010997D01*
X0163125Y0010997D02*
X0163125Y0010997D01*
X0163125Y0013996D02*
X0163125Y0013996D01*
X0163125Y0016994D02*
X0163125Y0016994D01*
X0163125Y0019993D02*
X0163125Y0019993D01*
X0163125Y0022991D02*
X0163125Y0022991D01*
X0169919Y0022991D02*
X0186719Y0022991D01*
X0184317Y0019993D02*
X0170625Y0019993D01*
X0170625Y0016994D02*
X0183460Y0016994D01*
X0183701Y0013996D02*
X0170625Y0013996D01*
X0170624Y0010997D02*
X0185231Y0010997D01*
X0197011Y0022991D02*
X0214500Y0022991D01*
X0214500Y0019993D02*
X0199413Y0019993D01*
X0200271Y0016994D02*
X0214500Y0016994D01*
X0213996Y0013996D02*
X0200029Y0013996D01*
X0198499Y0010997D02*
X0210997Y0010997D01*
X0214500Y0025990D02*
X0092925Y0025990D01*
X0093076Y0022991D02*
X0107973Y0022991D01*
X0107771Y0022789D02*
X0107197Y0022000D01*
X0106754Y0021130D01*
X0106453Y0020202D01*
X0106300Y0019238D01*
X0106300Y0018750D01*
X0112500Y0018750D01*
X0112500Y0018750D01*
X0112500Y0018750D01*
X0112500Y0024950D01*
X0112012Y0024950D01*
X0111048Y0024797D01*
X0110120Y0024496D01*
X0109250Y0024053D01*
X0108461Y0023479D01*
X0107771Y0022789D01*
X0106420Y0019993D02*
X0094625Y0019993D01*
X0094433Y0016994D02*
X0106551Y0016994D01*
X0106453Y0017298D02*
X0106754Y0016370D01*
X0107197Y0015500D01*
X0107771Y0014711D01*
X0108461Y0014021D01*
X0109250Y0013447D01*
X0110120Y0013004D01*
X0111048Y0012703D01*
X0112012Y0012550D01*
X0112500Y0012550D01*
X0112988Y0012550D01*
X0113952Y0012703D01*
X0114880Y0013004D01*
X0115750Y0013447D01*
X0116539Y0014021D01*
X0117229Y0014711D01*
X0117500Y0015084D01*
X0117771Y0014711D01*
X0118461Y0014021D01*
X0119250Y0013447D01*
X0120120Y0013004D01*
X0121048Y0012703D01*
X0122012Y0012550D01*
X0122500Y0012550D01*
X0122500Y0018750D01*
X0122500Y0018750D01*
X0122500Y0018750D01*
X0116300Y0018750D01*
X0112500Y0018750D01*
X0112500Y0012550D01*
X0112500Y0018750D01*
X0112500Y0018750D01*
X0106300Y0018750D01*
X0106300Y0018262D01*
X0106453Y0017298D01*
X0108496Y0013996D02*
X0092563Y0013996D01*
X0083687Y0013996D02*
X0082563Y0013996D01*
X0078577Y0036050D02*
X0079250Y0037676D01*
X0079250Y0039824D01*
X0078428Y0041809D01*
X0076909Y0043328D01*
X0075890Y0043750D01*
X0076909Y0044172D01*
X0078428Y0045691D01*
X0079250Y0047676D01*
X0079250Y0049824D01*
X0078428Y0051809D01*
X0076909Y0053328D01*
X0075890Y0053750D01*
X0076909Y0054172D01*
X0078428Y0055691D01*
X0079057Y0057209D01*
X0086270Y0064422D01*
X0086270Y0062861D01*
X0087549Y0059771D01*
X0089914Y0057407D01*
X0093003Y0056127D01*
X0096347Y0056127D01*
X0099437Y0057407D01*
X0101801Y0059771D01*
X0103081Y0062861D01*
X0103081Y0066204D01*
X0101801Y0069294D01*
X0100495Y0070600D01*
X0134494Y0070600D01*
X0138278Y0071614D01*
X0141670Y0073572D01*
X0142436Y0074338D01*
X0143379Y0075281D01*
X0143674Y0075576D01*
X0144673Y0076575D01*
X0149481Y0076575D01*
X0151000Y0078094D01*
X0151000Y0069002D01*
X0149481Y0070521D01*
X0143019Y0070521D01*
X0138450Y0065952D01*
X0138450Y0059491D01*
X0143019Y0054921D01*
X0148650Y0054921D01*
X0148650Y0048806D01*
X0144656Y0052800D01*
X0138194Y0052800D01*
X0133625Y0048231D01*
X0133625Y0041769D01*
X0138194Y0037200D01*
X0144656Y0037200D01*
X0149225Y0041769D01*
X0149225Y0042687D01*
X0149320Y0042458D01*
X0150558Y0041220D01*
X0152175Y0040550D01*
X0153925Y0040550D01*
X0155542Y0041220D01*
X0155625Y0041302D01*
X0155625Y0039754D01*
X0155721Y0039271D01*
X0155910Y0038816D01*
X0156183Y0038406D01*
X0156531Y0038058D01*
X0156941Y0037785D01*
X0157396Y0037596D01*
X0157879Y0037500D01*
X0163125Y0037500D01*
X0166943Y0037500D01*
X0165447Y0036636D01*
X0163505Y0036116D01*
X0162500Y0036050D01*
X0078577Y0036050D01*
X0079250Y0037984D02*
X0137411Y0037984D01*
X0134412Y0040982D02*
X0078770Y0040982D01*
X0076447Y0043981D02*
X0133625Y0043981D01*
X0133625Y0046979D02*
X0078961Y0046979D01*
X0079186Y0049978D02*
X0135372Y0049978D01*
X0132945Y0054921D02*
X0137515Y0059491D01*
X0137515Y0065952D01*
X0132945Y0070521D01*
X0126484Y0070521D01*
X0121915Y0065952D01*
X0121915Y0059491D01*
X0126484Y0054921D01*
X0132945Y0054921D01*
X0133999Y0055975D02*
X0141966Y0055975D01*
X0138967Y0058973D02*
X0136997Y0058973D01*
X0137515Y0061972D02*
X0138450Y0061972D01*
X0138450Y0064970D02*
X0137515Y0064970D01*
X0135498Y0067969D02*
X0140466Y0067969D01*
X0138278Y0071614D02*
X0138278Y0071614D01*
X0135864Y0070967D02*
X0151000Y0070967D01*
X0151000Y0073966D02*
X0142063Y0073966D01*
X0142436Y0074338D02*
X0142436Y0074338D01*
X0141670Y0073572D02*
X0141670Y0073572D01*
X0143674Y0075576D02*
X0143674Y0075576D01*
X0149870Y0076964D02*
X0151000Y0076964D01*
X0159800Y0076964D02*
X0185040Y0076964D01*
X0185178Y0077117D02*
X0183719Y0075508D01*
X0183363Y0075151D01*
X0183096Y0074885D01*
X0180646Y0072434D01*
X0176572Y0066827D01*
X0173426Y0060652D01*
X0171284Y0054061D01*
X0171284Y0054061D01*
X0170625Y0049899D01*
X0170625Y0050246D01*
X0170529Y0050729D01*
X0170340Y0051184D01*
X0170067Y0051594D01*
X0169719Y0051942D01*
X0169309Y0052215D01*
X0168854Y0052404D01*
X0168371Y0052500D01*
X0163125Y0052500D01*
X0163125Y0045000D01*
X0163125Y0045000D01*
X0163125Y0037500D01*
X0163125Y0045000D01*
X0163125Y0045000D01*
X0163125Y0052500D01*
X0157879Y0052500D01*
X0157450Y0052415D01*
X0157450Y0054877D01*
X0157892Y0055320D01*
X0157892Y0055320D01*
X0159130Y0056558D01*
X0159631Y0057768D01*
X0159993Y0057407D01*
X0163082Y0056127D01*
X0166426Y0056127D01*
X0169515Y0057407D01*
X0171880Y0059771D01*
X0173159Y0062861D01*
X0173159Y0066204D01*
X0171880Y0069294D01*
X0169515Y0071658D01*
X0166426Y0072938D01*
X0163082Y0072938D01*
X0159993Y0071658D01*
X0159800Y0071466D01*
X0159800Y0094755D01*
X0159899Y0096259D01*
X0160677Y0099164D01*
X0162181Y0101769D01*
X0163174Y0102902D01*
X0163785Y0103512D01*
X0163793Y0103521D01*
X0176051Y0115778D01*
X0176051Y0115778D01*
X0176439Y0116166D01*
X0176439Y0116166D01*
X0177863Y0118633D01*
X0178600Y0121384D01*
X0178600Y0127229D01*
X0178578Y0127312D01*
X0178990Y0126318D01*
X0180808Y0124500D01*
X0179990Y0123682D01*
X0179000Y0121293D01*
X0179000Y0118707D01*
X0179990Y0116318D01*
X0181108Y0115199D01*
X0180461Y0114729D01*
X0179771Y0114039D01*
X0179197Y0113250D01*
X0178754Y0112380D01*
X0178453Y0111452D01*
X0178300Y0110488D01*
X0178300Y0110000D01*
X0184500Y0110000D01*
X0184500Y0103800D01*
X0184988Y0103800D01*
X0185952Y0103953D01*
X0186880Y0104254D01*
X0187750Y0104697D01*
X0188539Y0105271D01*
X0189229Y0105961D01*
X0189803Y0106750D01*
X0190200Y0107530D01*
X0190200Y0091153D01*
X0190093Y0088984D01*
X0189247Y0084730D01*
X0187587Y0080723D01*
X0185178Y0077117D01*
X0187079Y0079963D02*
X0159800Y0079963D01*
X0159800Y0082961D02*
X0188515Y0082961D01*
X0189492Y0085960D02*
X0159800Y0085960D01*
X0159800Y0088958D02*
X0190088Y0088958D01*
X0190093Y0088984D02*
X0190093Y0088984D01*
X0190200Y0091957D02*
X0159800Y0091957D01*
X0159813Y0094955D02*
X0190200Y0094955D01*
X0190200Y0097954D02*
X0160353Y0097954D01*
X0161709Y0100952D02*
X0190200Y0100952D01*
X0190200Y0103951D02*
X0185940Y0103951D01*
X0184500Y0103951D02*
X0184500Y0103951D01*
X0184500Y0103800D02*
X0184500Y0110000D01*
X0184500Y0110000D01*
X0184500Y0110000D01*
X0178300Y0110000D01*
X0178300Y0109512D01*
X0178453Y0108548D01*
X0178754Y0107620D01*
X0179197Y0106750D01*
X0179771Y0105961D01*
X0180461Y0105271D01*
X0181250Y0104697D01*
X0182120Y0104254D01*
X0183048Y0103953D01*
X0184012Y0103800D01*
X0184500Y0103800D01*
X0183059Y0103951D02*
X0164223Y0103951D01*
X0167222Y0106949D02*
X0179096Y0106949D01*
X0178300Y0109948D02*
X0170220Y0109948D01*
X0173219Y0112946D02*
X0179043Y0112946D01*
X0180363Y0115945D02*
X0176217Y0115945D01*
X0177946Y0118943D02*
X0179000Y0118943D01*
X0179269Y0121942D02*
X0178600Y0121942D01*
X0178600Y0124940D02*
X0180367Y0124940D01*
X0178000Y0130937D02*
X0177606Y0130937D01*
X0177601Y0130959D02*
X0177601Y0130959D01*
X0179244Y0133936D02*
X0175882Y0133936D01*
X0174924Y0135049D02*
X0174924Y0135049D01*
X0173686Y0136286D02*
X0173686Y0136286D01*
X0173038Y0136934D02*
X0182400Y0136934D01*
X0182373Y0139933D02*
X0170040Y0139933D01*
X0167041Y0142932D02*
X0182633Y0142932D01*
X0183184Y0145930D02*
X0164042Y0145930D01*
X0161044Y0148929D02*
X0183919Y0148929D01*
X0183578Y0148069D02*
X0183578Y0148069D01*
X0185110Y0151927D02*
X0158045Y0151927D01*
X0155047Y0154926D02*
X0186441Y0154926D01*
X0192450Y0148929D02*
X0198500Y0148929D01*
X0198763Y0151927D02*
X0193944Y0151927D01*
X0195885Y0154926D02*
X0200733Y0154926D01*
X0198386Y0157924D02*
X0214500Y0157924D01*
X0214500Y0160923D02*
X0199063Y0160923D01*
X0199551Y0163921D02*
X0202690Y0163921D01*
X0199572Y0164055D02*
X0199572Y0164055D01*
X0199163Y0166684D02*
X0199163Y0166684D01*
X0199240Y0166920D02*
X0199044Y0166920D01*
X0197959Y0169057D02*
X0197959Y0169057D01*
X0198500Y0169918D02*
X0197097Y0169918D01*
X0197018Y0169998D02*
X0197018Y0169998D01*
X0196469Y0170546D02*
X0196469Y0170546D01*
X0194099Y0172917D02*
X0199173Y0172917D01*
X0199892Y0175915D02*
X0184488Y0175915D01*
X0183461Y0174889D02*
X0183461Y0174889D01*
X0186095Y0172917D02*
X0179711Y0172917D01*
X0180336Y0173084D02*
X0180336Y0173084D01*
X0182087Y0169918D02*
X0174413Y0169918D01*
X0173231Y0171100D02*
X0166769Y0171100D01*
X0162200Y0166531D01*
X0162200Y0160069D01*
X0166769Y0155500D01*
X0173231Y0155500D01*
X0177800Y0160069D01*
X0177800Y0166531D01*
X0173231Y0171100D01*
X0177411Y0166920D02*
X0179089Y0166920D01*
X0178700Y0163921D02*
X0177800Y0163921D01*
X0177800Y0160923D02*
X0178700Y0160923D01*
X0180845Y0157924D02*
X0175655Y0157924D01*
X0164345Y0157924D02*
X0159155Y0157924D01*
X0161300Y0160923D02*
X0162200Y0160923D01*
X0162200Y0163921D02*
X0161300Y0163921D01*
X0160911Y0166920D02*
X0162589Y0166920D01*
X0165587Y0169918D02*
X0157913Y0169918D01*
X0190262Y0139933D02*
X0198800Y0139933D01*
X0199535Y0142932D02*
X0190694Y0142932D01*
X0191259Y0145930D02*
X0199878Y0145930D01*
X0205000Y0139933D02*
X0205000Y0139933D01*
X0205000Y0136934D02*
X0205000Y0136934D01*
X0205000Y0133936D02*
X0205000Y0133936D01*
X0205000Y0130937D02*
X0205000Y0130937D01*
X0200196Y0133936D02*
X0190200Y0133936D01*
X0190200Y0136934D02*
X0199604Y0136934D01*
X0198871Y0130937D02*
X0191000Y0130937D01*
X0190682Y0127939D02*
X0199151Y0127939D01*
X0200748Y0124940D02*
X0189752Y0124940D01*
X0191731Y0121942D02*
X0196084Y0121942D01*
X0199287Y0123791D02*
X0199287Y0123791D01*
X0193157Y0119087D02*
X0193157Y0119087D01*
X0193074Y0118943D02*
X0192000Y0118943D01*
X0191343Y0115945D02*
X0190637Y0115945D01*
X0190467Y0112946D02*
X0189957Y0112946D01*
X0189904Y0106949D02*
X0190200Y0106949D01*
X0184500Y0106949D02*
X0184500Y0106949D01*
X0184500Y0109948D02*
X0184500Y0109948D01*
X0199389Y0085960D02*
X0199848Y0085960D01*
X0199191Y0082961D02*
X0198792Y0082961D01*
X0198581Y0081899D02*
X0198581Y0081899D01*
X0198500Y0079963D02*
X0197779Y0079963D01*
X0196537Y0076964D02*
X0199222Y0076964D01*
X0202583Y0073966D02*
X0194746Y0073966D01*
X0192743Y0070967D02*
X0214500Y0070967D01*
X0214500Y0067969D02*
X0189767Y0067969D01*
X0192717Y0070929D02*
X0192717Y0070929D01*
X0187221Y0064970D02*
X0214500Y0064970D01*
X0214500Y0061972D02*
X0185042Y0061972D01*
X0183464Y0058973D02*
X0214500Y0058973D01*
X0214500Y0055975D02*
X0182112Y0055975D01*
X0181137Y0052976D02*
X0189157Y0052976D01*
X0190193Y0053405D02*
X0187104Y0052126D01*
X0184739Y0049761D01*
X0183460Y0046672D01*
X0183460Y0043328D01*
X0184739Y0040239D01*
X0187104Y0037874D01*
X0190193Y0036594D01*
X0193537Y0036594D01*
X0196626Y0037874D01*
X0198991Y0040239D01*
X0200271Y0043328D01*
X0200271Y0046672D01*
X0198991Y0049761D01*
X0196626Y0052126D01*
X0193537Y0053405D01*
X0190193Y0053405D01*
X0194574Y0052976D02*
X0214500Y0052976D01*
X0214500Y0049978D02*
X0198775Y0049978D01*
X0200143Y0046979D02*
X0214500Y0046979D01*
X0214500Y0043981D02*
X0200271Y0043981D01*
X0199299Y0040982D02*
X0214500Y0040982D01*
X0214500Y0037984D02*
X0196736Y0037984D01*
X0186994Y0037984D02*
X0178865Y0037984D01*
X0179669Y0040982D02*
X0184431Y0040982D01*
X0183460Y0043981D02*
X0179809Y0043981D01*
X0179990Y0046979D02*
X0183587Y0046979D01*
X0184956Y0049978D02*
X0180465Y0049978D01*
X0171112Y0052976D02*
X0157450Y0052976D01*
X0158547Y0055975D02*
X0171906Y0055975D01*
X0171082Y0058973D02*
X0172880Y0058973D01*
X0173426Y0060652D02*
X0173426Y0060652D01*
X0172791Y0061972D02*
X0174098Y0061972D01*
X0173159Y0064970D02*
X0175626Y0064970D01*
X0176572Y0066827D02*
X0176572Y0066827D01*
X0177402Y0067969D02*
X0172429Y0067969D01*
X0170206Y0070967D02*
X0179580Y0070967D01*
X0180646Y0072434D02*
X0180646Y0072434D01*
X0182178Y0073966D02*
X0159800Y0073966D01*
X0148650Y0052976D02*
X0077261Y0052976D01*
X0078545Y0055975D02*
X0108895Y0055975D01*
X0109948Y0054921D02*
X0105379Y0059491D01*
X0105379Y0065952D01*
X0109948Y0070521D01*
X0116410Y0070521D01*
X0120979Y0065952D01*
X0120979Y0059491D01*
X0116410Y0054921D01*
X0109948Y0054921D01*
X0105897Y0058973D02*
X0101003Y0058973D01*
X0102713Y0061972D02*
X0105379Y0061972D01*
X0105379Y0064970D02*
X0103081Y0064970D01*
X0102350Y0067969D02*
X0107396Y0067969D01*
X0118963Y0067969D02*
X0123931Y0067969D01*
X0121915Y0064970D02*
X0120979Y0064970D01*
X0120979Y0061972D02*
X0121915Y0061972D01*
X0122432Y0058973D02*
X0120462Y0058973D01*
X0117463Y0055975D02*
X0125430Y0055975D01*
X0145439Y0037984D02*
X0156643Y0037984D01*
X0155625Y0040982D02*
X0154968Y0040982D01*
X0151131Y0040982D02*
X0148438Y0040982D01*
X0148650Y0049978D02*
X0147478Y0049978D01*
X0163125Y0049978D02*
X0163125Y0049978D01*
X0163125Y0046979D02*
X0163125Y0046979D01*
X0163125Y0043981D02*
X0163125Y0043981D01*
X0163125Y0040982D02*
X0163125Y0040982D01*
X0163125Y0037984D02*
X0163125Y0037984D01*
X0169178Y0027629D02*
X0169178Y0027629D01*
X0171532Y0028988D02*
X0214500Y0028988D01*
X0214500Y0031987D02*
X0175202Y0031987D01*
X0176343Y0033128D02*
X0176343Y0033128D01*
X0177416Y0034985D02*
X0214500Y0034985D01*
X0214500Y0073966D02*
X0207417Y0073966D01*
X0210778Y0076964D02*
X0214500Y0076964D01*
X0214500Y0079963D02*
X0211500Y0079963D01*
X0210809Y0082961D02*
X0214500Y0082961D01*
X0214500Y0085960D02*
X0210152Y0085960D01*
X0211500Y0088958D02*
X0214500Y0088958D01*
X0214500Y0091957D02*
X0211225Y0091957D01*
X0209237Y0094955D02*
X0214500Y0094955D01*
X0214500Y0097954D02*
X0211188Y0097954D01*
X0211500Y0100952D02*
X0214500Y0100952D01*
X0214500Y0103951D02*
X0210241Y0103951D01*
X0210772Y0106949D02*
X0214500Y0106949D01*
X0214500Y0109948D02*
X0211500Y0109948D01*
X0210815Y0112946D02*
X0214500Y0112946D01*
X0214500Y0115945D02*
X0210137Y0115945D01*
X0211500Y0118943D02*
X0214500Y0118943D01*
X0214500Y0121942D02*
X0211231Y0121942D01*
X0209252Y0124940D02*
X0214500Y0124940D01*
X0214500Y0127939D02*
X0210849Y0127939D01*
X0211129Y0130937D02*
X0214500Y0130937D01*
X0214500Y0133936D02*
X0209804Y0133936D01*
X0210396Y0136934D02*
X0214500Y0136934D01*
X0214500Y0139933D02*
X0211200Y0139933D01*
X0210465Y0142932D02*
X0214500Y0142932D01*
X0214500Y0145930D02*
X0210122Y0145930D01*
X0211500Y0148929D02*
X0214500Y0148929D01*
X0214500Y0151927D02*
X0211237Y0151927D01*
X0209267Y0154926D02*
X0214500Y0154926D01*
X0214500Y0163921D02*
X0207310Y0163921D01*
X0210760Y0166920D02*
X0214500Y0166920D01*
X0214500Y0169918D02*
X0213388Y0169918D01*
X0198500Y0178914D02*
X0191445Y0178914D01*
X0194300Y0181912D02*
X0196865Y0181912D01*
X0086638Y0061972D02*
X0083819Y0061972D01*
X0080821Y0058973D02*
X0088347Y0058973D01*
X0112500Y0022991D02*
X0112500Y0022991D01*
X0112500Y0019993D02*
X0112500Y0019993D01*
X0112500Y0016994D02*
X0112500Y0016994D01*
X0112500Y0013996D02*
X0112500Y0013996D01*
X0116504Y0013996D02*
X0118496Y0013996D01*
X0122500Y0013996D02*
X0122500Y0013996D01*
X0122500Y0016994D02*
X0122500Y0016994D01*
X0122500Y0019993D02*
X0122500Y0019993D01*
X0122500Y0022991D02*
X0122500Y0022991D01*
X0117973Y0022991D02*
X0117027Y0022991D01*
X0170625Y0049978D02*
X0170638Y0049978D01*
X0173122Y0029907D02*
X0173122Y0029907D01*
X0056879Y0115945D02*
X0050825Y0115945D01*
X0053151Y0117494D02*
X0053151Y0117494D01*
X0054600Y0118943D02*
X0056964Y0118943D01*
X0056279Y0120622D02*
X0056279Y0120622D01*
X0010793Y0034985D02*
X0008100Y0034985D01*
X0008100Y0031987D02*
X0008787Y0031987D01*
X0008500Y0028988D02*
X0008100Y0028988D01*
X0008100Y0025990D02*
X0009818Y0025990D01*
X0009203Y0022991D02*
X0008100Y0022991D01*
X0008100Y0019993D02*
X0008500Y0019993D01*
X0008100Y0016994D02*
X0009210Y0016994D01*
X0010389Y0013996D02*
X0012511Y0013996D01*
D20*
X0032500Y0031875D03*
X0050000Y0128750D03*
X0110000Y0201250D03*
X0175000Y0200000D03*
X0175000Y0090000D03*
D21*
X0155400Y0094755D02*
X0155405Y0095134D01*
X0155418Y0095513D01*
X0155441Y0095891D01*
X0155472Y0096268D01*
X0155513Y0096645D01*
X0155562Y0097021D01*
X0155620Y0097395D01*
X0155688Y0097768D01*
X0155764Y0098139D01*
X0155849Y0098509D01*
X0155942Y0098876D01*
X0156045Y0099240D01*
X0156156Y0099603D01*
X0156276Y0099962D01*
X0156404Y0100319D01*
X0156540Y0100672D01*
X0156685Y0101022D01*
X0156839Y0101369D01*
X0157000Y0101712D01*
X0157170Y0102050D01*
X0157347Y0102385D01*
X0157533Y0102715D01*
X0157726Y0103041D01*
X0157927Y0103363D01*
X0158136Y0103679D01*
X0158352Y0103990D01*
X0158576Y0104296D01*
X0158806Y0104597D01*
X0159044Y0104892D01*
X0159289Y0105181D01*
X0159540Y0105464D01*
X0159798Y0105742D01*
X0160063Y0106013D01*
X0172321Y0118271D01*
X0174200Y0122808D02*
X0174200Y0125299D01*
X0174200Y0122808D02*
X0174198Y0122651D01*
X0174192Y0122493D01*
X0174183Y0122336D01*
X0174169Y0122179D01*
X0174152Y0122023D01*
X0174131Y0121867D01*
X0174106Y0121711D01*
X0174077Y0121556D01*
X0174044Y0121402D01*
X0174008Y0121249D01*
X0173968Y0121097D01*
X0173924Y0120946D01*
X0173876Y0120795D01*
X0173825Y0120647D01*
X0173770Y0120499D01*
X0173712Y0120353D01*
X0173650Y0120208D01*
X0173584Y0120065D01*
X0173515Y0119923D01*
X0173442Y0119784D01*
X0173366Y0119646D01*
X0173287Y0119510D01*
X0173205Y0119375D01*
X0173119Y0119243D01*
X0173030Y0119114D01*
X0172937Y0118986D01*
X0172842Y0118861D01*
X0172744Y0118738D01*
X0172642Y0118617D01*
X0172538Y0118499D01*
X0172431Y0118384D01*
X0172321Y0118271D01*
X0174200Y0125299D02*
X0174197Y0125543D01*
X0174188Y0125787D01*
X0174174Y0126031D01*
X0174154Y0126275D01*
X0174127Y0126518D01*
X0174096Y0126760D01*
X0174058Y0127001D01*
X0174015Y0127241D01*
X0173965Y0127481D01*
X0173911Y0127719D01*
X0173850Y0127956D01*
X0173784Y0128191D01*
X0173713Y0128424D01*
X0173635Y0128656D01*
X0173553Y0128886D01*
X0173465Y0129114D01*
X0173371Y0129339D01*
X0173272Y0129563D01*
X0173168Y0129784D01*
X0173059Y0130002D01*
X0172944Y0130218D01*
X0172825Y0130431D01*
X0172700Y0130641D01*
X0172571Y0130848D01*
X0172436Y0131052D01*
X0172297Y0131253D01*
X0172153Y0131450D01*
X0172004Y0131644D01*
X0171851Y0131834D01*
X0171693Y0132020D01*
X0171531Y0132203D01*
X0171364Y0132382D01*
X0171194Y0132557D01*
X0171194Y0132556D02*
X0143650Y0160100D01*
X0136600Y0167150D02*
X0136600Y0183600D01*
X0147071Y0170571D02*
X0130250Y0153750D01*
X0100000Y0153750D01*
X0096950Y0150700D01*
X0084900Y0150700D01*
X0077850Y0157750D01*
X0075650Y0159625D01*
X0071250Y0160000D01*
X0086965Y0176835D02*
X0087295Y0176585D01*
X0087619Y0176327D01*
X0087937Y0176061D01*
X0088248Y0175788D01*
X0088552Y0175508D01*
X0088850Y0175221D01*
X0089141Y0174926D01*
X0089425Y0174625D01*
X0089702Y0174317D01*
X0089971Y0174002D01*
X0090233Y0173681D01*
X0090486Y0173354D01*
X0090733Y0173021D01*
X0090971Y0172683D01*
X0091201Y0172339D01*
X0091422Y0171989D01*
X0091636Y0171634D01*
X0091840Y0171274D01*
X0092037Y0170910D01*
X0092224Y0170541D01*
X0092403Y0170167D01*
X0092572Y0169790D01*
X0092733Y0169408D01*
X0092885Y0169023D01*
X0093027Y0168634D01*
X0093160Y0168242D01*
X0093284Y0167847D01*
X0093398Y0167449D01*
X0093502Y0167048D01*
X0093598Y0166646D01*
X0093683Y0166240D01*
X0093759Y0165833D01*
X0093825Y0165425D01*
X0093500Y0163300D01*
X0087250Y0155400D02*
X0073150Y0169500D01*
X0071250Y0170000D01*
X0086965Y0176835D02*
X0075500Y0188300D01*
X0073775Y0190175D01*
X0071250Y0190000D01*
X0081875Y0203400D02*
X0081875Y0208439D01*
X0076569Y0218859D02*
X0075000Y0220000D01*
X0071250Y0220000D01*
X0068538Y0232500D02*
X0068180Y0232496D01*
X0067823Y0232482D01*
X0067466Y0232461D01*
X0067109Y0232430D01*
X0066754Y0232390D01*
X0066399Y0232342D01*
X0066046Y0232285D01*
X0065694Y0232220D01*
X0065344Y0232146D01*
X0064996Y0232063D01*
X0064650Y0231972D01*
X0064307Y0231872D01*
X0063965Y0231764D01*
X0063627Y0231648D01*
X0063292Y0231523D01*
X0062960Y0231390D01*
X0062631Y0231249D01*
X0062306Y0231100D01*
X0061984Y0230944D01*
X0061666Y0230779D01*
X0061353Y0230606D01*
X0061044Y0230426D01*
X0060739Y0230238D01*
X0060439Y0230043D01*
X0060144Y0229841D01*
X0059854Y0229631D01*
X0059570Y0229415D01*
X0059290Y0229191D01*
X0059017Y0228961D01*
X0058749Y0228724D01*
X0058487Y0228480D01*
X0058231Y0228230D01*
X0058230Y0228230D02*
X0057929Y0227929D01*
X0055000Y0220858D02*
X0055000Y0151348D01*
X0048744Y0136244D02*
X0045000Y0132500D01*
X0036563Y0126264D01*
X0036340Y0126095D01*
X0036121Y0125921D01*
X0035906Y0125741D01*
X0035696Y0125556D01*
X0035490Y0125367D01*
X0035289Y0125172D01*
X0035092Y0124973D01*
X0034901Y0124769D01*
X0034714Y0124560D01*
X0034532Y0124347D01*
X0034356Y0124129D01*
X0034185Y0123908D01*
X0034019Y0123682D01*
X0033859Y0123453D01*
X0033705Y0123219D01*
X0033556Y0122982D01*
X0033412Y0122742D01*
X0033275Y0122498D01*
X0033144Y0122251D01*
X0033018Y0122000D01*
X0032899Y0121747D01*
X0032786Y0121491D01*
X0032678Y0121233D01*
X0032578Y0120971D01*
X0032483Y0120708D01*
X0032395Y0120442D01*
X0032313Y0120174D01*
X0032238Y0119905D01*
X0032169Y0119634D01*
X0032107Y0119361D01*
X0032052Y0119086D01*
X0032003Y0118811D01*
X0031960Y0118534D01*
X0031925Y0118256D01*
X0031896Y0117978D01*
X0031873Y0117699D01*
X0031858Y0117419D01*
X0031849Y0117139D01*
X0031847Y0116860D01*
X0031852Y0116580D01*
X0031863Y0116300D01*
X0031881Y0116021D01*
X0031906Y0115742D01*
X0031938Y0115464D01*
X0031976Y0115186D01*
X0032021Y0114910D01*
X0032073Y0114635D01*
X0034271Y0111235D02*
X0036875Y0109375D01*
X0041250Y0108750D01*
X0034271Y0111234D02*
X0034156Y0111319D01*
X0034043Y0111407D01*
X0033932Y0111497D01*
X0033824Y0111590D01*
X0033718Y0111686D01*
X0033615Y0111785D01*
X0033514Y0111887D01*
X0033416Y0111991D01*
X0033321Y0112097D01*
X0033228Y0112206D01*
X0033139Y0112318D01*
X0033052Y0112431D01*
X0032968Y0112547D01*
X0032887Y0112665D01*
X0032810Y0112785D01*
X0032735Y0112907D01*
X0032664Y0113031D01*
X0032596Y0113157D01*
X0032531Y0113284D01*
X0032470Y0113413D01*
X0032412Y0113544D01*
X0032357Y0113676D01*
X0032306Y0113810D01*
X0032258Y0113944D01*
X0032214Y0114080D01*
X0032173Y0114218D01*
X0032136Y0114356D01*
X0032103Y0114495D01*
X0032073Y0114634D01*
X0061400Y0120150D02*
X0058900Y0032275D01*
X0033750Y0021250D02*
X0015000Y0030000D01*
X0071250Y0058750D02*
X0075000Y0060000D01*
X0075625Y0060000D01*
X0087513Y0071888D01*
X0095026Y0075000D02*
X0132535Y0075000D01*
X0139944Y0078069D02*
X0146250Y0084375D01*
X0155400Y0094755D02*
X0155400Y0059050D01*
X0153050Y0056700D01*
X0153050Y0044950D01*
X0139943Y0078069D02*
X0139765Y0077894D01*
X0139582Y0077725D01*
X0139396Y0077559D01*
X0139206Y0077398D01*
X0139011Y0077242D01*
X0138814Y0077090D01*
X0138612Y0076943D01*
X0138407Y0076800D01*
X0138199Y0076663D01*
X0137988Y0076531D01*
X0137773Y0076404D01*
X0137556Y0076282D01*
X0137336Y0076165D01*
X0137113Y0076053D01*
X0136887Y0075947D01*
X0136659Y0075846D01*
X0136429Y0075750D01*
X0136196Y0075661D01*
X0135962Y0075576D01*
X0135725Y0075497D01*
X0135487Y0075424D01*
X0135247Y0075357D01*
X0135005Y0075295D01*
X0134762Y0075239D01*
X0134518Y0075189D01*
X0134272Y0075145D01*
X0134026Y0075107D01*
X0133779Y0075074D01*
X0133531Y0075047D01*
X0133282Y0075027D01*
X0133034Y0075012D01*
X0132784Y0075003D01*
X0132535Y0075000D01*
X0126663Y0099000D02*
X0073150Y0099000D01*
X0071250Y0098750D01*
X0071250Y0088750D02*
X0074933Y0088750D01*
X0087513Y0071888D02*
X0087694Y0072065D01*
X0087879Y0072237D01*
X0088068Y0072405D01*
X0088261Y0072568D01*
X0088458Y0072727D01*
X0088659Y0072881D01*
X0088863Y0073030D01*
X0089071Y0073174D01*
X0089282Y0073313D01*
X0089496Y0073447D01*
X0089713Y0073577D01*
X0089934Y0073700D01*
X0090157Y0073819D01*
X0090383Y0073932D01*
X0090612Y0074040D01*
X0090843Y0074142D01*
X0091077Y0074239D01*
X0091313Y0074330D01*
X0091551Y0074416D01*
X0091791Y0074495D01*
X0092033Y0074570D01*
X0092276Y0074638D01*
X0092521Y0074700D01*
X0092767Y0074757D01*
X0093015Y0074808D01*
X0093264Y0074853D01*
X0093514Y0074892D01*
X0093765Y0074925D01*
X0094016Y0074952D01*
X0094268Y0074973D01*
X0094520Y0074988D01*
X0094773Y0074997D01*
X0095026Y0075000D01*
X0073775Y0118275D02*
X0071250Y0118750D01*
X0073775Y0118275D02*
X0074725Y0118900D01*
X0097212Y0139512D01*
X0107203Y0143650D02*
X0113100Y0143650D01*
X0113804Y0143750D01*
X0107203Y0143650D02*
X0106856Y0143646D01*
X0106510Y0143633D01*
X0106164Y0143612D01*
X0105818Y0143582D01*
X0105473Y0143544D01*
X0105130Y0143497D01*
X0104787Y0143442D01*
X0104446Y0143378D01*
X0104107Y0143307D01*
X0103770Y0143227D01*
X0103434Y0143138D01*
X0103101Y0143042D01*
X0102771Y0142937D01*
X0102443Y0142824D01*
X0102118Y0142703D01*
X0101796Y0142574D01*
X0101477Y0142438D01*
X0101162Y0142293D01*
X0100850Y0142141D01*
X0100542Y0141982D01*
X0100238Y0141814D01*
X0099939Y0141640D01*
X0099643Y0141458D01*
X0099353Y0141269D01*
X0099067Y0141072D01*
X0098786Y0140869D01*
X0098510Y0140659D01*
X0098239Y0140443D01*
X0097974Y0140219D01*
X0097714Y0139990D01*
X0097460Y0139754D01*
X0097212Y0139511D01*
X0080200Y0140692D02*
X0080200Y0148350D01*
X0080200Y0140692D02*
X0080197Y0140450D01*
X0080188Y0140207D01*
X0080173Y0139965D01*
X0080152Y0139724D01*
X0080126Y0139483D01*
X0080093Y0139242D01*
X0080055Y0139003D01*
X0080010Y0138765D01*
X0079960Y0138527D01*
X0079904Y0138292D01*
X0079842Y0138057D01*
X0079775Y0137824D01*
X0079701Y0137593D01*
X0079623Y0137364D01*
X0079538Y0137137D01*
X0079448Y0136911D01*
X0079352Y0136689D01*
X0079252Y0136468D01*
X0079145Y0136250D01*
X0079034Y0136035D01*
X0078917Y0135823D01*
X0078795Y0135613D01*
X0078667Y0135407D01*
X0078535Y0135204D01*
X0078398Y0135004D01*
X0078256Y0134807D01*
X0078109Y0134614D01*
X0077958Y0134425D01*
X0077801Y0134239D01*
X0077641Y0134058D01*
X0077476Y0133880D01*
X0077307Y0133706D01*
X0077306Y0133706D02*
X0066575Y0124850D01*
X0066100Y0124850D01*
X0061400Y0120150D01*
X0048744Y0136244D02*
X0049110Y0136619D01*
X0049467Y0137003D01*
X0049814Y0137396D01*
X0050152Y0137797D01*
X0050479Y0138207D01*
X0050797Y0138624D01*
X0051104Y0139049D01*
X0051400Y0139481D01*
X0051686Y0139920D01*
X0051961Y0140367D01*
X0052225Y0140820D01*
X0052478Y0141279D01*
X0052719Y0141744D01*
X0052949Y0142215D01*
X0053168Y0142692D01*
X0053374Y0143174D01*
X0053569Y0143661D01*
X0053751Y0144152D01*
X0053922Y0144648D01*
X0054080Y0145148D01*
X0054226Y0145651D01*
X0054360Y0146158D01*
X0054481Y0146668D01*
X0054590Y0147181D01*
X0054686Y0147696D01*
X0054769Y0148214D01*
X0054839Y0148733D01*
X0054897Y0149254D01*
X0054942Y0149777D01*
X0054974Y0150300D01*
X0054994Y0150824D01*
X0055000Y0151348D01*
X0090000Y0185000D02*
X0087172Y0188481D01*
X0090000Y0185000D02*
X0093500Y0185000D01*
X0087172Y0188481D02*
X0086814Y0188933D01*
X0086467Y0189393D01*
X0086131Y0189862D01*
X0085807Y0190339D01*
X0085495Y0190823D01*
X0085194Y0191315D01*
X0084906Y0191814D01*
X0084630Y0192320D01*
X0084366Y0192833D01*
X0084115Y0193352D01*
X0083876Y0193877D01*
X0083651Y0194407D01*
X0083438Y0194943D01*
X0083239Y0195484D01*
X0083052Y0196030D01*
X0082879Y0196580D01*
X0082720Y0197134D01*
X0082574Y0197692D01*
X0082442Y0198253D01*
X0082323Y0198817D01*
X0082218Y0199384D01*
X0082127Y0199953D01*
X0082050Y0200524D01*
X0081987Y0201098D01*
X0081938Y0201672D01*
X0081903Y0202247D01*
X0081882Y0202824D01*
X0081875Y0203400D01*
X0081875Y0208439D02*
X0081871Y0208750D01*
X0081860Y0209061D01*
X0081841Y0209372D01*
X0081815Y0209682D01*
X0081781Y0209991D01*
X0081740Y0210300D01*
X0081691Y0210607D01*
X0081635Y0210913D01*
X0081572Y0211218D01*
X0081501Y0211521D01*
X0081423Y0211822D01*
X0081338Y0212122D01*
X0081245Y0212419D01*
X0081145Y0212714D01*
X0081039Y0213006D01*
X0080925Y0213296D01*
X0080804Y0213582D01*
X0080676Y0213866D01*
X0080542Y0214147D01*
X0080401Y0214424D01*
X0080253Y0214698D01*
X0080098Y0214968D01*
X0079937Y0215235D01*
X0079770Y0215497D01*
X0079596Y0215755D01*
X0079417Y0216009D01*
X0079231Y0216259D01*
X0079039Y0216504D01*
X0078841Y0216744D01*
X0078638Y0216980D01*
X0078429Y0217210D01*
X0078214Y0217436D01*
X0077994Y0217656D01*
X0077769Y0217871D01*
X0077538Y0218080D01*
X0077303Y0218284D01*
X0077063Y0218481D01*
X0076818Y0218673D01*
X0076569Y0218860D01*
X0057929Y0227929D02*
X0057763Y0227759D01*
X0057600Y0227585D01*
X0057443Y0227407D01*
X0057289Y0227225D01*
X0057139Y0227040D01*
X0056995Y0226851D01*
X0056854Y0226659D01*
X0056719Y0226463D01*
X0056587Y0226264D01*
X0056461Y0226063D01*
X0056340Y0225858D01*
X0056223Y0225650D01*
X0056112Y0225440D01*
X0056005Y0225227D01*
X0055904Y0225012D01*
X0055807Y0224795D01*
X0055716Y0224575D01*
X0055631Y0224353D01*
X0055550Y0224129D01*
X0055475Y0223903D01*
X0055405Y0223675D01*
X0055341Y0223446D01*
X0055282Y0223216D01*
X0055229Y0222984D01*
X0055181Y0222751D01*
X0055138Y0222516D01*
X0055102Y0222281D01*
X0055071Y0222045D01*
X0055045Y0221809D01*
X0055025Y0221571D01*
X0055011Y0221334D01*
X0055003Y0221096D01*
X0055000Y0220858D01*
X0068538Y0232500D02*
X0126250Y0232500D01*
X0140625Y0212500D02*
X0151428Y0199822D01*
X0170355Y0195000D02*
X0187929Y0195000D01*
X0191464Y0193536D02*
X0205000Y0180000D01*
X0186500Y0185000D02*
X0185950Y0183600D01*
X0181626Y0179276D01*
X0175045Y0176550D02*
X0161505Y0176550D01*
X0175045Y0176550D02*
X0175266Y0176553D01*
X0175488Y0176561D01*
X0175709Y0176574D01*
X0175930Y0176592D01*
X0176150Y0176616D01*
X0176370Y0176645D01*
X0176588Y0176679D01*
X0176806Y0176718D01*
X0177023Y0176763D01*
X0177239Y0176812D01*
X0177454Y0176867D01*
X0177667Y0176927D01*
X0177879Y0176992D01*
X0178089Y0177062D01*
X0178297Y0177137D01*
X0178504Y0177217D01*
X0178709Y0177301D01*
X0178911Y0177391D01*
X0179112Y0177485D01*
X0179310Y0177585D01*
X0179505Y0177688D01*
X0179699Y0177797D01*
X0179889Y0177910D01*
X0180077Y0178027D01*
X0180262Y0178149D01*
X0180444Y0178276D01*
X0180622Y0178406D01*
X0180798Y0178541D01*
X0180971Y0178680D01*
X0181140Y0178823D01*
X0181305Y0178970D01*
X0181468Y0179121D01*
X0181626Y0179276D01*
X0187929Y0195000D02*
X0188069Y0194998D01*
X0188209Y0194992D01*
X0188349Y0194982D01*
X0188489Y0194969D01*
X0188628Y0194951D01*
X0188767Y0194929D01*
X0188904Y0194904D01*
X0189042Y0194875D01*
X0189178Y0194842D01*
X0189313Y0194805D01*
X0189447Y0194764D01*
X0189580Y0194719D01*
X0189712Y0194671D01*
X0189842Y0194619D01*
X0189971Y0194564D01*
X0190098Y0194505D01*
X0190224Y0194442D01*
X0190348Y0194376D01*
X0190469Y0194307D01*
X0190589Y0194234D01*
X0190707Y0194157D01*
X0190822Y0194078D01*
X0190936Y0193995D01*
X0191046Y0193909D01*
X0191155Y0193820D01*
X0191261Y0193728D01*
X0191364Y0193633D01*
X0191465Y0193536D01*
X0170356Y0195000D02*
X0169754Y0194921D01*
X0169150Y0194856D01*
X0168545Y0194805D01*
X0167938Y0194768D01*
X0167331Y0194746D01*
X0166724Y0194739D01*
X0166117Y0194746D01*
X0165510Y0194767D01*
X0164903Y0194803D01*
X0164298Y0194854D01*
X0163694Y0194918D01*
X0163092Y0194997D01*
X0162492Y0195091D01*
X0161894Y0195198D01*
X0161299Y0195320D01*
X0160707Y0195456D01*
X0160119Y0195606D01*
X0159534Y0195770D01*
X0158953Y0195947D01*
X0158377Y0196139D01*
X0157805Y0196344D01*
X0157238Y0196563D01*
X0156677Y0196795D01*
X0156122Y0197041D01*
X0155572Y0197299D01*
X0155029Y0197571D01*
X0154492Y0197855D01*
X0153963Y0198153D01*
X0153440Y0198462D01*
X0152925Y0198784D01*
X0152418Y0199118D01*
X0151919Y0199465D01*
X0151428Y0199823D01*
X0161505Y0176550D02*
X0161019Y0176544D01*
X0160534Y0176527D01*
X0160049Y0176498D01*
X0159565Y0176458D01*
X0159082Y0176406D01*
X0158600Y0176342D01*
X0158120Y0176267D01*
X0157642Y0176181D01*
X0157166Y0176083D01*
X0156692Y0175975D01*
X0156222Y0175854D01*
X0155754Y0175723D01*
X0155290Y0175581D01*
X0154829Y0175427D01*
X0154371Y0175263D01*
X0153918Y0175088D01*
X0153469Y0174902D01*
X0153025Y0174705D01*
X0152586Y0174498D01*
X0152151Y0174281D01*
X0151722Y0174053D01*
X0151298Y0173815D01*
X0150881Y0173567D01*
X0150469Y0173310D01*
X0150063Y0173042D01*
X0149664Y0172765D01*
X0149272Y0172478D01*
X0148887Y0172183D01*
X0148508Y0171878D01*
X0148137Y0171564D01*
X0147774Y0171242D01*
X0147418Y0170911D01*
X0147071Y0170571D01*
X0146875Y0143750D02*
X0148350Y0143650D01*
X0150493Y0141507D01*
X0155400Y0129660D02*
X0155400Y0117800D01*
X0143627Y0106027D01*
X0143206Y0105616D01*
X0142774Y0105215D01*
X0142333Y0104825D01*
X0141883Y0104446D01*
X0141423Y0104078D01*
X0140954Y0103721D01*
X0140477Y0103376D01*
X0139992Y0103043D01*
X0139498Y0102722D01*
X0138997Y0102413D01*
X0138488Y0102117D01*
X0137972Y0101833D01*
X0137450Y0101562D01*
X0136920Y0101303D01*
X0136385Y0101058D01*
X0135844Y0100826D01*
X0135297Y0100608D01*
X0134745Y0100402D01*
X0134189Y0100211D01*
X0133627Y0100033D01*
X0133062Y0099869D01*
X0132492Y0099719D01*
X0131919Y0099583D01*
X0131343Y0099461D01*
X0130765Y0099353D01*
X0130183Y0099260D01*
X0129600Y0099180D01*
X0129015Y0099116D01*
X0128428Y0099065D01*
X0127840Y0099029D01*
X0127252Y0099007D01*
X0126663Y0099000D01*
X0155400Y0129660D02*
X0155395Y0130071D01*
X0155380Y0130482D01*
X0155355Y0130893D01*
X0155319Y0131302D01*
X0155274Y0131711D01*
X0155219Y0132118D01*
X0155153Y0132524D01*
X0155078Y0132929D01*
X0154993Y0133331D01*
X0154898Y0133731D01*
X0154793Y0134129D01*
X0154679Y0134524D01*
X0154554Y0134916D01*
X0154421Y0135305D01*
X0154277Y0135690D01*
X0154125Y0136072D01*
X0153963Y0136450D01*
X0153791Y0136824D01*
X0153611Y0137193D01*
X0153422Y0137558D01*
X0153223Y0137919D01*
X0153016Y0138274D01*
X0152801Y0138624D01*
X0152576Y0138969D01*
X0152344Y0139308D01*
X0152103Y0139641D01*
X0151854Y0139968D01*
X0151597Y0140289D01*
X0151332Y0140604D01*
X0151060Y0140912D01*
X0150780Y0141213D01*
X0150493Y0141508D01*
X0110000Y0185000D02*
X0110000Y0201250D01*
D22*
X0126250Y0232500D03*
D23*
X0140625Y0212500D03*
D24*
X0195000Y0110000D02*
X0195000Y0091153D01*
X0187114Y0072114D02*
X0186490Y0071490D01*
X0187114Y0072113D02*
X0187561Y0072572D01*
X0187998Y0073041D01*
X0188423Y0073520D01*
X0188837Y0074009D01*
X0189239Y0074508D01*
X0189629Y0075017D01*
X0190007Y0075534D01*
X0190373Y0076061D01*
X0190726Y0076596D01*
X0191066Y0077139D01*
X0191393Y0077690D01*
X0191706Y0078249D01*
X0192007Y0078815D01*
X0192294Y0079388D01*
X0192567Y0079968D01*
X0192826Y0080554D01*
X0193071Y0081146D01*
X0193302Y0081743D01*
X0193519Y0082346D01*
X0193721Y0082954D01*
X0193909Y0083567D01*
X0194083Y0084184D01*
X0194241Y0084805D01*
X0194385Y0085429D01*
X0194513Y0086057D01*
X0194627Y0086688D01*
X0194726Y0087321D01*
X0194810Y0087956D01*
X0194878Y0088594D01*
X0194931Y0089232D01*
X0194970Y0089872D01*
X0194992Y0090512D01*
X0195000Y0091153D01*
X0195000Y0110000D02*
X0195003Y0110242D01*
X0195012Y0110483D01*
X0195026Y0110724D01*
X0195047Y0110965D01*
X0195073Y0111205D01*
X0195105Y0111445D01*
X0195143Y0111684D01*
X0195186Y0111921D01*
X0195236Y0112158D01*
X0195291Y0112393D01*
X0195351Y0112627D01*
X0195418Y0112859D01*
X0195489Y0113090D01*
X0195567Y0113319D01*
X0195650Y0113546D01*
X0195738Y0113771D01*
X0195832Y0113994D01*
X0195931Y0114214D01*
X0196036Y0114432D01*
X0196145Y0114647D01*
X0196260Y0114860D01*
X0196380Y0115070D01*
X0196505Y0115276D01*
X0196635Y0115480D01*
X0196770Y0115681D01*
X0196910Y0115878D01*
X0197054Y0116072D01*
X0197203Y0116262D01*
X0197357Y0116448D01*
X0197515Y0116631D01*
X0197677Y0116810D01*
X0197844Y0116985D01*
X0198015Y0117156D01*
X0198190Y0117323D01*
X0198369Y0117485D01*
X0198552Y0117643D01*
X0198738Y0117797D01*
X0198928Y0117946D01*
X0199122Y0118090D01*
X0199319Y0118230D01*
X0199520Y0118365D01*
X0199724Y0118495D01*
X0199930Y0118620D01*
X0200140Y0118740D01*
X0200353Y0118855D01*
X0200568Y0118964D01*
X0200786Y0119069D01*
X0201006Y0119168D01*
X0201229Y0119262D01*
X0201454Y0119350D01*
X0201681Y0119433D01*
X0201910Y0119511D01*
X0202141Y0119582D01*
X0202373Y0119649D01*
X0202607Y0119709D01*
X0202842Y0119764D01*
X0203079Y0119814D01*
X0203316Y0119857D01*
X0203555Y0119895D01*
X0203795Y0119927D01*
X0204035Y0119953D01*
X0204276Y0119974D01*
X0204517Y0119988D01*
X0204758Y0119997D01*
X0205000Y0120000D01*
X0186490Y0071491D02*
X0185838Y0070822D01*
X0185202Y0070139D01*
X0184582Y0069441D01*
X0183979Y0068728D01*
X0183393Y0068001D01*
X0182825Y0067260D01*
X0182274Y0066506D01*
X0181742Y0065739D01*
X0181228Y0064960D01*
X0180732Y0064168D01*
X0180256Y0063366D01*
X0179799Y0062551D01*
X0179361Y0061727D01*
X0178943Y0060892D01*
X0178545Y0060047D01*
X0178168Y0059193D01*
X0177810Y0058331D01*
X0177474Y0057460D01*
X0177158Y0056581D01*
X0176863Y0055695D01*
X0176589Y0054803D01*
X0176337Y0053904D01*
X0176106Y0052999D01*
X0175897Y0052089D01*
X0175709Y0051175D01*
X0175543Y0050256D01*
X0175399Y0049333D01*
X0175277Y0048407D01*
X0175178Y0047479D01*
X0175100Y0046549D01*
X0175044Y0045617D01*
X0175011Y0044684D01*
X0175000Y0043750D01*
X0174996Y0043448D01*
X0174985Y0043146D01*
X0174967Y0042845D01*
X0174942Y0042544D01*
X0174909Y0042243D01*
X0174869Y0041944D01*
X0174822Y0041646D01*
X0174767Y0041348D01*
X0174706Y0041053D01*
X0174637Y0040759D01*
X0174561Y0040466D01*
X0174478Y0040176D01*
X0174388Y0039887D01*
X0174291Y0039601D01*
X0174188Y0039317D01*
X0174077Y0039036D01*
X0173960Y0038758D01*
X0173836Y0038482D01*
X0173705Y0038210D01*
X0173568Y0037941D01*
X0173425Y0037675D01*
X0173275Y0037413D01*
X0173118Y0037154D01*
X0172956Y0036900D01*
X0172787Y0036649D01*
X0172613Y0036403D01*
X0172432Y0036160D01*
X0172246Y0035923D01*
X0172054Y0035689D01*
X0171856Y0035461D01*
X0171653Y0035237D01*
X0171445Y0035019D01*
X0171231Y0034805D01*
X0171013Y0034597D01*
X0170789Y0034394D01*
X0170561Y0034196D01*
X0170327Y0034004D01*
X0170090Y0033818D01*
X0169847Y0033637D01*
X0169601Y0033463D01*
X0169350Y0033294D01*
X0169096Y0033132D01*
X0168837Y0032975D01*
X0168575Y0032825D01*
X0168309Y0032682D01*
X0168040Y0032545D01*
X0167768Y0032414D01*
X0167492Y0032290D01*
X0167214Y0032173D01*
X0166933Y0032062D01*
X0166649Y0031959D01*
X0166363Y0031862D01*
X0166074Y0031772D01*
X0165784Y0031689D01*
X0165491Y0031613D01*
X0165197Y0031544D01*
X0164902Y0031483D01*
X0164604Y0031428D01*
X0164306Y0031381D01*
X0164007Y0031341D01*
X0163706Y0031308D01*
X0163405Y0031283D01*
X0163104Y0031265D01*
X0162802Y0031254D01*
X0162500Y0031250D01*
X0088125Y0031250D01*
X0088125Y0018750D01*
X0078125Y0018750D02*
X0078125Y0031250D01*
X0088125Y0031250D01*
X0078125Y0031250D02*
X0066250Y0031250D01*
X0066100Y0031158D01*
X0065952Y0031062D01*
X0065807Y0030962D01*
X0065664Y0030859D01*
X0065524Y0030753D01*
X0065386Y0030643D01*
X0065251Y0030530D01*
X0065119Y0030413D01*
X0064989Y0030294D01*
X0064863Y0030171D01*
X0064740Y0030046D01*
X0064619Y0029917D01*
X0064502Y0029785D01*
X0064388Y0029651D01*
X0064277Y0029514D01*
X0064170Y0029375D01*
X0064066Y0029233D01*
X0063965Y0029088D01*
X0063868Y0028941D01*
X0063775Y0028792D01*
X0063685Y0028640D01*
X0063599Y0028486D01*
X0063516Y0028331D01*
X0063438Y0028173D01*
X0063363Y0028014D01*
X0063292Y0027852D01*
X0063225Y0027689D01*
X0063162Y0027525D01*
X0063103Y0027359D01*
X0063048Y0027192D01*
X0062997Y0027023D01*
X0062951Y0026853D01*
X0062908Y0026682D01*
X0062869Y0026510D01*
X0062835Y0026338D01*
X0062805Y0026164D01*
X0062779Y0025990D01*
X0062757Y0025815D01*
X0062739Y0025640D01*
X0062726Y0025464D01*
X0062717Y0025288D01*
X0062712Y0025112D01*
X0062711Y0024936D01*
X0062715Y0024760D01*
X0062723Y0024584D01*
X0062735Y0024408D01*
X0062751Y0024233D01*
X0062772Y0024058D01*
X0062797Y0023884D01*
X0062826Y0023710D01*
X0062859Y0023537D01*
X0062897Y0023365D01*
X0062938Y0023194D01*
X0062984Y0023024D01*
X0063034Y0022855D01*
X0063088Y0022687D01*
X0063146Y0022521D01*
X0063208Y0022356D01*
X0063273Y0022192D01*
X0063343Y0022031D01*
X0063417Y0021871D01*
X0063495Y0021712D01*
X0063576Y0021556D01*
X0063661Y0021402D01*
X0063750Y0021250D01*
D25*
X0058900Y0032275D03*
X0153050Y0044950D03*
X0080200Y0148350D03*
X0087250Y0155400D03*
X0136600Y0167150D03*
X0143650Y0160100D03*
X0136600Y0183600D03*
X0190000Y0171500D03*
D26*
X0194260Y0167240D01*
X0195509Y0163368D02*
X0194925Y0159775D01*
X0195509Y0163368D02*
X0195528Y0163498D01*
X0195544Y0163629D01*
X0195555Y0163761D01*
X0195563Y0163893D01*
X0195567Y0164025D01*
X0195566Y0164157D01*
X0195562Y0164289D01*
X0195554Y0164420D01*
X0195542Y0164552D01*
X0195527Y0164683D01*
X0195507Y0164813D01*
X0195483Y0164943D01*
X0195456Y0165072D01*
X0195425Y0165201D01*
X0195390Y0165328D01*
X0195351Y0165454D01*
X0195309Y0165579D01*
X0195263Y0165703D01*
X0195213Y0165825D01*
X0195160Y0165946D01*
X0195103Y0166065D01*
X0195043Y0166183D01*
X0194979Y0166298D01*
X0194912Y0166412D01*
X0194841Y0166524D01*
X0194767Y0166633D01*
X0194690Y0166740D01*
X0194610Y0166845D01*
X0194527Y0166948D01*
X0194441Y0167048D01*
X0194352Y0167145D01*
X0194260Y0167240D01*
X0194925Y0159775D02*
X0194425Y0159248D01*
X0193938Y0158709D01*
X0193464Y0158159D01*
X0193003Y0157598D01*
X0192556Y0157026D01*
X0192122Y0156443D01*
X0191702Y0155850D01*
X0191296Y0155248D01*
X0190905Y0154636D01*
X0190529Y0154015D01*
X0190167Y0153385D01*
X0189821Y0152746D01*
X0189490Y0152100D01*
X0189174Y0151446D01*
X0188874Y0150784D01*
X0188590Y0150116D01*
X0188322Y0149441D01*
X0188070Y0148760D01*
X0187834Y0148073D01*
X0187615Y0147380D01*
X0187412Y0146683D01*
X0187226Y0145981D01*
X0187056Y0145275D01*
X0186904Y0144565D01*
X0186768Y0143851D01*
X0186649Y0143134D01*
X0186548Y0142415D01*
X0186464Y0141694D01*
X0186396Y0140971D01*
X0186346Y0140246D01*
X0186314Y0139521D01*
X0186298Y0138794D01*
X0186300Y0138068D01*
X0186300Y0138069D02*
X0186300Y0130800D01*
X0184500Y0130000D01*
M02*
