G75*
%MOIN*%
%OFA0B0*%
%FSLAX25Y25*%
%IPPOS*%
%LPD*%
%AMOC8*
5,1,8,0,0,1.08239X$1,22.5*
%
%ADD10C,0.00000*%
%ADD11C,0.01000*%
%ADD12C,0.01200*%
%ADD13C,0.07800*%
%ADD14C,0.00500*%
%ADD15C,0.05600*%
%ADD16OC8,0.10400*%
%ADD17R,0.10400X0.10400*%
%ADD18C,0.12211*%
D10*
X0005000Y0005000D02*
X0015000Y0005000D01*
X0208701Y0005000D01*
X0185959Y0016250D02*
X0185961Y0016403D01*
X0185967Y0016557D01*
X0185977Y0016710D01*
X0185991Y0016862D01*
X0186009Y0017015D01*
X0186031Y0017166D01*
X0186056Y0017317D01*
X0186086Y0017468D01*
X0186120Y0017618D01*
X0186157Y0017766D01*
X0186198Y0017914D01*
X0186243Y0018060D01*
X0186292Y0018206D01*
X0186345Y0018350D01*
X0186401Y0018492D01*
X0186461Y0018633D01*
X0186525Y0018773D01*
X0186592Y0018911D01*
X0186663Y0019047D01*
X0186738Y0019181D01*
X0186815Y0019313D01*
X0186897Y0019443D01*
X0186981Y0019571D01*
X0187069Y0019697D01*
X0187160Y0019820D01*
X0187254Y0019941D01*
X0187352Y0020059D01*
X0187452Y0020175D01*
X0187556Y0020288D01*
X0187662Y0020399D01*
X0187771Y0020507D01*
X0187883Y0020612D01*
X0187997Y0020713D01*
X0188115Y0020812D01*
X0188234Y0020908D01*
X0188356Y0021001D01*
X0188481Y0021090D01*
X0188608Y0021177D01*
X0188737Y0021259D01*
X0188868Y0021339D01*
X0189001Y0021415D01*
X0189136Y0021488D01*
X0189273Y0021557D01*
X0189412Y0021622D01*
X0189552Y0021684D01*
X0189694Y0021742D01*
X0189837Y0021797D01*
X0189982Y0021848D01*
X0190128Y0021895D01*
X0190275Y0021938D01*
X0190423Y0021977D01*
X0190572Y0022013D01*
X0190722Y0022044D01*
X0190873Y0022072D01*
X0191024Y0022096D01*
X0191177Y0022116D01*
X0191329Y0022132D01*
X0191482Y0022144D01*
X0191635Y0022152D01*
X0191788Y0022156D01*
X0191942Y0022156D01*
X0192095Y0022152D01*
X0192248Y0022144D01*
X0192401Y0022132D01*
X0192553Y0022116D01*
X0192706Y0022096D01*
X0192857Y0022072D01*
X0193008Y0022044D01*
X0193158Y0022013D01*
X0193307Y0021977D01*
X0193455Y0021938D01*
X0193602Y0021895D01*
X0193748Y0021848D01*
X0193893Y0021797D01*
X0194036Y0021742D01*
X0194178Y0021684D01*
X0194318Y0021622D01*
X0194457Y0021557D01*
X0194594Y0021488D01*
X0194729Y0021415D01*
X0194862Y0021339D01*
X0194993Y0021259D01*
X0195122Y0021177D01*
X0195249Y0021090D01*
X0195374Y0021001D01*
X0195496Y0020908D01*
X0195615Y0020812D01*
X0195733Y0020713D01*
X0195847Y0020612D01*
X0195959Y0020507D01*
X0196068Y0020399D01*
X0196174Y0020288D01*
X0196278Y0020175D01*
X0196378Y0020059D01*
X0196476Y0019941D01*
X0196570Y0019820D01*
X0196661Y0019697D01*
X0196749Y0019571D01*
X0196833Y0019443D01*
X0196915Y0019313D01*
X0196992Y0019181D01*
X0197067Y0019047D01*
X0197138Y0018911D01*
X0197205Y0018773D01*
X0197269Y0018633D01*
X0197329Y0018492D01*
X0197385Y0018350D01*
X0197438Y0018206D01*
X0197487Y0018060D01*
X0197532Y0017914D01*
X0197573Y0017766D01*
X0197610Y0017618D01*
X0197644Y0017468D01*
X0197674Y0017317D01*
X0197699Y0017166D01*
X0197721Y0017015D01*
X0197739Y0016862D01*
X0197753Y0016710D01*
X0197763Y0016557D01*
X0197769Y0016403D01*
X0197771Y0016250D01*
X0197769Y0016097D01*
X0197763Y0015943D01*
X0197753Y0015790D01*
X0197739Y0015638D01*
X0197721Y0015485D01*
X0197699Y0015334D01*
X0197674Y0015183D01*
X0197644Y0015032D01*
X0197610Y0014882D01*
X0197573Y0014734D01*
X0197532Y0014586D01*
X0197487Y0014440D01*
X0197438Y0014294D01*
X0197385Y0014150D01*
X0197329Y0014008D01*
X0197269Y0013867D01*
X0197205Y0013727D01*
X0197138Y0013589D01*
X0197067Y0013453D01*
X0196992Y0013319D01*
X0196915Y0013187D01*
X0196833Y0013057D01*
X0196749Y0012929D01*
X0196661Y0012803D01*
X0196570Y0012680D01*
X0196476Y0012559D01*
X0196378Y0012441D01*
X0196278Y0012325D01*
X0196174Y0012212D01*
X0196068Y0012101D01*
X0195959Y0011993D01*
X0195847Y0011888D01*
X0195733Y0011787D01*
X0195615Y0011688D01*
X0195496Y0011592D01*
X0195374Y0011499D01*
X0195249Y0011410D01*
X0195122Y0011323D01*
X0194993Y0011241D01*
X0194862Y0011161D01*
X0194729Y0011085D01*
X0194594Y0011012D01*
X0194457Y0010943D01*
X0194318Y0010878D01*
X0194178Y0010816D01*
X0194036Y0010758D01*
X0193893Y0010703D01*
X0193748Y0010652D01*
X0193602Y0010605D01*
X0193455Y0010562D01*
X0193307Y0010523D01*
X0193158Y0010487D01*
X0193008Y0010456D01*
X0192857Y0010428D01*
X0192706Y0010404D01*
X0192553Y0010384D01*
X0192401Y0010368D01*
X0192248Y0010356D01*
X0192095Y0010348D01*
X0191942Y0010344D01*
X0191788Y0010344D01*
X0191635Y0010348D01*
X0191482Y0010356D01*
X0191329Y0010368D01*
X0191177Y0010384D01*
X0191024Y0010404D01*
X0190873Y0010428D01*
X0190722Y0010456D01*
X0190572Y0010487D01*
X0190423Y0010523D01*
X0190275Y0010562D01*
X0190128Y0010605D01*
X0189982Y0010652D01*
X0189837Y0010703D01*
X0189694Y0010758D01*
X0189552Y0010816D01*
X0189412Y0010878D01*
X0189273Y0010943D01*
X0189136Y0011012D01*
X0189001Y0011085D01*
X0188868Y0011161D01*
X0188737Y0011241D01*
X0188608Y0011323D01*
X0188481Y0011410D01*
X0188356Y0011499D01*
X0188234Y0011592D01*
X0188115Y0011688D01*
X0187997Y0011787D01*
X0187883Y0011888D01*
X0187771Y0011993D01*
X0187662Y0012101D01*
X0187556Y0012212D01*
X0187452Y0012325D01*
X0187352Y0012441D01*
X0187254Y0012559D01*
X0187160Y0012680D01*
X0187069Y0012803D01*
X0186981Y0012929D01*
X0186897Y0013057D01*
X0186815Y0013187D01*
X0186738Y0013319D01*
X0186663Y0013453D01*
X0186592Y0013589D01*
X0186525Y0013727D01*
X0186461Y0013867D01*
X0186401Y0014008D01*
X0186345Y0014150D01*
X0186292Y0014294D01*
X0186243Y0014440D01*
X0186198Y0014586D01*
X0186157Y0014734D01*
X0186120Y0014882D01*
X0186086Y0015032D01*
X0186056Y0015183D01*
X0186031Y0015334D01*
X0186009Y0015485D01*
X0185991Y0015638D01*
X0185977Y0015790D01*
X0185967Y0015943D01*
X0185961Y0016097D01*
X0185959Y0016250D01*
X0185959Y0045000D02*
X0185961Y0045153D01*
X0185967Y0045307D01*
X0185977Y0045460D01*
X0185991Y0045612D01*
X0186009Y0045765D01*
X0186031Y0045916D01*
X0186056Y0046067D01*
X0186086Y0046218D01*
X0186120Y0046368D01*
X0186157Y0046516D01*
X0186198Y0046664D01*
X0186243Y0046810D01*
X0186292Y0046956D01*
X0186345Y0047100D01*
X0186401Y0047242D01*
X0186461Y0047383D01*
X0186525Y0047523D01*
X0186592Y0047661D01*
X0186663Y0047797D01*
X0186738Y0047931D01*
X0186815Y0048063D01*
X0186897Y0048193D01*
X0186981Y0048321D01*
X0187069Y0048447D01*
X0187160Y0048570D01*
X0187254Y0048691D01*
X0187352Y0048809D01*
X0187452Y0048925D01*
X0187556Y0049038D01*
X0187662Y0049149D01*
X0187771Y0049257D01*
X0187883Y0049362D01*
X0187997Y0049463D01*
X0188115Y0049562D01*
X0188234Y0049658D01*
X0188356Y0049751D01*
X0188481Y0049840D01*
X0188608Y0049927D01*
X0188737Y0050009D01*
X0188868Y0050089D01*
X0189001Y0050165D01*
X0189136Y0050238D01*
X0189273Y0050307D01*
X0189412Y0050372D01*
X0189552Y0050434D01*
X0189694Y0050492D01*
X0189837Y0050547D01*
X0189982Y0050598D01*
X0190128Y0050645D01*
X0190275Y0050688D01*
X0190423Y0050727D01*
X0190572Y0050763D01*
X0190722Y0050794D01*
X0190873Y0050822D01*
X0191024Y0050846D01*
X0191177Y0050866D01*
X0191329Y0050882D01*
X0191482Y0050894D01*
X0191635Y0050902D01*
X0191788Y0050906D01*
X0191942Y0050906D01*
X0192095Y0050902D01*
X0192248Y0050894D01*
X0192401Y0050882D01*
X0192553Y0050866D01*
X0192706Y0050846D01*
X0192857Y0050822D01*
X0193008Y0050794D01*
X0193158Y0050763D01*
X0193307Y0050727D01*
X0193455Y0050688D01*
X0193602Y0050645D01*
X0193748Y0050598D01*
X0193893Y0050547D01*
X0194036Y0050492D01*
X0194178Y0050434D01*
X0194318Y0050372D01*
X0194457Y0050307D01*
X0194594Y0050238D01*
X0194729Y0050165D01*
X0194862Y0050089D01*
X0194993Y0050009D01*
X0195122Y0049927D01*
X0195249Y0049840D01*
X0195374Y0049751D01*
X0195496Y0049658D01*
X0195615Y0049562D01*
X0195733Y0049463D01*
X0195847Y0049362D01*
X0195959Y0049257D01*
X0196068Y0049149D01*
X0196174Y0049038D01*
X0196278Y0048925D01*
X0196378Y0048809D01*
X0196476Y0048691D01*
X0196570Y0048570D01*
X0196661Y0048447D01*
X0196749Y0048321D01*
X0196833Y0048193D01*
X0196915Y0048063D01*
X0196992Y0047931D01*
X0197067Y0047797D01*
X0197138Y0047661D01*
X0197205Y0047523D01*
X0197269Y0047383D01*
X0197329Y0047242D01*
X0197385Y0047100D01*
X0197438Y0046956D01*
X0197487Y0046810D01*
X0197532Y0046664D01*
X0197573Y0046516D01*
X0197610Y0046368D01*
X0197644Y0046218D01*
X0197674Y0046067D01*
X0197699Y0045916D01*
X0197721Y0045765D01*
X0197739Y0045612D01*
X0197753Y0045460D01*
X0197763Y0045307D01*
X0197769Y0045153D01*
X0197771Y0045000D01*
X0197769Y0044847D01*
X0197763Y0044693D01*
X0197753Y0044540D01*
X0197739Y0044388D01*
X0197721Y0044235D01*
X0197699Y0044084D01*
X0197674Y0043933D01*
X0197644Y0043782D01*
X0197610Y0043632D01*
X0197573Y0043484D01*
X0197532Y0043336D01*
X0197487Y0043190D01*
X0197438Y0043044D01*
X0197385Y0042900D01*
X0197329Y0042758D01*
X0197269Y0042617D01*
X0197205Y0042477D01*
X0197138Y0042339D01*
X0197067Y0042203D01*
X0196992Y0042069D01*
X0196915Y0041937D01*
X0196833Y0041807D01*
X0196749Y0041679D01*
X0196661Y0041553D01*
X0196570Y0041430D01*
X0196476Y0041309D01*
X0196378Y0041191D01*
X0196278Y0041075D01*
X0196174Y0040962D01*
X0196068Y0040851D01*
X0195959Y0040743D01*
X0195847Y0040638D01*
X0195733Y0040537D01*
X0195615Y0040438D01*
X0195496Y0040342D01*
X0195374Y0040249D01*
X0195249Y0040160D01*
X0195122Y0040073D01*
X0194993Y0039991D01*
X0194862Y0039911D01*
X0194729Y0039835D01*
X0194594Y0039762D01*
X0194457Y0039693D01*
X0194318Y0039628D01*
X0194178Y0039566D01*
X0194036Y0039508D01*
X0193893Y0039453D01*
X0193748Y0039402D01*
X0193602Y0039355D01*
X0193455Y0039312D01*
X0193307Y0039273D01*
X0193158Y0039237D01*
X0193008Y0039206D01*
X0192857Y0039178D01*
X0192706Y0039154D01*
X0192553Y0039134D01*
X0192401Y0039118D01*
X0192248Y0039106D01*
X0192095Y0039098D01*
X0191942Y0039094D01*
X0191788Y0039094D01*
X0191635Y0039098D01*
X0191482Y0039106D01*
X0191329Y0039118D01*
X0191177Y0039134D01*
X0191024Y0039154D01*
X0190873Y0039178D01*
X0190722Y0039206D01*
X0190572Y0039237D01*
X0190423Y0039273D01*
X0190275Y0039312D01*
X0190128Y0039355D01*
X0189982Y0039402D01*
X0189837Y0039453D01*
X0189694Y0039508D01*
X0189552Y0039566D01*
X0189412Y0039628D01*
X0189273Y0039693D01*
X0189136Y0039762D01*
X0189001Y0039835D01*
X0188868Y0039911D01*
X0188737Y0039991D01*
X0188608Y0040073D01*
X0188481Y0040160D01*
X0188356Y0040249D01*
X0188234Y0040342D01*
X0188115Y0040438D01*
X0187997Y0040537D01*
X0187883Y0040638D01*
X0187771Y0040743D01*
X0187662Y0040851D01*
X0187556Y0040962D01*
X0187452Y0041075D01*
X0187352Y0041191D01*
X0187254Y0041309D01*
X0187160Y0041430D01*
X0187069Y0041553D01*
X0186981Y0041679D01*
X0186897Y0041807D01*
X0186815Y0041937D01*
X0186738Y0042069D01*
X0186663Y0042203D01*
X0186592Y0042339D01*
X0186525Y0042477D01*
X0186461Y0042617D01*
X0186401Y0042758D01*
X0186345Y0042900D01*
X0186292Y0043044D01*
X0186243Y0043190D01*
X0186198Y0043336D01*
X0186157Y0043484D01*
X0186120Y0043632D01*
X0186086Y0043782D01*
X0186056Y0043933D01*
X0186031Y0044084D01*
X0186009Y0044235D01*
X0185991Y0044388D01*
X0185977Y0044540D01*
X0185967Y0044693D01*
X0185961Y0044847D01*
X0185959Y0045000D01*
X0158848Y0064532D02*
X0158850Y0064685D01*
X0158856Y0064839D01*
X0158866Y0064992D01*
X0158880Y0065144D01*
X0158898Y0065297D01*
X0158920Y0065448D01*
X0158945Y0065599D01*
X0158975Y0065750D01*
X0159009Y0065900D01*
X0159046Y0066048D01*
X0159087Y0066196D01*
X0159132Y0066342D01*
X0159181Y0066488D01*
X0159234Y0066632D01*
X0159290Y0066774D01*
X0159350Y0066915D01*
X0159414Y0067055D01*
X0159481Y0067193D01*
X0159552Y0067329D01*
X0159627Y0067463D01*
X0159704Y0067595D01*
X0159786Y0067725D01*
X0159870Y0067853D01*
X0159958Y0067979D01*
X0160049Y0068102D01*
X0160143Y0068223D01*
X0160241Y0068341D01*
X0160341Y0068457D01*
X0160445Y0068570D01*
X0160551Y0068681D01*
X0160660Y0068789D01*
X0160772Y0068894D01*
X0160886Y0068995D01*
X0161004Y0069094D01*
X0161123Y0069190D01*
X0161245Y0069283D01*
X0161370Y0069372D01*
X0161497Y0069459D01*
X0161626Y0069541D01*
X0161757Y0069621D01*
X0161890Y0069697D01*
X0162025Y0069770D01*
X0162162Y0069839D01*
X0162301Y0069904D01*
X0162441Y0069966D01*
X0162583Y0070024D01*
X0162726Y0070079D01*
X0162871Y0070130D01*
X0163017Y0070177D01*
X0163164Y0070220D01*
X0163312Y0070259D01*
X0163461Y0070295D01*
X0163611Y0070326D01*
X0163762Y0070354D01*
X0163913Y0070378D01*
X0164066Y0070398D01*
X0164218Y0070414D01*
X0164371Y0070426D01*
X0164524Y0070434D01*
X0164677Y0070438D01*
X0164831Y0070438D01*
X0164984Y0070434D01*
X0165137Y0070426D01*
X0165290Y0070414D01*
X0165442Y0070398D01*
X0165595Y0070378D01*
X0165746Y0070354D01*
X0165897Y0070326D01*
X0166047Y0070295D01*
X0166196Y0070259D01*
X0166344Y0070220D01*
X0166491Y0070177D01*
X0166637Y0070130D01*
X0166782Y0070079D01*
X0166925Y0070024D01*
X0167067Y0069966D01*
X0167207Y0069904D01*
X0167346Y0069839D01*
X0167483Y0069770D01*
X0167618Y0069697D01*
X0167751Y0069621D01*
X0167882Y0069541D01*
X0168011Y0069459D01*
X0168138Y0069372D01*
X0168263Y0069283D01*
X0168385Y0069190D01*
X0168504Y0069094D01*
X0168622Y0068995D01*
X0168736Y0068894D01*
X0168848Y0068789D01*
X0168957Y0068681D01*
X0169063Y0068570D01*
X0169167Y0068457D01*
X0169267Y0068341D01*
X0169365Y0068223D01*
X0169459Y0068102D01*
X0169550Y0067979D01*
X0169638Y0067853D01*
X0169722Y0067725D01*
X0169804Y0067595D01*
X0169881Y0067463D01*
X0169956Y0067329D01*
X0170027Y0067193D01*
X0170094Y0067055D01*
X0170158Y0066915D01*
X0170218Y0066774D01*
X0170274Y0066632D01*
X0170327Y0066488D01*
X0170376Y0066342D01*
X0170421Y0066196D01*
X0170462Y0066048D01*
X0170499Y0065900D01*
X0170533Y0065750D01*
X0170563Y0065599D01*
X0170588Y0065448D01*
X0170610Y0065297D01*
X0170628Y0065144D01*
X0170642Y0064992D01*
X0170652Y0064839D01*
X0170658Y0064685D01*
X0170660Y0064532D01*
X0170658Y0064379D01*
X0170652Y0064225D01*
X0170642Y0064072D01*
X0170628Y0063920D01*
X0170610Y0063767D01*
X0170588Y0063616D01*
X0170563Y0063465D01*
X0170533Y0063314D01*
X0170499Y0063164D01*
X0170462Y0063016D01*
X0170421Y0062868D01*
X0170376Y0062722D01*
X0170327Y0062576D01*
X0170274Y0062432D01*
X0170218Y0062290D01*
X0170158Y0062149D01*
X0170094Y0062009D01*
X0170027Y0061871D01*
X0169956Y0061735D01*
X0169881Y0061601D01*
X0169804Y0061469D01*
X0169722Y0061339D01*
X0169638Y0061211D01*
X0169550Y0061085D01*
X0169459Y0060962D01*
X0169365Y0060841D01*
X0169267Y0060723D01*
X0169167Y0060607D01*
X0169063Y0060494D01*
X0168957Y0060383D01*
X0168848Y0060275D01*
X0168736Y0060170D01*
X0168622Y0060069D01*
X0168504Y0059970D01*
X0168385Y0059874D01*
X0168263Y0059781D01*
X0168138Y0059692D01*
X0168011Y0059605D01*
X0167882Y0059523D01*
X0167751Y0059443D01*
X0167618Y0059367D01*
X0167483Y0059294D01*
X0167346Y0059225D01*
X0167207Y0059160D01*
X0167067Y0059098D01*
X0166925Y0059040D01*
X0166782Y0058985D01*
X0166637Y0058934D01*
X0166491Y0058887D01*
X0166344Y0058844D01*
X0166196Y0058805D01*
X0166047Y0058769D01*
X0165897Y0058738D01*
X0165746Y0058710D01*
X0165595Y0058686D01*
X0165442Y0058666D01*
X0165290Y0058650D01*
X0165137Y0058638D01*
X0164984Y0058630D01*
X0164831Y0058626D01*
X0164677Y0058626D01*
X0164524Y0058630D01*
X0164371Y0058638D01*
X0164218Y0058650D01*
X0164066Y0058666D01*
X0163913Y0058686D01*
X0163762Y0058710D01*
X0163611Y0058738D01*
X0163461Y0058769D01*
X0163312Y0058805D01*
X0163164Y0058844D01*
X0163017Y0058887D01*
X0162871Y0058934D01*
X0162726Y0058985D01*
X0162583Y0059040D01*
X0162441Y0059098D01*
X0162301Y0059160D01*
X0162162Y0059225D01*
X0162025Y0059294D01*
X0161890Y0059367D01*
X0161757Y0059443D01*
X0161626Y0059523D01*
X0161497Y0059605D01*
X0161370Y0059692D01*
X0161245Y0059781D01*
X0161123Y0059874D01*
X0161004Y0059970D01*
X0160886Y0060069D01*
X0160772Y0060170D01*
X0160660Y0060275D01*
X0160551Y0060383D01*
X0160445Y0060494D01*
X0160341Y0060607D01*
X0160241Y0060723D01*
X0160143Y0060841D01*
X0160049Y0060962D01*
X0159958Y0061085D01*
X0159870Y0061211D01*
X0159786Y0061339D01*
X0159704Y0061469D01*
X0159627Y0061601D01*
X0159552Y0061735D01*
X0159481Y0061871D01*
X0159414Y0062009D01*
X0159350Y0062149D01*
X0159290Y0062290D01*
X0159234Y0062432D01*
X0159181Y0062576D01*
X0159132Y0062722D01*
X0159087Y0062868D01*
X0159046Y0063016D01*
X0159009Y0063164D01*
X0158975Y0063314D01*
X0158945Y0063465D01*
X0158920Y0063616D01*
X0158898Y0063767D01*
X0158880Y0063920D01*
X0158866Y0064072D01*
X0158856Y0064225D01*
X0158850Y0064379D01*
X0158848Y0064532D01*
X0159473Y0123907D02*
X0159475Y0124060D01*
X0159481Y0124214D01*
X0159491Y0124367D01*
X0159505Y0124519D01*
X0159523Y0124672D01*
X0159545Y0124823D01*
X0159570Y0124974D01*
X0159600Y0125125D01*
X0159634Y0125275D01*
X0159671Y0125423D01*
X0159712Y0125571D01*
X0159757Y0125717D01*
X0159806Y0125863D01*
X0159859Y0126007D01*
X0159915Y0126149D01*
X0159975Y0126290D01*
X0160039Y0126430D01*
X0160106Y0126568D01*
X0160177Y0126704D01*
X0160252Y0126838D01*
X0160329Y0126970D01*
X0160411Y0127100D01*
X0160495Y0127228D01*
X0160583Y0127354D01*
X0160674Y0127477D01*
X0160768Y0127598D01*
X0160866Y0127716D01*
X0160966Y0127832D01*
X0161070Y0127945D01*
X0161176Y0128056D01*
X0161285Y0128164D01*
X0161397Y0128269D01*
X0161511Y0128370D01*
X0161629Y0128469D01*
X0161748Y0128565D01*
X0161870Y0128658D01*
X0161995Y0128747D01*
X0162122Y0128834D01*
X0162251Y0128916D01*
X0162382Y0128996D01*
X0162515Y0129072D01*
X0162650Y0129145D01*
X0162787Y0129214D01*
X0162926Y0129279D01*
X0163066Y0129341D01*
X0163208Y0129399D01*
X0163351Y0129454D01*
X0163496Y0129505D01*
X0163642Y0129552D01*
X0163789Y0129595D01*
X0163937Y0129634D01*
X0164086Y0129670D01*
X0164236Y0129701D01*
X0164387Y0129729D01*
X0164538Y0129753D01*
X0164691Y0129773D01*
X0164843Y0129789D01*
X0164996Y0129801D01*
X0165149Y0129809D01*
X0165302Y0129813D01*
X0165456Y0129813D01*
X0165609Y0129809D01*
X0165762Y0129801D01*
X0165915Y0129789D01*
X0166067Y0129773D01*
X0166220Y0129753D01*
X0166371Y0129729D01*
X0166522Y0129701D01*
X0166672Y0129670D01*
X0166821Y0129634D01*
X0166969Y0129595D01*
X0167116Y0129552D01*
X0167262Y0129505D01*
X0167407Y0129454D01*
X0167550Y0129399D01*
X0167692Y0129341D01*
X0167832Y0129279D01*
X0167971Y0129214D01*
X0168108Y0129145D01*
X0168243Y0129072D01*
X0168376Y0128996D01*
X0168507Y0128916D01*
X0168636Y0128834D01*
X0168763Y0128747D01*
X0168888Y0128658D01*
X0169010Y0128565D01*
X0169129Y0128469D01*
X0169247Y0128370D01*
X0169361Y0128269D01*
X0169473Y0128164D01*
X0169582Y0128056D01*
X0169688Y0127945D01*
X0169792Y0127832D01*
X0169892Y0127716D01*
X0169990Y0127598D01*
X0170084Y0127477D01*
X0170175Y0127354D01*
X0170263Y0127228D01*
X0170347Y0127100D01*
X0170429Y0126970D01*
X0170506Y0126838D01*
X0170581Y0126704D01*
X0170652Y0126568D01*
X0170719Y0126430D01*
X0170783Y0126290D01*
X0170843Y0126149D01*
X0170899Y0126007D01*
X0170952Y0125863D01*
X0171001Y0125717D01*
X0171046Y0125571D01*
X0171087Y0125423D01*
X0171124Y0125275D01*
X0171158Y0125125D01*
X0171188Y0124974D01*
X0171213Y0124823D01*
X0171235Y0124672D01*
X0171253Y0124519D01*
X0171267Y0124367D01*
X0171277Y0124214D01*
X0171283Y0124060D01*
X0171285Y0123907D01*
X0171283Y0123754D01*
X0171277Y0123600D01*
X0171267Y0123447D01*
X0171253Y0123295D01*
X0171235Y0123142D01*
X0171213Y0122991D01*
X0171188Y0122840D01*
X0171158Y0122689D01*
X0171124Y0122539D01*
X0171087Y0122391D01*
X0171046Y0122243D01*
X0171001Y0122097D01*
X0170952Y0121951D01*
X0170899Y0121807D01*
X0170843Y0121665D01*
X0170783Y0121524D01*
X0170719Y0121384D01*
X0170652Y0121246D01*
X0170581Y0121110D01*
X0170506Y0120976D01*
X0170429Y0120844D01*
X0170347Y0120714D01*
X0170263Y0120586D01*
X0170175Y0120460D01*
X0170084Y0120337D01*
X0169990Y0120216D01*
X0169892Y0120098D01*
X0169792Y0119982D01*
X0169688Y0119869D01*
X0169582Y0119758D01*
X0169473Y0119650D01*
X0169361Y0119545D01*
X0169247Y0119444D01*
X0169129Y0119345D01*
X0169010Y0119249D01*
X0168888Y0119156D01*
X0168763Y0119067D01*
X0168636Y0118980D01*
X0168507Y0118898D01*
X0168376Y0118818D01*
X0168243Y0118742D01*
X0168108Y0118669D01*
X0167971Y0118600D01*
X0167832Y0118535D01*
X0167692Y0118473D01*
X0167550Y0118415D01*
X0167407Y0118360D01*
X0167262Y0118309D01*
X0167116Y0118262D01*
X0166969Y0118219D01*
X0166821Y0118180D01*
X0166672Y0118144D01*
X0166522Y0118113D01*
X0166371Y0118085D01*
X0166220Y0118061D01*
X0166067Y0118041D01*
X0165915Y0118025D01*
X0165762Y0118013D01*
X0165609Y0118005D01*
X0165456Y0118001D01*
X0165302Y0118001D01*
X0165149Y0118005D01*
X0164996Y0118013D01*
X0164843Y0118025D01*
X0164691Y0118041D01*
X0164538Y0118061D01*
X0164387Y0118085D01*
X0164236Y0118113D01*
X0164086Y0118144D01*
X0163937Y0118180D01*
X0163789Y0118219D01*
X0163642Y0118262D01*
X0163496Y0118309D01*
X0163351Y0118360D01*
X0163208Y0118415D01*
X0163066Y0118473D01*
X0162926Y0118535D01*
X0162787Y0118600D01*
X0162650Y0118669D01*
X0162515Y0118742D01*
X0162382Y0118818D01*
X0162251Y0118898D01*
X0162122Y0118980D01*
X0161995Y0119067D01*
X0161870Y0119156D01*
X0161748Y0119249D01*
X0161629Y0119345D01*
X0161511Y0119444D01*
X0161397Y0119545D01*
X0161285Y0119650D01*
X0161176Y0119758D01*
X0161070Y0119869D01*
X0160966Y0119982D01*
X0160866Y0120098D01*
X0160768Y0120216D01*
X0160674Y0120337D01*
X0160583Y0120460D01*
X0160495Y0120586D01*
X0160411Y0120714D01*
X0160329Y0120844D01*
X0160252Y0120976D01*
X0160177Y0121110D01*
X0160106Y0121246D01*
X0160039Y0121384D01*
X0159975Y0121524D01*
X0159915Y0121665D01*
X0159859Y0121807D01*
X0159806Y0121951D01*
X0159757Y0122097D01*
X0159712Y0122243D01*
X0159671Y0122391D01*
X0159634Y0122539D01*
X0159600Y0122689D01*
X0159570Y0122840D01*
X0159545Y0122991D01*
X0159523Y0123142D01*
X0159505Y0123295D01*
X0159491Y0123447D01*
X0159481Y0123600D01*
X0159475Y0123754D01*
X0159473Y0123907D01*
X0089394Y0123907D02*
X0089396Y0124060D01*
X0089402Y0124214D01*
X0089412Y0124367D01*
X0089426Y0124519D01*
X0089444Y0124672D01*
X0089466Y0124823D01*
X0089491Y0124974D01*
X0089521Y0125125D01*
X0089555Y0125275D01*
X0089592Y0125423D01*
X0089633Y0125571D01*
X0089678Y0125717D01*
X0089727Y0125863D01*
X0089780Y0126007D01*
X0089836Y0126149D01*
X0089896Y0126290D01*
X0089960Y0126430D01*
X0090027Y0126568D01*
X0090098Y0126704D01*
X0090173Y0126838D01*
X0090250Y0126970D01*
X0090332Y0127100D01*
X0090416Y0127228D01*
X0090504Y0127354D01*
X0090595Y0127477D01*
X0090689Y0127598D01*
X0090787Y0127716D01*
X0090887Y0127832D01*
X0090991Y0127945D01*
X0091097Y0128056D01*
X0091206Y0128164D01*
X0091318Y0128269D01*
X0091432Y0128370D01*
X0091550Y0128469D01*
X0091669Y0128565D01*
X0091791Y0128658D01*
X0091916Y0128747D01*
X0092043Y0128834D01*
X0092172Y0128916D01*
X0092303Y0128996D01*
X0092436Y0129072D01*
X0092571Y0129145D01*
X0092708Y0129214D01*
X0092847Y0129279D01*
X0092987Y0129341D01*
X0093129Y0129399D01*
X0093272Y0129454D01*
X0093417Y0129505D01*
X0093563Y0129552D01*
X0093710Y0129595D01*
X0093858Y0129634D01*
X0094007Y0129670D01*
X0094157Y0129701D01*
X0094308Y0129729D01*
X0094459Y0129753D01*
X0094612Y0129773D01*
X0094764Y0129789D01*
X0094917Y0129801D01*
X0095070Y0129809D01*
X0095223Y0129813D01*
X0095377Y0129813D01*
X0095530Y0129809D01*
X0095683Y0129801D01*
X0095836Y0129789D01*
X0095988Y0129773D01*
X0096141Y0129753D01*
X0096292Y0129729D01*
X0096443Y0129701D01*
X0096593Y0129670D01*
X0096742Y0129634D01*
X0096890Y0129595D01*
X0097037Y0129552D01*
X0097183Y0129505D01*
X0097328Y0129454D01*
X0097471Y0129399D01*
X0097613Y0129341D01*
X0097753Y0129279D01*
X0097892Y0129214D01*
X0098029Y0129145D01*
X0098164Y0129072D01*
X0098297Y0128996D01*
X0098428Y0128916D01*
X0098557Y0128834D01*
X0098684Y0128747D01*
X0098809Y0128658D01*
X0098931Y0128565D01*
X0099050Y0128469D01*
X0099168Y0128370D01*
X0099282Y0128269D01*
X0099394Y0128164D01*
X0099503Y0128056D01*
X0099609Y0127945D01*
X0099713Y0127832D01*
X0099813Y0127716D01*
X0099911Y0127598D01*
X0100005Y0127477D01*
X0100096Y0127354D01*
X0100184Y0127228D01*
X0100268Y0127100D01*
X0100350Y0126970D01*
X0100427Y0126838D01*
X0100502Y0126704D01*
X0100573Y0126568D01*
X0100640Y0126430D01*
X0100704Y0126290D01*
X0100764Y0126149D01*
X0100820Y0126007D01*
X0100873Y0125863D01*
X0100922Y0125717D01*
X0100967Y0125571D01*
X0101008Y0125423D01*
X0101045Y0125275D01*
X0101079Y0125125D01*
X0101109Y0124974D01*
X0101134Y0124823D01*
X0101156Y0124672D01*
X0101174Y0124519D01*
X0101188Y0124367D01*
X0101198Y0124214D01*
X0101204Y0124060D01*
X0101206Y0123907D01*
X0101204Y0123754D01*
X0101198Y0123600D01*
X0101188Y0123447D01*
X0101174Y0123295D01*
X0101156Y0123142D01*
X0101134Y0122991D01*
X0101109Y0122840D01*
X0101079Y0122689D01*
X0101045Y0122539D01*
X0101008Y0122391D01*
X0100967Y0122243D01*
X0100922Y0122097D01*
X0100873Y0121951D01*
X0100820Y0121807D01*
X0100764Y0121665D01*
X0100704Y0121524D01*
X0100640Y0121384D01*
X0100573Y0121246D01*
X0100502Y0121110D01*
X0100427Y0120976D01*
X0100350Y0120844D01*
X0100268Y0120714D01*
X0100184Y0120586D01*
X0100096Y0120460D01*
X0100005Y0120337D01*
X0099911Y0120216D01*
X0099813Y0120098D01*
X0099713Y0119982D01*
X0099609Y0119869D01*
X0099503Y0119758D01*
X0099394Y0119650D01*
X0099282Y0119545D01*
X0099168Y0119444D01*
X0099050Y0119345D01*
X0098931Y0119249D01*
X0098809Y0119156D01*
X0098684Y0119067D01*
X0098557Y0118980D01*
X0098428Y0118898D01*
X0098297Y0118818D01*
X0098164Y0118742D01*
X0098029Y0118669D01*
X0097892Y0118600D01*
X0097753Y0118535D01*
X0097613Y0118473D01*
X0097471Y0118415D01*
X0097328Y0118360D01*
X0097183Y0118309D01*
X0097037Y0118262D01*
X0096890Y0118219D01*
X0096742Y0118180D01*
X0096593Y0118144D01*
X0096443Y0118113D01*
X0096292Y0118085D01*
X0096141Y0118061D01*
X0095988Y0118041D01*
X0095836Y0118025D01*
X0095683Y0118013D01*
X0095530Y0118005D01*
X0095377Y0118001D01*
X0095223Y0118001D01*
X0095070Y0118005D01*
X0094917Y0118013D01*
X0094764Y0118025D01*
X0094612Y0118041D01*
X0094459Y0118061D01*
X0094308Y0118085D01*
X0094157Y0118113D01*
X0094007Y0118144D01*
X0093858Y0118180D01*
X0093710Y0118219D01*
X0093563Y0118262D01*
X0093417Y0118309D01*
X0093272Y0118360D01*
X0093129Y0118415D01*
X0092987Y0118473D01*
X0092847Y0118535D01*
X0092708Y0118600D01*
X0092571Y0118669D01*
X0092436Y0118742D01*
X0092303Y0118818D01*
X0092172Y0118898D01*
X0092043Y0118980D01*
X0091916Y0119067D01*
X0091791Y0119156D01*
X0091669Y0119249D01*
X0091550Y0119345D01*
X0091432Y0119444D01*
X0091318Y0119545D01*
X0091206Y0119650D01*
X0091097Y0119758D01*
X0090991Y0119869D01*
X0090887Y0119982D01*
X0090787Y0120098D01*
X0090689Y0120216D01*
X0090595Y0120337D01*
X0090504Y0120460D01*
X0090416Y0120586D01*
X0090332Y0120714D01*
X0090250Y0120844D01*
X0090173Y0120976D01*
X0090098Y0121110D01*
X0090027Y0121246D01*
X0089960Y0121384D01*
X0089896Y0121524D01*
X0089836Y0121665D01*
X0089780Y0121807D01*
X0089727Y0121951D01*
X0089678Y0122097D01*
X0089633Y0122243D01*
X0089592Y0122391D01*
X0089555Y0122539D01*
X0089521Y0122689D01*
X0089491Y0122840D01*
X0089466Y0122991D01*
X0089444Y0123142D01*
X0089426Y0123295D01*
X0089412Y0123447D01*
X0089402Y0123600D01*
X0089396Y0123754D01*
X0089394Y0123907D01*
X0088769Y0064532D02*
X0088771Y0064685D01*
X0088777Y0064839D01*
X0088787Y0064992D01*
X0088801Y0065144D01*
X0088819Y0065297D01*
X0088841Y0065448D01*
X0088866Y0065599D01*
X0088896Y0065750D01*
X0088930Y0065900D01*
X0088967Y0066048D01*
X0089008Y0066196D01*
X0089053Y0066342D01*
X0089102Y0066488D01*
X0089155Y0066632D01*
X0089211Y0066774D01*
X0089271Y0066915D01*
X0089335Y0067055D01*
X0089402Y0067193D01*
X0089473Y0067329D01*
X0089548Y0067463D01*
X0089625Y0067595D01*
X0089707Y0067725D01*
X0089791Y0067853D01*
X0089879Y0067979D01*
X0089970Y0068102D01*
X0090064Y0068223D01*
X0090162Y0068341D01*
X0090262Y0068457D01*
X0090366Y0068570D01*
X0090472Y0068681D01*
X0090581Y0068789D01*
X0090693Y0068894D01*
X0090807Y0068995D01*
X0090925Y0069094D01*
X0091044Y0069190D01*
X0091166Y0069283D01*
X0091291Y0069372D01*
X0091418Y0069459D01*
X0091547Y0069541D01*
X0091678Y0069621D01*
X0091811Y0069697D01*
X0091946Y0069770D01*
X0092083Y0069839D01*
X0092222Y0069904D01*
X0092362Y0069966D01*
X0092504Y0070024D01*
X0092647Y0070079D01*
X0092792Y0070130D01*
X0092938Y0070177D01*
X0093085Y0070220D01*
X0093233Y0070259D01*
X0093382Y0070295D01*
X0093532Y0070326D01*
X0093683Y0070354D01*
X0093834Y0070378D01*
X0093987Y0070398D01*
X0094139Y0070414D01*
X0094292Y0070426D01*
X0094445Y0070434D01*
X0094598Y0070438D01*
X0094752Y0070438D01*
X0094905Y0070434D01*
X0095058Y0070426D01*
X0095211Y0070414D01*
X0095363Y0070398D01*
X0095516Y0070378D01*
X0095667Y0070354D01*
X0095818Y0070326D01*
X0095968Y0070295D01*
X0096117Y0070259D01*
X0096265Y0070220D01*
X0096412Y0070177D01*
X0096558Y0070130D01*
X0096703Y0070079D01*
X0096846Y0070024D01*
X0096988Y0069966D01*
X0097128Y0069904D01*
X0097267Y0069839D01*
X0097404Y0069770D01*
X0097539Y0069697D01*
X0097672Y0069621D01*
X0097803Y0069541D01*
X0097932Y0069459D01*
X0098059Y0069372D01*
X0098184Y0069283D01*
X0098306Y0069190D01*
X0098425Y0069094D01*
X0098543Y0068995D01*
X0098657Y0068894D01*
X0098769Y0068789D01*
X0098878Y0068681D01*
X0098984Y0068570D01*
X0099088Y0068457D01*
X0099188Y0068341D01*
X0099286Y0068223D01*
X0099380Y0068102D01*
X0099471Y0067979D01*
X0099559Y0067853D01*
X0099643Y0067725D01*
X0099725Y0067595D01*
X0099802Y0067463D01*
X0099877Y0067329D01*
X0099948Y0067193D01*
X0100015Y0067055D01*
X0100079Y0066915D01*
X0100139Y0066774D01*
X0100195Y0066632D01*
X0100248Y0066488D01*
X0100297Y0066342D01*
X0100342Y0066196D01*
X0100383Y0066048D01*
X0100420Y0065900D01*
X0100454Y0065750D01*
X0100484Y0065599D01*
X0100509Y0065448D01*
X0100531Y0065297D01*
X0100549Y0065144D01*
X0100563Y0064992D01*
X0100573Y0064839D01*
X0100579Y0064685D01*
X0100581Y0064532D01*
X0100579Y0064379D01*
X0100573Y0064225D01*
X0100563Y0064072D01*
X0100549Y0063920D01*
X0100531Y0063767D01*
X0100509Y0063616D01*
X0100484Y0063465D01*
X0100454Y0063314D01*
X0100420Y0063164D01*
X0100383Y0063016D01*
X0100342Y0062868D01*
X0100297Y0062722D01*
X0100248Y0062576D01*
X0100195Y0062432D01*
X0100139Y0062290D01*
X0100079Y0062149D01*
X0100015Y0062009D01*
X0099948Y0061871D01*
X0099877Y0061735D01*
X0099802Y0061601D01*
X0099725Y0061469D01*
X0099643Y0061339D01*
X0099559Y0061211D01*
X0099471Y0061085D01*
X0099380Y0060962D01*
X0099286Y0060841D01*
X0099188Y0060723D01*
X0099088Y0060607D01*
X0098984Y0060494D01*
X0098878Y0060383D01*
X0098769Y0060275D01*
X0098657Y0060170D01*
X0098543Y0060069D01*
X0098425Y0059970D01*
X0098306Y0059874D01*
X0098184Y0059781D01*
X0098059Y0059692D01*
X0097932Y0059605D01*
X0097803Y0059523D01*
X0097672Y0059443D01*
X0097539Y0059367D01*
X0097404Y0059294D01*
X0097267Y0059225D01*
X0097128Y0059160D01*
X0096988Y0059098D01*
X0096846Y0059040D01*
X0096703Y0058985D01*
X0096558Y0058934D01*
X0096412Y0058887D01*
X0096265Y0058844D01*
X0096117Y0058805D01*
X0095968Y0058769D01*
X0095818Y0058738D01*
X0095667Y0058710D01*
X0095516Y0058686D01*
X0095363Y0058666D01*
X0095211Y0058650D01*
X0095058Y0058638D01*
X0094905Y0058630D01*
X0094752Y0058626D01*
X0094598Y0058626D01*
X0094445Y0058630D01*
X0094292Y0058638D01*
X0094139Y0058650D01*
X0093987Y0058666D01*
X0093834Y0058686D01*
X0093683Y0058710D01*
X0093532Y0058738D01*
X0093382Y0058769D01*
X0093233Y0058805D01*
X0093085Y0058844D01*
X0092938Y0058887D01*
X0092792Y0058934D01*
X0092647Y0058985D01*
X0092504Y0059040D01*
X0092362Y0059098D01*
X0092222Y0059160D01*
X0092083Y0059225D01*
X0091946Y0059294D01*
X0091811Y0059367D01*
X0091678Y0059443D01*
X0091547Y0059523D01*
X0091418Y0059605D01*
X0091291Y0059692D01*
X0091166Y0059781D01*
X0091044Y0059874D01*
X0090925Y0059970D01*
X0090807Y0060069D01*
X0090693Y0060170D01*
X0090581Y0060275D01*
X0090472Y0060383D01*
X0090366Y0060494D01*
X0090262Y0060607D01*
X0090162Y0060723D01*
X0090064Y0060841D01*
X0089970Y0060962D01*
X0089879Y0061085D01*
X0089791Y0061211D01*
X0089707Y0061339D01*
X0089625Y0061469D01*
X0089548Y0061601D01*
X0089473Y0061735D01*
X0089402Y0061871D01*
X0089335Y0062009D01*
X0089271Y0062149D01*
X0089211Y0062290D01*
X0089155Y0062432D01*
X0089102Y0062576D01*
X0089053Y0062722D01*
X0089008Y0062868D01*
X0088967Y0063016D01*
X0088930Y0063164D01*
X0088896Y0063314D01*
X0088866Y0063465D01*
X0088841Y0063616D01*
X0088819Y0063767D01*
X0088801Y0063920D01*
X0088787Y0064072D01*
X0088777Y0064225D01*
X0088771Y0064379D01*
X0088769Y0064532D01*
X0087594Y0213740D02*
X0087596Y0213893D01*
X0087602Y0214047D01*
X0087612Y0214200D01*
X0087626Y0214352D01*
X0087644Y0214505D01*
X0087666Y0214656D01*
X0087691Y0214807D01*
X0087721Y0214958D01*
X0087755Y0215108D01*
X0087792Y0215256D01*
X0087833Y0215404D01*
X0087878Y0215550D01*
X0087927Y0215696D01*
X0087980Y0215840D01*
X0088036Y0215982D01*
X0088096Y0216123D01*
X0088160Y0216263D01*
X0088227Y0216401D01*
X0088298Y0216537D01*
X0088373Y0216671D01*
X0088450Y0216803D01*
X0088532Y0216933D01*
X0088616Y0217061D01*
X0088704Y0217187D01*
X0088795Y0217310D01*
X0088889Y0217431D01*
X0088987Y0217549D01*
X0089087Y0217665D01*
X0089191Y0217778D01*
X0089297Y0217889D01*
X0089406Y0217997D01*
X0089518Y0218102D01*
X0089632Y0218203D01*
X0089750Y0218302D01*
X0089869Y0218398D01*
X0089991Y0218491D01*
X0090116Y0218580D01*
X0090243Y0218667D01*
X0090372Y0218749D01*
X0090503Y0218829D01*
X0090636Y0218905D01*
X0090771Y0218978D01*
X0090908Y0219047D01*
X0091047Y0219112D01*
X0091187Y0219174D01*
X0091329Y0219232D01*
X0091472Y0219287D01*
X0091617Y0219338D01*
X0091763Y0219385D01*
X0091910Y0219428D01*
X0092058Y0219467D01*
X0092207Y0219503D01*
X0092357Y0219534D01*
X0092508Y0219562D01*
X0092659Y0219586D01*
X0092812Y0219606D01*
X0092964Y0219622D01*
X0093117Y0219634D01*
X0093270Y0219642D01*
X0093423Y0219646D01*
X0093577Y0219646D01*
X0093730Y0219642D01*
X0093883Y0219634D01*
X0094036Y0219622D01*
X0094188Y0219606D01*
X0094341Y0219586D01*
X0094492Y0219562D01*
X0094643Y0219534D01*
X0094793Y0219503D01*
X0094942Y0219467D01*
X0095090Y0219428D01*
X0095237Y0219385D01*
X0095383Y0219338D01*
X0095528Y0219287D01*
X0095671Y0219232D01*
X0095813Y0219174D01*
X0095953Y0219112D01*
X0096092Y0219047D01*
X0096229Y0218978D01*
X0096364Y0218905D01*
X0096497Y0218829D01*
X0096628Y0218749D01*
X0096757Y0218667D01*
X0096884Y0218580D01*
X0097009Y0218491D01*
X0097131Y0218398D01*
X0097250Y0218302D01*
X0097368Y0218203D01*
X0097482Y0218102D01*
X0097594Y0217997D01*
X0097703Y0217889D01*
X0097809Y0217778D01*
X0097913Y0217665D01*
X0098013Y0217549D01*
X0098111Y0217431D01*
X0098205Y0217310D01*
X0098296Y0217187D01*
X0098384Y0217061D01*
X0098468Y0216933D01*
X0098550Y0216803D01*
X0098627Y0216671D01*
X0098702Y0216537D01*
X0098773Y0216401D01*
X0098840Y0216263D01*
X0098904Y0216123D01*
X0098964Y0215982D01*
X0099020Y0215840D01*
X0099073Y0215696D01*
X0099122Y0215550D01*
X0099167Y0215404D01*
X0099208Y0215256D01*
X0099245Y0215108D01*
X0099279Y0214958D01*
X0099309Y0214807D01*
X0099334Y0214656D01*
X0099356Y0214505D01*
X0099374Y0214352D01*
X0099388Y0214200D01*
X0099398Y0214047D01*
X0099404Y0213893D01*
X0099406Y0213740D01*
X0099404Y0213587D01*
X0099398Y0213433D01*
X0099388Y0213280D01*
X0099374Y0213128D01*
X0099356Y0212975D01*
X0099334Y0212824D01*
X0099309Y0212673D01*
X0099279Y0212522D01*
X0099245Y0212372D01*
X0099208Y0212224D01*
X0099167Y0212076D01*
X0099122Y0211930D01*
X0099073Y0211784D01*
X0099020Y0211640D01*
X0098964Y0211498D01*
X0098904Y0211357D01*
X0098840Y0211217D01*
X0098773Y0211079D01*
X0098702Y0210943D01*
X0098627Y0210809D01*
X0098550Y0210677D01*
X0098468Y0210547D01*
X0098384Y0210419D01*
X0098296Y0210293D01*
X0098205Y0210170D01*
X0098111Y0210049D01*
X0098013Y0209931D01*
X0097913Y0209815D01*
X0097809Y0209702D01*
X0097703Y0209591D01*
X0097594Y0209483D01*
X0097482Y0209378D01*
X0097368Y0209277D01*
X0097250Y0209178D01*
X0097131Y0209082D01*
X0097009Y0208989D01*
X0096884Y0208900D01*
X0096757Y0208813D01*
X0096628Y0208731D01*
X0096497Y0208651D01*
X0096364Y0208575D01*
X0096229Y0208502D01*
X0096092Y0208433D01*
X0095953Y0208368D01*
X0095813Y0208306D01*
X0095671Y0208248D01*
X0095528Y0208193D01*
X0095383Y0208142D01*
X0095237Y0208095D01*
X0095090Y0208052D01*
X0094942Y0208013D01*
X0094793Y0207977D01*
X0094643Y0207946D01*
X0094492Y0207918D01*
X0094341Y0207894D01*
X0094188Y0207874D01*
X0094036Y0207858D01*
X0093883Y0207846D01*
X0093730Y0207838D01*
X0093577Y0207834D01*
X0093423Y0207834D01*
X0093270Y0207838D01*
X0093117Y0207846D01*
X0092964Y0207858D01*
X0092812Y0207874D01*
X0092659Y0207894D01*
X0092508Y0207918D01*
X0092357Y0207946D01*
X0092207Y0207977D01*
X0092058Y0208013D01*
X0091910Y0208052D01*
X0091763Y0208095D01*
X0091617Y0208142D01*
X0091472Y0208193D01*
X0091329Y0208248D01*
X0091187Y0208306D01*
X0091047Y0208368D01*
X0090908Y0208433D01*
X0090771Y0208502D01*
X0090636Y0208575D01*
X0090503Y0208651D01*
X0090372Y0208731D01*
X0090243Y0208813D01*
X0090116Y0208900D01*
X0089991Y0208989D01*
X0089869Y0209082D01*
X0089750Y0209178D01*
X0089632Y0209277D01*
X0089518Y0209378D01*
X0089406Y0209483D01*
X0089297Y0209591D01*
X0089191Y0209702D01*
X0089087Y0209815D01*
X0088987Y0209931D01*
X0088889Y0210049D01*
X0088795Y0210170D01*
X0088704Y0210293D01*
X0088616Y0210419D01*
X0088532Y0210547D01*
X0088450Y0210677D01*
X0088373Y0210809D01*
X0088298Y0210943D01*
X0088227Y0211079D01*
X0088160Y0211217D01*
X0088096Y0211357D01*
X0088036Y0211498D01*
X0087980Y0211640D01*
X0087927Y0211784D01*
X0087878Y0211930D01*
X0087833Y0212076D01*
X0087792Y0212224D01*
X0087755Y0212372D01*
X0087721Y0212522D01*
X0087691Y0212673D01*
X0087666Y0212824D01*
X0087644Y0212975D01*
X0087626Y0213128D01*
X0087612Y0213280D01*
X0087602Y0213433D01*
X0087596Y0213587D01*
X0087594Y0213740D01*
X0120594Y0213740D02*
X0120596Y0213893D01*
X0120602Y0214047D01*
X0120612Y0214200D01*
X0120626Y0214352D01*
X0120644Y0214505D01*
X0120666Y0214656D01*
X0120691Y0214807D01*
X0120721Y0214958D01*
X0120755Y0215108D01*
X0120792Y0215256D01*
X0120833Y0215404D01*
X0120878Y0215550D01*
X0120927Y0215696D01*
X0120980Y0215840D01*
X0121036Y0215982D01*
X0121096Y0216123D01*
X0121160Y0216263D01*
X0121227Y0216401D01*
X0121298Y0216537D01*
X0121373Y0216671D01*
X0121450Y0216803D01*
X0121532Y0216933D01*
X0121616Y0217061D01*
X0121704Y0217187D01*
X0121795Y0217310D01*
X0121889Y0217431D01*
X0121987Y0217549D01*
X0122087Y0217665D01*
X0122191Y0217778D01*
X0122297Y0217889D01*
X0122406Y0217997D01*
X0122518Y0218102D01*
X0122632Y0218203D01*
X0122750Y0218302D01*
X0122869Y0218398D01*
X0122991Y0218491D01*
X0123116Y0218580D01*
X0123243Y0218667D01*
X0123372Y0218749D01*
X0123503Y0218829D01*
X0123636Y0218905D01*
X0123771Y0218978D01*
X0123908Y0219047D01*
X0124047Y0219112D01*
X0124187Y0219174D01*
X0124329Y0219232D01*
X0124472Y0219287D01*
X0124617Y0219338D01*
X0124763Y0219385D01*
X0124910Y0219428D01*
X0125058Y0219467D01*
X0125207Y0219503D01*
X0125357Y0219534D01*
X0125508Y0219562D01*
X0125659Y0219586D01*
X0125812Y0219606D01*
X0125964Y0219622D01*
X0126117Y0219634D01*
X0126270Y0219642D01*
X0126423Y0219646D01*
X0126577Y0219646D01*
X0126730Y0219642D01*
X0126883Y0219634D01*
X0127036Y0219622D01*
X0127188Y0219606D01*
X0127341Y0219586D01*
X0127492Y0219562D01*
X0127643Y0219534D01*
X0127793Y0219503D01*
X0127942Y0219467D01*
X0128090Y0219428D01*
X0128237Y0219385D01*
X0128383Y0219338D01*
X0128528Y0219287D01*
X0128671Y0219232D01*
X0128813Y0219174D01*
X0128953Y0219112D01*
X0129092Y0219047D01*
X0129229Y0218978D01*
X0129364Y0218905D01*
X0129497Y0218829D01*
X0129628Y0218749D01*
X0129757Y0218667D01*
X0129884Y0218580D01*
X0130009Y0218491D01*
X0130131Y0218398D01*
X0130250Y0218302D01*
X0130368Y0218203D01*
X0130482Y0218102D01*
X0130594Y0217997D01*
X0130703Y0217889D01*
X0130809Y0217778D01*
X0130913Y0217665D01*
X0131013Y0217549D01*
X0131111Y0217431D01*
X0131205Y0217310D01*
X0131296Y0217187D01*
X0131384Y0217061D01*
X0131468Y0216933D01*
X0131550Y0216803D01*
X0131627Y0216671D01*
X0131702Y0216537D01*
X0131773Y0216401D01*
X0131840Y0216263D01*
X0131904Y0216123D01*
X0131964Y0215982D01*
X0132020Y0215840D01*
X0132073Y0215696D01*
X0132122Y0215550D01*
X0132167Y0215404D01*
X0132208Y0215256D01*
X0132245Y0215108D01*
X0132279Y0214958D01*
X0132309Y0214807D01*
X0132334Y0214656D01*
X0132356Y0214505D01*
X0132374Y0214352D01*
X0132388Y0214200D01*
X0132398Y0214047D01*
X0132404Y0213893D01*
X0132406Y0213740D01*
X0132404Y0213587D01*
X0132398Y0213433D01*
X0132388Y0213280D01*
X0132374Y0213128D01*
X0132356Y0212975D01*
X0132334Y0212824D01*
X0132309Y0212673D01*
X0132279Y0212522D01*
X0132245Y0212372D01*
X0132208Y0212224D01*
X0132167Y0212076D01*
X0132122Y0211930D01*
X0132073Y0211784D01*
X0132020Y0211640D01*
X0131964Y0211498D01*
X0131904Y0211357D01*
X0131840Y0211217D01*
X0131773Y0211079D01*
X0131702Y0210943D01*
X0131627Y0210809D01*
X0131550Y0210677D01*
X0131468Y0210547D01*
X0131384Y0210419D01*
X0131296Y0210293D01*
X0131205Y0210170D01*
X0131111Y0210049D01*
X0131013Y0209931D01*
X0130913Y0209815D01*
X0130809Y0209702D01*
X0130703Y0209591D01*
X0130594Y0209483D01*
X0130482Y0209378D01*
X0130368Y0209277D01*
X0130250Y0209178D01*
X0130131Y0209082D01*
X0130009Y0208989D01*
X0129884Y0208900D01*
X0129757Y0208813D01*
X0129628Y0208731D01*
X0129497Y0208651D01*
X0129364Y0208575D01*
X0129229Y0208502D01*
X0129092Y0208433D01*
X0128953Y0208368D01*
X0128813Y0208306D01*
X0128671Y0208248D01*
X0128528Y0208193D01*
X0128383Y0208142D01*
X0128237Y0208095D01*
X0128090Y0208052D01*
X0127942Y0208013D01*
X0127793Y0207977D01*
X0127643Y0207946D01*
X0127492Y0207918D01*
X0127341Y0207894D01*
X0127188Y0207874D01*
X0127036Y0207858D01*
X0126883Y0207846D01*
X0126730Y0207838D01*
X0126577Y0207834D01*
X0126423Y0207834D01*
X0126270Y0207838D01*
X0126117Y0207846D01*
X0125964Y0207858D01*
X0125812Y0207874D01*
X0125659Y0207894D01*
X0125508Y0207918D01*
X0125357Y0207946D01*
X0125207Y0207977D01*
X0125058Y0208013D01*
X0124910Y0208052D01*
X0124763Y0208095D01*
X0124617Y0208142D01*
X0124472Y0208193D01*
X0124329Y0208248D01*
X0124187Y0208306D01*
X0124047Y0208368D01*
X0123908Y0208433D01*
X0123771Y0208502D01*
X0123636Y0208575D01*
X0123503Y0208651D01*
X0123372Y0208731D01*
X0123243Y0208813D01*
X0123116Y0208900D01*
X0122991Y0208989D01*
X0122869Y0209082D01*
X0122750Y0209178D01*
X0122632Y0209277D01*
X0122518Y0209378D01*
X0122406Y0209483D01*
X0122297Y0209591D01*
X0122191Y0209702D01*
X0122087Y0209815D01*
X0121987Y0209931D01*
X0121889Y0210049D01*
X0121795Y0210170D01*
X0121704Y0210293D01*
X0121616Y0210419D01*
X0121532Y0210547D01*
X0121450Y0210677D01*
X0121373Y0210809D01*
X0121298Y0210943D01*
X0121227Y0211079D01*
X0121160Y0211217D01*
X0121096Y0211357D01*
X0121036Y0211498D01*
X0120980Y0211640D01*
X0120927Y0211784D01*
X0120878Y0211930D01*
X0120833Y0212076D01*
X0120792Y0212224D01*
X0120755Y0212372D01*
X0120721Y0212522D01*
X0120691Y0212673D01*
X0120666Y0212824D01*
X0120644Y0212975D01*
X0120626Y0213128D01*
X0120612Y0213280D01*
X0120602Y0213433D01*
X0120596Y0213587D01*
X0120594Y0213740D01*
X0147594Y0213740D02*
X0147596Y0213893D01*
X0147602Y0214047D01*
X0147612Y0214200D01*
X0147626Y0214352D01*
X0147644Y0214505D01*
X0147666Y0214656D01*
X0147691Y0214807D01*
X0147721Y0214958D01*
X0147755Y0215108D01*
X0147792Y0215256D01*
X0147833Y0215404D01*
X0147878Y0215550D01*
X0147927Y0215696D01*
X0147980Y0215840D01*
X0148036Y0215982D01*
X0148096Y0216123D01*
X0148160Y0216263D01*
X0148227Y0216401D01*
X0148298Y0216537D01*
X0148373Y0216671D01*
X0148450Y0216803D01*
X0148532Y0216933D01*
X0148616Y0217061D01*
X0148704Y0217187D01*
X0148795Y0217310D01*
X0148889Y0217431D01*
X0148987Y0217549D01*
X0149087Y0217665D01*
X0149191Y0217778D01*
X0149297Y0217889D01*
X0149406Y0217997D01*
X0149518Y0218102D01*
X0149632Y0218203D01*
X0149750Y0218302D01*
X0149869Y0218398D01*
X0149991Y0218491D01*
X0150116Y0218580D01*
X0150243Y0218667D01*
X0150372Y0218749D01*
X0150503Y0218829D01*
X0150636Y0218905D01*
X0150771Y0218978D01*
X0150908Y0219047D01*
X0151047Y0219112D01*
X0151187Y0219174D01*
X0151329Y0219232D01*
X0151472Y0219287D01*
X0151617Y0219338D01*
X0151763Y0219385D01*
X0151910Y0219428D01*
X0152058Y0219467D01*
X0152207Y0219503D01*
X0152357Y0219534D01*
X0152508Y0219562D01*
X0152659Y0219586D01*
X0152812Y0219606D01*
X0152964Y0219622D01*
X0153117Y0219634D01*
X0153270Y0219642D01*
X0153423Y0219646D01*
X0153577Y0219646D01*
X0153730Y0219642D01*
X0153883Y0219634D01*
X0154036Y0219622D01*
X0154188Y0219606D01*
X0154341Y0219586D01*
X0154492Y0219562D01*
X0154643Y0219534D01*
X0154793Y0219503D01*
X0154942Y0219467D01*
X0155090Y0219428D01*
X0155237Y0219385D01*
X0155383Y0219338D01*
X0155528Y0219287D01*
X0155671Y0219232D01*
X0155813Y0219174D01*
X0155953Y0219112D01*
X0156092Y0219047D01*
X0156229Y0218978D01*
X0156364Y0218905D01*
X0156497Y0218829D01*
X0156628Y0218749D01*
X0156757Y0218667D01*
X0156884Y0218580D01*
X0157009Y0218491D01*
X0157131Y0218398D01*
X0157250Y0218302D01*
X0157368Y0218203D01*
X0157482Y0218102D01*
X0157594Y0217997D01*
X0157703Y0217889D01*
X0157809Y0217778D01*
X0157913Y0217665D01*
X0158013Y0217549D01*
X0158111Y0217431D01*
X0158205Y0217310D01*
X0158296Y0217187D01*
X0158384Y0217061D01*
X0158468Y0216933D01*
X0158550Y0216803D01*
X0158627Y0216671D01*
X0158702Y0216537D01*
X0158773Y0216401D01*
X0158840Y0216263D01*
X0158904Y0216123D01*
X0158964Y0215982D01*
X0159020Y0215840D01*
X0159073Y0215696D01*
X0159122Y0215550D01*
X0159167Y0215404D01*
X0159208Y0215256D01*
X0159245Y0215108D01*
X0159279Y0214958D01*
X0159309Y0214807D01*
X0159334Y0214656D01*
X0159356Y0214505D01*
X0159374Y0214352D01*
X0159388Y0214200D01*
X0159398Y0214047D01*
X0159404Y0213893D01*
X0159406Y0213740D01*
X0159404Y0213587D01*
X0159398Y0213433D01*
X0159388Y0213280D01*
X0159374Y0213128D01*
X0159356Y0212975D01*
X0159334Y0212824D01*
X0159309Y0212673D01*
X0159279Y0212522D01*
X0159245Y0212372D01*
X0159208Y0212224D01*
X0159167Y0212076D01*
X0159122Y0211930D01*
X0159073Y0211784D01*
X0159020Y0211640D01*
X0158964Y0211498D01*
X0158904Y0211357D01*
X0158840Y0211217D01*
X0158773Y0211079D01*
X0158702Y0210943D01*
X0158627Y0210809D01*
X0158550Y0210677D01*
X0158468Y0210547D01*
X0158384Y0210419D01*
X0158296Y0210293D01*
X0158205Y0210170D01*
X0158111Y0210049D01*
X0158013Y0209931D01*
X0157913Y0209815D01*
X0157809Y0209702D01*
X0157703Y0209591D01*
X0157594Y0209483D01*
X0157482Y0209378D01*
X0157368Y0209277D01*
X0157250Y0209178D01*
X0157131Y0209082D01*
X0157009Y0208989D01*
X0156884Y0208900D01*
X0156757Y0208813D01*
X0156628Y0208731D01*
X0156497Y0208651D01*
X0156364Y0208575D01*
X0156229Y0208502D01*
X0156092Y0208433D01*
X0155953Y0208368D01*
X0155813Y0208306D01*
X0155671Y0208248D01*
X0155528Y0208193D01*
X0155383Y0208142D01*
X0155237Y0208095D01*
X0155090Y0208052D01*
X0154942Y0208013D01*
X0154793Y0207977D01*
X0154643Y0207946D01*
X0154492Y0207918D01*
X0154341Y0207894D01*
X0154188Y0207874D01*
X0154036Y0207858D01*
X0153883Y0207846D01*
X0153730Y0207838D01*
X0153577Y0207834D01*
X0153423Y0207834D01*
X0153270Y0207838D01*
X0153117Y0207846D01*
X0152964Y0207858D01*
X0152812Y0207874D01*
X0152659Y0207894D01*
X0152508Y0207918D01*
X0152357Y0207946D01*
X0152207Y0207977D01*
X0152058Y0208013D01*
X0151910Y0208052D01*
X0151763Y0208095D01*
X0151617Y0208142D01*
X0151472Y0208193D01*
X0151329Y0208248D01*
X0151187Y0208306D01*
X0151047Y0208368D01*
X0150908Y0208433D01*
X0150771Y0208502D01*
X0150636Y0208575D01*
X0150503Y0208651D01*
X0150372Y0208731D01*
X0150243Y0208813D01*
X0150116Y0208900D01*
X0149991Y0208989D01*
X0149869Y0209082D01*
X0149750Y0209178D01*
X0149632Y0209277D01*
X0149518Y0209378D01*
X0149406Y0209483D01*
X0149297Y0209591D01*
X0149191Y0209702D01*
X0149087Y0209815D01*
X0148987Y0209931D01*
X0148889Y0210049D01*
X0148795Y0210170D01*
X0148704Y0210293D01*
X0148616Y0210419D01*
X0148532Y0210547D01*
X0148450Y0210677D01*
X0148373Y0210809D01*
X0148298Y0210943D01*
X0148227Y0211079D01*
X0148160Y0211217D01*
X0148096Y0211357D01*
X0148036Y0211498D01*
X0147980Y0211640D01*
X0147927Y0211784D01*
X0147878Y0211930D01*
X0147833Y0212076D01*
X0147792Y0212224D01*
X0147755Y0212372D01*
X0147721Y0212522D01*
X0147691Y0212673D01*
X0147666Y0212824D01*
X0147644Y0212975D01*
X0147626Y0213128D01*
X0147612Y0213280D01*
X0147602Y0213433D01*
X0147596Y0213587D01*
X0147594Y0213740D01*
X0180594Y0213740D02*
X0180596Y0213893D01*
X0180602Y0214047D01*
X0180612Y0214200D01*
X0180626Y0214352D01*
X0180644Y0214505D01*
X0180666Y0214656D01*
X0180691Y0214807D01*
X0180721Y0214958D01*
X0180755Y0215108D01*
X0180792Y0215256D01*
X0180833Y0215404D01*
X0180878Y0215550D01*
X0180927Y0215696D01*
X0180980Y0215840D01*
X0181036Y0215982D01*
X0181096Y0216123D01*
X0181160Y0216263D01*
X0181227Y0216401D01*
X0181298Y0216537D01*
X0181373Y0216671D01*
X0181450Y0216803D01*
X0181532Y0216933D01*
X0181616Y0217061D01*
X0181704Y0217187D01*
X0181795Y0217310D01*
X0181889Y0217431D01*
X0181987Y0217549D01*
X0182087Y0217665D01*
X0182191Y0217778D01*
X0182297Y0217889D01*
X0182406Y0217997D01*
X0182518Y0218102D01*
X0182632Y0218203D01*
X0182750Y0218302D01*
X0182869Y0218398D01*
X0182991Y0218491D01*
X0183116Y0218580D01*
X0183243Y0218667D01*
X0183372Y0218749D01*
X0183503Y0218829D01*
X0183636Y0218905D01*
X0183771Y0218978D01*
X0183908Y0219047D01*
X0184047Y0219112D01*
X0184187Y0219174D01*
X0184329Y0219232D01*
X0184472Y0219287D01*
X0184617Y0219338D01*
X0184763Y0219385D01*
X0184910Y0219428D01*
X0185058Y0219467D01*
X0185207Y0219503D01*
X0185357Y0219534D01*
X0185508Y0219562D01*
X0185659Y0219586D01*
X0185812Y0219606D01*
X0185964Y0219622D01*
X0186117Y0219634D01*
X0186270Y0219642D01*
X0186423Y0219646D01*
X0186577Y0219646D01*
X0186730Y0219642D01*
X0186883Y0219634D01*
X0187036Y0219622D01*
X0187188Y0219606D01*
X0187341Y0219586D01*
X0187492Y0219562D01*
X0187643Y0219534D01*
X0187793Y0219503D01*
X0187942Y0219467D01*
X0188090Y0219428D01*
X0188237Y0219385D01*
X0188383Y0219338D01*
X0188528Y0219287D01*
X0188671Y0219232D01*
X0188813Y0219174D01*
X0188953Y0219112D01*
X0189092Y0219047D01*
X0189229Y0218978D01*
X0189364Y0218905D01*
X0189497Y0218829D01*
X0189628Y0218749D01*
X0189757Y0218667D01*
X0189884Y0218580D01*
X0190009Y0218491D01*
X0190131Y0218398D01*
X0190250Y0218302D01*
X0190368Y0218203D01*
X0190482Y0218102D01*
X0190594Y0217997D01*
X0190703Y0217889D01*
X0190809Y0217778D01*
X0190913Y0217665D01*
X0191013Y0217549D01*
X0191111Y0217431D01*
X0191205Y0217310D01*
X0191296Y0217187D01*
X0191384Y0217061D01*
X0191468Y0216933D01*
X0191550Y0216803D01*
X0191627Y0216671D01*
X0191702Y0216537D01*
X0191773Y0216401D01*
X0191840Y0216263D01*
X0191904Y0216123D01*
X0191964Y0215982D01*
X0192020Y0215840D01*
X0192073Y0215696D01*
X0192122Y0215550D01*
X0192167Y0215404D01*
X0192208Y0215256D01*
X0192245Y0215108D01*
X0192279Y0214958D01*
X0192309Y0214807D01*
X0192334Y0214656D01*
X0192356Y0214505D01*
X0192374Y0214352D01*
X0192388Y0214200D01*
X0192398Y0214047D01*
X0192404Y0213893D01*
X0192406Y0213740D01*
X0192404Y0213587D01*
X0192398Y0213433D01*
X0192388Y0213280D01*
X0192374Y0213128D01*
X0192356Y0212975D01*
X0192334Y0212824D01*
X0192309Y0212673D01*
X0192279Y0212522D01*
X0192245Y0212372D01*
X0192208Y0212224D01*
X0192167Y0212076D01*
X0192122Y0211930D01*
X0192073Y0211784D01*
X0192020Y0211640D01*
X0191964Y0211498D01*
X0191904Y0211357D01*
X0191840Y0211217D01*
X0191773Y0211079D01*
X0191702Y0210943D01*
X0191627Y0210809D01*
X0191550Y0210677D01*
X0191468Y0210547D01*
X0191384Y0210419D01*
X0191296Y0210293D01*
X0191205Y0210170D01*
X0191111Y0210049D01*
X0191013Y0209931D01*
X0190913Y0209815D01*
X0190809Y0209702D01*
X0190703Y0209591D01*
X0190594Y0209483D01*
X0190482Y0209378D01*
X0190368Y0209277D01*
X0190250Y0209178D01*
X0190131Y0209082D01*
X0190009Y0208989D01*
X0189884Y0208900D01*
X0189757Y0208813D01*
X0189628Y0208731D01*
X0189497Y0208651D01*
X0189364Y0208575D01*
X0189229Y0208502D01*
X0189092Y0208433D01*
X0188953Y0208368D01*
X0188813Y0208306D01*
X0188671Y0208248D01*
X0188528Y0208193D01*
X0188383Y0208142D01*
X0188237Y0208095D01*
X0188090Y0208052D01*
X0187942Y0208013D01*
X0187793Y0207977D01*
X0187643Y0207946D01*
X0187492Y0207918D01*
X0187341Y0207894D01*
X0187188Y0207874D01*
X0187036Y0207858D01*
X0186883Y0207846D01*
X0186730Y0207838D01*
X0186577Y0207834D01*
X0186423Y0207834D01*
X0186270Y0207838D01*
X0186117Y0207846D01*
X0185964Y0207858D01*
X0185812Y0207874D01*
X0185659Y0207894D01*
X0185508Y0207918D01*
X0185357Y0207946D01*
X0185207Y0207977D01*
X0185058Y0208013D01*
X0184910Y0208052D01*
X0184763Y0208095D01*
X0184617Y0208142D01*
X0184472Y0208193D01*
X0184329Y0208248D01*
X0184187Y0208306D01*
X0184047Y0208368D01*
X0183908Y0208433D01*
X0183771Y0208502D01*
X0183636Y0208575D01*
X0183503Y0208651D01*
X0183372Y0208731D01*
X0183243Y0208813D01*
X0183116Y0208900D01*
X0182991Y0208989D01*
X0182869Y0209082D01*
X0182750Y0209178D01*
X0182632Y0209277D01*
X0182518Y0209378D01*
X0182406Y0209483D01*
X0182297Y0209591D01*
X0182191Y0209702D01*
X0182087Y0209815D01*
X0181987Y0209931D01*
X0181889Y0210049D01*
X0181795Y0210170D01*
X0181704Y0210293D01*
X0181616Y0210419D01*
X0181532Y0210547D01*
X0181450Y0210677D01*
X0181373Y0210809D01*
X0181298Y0210943D01*
X0181227Y0211079D01*
X0181160Y0211217D01*
X0181096Y0211357D01*
X0181036Y0211498D01*
X0180980Y0211640D01*
X0180927Y0211784D01*
X0180878Y0211930D01*
X0180833Y0212076D01*
X0180792Y0212224D01*
X0180755Y0212372D01*
X0180721Y0212522D01*
X0180691Y0212673D01*
X0180666Y0212824D01*
X0180644Y0212975D01*
X0180626Y0213128D01*
X0180612Y0213280D01*
X0180602Y0213433D01*
X0180596Y0213587D01*
X0180594Y0213740D01*
D11*
X0217500Y0230000D02*
X0217500Y0005000D01*
D12*
X0216875Y0005000D02*
X0015000Y0005000D01*
X0005000Y0015000D01*
X0005000Y0225000D01*
X0010000Y0230000D01*
X0054375Y0230000D01*
X0064375Y0240000D01*
X0198125Y0240000D01*
X0208125Y0230000D01*
X0217500Y0230000D01*
D13*
X0205000Y0220000D03*
X0205000Y0210000D03*
X0205000Y0200000D03*
X0205000Y0190000D03*
X0205000Y0180000D03*
X0205000Y0170000D03*
X0205000Y0150000D03*
X0205000Y0140000D03*
X0205000Y0130000D03*
X0205000Y0120000D03*
X0205000Y0110000D03*
X0205000Y0100000D03*
X0205000Y0090000D03*
X0205000Y0080000D03*
X0184500Y0110000D03*
X0185500Y0120000D03*
X0184500Y0130000D03*
X0122500Y0018750D03*
X0112500Y0018750D03*
X0088125Y0018750D03*
X0078125Y0018750D03*
X0015000Y0020000D03*
X0015000Y0030000D03*
X0015000Y0045000D03*
X0015000Y0055000D03*
X0015000Y0065000D03*
X0015000Y0075000D03*
X0015000Y0085000D03*
X0015000Y0095000D03*
X0015000Y0105000D03*
X0015000Y0115000D03*
X0015000Y0125000D03*
X0015000Y0135000D03*
X0015000Y0150000D03*
X0015000Y0160000D03*
X0015000Y0170000D03*
X0015000Y0180000D03*
X0015000Y0190000D03*
X0015000Y0200000D03*
X0015000Y0210000D03*
X0015000Y0220000D03*
X0025000Y0220000D03*
X0025000Y0210000D03*
D14*
X0033710Y0024970D02*
X0032989Y0024907D01*
X0032295Y0024705D01*
X0031653Y0024371D01*
X0031089Y0023918D01*
X0030624Y0023364D01*
X0030276Y0022729D01*
X0030059Y0022039D01*
X0029980Y0021320D01*
X0030028Y0020660D01*
X0030190Y0020019D01*
X0030461Y0019415D01*
X0030832Y0018868D01*
X0031293Y0018393D01*
X0031830Y0018006D01*
X0032425Y0017717D01*
X0033062Y0017537D01*
X0033720Y0017470D01*
X0034378Y0017535D01*
X0035015Y0017714D01*
X0035612Y0018001D01*
X0036149Y0018387D01*
X0036611Y0018860D01*
X0036984Y0019406D01*
X0037256Y0020009D01*
X0037420Y0020650D01*
X0037470Y0021310D01*
X0037389Y0022033D01*
X0037168Y0022726D01*
X0036817Y0023363D01*
X0036348Y0023919D01*
X0035780Y0024372D01*
X0035134Y0024707D01*
X0034435Y0024908D01*
X0033710Y0024970D01*
X0033371Y0024940D02*
X0034059Y0024940D01*
X0035645Y0024442D02*
X0031790Y0024442D01*
X0031121Y0023943D02*
X0036317Y0023943D01*
X0036747Y0023445D02*
X0030692Y0023445D01*
X0030395Y0022946D02*
X0037047Y0022946D01*
X0037257Y0022448D02*
X0030187Y0022448D01*
X0030049Y0021949D02*
X0037398Y0021949D01*
X0037454Y0021451D02*
X0029994Y0021451D01*
X0030007Y0020952D02*
X0037443Y0020952D01*
X0037370Y0020454D02*
X0030080Y0020454D01*
X0030218Y0019955D02*
X0037232Y0019955D01*
X0037007Y0019457D02*
X0030442Y0019457D01*
X0030771Y0018958D02*
X0036678Y0018958D01*
X0036220Y0018460D02*
X0031229Y0018460D01*
X0031922Y0017961D02*
X0035530Y0017961D01*
X0034408Y0014308D02*
X0035045Y0014128D01*
X0035640Y0013839D01*
X0036177Y0013452D01*
X0036638Y0012977D01*
X0037009Y0012430D01*
X0037280Y0011826D01*
X0037442Y0011185D01*
X0037490Y0010525D01*
X0037412Y0009806D01*
X0037194Y0009116D01*
X0036846Y0008481D01*
X0036381Y0007927D01*
X0035817Y0007474D01*
X0035175Y0007140D01*
X0034481Y0006938D01*
X0033760Y0006875D01*
X0033035Y0006937D01*
X0032336Y0007138D01*
X0031690Y0007473D01*
X0031122Y0007927D01*
X0030653Y0008483D01*
X0030302Y0009119D01*
X0030081Y0009812D01*
X0030000Y0010535D01*
X0030050Y0011195D01*
X0030214Y0011836D01*
X0030486Y0012439D01*
X0030859Y0012985D01*
X0031321Y0013459D01*
X0031859Y0013844D01*
X0032455Y0014131D01*
X0033092Y0014310D01*
X0033750Y0014375D01*
X0034408Y0014308D01*
X0035364Y0013973D02*
X0032126Y0013973D01*
X0031344Y0013475D02*
X0036145Y0013475D01*
X0036639Y0012976D02*
X0030853Y0012976D01*
X0030513Y0012478D02*
X0036977Y0012478D01*
X0037212Y0011979D02*
X0030278Y0011979D01*
X0030123Y0011481D02*
X0037367Y0011481D01*
X0037457Y0010982D02*
X0030034Y0010982D01*
X0030006Y0010484D02*
X0037486Y0010484D01*
X0037431Y0009985D02*
X0030062Y0009985D01*
X0030185Y0009487D02*
X0037311Y0009487D01*
X0037124Y0008988D02*
X0030374Y0008988D01*
X0030649Y0008490D02*
X0036851Y0008490D01*
X0036435Y0007991D02*
X0031068Y0007991D01*
X0031666Y0007493D02*
X0035840Y0007493D01*
X0034673Y0006994D02*
X0032836Y0006994D01*
X0060095Y0009985D02*
X0067458Y0009985D01*
X0067441Y0009836D02*
X0067224Y0009146D01*
X0066876Y0008511D01*
X0066411Y0007957D01*
X0065847Y0007504D01*
X0065205Y0007170D01*
X0064511Y0006968D01*
X0063790Y0006905D01*
X0063065Y0006967D01*
X0062366Y0007168D01*
X0061720Y0007503D01*
X0061152Y0007956D01*
X0060683Y0008512D01*
X0060332Y0009149D01*
X0060111Y0009842D01*
X0060030Y0010565D01*
X0060080Y0011225D01*
X0060244Y0011866D01*
X0060516Y0012469D01*
X0060889Y0013015D01*
X0061351Y0013488D01*
X0061888Y0013874D01*
X0062485Y0014161D01*
X0063122Y0014340D01*
X0063780Y0014405D01*
X0064438Y0014338D01*
X0065075Y0014158D01*
X0065670Y0013869D01*
X0066207Y0013482D01*
X0066668Y0013007D01*
X0067039Y0012460D01*
X0067310Y0011856D01*
X0067472Y0011215D01*
X0067520Y0010555D01*
X0067441Y0009836D01*
X0067331Y0009487D02*
X0060224Y0009487D01*
X0060421Y0008988D02*
X0067138Y0008988D01*
X0066858Y0008490D02*
X0060702Y0008490D01*
X0061123Y0007991D02*
X0066440Y0007991D01*
X0065824Y0007493D02*
X0061740Y0007493D01*
X0062970Y0006994D02*
X0064600Y0006994D01*
X0067512Y0010484D02*
X0060039Y0010484D01*
X0060062Y0010982D02*
X0067489Y0010982D01*
X0067405Y0011481D02*
X0060145Y0011481D01*
X0060295Y0011979D02*
X0067255Y0011979D01*
X0067027Y0012478D02*
X0060522Y0012478D01*
X0060862Y0012976D02*
X0066689Y0012976D01*
X0066214Y0013475D02*
X0061338Y0013475D01*
X0062094Y0013973D02*
X0065456Y0013973D01*
X0064408Y0017565D02*
X0063750Y0017500D01*
X0063092Y0017567D01*
X0062455Y0017747D01*
X0061860Y0018036D01*
X0061323Y0018423D01*
X0060862Y0018898D01*
X0060491Y0019445D01*
X0060220Y0020049D01*
X0060058Y0020690D01*
X0060010Y0021350D01*
X0060088Y0022069D01*
X0060306Y0022759D01*
X0060654Y0023394D01*
X0061119Y0023948D01*
X0061683Y0024401D01*
X0062325Y0024735D01*
X0063019Y0024937D01*
X0063740Y0025000D01*
X0064465Y0024938D01*
X0065164Y0024737D01*
X0065810Y0024402D01*
X0066378Y0023948D01*
X0066847Y0023392D01*
X0067198Y0022756D01*
X0067419Y0022063D01*
X0067500Y0021340D01*
X0067450Y0020680D01*
X0067286Y0020039D01*
X0067014Y0019436D01*
X0066641Y0018890D01*
X0066179Y0018416D01*
X0065641Y0018031D01*
X0065045Y0017744D01*
X0064408Y0017565D01*
X0065497Y0017961D02*
X0062013Y0017961D01*
X0061288Y0018460D02*
X0066221Y0018460D01*
X0066688Y0018958D02*
X0060821Y0018958D01*
X0060485Y0019457D02*
X0067023Y0019457D01*
X0067249Y0019955D02*
X0060262Y0019955D01*
X0060118Y0020454D02*
X0067392Y0020454D01*
X0067470Y0020952D02*
X0060039Y0020952D01*
X0060021Y0021451D02*
X0067487Y0021451D01*
X0067431Y0021949D02*
X0060075Y0021949D01*
X0060208Y0022448D02*
X0067296Y0022448D01*
X0067093Y0022946D02*
X0060409Y0022946D01*
X0060697Y0023445D02*
X0066803Y0023445D01*
X0066382Y0023943D02*
X0061115Y0023943D01*
X0061762Y0024442D02*
X0065733Y0024442D01*
X0064441Y0024940D02*
X0063058Y0024940D01*
D15*
X0068650Y0038750D02*
X0073850Y0038750D01*
X0073850Y0048750D02*
X0068650Y0048750D01*
X0068650Y0058750D02*
X0073850Y0058750D01*
X0073850Y0068750D02*
X0068650Y0068750D01*
X0068650Y0078750D02*
X0073850Y0078750D01*
X0073850Y0088750D02*
X0068650Y0088750D01*
X0068650Y0098750D02*
X0073850Y0098750D01*
X0073850Y0108750D02*
X0068650Y0108750D01*
X0068650Y0118750D02*
X0073850Y0118750D01*
X0073850Y0140000D02*
X0068650Y0140000D01*
X0068650Y0150000D02*
X0073850Y0150000D01*
X0073850Y0160000D02*
X0068650Y0160000D01*
X0068650Y0170000D02*
X0073850Y0170000D01*
X0073850Y0180000D02*
X0068650Y0180000D01*
X0068650Y0190000D02*
X0073850Y0190000D01*
X0073850Y0200000D02*
X0068650Y0200000D01*
X0068650Y0210000D02*
X0073850Y0210000D01*
X0073850Y0220000D02*
X0068650Y0220000D01*
X0043850Y0220000D02*
X0038650Y0220000D01*
X0038650Y0210000D02*
X0043850Y0210000D01*
X0043850Y0200000D02*
X0038650Y0200000D01*
X0038650Y0190000D02*
X0043850Y0190000D01*
X0043850Y0180000D02*
X0038650Y0180000D01*
X0038650Y0170000D02*
X0043850Y0170000D01*
X0043850Y0160000D02*
X0038650Y0160000D01*
X0038650Y0150000D02*
X0043850Y0150000D01*
X0043850Y0140000D02*
X0038650Y0140000D01*
X0038650Y0118750D02*
X0043850Y0118750D01*
X0043850Y0108750D02*
X0038650Y0108750D01*
X0038650Y0098750D02*
X0043850Y0098750D01*
X0043850Y0088750D02*
X0038650Y0088750D01*
X0038650Y0078750D02*
X0043850Y0078750D01*
X0043850Y0068750D02*
X0038650Y0068750D01*
X0038650Y0058750D02*
X0043850Y0058750D01*
X0043850Y0048750D02*
X0038650Y0048750D01*
X0038650Y0038750D02*
X0043850Y0038750D01*
D16*
X0113179Y0062721D03*
X0129715Y0062721D03*
X0146250Y0062721D03*
X0141425Y0045000D03*
X0141425Y0016250D03*
X0146250Y0084375D03*
X0129715Y0084375D03*
X0130340Y0122096D03*
X0146875Y0122096D03*
X0146875Y0143750D03*
X0130340Y0143750D03*
X0126500Y0163300D03*
X0110000Y0163300D03*
X0093500Y0163300D03*
X0110000Y0185000D03*
X0126500Y0185000D03*
X0153500Y0163300D03*
X0170000Y0163300D03*
X0186500Y0163300D03*
X0186500Y0185000D03*
X0170000Y0185000D03*
X0113804Y0122096D03*
D17*
X0113804Y0143750D03*
X0093500Y0185000D03*
X0153500Y0185000D03*
X0113179Y0084375D03*
X0163125Y0045000D03*
X0163125Y0016250D03*
D18*
X0191865Y0016250D03*
X0191865Y0045000D03*
X0164754Y0064532D03*
X0165379Y0123907D03*
X0095300Y0123907D03*
X0094675Y0064532D03*
X0093500Y0213740D03*
X0126500Y0213740D03*
X0153500Y0213740D03*
X0186500Y0213740D03*
M02*
