G75*
%MOIN*%
%OFA0B0*%
%FSLAX25Y25*%
%IPPOS*%
%LPD*%
%AMOC8*
5,1,8,0,0,1.08239X$1,22.5*
%
%ADD10C,0.00000*%
%ADD11C,0.01000*%
%ADD12C,0.01200*%
%ADD13C,0.07400*%
%ADD14C,0.08000*%
%ADD15C,0.05200*%
%ADD16OC8,0.10000*%
%ADD17R,0.10000X0.10000*%
%ADD18C,0.02400*%
%ADD19C,0.03000*%
%ADD20C,0.04000*%
%ADD21R,0.03562X0.03562*%
%ADD22C,0.03200*%
%ADD23C,0.04800*%
%ADD24C,0.04500*%
%ADD25C,0.02700*%
%ADD26C,0.05600*%
%ADD27C,0.05000*%
%ADD28C,0.02200*%
D10*
X0005000Y0005000D02*
X0015000Y0005000D01*
X0208701Y0005000D01*
X0185959Y0016250D02*
X0185961Y0016403D01*
X0185967Y0016557D01*
X0185977Y0016710D01*
X0185991Y0016862D01*
X0186009Y0017015D01*
X0186031Y0017166D01*
X0186056Y0017317D01*
X0186086Y0017468D01*
X0186120Y0017618D01*
X0186157Y0017766D01*
X0186198Y0017914D01*
X0186243Y0018060D01*
X0186292Y0018206D01*
X0186345Y0018350D01*
X0186401Y0018492D01*
X0186461Y0018633D01*
X0186525Y0018773D01*
X0186592Y0018911D01*
X0186663Y0019047D01*
X0186738Y0019181D01*
X0186815Y0019313D01*
X0186897Y0019443D01*
X0186981Y0019571D01*
X0187069Y0019697D01*
X0187160Y0019820D01*
X0187254Y0019941D01*
X0187352Y0020059D01*
X0187452Y0020175D01*
X0187556Y0020288D01*
X0187662Y0020399D01*
X0187771Y0020507D01*
X0187883Y0020612D01*
X0187997Y0020713D01*
X0188115Y0020812D01*
X0188234Y0020908D01*
X0188356Y0021001D01*
X0188481Y0021090D01*
X0188608Y0021177D01*
X0188737Y0021259D01*
X0188868Y0021339D01*
X0189001Y0021415D01*
X0189136Y0021488D01*
X0189273Y0021557D01*
X0189412Y0021622D01*
X0189552Y0021684D01*
X0189694Y0021742D01*
X0189837Y0021797D01*
X0189982Y0021848D01*
X0190128Y0021895D01*
X0190275Y0021938D01*
X0190423Y0021977D01*
X0190572Y0022013D01*
X0190722Y0022044D01*
X0190873Y0022072D01*
X0191024Y0022096D01*
X0191177Y0022116D01*
X0191329Y0022132D01*
X0191482Y0022144D01*
X0191635Y0022152D01*
X0191788Y0022156D01*
X0191942Y0022156D01*
X0192095Y0022152D01*
X0192248Y0022144D01*
X0192401Y0022132D01*
X0192553Y0022116D01*
X0192706Y0022096D01*
X0192857Y0022072D01*
X0193008Y0022044D01*
X0193158Y0022013D01*
X0193307Y0021977D01*
X0193455Y0021938D01*
X0193602Y0021895D01*
X0193748Y0021848D01*
X0193893Y0021797D01*
X0194036Y0021742D01*
X0194178Y0021684D01*
X0194318Y0021622D01*
X0194457Y0021557D01*
X0194594Y0021488D01*
X0194729Y0021415D01*
X0194862Y0021339D01*
X0194993Y0021259D01*
X0195122Y0021177D01*
X0195249Y0021090D01*
X0195374Y0021001D01*
X0195496Y0020908D01*
X0195615Y0020812D01*
X0195733Y0020713D01*
X0195847Y0020612D01*
X0195959Y0020507D01*
X0196068Y0020399D01*
X0196174Y0020288D01*
X0196278Y0020175D01*
X0196378Y0020059D01*
X0196476Y0019941D01*
X0196570Y0019820D01*
X0196661Y0019697D01*
X0196749Y0019571D01*
X0196833Y0019443D01*
X0196915Y0019313D01*
X0196992Y0019181D01*
X0197067Y0019047D01*
X0197138Y0018911D01*
X0197205Y0018773D01*
X0197269Y0018633D01*
X0197329Y0018492D01*
X0197385Y0018350D01*
X0197438Y0018206D01*
X0197487Y0018060D01*
X0197532Y0017914D01*
X0197573Y0017766D01*
X0197610Y0017618D01*
X0197644Y0017468D01*
X0197674Y0017317D01*
X0197699Y0017166D01*
X0197721Y0017015D01*
X0197739Y0016862D01*
X0197753Y0016710D01*
X0197763Y0016557D01*
X0197769Y0016403D01*
X0197771Y0016250D01*
X0197769Y0016097D01*
X0197763Y0015943D01*
X0197753Y0015790D01*
X0197739Y0015638D01*
X0197721Y0015485D01*
X0197699Y0015334D01*
X0197674Y0015183D01*
X0197644Y0015032D01*
X0197610Y0014882D01*
X0197573Y0014734D01*
X0197532Y0014586D01*
X0197487Y0014440D01*
X0197438Y0014294D01*
X0197385Y0014150D01*
X0197329Y0014008D01*
X0197269Y0013867D01*
X0197205Y0013727D01*
X0197138Y0013589D01*
X0197067Y0013453D01*
X0196992Y0013319D01*
X0196915Y0013187D01*
X0196833Y0013057D01*
X0196749Y0012929D01*
X0196661Y0012803D01*
X0196570Y0012680D01*
X0196476Y0012559D01*
X0196378Y0012441D01*
X0196278Y0012325D01*
X0196174Y0012212D01*
X0196068Y0012101D01*
X0195959Y0011993D01*
X0195847Y0011888D01*
X0195733Y0011787D01*
X0195615Y0011688D01*
X0195496Y0011592D01*
X0195374Y0011499D01*
X0195249Y0011410D01*
X0195122Y0011323D01*
X0194993Y0011241D01*
X0194862Y0011161D01*
X0194729Y0011085D01*
X0194594Y0011012D01*
X0194457Y0010943D01*
X0194318Y0010878D01*
X0194178Y0010816D01*
X0194036Y0010758D01*
X0193893Y0010703D01*
X0193748Y0010652D01*
X0193602Y0010605D01*
X0193455Y0010562D01*
X0193307Y0010523D01*
X0193158Y0010487D01*
X0193008Y0010456D01*
X0192857Y0010428D01*
X0192706Y0010404D01*
X0192553Y0010384D01*
X0192401Y0010368D01*
X0192248Y0010356D01*
X0192095Y0010348D01*
X0191942Y0010344D01*
X0191788Y0010344D01*
X0191635Y0010348D01*
X0191482Y0010356D01*
X0191329Y0010368D01*
X0191177Y0010384D01*
X0191024Y0010404D01*
X0190873Y0010428D01*
X0190722Y0010456D01*
X0190572Y0010487D01*
X0190423Y0010523D01*
X0190275Y0010562D01*
X0190128Y0010605D01*
X0189982Y0010652D01*
X0189837Y0010703D01*
X0189694Y0010758D01*
X0189552Y0010816D01*
X0189412Y0010878D01*
X0189273Y0010943D01*
X0189136Y0011012D01*
X0189001Y0011085D01*
X0188868Y0011161D01*
X0188737Y0011241D01*
X0188608Y0011323D01*
X0188481Y0011410D01*
X0188356Y0011499D01*
X0188234Y0011592D01*
X0188115Y0011688D01*
X0187997Y0011787D01*
X0187883Y0011888D01*
X0187771Y0011993D01*
X0187662Y0012101D01*
X0187556Y0012212D01*
X0187452Y0012325D01*
X0187352Y0012441D01*
X0187254Y0012559D01*
X0187160Y0012680D01*
X0187069Y0012803D01*
X0186981Y0012929D01*
X0186897Y0013057D01*
X0186815Y0013187D01*
X0186738Y0013319D01*
X0186663Y0013453D01*
X0186592Y0013589D01*
X0186525Y0013727D01*
X0186461Y0013867D01*
X0186401Y0014008D01*
X0186345Y0014150D01*
X0186292Y0014294D01*
X0186243Y0014440D01*
X0186198Y0014586D01*
X0186157Y0014734D01*
X0186120Y0014882D01*
X0186086Y0015032D01*
X0186056Y0015183D01*
X0186031Y0015334D01*
X0186009Y0015485D01*
X0185991Y0015638D01*
X0185977Y0015790D01*
X0185967Y0015943D01*
X0185961Y0016097D01*
X0185959Y0016250D01*
X0185959Y0045000D02*
X0185961Y0045153D01*
X0185967Y0045307D01*
X0185977Y0045460D01*
X0185991Y0045612D01*
X0186009Y0045765D01*
X0186031Y0045916D01*
X0186056Y0046067D01*
X0186086Y0046218D01*
X0186120Y0046368D01*
X0186157Y0046516D01*
X0186198Y0046664D01*
X0186243Y0046810D01*
X0186292Y0046956D01*
X0186345Y0047100D01*
X0186401Y0047242D01*
X0186461Y0047383D01*
X0186525Y0047523D01*
X0186592Y0047661D01*
X0186663Y0047797D01*
X0186738Y0047931D01*
X0186815Y0048063D01*
X0186897Y0048193D01*
X0186981Y0048321D01*
X0187069Y0048447D01*
X0187160Y0048570D01*
X0187254Y0048691D01*
X0187352Y0048809D01*
X0187452Y0048925D01*
X0187556Y0049038D01*
X0187662Y0049149D01*
X0187771Y0049257D01*
X0187883Y0049362D01*
X0187997Y0049463D01*
X0188115Y0049562D01*
X0188234Y0049658D01*
X0188356Y0049751D01*
X0188481Y0049840D01*
X0188608Y0049927D01*
X0188737Y0050009D01*
X0188868Y0050089D01*
X0189001Y0050165D01*
X0189136Y0050238D01*
X0189273Y0050307D01*
X0189412Y0050372D01*
X0189552Y0050434D01*
X0189694Y0050492D01*
X0189837Y0050547D01*
X0189982Y0050598D01*
X0190128Y0050645D01*
X0190275Y0050688D01*
X0190423Y0050727D01*
X0190572Y0050763D01*
X0190722Y0050794D01*
X0190873Y0050822D01*
X0191024Y0050846D01*
X0191177Y0050866D01*
X0191329Y0050882D01*
X0191482Y0050894D01*
X0191635Y0050902D01*
X0191788Y0050906D01*
X0191942Y0050906D01*
X0192095Y0050902D01*
X0192248Y0050894D01*
X0192401Y0050882D01*
X0192553Y0050866D01*
X0192706Y0050846D01*
X0192857Y0050822D01*
X0193008Y0050794D01*
X0193158Y0050763D01*
X0193307Y0050727D01*
X0193455Y0050688D01*
X0193602Y0050645D01*
X0193748Y0050598D01*
X0193893Y0050547D01*
X0194036Y0050492D01*
X0194178Y0050434D01*
X0194318Y0050372D01*
X0194457Y0050307D01*
X0194594Y0050238D01*
X0194729Y0050165D01*
X0194862Y0050089D01*
X0194993Y0050009D01*
X0195122Y0049927D01*
X0195249Y0049840D01*
X0195374Y0049751D01*
X0195496Y0049658D01*
X0195615Y0049562D01*
X0195733Y0049463D01*
X0195847Y0049362D01*
X0195959Y0049257D01*
X0196068Y0049149D01*
X0196174Y0049038D01*
X0196278Y0048925D01*
X0196378Y0048809D01*
X0196476Y0048691D01*
X0196570Y0048570D01*
X0196661Y0048447D01*
X0196749Y0048321D01*
X0196833Y0048193D01*
X0196915Y0048063D01*
X0196992Y0047931D01*
X0197067Y0047797D01*
X0197138Y0047661D01*
X0197205Y0047523D01*
X0197269Y0047383D01*
X0197329Y0047242D01*
X0197385Y0047100D01*
X0197438Y0046956D01*
X0197487Y0046810D01*
X0197532Y0046664D01*
X0197573Y0046516D01*
X0197610Y0046368D01*
X0197644Y0046218D01*
X0197674Y0046067D01*
X0197699Y0045916D01*
X0197721Y0045765D01*
X0197739Y0045612D01*
X0197753Y0045460D01*
X0197763Y0045307D01*
X0197769Y0045153D01*
X0197771Y0045000D01*
X0197769Y0044847D01*
X0197763Y0044693D01*
X0197753Y0044540D01*
X0197739Y0044388D01*
X0197721Y0044235D01*
X0197699Y0044084D01*
X0197674Y0043933D01*
X0197644Y0043782D01*
X0197610Y0043632D01*
X0197573Y0043484D01*
X0197532Y0043336D01*
X0197487Y0043190D01*
X0197438Y0043044D01*
X0197385Y0042900D01*
X0197329Y0042758D01*
X0197269Y0042617D01*
X0197205Y0042477D01*
X0197138Y0042339D01*
X0197067Y0042203D01*
X0196992Y0042069D01*
X0196915Y0041937D01*
X0196833Y0041807D01*
X0196749Y0041679D01*
X0196661Y0041553D01*
X0196570Y0041430D01*
X0196476Y0041309D01*
X0196378Y0041191D01*
X0196278Y0041075D01*
X0196174Y0040962D01*
X0196068Y0040851D01*
X0195959Y0040743D01*
X0195847Y0040638D01*
X0195733Y0040537D01*
X0195615Y0040438D01*
X0195496Y0040342D01*
X0195374Y0040249D01*
X0195249Y0040160D01*
X0195122Y0040073D01*
X0194993Y0039991D01*
X0194862Y0039911D01*
X0194729Y0039835D01*
X0194594Y0039762D01*
X0194457Y0039693D01*
X0194318Y0039628D01*
X0194178Y0039566D01*
X0194036Y0039508D01*
X0193893Y0039453D01*
X0193748Y0039402D01*
X0193602Y0039355D01*
X0193455Y0039312D01*
X0193307Y0039273D01*
X0193158Y0039237D01*
X0193008Y0039206D01*
X0192857Y0039178D01*
X0192706Y0039154D01*
X0192553Y0039134D01*
X0192401Y0039118D01*
X0192248Y0039106D01*
X0192095Y0039098D01*
X0191942Y0039094D01*
X0191788Y0039094D01*
X0191635Y0039098D01*
X0191482Y0039106D01*
X0191329Y0039118D01*
X0191177Y0039134D01*
X0191024Y0039154D01*
X0190873Y0039178D01*
X0190722Y0039206D01*
X0190572Y0039237D01*
X0190423Y0039273D01*
X0190275Y0039312D01*
X0190128Y0039355D01*
X0189982Y0039402D01*
X0189837Y0039453D01*
X0189694Y0039508D01*
X0189552Y0039566D01*
X0189412Y0039628D01*
X0189273Y0039693D01*
X0189136Y0039762D01*
X0189001Y0039835D01*
X0188868Y0039911D01*
X0188737Y0039991D01*
X0188608Y0040073D01*
X0188481Y0040160D01*
X0188356Y0040249D01*
X0188234Y0040342D01*
X0188115Y0040438D01*
X0187997Y0040537D01*
X0187883Y0040638D01*
X0187771Y0040743D01*
X0187662Y0040851D01*
X0187556Y0040962D01*
X0187452Y0041075D01*
X0187352Y0041191D01*
X0187254Y0041309D01*
X0187160Y0041430D01*
X0187069Y0041553D01*
X0186981Y0041679D01*
X0186897Y0041807D01*
X0186815Y0041937D01*
X0186738Y0042069D01*
X0186663Y0042203D01*
X0186592Y0042339D01*
X0186525Y0042477D01*
X0186461Y0042617D01*
X0186401Y0042758D01*
X0186345Y0042900D01*
X0186292Y0043044D01*
X0186243Y0043190D01*
X0186198Y0043336D01*
X0186157Y0043484D01*
X0186120Y0043632D01*
X0186086Y0043782D01*
X0186056Y0043933D01*
X0186031Y0044084D01*
X0186009Y0044235D01*
X0185991Y0044388D01*
X0185977Y0044540D01*
X0185967Y0044693D01*
X0185961Y0044847D01*
X0185959Y0045000D01*
X0158848Y0064532D02*
X0158850Y0064685D01*
X0158856Y0064839D01*
X0158866Y0064992D01*
X0158880Y0065144D01*
X0158898Y0065297D01*
X0158920Y0065448D01*
X0158945Y0065599D01*
X0158975Y0065750D01*
X0159009Y0065900D01*
X0159046Y0066048D01*
X0159087Y0066196D01*
X0159132Y0066342D01*
X0159181Y0066488D01*
X0159234Y0066632D01*
X0159290Y0066774D01*
X0159350Y0066915D01*
X0159414Y0067055D01*
X0159481Y0067193D01*
X0159552Y0067329D01*
X0159627Y0067463D01*
X0159704Y0067595D01*
X0159786Y0067725D01*
X0159870Y0067853D01*
X0159958Y0067979D01*
X0160049Y0068102D01*
X0160143Y0068223D01*
X0160241Y0068341D01*
X0160341Y0068457D01*
X0160445Y0068570D01*
X0160551Y0068681D01*
X0160660Y0068789D01*
X0160772Y0068894D01*
X0160886Y0068995D01*
X0161004Y0069094D01*
X0161123Y0069190D01*
X0161245Y0069283D01*
X0161370Y0069372D01*
X0161497Y0069459D01*
X0161626Y0069541D01*
X0161757Y0069621D01*
X0161890Y0069697D01*
X0162025Y0069770D01*
X0162162Y0069839D01*
X0162301Y0069904D01*
X0162441Y0069966D01*
X0162583Y0070024D01*
X0162726Y0070079D01*
X0162871Y0070130D01*
X0163017Y0070177D01*
X0163164Y0070220D01*
X0163312Y0070259D01*
X0163461Y0070295D01*
X0163611Y0070326D01*
X0163762Y0070354D01*
X0163913Y0070378D01*
X0164066Y0070398D01*
X0164218Y0070414D01*
X0164371Y0070426D01*
X0164524Y0070434D01*
X0164677Y0070438D01*
X0164831Y0070438D01*
X0164984Y0070434D01*
X0165137Y0070426D01*
X0165290Y0070414D01*
X0165442Y0070398D01*
X0165595Y0070378D01*
X0165746Y0070354D01*
X0165897Y0070326D01*
X0166047Y0070295D01*
X0166196Y0070259D01*
X0166344Y0070220D01*
X0166491Y0070177D01*
X0166637Y0070130D01*
X0166782Y0070079D01*
X0166925Y0070024D01*
X0167067Y0069966D01*
X0167207Y0069904D01*
X0167346Y0069839D01*
X0167483Y0069770D01*
X0167618Y0069697D01*
X0167751Y0069621D01*
X0167882Y0069541D01*
X0168011Y0069459D01*
X0168138Y0069372D01*
X0168263Y0069283D01*
X0168385Y0069190D01*
X0168504Y0069094D01*
X0168622Y0068995D01*
X0168736Y0068894D01*
X0168848Y0068789D01*
X0168957Y0068681D01*
X0169063Y0068570D01*
X0169167Y0068457D01*
X0169267Y0068341D01*
X0169365Y0068223D01*
X0169459Y0068102D01*
X0169550Y0067979D01*
X0169638Y0067853D01*
X0169722Y0067725D01*
X0169804Y0067595D01*
X0169881Y0067463D01*
X0169956Y0067329D01*
X0170027Y0067193D01*
X0170094Y0067055D01*
X0170158Y0066915D01*
X0170218Y0066774D01*
X0170274Y0066632D01*
X0170327Y0066488D01*
X0170376Y0066342D01*
X0170421Y0066196D01*
X0170462Y0066048D01*
X0170499Y0065900D01*
X0170533Y0065750D01*
X0170563Y0065599D01*
X0170588Y0065448D01*
X0170610Y0065297D01*
X0170628Y0065144D01*
X0170642Y0064992D01*
X0170652Y0064839D01*
X0170658Y0064685D01*
X0170660Y0064532D01*
X0170658Y0064379D01*
X0170652Y0064225D01*
X0170642Y0064072D01*
X0170628Y0063920D01*
X0170610Y0063767D01*
X0170588Y0063616D01*
X0170563Y0063465D01*
X0170533Y0063314D01*
X0170499Y0063164D01*
X0170462Y0063016D01*
X0170421Y0062868D01*
X0170376Y0062722D01*
X0170327Y0062576D01*
X0170274Y0062432D01*
X0170218Y0062290D01*
X0170158Y0062149D01*
X0170094Y0062009D01*
X0170027Y0061871D01*
X0169956Y0061735D01*
X0169881Y0061601D01*
X0169804Y0061469D01*
X0169722Y0061339D01*
X0169638Y0061211D01*
X0169550Y0061085D01*
X0169459Y0060962D01*
X0169365Y0060841D01*
X0169267Y0060723D01*
X0169167Y0060607D01*
X0169063Y0060494D01*
X0168957Y0060383D01*
X0168848Y0060275D01*
X0168736Y0060170D01*
X0168622Y0060069D01*
X0168504Y0059970D01*
X0168385Y0059874D01*
X0168263Y0059781D01*
X0168138Y0059692D01*
X0168011Y0059605D01*
X0167882Y0059523D01*
X0167751Y0059443D01*
X0167618Y0059367D01*
X0167483Y0059294D01*
X0167346Y0059225D01*
X0167207Y0059160D01*
X0167067Y0059098D01*
X0166925Y0059040D01*
X0166782Y0058985D01*
X0166637Y0058934D01*
X0166491Y0058887D01*
X0166344Y0058844D01*
X0166196Y0058805D01*
X0166047Y0058769D01*
X0165897Y0058738D01*
X0165746Y0058710D01*
X0165595Y0058686D01*
X0165442Y0058666D01*
X0165290Y0058650D01*
X0165137Y0058638D01*
X0164984Y0058630D01*
X0164831Y0058626D01*
X0164677Y0058626D01*
X0164524Y0058630D01*
X0164371Y0058638D01*
X0164218Y0058650D01*
X0164066Y0058666D01*
X0163913Y0058686D01*
X0163762Y0058710D01*
X0163611Y0058738D01*
X0163461Y0058769D01*
X0163312Y0058805D01*
X0163164Y0058844D01*
X0163017Y0058887D01*
X0162871Y0058934D01*
X0162726Y0058985D01*
X0162583Y0059040D01*
X0162441Y0059098D01*
X0162301Y0059160D01*
X0162162Y0059225D01*
X0162025Y0059294D01*
X0161890Y0059367D01*
X0161757Y0059443D01*
X0161626Y0059523D01*
X0161497Y0059605D01*
X0161370Y0059692D01*
X0161245Y0059781D01*
X0161123Y0059874D01*
X0161004Y0059970D01*
X0160886Y0060069D01*
X0160772Y0060170D01*
X0160660Y0060275D01*
X0160551Y0060383D01*
X0160445Y0060494D01*
X0160341Y0060607D01*
X0160241Y0060723D01*
X0160143Y0060841D01*
X0160049Y0060962D01*
X0159958Y0061085D01*
X0159870Y0061211D01*
X0159786Y0061339D01*
X0159704Y0061469D01*
X0159627Y0061601D01*
X0159552Y0061735D01*
X0159481Y0061871D01*
X0159414Y0062009D01*
X0159350Y0062149D01*
X0159290Y0062290D01*
X0159234Y0062432D01*
X0159181Y0062576D01*
X0159132Y0062722D01*
X0159087Y0062868D01*
X0159046Y0063016D01*
X0159009Y0063164D01*
X0158975Y0063314D01*
X0158945Y0063465D01*
X0158920Y0063616D01*
X0158898Y0063767D01*
X0158880Y0063920D01*
X0158866Y0064072D01*
X0158856Y0064225D01*
X0158850Y0064379D01*
X0158848Y0064532D01*
X0159473Y0123907D02*
X0159475Y0124060D01*
X0159481Y0124214D01*
X0159491Y0124367D01*
X0159505Y0124519D01*
X0159523Y0124672D01*
X0159545Y0124823D01*
X0159570Y0124974D01*
X0159600Y0125125D01*
X0159634Y0125275D01*
X0159671Y0125423D01*
X0159712Y0125571D01*
X0159757Y0125717D01*
X0159806Y0125863D01*
X0159859Y0126007D01*
X0159915Y0126149D01*
X0159975Y0126290D01*
X0160039Y0126430D01*
X0160106Y0126568D01*
X0160177Y0126704D01*
X0160252Y0126838D01*
X0160329Y0126970D01*
X0160411Y0127100D01*
X0160495Y0127228D01*
X0160583Y0127354D01*
X0160674Y0127477D01*
X0160768Y0127598D01*
X0160866Y0127716D01*
X0160966Y0127832D01*
X0161070Y0127945D01*
X0161176Y0128056D01*
X0161285Y0128164D01*
X0161397Y0128269D01*
X0161511Y0128370D01*
X0161629Y0128469D01*
X0161748Y0128565D01*
X0161870Y0128658D01*
X0161995Y0128747D01*
X0162122Y0128834D01*
X0162251Y0128916D01*
X0162382Y0128996D01*
X0162515Y0129072D01*
X0162650Y0129145D01*
X0162787Y0129214D01*
X0162926Y0129279D01*
X0163066Y0129341D01*
X0163208Y0129399D01*
X0163351Y0129454D01*
X0163496Y0129505D01*
X0163642Y0129552D01*
X0163789Y0129595D01*
X0163937Y0129634D01*
X0164086Y0129670D01*
X0164236Y0129701D01*
X0164387Y0129729D01*
X0164538Y0129753D01*
X0164691Y0129773D01*
X0164843Y0129789D01*
X0164996Y0129801D01*
X0165149Y0129809D01*
X0165302Y0129813D01*
X0165456Y0129813D01*
X0165609Y0129809D01*
X0165762Y0129801D01*
X0165915Y0129789D01*
X0166067Y0129773D01*
X0166220Y0129753D01*
X0166371Y0129729D01*
X0166522Y0129701D01*
X0166672Y0129670D01*
X0166821Y0129634D01*
X0166969Y0129595D01*
X0167116Y0129552D01*
X0167262Y0129505D01*
X0167407Y0129454D01*
X0167550Y0129399D01*
X0167692Y0129341D01*
X0167832Y0129279D01*
X0167971Y0129214D01*
X0168108Y0129145D01*
X0168243Y0129072D01*
X0168376Y0128996D01*
X0168507Y0128916D01*
X0168636Y0128834D01*
X0168763Y0128747D01*
X0168888Y0128658D01*
X0169010Y0128565D01*
X0169129Y0128469D01*
X0169247Y0128370D01*
X0169361Y0128269D01*
X0169473Y0128164D01*
X0169582Y0128056D01*
X0169688Y0127945D01*
X0169792Y0127832D01*
X0169892Y0127716D01*
X0169990Y0127598D01*
X0170084Y0127477D01*
X0170175Y0127354D01*
X0170263Y0127228D01*
X0170347Y0127100D01*
X0170429Y0126970D01*
X0170506Y0126838D01*
X0170581Y0126704D01*
X0170652Y0126568D01*
X0170719Y0126430D01*
X0170783Y0126290D01*
X0170843Y0126149D01*
X0170899Y0126007D01*
X0170952Y0125863D01*
X0171001Y0125717D01*
X0171046Y0125571D01*
X0171087Y0125423D01*
X0171124Y0125275D01*
X0171158Y0125125D01*
X0171188Y0124974D01*
X0171213Y0124823D01*
X0171235Y0124672D01*
X0171253Y0124519D01*
X0171267Y0124367D01*
X0171277Y0124214D01*
X0171283Y0124060D01*
X0171285Y0123907D01*
X0171283Y0123754D01*
X0171277Y0123600D01*
X0171267Y0123447D01*
X0171253Y0123295D01*
X0171235Y0123142D01*
X0171213Y0122991D01*
X0171188Y0122840D01*
X0171158Y0122689D01*
X0171124Y0122539D01*
X0171087Y0122391D01*
X0171046Y0122243D01*
X0171001Y0122097D01*
X0170952Y0121951D01*
X0170899Y0121807D01*
X0170843Y0121665D01*
X0170783Y0121524D01*
X0170719Y0121384D01*
X0170652Y0121246D01*
X0170581Y0121110D01*
X0170506Y0120976D01*
X0170429Y0120844D01*
X0170347Y0120714D01*
X0170263Y0120586D01*
X0170175Y0120460D01*
X0170084Y0120337D01*
X0169990Y0120216D01*
X0169892Y0120098D01*
X0169792Y0119982D01*
X0169688Y0119869D01*
X0169582Y0119758D01*
X0169473Y0119650D01*
X0169361Y0119545D01*
X0169247Y0119444D01*
X0169129Y0119345D01*
X0169010Y0119249D01*
X0168888Y0119156D01*
X0168763Y0119067D01*
X0168636Y0118980D01*
X0168507Y0118898D01*
X0168376Y0118818D01*
X0168243Y0118742D01*
X0168108Y0118669D01*
X0167971Y0118600D01*
X0167832Y0118535D01*
X0167692Y0118473D01*
X0167550Y0118415D01*
X0167407Y0118360D01*
X0167262Y0118309D01*
X0167116Y0118262D01*
X0166969Y0118219D01*
X0166821Y0118180D01*
X0166672Y0118144D01*
X0166522Y0118113D01*
X0166371Y0118085D01*
X0166220Y0118061D01*
X0166067Y0118041D01*
X0165915Y0118025D01*
X0165762Y0118013D01*
X0165609Y0118005D01*
X0165456Y0118001D01*
X0165302Y0118001D01*
X0165149Y0118005D01*
X0164996Y0118013D01*
X0164843Y0118025D01*
X0164691Y0118041D01*
X0164538Y0118061D01*
X0164387Y0118085D01*
X0164236Y0118113D01*
X0164086Y0118144D01*
X0163937Y0118180D01*
X0163789Y0118219D01*
X0163642Y0118262D01*
X0163496Y0118309D01*
X0163351Y0118360D01*
X0163208Y0118415D01*
X0163066Y0118473D01*
X0162926Y0118535D01*
X0162787Y0118600D01*
X0162650Y0118669D01*
X0162515Y0118742D01*
X0162382Y0118818D01*
X0162251Y0118898D01*
X0162122Y0118980D01*
X0161995Y0119067D01*
X0161870Y0119156D01*
X0161748Y0119249D01*
X0161629Y0119345D01*
X0161511Y0119444D01*
X0161397Y0119545D01*
X0161285Y0119650D01*
X0161176Y0119758D01*
X0161070Y0119869D01*
X0160966Y0119982D01*
X0160866Y0120098D01*
X0160768Y0120216D01*
X0160674Y0120337D01*
X0160583Y0120460D01*
X0160495Y0120586D01*
X0160411Y0120714D01*
X0160329Y0120844D01*
X0160252Y0120976D01*
X0160177Y0121110D01*
X0160106Y0121246D01*
X0160039Y0121384D01*
X0159975Y0121524D01*
X0159915Y0121665D01*
X0159859Y0121807D01*
X0159806Y0121951D01*
X0159757Y0122097D01*
X0159712Y0122243D01*
X0159671Y0122391D01*
X0159634Y0122539D01*
X0159600Y0122689D01*
X0159570Y0122840D01*
X0159545Y0122991D01*
X0159523Y0123142D01*
X0159505Y0123295D01*
X0159491Y0123447D01*
X0159481Y0123600D01*
X0159475Y0123754D01*
X0159473Y0123907D01*
X0089394Y0123907D02*
X0089396Y0124060D01*
X0089402Y0124214D01*
X0089412Y0124367D01*
X0089426Y0124519D01*
X0089444Y0124672D01*
X0089466Y0124823D01*
X0089491Y0124974D01*
X0089521Y0125125D01*
X0089555Y0125275D01*
X0089592Y0125423D01*
X0089633Y0125571D01*
X0089678Y0125717D01*
X0089727Y0125863D01*
X0089780Y0126007D01*
X0089836Y0126149D01*
X0089896Y0126290D01*
X0089960Y0126430D01*
X0090027Y0126568D01*
X0090098Y0126704D01*
X0090173Y0126838D01*
X0090250Y0126970D01*
X0090332Y0127100D01*
X0090416Y0127228D01*
X0090504Y0127354D01*
X0090595Y0127477D01*
X0090689Y0127598D01*
X0090787Y0127716D01*
X0090887Y0127832D01*
X0090991Y0127945D01*
X0091097Y0128056D01*
X0091206Y0128164D01*
X0091318Y0128269D01*
X0091432Y0128370D01*
X0091550Y0128469D01*
X0091669Y0128565D01*
X0091791Y0128658D01*
X0091916Y0128747D01*
X0092043Y0128834D01*
X0092172Y0128916D01*
X0092303Y0128996D01*
X0092436Y0129072D01*
X0092571Y0129145D01*
X0092708Y0129214D01*
X0092847Y0129279D01*
X0092987Y0129341D01*
X0093129Y0129399D01*
X0093272Y0129454D01*
X0093417Y0129505D01*
X0093563Y0129552D01*
X0093710Y0129595D01*
X0093858Y0129634D01*
X0094007Y0129670D01*
X0094157Y0129701D01*
X0094308Y0129729D01*
X0094459Y0129753D01*
X0094612Y0129773D01*
X0094764Y0129789D01*
X0094917Y0129801D01*
X0095070Y0129809D01*
X0095223Y0129813D01*
X0095377Y0129813D01*
X0095530Y0129809D01*
X0095683Y0129801D01*
X0095836Y0129789D01*
X0095988Y0129773D01*
X0096141Y0129753D01*
X0096292Y0129729D01*
X0096443Y0129701D01*
X0096593Y0129670D01*
X0096742Y0129634D01*
X0096890Y0129595D01*
X0097037Y0129552D01*
X0097183Y0129505D01*
X0097328Y0129454D01*
X0097471Y0129399D01*
X0097613Y0129341D01*
X0097753Y0129279D01*
X0097892Y0129214D01*
X0098029Y0129145D01*
X0098164Y0129072D01*
X0098297Y0128996D01*
X0098428Y0128916D01*
X0098557Y0128834D01*
X0098684Y0128747D01*
X0098809Y0128658D01*
X0098931Y0128565D01*
X0099050Y0128469D01*
X0099168Y0128370D01*
X0099282Y0128269D01*
X0099394Y0128164D01*
X0099503Y0128056D01*
X0099609Y0127945D01*
X0099713Y0127832D01*
X0099813Y0127716D01*
X0099911Y0127598D01*
X0100005Y0127477D01*
X0100096Y0127354D01*
X0100184Y0127228D01*
X0100268Y0127100D01*
X0100350Y0126970D01*
X0100427Y0126838D01*
X0100502Y0126704D01*
X0100573Y0126568D01*
X0100640Y0126430D01*
X0100704Y0126290D01*
X0100764Y0126149D01*
X0100820Y0126007D01*
X0100873Y0125863D01*
X0100922Y0125717D01*
X0100967Y0125571D01*
X0101008Y0125423D01*
X0101045Y0125275D01*
X0101079Y0125125D01*
X0101109Y0124974D01*
X0101134Y0124823D01*
X0101156Y0124672D01*
X0101174Y0124519D01*
X0101188Y0124367D01*
X0101198Y0124214D01*
X0101204Y0124060D01*
X0101206Y0123907D01*
X0101204Y0123754D01*
X0101198Y0123600D01*
X0101188Y0123447D01*
X0101174Y0123295D01*
X0101156Y0123142D01*
X0101134Y0122991D01*
X0101109Y0122840D01*
X0101079Y0122689D01*
X0101045Y0122539D01*
X0101008Y0122391D01*
X0100967Y0122243D01*
X0100922Y0122097D01*
X0100873Y0121951D01*
X0100820Y0121807D01*
X0100764Y0121665D01*
X0100704Y0121524D01*
X0100640Y0121384D01*
X0100573Y0121246D01*
X0100502Y0121110D01*
X0100427Y0120976D01*
X0100350Y0120844D01*
X0100268Y0120714D01*
X0100184Y0120586D01*
X0100096Y0120460D01*
X0100005Y0120337D01*
X0099911Y0120216D01*
X0099813Y0120098D01*
X0099713Y0119982D01*
X0099609Y0119869D01*
X0099503Y0119758D01*
X0099394Y0119650D01*
X0099282Y0119545D01*
X0099168Y0119444D01*
X0099050Y0119345D01*
X0098931Y0119249D01*
X0098809Y0119156D01*
X0098684Y0119067D01*
X0098557Y0118980D01*
X0098428Y0118898D01*
X0098297Y0118818D01*
X0098164Y0118742D01*
X0098029Y0118669D01*
X0097892Y0118600D01*
X0097753Y0118535D01*
X0097613Y0118473D01*
X0097471Y0118415D01*
X0097328Y0118360D01*
X0097183Y0118309D01*
X0097037Y0118262D01*
X0096890Y0118219D01*
X0096742Y0118180D01*
X0096593Y0118144D01*
X0096443Y0118113D01*
X0096292Y0118085D01*
X0096141Y0118061D01*
X0095988Y0118041D01*
X0095836Y0118025D01*
X0095683Y0118013D01*
X0095530Y0118005D01*
X0095377Y0118001D01*
X0095223Y0118001D01*
X0095070Y0118005D01*
X0094917Y0118013D01*
X0094764Y0118025D01*
X0094612Y0118041D01*
X0094459Y0118061D01*
X0094308Y0118085D01*
X0094157Y0118113D01*
X0094007Y0118144D01*
X0093858Y0118180D01*
X0093710Y0118219D01*
X0093563Y0118262D01*
X0093417Y0118309D01*
X0093272Y0118360D01*
X0093129Y0118415D01*
X0092987Y0118473D01*
X0092847Y0118535D01*
X0092708Y0118600D01*
X0092571Y0118669D01*
X0092436Y0118742D01*
X0092303Y0118818D01*
X0092172Y0118898D01*
X0092043Y0118980D01*
X0091916Y0119067D01*
X0091791Y0119156D01*
X0091669Y0119249D01*
X0091550Y0119345D01*
X0091432Y0119444D01*
X0091318Y0119545D01*
X0091206Y0119650D01*
X0091097Y0119758D01*
X0090991Y0119869D01*
X0090887Y0119982D01*
X0090787Y0120098D01*
X0090689Y0120216D01*
X0090595Y0120337D01*
X0090504Y0120460D01*
X0090416Y0120586D01*
X0090332Y0120714D01*
X0090250Y0120844D01*
X0090173Y0120976D01*
X0090098Y0121110D01*
X0090027Y0121246D01*
X0089960Y0121384D01*
X0089896Y0121524D01*
X0089836Y0121665D01*
X0089780Y0121807D01*
X0089727Y0121951D01*
X0089678Y0122097D01*
X0089633Y0122243D01*
X0089592Y0122391D01*
X0089555Y0122539D01*
X0089521Y0122689D01*
X0089491Y0122840D01*
X0089466Y0122991D01*
X0089444Y0123142D01*
X0089426Y0123295D01*
X0089412Y0123447D01*
X0089402Y0123600D01*
X0089396Y0123754D01*
X0089394Y0123907D01*
X0088769Y0064532D02*
X0088771Y0064685D01*
X0088777Y0064839D01*
X0088787Y0064992D01*
X0088801Y0065144D01*
X0088819Y0065297D01*
X0088841Y0065448D01*
X0088866Y0065599D01*
X0088896Y0065750D01*
X0088930Y0065900D01*
X0088967Y0066048D01*
X0089008Y0066196D01*
X0089053Y0066342D01*
X0089102Y0066488D01*
X0089155Y0066632D01*
X0089211Y0066774D01*
X0089271Y0066915D01*
X0089335Y0067055D01*
X0089402Y0067193D01*
X0089473Y0067329D01*
X0089548Y0067463D01*
X0089625Y0067595D01*
X0089707Y0067725D01*
X0089791Y0067853D01*
X0089879Y0067979D01*
X0089970Y0068102D01*
X0090064Y0068223D01*
X0090162Y0068341D01*
X0090262Y0068457D01*
X0090366Y0068570D01*
X0090472Y0068681D01*
X0090581Y0068789D01*
X0090693Y0068894D01*
X0090807Y0068995D01*
X0090925Y0069094D01*
X0091044Y0069190D01*
X0091166Y0069283D01*
X0091291Y0069372D01*
X0091418Y0069459D01*
X0091547Y0069541D01*
X0091678Y0069621D01*
X0091811Y0069697D01*
X0091946Y0069770D01*
X0092083Y0069839D01*
X0092222Y0069904D01*
X0092362Y0069966D01*
X0092504Y0070024D01*
X0092647Y0070079D01*
X0092792Y0070130D01*
X0092938Y0070177D01*
X0093085Y0070220D01*
X0093233Y0070259D01*
X0093382Y0070295D01*
X0093532Y0070326D01*
X0093683Y0070354D01*
X0093834Y0070378D01*
X0093987Y0070398D01*
X0094139Y0070414D01*
X0094292Y0070426D01*
X0094445Y0070434D01*
X0094598Y0070438D01*
X0094752Y0070438D01*
X0094905Y0070434D01*
X0095058Y0070426D01*
X0095211Y0070414D01*
X0095363Y0070398D01*
X0095516Y0070378D01*
X0095667Y0070354D01*
X0095818Y0070326D01*
X0095968Y0070295D01*
X0096117Y0070259D01*
X0096265Y0070220D01*
X0096412Y0070177D01*
X0096558Y0070130D01*
X0096703Y0070079D01*
X0096846Y0070024D01*
X0096988Y0069966D01*
X0097128Y0069904D01*
X0097267Y0069839D01*
X0097404Y0069770D01*
X0097539Y0069697D01*
X0097672Y0069621D01*
X0097803Y0069541D01*
X0097932Y0069459D01*
X0098059Y0069372D01*
X0098184Y0069283D01*
X0098306Y0069190D01*
X0098425Y0069094D01*
X0098543Y0068995D01*
X0098657Y0068894D01*
X0098769Y0068789D01*
X0098878Y0068681D01*
X0098984Y0068570D01*
X0099088Y0068457D01*
X0099188Y0068341D01*
X0099286Y0068223D01*
X0099380Y0068102D01*
X0099471Y0067979D01*
X0099559Y0067853D01*
X0099643Y0067725D01*
X0099725Y0067595D01*
X0099802Y0067463D01*
X0099877Y0067329D01*
X0099948Y0067193D01*
X0100015Y0067055D01*
X0100079Y0066915D01*
X0100139Y0066774D01*
X0100195Y0066632D01*
X0100248Y0066488D01*
X0100297Y0066342D01*
X0100342Y0066196D01*
X0100383Y0066048D01*
X0100420Y0065900D01*
X0100454Y0065750D01*
X0100484Y0065599D01*
X0100509Y0065448D01*
X0100531Y0065297D01*
X0100549Y0065144D01*
X0100563Y0064992D01*
X0100573Y0064839D01*
X0100579Y0064685D01*
X0100581Y0064532D01*
X0100579Y0064379D01*
X0100573Y0064225D01*
X0100563Y0064072D01*
X0100549Y0063920D01*
X0100531Y0063767D01*
X0100509Y0063616D01*
X0100484Y0063465D01*
X0100454Y0063314D01*
X0100420Y0063164D01*
X0100383Y0063016D01*
X0100342Y0062868D01*
X0100297Y0062722D01*
X0100248Y0062576D01*
X0100195Y0062432D01*
X0100139Y0062290D01*
X0100079Y0062149D01*
X0100015Y0062009D01*
X0099948Y0061871D01*
X0099877Y0061735D01*
X0099802Y0061601D01*
X0099725Y0061469D01*
X0099643Y0061339D01*
X0099559Y0061211D01*
X0099471Y0061085D01*
X0099380Y0060962D01*
X0099286Y0060841D01*
X0099188Y0060723D01*
X0099088Y0060607D01*
X0098984Y0060494D01*
X0098878Y0060383D01*
X0098769Y0060275D01*
X0098657Y0060170D01*
X0098543Y0060069D01*
X0098425Y0059970D01*
X0098306Y0059874D01*
X0098184Y0059781D01*
X0098059Y0059692D01*
X0097932Y0059605D01*
X0097803Y0059523D01*
X0097672Y0059443D01*
X0097539Y0059367D01*
X0097404Y0059294D01*
X0097267Y0059225D01*
X0097128Y0059160D01*
X0096988Y0059098D01*
X0096846Y0059040D01*
X0096703Y0058985D01*
X0096558Y0058934D01*
X0096412Y0058887D01*
X0096265Y0058844D01*
X0096117Y0058805D01*
X0095968Y0058769D01*
X0095818Y0058738D01*
X0095667Y0058710D01*
X0095516Y0058686D01*
X0095363Y0058666D01*
X0095211Y0058650D01*
X0095058Y0058638D01*
X0094905Y0058630D01*
X0094752Y0058626D01*
X0094598Y0058626D01*
X0094445Y0058630D01*
X0094292Y0058638D01*
X0094139Y0058650D01*
X0093987Y0058666D01*
X0093834Y0058686D01*
X0093683Y0058710D01*
X0093532Y0058738D01*
X0093382Y0058769D01*
X0093233Y0058805D01*
X0093085Y0058844D01*
X0092938Y0058887D01*
X0092792Y0058934D01*
X0092647Y0058985D01*
X0092504Y0059040D01*
X0092362Y0059098D01*
X0092222Y0059160D01*
X0092083Y0059225D01*
X0091946Y0059294D01*
X0091811Y0059367D01*
X0091678Y0059443D01*
X0091547Y0059523D01*
X0091418Y0059605D01*
X0091291Y0059692D01*
X0091166Y0059781D01*
X0091044Y0059874D01*
X0090925Y0059970D01*
X0090807Y0060069D01*
X0090693Y0060170D01*
X0090581Y0060275D01*
X0090472Y0060383D01*
X0090366Y0060494D01*
X0090262Y0060607D01*
X0090162Y0060723D01*
X0090064Y0060841D01*
X0089970Y0060962D01*
X0089879Y0061085D01*
X0089791Y0061211D01*
X0089707Y0061339D01*
X0089625Y0061469D01*
X0089548Y0061601D01*
X0089473Y0061735D01*
X0089402Y0061871D01*
X0089335Y0062009D01*
X0089271Y0062149D01*
X0089211Y0062290D01*
X0089155Y0062432D01*
X0089102Y0062576D01*
X0089053Y0062722D01*
X0089008Y0062868D01*
X0088967Y0063016D01*
X0088930Y0063164D01*
X0088896Y0063314D01*
X0088866Y0063465D01*
X0088841Y0063616D01*
X0088819Y0063767D01*
X0088801Y0063920D01*
X0088787Y0064072D01*
X0088777Y0064225D01*
X0088771Y0064379D01*
X0088769Y0064532D01*
X0087594Y0213740D02*
X0087596Y0213893D01*
X0087602Y0214047D01*
X0087612Y0214200D01*
X0087626Y0214352D01*
X0087644Y0214505D01*
X0087666Y0214656D01*
X0087691Y0214807D01*
X0087721Y0214958D01*
X0087755Y0215108D01*
X0087792Y0215256D01*
X0087833Y0215404D01*
X0087878Y0215550D01*
X0087927Y0215696D01*
X0087980Y0215840D01*
X0088036Y0215982D01*
X0088096Y0216123D01*
X0088160Y0216263D01*
X0088227Y0216401D01*
X0088298Y0216537D01*
X0088373Y0216671D01*
X0088450Y0216803D01*
X0088532Y0216933D01*
X0088616Y0217061D01*
X0088704Y0217187D01*
X0088795Y0217310D01*
X0088889Y0217431D01*
X0088987Y0217549D01*
X0089087Y0217665D01*
X0089191Y0217778D01*
X0089297Y0217889D01*
X0089406Y0217997D01*
X0089518Y0218102D01*
X0089632Y0218203D01*
X0089750Y0218302D01*
X0089869Y0218398D01*
X0089991Y0218491D01*
X0090116Y0218580D01*
X0090243Y0218667D01*
X0090372Y0218749D01*
X0090503Y0218829D01*
X0090636Y0218905D01*
X0090771Y0218978D01*
X0090908Y0219047D01*
X0091047Y0219112D01*
X0091187Y0219174D01*
X0091329Y0219232D01*
X0091472Y0219287D01*
X0091617Y0219338D01*
X0091763Y0219385D01*
X0091910Y0219428D01*
X0092058Y0219467D01*
X0092207Y0219503D01*
X0092357Y0219534D01*
X0092508Y0219562D01*
X0092659Y0219586D01*
X0092812Y0219606D01*
X0092964Y0219622D01*
X0093117Y0219634D01*
X0093270Y0219642D01*
X0093423Y0219646D01*
X0093577Y0219646D01*
X0093730Y0219642D01*
X0093883Y0219634D01*
X0094036Y0219622D01*
X0094188Y0219606D01*
X0094341Y0219586D01*
X0094492Y0219562D01*
X0094643Y0219534D01*
X0094793Y0219503D01*
X0094942Y0219467D01*
X0095090Y0219428D01*
X0095237Y0219385D01*
X0095383Y0219338D01*
X0095528Y0219287D01*
X0095671Y0219232D01*
X0095813Y0219174D01*
X0095953Y0219112D01*
X0096092Y0219047D01*
X0096229Y0218978D01*
X0096364Y0218905D01*
X0096497Y0218829D01*
X0096628Y0218749D01*
X0096757Y0218667D01*
X0096884Y0218580D01*
X0097009Y0218491D01*
X0097131Y0218398D01*
X0097250Y0218302D01*
X0097368Y0218203D01*
X0097482Y0218102D01*
X0097594Y0217997D01*
X0097703Y0217889D01*
X0097809Y0217778D01*
X0097913Y0217665D01*
X0098013Y0217549D01*
X0098111Y0217431D01*
X0098205Y0217310D01*
X0098296Y0217187D01*
X0098384Y0217061D01*
X0098468Y0216933D01*
X0098550Y0216803D01*
X0098627Y0216671D01*
X0098702Y0216537D01*
X0098773Y0216401D01*
X0098840Y0216263D01*
X0098904Y0216123D01*
X0098964Y0215982D01*
X0099020Y0215840D01*
X0099073Y0215696D01*
X0099122Y0215550D01*
X0099167Y0215404D01*
X0099208Y0215256D01*
X0099245Y0215108D01*
X0099279Y0214958D01*
X0099309Y0214807D01*
X0099334Y0214656D01*
X0099356Y0214505D01*
X0099374Y0214352D01*
X0099388Y0214200D01*
X0099398Y0214047D01*
X0099404Y0213893D01*
X0099406Y0213740D01*
X0099404Y0213587D01*
X0099398Y0213433D01*
X0099388Y0213280D01*
X0099374Y0213128D01*
X0099356Y0212975D01*
X0099334Y0212824D01*
X0099309Y0212673D01*
X0099279Y0212522D01*
X0099245Y0212372D01*
X0099208Y0212224D01*
X0099167Y0212076D01*
X0099122Y0211930D01*
X0099073Y0211784D01*
X0099020Y0211640D01*
X0098964Y0211498D01*
X0098904Y0211357D01*
X0098840Y0211217D01*
X0098773Y0211079D01*
X0098702Y0210943D01*
X0098627Y0210809D01*
X0098550Y0210677D01*
X0098468Y0210547D01*
X0098384Y0210419D01*
X0098296Y0210293D01*
X0098205Y0210170D01*
X0098111Y0210049D01*
X0098013Y0209931D01*
X0097913Y0209815D01*
X0097809Y0209702D01*
X0097703Y0209591D01*
X0097594Y0209483D01*
X0097482Y0209378D01*
X0097368Y0209277D01*
X0097250Y0209178D01*
X0097131Y0209082D01*
X0097009Y0208989D01*
X0096884Y0208900D01*
X0096757Y0208813D01*
X0096628Y0208731D01*
X0096497Y0208651D01*
X0096364Y0208575D01*
X0096229Y0208502D01*
X0096092Y0208433D01*
X0095953Y0208368D01*
X0095813Y0208306D01*
X0095671Y0208248D01*
X0095528Y0208193D01*
X0095383Y0208142D01*
X0095237Y0208095D01*
X0095090Y0208052D01*
X0094942Y0208013D01*
X0094793Y0207977D01*
X0094643Y0207946D01*
X0094492Y0207918D01*
X0094341Y0207894D01*
X0094188Y0207874D01*
X0094036Y0207858D01*
X0093883Y0207846D01*
X0093730Y0207838D01*
X0093577Y0207834D01*
X0093423Y0207834D01*
X0093270Y0207838D01*
X0093117Y0207846D01*
X0092964Y0207858D01*
X0092812Y0207874D01*
X0092659Y0207894D01*
X0092508Y0207918D01*
X0092357Y0207946D01*
X0092207Y0207977D01*
X0092058Y0208013D01*
X0091910Y0208052D01*
X0091763Y0208095D01*
X0091617Y0208142D01*
X0091472Y0208193D01*
X0091329Y0208248D01*
X0091187Y0208306D01*
X0091047Y0208368D01*
X0090908Y0208433D01*
X0090771Y0208502D01*
X0090636Y0208575D01*
X0090503Y0208651D01*
X0090372Y0208731D01*
X0090243Y0208813D01*
X0090116Y0208900D01*
X0089991Y0208989D01*
X0089869Y0209082D01*
X0089750Y0209178D01*
X0089632Y0209277D01*
X0089518Y0209378D01*
X0089406Y0209483D01*
X0089297Y0209591D01*
X0089191Y0209702D01*
X0089087Y0209815D01*
X0088987Y0209931D01*
X0088889Y0210049D01*
X0088795Y0210170D01*
X0088704Y0210293D01*
X0088616Y0210419D01*
X0088532Y0210547D01*
X0088450Y0210677D01*
X0088373Y0210809D01*
X0088298Y0210943D01*
X0088227Y0211079D01*
X0088160Y0211217D01*
X0088096Y0211357D01*
X0088036Y0211498D01*
X0087980Y0211640D01*
X0087927Y0211784D01*
X0087878Y0211930D01*
X0087833Y0212076D01*
X0087792Y0212224D01*
X0087755Y0212372D01*
X0087721Y0212522D01*
X0087691Y0212673D01*
X0087666Y0212824D01*
X0087644Y0212975D01*
X0087626Y0213128D01*
X0087612Y0213280D01*
X0087602Y0213433D01*
X0087596Y0213587D01*
X0087594Y0213740D01*
X0120594Y0213740D02*
X0120596Y0213893D01*
X0120602Y0214047D01*
X0120612Y0214200D01*
X0120626Y0214352D01*
X0120644Y0214505D01*
X0120666Y0214656D01*
X0120691Y0214807D01*
X0120721Y0214958D01*
X0120755Y0215108D01*
X0120792Y0215256D01*
X0120833Y0215404D01*
X0120878Y0215550D01*
X0120927Y0215696D01*
X0120980Y0215840D01*
X0121036Y0215982D01*
X0121096Y0216123D01*
X0121160Y0216263D01*
X0121227Y0216401D01*
X0121298Y0216537D01*
X0121373Y0216671D01*
X0121450Y0216803D01*
X0121532Y0216933D01*
X0121616Y0217061D01*
X0121704Y0217187D01*
X0121795Y0217310D01*
X0121889Y0217431D01*
X0121987Y0217549D01*
X0122087Y0217665D01*
X0122191Y0217778D01*
X0122297Y0217889D01*
X0122406Y0217997D01*
X0122518Y0218102D01*
X0122632Y0218203D01*
X0122750Y0218302D01*
X0122869Y0218398D01*
X0122991Y0218491D01*
X0123116Y0218580D01*
X0123243Y0218667D01*
X0123372Y0218749D01*
X0123503Y0218829D01*
X0123636Y0218905D01*
X0123771Y0218978D01*
X0123908Y0219047D01*
X0124047Y0219112D01*
X0124187Y0219174D01*
X0124329Y0219232D01*
X0124472Y0219287D01*
X0124617Y0219338D01*
X0124763Y0219385D01*
X0124910Y0219428D01*
X0125058Y0219467D01*
X0125207Y0219503D01*
X0125357Y0219534D01*
X0125508Y0219562D01*
X0125659Y0219586D01*
X0125812Y0219606D01*
X0125964Y0219622D01*
X0126117Y0219634D01*
X0126270Y0219642D01*
X0126423Y0219646D01*
X0126577Y0219646D01*
X0126730Y0219642D01*
X0126883Y0219634D01*
X0127036Y0219622D01*
X0127188Y0219606D01*
X0127341Y0219586D01*
X0127492Y0219562D01*
X0127643Y0219534D01*
X0127793Y0219503D01*
X0127942Y0219467D01*
X0128090Y0219428D01*
X0128237Y0219385D01*
X0128383Y0219338D01*
X0128528Y0219287D01*
X0128671Y0219232D01*
X0128813Y0219174D01*
X0128953Y0219112D01*
X0129092Y0219047D01*
X0129229Y0218978D01*
X0129364Y0218905D01*
X0129497Y0218829D01*
X0129628Y0218749D01*
X0129757Y0218667D01*
X0129884Y0218580D01*
X0130009Y0218491D01*
X0130131Y0218398D01*
X0130250Y0218302D01*
X0130368Y0218203D01*
X0130482Y0218102D01*
X0130594Y0217997D01*
X0130703Y0217889D01*
X0130809Y0217778D01*
X0130913Y0217665D01*
X0131013Y0217549D01*
X0131111Y0217431D01*
X0131205Y0217310D01*
X0131296Y0217187D01*
X0131384Y0217061D01*
X0131468Y0216933D01*
X0131550Y0216803D01*
X0131627Y0216671D01*
X0131702Y0216537D01*
X0131773Y0216401D01*
X0131840Y0216263D01*
X0131904Y0216123D01*
X0131964Y0215982D01*
X0132020Y0215840D01*
X0132073Y0215696D01*
X0132122Y0215550D01*
X0132167Y0215404D01*
X0132208Y0215256D01*
X0132245Y0215108D01*
X0132279Y0214958D01*
X0132309Y0214807D01*
X0132334Y0214656D01*
X0132356Y0214505D01*
X0132374Y0214352D01*
X0132388Y0214200D01*
X0132398Y0214047D01*
X0132404Y0213893D01*
X0132406Y0213740D01*
X0132404Y0213587D01*
X0132398Y0213433D01*
X0132388Y0213280D01*
X0132374Y0213128D01*
X0132356Y0212975D01*
X0132334Y0212824D01*
X0132309Y0212673D01*
X0132279Y0212522D01*
X0132245Y0212372D01*
X0132208Y0212224D01*
X0132167Y0212076D01*
X0132122Y0211930D01*
X0132073Y0211784D01*
X0132020Y0211640D01*
X0131964Y0211498D01*
X0131904Y0211357D01*
X0131840Y0211217D01*
X0131773Y0211079D01*
X0131702Y0210943D01*
X0131627Y0210809D01*
X0131550Y0210677D01*
X0131468Y0210547D01*
X0131384Y0210419D01*
X0131296Y0210293D01*
X0131205Y0210170D01*
X0131111Y0210049D01*
X0131013Y0209931D01*
X0130913Y0209815D01*
X0130809Y0209702D01*
X0130703Y0209591D01*
X0130594Y0209483D01*
X0130482Y0209378D01*
X0130368Y0209277D01*
X0130250Y0209178D01*
X0130131Y0209082D01*
X0130009Y0208989D01*
X0129884Y0208900D01*
X0129757Y0208813D01*
X0129628Y0208731D01*
X0129497Y0208651D01*
X0129364Y0208575D01*
X0129229Y0208502D01*
X0129092Y0208433D01*
X0128953Y0208368D01*
X0128813Y0208306D01*
X0128671Y0208248D01*
X0128528Y0208193D01*
X0128383Y0208142D01*
X0128237Y0208095D01*
X0128090Y0208052D01*
X0127942Y0208013D01*
X0127793Y0207977D01*
X0127643Y0207946D01*
X0127492Y0207918D01*
X0127341Y0207894D01*
X0127188Y0207874D01*
X0127036Y0207858D01*
X0126883Y0207846D01*
X0126730Y0207838D01*
X0126577Y0207834D01*
X0126423Y0207834D01*
X0126270Y0207838D01*
X0126117Y0207846D01*
X0125964Y0207858D01*
X0125812Y0207874D01*
X0125659Y0207894D01*
X0125508Y0207918D01*
X0125357Y0207946D01*
X0125207Y0207977D01*
X0125058Y0208013D01*
X0124910Y0208052D01*
X0124763Y0208095D01*
X0124617Y0208142D01*
X0124472Y0208193D01*
X0124329Y0208248D01*
X0124187Y0208306D01*
X0124047Y0208368D01*
X0123908Y0208433D01*
X0123771Y0208502D01*
X0123636Y0208575D01*
X0123503Y0208651D01*
X0123372Y0208731D01*
X0123243Y0208813D01*
X0123116Y0208900D01*
X0122991Y0208989D01*
X0122869Y0209082D01*
X0122750Y0209178D01*
X0122632Y0209277D01*
X0122518Y0209378D01*
X0122406Y0209483D01*
X0122297Y0209591D01*
X0122191Y0209702D01*
X0122087Y0209815D01*
X0121987Y0209931D01*
X0121889Y0210049D01*
X0121795Y0210170D01*
X0121704Y0210293D01*
X0121616Y0210419D01*
X0121532Y0210547D01*
X0121450Y0210677D01*
X0121373Y0210809D01*
X0121298Y0210943D01*
X0121227Y0211079D01*
X0121160Y0211217D01*
X0121096Y0211357D01*
X0121036Y0211498D01*
X0120980Y0211640D01*
X0120927Y0211784D01*
X0120878Y0211930D01*
X0120833Y0212076D01*
X0120792Y0212224D01*
X0120755Y0212372D01*
X0120721Y0212522D01*
X0120691Y0212673D01*
X0120666Y0212824D01*
X0120644Y0212975D01*
X0120626Y0213128D01*
X0120612Y0213280D01*
X0120602Y0213433D01*
X0120596Y0213587D01*
X0120594Y0213740D01*
X0147594Y0213740D02*
X0147596Y0213893D01*
X0147602Y0214047D01*
X0147612Y0214200D01*
X0147626Y0214352D01*
X0147644Y0214505D01*
X0147666Y0214656D01*
X0147691Y0214807D01*
X0147721Y0214958D01*
X0147755Y0215108D01*
X0147792Y0215256D01*
X0147833Y0215404D01*
X0147878Y0215550D01*
X0147927Y0215696D01*
X0147980Y0215840D01*
X0148036Y0215982D01*
X0148096Y0216123D01*
X0148160Y0216263D01*
X0148227Y0216401D01*
X0148298Y0216537D01*
X0148373Y0216671D01*
X0148450Y0216803D01*
X0148532Y0216933D01*
X0148616Y0217061D01*
X0148704Y0217187D01*
X0148795Y0217310D01*
X0148889Y0217431D01*
X0148987Y0217549D01*
X0149087Y0217665D01*
X0149191Y0217778D01*
X0149297Y0217889D01*
X0149406Y0217997D01*
X0149518Y0218102D01*
X0149632Y0218203D01*
X0149750Y0218302D01*
X0149869Y0218398D01*
X0149991Y0218491D01*
X0150116Y0218580D01*
X0150243Y0218667D01*
X0150372Y0218749D01*
X0150503Y0218829D01*
X0150636Y0218905D01*
X0150771Y0218978D01*
X0150908Y0219047D01*
X0151047Y0219112D01*
X0151187Y0219174D01*
X0151329Y0219232D01*
X0151472Y0219287D01*
X0151617Y0219338D01*
X0151763Y0219385D01*
X0151910Y0219428D01*
X0152058Y0219467D01*
X0152207Y0219503D01*
X0152357Y0219534D01*
X0152508Y0219562D01*
X0152659Y0219586D01*
X0152812Y0219606D01*
X0152964Y0219622D01*
X0153117Y0219634D01*
X0153270Y0219642D01*
X0153423Y0219646D01*
X0153577Y0219646D01*
X0153730Y0219642D01*
X0153883Y0219634D01*
X0154036Y0219622D01*
X0154188Y0219606D01*
X0154341Y0219586D01*
X0154492Y0219562D01*
X0154643Y0219534D01*
X0154793Y0219503D01*
X0154942Y0219467D01*
X0155090Y0219428D01*
X0155237Y0219385D01*
X0155383Y0219338D01*
X0155528Y0219287D01*
X0155671Y0219232D01*
X0155813Y0219174D01*
X0155953Y0219112D01*
X0156092Y0219047D01*
X0156229Y0218978D01*
X0156364Y0218905D01*
X0156497Y0218829D01*
X0156628Y0218749D01*
X0156757Y0218667D01*
X0156884Y0218580D01*
X0157009Y0218491D01*
X0157131Y0218398D01*
X0157250Y0218302D01*
X0157368Y0218203D01*
X0157482Y0218102D01*
X0157594Y0217997D01*
X0157703Y0217889D01*
X0157809Y0217778D01*
X0157913Y0217665D01*
X0158013Y0217549D01*
X0158111Y0217431D01*
X0158205Y0217310D01*
X0158296Y0217187D01*
X0158384Y0217061D01*
X0158468Y0216933D01*
X0158550Y0216803D01*
X0158627Y0216671D01*
X0158702Y0216537D01*
X0158773Y0216401D01*
X0158840Y0216263D01*
X0158904Y0216123D01*
X0158964Y0215982D01*
X0159020Y0215840D01*
X0159073Y0215696D01*
X0159122Y0215550D01*
X0159167Y0215404D01*
X0159208Y0215256D01*
X0159245Y0215108D01*
X0159279Y0214958D01*
X0159309Y0214807D01*
X0159334Y0214656D01*
X0159356Y0214505D01*
X0159374Y0214352D01*
X0159388Y0214200D01*
X0159398Y0214047D01*
X0159404Y0213893D01*
X0159406Y0213740D01*
X0159404Y0213587D01*
X0159398Y0213433D01*
X0159388Y0213280D01*
X0159374Y0213128D01*
X0159356Y0212975D01*
X0159334Y0212824D01*
X0159309Y0212673D01*
X0159279Y0212522D01*
X0159245Y0212372D01*
X0159208Y0212224D01*
X0159167Y0212076D01*
X0159122Y0211930D01*
X0159073Y0211784D01*
X0159020Y0211640D01*
X0158964Y0211498D01*
X0158904Y0211357D01*
X0158840Y0211217D01*
X0158773Y0211079D01*
X0158702Y0210943D01*
X0158627Y0210809D01*
X0158550Y0210677D01*
X0158468Y0210547D01*
X0158384Y0210419D01*
X0158296Y0210293D01*
X0158205Y0210170D01*
X0158111Y0210049D01*
X0158013Y0209931D01*
X0157913Y0209815D01*
X0157809Y0209702D01*
X0157703Y0209591D01*
X0157594Y0209483D01*
X0157482Y0209378D01*
X0157368Y0209277D01*
X0157250Y0209178D01*
X0157131Y0209082D01*
X0157009Y0208989D01*
X0156884Y0208900D01*
X0156757Y0208813D01*
X0156628Y0208731D01*
X0156497Y0208651D01*
X0156364Y0208575D01*
X0156229Y0208502D01*
X0156092Y0208433D01*
X0155953Y0208368D01*
X0155813Y0208306D01*
X0155671Y0208248D01*
X0155528Y0208193D01*
X0155383Y0208142D01*
X0155237Y0208095D01*
X0155090Y0208052D01*
X0154942Y0208013D01*
X0154793Y0207977D01*
X0154643Y0207946D01*
X0154492Y0207918D01*
X0154341Y0207894D01*
X0154188Y0207874D01*
X0154036Y0207858D01*
X0153883Y0207846D01*
X0153730Y0207838D01*
X0153577Y0207834D01*
X0153423Y0207834D01*
X0153270Y0207838D01*
X0153117Y0207846D01*
X0152964Y0207858D01*
X0152812Y0207874D01*
X0152659Y0207894D01*
X0152508Y0207918D01*
X0152357Y0207946D01*
X0152207Y0207977D01*
X0152058Y0208013D01*
X0151910Y0208052D01*
X0151763Y0208095D01*
X0151617Y0208142D01*
X0151472Y0208193D01*
X0151329Y0208248D01*
X0151187Y0208306D01*
X0151047Y0208368D01*
X0150908Y0208433D01*
X0150771Y0208502D01*
X0150636Y0208575D01*
X0150503Y0208651D01*
X0150372Y0208731D01*
X0150243Y0208813D01*
X0150116Y0208900D01*
X0149991Y0208989D01*
X0149869Y0209082D01*
X0149750Y0209178D01*
X0149632Y0209277D01*
X0149518Y0209378D01*
X0149406Y0209483D01*
X0149297Y0209591D01*
X0149191Y0209702D01*
X0149087Y0209815D01*
X0148987Y0209931D01*
X0148889Y0210049D01*
X0148795Y0210170D01*
X0148704Y0210293D01*
X0148616Y0210419D01*
X0148532Y0210547D01*
X0148450Y0210677D01*
X0148373Y0210809D01*
X0148298Y0210943D01*
X0148227Y0211079D01*
X0148160Y0211217D01*
X0148096Y0211357D01*
X0148036Y0211498D01*
X0147980Y0211640D01*
X0147927Y0211784D01*
X0147878Y0211930D01*
X0147833Y0212076D01*
X0147792Y0212224D01*
X0147755Y0212372D01*
X0147721Y0212522D01*
X0147691Y0212673D01*
X0147666Y0212824D01*
X0147644Y0212975D01*
X0147626Y0213128D01*
X0147612Y0213280D01*
X0147602Y0213433D01*
X0147596Y0213587D01*
X0147594Y0213740D01*
X0180594Y0213740D02*
X0180596Y0213893D01*
X0180602Y0214047D01*
X0180612Y0214200D01*
X0180626Y0214352D01*
X0180644Y0214505D01*
X0180666Y0214656D01*
X0180691Y0214807D01*
X0180721Y0214958D01*
X0180755Y0215108D01*
X0180792Y0215256D01*
X0180833Y0215404D01*
X0180878Y0215550D01*
X0180927Y0215696D01*
X0180980Y0215840D01*
X0181036Y0215982D01*
X0181096Y0216123D01*
X0181160Y0216263D01*
X0181227Y0216401D01*
X0181298Y0216537D01*
X0181373Y0216671D01*
X0181450Y0216803D01*
X0181532Y0216933D01*
X0181616Y0217061D01*
X0181704Y0217187D01*
X0181795Y0217310D01*
X0181889Y0217431D01*
X0181987Y0217549D01*
X0182087Y0217665D01*
X0182191Y0217778D01*
X0182297Y0217889D01*
X0182406Y0217997D01*
X0182518Y0218102D01*
X0182632Y0218203D01*
X0182750Y0218302D01*
X0182869Y0218398D01*
X0182991Y0218491D01*
X0183116Y0218580D01*
X0183243Y0218667D01*
X0183372Y0218749D01*
X0183503Y0218829D01*
X0183636Y0218905D01*
X0183771Y0218978D01*
X0183908Y0219047D01*
X0184047Y0219112D01*
X0184187Y0219174D01*
X0184329Y0219232D01*
X0184472Y0219287D01*
X0184617Y0219338D01*
X0184763Y0219385D01*
X0184910Y0219428D01*
X0185058Y0219467D01*
X0185207Y0219503D01*
X0185357Y0219534D01*
X0185508Y0219562D01*
X0185659Y0219586D01*
X0185812Y0219606D01*
X0185964Y0219622D01*
X0186117Y0219634D01*
X0186270Y0219642D01*
X0186423Y0219646D01*
X0186577Y0219646D01*
X0186730Y0219642D01*
X0186883Y0219634D01*
X0187036Y0219622D01*
X0187188Y0219606D01*
X0187341Y0219586D01*
X0187492Y0219562D01*
X0187643Y0219534D01*
X0187793Y0219503D01*
X0187942Y0219467D01*
X0188090Y0219428D01*
X0188237Y0219385D01*
X0188383Y0219338D01*
X0188528Y0219287D01*
X0188671Y0219232D01*
X0188813Y0219174D01*
X0188953Y0219112D01*
X0189092Y0219047D01*
X0189229Y0218978D01*
X0189364Y0218905D01*
X0189497Y0218829D01*
X0189628Y0218749D01*
X0189757Y0218667D01*
X0189884Y0218580D01*
X0190009Y0218491D01*
X0190131Y0218398D01*
X0190250Y0218302D01*
X0190368Y0218203D01*
X0190482Y0218102D01*
X0190594Y0217997D01*
X0190703Y0217889D01*
X0190809Y0217778D01*
X0190913Y0217665D01*
X0191013Y0217549D01*
X0191111Y0217431D01*
X0191205Y0217310D01*
X0191296Y0217187D01*
X0191384Y0217061D01*
X0191468Y0216933D01*
X0191550Y0216803D01*
X0191627Y0216671D01*
X0191702Y0216537D01*
X0191773Y0216401D01*
X0191840Y0216263D01*
X0191904Y0216123D01*
X0191964Y0215982D01*
X0192020Y0215840D01*
X0192073Y0215696D01*
X0192122Y0215550D01*
X0192167Y0215404D01*
X0192208Y0215256D01*
X0192245Y0215108D01*
X0192279Y0214958D01*
X0192309Y0214807D01*
X0192334Y0214656D01*
X0192356Y0214505D01*
X0192374Y0214352D01*
X0192388Y0214200D01*
X0192398Y0214047D01*
X0192404Y0213893D01*
X0192406Y0213740D01*
X0192404Y0213587D01*
X0192398Y0213433D01*
X0192388Y0213280D01*
X0192374Y0213128D01*
X0192356Y0212975D01*
X0192334Y0212824D01*
X0192309Y0212673D01*
X0192279Y0212522D01*
X0192245Y0212372D01*
X0192208Y0212224D01*
X0192167Y0212076D01*
X0192122Y0211930D01*
X0192073Y0211784D01*
X0192020Y0211640D01*
X0191964Y0211498D01*
X0191904Y0211357D01*
X0191840Y0211217D01*
X0191773Y0211079D01*
X0191702Y0210943D01*
X0191627Y0210809D01*
X0191550Y0210677D01*
X0191468Y0210547D01*
X0191384Y0210419D01*
X0191296Y0210293D01*
X0191205Y0210170D01*
X0191111Y0210049D01*
X0191013Y0209931D01*
X0190913Y0209815D01*
X0190809Y0209702D01*
X0190703Y0209591D01*
X0190594Y0209483D01*
X0190482Y0209378D01*
X0190368Y0209277D01*
X0190250Y0209178D01*
X0190131Y0209082D01*
X0190009Y0208989D01*
X0189884Y0208900D01*
X0189757Y0208813D01*
X0189628Y0208731D01*
X0189497Y0208651D01*
X0189364Y0208575D01*
X0189229Y0208502D01*
X0189092Y0208433D01*
X0188953Y0208368D01*
X0188813Y0208306D01*
X0188671Y0208248D01*
X0188528Y0208193D01*
X0188383Y0208142D01*
X0188237Y0208095D01*
X0188090Y0208052D01*
X0187942Y0208013D01*
X0187793Y0207977D01*
X0187643Y0207946D01*
X0187492Y0207918D01*
X0187341Y0207894D01*
X0187188Y0207874D01*
X0187036Y0207858D01*
X0186883Y0207846D01*
X0186730Y0207838D01*
X0186577Y0207834D01*
X0186423Y0207834D01*
X0186270Y0207838D01*
X0186117Y0207846D01*
X0185964Y0207858D01*
X0185812Y0207874D01*
X0185659Y0207894D01*
X0185508Y0207918D01*
X0185357Y0207946D01*
X0185207Y0207977D01*
X0185058Y0208013D01*
X0184910Y0208052D01*
X0184763Y0208095D01*
X0184617Y0208142D01*
X0184472Y0208193D01*
X0184329Y0208248D01*
X0184187Y0208306D01*
X0184047Y0208368D01*
X0183908Y0208433D01*
X0183771Y0208502D01*
X0183636Y0208575D01*
X0183503Y0208651D01*
X0183372Y0208731D01*
X0183243Y0208813D01*
X0183116Y0208900D01*
X0182991Y0208989D01*
X0182869Y0209082D01*
X0182750Y0209178D01*
X0182632Y0209277D01*
X0182518Y0209378D01*
X0182406Y0209483D01*
X0182297Y0209591D01*
X0182191Y0209702D01*
X0182087Y0209815D01*
X0181987Y0209931D01*
X0181889Y0210049D01*
X0181795Y0210170D01*
X0181704Y0210293D01*
X0181616Y0210419D01*
X0181532Y0210547D01*
X0181450Y0210677D01*
X0181373Y0210809D01*
X0181298Y0210943D01*
X0181227Y0211079D01*
X0181160Y0211217D01*
X0181096Y0211357D01*
X0181036Y0211498D01*
X0180980Y0211640D01*
X0180927Y0211784D01*
X0180878Y0211930D01*
X0180833Y0212076D01*
X0180792Y0212224D01*
X0180755Y0212372D01*
X0180721Y0212522D01*
X0180691Y0212673D01*
X0180666Y0212824D01*
X0180644Y0212975D01*
X0180626Y0213128D01*
X0180612Y0213280D01*
X0180602Y0213433D01*
X0180596Y0213587D01*
X0180594Y0213740D01*
D11*
X0217500Y0230000D02*
X0217500Y0005000D01*
D12*
X0216875Y0005000D02*
X0015000Y0005000D01*
X0005000Y0015000D01*
X0005000Y0225000D01*
X0010000Y0230000D01*
X0054375Y0230000D01*
X0064375Y0240000D01*
X0198125Y0240000D01*
X0208125Y0230000D01*
X0217500Y0230000D01*
D13*
X0205000Y0220000D03*
X0205000Y0210000D03*
X0205000Y0200000D03*
X0205000Y0190000D03*
X0205000Y0180000D03*
X0205000Y0170000D03*
X0205000Y0150000D03*
X0205000Y0140000D03*
X0205000Y0130000D03*
X0205000Y0120000D03*
X0205000Y0110000D03*
X0205000Y0100000D03*
X0205000Y0090000D03*
X0205000Y0080000D03*
X0184500Y0110000D03*
X0185500Y0120000D03*
X0184500Y0130000D03*
X0122500Y0018750D03*
X0112500Y0018750D03*
X0088125Y0018750D03*
X0078125Y0018750D03*
X0015000Y0020000D03*
X0015000Y0030000D03*
X0015000Y0045000D03*
X0015000Y0055000D03*
X0015000Y0065000D03*
X0015000Y0075000D03*
X0015000Y0085000D03*
X0015000Y0095000D03*
X0015000Y0105000D03*
X0015000Y0115000D03*
X0015000Y0125000D03*
X0015000Y0135000D03*
X0015000Y0150000D03*
X0015000Y0160000D03*
X0015000Y0170000D03*
X0015000Y0180000D03*
X0015000Y0190000D03*
X0015000Y0200000D03*
X0015000Y0210000D03*
X0015000Y0220000D03*
X0025000Y0220000D03*
X0025000Y0210000D03*
D14*
X0033750Y0021250D03*
X0033750Y0010625D03*
X0063750Y0010625D03*
X0063750Y0021250D03*
D15*
X0068650Y0038750D02*
X0073850Y0038750D01*
X0073850Y0048750D02*
X0068650Y0048750D01*
X0068650Y0058750D02*
X0073850Y0058750D01*
X0073850Y0068750D02*
X0068650Y0068750D01*
X0068650Y0078750D02*
X0073850Y0078750D01*
X0073850Y0088750D02*
X0068650Y0088750D01*
X0068650Y0098750D02*
X0073850Y0098750D01*
X0073850Y0108750D02*
X0068650Y0108750D01*
X0068650Y0118750D02*
X0073850Y0118750D01*
X0073850Y0140000D02*
X0068650Y0140000D01*
X0068650Y0150000D02*
X0073850Y0150000D01*
X0073850Y0160000D02*
X0068650Y0160000D01*
X0068650Y0170000D02*
X0073850Y0170000D01*
X0073850Y0180000D02*
X0068650Y0180000D01*
X0068650Y0190000D02*
X0073850Y0190000D01*
X0073850Y0200000D02*
X0068650Y0200000D01*
X0068650Y0210000D02*
X0073850Y0210000D01*
X0073850Y0220000D02*
X0068650Y0220000D01*
X0043850Y0220000D02*
X0038650Y0220000D01*
X0038650Y0210000D02*
X0043850Y0210000D01*
X0043850Y0200000D02*
X0038650Y0200000D01*
X0038650Y0190000D02*
X0043850Y0190000D01*
X0043850Y0180000D02*
X0038650Y0180000D01*
X0038650Y0170000D02*
X0043850Y0170000D01*
X0043850Y0160000D02*
X0038650Y0160000D01*
X0038650Y0150000D02*
X0043850Y0150000D01*
X0043850Y0140000D02*
X0038650Y0140000D01*
X0038650Y0118750D02*
X0043850Y0118750D01*
X0043850Y0108750D02*
X0038650Y0108750D01*
X0038650Y0098750D02*
X0043850Y0098750D01*
X0043850Y0088750D02*
X0038650Y0088750D01*
X0038650Y0078750D02*
X0043850Y0078750D01*
X0043850Y0068750D02*
X0038650Y0068750D01*
X0038650Y0058750D02*
X0043850Y0058750D01*
X0043850Y0048750D02*
X0038650Y0048750D01*
X0038650Y0038750D02*
X0043850Y0038750D01*
D16*
X0113179Y0062721D03*
X0129715Y0062721D03*
X0146250Y0062721D03*
X0141425Y0045000D03*
X0141425Y0016250D03*
X0146250Y0084375D03*
X0129715Y0084375D03*
X0130340Y0122096D03*
X0146875Y0122096D03*
X0146875Y0143750D03*
X0130340Y0143750D03*
X0126500Y0163300D03*
X0110000Y0163300D03*
X0093500Y0163300D03*
X0110000Y0185000D03*
X0126500Y0185000D03*
X0153500Y0163300D03*
X0170000Y0163300D03*
X0186500Y0163300D03*
X0186500Y0185000D03*
X0170000Y0185000D03*
X0113804Y0122096D03*
D17*
X0113804Y0143750D03*
X0093500Y0185000D03*
X0153500Y0185000D03*
X0113179Y0084375D03*
X0163125Y0045000D03*
X0163125Y0016250D03*
D18*
X0063125Y0121310D02*
X0063125Y0221250D01*
X0058125Y0222500D02*
X0058127Y0222681D01*
X0058134Y0222862D01*
X0058145Y0223043D01*
X0058160Y0223224D01*
X0058180Y0223404D01*
X0058204Y0223584D01*
X0058232Y0223763D01*
X0058265Y0223941D01*
X0058302Y0224118D01*
X0058343Y0224295D01*
X0058388Y0224470D01*
X0058438Y0224645D01*
X0058492Y0224818D01*
X0058550Y0224989D01*
X0058612Y0225160D01*
X0058679Y0225328D01*
X0058749Y0225495D01*
X0058823Y0225661D01*
X0058902Y0225824D01*
X0058984Y0225985D01*
X0059070Y0226145D01*
X0059160Y0226302D01*
X0059254Y0226457D01*
X0059351Y0226610D01*
X0059453Y0226760D01*
X0059557Y0226908D01*
X0059666Y0227054D01*
X0059777Y0227196D01*
X0059893Y0227336D01*
X0060011Y0227473D01*
X0060133Y0227608D01*
X0060258Y0227739D01*
X0060386Y0227867D01*
X0060517Y0227992D01*
X0060652Y0228114D01*
X0060789Y0228232D01*
X0060929Y0228348D01*
X0061071Y0228459D01*
X0061217Y0228568D01*
X0061365Y0228672D01*
X0061515Y0228774D01*
X0061668Y0228871D01*
X0061823Y0228965D01*
X0061980Y0229055D01*
X0062140Y0229141D01*
X0062301Y0229223D01*
X0062464Y0229302D01*
X0062630Y0229376D01*
X0062797Y0229446D01*
X0062965Y0229513D01*
X0063136Y0229575D01*
X0063307Y0229633D01*
X0063480Y0229687D01*
X0063655Y0229737D01*
X0063830Y0229782D01*
X0064007Y0229823D01*
X0064184Y0229860D01*
X0064362Y0229893D01*
X0064541Y0229921D01*
X0064721Y0229945D01*
X0064901Y0229965D01*
X0065082Y0229980D01*
X0065263Y0229991D01*
X0065444Y0229998D01*
X0065625Y0230000D01*
X0092992Y0230000D01*
X0088644Y0225625D02*
X0067500Y0225625D01*
X0067370Y0225623D01*
X0067241Y0225617D01*
X0067112Y0225608D01*
X0066983Y0225594D01*
X0066854Y0225577D01*
X0066726Y0225556D01*
X0066599Y0225531D01*
X0066472Y0225503D01*
X0066347Y0225470D01*
X0066222Y0225434D01*
X0066099Y0225395D01*
X0065977Y0225351D01*
X0065856Y0225304D01*
X0065736Y0225254D01*
X0065618Y0225200D01*
X0065502Y0225142D01*
X0065388Y0225081D01*
X0065275Y0225017D01*
X0065165Y0224949D01*
X0065056Y0224879D01*
X0064949Y0224805D01*
X0064845Y0224727D01*
X0064743Y0224647D01*
X0064644Y0224564D01*
X0064547Y0224478D01*
X0064453Y0224389D01*
X0064361Y0224297D01*
X0064272Y0224203D01*
X0064186Y0224106D01*
X0064103Y0224007D01*
X0064023Y0223905D01*
X0063945Y0223801D01*
X0063871Y0223694D01*
X0063801Y0223585D01*
X0063733Y0223475D01*
X0063669Y0223362D01*
X0063608Y0223248D01*
X0063550Y0223132D01*
X0063496Y0223014D01*
X0063446Y0222894D01*
X0063399Y0222773D01*
X0063355Y0222651D01*
X0063316Y0222528D01*
X0063280Y0222403D01*
X0063247Y0222278D01*
X0063219Y0222151D01*
X0063194Y0222024D01*
X0063173Y0221896D01*
X0063156Y0221767D01*
X0063142Y0221638D01*
X0063133Y0221509D01*
X0063127Y0221380D01*
X0063125Y0221250D01*
X0058125Y0222500D02*
X0058125Y0123207D01*
X0049228Y0101728D02*
X0046250Y0098750D01*
X0041250Y0098750D01*
X0024996Y0087355D02*
X0025157Y0086835D01*
X0025331Y0086319D01*
X0025518Y0085808D01*
X0025716Y0085301D01*
X0025928Y0084799D01*
X0026151Y0084303D01*
X0026387Y0083812D01*
X0026634Y0083327D01*
X0026894Y0082848D01*
X0027165Y0082376D01*
X0027447Y0081911D01*
X0027741Y0081453D01*
X0028046Y0081002D01*
X0028362Y0080558D01*
X0028689Y0080123D01*
X0029026Y0079696D01*
X0036875Y0070000D01*
X0041250Y0068750D01*
X0032159Y0057112D02*
X0032290Y0056835D01*
X0032427Y0056561D01*
X0032571Y0056290D01*
X0032721Y0056023D01*
X0032877Y0055760D01*
X0033040Y0055500D01*
X0033209Y0055245D01*
X0033384Y0054993D01*
X0033564Y0054746D01*
X0033751Y0054503D01*
X0033943Y0054264D01*
X0034141Y0054030D01*
X0034344Y0053801D01*
X0034553Y0053577D01*
X0034767Y0053358D01*
X0038750Y0049375D01*
X0041250Y0048750D01*
X0032160Y0057112D02*
X0024158Y0074615D01*
X0021663Y0078885D02*
X0018125Y0083750D01*
X0015000Y0085000D01*
X0022592Y0095472D02*
X0022484Y0095822D01*
X0022367Y0096169D01*
X0022242Y0096513D01*
X0022108Y0096854D01*
X0021967Y0097191D01*
X0021817Y0097525D01*
X0021659Y0097855D01*
X0021493Y0098182D01*
X0021319Y0098504D01*
X0021137Y0098822D01*
X0020948Y0099135D01*
X0020751Y0099444D01*
X0020547Y0099747D01*
X0020335Y0100046D01*
X0020117Y0100339D01*
X0019891Y0100627D01*
X0019658Y0100910D01*
X0019418Y0101187D01*
X0019172Y0101458D01*
X0018919Y0101722D01*
X0018660Y0101981D01*
X0018395Y0102233D01*
X0018123Y0102479D01*
X0017846Y0102718D01*
X0017563Y0102950D01*
X0015000Y0105000D01*
X0019779Y0111283D02*
X0015000Y0115000D01*
X0015000Y0125000D02*
X0040000Y0150000D01*
X0041250Y0150000D01*
X0041250Y0160000D02*
X0040000Y0160000D01*
X0015000Y0135000D01*
X0015000Y0150000D02*
X0041250Y0170000D01*
X0041250Y0180000D02*
X0015000Y0160000D01*
X0015000Y0170000D02*
X0041250Y0190000D01*
X0041250Y0200000D02*
X0015000Y0180000D01*
X0015000Y0190000D02*
X0041250Y0210000D01*
X0088644Y0225625D02*
X0088947Y0225621D01*
X0089249Y0225610D01*
X0089551Y0225592D01*
X0089852Y0225566D01*
X0090153Y0225532D01*
X0090453Y0225492D01*
X0090751Y0225444D01*
X0091049Y0225388D01*
X0091345Y0225325D01*
X0091639Y0225256D01*
X0091932Y0225178D01*
X0092222Y0225094D01*
X0092511Y0225003D01*
X0092797Y0224904D01*
X0093080Y0224799D01*
X0093361Y0224687D01*
X0093639Y0224567D01*
X0093914Y0224441D01*
X0094186Y0224309D01*
X0094455Y0224169D01*
X0094720Y0224024D01*
X0094981Y0223871D01*
X0095239Y0223713D01*
X0095493Y0223548D01*
X0095742Y0223376D01*
X0095987Y0223199D01*
X0096228Y0223016D01*
X0096464Y0222827D01*
X0096696Y0222632D01*
X0096922Y0222432D01*
X0097144Y0222226D01*
X0097361Y0222015D01*
X0097360Y0222015D02*
X0112661Y0206714D01*
X0118858Y0208553D02*
X0099654Y0227289D01*
X0099487Y0227447D01*
X0099316Y0227602D01*
X0099142Y0227753D01*
X0098964Y0227899D01*
X0098783Y0228042D01*
X0098598Y0228179D01*
X0098410Y0228312D01*
X0098218Y0228441D01*
X0098024Y0228565D01*
X0097827Y0228684D01*
X0097627Y0228798D01*
X0097424Y0228908D01*
X0097219Y0229013D01*
X0097011Y0229112D01*
X0096801Y0229207D01*
X0096588Y0229296D01*
X0096374Y0229380D01*
X0096157Y0229460D01*
X0095939Y0229533D01*
X0095719Y0229602D01*
X0095497Y0229665D01*
X0095274Y0229723D01*
X0095050Y0229775D01*
X0094824Y0229822D01*
X0094598Y0229864D01*
X0094370Y0229900D01*
X0094142Y0229930D01*
X0093912Y0229955D01*
X0093683Y0229975D01*
X0093453Y0229989D01*
X0093222Y0229997D01*
X0092992Y0230000D01*
X0112661Y0206713D02*
X0113064Y0206321D01*
X0113476Y0205938D01*
X0113898Y0205565D01*
X0114328Y0205203D01*
X0114767Y0204851D01*
X0115215Y0204511D01*
X0115671Y0204181D01*
X0116135Y0203863D01*
X0116606Y0203556D01*
X0117085Y0203261D01*
X0117571Y0202978D01*
X0118064Y0202706D01*
X0118563Y0202447D01*
X0119069Y0202201D01*
X0119580Y0201966D01*
X0120098Y0201745D01*
X0120620Y0201536D01*
X0121147Y0201340D01*
X0121679Y0201157D01*
X0122215Y0200987D01*
X0122756Y0200830D01*
X0123300Y0200687D01*
X0123847Y0200557D01*
X0124397Y0200440D01*
X0124950Y0200337D01*
X0125506Y0200248D01*
X0126063Y0200172D01*
X0126622Y0200110D01*
X0127183Y0200062D01*
X0127744Y0200028D01*
X0128306Y0200007D01*
X0128869Y0200000D01*
X0175000Y0200000D01*
X0170407Y0211526D02*
X0174839Y0216874D01*
X0170407Y0211526D02*
X0170122Y0211190D01*
X0169829Y0210862D01*
X0169528Y0210541D01*
X0169219Y0210227D01*
X0168903Y0209921D01*
X0168579Y0209623D01*
X0168249Y0209333D01*
X0167911Y0209050D01*
X0167566Y0208777D01*
X0167215Y0208511D01*
X0166858Y0208255D01*
X0166494Y0208007D01*
X0166124Y0207768D01*
X0165749Y0207538D01*
X0165368Y0207318D01*
X0164982Y0207107D01*
X0164591Y0206905D01*
X0164195Y0206713D01*
X0163794Y0206530D01*
X0163389Y0206358D01*
X0162980Y0206195D01*
X0162567Y0206043D01*
X0162151Y0205900D01*
X0161731Y0205768D01*
X0161308Y0205646D01*
X0160883Y0205535D01*
X0160454Y0205433D01*
X0160024Y0205343D01*
X0159591Y0205263D01*
X0159156Y0205193D01*
X0158720Y0205134D01*
X0158283Y0205086D01*
X0157844Y0205048D01*
X0157405Y0205021D01*
X0156965Y0205005D01*
X0156525Y0205000D01*
X0127587Y0205000D01*
X0127285Y0205004D01*
X0126983Y0205015D01*
X0126682Y0205033D01*
X0126381Y0205058D01*
X0126081Y0205091D01*
X0125781Y0205131D01*
X0125483Y0205178D01*
X0125186Y0205233D01*
X0124891Y0205294D01*
X0124597Y0205363D01*
X0124304Y0205439D01*
X0124014Y0205522D01*
X0123726Y0205611D01*
X0123439Y0205708D01*
X0123156Y0205812D01*
X0122875Y0205922D01*
X0122597Y0206039D01*
X0122321Y0206163D01*
X0122049Y0206294D01*
X0121780Y0206431D01*
X0121514Y0206574D01*
X0121252Y0206724D01*
X0120993Y0206880D01*
X0120739Y0207043D01*
X0120488Y0207211D01*
X0120242Y0207386D01*
X0120000Y0207566D01*
X0119762Y0207752D01*
X0119529Y0207944D01*
X0119300Y0208142D01*
X0119077Y0208344D01*
X0118858Y0208553D01*
X0174839Y0216874D02*
X0175275Y0217388D01*
X0175725Y0217891D01*
X0176186Y0218384D01*
X0176659Y0218864D01*
X0177143Y0219333D01*
X0177639Y0219790D01*
X0178146Y0220235D01*
X0178664Y0220668D01*
X0179192Y0221087D01*
X0179730Y0221494D01*
X0180278Y0221887D01*
X0180836Y0222267D01*
X0181402Y0222633D01*
X0181977Y0222985D01*
X0182561Y0223323D01*
X0183153Y0223647D01*
X0183752Y0223956D01*
X0184359Y0224250D01*
X0184973Y0224530D01*
X0185594Y0224794D01*
X0186220Y0225043D01*
X0186853Y0225277D01*
X0187491Y0225495D01*
X0188134Y0225698D01*
X0188782Y0225885D01*
X0189435Y0226056D01*
X0190091Y0226211D01*
X0190751Y0226350D01*
X0191415Y0226473D01*
X0192081Y0226579D01*
X0192749Y0226669D01*
X0193419Y0226743D01*
X0194091Y0226801D01*
X0194765Y0226842D01*
X0195439Y0226867D01*
X0196113Y0226875D01*
X0205185Y0226875D01*
X0205362Y0226873D01*
X0205538Y0226866D01*
X0205715Y0226856D01*
X0205891Y0226841D01*
X0206067Y0226822D01*
X0206242Y0226798D01*
X0206417Y0226771D01*
X0206590Y0226739D01*
X0206763Y0226703D01*
X0206936Y0226662D01*
X0207107Y0226618D01*
X0207277Y0226570D01*
X0207445Y0226517D01*
X0207613Y0226460D01*
X0207779Y0226400D01*
X0207943Y0226335D01*
X0208106Y0226266D01*
X0208268Y0226194D01*
X0208427Y0226117D01*
X0208584Y0226037D01*
X0208740Y0225953D01*
X0208893Y0225865D01*
X0209045Y0225774D01*
X0209194Y0225679D01*
X0209340Y0225580D01*
X0209485Y0225478D01*
X0209626Y0225372D01*
X0209766Y0225263D01*
X0209902Y0225151D01*
X0210036Y0225035D01*
X0210167Y0224917D01*
X0210295Y0224795D01*
X0210420Y0224670D01*
X0210542Y0224542D01*
X0210660Y0224411D01*
X0210776Y0224277D01*
X0210888Y0224141D01*
X0210997Y0224001D01*
X0211103Y0223860D01*
X0211205Y0223715D01*
X0211304Y0223569D01*
X0211399Y0223420D01*
X0211490Y0223268D01*
X0211578Y0223115D01*
X0211662Y0222959D01*
X0211742Y0222802D01*
X0211819Y0222643D01*
X0211891Y0222481D01*
X0211960Y0222318D01*
X0212025Y0222154D01*
X0212085Y0221988D01*
X0212142Y0221820D01*
X0212195Y0221652D01*
X0212243Y0221482D01*
X0212287Y0221311D01*
X0212328Y0221138D01*
X0212364Y0220965D01*
X0212396Y0220792D01*
X0212423Y0220617D01*
X0212447Y0220442D01*
X0212466Y0220266D01*
X0212481Y0220090D01*
X0212491Y0219913D01*
X0212498Y0219737D01*
X0212500Y0219560D01*
X0212500Y0199824D01*
X0208486Y0192324D02*
X0205000Y0190000D01*
X0208486Y0192324D02*
X0208664Y0192446D01*
X0208840Y0192572D01*
X0209012Y0192703D01*
X0209181Y0192837D01*
X0209347Y0192976D01*
X0209509Y0193118D01*
X0209668Y0193264D01*
X0209824Y0193414D01*
X0209976Y0193568D01*
X0210124Y0193725D01*
X0210268Y0193886D01*
X0210408Y0194051D01*
X0210545Y0194218D01*
X0210677Y0194389D01*
X0210805Y0194563D01*
X0210929Y0194740D01*
X0211049Y0194920D01*
X0211164Y0195102D01*
X0211275Y0195288D01*
X0211382Y0195476D01*
X0211484Y0195666D01*
X0211581Y0195859D01*
X0211674Y0196054D01*
X0211762Y0196252D01*
X0211845Y0196451D01*
X0211924Y0196652D01*
X0211997Y0196855D01*
X0212066Y0197060D01*
X0212130Y0197267D01*
X0212188Y0197475D01*
X0212242Y0197684D01*
X0212291Y0197894D01*
X0212335Y0198106D01*
X0212373Y0198319D01*
X0212407Y0198532D01*
X0212435Y0198746D01*
X0212459Y0198961D01*
X0212477Y0199176D01*
X0212490Y0199392D01*
X0212497Y0199608D01*
X0212500Y0199824D01*
X0053802Y0098802D02*
X0043750Y0088750D01*
X0041250Y0088750D01*
X0034737Y0083098D02*
X0038750Y0078750D01*
X0041250Y0078750D01*
X0029966Y0091852D02*
X0028299Y0098312D01*
X0022592Y0095472D02*
X0024997Y0087355D01*
X0028298Y0098312D02*
X0028145Y0098877D01*
X0027978Y0099438D01*
X0027798Y0099995D01*
X0027604Y0100547D01*
X0027397Y0101094D01*
X0027176Y0101636D01*
X0026942Y0102173D01*
X0026696Y0102703D01*
X0026436Y0103228D01*
X0026164Y0103746D01*
X0025879Y0104257D01*
X0025582Y0104761D01*
X0025273Y0105258D01*
X0024952Y0105747D01*
X0024618Y0106229D01*
X0024274Y0106702D01*
X0023918Y0107166D01*
X0023550Y0107622D01*
X0023172Y0108068D01*
X0022783Y0108505D01*
X0022383Y0108933D01*
X0021974Y0109351D01*
X0021554Y0109758D01*
X0021124Y0110156D01*
X0020685Y0110542D01*
X0020236Y0110918D01*
X0019779Y0111283D01*
X0049228Y0101729D02*
X0049733Y0102246D01*
X0050226Y0102775D01*
X0050706Y0103316D01*
X0051173Y0103868D01*
X0051626Y0104430D01*
X0052066Y0105004D01*
X0052493Y0105588D01*
X0052905Y0106182D01*
X0053303Y0106785D01*
X0053687Y0107398D01*
X0054056Y0108020D01*
X0054409Y0108650D01*
X0054748Y0109288D01*
X0055072Y0109935D01*
X0055380Y0110589D01*
X0055673Y0111250D01*
X0055949Y0111918D01*
X0056210Y0112592D01*
X0056454Y0113272D01*
X0056683Y0113958D01*
X0056895Y0114649D01*
X0057090Y0115345D01*
X0057269Y0116046D01*
X0057431Y0116750D01*
X0057576Y0117458D01*
X0057704Y0118170D01*
X0057816Y0118884D01*
X0057910Y0119601D01*
X0057987Y0120320D01*
X0058048Y0121040D01*
X0058091Y0121762D01*
X0058116Y0122484D01*
X0058125Y0123207D01*
X0029965Y0091852D02*
X0030091Y0091389D01*
X0030227Y0090929D01*
X0030374Y0090472D01*
X0030531Y0090019D01*
X0030699Y0089570D01*
X0030878Y0089125D01*
X0031067Y0088684D01*
X0031266Y0088248D01*
X0031476Y0087817D01*
X0031695Y0087390D01*
X0031925Y0086969D01*
X0032164Y0086554D01*
X0032413Y0086144D01*
X0032672Y0085740D01*
X0032940Y0085342D01*
X0033217Y0084951D01*
X0033503Y0084566D01*
X0033798Y0084188D01*
X0034102Y0083817D01*
X0034415Y0083454D01*
X0034736Y0083097D01*
X0024158Y0074615D02*
X0023924Y0075113D01*
X0023678Y0075606D01*
X0023422Y0076093D01*
X0023155Y0076574D01*
X0022877Y0077049D01*
X0022589Y0077518D01*
X0022291Y0077981D01*
X0021982Y0078436D01*
X0021663Y0078885D01*
X0053802Y0098801D02*
X0054331Y0099343D01*
X0054847Y0099898D01*
X0055350Y0100464D01*
X0055839Y0101043D01*
X0056315Y0101633D01*
X0056776Y0102234D01*
X0057223Y0102846D01*
X0057655Y0103468D01*
X0058072Y0104100D01*
X0058474Y0104742D01*
X0058860Y0105394D01*
X0059231Y0106055D01*
X0059586Y0106724D01*
X0059926Y0107401D01*
X0060248Y0108087D01*
X0060555Y0108779D01*
X0060845Y0109479D01*
X0061118Y0110186D01*
X0061374Y0110899D01*
X0061614Y0111618D01*
X0061836Y0112342D01*
X0062040Y0113071D01*
X0062228Y0113805D01*
X0062398Y0114544D01*
X0062550Y0115286D01*
X0062684Y0116031D01*
X0062801Y0116780D01*
X0062900Y0117531D01*
X0062981Y0118284D01*
X0063044Y0119039D01*
X0063089Y0119795D01*
X0063116Y0120552D01*
X0063125Y0121310D01*
D19*
X0054063Y0121942D02*
X0048295Y0121942D01*
X0048428Y0121809D02*
X0046909Y0123328D01*
X0044924Y0124150D01*
X0037576Y0124150D01*
X0035591Y0123328D01*
X0034072Y0121809D01*
X0033250Y0119824D01*
X0033250Y0117676D01*
X0034072Y0115691D01*
X0035591Y0114172D01*
X0036610Y0113750D01*
X0035591Y0113328D01*
X0034072Y0111809D01*
X0033250Y0109824D01*
X0033250Y0107676D01*
X0034072Y0105691D01*
X0035591Y0104172D01*
X0036610Y0103750D01*
X0035591Y0103328D01*
X0034072Y0101809D01*
X0033250Y0099824D01*
X0033250Y0097676D01*
X0034072Y0095691D01*
X0035591Y0094172D01*
X0036610Y0093750D01*
X0035591Y0093328D01*
X0034152Y0091888D01*
X0033839Y0092852D01*
X0033752Y0093188D01*
X0033640Y0093622D01*
X0031973Y0100082D01*
X0031401Y0102298D01*
X0028599Y0107793D01*
X0024669Y0112547D01*
X0024669Y0112547D01*
X0022863Y0113952D01*
X0021500Y0115012D01*
X0021500Y0116293D01*
X0020510Y0118682D01*
X0019192Y0120000D01*
X0020510Y0121318D01*
X0021500Y0123707D01*
X0021500Y0125843D01*
X0033869Y0138212D01*
X0033924Y0138042D01*
X0034288Y0137327D01*
X0034760Y0136678D01*
X0035328Y0136110D01*
X0035977Y0135638D01*
X0036692Y0135274D01*
X0037456Y0135026D01*
X0038249Y0134900D01*
X0041250Y0134900D01*
X0044251Y0134900D01*
X0045044Y0135026D01*
X0045808Y0135274D01*
X0046523Y0135638D01*
X0047172Y0136110D01*
X0047740Y0136678D01*
X0048212Y0137327D01*
X0048576Y0138042D01*
X0048824Y0138806D01*
X0048950Y0139599D01*
X0048950Y0140000D01*
X0048950Y0140401D01*
X0048824Y0141194D01*
X0048576Y0141958D01*
X0048212Y0142673D01*
X0047740Y0143322D01*
X0047172Y0143890D01*
X0046523Y0144362D01*
X0045808Y0144726D01*
X0045483Y0144832D01*
X0046909Y0145422D01*
X0048428Y0146941D01*
X0049250Y0148926D01*
X0049250Y0151074D01*
X0048428Y0153059D01*
X0046909Y0154578D01*
X0045890Y0155000D01*
X0046909Y0155422D01*
X0048428Y0156941D01*
X0049250Y0158926D01*
X0049250Y0161074D01*
X0048428Y0163059D01*
X0046909Y0164578D01*
X0045890Y0165000D01*
X0046909Y0165422D01*
X0048428Y0166941D01*
X0049250Y0168926D01*
X0049250Y0171074D01*
X0048428Y0173059D01*
X0046909Y0174578D01*
X0045890Y0175000D01*
X0046909Y0175422D01*
X0048428Y0176941D01*
X0049250Y0178926D01*
X0049250Y0181074D01*
X0048428Y0183059D01*
X0046909Y0184578D01*
X0045890Y0185000D01*
X0046909Y0185422D01*
X0048428Y0186941D01*
X0049250Y0188926D01*
X0049250Y0191074D01*
X0048428Y0193059D01*
X0046909Y0194578D01*
X0045890Y0195000D01*
X0046909Y0195422D01*
X0048428Y0196941D01*
X0049250Y0198926D01*
X0049250Y0201074D01*
X0048428Y0203059D01*
X0046909Y0204578D01*
X0045890Y0205000D01*
X0046909Y0205422D01*
X0048428Y0206941D01*
X0049250Y0208926D01*
X0049250Y0211074D01*
X0048428Y0213059D01*
X0046909Y0214578D01*
X0045890Y0215000D01*
X0046909Y0215422D01*
X0048428Y0216941D01*
X0049250Y0218926D01*
X0049250Y0221074D01*
X0048428Y0223059D01*
X0046909Y0224578D01*
X0044924Y0225400D01*
X0037576Y0225400D01*
X0035591Y0224578D01*
X0034072Y0223059D01*
X0033250Y0221074D01*
X0033250Y0218926D01*
X0034072Y0216941D01*
X0035591Y0215422D01*
X0036610Y0215000D01*
X0035591Y0214578D01*
X0034072Y0213059D01*
X0033250Y0211074D01*
X0033250Y0208933D01*
X0030830Y0207090D01*
X0031500Y0208707D01*
X0031500Y0211293D01*
X0030510Y0213682D01*
X0029192Y0215000D01*
X0030510Y0216318D01*
X0031500Y0218707D01*
X0031500Y0221293D01*
X0030510Y0223682D01*
X0028682Y0225510D01*
X0026293Y0226500D01*
X0023707Y0226500D01*
X0021318Y0225510D01*
X0020608Y0224800D01*
X0019392Y0224800D01*
X0018682Y0225510D01*
X0016293Y0226500D01*
X0013707Y0226500D01*
X0011318Y0225510D01*
X0009490Y0223682D01*
X0008500Y0221293D01*
X0008500Y0218707D01*
X0009490Y0216318D01*
X0010808Y0215000D01*
X0009490Y0213682D01*
X0008500Y0211293D01*
X0008500Y0208707D01*
X0009490Y0206318D01*
X0010808Y0205000D01*
X0009490Y0203682D01*
X0008500Y0201293D01*
X0008500Y0198707D01*
X0009490Y0196318D01*
X0010808Y0195000D01*
X0009490Y0193682D01*
X0008500Y0191293D01*
X0008500Y0188707D01*
X0009490Y0186318D01*
X0010808Y0185000D01*
X0009490Y0183682D01*
X0008500Y0181293D01*
X0008500Y0178707D01*
X0009490Y0176318D01*
X0010808Y0175000D01*
X0009490Y0173682D01*
X0008500Y0171293D01*
X0008500Y0168707D01*
X0009490Y0166318D01*
X0010808Y0165000D01*
X0009490Y0163682D01*
X0008500Y0161293D01*
X0008500Y0158707D01*
X0009490Y0156318D01*
X0010808Y0155000D01*
X0009490Y0153682D01*
X0008500Y0151293D01*
X0008500Y0148707D01*
X0009490Y0146318D01*
X0011318Y0144490D01*
X0013707Y0143500D01*
X0016293Y0143500D01*
X0018682Y0144490D01*
X0020510Y0146318D01*
X0021500Y0148707D01*
X0021500Y0149924D01*
X0033121Y0158778D01*
X0015843Y0141500D01*
X0013707Y0141500D01*
X0011318Y0140510D01*
X0009490Y0138682D01*
X0008500Y0136293D01*
X0008500Y0133707D01*
X0009490Y0131318D01*
X0010808Y0130000D01*
X0009490Y0128682D01*
X0008500Y0126293D01*
X0008500Y0123707D01*
X0009490Y0121318D01*
X0010808Y0120000D01*
X0009490Y0118682D01*
X0008500Y0116293D01*
X0008500Y0113707D01*
X0009490Y0111318D01*
X0010808Y0110000D01*
X0009490Y0108682D01*
X0008500Y0106293D01*
X0008500Y0103707D01*
X0009490Y0101318D01*
X0010808Y0100000D01*
X0009490Y0098682D01*
X0008500Y0096293D01*
X0008500Y0093707D01*
X0009490Y0091318D01*
X0010808Y0090000D01*
X0009490Y0088682D01*
X0008500Y0086293D01*
X0008500Y0083707D01*
X0009490Y0081318D01*
X0011029Y0079779D01*
X0010961Y0079729D01*
X0010271Y0079039D01*
X0009697Y0078250D01*
X0009254Y0077380D01*
X0008953Y0076452D01*
X0008800Y0075488D01*
X0008800Y0075000D01*
X0015000Y0075000D01*
X0015000Y0075000D01*
X0008800Y0075000D01*
X0008800Y0074512D01*
X0008953Y0073548D01*
X0009254Y0072620D01*
X0009697Y0071750D01*
X0010271Y0070961D01*
X0010961Y0070271D01*
X0011029Y0070221D01*
X0009490Y0068682D01*
X0008500Y0066293D01*
X0008500Y0063707D01*
X0009490Y0061318D01*
X0010808Y0060000D01*
X0009490Y0058682D01*
X0008500Y0056293D01*
X0008500Y0053707D01*
X0009490Y0051318D01*
X0010808Y0050000D01*
X0009490Y0048682D01*
X0008500Y0046293D01*
X0008500Y0043707D01*
X0009490Y0041318D01*
X0010600Y0040208D01*
X0010600Y0034792D01*
X0009490Y0033682D01*
X0008500Y0031293D01*
X0008500Y0028707D01*
X0009490Y0026318D01*
X0010808Y0025000D01*
X0009490Y0023682D01*
X0008500Y0021293D01*
X0008500Y0018707D01*
X0009490Y0016318D01*
X0011318Y0014490D01*
X0013707Y0013500D01*
X0016293Y0013500D01*
X0018682Y0014490D01*
X0019792Y0015600D01*
X0021419Y0015600D01*
X0023884Y0011561D01*
X0027382Y0008229D01*
X0027436Y0008100D01*
X0016284Y0008100D01*
X0008100Y0016284D01*
X0008100Y0223716D01*
X0011284Y0226900D01*
X0054963Y0226900D01*
X0054125Y0224321D01*
X0054125Y0123207D01*
X0053998Y0120622D01*
X0052989Y0115551D01*
X0051011Y0110774D01*
X0049250Y0108139D01*
X0049250Y0109824D01*
X0048428Y0111809D01*
X0046909Y0113328D01*
X0045890Y0113750D01*
X0046909Y0114172D01*
X0048428Y0115691D01*
X0049250Y0117676D01*
X0049250Y0119824D01*
X0048428Y0121809D01*
X0049250Y0118943D02*
X0053664Y0118943D01*
X0053068Y0115945D02*
X0048533Y0115945D01*
X0047290Y0112946D02*
X0051911Y0112946D01*
X0050459Y0109948D02*
X0049199Y0109948D01*
X0060785Y0100952D02*
X0063717Y0100952D01*
X0064072Y0101809D02*
X0063250Y0099824D01*
X0063250Y0097676D01*
X0064072Y0095691D01*
X0065591Y0094172D01*
X0066610Y0093750D01*
X0065591Y0093328D01*
X0064072Y0091809D01*
X0063250Y0089824D01*
X0063250Y0087676D01*
X0064072Y0085691D01*
X0065591Y0084172D01*
X0066610Y0083750D01*
X0065591Y0083328D01*
X0064072Y0081809D01*
X0063250Y0079824D01*
X0063250Y0077676D01*
X0064072Y0075691D01*
X0065591Y0074172D01*
X0066610Y0073750D01*
X0065591Y0073328D01*
X0064072Y0071809D01*
X0063250Y0069824D01*
X0063250Y0067676D01*
X0064072Y0065691D01*
X0065591Y0064172D01*
X0066610Y0063750D01*
X0065591Y0063328D01*
X0064072Y0061809D01*
X0063250Y0059824D01*
X0063250Y0057676D01*
X0064072Y0055691D01*
X0065591Y0054172D01*
X0066610Y0053750D01*
X0065591Y0053328D01*
X0064072Y0051809D01*
X0063250Y0049824D01*
X0063250Y0047676D01*
X0064072Y0045691D01*
X0065591Y0044172D01*
X0066610Y0043750D01*
X0065591Y0043328D01*
X0064072Y0041809D01*
X0063250Y0039824D01*
X0063250Y0037676D01*
X0063557Y0036934D01*
X0057788Y0036621D01*
X0056209Y0035865D01*
X0055040Y0034562D01*
X0054459Y0032911D01*
X0054554Y0031163D01*
X0055310Y0029584D01*
X0056613Y0028415D01*
X0058264Y0027834D01*
X0067262Y0028322D01*
X0138020Y0026473D01*
X0138075Y0026450D01*
X0138893Y0026450D01*
X0139710Y0026429D01*
X0139766Y0026450D01*
X0139825Y0026450D01*
X0140581Y0026763D01*
X0141344Y0027056D01*
X0141387Y0027097D01*
X0141442Y0027120D01*
X0142021Y0027698D01*
X0142614Y0028261D01*
X0142638Y0028315D01*
X0155625Y0041302D01*
X0155625Y0039754D01*
X0155721Y0039271D01*
X0155910Y0038816D01*
X0156183Y0038406D01*
X0156531Y0038058D01*
X0156941Y0037785D01*
X0157396Y0037596D01*
X0157879Y0037500D01*
X0163125Y0037500D01*
X0168371Y0037500D01*
X0168442Y0037514D01*
X0168362Y0037384D01*
X0167599Y0036576D01*
X0167301Y0036301D01*
X0166719Y0035763D01*
X0166142Y0035294D01*
X0164838Y0034586D01*
X0163399Y0034221D01*
X0162657Y0034175D01*
X0155762Y0034175D01*
X0150501Y0032811D01*
X0150501Y0032811D01*
X0145750Y0030170D01*
X0145750Y0030170D01*
X0144473Y0028954D01*
X0139324Y0024050D01*
X0138194Y0024050D01*
X0133625Y0019481D01*
X0133625Y0013019D01*
X0138194Y0008450D01*
X0144656Y0008450D01*
X0149225Y0013019D01*
X0149225Y0019481D01*
X0148845Y0019861D01*
X0149711Y0020686D01*
X0150294Y0021241D01*
X0150402Y0021344D01*
X0151540Y0022298D01*
X0154130Y0023737D01*
X0156998Y0024481D01*
X0158480Y0024575D01*
X0164603Y0024575D01*
X0168377Y0025533D01*
X0168377Y0025533D01*
X0171800Y0027389D01*
X0173230Y0028709D01*
X0173230Y0028709D01*
X0173932Y0029357D01*
X0174812Y0030169D01*
X0174812Y0030169D01*
X0175909Y0031182D01*
X0175909Y0031182D01*
X0178470Y0035356D01*
X0179800Y0040068D01*
X0179800Y0043303D01*
X0179909Y0046089D01*
X0180781Y0051592D01*
X0182503Y0056892D01*
X0185033Y0061857D01*
X0188308Y0066365D01*
X0190201Y0068413D01*
X0190300Y0068512D01*
X0192335Y0070547D01*
X0195688Y0075565D01*
X0197998Y0081141D01*
X0199175Y0087060D01*
X0199175Y0087078D01*
X0199490Y0086318D01*
X0200808Y0085000D01*
X0199490Y0083682D01*
X0198500Y0081293D01*
X0198500Y0078707D01*
X0199490Y0076318D01*
X0201318Y0074490D01*
X0203707Y0073500D01*
X0206293Y0073500D01*
X0208682Y0074490D01*
X0210510Y0076318D01*
X0211500Y0078707D01*
X0211500Y0081293D01*
X0210510Y0083682D01*
X0209192Y0085000D01*
X0210510Y0086318D01*
X0211500Y0088707D01*
X0211500Y0091293D01*
X0210510Y0093682D01*
X0209192Y0095000D01*
X0210510Y0096318D01*
X0211500Y0098707D01*
X0211500Y0101293D01*
X0210510Y0103682D01*
X0209192Y0105000D01*
X0210510Y0106318D01*
X0211500Y0108707D01*
X0211500Y0111293D01*
X0210510Y0113682D01*
X0209192Y0115000D01*
X0210510Y0116318D01*
X0211500Y0118707D01*
X0211500Y0121293D01*
X0210510Y0123682D01*
X0208971Y0125221D01*
X0209039Y0125271D01*
X0209729Y0125961D01*
X0210303Y0126750D01*
X0210746Y0127620D01*
X0211047Y0128548D01*
X0211200Y0129512D01*
X0211200Y0130000D01*
X0211200Y0130488D01*
X0211047Y0131452D01*
X0210746Y0132380D01*
X0210303Y0133250D01*
X0209729Y0134039D01*
X0209039Y0134729D01*
X0208666Y0135000D01*
X0209039Y0135271D01*
X0209729Y0135961D01*
X0210303Y0136750D01*
X0210746Y0137620D01*
X0211047Y0138548D01*
X0211200Y0139512D01*
X0211200Y0140000D01*
X0211200Y0140488D01*
X0211047Y0141452D01*
X0210746Y0142380D01*
X0210303Y0143250D01*
X0209729Y0144039D01*
X0209039Y0144729D01*
X0208971Y0144779D01*
X0210510Y0146318D01*
X0211500Y0148707D01*
X0211500Y0151293D01*
X0210510Y0153682D01*
X0208682Y0155510D01*
X0206293Y0156500D01*
X0203707Y0156500D01*
X0201318Y0155510D01*
X0199490Y0153682D01*
X0199269Y0153149D01*
X0198448Y0152876D01*
X0195540Y0151078D01*
X0194660Y0150198D01*
X0194225Y0149763D01*
X0193779Y0149317D01*
X0193656Y0149194D01*
X0192747Y0148285D01*
X0190657Y0144665D01*
X0189575Y0140628D01*
X0189575Y0134117D01*
X0188182Y0135510D01*
X0185793Y0136500D01*
X0183207Y0136500D01*
X0181228Y0135680D01*
X0181709Y0138099D01*
X0183032Y0141293D01*
X0184953Y0144168D01*
X0186066Y0145396D01*
X0195710Y0153850D01*
X0195983Y0153993D01*
X0196288Y0154356D01*
X0196645Y0154669D01*
X0196781Y0154946D01*
X0197806Y0156170D01*
X0197806Y0156170D01*
X0199787Y0159792D01*
X0199787Y0159792D01*
X0201023Y0163731D01*
X0201126Y0164682D01*
X0201318Y0164490D01*
X0203707Y0163500D01*
X0206293Y0163500D01*
X0208682Y0164490D01*
X0210510Y0166318D01*
X0211500Y0168707D01*
X0211500Y0171293D01*
X0210510Y0173682D01*
X0209192Y0175000D01*
X0210510Y0176318D01*
X0211500Y0178707D01*
X0211500Y0181293D01*
X0210510Y0183682D01*
X0209192Y0185000D01*
X0210510Y0186318D01*
X0211500Y0188707D01*
X0211500Y0189526D01*
X0212495Y0190189D01*
X0214500Y0192799D01*
X0214500Y0014500D01*
X0208100Y0008100D01*
X0194154Y0008100D01*
X0196626Y0009124D01*
X0198991Y0011489D01*
X0200271Y0014578D01*
X0200271Y0017922D01*
X0198991Y0021011D01*
X0196626Y0023376D01*
X0193537Y0024655D01*
X0190193Y0024655D01*
X0187104Y0023376D01*
X0184739Y0021011D01*
X0183460Y0017922D01*
X0183460Y0014578D01*
X0184739Y0011489D01*
X0187104Y0009124D01*
X0189576Y0008100D01*
X0070064Y0008100D01*
X0070550Y0009272D01*
X0070550Y0011978D01*
X0069515Y0014477D01*
X0068550Y0015442D01*
X0068550Y0016433D01*
X0069515Y0017398D01*
X0070550Y0019897D01*
X0070550Y0022603D01*
X0069515Y0025102D01*
X0067602Y0027015D01*
X0065103Y0028050D01*
X0062397Y0028050D01*
X0059898Y0027015D01*
X0057985Y0025102D01*
X0056950Y0022603D01*
X0056950Y0019897D01*
X0057985Y0017398D01*
X0058950Y0016433D01*
X0058950Y0015442D01*
X0057985Y0014477D01*
X0056950Y0011978D01*
X0056950Y0009272D01*
X0057436Y0008100D01*
X0040064Y0008100D01*
X0040550Y0009272D01*
X0040550Y0011978D01*
X0039515Y0014477D01*
X0038054Y0015937D01*
X0039515Y0017398D01*
X0040550Y0019897D01*
X0040550Y0022603D01*
X0039515Y0025102D01*
X0037602Y0027015D01*
X0035103Y0028050D01*
X0032397Y0028050D01*
X0029898Y0027015D01*
X0028775Y0025892D01*
X0028775Y0045059D01*
X0028854Y0045361D01*
X0028775Y0045926D01*
X0028775Y0046497D01*
X0028655Y0046786D01*
X0028403Y0048598D01*
X0026540Y0053005D01*
X0023600Y0056780D01*
X0022060Y0057943D01*
X0021790Y0058255D01*
X0021369Y0058466D01*
X0020993Y0058750D01*
X0020593Y0058854D01*
X0020224Y0059038D01*
X0020149Y0059044D01*
X0019192Y0060000D01*
X0020510Y0061318D01*
X0021500Y0063707D01*
X0021500Y0066293D01*
X0020510Y0068682D01*
X0018971Y0070221D01*
X0019039Y0070271D01*
X0019729Y0070961D01*
X0020303Y0071750D01*
X0020707Y0072544D01*
X0028191Y0056173D01*
X0028191Y0056173D01*
X0028522Y0055449D01*
X0029149Y0054076D01*
X0030871Y0051597D01*
X0031376Y0051092D01*
X0033250Y0049218D01*
X0033250Y0047676D01*
X0034072Y0045691D01*
X0035591Y0044172D01*
X0037017Y0043582D01*
X0036692Y0043476D01*
X0035977Y0043112D01*
X0035328Y0042640D01*
X0034760Y0042072D01*
X0034288Y0041423D01*
X0033924Y0040708D01*
X0033676Y0039944D01*
X0033550Y0039151D01*
X0033550Y0038750D01*
X0041250Y0038750D01*
X0048950Y0038750D01*
X0048950Y0039151D01*
X0048824Y0039944D01*
X0048576Y0040708D01*
X0048212Y0041423D01*
X0047740Y0042072D01*
X0047172Y0042640D01*
X0046523Y0043112D01*
X0045808Y0043476D01*
X0045483Y0043582D01*
X0046909Y0044172D01*
X0048428Y0045691D01*
X0049250Y0047676D01*
X0049250Y0049824D01*
X0048428Y0051809D01*
X0046909Y0053328D01*
X0045890Y0053750D01*
X0046909Y0054172D01*
X0048428Y0055691D01*
X0049250Y0057676D01*
X0049250Y0059824D01*
X0048428Y0061809D01*
X0046909Y0063328D01*
X0045890Y0063750D01*
X0046909Y0064172D01*
X0048428Y0065691D01*
X0049250Y0067676D01*
X0049250Y0069824D01*
X0048428Y0071809D01*
X0046909Y0073328D01*
X0045890Y0073750D01*
X0046909Y0074172D01*
X0048428Y0075691D01*
X0049250Y0077676D01*
X0049250Y0079824D01*
X0048428Y0081809D01*
X0046909Y0083328D01*
X0045890Y0083750D01*
X0046909Y0084172D01*
X0048428Y0085691D01*
X0049250Y0087676D01*
X0049250Y0088593D01*
X0056067Y0095411D01*
X0056156Y0095499D01*
X0057193Y0096536D01*
X0059126Y0098469D01*
X0063047Y0104337D01*
X0063047Y0104337D01*
X0063840Y0106252D01*
X0064072Y0105691D01*
X0065591Y0104172D01*
X0066610Y0103750D01*
X0065591Y0103328D01*
X0064072Y0101809D01*
X0062789Y0103951D02*
X0066125Y0103951D01*
X0063250Y0097954D02*
X0058611Y0097954D01*
X0059126Y0098469D02*
X0059126Y0098469D01*
X0055612Y0094955D02*
X0064808Y0094955D01*
X0064220Y0091957D02*
X0052614Y0091957D01*
X0049615Y0088958D02*
X0063250Y0088958D01*
X0063961Y0085960D02*
X0048539Y0085960D01*
X0047275Y0082961D02*
X0065225Y0082961D01*
X0063307Y0079963D02*
X0049193Y0079963D01*
X0048955Y0076964D02*
X0063545Y0076964D01*
X0066089Y0073966D02*
X0046411Y0073966D01*
X0048777Y0070967D02*
X0063723Y0070967D01*
X0063250Y0067969D02*
X0049250Y0067969D01*
X0047707Y0064970D02*
X0064793Y0064970D01*
X0064235Y0061972D02*
X0048265Y0061972D01*
X0049250Y0058973D02*
X0063250Y0058973D01*
X0063955Y0055975D02*
X0048545Y0055975D01*
X0047261Y0052976D02*
X0065239Y0052976D01*
X0063314Y0049978D02*
X0049186Y0049978D01*
X0048961Y0046979D02*
X0063539Y0046979D01*
X0066053Y0043981D02*
X0046447Y0043981D01*
X0048437Y0040982D02*
X0063730Y0040982D01*
X0063250Y0037984D02*
X0048892Y0037984D01*
X0048950Y0038349D02*
X0048950Y0038750D01*
X0041250Y0038750D01*
X0041250Y0038750D01*
X0041250Y0033650D01*
X0044251Y0033650D01*
X0045044Y0033776D01*
X0045808Y0034024D01*
X0046523Y0034388D01*
X0047172Y0034860D01*
X0047740Y0035428D01*
X0048212Y0036077D01*
X0048576Y0036792D01*
X0048824Y0037556D01*
X0048950Y0038349D01*
X0047298Y0034985D02*
X0055420Y0034985D01*
X0054509Y0031987D02*
X0028775Y0031987D01*
X0028775Y0034985D02*
X0035202Y0034985D01*
X0035328Y0034860D02*
X0035977Y0034388D01*
X0036692Y0034024D01*
X0037456Y0033776D01*
X0038249Y0033650D01*
X0041250Y0033650D01*
X0041250Y0038750D01*
X0041250Y0038750D01*
X0041250Y0038750D01*
X0033550Y0038750D01*
X0033550Y0038349D01*
X0033676Y0037556D01*
X0033924Y0036792D01*
X0034288Y0036077D01*
X0034760Y0035428D01*
X0035328Y0034860D01*
X0033608Y0037984D02*
X0028775Y0037984D01*
X0028775Y0040982D02*
X0034063Y0040982D01*
X0036053Y0043981D02*
X0028775Y0043981D01*
X0028629Y0046979D02*
X0033539Y0046979D01*
X0032490Y0049978D02*
X0027820Y0049978D01*
X0028403Y0048598D02*
X0028403Y0048598D01*
X0029913Y0052976D02*
X0026552Y0052976D01*
X0026540Y0053005D02*
X0026540Y0053005D01*
X0028522Y0055449D02*
X0028522Y0055449D01*
X0028281Y0055975D02*
X0024227Y0055975D01*
X0023600Y0056780D02*
X0023600Y0056780D01*
X0023600Y0056780D01*
X0020355Y0058973D02*
X0026911Y0058973D01*
X0025540Y0061972D02*
X0020781Y0061972D01*
X0021500Y0064970D02*
X0024169Y0064970D01*
X0022798Y0067969D02*
X0020806Y0067969D01*
X0021428Y0070967D02*
X0019734Y0070967D01*
X0010266Y0070967D02*
X0008100Y0070967D01*
X0008100Y0067969D02*
X0009194Y0067969D01*
X0008500Y0064970D02*
X0008100Y0064970D01*
X0008100Y0061972D02*
X0009219Y0061972D01*
X0009781Y0058973D02*
X0008100Y0058973D01*
X0008100Y0055975D02*
X0008500Y0055975D01*
X0008803Y0052976D02*
X0008100Y0052976D01*
X0008100Y0049978D02*
X0010785Y0049978D01*
X0008784Y0046979D02*
X0008100Y0046979D01*
X0008100Y0043981D02*
X0008500Y0043981D01*
X0008100Y0040982D02*
X0009825Y0040982D01*
X0010600Y0037984D02*
X0008100Y0037984D01*
X0008100Y0034985D02*
X0010600Y0034985D01*
X0008787Y0031987D02*
X0008100Y0031987D01*
X0008100Y0028988D02*
X0008500Y0028988D01*
X0008100Y0025990D02*
X0009818Y0025990D01*
X0009203Y0022991D02*
X0008100Y0022991D01*
X0008100Y0019993D02*
X0008500Y0019993D01*
X0008100Y0016994D02*
X0009210Y0016994D01*
X0010389Y0013996D02*
X0012511Y0013996D01*
X0013387Y0010997D02*
X0024476Y0010997D01*
X0023884Y0011561D02*
X0023884Y0011561D01*
X0022398Y0013996D02*
X0017489Y0013996D01*
X0028775Y0025990D02*
X0028873Y0025990D01*
X0028775Y0028988D02*
X0055975Y0028988D01*
X0058873Y0025990D02*
X0038627Y0025990D01*
X0040389Y0022991D02*
X0057111Y0022991D01*
X0056950Y0019993D02*
X0040550Y0019993D01*
X0039111Y0016994D02*
X0058389Y0016994D01*
X0057786Y0013996D02*
X0039714Y0013996D01*
X0040550Y0010997D02*
X0056950Y0010997D01*
X0069714Y0013996D02*
X0073687Y0013996D01*
X0074443Y0013240D02*
X0076832Y0012250D01*
X0079418Y0012250D01*
X0081807Y0013240D01*
X0083125Y0014558D01*
X0084443Y0013240D01*
X0086832Y0012250D01*
X0089418Y0012250D01*
X0091807Y0013240D01*
X0093635Y0015068D01*
X0094625Y0017457D01*
X0094625Y0020043D01*
X0093635Y0022432D01*
X0091807Y0024260D01*
X0089418Y0025250D01*
X0086832Y0025250D01*
X0084443Y0024260D01*
X0083125Y0022942D01*
X0081807Y0024260D01*
X0079418Y0025250D01*
X0076832Y0025250D01*
X0074443Y0024260D01*
X0072615Y0022432D01*
X0071625Y0020043D01*
X0071625Y0017457D01*
X0072615Y0015068D01*
X0074443Y0013240D01*
X0070550Y0010997D02*
X0135647Y0010997D01*
X0133625Y0013996D02*
X0126504Y0013996D01*
X0126539Y0014021D02*
X0127229Y0014711D01*
X0127803Y0015500D01*
X0128246Y0016370D01*
X0128547Y0017298D01*
X0128700Y0018262D01*
X0128700Y0018750D01*
X0128700Y0019238D01*
X0128547Y0020202D01*
X0128246Y0021130D01*
X0127803Y0022000D01*
X0127229Y0022789D01*
X0126539Y0023479D01*
X0125750Y0024053D01*
X0124880Y0024496D01*
X0123952Y0024797D01*
X0122988Y0024950D01*
X0122500Y0024950D01*
X0122500Y0018750D01*
X0122500Y0018750D01*
X0128700Y0018750D01*
X0122500Y0018750D01*
X0122500Y0018750D01*
X0122500Y0024950D01*
X0122012Y0024950D01*
X0121048Y0024797D01*
X0120120Y0024496D01*
X0119250Y0024053D01*
X0118461Y0023479D01*
X0117771Y0022789D01*
X0117500Y0022416D01*
X0117229Y0022789D01*
X0116539Y0023479D01*
X0115750Y0024053D01*
X0114880Y0024496D01*
X0113952Y0024797D01*
X0112988Y0024950D01*
X0112500Y0024950D01*
X0112500Y0018750D01*
X0112500Y0018750D01*
X0122500Y0018750D01*
X0122500Y0012550D01*
X0122988Y0012550D01*
X0123952Y0012703D01*
X0124880Y0013004D01*
X0125750Y0013447D01*
X0126539Y0014021D01*
X0128448Y0016994D02*
X0133625Y0016994D01*
X0134137Y0019993D02*
X0128580Y0019993D01*
X0127027Y0022991D02*
X0137135Y0022991D01*
X0141360Y0025990D02*
X0068627Y0025990D01*
X0070389Y0022991D02*
X0073174Y0022991D01*
X0071625Y0019993D02*
X0070550Y0019993D01*
X0071817Y0016994D02*
X0069111Y0016994D01*
X0082563Y0013996D02*
X0083687Y0013996D01*
X0092563Y0013996D02*
X0108496Y0013996D01*
X0108461Y0014021D02*
X0109250Y0013447D01*
X0110120Y0013004D01*
X0111048Y0012703D01*
X0112012Y0012550D01*
X0112500Y0012550D01*
X0112988Y0012550D01*
X0113952Y0012703D01*
X0114880Y0013004D01*
X0115750Y0013447D01*
X0116539Y0014021D01*
X0117229Y0014711D01*
X0117500Y0015084D01*
X0117771Y0014711D01*
X0118461Y0014021D01*
X0119250Y0013447D01*
X0120120Y0013004D01*
X0121048Y0012703D01*
X0122012Y0012550D01*
X0122500Y0012550D01*
X0122500Y0018750D01*
X0122500Y0018750D01*
X0122500Y0018750D01*
X0116300Y0018750D01*
X0112500Y0018750D01*
X0112500Y0018750D01*
X0112500Y0018750D01*
X0106300Y0018750D01*
X0106300Y0019238D01*
X0106453Y0020202D01*
X0106754Y0021130D01*
X0107197Y0022000D01*
X0107771Y0022789D01*
X0108461Y0023479D01*
X0109250Y0024053D01*
X0110120Y0024496D01*
X0111048Y0024797D01*
X0112012Y0024950D01*
X0112500Y0024950D01*
X0112500Y0018750D01*
X0112500Y0012550D01*
X0112500Y0018750D01*
X0112500Y0018750D01*
X0106300Y0018750D01*
X0106300Y0018262D01*
X0106453Y0017298D01*
X0106754Y0016370D01*
X0107197Y0015500D01*
X0107771Y0014711D01*
X0108461Y0014021D01*
X0106551Y0016994D02*
X0094433Y0016994D01*
X0094625Y0019993D02*
X0106420Y0019993D01*
X0107973Y0022991D02*
X0093076Y0022991D01*
X0083174Y0022991D02*
X0083076Y0022991D01*
X0112500Y0022991D02*
X0112500Y0022991D01*
X0112500Y0019993D02*
X0112500Y0019993D01*
X0112500Y0016994D02*
X0112500Y0016994D01*
X0112500Y0013996D02*
X0112500Y0013996D01*
X0116504Y0013996D02*
X0118496Y0013996D01*
X0122500Y0013996D02*
X0122500Y0013996D01*
X0122500Y0016994D02*
X0122500Y0016994D01*
X0122500Y0019993D02*
X0122500Y0019993D01*
X0122500Y0022991D02*
X0122500Y0022991D01*
X0117973Y0022991D02*
X0117027Y0022991D01*
X0143311Y0028988D02*
X0144509Y0028988D01*
X0144473Y0028954D02*
X0144473Y0028954D01*
X0146309Y0031987D02*
X0149018Y0031987D01*
X0149308Y0034985D02*
X0165573Y0034985D01*
X0163125Y0037500D02*
X0163125Y0045000D01*
X0163125Y0045000D01*
X0163125Y0052500D01*
X0168371Y0052500D01*
X0168854Y0052404D01*
X0169309Y0052215D01*
X0169719Y0051942D01*
X0170067Y0051594D01*
X0170340Y0051184D01*
X0170529Y0050729D01*
X0170625Y0050246D01*
X0170625Y0049536D01*
X0171311Y0053866D01*
X0171311Y0053866D01*
X0173505Y0060619D01*
X0173505Y0060619D01*
X0176729Y0066946D01*
X0176729Y0066946D01*
X0180902Y0072691D01*
X0180902Y0072691D01*
X0183413Y0075201D01*
X0183413Y0075201D01*
X0184799Y0076731D01*
X0187091Y0080160D01*
X0188669Y0083971D01*
X0189474Y0088016D01*
X0189575Y0090078D01*
X0189575Y0106437D01*
X0189229Y0105961D01*
X0188539Y0105271D01*
X0187750Y0104697D01*
X0186880Y0104254D01*
X0185952Y0103953D01*
X0184988Y0103800D01*
X0184500Y0103800D01*
X0184500Y0110000D01*
X0184500Y0110000D01*
X0184500Y0110000D01*
X0178300Y0110000D01*
X0178300Y0110488D01*
X0178453Y0111452D01*
X0178754Y0112380D01*
X0179197Y0113250D01*
X0179771Y0114039D01*
X0180461Y0114729D01*
X0181108Y0115199D01*
X0179990Y0116318D01*
X0179000Y0118707D01*
X0179000Y0119635D01*
X0178728Y0119907D01*
X0178728Y0119907D01*
X0178179Y0120455D01*
X0176581Y0122054D01*
X0176581Y0122054D01*
X0174320Y0125969D01*
X0174320Y0125969D01*
X0173150Y0130336D01*
X0173150Y0135485D01*
X0174127Y0140399D01*
X0174127Y0140399D01*
X0176045Y0145028D01*
X0177914Y0147825D01*
X0177748Y0147825D01*
X0176869Y0147767D01*
X0176700Y0147825D01*
X0171054Y0147825D01*
X0165300Y0147825D01*
X0165300Y0133946D01*
X0164624Y0132313D01*
X0167051Y0132313D01*
X0170140Y0131033D01*
X0172505Y0128669D01*
X0173784Y0125579D01*
X0173784Y0122236D01*
X0172505Y0119146D01*
X0170140Y0116782D01*
X0167051Y0115502D01*
X0163707Y0115502D01*
X0160618Y0116782D01*
X0158253Y0119146D01*
X0156973Y0122236D01*
X0156973Y0124478D01*
X0154675Y0122180D01*
X0154675Y0118866D01*
X0152524Y0116715D01*
X0161818Y0085800D01*
X0162084Y0085270D01*
X0162119Y0084800D01*
X0162254Y0084349D01*
X0162194Y0083759D01*
X0162308Y0082198D01*
X0162308Y0082198D01*
X0161499Y0078227D01*
X0161499Y0078227D01*
X0159645Y0074624D01*
X0159645Y0074624D01*
X0156886Y0071657D01*
X0156886Y0071657D01*
X0153427Y0069546D01*
X0153427Y0069546D01*
X0151108Y0068894D01*
X0154050Y0065952D01*
X0154050Y0059491D01*
X0149481Y0054921D01*
X0143425Y0054921D01*
X0143425Y0054571D01*
X0142691Y0052800D01*
X0144656Y0052800D01*
X0149225Y0048231D01*
X0149225Y0047348D01*
X0150558Y0048680D01*
X0152175Y0049350D01*
X0153925Y0049350D01*
X0155542Y0048680D01*
X0155625Y0048598D01*
X0155625Y0050246D01*
X0155721Y0050729D01*
X0155910Y0051184D01*
X0156183Y0051594D01*
X0156531Y0051942D01*
X0156941Y0052215D01*
X0157396Y0052404D01*
X0157879Y0052500D01*
X0163125Y0052500D01*
X0163125Y0045000D01*
X0163125Y0045000D01*
X0163125Y0037500D01*
X0163125Y0037984D02*
X0163125Y0037984D01*
X0163125Y0040982D02*
X0163125Y0040982D01*
X0163125Y0043981D02*
X0163125Y0043981D01*
X0163125Y0046979D02*
X0163125Y0046979D01*
X0163125Y0049978D02*
X0163125Y0049978D01*
X0163082Y0056127D02*
X0159993Y0057407D01*
X0157628Y0059771D01*
X0156348Y0062861D01*
X0156348Y0066204D01*
X0157628Y0069294D01*
X0159993Y0071658D01*
X0163082Y0072938D01*
X0166426Y0072938D01*
X0169515Y0071658D01*
X0171880Y0069294D01*
X0173159Y0066204D01*
X0173159Y0062861D01*
X0171880Y0059771D01*
X0169515Y0057407D01*
X0166426Y0056127D01*
X0163082Y0056127D01*
X0158426Y0058973D02*
X0153533Y0058973D01*
X0154050Y0061972D02*
X0156717Y0061972D01*
X0156348Y0064970D02*
X0154050Y0064970D01*
X0152034Y0067969D02*
X0157079Y0067969D01*
X0155756Y0070967D02*
X0159302Y0070967D01*
X0159033Y0073966D02*
X0182178Y0073966D01*
X0184955Y0076964D02*
X0160849Y0076964D01*
X0161852Y0079963D02*
X0186959Y0079963D01*
X0188251Y0082961D02*
X0162253Y0082961D01*
X0161770Y0085960D02*
X0189065Y0085960D01*
X0189520Y0088958D02*
X0160869Y0088958D01*
X0159967Y0091957D02*
X0189575Y0091957D01*
X0189575Y0094955D02*
X0159066Y0094955D01*
X0158164Y0097954D02*
X0189575Y0097954D01*
X0189575Y0100952D02*
X0157263Y0100952D01*
X0156361Y0103951D02*
X0183059Y0103951D01*
X0183048Y0103953D02*
X0184012Y0103800D01*
X0184500Y0103800D01*
X0184500Y0110000D01*
X0178300Y0110000D01*
X0178300Y0109512D01*
X0178453Y0108548D01*
X0178754Y0107620D01*
X0179197Y0106750D01*
X0179771Y0105961D01*
X0180461Y0105271D01*
X0181250Y0104697D01*
X0182120Y0104254D01*
X0183048Y0103953D01*
X0184500Y0103951D02*
X0184500Y0103951D01*
X0185940Y0103951D02*
X0189575Y0103951D01*
X0184500Y0106949D02*
X0184500Y0106949D01*
X0184500Y0109948D02*
X0184500Y0109948D01*
X0180363Y0115945D02*
X0168120Y0115945D01*
X0172302Y0118943D02*
X0179000Y0118943D01*
X0176693Y0121942D02*
X0173663Y0121942D01*
X0173784Y0124940D02*
X0174914Y0124940D01*
X0173792Y0127939D02*
X0172807Y0127939D01*
X0173150Y0130937D02*
X0170236Y0130937D01*
X0173150Y0133936D02*
X0165296Y0133936D01*
X0165300Y0136934D02*
X0173438Y0136934D01*
X0174035Y0139933D02*
X0165300Y0139933D01*
X0165300Y0142932D02*
X0175177Y0142932D01*
X0176648Y0145930D02*
X0165300Y0145930D01*
X0181478Y0136934D02*
X0189575Y0136934D01*
X0189575Y0139933D02*
X0182469Y0139933D01*
X0184127Y0142932D02*
X0190192Y0142932D01*
X0190657Y0144665D02*
X0190657Y0144665D01*
X0191387Y0145930D02*
X0186676Y0145930D01*
X0190096Y0148929D02*
X0193390Y0148929D01*
X0193656Y0149194D02*
X0193656Y0149194D01*
X0192747Y0148285D02*
X0192747Y0148285D01*
X0193517Y0151927D02*
X0196913Y0151927D01*
X0195540Y0151078D02*
X0195540Y0151078D01*
X0198448Y0152876D02*
X0198448Y0152876D01*
X0196771Y0154926D02*
X0200733Y0154926D01*
X0198765Y0157924D02*
X0214500Y0157924D01*
X0214500Y0160923D02*
X0200142Y0160923D01*
X0201023Y0163731D02*
X0201023Y0163731D01*
X0201044Y0163921D02*
X0202690Y0163921D01*
X0207310Y0163921D02*
X0214500Y0163921D01*
X0214500Y0166920D02*
X0210760Y0166920D01*
X0211500Y0169918D02*
X0214500Y0169918D01*
X0214500Y0172917D02*
X0210827Y0172917D01*
X0210108Y0175915D02*
X0214500Y0175915D01*
X0214500Y0178914D02*
X0211500Y0178914D01*
X0211243Y0181912D02*
X0214500Y0181912D01*
X0214500Y0184911D02*
X0209282Y0184911D01*
X0211169Y0187909D02*
X0214500Y0187909D01*
X0214500Y0190908D02*
X0213047Y0190908D01*
X0212495Y0190189D02*
X0212495Y0190189D01*
X0214500Y0154926D02*
X0209267Y0154926D01*
X0211237Y0151927D02*
X0214500Y0151927D01*
X0214500Y0148929D02*
X0211500Y0148929D01*
X0210122Y0145930D02*
X0214500Y0145930D01*
X0214500Y0142932D02*
X0210465Y0142932D01*
X0211200Y0140000D02*
X0205000Y0140000D01*
X0205000Y0140000D01*
X0211200Y0140000D01*
X0211200Y0139933D02*
X0214500Y0139933D01*
X0214500Y0136934D02*
X0210396Y0136934D01*
X0209804Y0133936D02*
X0214500Y0133936D01*
X0214500Y0130937D02*
X0211129Y0130937D01*
X0211200Y0130000D02*
X0205000Y0130000D01*
X0205000Y0130000D01*
X0205000Y0130000D01*
X0205000Y0133800D01*
X0205000Y0140000D01*
X0205000Y0140000D01*
X0205000Y0130000D01*
X0211200Y0130000D01*
X0210849Y0127939D02*
X0214500Y0127939D01*
X0214500Y0124940D02*
X0209252Y0124940D01*
X0211231Y0121942D02*
X0214500Y0121942D01*
X0214500Y0118943D02*
X0211500Y0118943D01*
X0210137Y0115945D02*
X0214500Y0115945D01*
X0214500Y0112946D02*
X0210815Y0112946D01*
X0211500Y0109948D02*
X0214500Y0109948D01*
X0214500Y0106949D02*
X0210772Y0106949D01*
X0210241Y0103951D02*
X0214500Y0103951D01*
X0214500Y0100952D02*
X0211500Y0100952D01*
X0211188Y0097954D02*
X0214500Y0097954D01*
X0214500Y0094955D02*
X0209237Y0094955D01*
X0211225Y0091957D02*
X0214500Y0091957D01*
X0214500Y0088958D02*
X0211500Y0088958D01*
X0210152Y0085960D02*
X0214500Y0085960D01*
X0214500Y0082961D02*
X0210809Y0082961D01*
X0211500Y0079963D02*
X0214500Y0079963D01*
X0214500Y0076964D02*
X0210778Y0076964D01*
X0207417Y0073966D02*
X0214500Y0073966D01*
X0214500Y0070967D02*
X0192616Y0070967D01*
X0192335Y0070547D02*
X0192335Y0070547D01*
X0189791Y0067969D02*
X0214500Y0067969D01*
X0214500Y0064970D02*
X0187295Y0064970D01*
X0185116Y0061972D02*
X0214500Y0061972D01*
X0214500Y0058973D02*
X0183563Y0058973D01*
X0182205Y0055975D02*
X0214500Y0055975D01*
X0214500Y0052976D02*
X0194574Y0052976D01*
X0193537Y0053405D02*
X0190193Y0053405D01*
X0187104Y0052126D01*
X0184739Y0049761D01*
X0183460Y0046672D01*
X0183460Y0043328D01*
X0184739Y0040239D01*
X0187104Y0037874D01*
X0190193Y0036594D01*
X0193537Y0036594D01*
X0196626Y0037874D01*
X0198991Y0040239D01*
X0200271Y0043328D01*
X0200271Y0046672D01*
X0198991Y0049761D01*
X0196626Y0052126D01*
X0193537Y0053405D01*
X0189157Y0052976D02*
X0181231Y0052976D01*
X0180525Y0049978D02*
X0184956Y0049978D01*
X0183587Y0046979D02*
X0180050Y0046979D01*
X0179827Y0043981D02*
X0183460Y0043981D01*
X0184431Y0040982D02*
X0179800Y0040982D01*
X0179212Y0037984D02*
X0186994Y0037984D01*
X0178242Y0034985D02*
X0214500Y0034985D01*
X0214500Y0031987D02*
X0176403Y0031987D01*
X0173932Y0029357D02*
X0173932Y0029357D01*
X0173533Y0028988D02*
X0214500Y0028988D01*
X0214500Y0025990D02*
X0169220Y0025990D01*
X0168854Y0023654D02*
X0168371Y0023750D01*
X0163125Y0023750D01*
X0163125Y0016250D01*
X0163125Y0016250D01*
X0170625Y0016250D01*
X0170625Y0021496D01*
X0170529Y0021979D01*
X0170340Y0022434D01*
X0170067Y0022844D01*
X0169719Y0023192D01*
X0169309Y0023465D01*
X0168854Y0023654D01*
X0169919Y0022991D02*
X0186719Y0022991D01*
X0184317Y0019993D02*
X0170625Y0019993D01*
X0170625Y0016994D02*
X0183460Y0016994D01*
X0183701Y0013996D02*
X0170625Y0013996D01*
X0170625Y0016250D02*
X0170625Y0011004D01*
X0170529Y0010521D01*
X0170340Y0010066D01*
X0170067Y0009656D01*
X0169719Y0009308D01*
X0169309Y0009035D01*
X0168854Y0008846D01*
X0168371Y0008750D01*
X0163125Y0008750D01*
X0163125Y0016250D01*
X0163125Y0016250D01*
X0163125Y0016250D01*
X0155625Y0016250D01*
X0155625Y0021496D01*
X0155721Y0021979D01*
X0155910Y0022434D01*
X0156183Y0022844D01*
X0156531Y0023192D01*
X0156941Y0023465D01*
X0157396Y0023654D01*
X0157879Y0023750D01*
X0163125Y0023750D01*
X0163125Y0016250D01*
X0170625Y0016250D01*
X0170624Y0010997D02*
X0185231Y0010997D01*
X0197011Y0022991D02*
X0214500Y0022991D01*
X0214500Y0019993D02*
X0199413Y0019993D01*
X0200271Y0016994D02*
X0214500Y0016994D01*
X0213996Y0013996D02*
X0200029Y0013996D01*
X0198499Y0010997D02*
X0210997Y0010997D01*
X0214500Y0037984D02*
X0196736Y0037984D01*
X0199299Y0040982D02*
X0214500Y0040982D01*
X0214500Y0043981D02*
X0200271Y0043981D01*
X0200143Y0046979D02*
X0214500Y0046979D01*
X0214500Y0049978D02*
X0198775Y0049978D01*
X0177472Y0067969D02*
X0172429Y0067969D01*
X0170206Y0070967D02*
X0179650Y0070967D01*
X0175722Y0064970D02*
X0173159Y0064970D01*
X0172791Y0061972D02*
X0174194Y0061972D01*
X0172970Y0058973D02*
X0171082Y0058973D01*
X0171996Y0055975D02*
X0150534Y0055975D01*
X0147478Y0049978D02*
X0155625Y0049978D01*
X0155625Y0040982D02*
X0155305Y0040982D01*
X0156643Y0037984D02*
X0152306Y0037984D01*
X0152788Y0022991D02*
X0156331Y0022991D01*
X0155625Y0019993D02*
X0148983Y0019993D01*
X0149711Y0020686D02*
X0149711Y0020686D01*
X0149225Y0016994D02*
X0155625Y0016994D01*
X0155625Y0016250D02*
X0155625Y0011004D01*
X0155721Y0010521D01*
X0155910Y0010066D01*
X0156183Y0009656D01*
X0156531Y0009308D01*
X0156941Y0009035D01*
X0157396Y0008846D01*
X0157879Y0008750D01*
X0163125Y0008750D01*
X0163125Y0016250D01*
X0163125Y0016250D01*
X0155625Y0016250D01*
X0155625Y0013996D02*
X0149225Y0013996D01*
X0147203Y0010997D02*
X0155626Y0010997D01*
X0163125Y0010997D02*
X0163125Y0010997D01*
X0163125Y0013996D02*
X0163125Y0013996D01*
X0163125Y0016994D02*
X0163125Y0016994D01*
X0163125Y0019993D02*
X0163125Y0019993D01*
X0163125Y0022991D02*
X0163125Y0022991D01*
X0171800Y0027389D02*
X0171800Y0027389D01*
X0170695Y0049978D02*
X0170625Y0049978D01*
X0171170Y0052976D02*
X0142764Y0052976D01*
X0155460Y0106949D02*
X0179096Y0106949D01*
X0178300Y0109948D02*
X0154558Y0109948D01*
X0153657Y0112946D02*
X0179043Y0112946D01*
X0162638Y0115945D02*
X0152756Y0115945D01*
X0154675Y0118943D02*
X0158456Y0118943D01*
X0157095Y0121942D02*
X0154675Y0121942D01*
X0196268Y0076964D02*
X0199222Y0076964D01*
X0198500Y0079963D02*
X0197510Y0079963D01*
X0197998Y0081141D02*
X0197998Y0081141D01*
X0198360Y0082961D02*
X0199191Y0082961D01*
X0198956Y0085960D02*
X0199848Y0085960D01*
X0195688Y0075565D02*
X0195688Y0075565D01*
X0194619Y0073966D02*
X0202583Y0073966D01*
X0205000Y0130937D02*
X0205000Y0130937D01*
X0205000Y0133936D02*
X0205000Y0133936D01*
X0205000Y0136934D02*
X0205000Y0136934D01*
X0205000Y0139933D02*
X0205000Y0139933D01*
X0054960Y0226890D02*
X0011274Y0226890D01*
X0009699Y0223891D02*
X0008275Y0223891D01*
X0008100Y0220893D02*
X0008500Y0220893D01*
X0008837Y0217894D02*
X0008100Y0217894D01*
X0008100Y0214896D02*
X0010703Y0214896D01*
X0008750Y0211897D02*
X0008100Y0211897D01*
X0008100Y0208899D02*
X0008500Y0208899D01*
X0008100Y0205900D02*
X0009907Y0205900D01*
X0009166Y0202902D02*
X0008100Y0202902D01*
X0008100Y0199903D02*
X0008500Y0199903D01*
X0008100Y0196905D02*
X0009247Y0196905D01*
X0009714Y0193906D02*
X0008100Y0193906D01*
X0008100Y0190908D02*
X0008500Y0190908D01*
X0008830Y0187909D02*
X0008100Y0187909D01*
X0008100Y0184911D02*
X0010718Y0184911D01*
X0008757Y0181912D02*
X0008100Y0181912D01*
X0008100Y0178914D02*
X0008500Y0178914D01*
X0008100Y0175915D02*
X0009892Y0175915D01*
X0009173Y0172917D02*
X0008100Y0172917D01*
X0008100Y0169918D02*
X0008500Y0169918D01*
X0008100Y0166920D02*
X0009240Y0166920D01*
X0009729Y0163921D02*
X0008100Y0163921D01*
X0008100Y0160923D02*
X0008500Y0160923D01*
X0008824Y0157924D02*
X0008100Y0157924D01*
X0008100Y0154926D02*
X0010733Y0154926D01*
X0008763Y0151927D02*
X0008100Y0151927D01*
X0008100Y0148929D02*
X0008500Y0148929D01*
X0008100Y0145930D02*
X0009878Y0145930D01*
X0008100Y0142932D02*
X0017275Y0142932D01*
X0020122Y0145930D02*
X0020273Y0145930D01*
X0021500Y0148929D02*
X0023272Y0148929D01*
X0024129Y0151927D02*
X0026270Y0151927D01*
X0028065Y0154926D02*
X0029269Y0154926D01*
X0032001Y0157924D02*
X0032267Y0157924D01*
X0046069Y0154926D02*
X0054125Y0154926D01*
X0054125Y0151927D02*
X0048897Y0151927D01*
X0049250Y0148929D02*
X0054125Y0148929D01*
X0054125Y0145930D02*
X0047417Y0145930D01*
X0048024Y0142932D02*
X0054125Y0142932D01*
X0054125Y0139933D02*
X0048950Y0139933D01*
X0048950Y0140000D02*
X0041250Y0140000D01*
X0048950Y0140000D01*
X0047927Y0136934D02*
X0054125Y0136934D01*
X0054125Y0133936D02*
X0029593Y0133936D01*
X0032591Y0136934D02*
X0034573Y0136934D01*
X0041250Y0136934D02*
X0041250Y0136934D01*
X0041250Y0134900D02*
X0041250Y0140000D01*
X0041250Y0140000D01*
X0041250Y0140000D01*
X0041250Y0134900D01*
X0041250Y0139933D02*
X0041250Y0139933D01*
X0054125Y0130937D02*
X0026594Y0130937D01*
X0023596Y0127939D02*
X0054125Y0127939D01*
X0054125Y0124940D02*
X0021500Y0124940D01*
X0020769Y0121942D02*
X0034205Y0121942D01*
X0033250Y0118943D02*
X0020249Y0118943D01*
X0021500Y0115945D02*
X0033967Y0115945D01*
X0035210Y0112946D02*
X0024156Y0112946D01*
X0022863Y0113952D02*
X0022863Y0113952D01*
X0026817Y0109948D02*
X0033301Y0109948D01*
X0033551Y0106949D02*
X0029029Y0106949D01*
X0030558Y0103951D02*
X0036125Y0103951D01*
X0033717Y0100952D02*
X0031748Y0100952D01*
X0031973Y0100082D02*
X0031973Y0100082D01*
X0032522Y0097954D02*
X0033250Y0097954D01*
X0033296Y0094955D02*
X0034808Y0094955D01*
X0033640Y0093622D02*
X0033640Y0093622D01*
X0034129Y0091957D02*
X0034220Y0091957D01*
X0009766Y0088958D02*
X0008100Y0088958D01*
X0008100Y0085960D02*
X0008500Y0085960D01*
X0008809Y0082961D02*
X0008100Y0082961D01*
X0008100Y0079963D02*
X0010845Y0079963D01*
X0009119Y0076964D02*
X0008100Y0076964D01*
X0008100Y0073966D02*
X0008887Y0073966D01*
X0009225Y0091957D02*
X0008100Y0091957D01*
X0008100Y0094955D02*
X0008500Y0094955D01*
X0008100Y0097954D02*
X0009188Y0097954D01*
X0009855Y0100952D02*
X0008100Y0100952D01*
X0008100Y0103951D02*
X0008500Y0103951D01*
X0008772Y0106949D02*
X0008100Y0106949D01*
X0008100Y0109948D02*
X0010756Y0109948D01*
X0008815Y0112946D02*
X0008100Y0112946D01*
X0008100Y0115945D02*
X0008500Y0115945D01*
X0008100Y0118943D02*
X0009751Y0118943D01*
X0009231Y0121942D02*
X0008100Y0121942D01*
X0008100Y0124940D02*
X0008500Y0124940D01*
X0008100Y0127939D02*
X0009182Y0127939D01*
X0009870Y0130937D02*
X0008100Y0130937D01*
X0008100Y0133936D02*
X0008500Y0133936D01*
X0008766Y0136934D02*
X0008100Y0136934D01*
X0008100Y0139933D02*
X0010741Y0139933D01*
X0047566Y0163921D02*
X0054125Y0163921D01*
X0054125Y0160923D02*
X0049250Y0160923D01*
X0048835Y0157924D02*
X0054125Y0157924D01*
X0054125Y0166920D02*
X0048406Y0166920D01*
X0049250Y0169918D02*
X0054125Y0169918D01*
X0054125Y0172917D02*
X0048487Y0172917D01*
X0047402Y0175915D02*
X0054125Y0175915D01*
X0054125Y0178914D02*
X0049245Y0178914D01*
X0048903Y0181912D02*
X0054125Y0181912D01*
X0054125Y0184911D02*
X0046105Y0184911D01*
X0048829Y0187909D02*
X0054125Y0187909D01*
X0054125Y0190908D02*
X0049250Y0190908D01*
X0047581Y0193906D02*
X0054125Y0193906D01*
X0054125Y0196905D02*
X0048391Y0196905D01*
X0049250Y0199903D02*
X0054125Y0199903D01*
X0054125Y0202902D02*
X0048493Y0202902D01*
X0047387Y0205900D02*
X0054125Y0205900D01*
X0054125Y0208899D02*
X0049239Y0208899D01*
X0048909Y0211897D02*
X0054125Y0211897D01*
X0054125Y0214896D02*
X0046141Y0214896D01*
X0048823Y0217894D02*
X0054125Y0217894D01*
X0054125Y0220893D02*
X0049250Y0220893D01*
X0047595Y0223891D02*
X0054125Y0223891D01*
X0036359Y0214896D02*
X0029297Y0214896D01*
X0031163Y0217894D02*
X0033677Y0217894D01*
X0033250Y0220893D02*
X0031500Y0220893D01*
X0030301Y0223891D02*
X0034905Y0223891D01*
X0033591Y0211897D02*
X0031250Y0211897D01*
X0031500Y0208899D02*
X0033204Y0208899D01*
X0031376Y0051092D02*
X0031376Y0051092D01*
X0041250Y0037984D02*
X0041250Y0037984D01*
X0041250Y0034985D02*
X0041250Y0034985D01*
D20*
X0063750Y0021250D02*
X0063750Y0010625D01*
X0020625Y0070625D02*
X0015000Y0075000D01*
X0015000Y0210000D02*
X0025000Y0210000D01*
X0025000Y0220000D02*
X0015000Y0220000D01*
X0194375Y0090078D02*
X0194368Y0089463D01*
X0194346Y0088849D01*
X0194309Y0088235D01*
X0194258Y0087622D01*
X0194192Y0087010D01*
X0194112Y0086401D01*
X0194017Y0085793D01*
X0193908Y0085188D01*
X0193784Y0084586D01*
X0193647Y0083986D01*
X0193495Y0083390D01*
X0193328Y0082798D01*
X0193148Y0082210D01*
X0192954Y0081627D01*
X0192746Y0081048D01*
X0192524Y0080475D01*
X0192289Y0079906D01*
X0192040Y0079344D01*
X0191778Y0078788D01*
X0191503Y0078238D01*
X0191214Y0077695D01*
X0190913Y0077158D01*
X0190599Y0076630D01*
X0190273Y0076108D01*
X0189935Y0075595D01*
X0189584Y0075090D01*
X0189221Y0074593D01*
X0188847Y0074105D01*
X0188461Y0073627D01*
X0188064Y0073157D01*
X0187656Y0072697D01*
X0187237Y0072247D01*
X0186807Y0071807D01*
X0194375Y0090078D02*
X0194375Y0138538D01*
X0197619Y0146369D02*
X0197725Y0146475D01*
X0201588Y0148863D02*
X0205000Y0150000D01*
X0201588Y0148863D02*
X0201360Y0148784D01*
X0201134Y0148699D01*
X0200911Y0148609D01*
X0200689Y0148514D01*
X0200470Y0148413D01*
X0200254Y0148307D01*
X0200040Y0148195D01*
X0199829Y0148079D01*
X0199621Y0147957D01*
X0199416Y0147830D01*
X0199214Y0147698D01*
X0199015Y0147562D01*
X0198820Y0147420D01*
X0198628Y0147274D01*
X0198440Y0147123D01*
X0198255Y0146968D01*
X0198075Y0146808D01*
X0197898Y0146644D01*
X0197725Y0146476D01*
X0197619Y0146369D02*
X0197435Y0146181D01*
X0197255Y0145988D01*
X0197080Y0145791D01*
X0196910Y0145589D01*
X0196744Y0145384D01*
X0196584Y0145175D01*
X0196429Y0144962D01*
X0196278Y0144746D01*
X0196133Y0144526D01*
X0195993Y0144302D01*
X0195859Y0144075D01*
X0195730Y0143846D01*
X0195606Y0143613D01*
X0195488Y0143377D01*
X0195376Y0143139D01*
X0195269Y0142898D01*
X0195168Y0142654D01*
X0195073Y0142408D01*
X0194984Y0142160D01*
X0194901Y0141910D01*
X0194824Y0141658D01*
X0194752Y0141404D01*
X0194687Y0141149D01*
X0194628Y0140892D01*
X0194575Y0140634D01*
X0194528Y0140375D01*
X0194488Y0140114D01*
X0194453Y0139853D01*
X0194425Y0139591D01*
X0194403Y0139328D01*
X0194388Y0139065D01*
X0194378Y0138802D01*
X0194375Y0138538D01*
X0175000Y0043303D02*
X0175000Y0042516D01*
X0170855Y0033049D02*
X0169975Y0032236D01*
X0162657Y0029375D02*
X0158480Y0029375D01*
X0162657Y0029375D02*
X0162916Y0029378D01*
X0163176Y0029387D01*
X0163435Y0029403D01*
X0163693Y0029425D01*
X0163951Y0029453D01*
X0164208Y0029487D01*
X0164464Y0029527D01*
X0164720Y0029574D01*
X0164974Y0029627D01*
X0165226Y0029685D01*
X0165478Y0029750D01*
X0165727Y0029821D01*
X0165975Y0029898D01*
X0166221Y0029981D01*
X0166465Y0030069D01*
X0166706Y0030164D01*
X0166946Y0030264D01*
X0167182Y0030370D01*
X0167416Y0030482D01*
X0167648Y0030599D01*
X0167876Y0030722D01*
X0168102Y0030850D01*
X0168324Y0030983D01*
X0168543Y0031122D01*
X0168759Y0031266D01*
X0168971Y0031416D01*
X0169180Y0031570D01*
X0169385Y0031729D01*
X0169585Y0031894D01*
X0169782Y0032063D01*
X0169975Y0032236D01*
X0170855Y0033048D02*
X0171082Y0033263D01*
X0171304Y0033483D01*
X0171520Y0033709D01*
X0171731Y0033940D01*
X0171937Y0034176D01*
X0172136Y0034417D01*
X0172330Y0034662D01*
X0172518Y0034913D01*
X0172699Y0035167D01*
X0172874Y0035427D01*
X0173043Y0035690D01*
X0173206Y0035957D01*
X0173362Y0036228D01*
X0173511Y0036503D01*
X0173654Y0036781D01*
X0173789Y0037063D01*
X0173918Y0037348D01*
X0174040Y0037636D01*
X0174155Y0037927D01*
X0174263Y0038221D01*
X0174364Y0038517D01*
X0174457Y0038815D01*
X0174543Y0039116D01*
X0174622Y0039419D01*
X0174694Y0039723D01*
X0174758Y0040029D01*
X0174814Y0040337D01*
X0174864Y0040646D01*
X0174905Y0040956D01*
X0174939Y0041267D01*
X0174966Y0041578D01*
X0174985Y0041891D01*
X0174996Y0042203D01*
X0175000Y0042516D01*
X0147092Y0024820D02*
X0138750Y0016875D01*
X0141425Y0016250D01*
X0147092Y0024820D02*
X0147380Y0025087D01*
X0147674Y0025348D01*
X0147974Y0025601D01*
X0148280Y0025848D01*
X0148591Y0026086D01*
X0148908Y0026318D01*
X0149231Y0026542D01*
X0149559Y0026758D01*
X0149892Y0026966D01*
X0150230Y0027166D01*
X0150572Y0027358D01*
X0150919Y0027542D01*
X0151270Y0027718D01*
X0151626Y0027885D01*
X0151985Y0028044D01*
X0152348Y0028194D01*
X0152714Y0028335D01*
X0153083Y0028468D01*
X0153456Y0028592D01*
X0153832Y0028707D01*
X0154210Y0028813D01*
X0154590Y0028910D01*
X0154973Y0028998D01*
X0155357Y0029077D01*
X0155744Y0029147D01*
X0156132Y0029207D01*
X0156521Y0029258D01*
X0156912Y0029300D01*
X0157303Y0029333D01*
X0157695Y0029356D01*
X0158087Y0029370D01*
X0158480Y0029375D01*
X0175000Y0043303D02*
X0175011Y0044262D01*
X0175046Y0045221D01*
X0175103Y0046179D01*
X0175183Y0047135D01*
X0175285Y0048089D01*
X0175410Y0049040D01*
X0175558Y0049988D01*
X0175728Y0050932D01*
X0175921Y0051872D01*
X0176136Y0052807D01*
X0176374Y0053736D01*
X0176633Y0054660D01*
X0176914Y0055577D01*
X0177217Y0056487D01*
X0177542Y0057390D01*
X0177888Y0058285D01*
X0178255Y0059171D01*
X0178643Y0060049D01*
X0179052Y0060917D01*
X0179481Y0061775D01*
X0179931Y0062622D01*
X0180401Y0063459D01*
X0180890Y0064284D01*
X0181399Y0065097D01*
X0181927Y0065898D01*
X0182475Y0066686D01*
X0183040Y0067460D01*
X0183624Y0068222D01*
X0184226Y0068969D01*
X0184846Y0069701D01*
X0185483Y0070419D01*
X0186137Y0071121D01*
X0186807Y0071807D01*
D21*
X0175000Y0090000D03*
X0175000Y0200000D03*
X0110000Y0201250D03*
X0050000Y0128750D03*
X0032500Y0031875D03*
D22*
X0024686Y0019689D02*
X0024792Y0019343D01*
X0024907Y0018999D01*
X0025029Y0018659D01*
X0025160Y0018321D01*
X0025299Y0017986D01*
X0025446Y0017655D01*
X0025600Y0017328D01*
X0025762Y0017004D01*
X0025932Y0016684D01*
X0026110Y0016368D01*
X0026295Y0016057D01*
X0026487Y0015750D01*
X0026687Y0015448D01*
X0026893Y0015151D01*
X0027107Y0014858D01*
X0027328Y0014571D01*
X0027555Y0014289D01*
X0027789Y0014013D01*
X0028030Y0013742D01*
X0028277Y0013477D01*
X0028530Y0013218D01*
X0028789Y0012965D01*
X0029054Y0012719D01*
X0029325Y0012478D01*
X0029602Y0012245D01*
X0029884Y0012018D01*
X0030171Y0011797D01*
X0030464Y0011584D01*
X0030762Y0011377D01*
X0031064Y0011178D01*
X0031371Y0010986D01*
X0031683Y0010802D01*
X0031998Y0010624D01*
X0031998Y0010625D02*
X0033750Y0010625D01*
X0024685Y0019690D02*
X0022500Y0020000D01*
X0024375Y0020000D01*
X0024375Y0045622D01*
X0019038Y0054712D02*
X0015000Y0055000D01*
X0015000Y0045000D02*
X0015000Y0030000D01*
X0015000Y0020000D02*
X0022500Y0020000D01*
X0024375Y0045622D02*
X0024324Y0045956D01*
X0024265Y0046289D01*
X0024198Y0046620D01*
X0024123Y0046950D01*
X0024040Y0047278D01*
X0023949Y0047603D01*
X0023850Y0047926D01*
X0023742Y0048247D01*
X0023628Y0048565D01*
X0023505Y0048880D01*
X0023375Y0049192D01*
X0023237Y0049500D01*
X0023091Y0049805D01*
X0022938Y0050107D01*
X0022778Y0050404D01*
X0022610Y0050698D01*
X0022436Y0050987D01*
X0022254Y0051272D01*
X0022065Y0051553D01*
X0021870Y0051828D01*
X0021667Y0052099D01*
X0021459Y0052365D01*
X0021243Y0052626D01*
X0021022Y0052881D01*
X0020794Y0053131D01*
X0020560Y0053375D01*
X0020320Y0053613D01*
X0020075Y0053845D01*
X0019824Y0054071D01*
X0019567Y0054291D01*
X0019305Y0054505D01*
X0019038Y0054712D01*
X0058900Y0032275D02*
X0067200Y0032725D01*
X0138950Y0030850D01*
X0153050Y0044950D01*
X0127482Y0077143D02*
X0129715Y0084375D01*
X0127482Y0077143D02*
X0127354Y0077017D01*
X0127222Y0076895D01*
X0127088Y0076776D01*
X0126951Y0076660D01*
X0126810Y0076548D01*
X0126668Y0076440D01*
X0126522Y0076334D01*
X0126374Y0076233D01*
X0126224Y0076135D01*
X0126071Y0076041D01*
X0125916Y0075950D01*
X0125758Y0075864D01*
X0125599Y0075781D01*
X0125438Y0075702D01*
X0125274Y0075628D01*
X0125109Y0075557D01*
X0124943Y0075490D01*
X0124774Y0075428D01*
X0124605Y0075369D01*
X0124433Y0075315D01*
X0124261Y0075265D01*
X0124087Y0075219D01*
X0123913Y0075178D01*
X0123737Y0075141D01*
X0123561Y0075108D01*
X0123383Y0075079D01*
X0123205Y0075055D01*
X0123027Y0075035D01*
X0122848Y0075020D01*
X0122669Y0075009D01*
X0122490Y0075002D01*
X0122310Y0075000D01*
X0099732Y0075000D01*
X0090729Y0073767D02*
X0075000Y0069375D01*
X0071875Y0069375D01*
X0071250Y0068750D01*
X0071875Y0079375D02*
X0113179Y0084375D01*
X0113179Y0062721D02*
X0112420Y0061845D01*
X0099732Y0075000D02*
X0098973Y0074991D01*
X0098213Y0074966D01*
X0097455Y0074922D01*
X0096698Y0074862D01*
X0095942Y0074785D01*
X0095189Y0074690D01*
X0094437Y0074579D01*
X0093689Y0074450D01*
X0092943Y0074304D01*
X0092201Y0074142D01*
X0091463Y0073963D01*
X0090730Y0073767D01*
X0112419Y0061844D02*
X0111803Y0061150D01*
X0111170Y0060471D01*
X0110521Y0059808D01*
X0109855Y0059160D01*
X0109174Y0058530D01*
X0108478Y0057916D01*
X0107766Y0057319D01*
X0107041Y0056740D01*
X0106301Y0056179D01*
X0105548Y0055636D01*
X0104782Y0055112D01*
X0104003Y0054607D01*
X0103212Y0054121D01*
X0102410Y0053654D01*
X0101596Y0053207D01*
X0100771Y0052781D01*
X0099937Y0052374D01*
X0099092Y0051988D01*
X0098239Y0051623D01*
X0097376Y0051279D01*
X0096506Y0050957D01*
X0095628Y0050655D01*
X0094743Y0050375D01*
X0093851Y0050117D01*
X0092953Y0049881D01*
X0092050Y0049667D01*
X0091142Y0049475D01*
X0090229Y0049306D01*
X0089312Y0049159D01*
X0088392Y0049034D01*
X0087470Y0048932D01*
X0086545Y0048852D01*
X0085618Y0048795D01*
X0084690Y0048761D01*
X0083762Y0048750D01*
X0071250Y0048750D01*
X0071250Y0088750D02*
X0073150Y0089600D01*
X0077227Y0089600D01*
X0086314Y0093364D02*
X0113100Y0120150D01*
X0113804Y0122096D01*
X0120150Y0134250D02*
X0129550Y0143650D01*
X0130340Y0143750D01*
X0120150Y0134250D02*
X0095984Y0134250D01*
X0095752Y0134247D01*
X0095521Y0134239D01*
X0095289Y0134225D01*
X0095058Y0134206D01*
X0094828Y0134181D01*
X0094598Y0134151D01*
X0094369Y0134115D01*
X0094141Y0134074D01*
X0093914Y0134027D01*
X0093688Y0133975D01*
X0093463Y0133918D01*
X0093240Y0133855D01*
X0093018Y0133788D01*
X0092798Y0133714D01*
X0092580Y0133636D01*
X0092364Y0133552D01*
X0092150Y0133464D01*
X0091938Y0133370D01*
X0091728Y0133271D01*
X0091521Y0133167D01*
X0091316Y0133059D01*
X0091114Y0132945D01*
X0090915Y0132827D01*
X0090718Y0132704D01*
X0090525Y0132576D01*
X0090334Y0132444D01*
X0090147Y0132307D01*
X0089963Y0132166D01*
X0089783Y0132021D01*
X0089606Y0131871D01*
X0089432Y0131717D01*
X0089263Y0131559D01*
X0089097Y0131397D01*
X0088852Y0131145D01*
X0088612Y0130887D01*
X0088379Y0130624D01*
X0088153Y0130355D01*
X0087933Y0130080D01*
X0087720Y0129800D01*
X0087514Y0129515D01*
X0087315Y0129225D01*
X0087123Y0128931D01*
X0086939Y0128631D01*
X0086762Y0128327D01*
X0086592Y0128019D01*
X0086430Y0127707D01*
X0086276Y0127391D01*
X0086129Y0127071D01*
X0085991Y0126748D01*
X0085860Y0126421D01*
X0085738Y0126092D01*
X0085623Y0125759D01*
X0085517Y0125424D01*
X0085419Y0125086D01*
X0085329Y0124746D01*
X0085248Y0124404D01*
X0085175Y0124060D01*
X0085111Y0123714D01*
X0085055Y0123367D01*
X0085008Y0123018D01*
X0084969Y0122669D01*
X0084939Y0122318D01*
X0084917Y0121967D01*
X0084904Y0121616D01*
X0084900Y0121264D01*
X0082450Y0115350D02*
X0075500Y0108400D01*
X0071250Y0108750D01*
X0074375Y0108750D01*
X0077227Y0089600D02*
X0077533Y0089604D01*
X0077839Y0089615D01*
X0078144Y0089633D01*
X0078449Y0089658D01*
X0078753Y0089691D01*
X0079056Y0089731D01*
X0079358Y0089778D01*
X0079659Y0089832D01*
X0079959Y0089894D01*
X0080257Y0089962D01*
X0080553Y0090038D01*
X0080848Y0090121D01*
X0081140Y0090210D01*
X0081430Y0090307D01*
X0081718Y0090410D01*
X0082004Y0090521D01*
X0082286Y0090638D01*
X0082566Y0090761D01*
X0082843Y0090892D01*
X0083116Y0091029D01*
X0083386Y0091172D01*
X0083653Y0091322D01*
X0083916Y0091478D01*
X0084175Y0091640D01*
X0084431Y0091809D01*
X0084682Y0091983D01*
X0084929Y0092163D01*
X0085172Y0092350D01*
X0085410Y0092542D01*
X0085643Y0092739D01*
X0085872Y0092942D01*
X0086096Y0093151D01*
X0086315Y0093364D01*
X0082451Y0115350D02*
X0082594Y0115497D01*
X0082734Y0115648D01*
X0082870Y0115802D01*
X0083002Y0115959D01*
X0083130Y0116119D01*
X0083254Y0116282D01*
X0083374Y0116449D01*
X0083491Y0116618D01*
X0083603Y0116790D01*
X0083710Y0116965D01*
X0083814Y0117142D01*
X0083913Y0117322D01*
X0084007Y0117504D01*
X0084097Y0117688D01*
X0084183Y0117875D01*
X0084263Y0118064D01*
X0084340Y0118254D01*
X0084411Y0118447D01*
X0084478Y0118641D01*
X0084540Y0118836D01*
X0084597Y0119033D01*
X0084649Y0119232D01*
X0084697Y0119432D01*
X0084739Y0119632D01*
X0084777Y0119834D01*
X0084809Y0120037D01*
X0084837Y0120240D01*
X0084860Y0120444D01*
X0084877Y0120649D01*
X0084890Y0120854D01*
X0084897Y0121059D01*
X0084900Y0121264D01*
X0075000Y0140000D02*
X0071250Y0140000D01*
X0071250Y0150000D02*
X0073150Y0150700D01*
X0084900Y0162450D01*
X0084900Y0167150D01*
X0089600Y0171850D01*
X0142228Y0171850D01*
X0141707Y0176550D02*
X0087250Y0176550D01*
X0084900Y0178900D01*
X0073150Y0178900D01*
X0071250Y0180000D01*
X0087071Y0195000D02*
X0114338Y0195000D01*
X0118029Y0193471D02*
X0126500Y0185000D01*
X0136600Y0183600D02*
X0148350Y0195350D01*
X0160100Y0195350D01*
X0169500Y0185950D01*
X0170000Y0185000D01*
X0153500Y0185000D02*
X0153050Y0183600D01*
X0149035Y0179585D01*
X0149035Y0179586D02*
X0148853Y0179408D01*
X0148667Y0179235D01*
X0148476Y0179066D01*
X0148282Y0178903D01*
X0148083Y0178744D01*
X0147881Y0178590D01*
X0147675Y0178441D01*
X0147465Y0178297D01*
X0147252Y0178158D01*
X0147035Y0178024D01*
X0146815Y0177896D01*
X0146593Y0177774D01*
X0146367Y0177657D01*
X0146138Y0177545D01*
X0145907Y0177439D01*
X0145673Y0177339D01*
X0145437Y0177244D01*
X0145199Y0177156D01*
X0144958Y0177073D01*
X0144716Y0176996D01*
X0144471Y0176925D01*
X0144225Y0176861D01*
X0143978Y0176802D01*
X0143729Y0176749D01*
X0143479Y0176703D01*
X0143228Y0176662D01*
X0142976Y0176628D01*
X0142723Y0176600D01*
X0142469Y0176578D01*
X0142216Y0176562D01*
X0141961Y0176553D01*
X0141707Y0176550D01*
X0148667Y0169183D02*
X0153050Y0164800D01*
X0153500Y0163300D01*
X0143650Y0160100D02*
X0136600Y0167150D01*
X0142228Y0171850D02*
X0142451Y0171847D01*
X0142675Y0171839D01*
X0142898Y0171825D01*
X0143121Y0171806D01*
X0143343Y0171782D01*
X0143564Y0171751D01*
X0143785Y0171716D01*
X0144004Y0171675D01*
X0144223Y0171629D01*
X0144441Y0171577D01*
X0144657Y0171520D01*
X0144871Y0171458D01*
X0145084Y0171390D01*
X0145296Y0171318D01*
X0145505Y0171240D01*
X0145713Y0171157D01*
X0145918Y0171069D01*
X0146121Y0170976D01*
X0146322Y0170878D01*
X0146521Y0170775D01*
X0146716Y0170667D01*
X0146909Y0170554D01*
X0147100Y0170437D01*
X0147287Y0170315D01*
X0147471Y0170189D01*
X0147652Y0170058D01*
X0147830Y0169923D01*
X0148005Y0169783D01*
X0148176Y0169639D01*
X0148343Y0169491D01*
X0148507Y0169339D01*
X0148667Y0169183D01*
X0118029Y0193471D02*
X0117928Y0193570D01*
X0117824Y0193666D01*
X0117717Y0193758D01*
X0117608Y0193849D01*
X0117497Y0193936D01*
X0117383Y0194020D01*
X0117267Y0194101D01*
X0117149Y0194178D01*
X0117029Y0194253D01*
X0116907Y0194324D01*
X0116783Y0194392D01*
X0116657Y0194456D01*
X0116530Y0194518D01*
X0116401Y0194575D01*
X0116270Y0194629D01*
X0116138Y0194680D01*
X0116005Y0194727D01*
X0115870Y0194770D01*
X0115735Y0194810D01*
X0115598Y0194846D01*
X0115460Y0194878D01*
X0115322Y0194906D01*
X0115183Y0194931D01*
X0115043Y0194952D01*
X0114902Y0194969D01*
X0114762Y0194983D01*
X0114621Y0194992D01*
X0114479Y0194998D01*
X0114338Y0195000D01*
X0110000Y0201250D02*
X0094874Y0201250D01*
X0087071Y0195000D02*
X0086665Y0195005D01*
X0086259Y0195019D01*
X0085853Y0195043D01*
X0085448Y0195077D01*
X0085044Y0195121D01*
X0084642Y0195174D01*
X0084240Y0195236D01*
X0083840Y0195308D01*
X0083442Y0195390D01*
X0083046Y0195481D01*
X0082653Y0195582D01*
X0082262Y0195691D01*
X0081873Y0195811D01*
X0081488Y0195939D01*
X0081105Y0196076D01*
X0080726Y0196223D01*
X0080351Y0196378D01*
X0079979Y0196543D01*
X0079612Y0196716D01*
X0079249Y0196898D01*
X0078890Y0197088D01*
X0078535Y0197287D01*
X0078186Y0197494D01*
X0077842Y0197710D01*
X0077503Y0197934D01*
X0077169Y0198165D01*
X0076841Y0198405D01*
X0076518Y0198652D01*
X0076202Y0198907D01*
X0075892Y0199170D01*
X0075588Y0199439D01*
X0075291Y0199716D01*
X0075000Y0200000D01*
X0071250Y0200000D01*
X0071250Y0210000D02*
X0073750Y0210000D01*
X0074259Y0209503D01*
X0074779Y0209019D01*
X0075311Y0208547D01*
X0075854Y0208088D01*
X0076407Y0207641D01*
X0076971Y0207209D01*
X0077545Y0206789D01*
X0078129Y0206384D01*
X0078723Y0205992D01*
X0079326Y0205615D01*
X0079937Y0205252D01*
X0080557Y0204904D01*
X0081185Y0204571D01*
X0081821Y0204253D01*
X0082464Y0203950D01*
X0083114Y0203662D01*
X0083771Y0203390D01*
X0084434Y0203134D01*
X0085103Y0202893D01*
X0085778Y0202669D01*
X0086458Y0202460D01*
X0087142Y0202268D01*
X0087831Y0202092D01*
X0088524Y0201933D01*
X0089220Y0201790D01*
X0089920Y0201664D01*
X0090622Y0201554D01*
X0091327Y0201461D01*
X0092034Y0201385D01*
X0092743Y0201326D01*
X0093453Y0201284D01*
X0094163Y0201258D01*
X0094874Y0201250D01*
X0126250Y0232500D02*
X0140625Y0212500D01*
X0087250Y0155400D02*
X0080200Y0148350D01*
D23*
X0126250Y0232500D03*
D24*
X0140625Y0212500D03*
D25*
X0136600Y0183600D03*
X0136600Y0167150D03*
X0143650Y0160100D03*
X0190000Y0171500D03*
X0087250Y0155400D03*
X0080200Y0148350D03*
X0153050Y0044950D03*
X0058900Y0032275D03*
D26*
X0126500Y0163300D02*
X0127325Y0163300D01*
D27*
X0126500Y0163300D02*
X0126500Y0157250D01*
X0126875Y0155000D01*
X0160000Y0153125D01*
X0160000Y0135000D01*
X0147096Y0122096D01*
X0130340Y0122096D01*
X0146875Y0122096D01*
X0146875Y0117096D01*
X0156875Y0083833D01*
X0156889Y0083603D01*
X0156897Y0083373D01*
X0156900Y0083142D01*
X0156897Y0082912D01*
X0156888Y0082681D01*
X0156874Y0082451D01*
X0156854Y0082221D01*
X0156828Y0081992D01*
X0156797Y0081764D01*
X0156760Y0081536D01*
X0156718Y0081309D01*
X0156670Y0081084D01*
X0156617Y0080860D01*
X0156558Y0080637D01*
X0156493Y0080415D01*
X0156424Y0080195D01*
X0156348Y0079977D01*
X0156268Y0079761D01*
X0156182Y0079547D01*
X0156091Y0079335D01*
X0155995Y0079126D01*
X0155894Y0078919D01*
X0155788Y0078714D01*
X0155676Y0078512D01*
X0155560Y0078313D01*
X0155439Y0078117D01*
X0155313Y0077924D01*
X0155183Y0077733D01*
X0155047Y0077547D01*
X0154908Y0077363D01*
X0154763Y0077183D01*
X0154615Y0077007D01*
X0154462Y0076834D01*
X0154305Y0076665D01*
X0154144Y0076500D01*
X0153979Y0076339D01*
X0153810Y0076183D01*
X0153637Y0076030D01*
X0153461Y0075882D01*
X0153281Y0075738D01*
X0153097Y0075598D01*
X0152910Y0075463D01*
X0152720Y0075333D01*
X0152527Y0075207D01*
X0152330Y0075086D01*
X0152131Y0074970D01*
X0151929Y0074859D01*
X0151724Y0074753D01*
X0151517Y0074652D01*
X0151307Y0074556D01*
X0151095Y0074465D01*
X0150881Y0074379D01*
X0150665Y0074299D01*
X0150447Y0074224D01*
X0150227Y0074154D01*
X0150006Y0074090D01*
X0149783Y0074031D01*
X0149558Y0073978D01*
X0149333Y0073930D01*
X0149106Y0073888D01*
X0148879Y0073852D01*
X0148650Y0073821D01*
X0148421Y0073795D01*
X0148191Y0073775D01*
X0147961Y0073761D01*
X0147731Y0073753D01*
X0147500Y0073750D01*
X0147273Y0073747D01*
X0147047Y0073739D01*
X0146821Y0073725D01*
X0146595Y0073706D01*
X0146370Y0073682D01*
X0146145Y0073652D01*
X0145922Y0073616D01*
X0145699Y0073575D01*
X0145477Y0073529D01*
X0145256Y0073478D01*
X0145037Y0073421D01*
X0144819Y0073359D01*
X0144603Y0073291D01*
X0144388Y0073219D01*
X0144176Y0073141D01*
X0143965Y0073058D01*
X0143756Y0072970D01*
X0143549Y0072877D01*
X0143345Y0072779D01*
X0143143Y0072676D01*
X0142944Y0072568D01*
X0142747Y0072456D01*
X0142553Y0072339D01*
X0142362Y0072217D01*
X0142174Y0072090D01*
X0141990Y0071960D01*
X0141808Y0071824D01*
X0141630Y0071684D01*
X0141455Y0071540D01*
X0141283Y0071392D01*
X0141115Y0071240D01*
X0140951Y0071084D01*
X0140791Y0070924D01*
X0140635Y0070760D01*
X0140483Y0070592D01*
X0140335Y0070420D01*
X0140191Y0070245D01*
X0140051Y0070067D01*
X0139915Y0069885D01*
X0139785Y0069701D01*
X0139658Y0069513D01*
X0139536Y0069322D01*
X0139419Y0069128D01*
X0139307Y0068931D01*
X0139199Y0068732D01*
X0139096Y0068530D01*
X0138998Y0068326D01*
X0138905Y0068119D01*
X0138817Y0067910D01*
X0138734Y0067699D01*
X0138656Y0067487D01*
X0138584Y0067272D01*
X0138516Y0067056D01*
X0138454Y0066838D01*
X0138397Y0066619D01*
X0138346Y0066398D01*
X0138300Y0066176D01*
X0138259Y0065953D01*
X0138223Y0065730D01*
X0138193Y0065505D01*
X0138169Y0065280D01*
X0138150Y0065054D01*
X0138136Y0064828D01*
X0138128Y0064602D01*
X0138125Y0064375D01*
X0139779Y0062721D01*
X0146250Y0062721D01*
X0129715Y0062721D01*
X0138125Y0064375D02*
X0138125Y0055625D01*
X0134375Y0051875D01*
X0134550Y0051875D01*
X0134838Y0051587D01*
X0141425Y0045000D01*
X0133813Y0051937D02*
X0138125Y0056250D01*
X0133813Y0051937D02*
X0127584Y0045709D01*
X0110784Y0038750D02*
X0071250Y0038750D01*
X0110784Y0038750D02*
X0111349Y0038757D01*
X0111914Y0038777D01*
X0112479Y0038811D01*
X0113042Y0038858D01*
X0113605Y0038918D01*
X0114165Y0038992D01*
X0114724Y0039079D01*
X0115280Y0039179D01*
X0115834Y0039293D01*
X0116385Y0039420D01*
X0116933Y0039560D01*
X0117477Y0039712D01*
X0118018Y0039878D01*
X0118554Y0040057D01*
X0119087Y0040248D01*
X0119614Y0040452D01*
X0120136Y0040668D01*
X0120653Y0040897D01*
X0121165Y0041138D01*
X0121671Y0041391D01*
X0122170Y0041656D01*
X0122663Y0041933D01*
X0123149Y0042221D01*
X0123629Y0042521D01*
X0124101Y0042833D01*
X0124565Y0043155D01*
X0125022Y0043489D01*
X0125470Y0043833D01*
X0125910Y0044188D01*
X0126342Y0044553D01*
X0126765Y0044928D01*
X0127179Y0045314D01*
X0127583Y0045709D01*
X0095682Y0146307D02*
X0095916Y0146692D01*
X0096158Y0147071D01*
X0096409Y0147444D01*
X0096670Y0147811D01*
X0096939Y0148172D01*
X0097216Y0148526D01*
X0097502Y0148873D01*
X0097796Y0149214D01*
X0098098Y0149547D01*
X0098408Y0149874D01*
X0098725Y0150192D01*
X0099050Y0150503D01*
X0099383Y0150807D01*
X0099722Y0151102D01*
X0100068Y0151389D01*
X0100422Y0151668D01*
X0100781Y0151938D01*
X0101147Y0152200D01*
X0101519Y0152453D01*
X0101897Y0152697D01*
X0102281Y0152931D01*
X0102670Y0153157D01*
X0103065Y0153373D01*
X0103464Y0153580D01*
X0103869Y0153778D01*
X0104277Y0153965D01*
X0104691Y0154143D01*
X0105108Y0154311D01*
X0105529Y0154469D01*
X0105954Y0154617D01*
X0106382Y0154755D01*
X0106814Y0154883D01*
X0107248Y0155000D01*
X0107249Y0155000D02*
X0111250Y0155000D01*
X0110000Y0156250D01*
X0110000Y0163300D01*
X0111250Y0155000D02*
X0126875Y0155000D01*
X0095683Y0146308D02*
X0093951Y0144576D01*
X0082903Y0140000D02*
X0075000Y0140000D01*
X0082903Y0140000D02*
X0083286Y0140005D01*
X0083670Y0140019D01*
X0084052Y0140042D01*
X0084435Y0140075D01*
X0084816Y0140118D01*
X0085196Y0140169D01*
X0085574Y0140230D01*
X0085951Y0140300D01*
X0086326Y0140380D01*
X0086700Y0140468D01*
X0087070Y0140566D01*
X0087439Y0140673D01*
X0087804Y0140789D01*
X0088167Y0140913D01*
X0088526Y0141047D01*
X0088882Y0141189D01*
X0089235Y0141340D01*
X0089584Y0141500D01*
X0089928Y0141668D01*
X0090269Y0141845D01*
X0090605Y0142030D01*
X0090936Y0142223D01*
X0091262Y0142424D01*
X0091584Y0142633D01*
X0091900Y0142850D01*
X0092211Y0143075D01*
X0092516Y0143307D01*
X0092815Y0143547D01*
X0093109Y0143794D01*
X0093396Y0144048D01*
X0093677Y0144309D01*
X0093952Y0144576D01*
X0160000Y0153125D02*
X0170000Y0153125D01*
X0170000Y0163300D01*
X0170000Y0153125D02*
X0177575Y0153125D01*
X0186500Y0163300D01*
D28*
X0193490Y0157090D02*
X0193747Y0157405D01*
X0193997Y0157725D01*
X0194238Y0158052D01*
X0194472Y0158383D01*
X0194698Y0158721D01*
X0194915Y0159064D01*
X0195125Y0159411D01*
X0195326Y0159764D01*
X0195519Y0160121D01*
X0195703Y0160483D01*
X0195878Y0160849D01*
X0196045Y0161219D01*
X0196203Y0161593D01*
X0196352Y0161971D01*
X0196491Y0162352D01*
X0196622Y0162737D01*
X0196744Y0163124D01*
X0196856Y0163514D01*
X0196959Y0163907D01*
X0197053Y0164302D01*
X0197137Y0164699D01*
X0197212Y0165098D01*
X0197277Y0165499D01*
X0197333Y0165901D01*
X0197379Y0166304D01*
X0197415Y0166708D01*
X0197442Y0167113D01*
X0197459Y0167519D01*
X0197467Y0167925D01*
X0197464Y0168331D01*
X0197453Y0168737D01*
X0197431Y0169142D01*
X0197400Y0169547D01*
X0197400Y0196779D01*
X0201764Y0207314D02*
X0204800Y0210350D01*
X0205000Y0210000D01*
X0197400Y0212200D02*
X0204800Y0219600D01*
X0205000Y0220000D01*
X0197400Y0212250D02*
X0197400Y0212200D01*
X0197400Y0212250D02*
X0180723Y0192192D01*
X0178275Y0188399D02*
X0178275Y0182568D01*
X0179561Y0179464D02*
X0182600Y0177050D01*
X0182575Y0177050D01*
X0190000Y0171500D01*
X0179561Y0179464D02*
X0179472Y0179555D01*
X0179386Y0179650D01*
X0179302Y0179746D01*
X0179221Y0179845D01*
X0179144Y0179946D01*
X0179069Y0180050D01*
X0178997Y0180156D01*
X0178929Y0180263D01*
X0178863Y0180373D01*
X0178801Y0180485D01*
X0178742Y0180598D01*
X0178686Y0180713D01*
X0178634Y0180829D01*
X0178585Y0180947D01*
X0178540Y0181067D01*
X0178498Y0181187D01*
X0178459Y0181309D01*
X0178425Y0181432D01*
X0178393Y0181556D01*
X0178366Y0181680D01*
X0178342Y0181806D01*
X0178321Y0181932D01*
X0178305Y0182058D01*
X0178292Y0182185D01*
X0178282Y0182313D01*
X0178277Y0182440D01*
X0178275Y0182568D01*
X0178275Y0188400D02*
X0178313Y0188554D01*
X0178354Y0188707D01*
X0178399Y0188860D01*
X0178447Y0189011D01*
X0178499Y0189161D01*
X0178555Y0189310D01*
X0178614Y0189457D01*
X0178677Y0189603D01*
X0178743Y0189747D01*
X0178812Y0189890D01*
X0178885Y0190031D01*
X0178962Y0190171D01*
X0179041Y0190308D01*
X0179124Y0190443D01*
X0179210Y0190577D01*
X0179300Y0190708D01*
X0179392Y0190837D01*
X0179487Y0190964D01*
X0179586Y0191089D01*
X0179687Y0191211D01*
X0179792Y0191331D01*
X0179899Y0191448D01*
X0180009Y0191563D01*
X0180121Y0191675D01*
X0180237Y0191784D01*
X0180354Y0191890D01*
X0180475Y0191994D01*
X0180598Y0192095D01*
X0180723Y0192192D01*
X0197400Y0196779D02*
X0197404Y0197134D01*
X0197417Y0197488D01*
X0197438Y0197842D01*
X0197467Y0198195D01*
X0197505Y0198548D01*
X0197552Y0198899D01*
X0197606Y0199250D01*
X0197669Y0199598D01*
X0197740Y0199946D01*
X0197820Y0200291D01*
X0197908Y0200635D01*
X0198003Y0200976D01*
X0198107Y0201315D01*
X0198219Y0201652D01*
X0198339Y0201985D01*
X0198467Y0202316D01*
X0198603Y0202644D01*
X0198746Y0202968D01*
X0198897Y0203289D01*
X0199056Y0203606D01*
X0199222Y0203919D01*
X0199396Y0204228D01*
X0199577Y0204533D01*
X0199765Y0204833D01*
X0199960Y0205129D01*
X0200162Y0205421D01*
X0200372Y0205707D01*
X0200587Y0205988D01*
X0200810Y0206264D01*
X0201039Y0206535D01*
X0201274Y0206800D01*
X0201516Y0207060D01*
X0201764Y0207313D01*
X0193490Y0157090D02*
X0183358Y0148208D01*
X0177050Y0132979D02*
X0177050Y0132597D01*
X0180937Y0123213D02*
X0182600Y0121550D01*
X0184450Y0121550D01*
X0185500Y0120000D01*
X0180937Y0123213D02*
X0180716Y0123439D01*
X0180501Y0123670D01*
X0180291Y0123906D01*
X0180087Y0124147D01*
X0179889Y0124393D01*
X0179697Y0124644D01*
X0179511Y0124899D01*
X0179331Y0125159D01*
X0179157Y0125422D01*
X0178989Y0125690D01*
X0178828Y0125961D01*
X0178673Y0126237D01*
X0178525Y0126516D01*
X0178384Y0126798D01*
X0178249Y0127084D01*
X0178121Y0127373D01*
X0178001Y0127665D01*
X0177887Y0127959D01*
X0177780Y0128256D01*
X0177680Y0128556D01*
X0177588Y0128858D01*
X0177502Y0129162D01*
X0177424Y0129468D01*
X0177353Y0129776D01*
X0177290Y0130085D01*
X0177234Y0130396D01*
X0177185Y0130708D01*
X0177144Y0131021D01*
X0177110Y0131336D01*
X0177084Y0131650D01*
X0177065Y0131966D01*
X0177054Y0132281D01*
X0177050Y0132597D01*
X0177050Y0132979D02*
X0177056Y0133492D01*
X0177074Y0134004D01*
X0177105Y0134515D01*
X0177148Y0135026D01*
X0177202Y0135536D01*
X0177269Y0136044D01*
X0177348Y0136550D01*
X0177439Y0137055D01*
X0177542Y0137557D01*
X0177657Y0138056D01*
X0177784Y0138553D01*
X0177922Y0139046D01*
X0178073Y0139536D01*
X0178234Y0140023D01*
X0178408Y0140505D01*
X0178593Y0140983D01*
X0178789Y0141457D01*
X0178996Y0141925D01*
X0179215Y0142389D01*
X0179444Y0142847D01*
X0179684Y0143300D01*
X0179935Y0143747D01*
X0180197Y0144188D01*
X0180469Y0144622D01*
X0180751Y0145050D01*
X0181043Y0145471D01*
X0181346Y0145885D01*
X0181658Y0146292D01*
X0181979Y0146691D01*
X0182310Y0147082D01*
X0182650Y0147465D01*
X0183000Y0147841D01*
X0183358Y0148207D01*
X0134838Y0051587D02*
X0134500Y0051250D01*
X0133813Y0051937D01*
X0071875Y0079375D02*
X0071600Y0079000D01*
X0071250Y0078750D01*
M02*
