G75*
%MOIN*%
%OFA0B0*%
%FSLAX25Y25*%
%IPPOS*%
%LPD*%
%AMOC8*
5,1,8,0,0,1.08239X$1,22.5*
%
%ADD10C,0.00000*%
%ADD11C,0.00200*%
%ADD12C,0.01000*%
%ADD13C,0.01200*%
%ADD14C,0.00300*%
%ADD15C,0.00600*%
%ADD16C,0.00500*%
%ADD17C,0.00100*%
%ADD18C,0.00800*%
%ADD19R,0.09843X0.05906*%
%ADD20C,0.00900*%
%ADD21R,0.05906X0.09843*%
%ADD22C,0.00700*%
%ADD23C,0.00400*%
D10*
X0005000Y0005000D02*
X0015000Y0005000D01*
X0208701Y0005000D01*
X0185959Y0016250D02*
X0185961Y0016403D01*
X0185967Y0016557D01*
X0185977Y0016710D01*
X0185991Y0016862D01*
X0186009Y0017015D01*
X0186031Y0017166D01*
X0186056Y0017317D01*
X0186086Y0017468D01*
X0186120Y0017618D01*
X0186157Y0017766D01*
X0186198Y0017914D01*
X0186243Y0018060D01*
X0186292Y0018206D01*
X0186345Y0018350D01*
X0186401Y0018492D01*
X0186461Y0018633D01*
X0186525Y0018773D01*
X0186592Y0018911D01*
X0186663Y0019047D01*
X0186738Y0019181D01*
X0186815Y0019313D01*
X0186897Y0019443D01*
X0186981Y0019571D01*
X0187069Y0019697D01*
X0187160Y0019820D01*
X0187254Y0019941D01*
X0187352Y0020059D01*
X0187452Y0020175D01*
X0187556Y0020288D01*
X0187662Y0020399D01*
X0187771Y0020507D01*
X0187883Y0020612D01*
X0187997Y0020713D01*
X0188115Y0020812D01*
X0188234Y0020908D01*
X0188356Y0021001D01*
X0188481Y0021090D01*
X0188608Y0021177D01*
X0188737Y0021259D01*
X0188868Y0021339D01*
X0189001Y0021415D01*
X0189136Y0021488D01*
X0189273Y0021557D01*
X0189412Y0021622D01*
X0189552Y0021684D01*
X0189694Y0021742D01*
X0189837Y0021797D01*
X0189982Y0021848D01*
X0190128Y0021895D01*
X0190275Y0021938D01*
X0190423Y0021977D01*
X0190572Y0022013D01*
X0190722Y0022044D01*
X0190873Y0022072D01*
X0191024Y0022096D01*
X0191177Y0022116D01*
X0191329Y0022132D01*
X0191482Y0022144D01*
X0191635Y0022152D01*
X0191788Y0022156D01*
X0191942Y0022156D01*
X0192095Y0022152D01*
X0192248Y0022144D01*
X0192401Y0022132D01*
X0192553Y0022116D01*
X0192706Y0022096D01*
X0192857Y0022072D01*
X0193008Y0022044D01*
X0193158Y0022013D01*
X0193307Y0021977D01*
X0193455Y0021938D01*
X0193602Y0021895D01*
X0193748Y0021848D01*
X0193893Y0021797D01*
X0194036Y0021742D01*
X0194178Y0021684D01*
X0194318Y0021622D01*
X0194457Y0021557D01*
X0194594Y0021488D01*
X0194729Y0021415D01*
X0194862Y0021339D01*
X0194993Y0021259D01*
X0195122Y0021177D01*
X0195249Y0021090D01*
X0195374Y0021001D01*
X0195496Y0020908D01*
X0195615Y0020812D01*
X0195733Y0020713D01*
X0195847Y0020612D01*
X0195959Y0020507D01*
X0196068Y0020399D01*
X0196174Y0020288D01*
X0196278Y0020175D01*
X0196378Y0020059D01*
X0196476Y0019941D01*
X0196570Y0019820D01*
X0196661Y0019697D01*
X0196749Y0019571D01*
X0196833Y0019443D01*
X0196915Y0019313D01*
X0196992Y0019181D01*
X0197067Y0019047D01*
X0197138Y0018911D01*
X0197205Y0018773D01*
X0197269Y0018633D01*
X0197329Y0018492D01*
X0197385Y0018350D01*
X0197438Y0018206D01*
X0197487Y0018060D01*
X0197532Y0017914D01*
X0197573Y0017766D01*
X0197610Y0017618D01*
X0197644Y0017468D01*
X0197674Y0017317D01*
X0197699Y0017166D01*
X0197721Y0017015D01*
X0197739Y0016862D01*
X0197753Y0016710D01*
X0197763Y0016557D01*
X0197769Y0016403D01*
X0197771Y0016250D01*
X0197769Y0016097D01*
X0197763Y0015943D01*
X0197753Y0015790D01*
X0197739Y0015638D01*
X0197721Y0015485D01*
X0197699Y0015334D01*
X0197674Y0015183D01*
X0197644Y0015032D01*
X0197610Y0014882D01*
X0197573Y0014734D01*
X0197532Y0014586D01*
X0197487Y0014440D01*
X0197438Y0014294D01*
X0197385Y0014150D01*
X0197329Y0014008D01*
X0197269Y0013867D01*
X0197205Y0013727D01*
X0197138Y0013589D01*
X0197067Y0013453D01*
X0196992Y0013319D01*
X0196915Y0013187D01*
X0196833Y0013057D01*
X0196749Y0012929D01*
X0196661Y0012803D01*
X0196570Y0012680D01*
X0196476Y0012559D01*
X0196378Y0012441D01*
X0196278Y0012325D01*
X0196174Y0012212D01*
X0196068Y0012101D01*
X0195959Y0011993D01*
X0195847Y0011888D01*
X0195733Y0011787D01*
X0195615Y0011688D01*
X0195496Y0011592D01*
X0195374Y0011499D01*
X0195249Y0011410D01*
X0195122Y0011323D01*
X0194993Y0011241D01*
X0194862Y0011161D01*
X0194729Y0011085D01*
X0194594Y0011012D01*
X0194457Y0010943D01*
X0194318Y0010878D01*
X0194178Y0010816D01*
X0194036Y0010758D01*
X0193893Y0010703D01*
X0193748Y0010652D01*
X0193602Y0010605D01*
X0193455Y0010562D01*
X0193307Y0010523D01*
X0193158Y0010487D01*
X0193008Y0010456D01*
X0192857Y0010428D01*
X0192706Y0010404D01*
X0192553Y0010384D01*
X0192401Y0010368D01*
X0192248Y0010356D01*
X0192095Y0010348D01*
X0191942Y0010344D01*
X0191788Y0010344D01*
X0191635Y0010348D01*
X0191482Y0010356D01*
X0191329Y0010368D01*
X0191177Y0010384D01*
X0191024Y0010404D01*
X0190873Y0010428D01*
X0190722Y0010456D01*
X0190572Y0010487D01*
X0190423Y0010523D01*
X0190275Y0010562D01*
X0190128Y0010605D01*
X0189982Y0010652D01*
X0189837Y0010703D01*
X0189694Y0010758D01*
X0189552Y0010816D01*
X0189412Y0010878D01*
X0189273Y0010943D01*
X0189136Y0011012D01*
X0189001Y0011085D01*
X0188868Y0011161D01*
X0188737Y0011241D01*
X0188608Y0011323D01*
X0188481Y0011410D01*
X0188356Y0011499D01*
X0188234Y0011592D01*
X0188115Y0011688D01*
X0187997Y0011787D01*
X0187883Y0011888D01*
X0187771Y0011993D01*
X0187662Y0012101D01*
X0187556Y0012212D01*
X0187452Y0012325D01*
X0187352Y0012441D01*
X0187254Y0012559D01*
X0187160Y0012680D01*
X0187069Y0012803D01*
X0186981Y0012929D01*
X0186897Y0013057D01*
X0186815Y0013187D01*
X0186738Y0013319D01*
X0186663Y0013453D01*
X0186592Y0013589D01*
X0186525Y0013727D01*
X0186461Y0013867D01*
X0186401Y0014008D01*
X0186345Y0014150D01*
X0186292Y0014294D01*
X0186243Y0014440D01*
X0186198Y0014586D01*
X0186157Y0014734D01*
X0186120Y0014882D01*
X0186086Y0015032D01*
X0186056Y0015183D01*
X0186031Y0015334D01*
X0186009Y0015485D01*
X0185991Y0015638D01*
X0185977Y0015790D01*
X0185967Y0015943D01*
X0185961Y0016097D01*
X0185959Y0016250D01*
X0185959Y0045000D02*
X0185961Y0045153D01*
X0185967Y0045307D01*
X0185977Y0045460D01*
X0185991Y0045612D01*
X0186009Y0045765D01*
X0186031Y0045916D01*
X0186056Y0046067D01*
X0186086Y0046218D01*
X0186120Y0046368D01*
X0186157Y0046516D01*
X0186198Y0046664D01*
X0186243Y0046810D01*
X0186292Y0046956D01*
X0186345Y0047100D01*
X0186401Y0047242D01*
X0186461Y0047383D01*
X0186525Y0047523D01*
X0186592Y0047661D01*
X0186663Y0047797D01*
X0186738Y0047931D01*
X0186815Y0048063D01*
X0186897Y0048193D01*
X0186981Y0048321D01*
X0187069Y0048447D01*
X0187160Y0048570D01*
X0187254Y0048691D01*
X0187352Y0048809D01*
X0187452Y0048925D01*
X0187556Y0049038D01*
X0187662Y0049149D01*
X0187771Y0049257D01*
X0187883Y0049362D01*
X0187997Y0049463D01*
X0188115Y0049562D01*
X0188234Y0049658D01*
X0188356Y0049751D01*
X0188481Y0049840D01*
X0188608Y0049927D01*
X0188737Y0050009D01*
X0188868Y0050089D01*
X0189001Y0050165D01*
X0189136Y0050238D01*
X0189273Y0050307D01*
X0189412Y0050372D01*
X0189552Y0050434D01*
X0189694Y0050492D01*
X0189837Y0050547D01*
X0189982Y0050598D01*
X0190128Y0050645D01*
X0190275Y0050688D01*
X0190423Y0050727D01*
X0190572Y0050763D01*
X0190722Y0050794D01*
X0190873Y0050822D01*
X0191024Y0050846D01*
X0191177Y0050866D01*
X0191329Y0050882D01*
X0191482Y0050894D01*
X0191635Y0050902D01*
X0191788Y0050906D01*
X0191942Y0050906D01*
X0192095Y0050902D01*
X0192248Y0050894D01*
X0192401Y0050882D01*
X0192553Y0050866D01*
X0192706Y0050846D01*
X0192857Y0050822D01*
X0193008Y0050794D01*
X0193158Y0050763D01*
X0193307Y0050727D01*
X0193455Y0050688D01*
X0193602Y0050645D01*
X0193748Y0050598D01*
X0193893Y0050547D01*
X0194036Y0050492D01*
X0194178Y0050434D01*
X0194318Y0050372D01*
X0194457Y0050307D01*
X0194594Y0050238D01*
X0194729Y0050165D01*
X0194862Y0050089D01*
X0194993Y0050009D01*
X0195122Y0049927D01*
X0195249Y0049840D01*
X0195374Y0049751D01*
X0195496Y0049658D01*
X0195615Y0049562D01*
X0195733Y0049463D01*
X0195847Y0049362D01*
X0195959Y0049257D01*
X0196068Y0049149D01*
X0196174Y0049038D01*
X0196278Y0048925D01*
X0196378Y0048809D01*
X0196476Y0048691D01*
X0196570Y0048570D01*
X0196661Y0048447D01*
X0196749Y0048321D01*
X0196833Y0048193D01*
X0196915Y0048063D01*
X0196992Y0047931D01*
X0197067Y0047797D01*
X0197138Y0047661D01*
X0197205Y0047523D01*
X0197269Y0047383D01*
X0197329Y0047242D01*
X0197385Y0047100D01*
X0197438Y0046956D01*
X0197487Y0046810D01*
X0197532Y0046664D01*
X0197573Y0046516D01*
X0197610Y0046368D01*
X0197644Y0046218D01*
X0197674Y0046067D01*
X0197699Y0045916D01*
X0197721Y0045765D01*
X0197739Y0045612D01*
X0197753Y0045460D01*
X0197763Y0045307D01*
X0197769Y0045153D01*
X0197771Y0045000D01*
X0197769Y0044847D01*
X0197763Y0044693D01*
X0197753Y0044540D01*
X0197739Y0044388D01*
X0197721Y0044235D01*
X0197699Y0044084D01*
X0197674Y0043933D01*
X0197644Y0043782D01*
X0197610Y0043632D01*
X0197573Y0043484D01*
X0197532Y0043336D01*
X0197487Y0043190D01*
X0197438Y0043044D01*
X0197385Y0042900D01*
X0197329Y0042758D01*
X0197269Y0042617D01*
X0197205Y0042477D01*
X0197138Y0042339D01*
X0197067Y0042203D01*
X0196992Y0042069D01*
X0196915Y0041937D01*
X0196833Y0041807D01*
X0196749Y0041679D01*
X0196661Y0041553D01*
X0196570Y0041430D01*
X0196476Y0041309D01*
X0196378Y0041191D01*
X0196278Y0041075D01*
X0196174Y0040962D01*
X0196068Y0040851D01*
X0195959Y0040743D01*
X0195847Y0040638D01*
X0195733Y0040537D01*
X0195615Y0040438D01*
X0195496Y0040342D01*
X0195374Y0040249D01*
X0195249Y0040160D01*
X0195122Y0040073D01*
X0194993Y0039991D01*
X0194862Y0039911D01*
X0194729Y0039835D01*
X0194594Y0039762D01*
X0194457Y0039693D01*
X0194318Y0039628D01*
X0194178Y0039566D01*
X0194036Y0039508D01*
X0193893Y0039453D01*
X0193748Y0039402D01*
X0193602Y0039355D01*
X0193455Y0039312D01*
X0193307Y0039273D01*
X0193158Y0039237D01*
X0193008Y0039206D01*
X0192857Y0039178D01*
X0192706Y0039154D01*
X0192553Y0039134D01*
X0192401Y0039118D01*
X0192248Y0039106D01*
X0192095Y0039098D01*
X0191942Y0039094D01*
X0191788Y0039094D01*
X0191635Y0039098D01*
X0191482Y0039106D01*
X0191329Y0039118D01*
X0191177Y0039134D01*
X0191024Y0039154D01*
X0190873Y0039178D01*
X0190722Y0039206D01*
X0190572Y0039237D01*
X0190423Y0039273D01*
X0190275Y0039312D01*
X0190128Y0039355D01*
X0189982Y0039402D01*
X0189837Y0039453D01*
X0189694Y0039508D01*
X0189552Y0039566D01*
X0189412Y0039628D01*
X0189273Y0039693D01*
X0189136Y0039762D01*
X0189001Y0039835D01*
X0188868Y0039911D01*
X0188737Y0039991D01*
X0188608Y0040073D01*
X0188481Y0040160D01*
X0188356Y0040249D01*
X0188234Y0040342D01*
X0188115Y0040438D01*
X0187997Y0040537D01*
X0187883Y0040638D01*
X0187771Y0040743D01*
X0187662Y0040851D01*
X0187556Y0040962D01*
X0187452Y0041075D01*
X0187352Y0041191D01*
X0187254Y0041309D01*
X0187160Y0041430D01*
X0187069Y0041553D01*
X0186981Y0041679D01*
X0186897Y0041807D01*
X0186815Y0041937D01*
X0186738Y0042069D01*
X0186663Y0042203D01*
X0186592Y0042339D01*
X0186525Y0042477D01*
X0186461Y0042617D01*
X0186401Y0042758D01*
X0186345Y0042900D01*
X0186292Y0043044D01*
X0186243Y0043190D01*
X0186198Y0043336D01*
X0186157Y0043484D01*
X0186120Y0043632D01*
X0186086Y0043782D01*
X0186056Y0043933D01*
X0186031Y0044084D01*
X0186009Y0044235D01*
X0185991Y0044388D01*
X0185977Y0044540D01*
X0185967Y0044693D01*
X0185961Y0044847D01*
X0185959Y0045000D01*
X0158848Y0064532D02*
X0158850Y0064685D01*
X0158856Y0064839D01*
X0158866Y0064992D01*
X0158880Y0065144D01*
X0158898Y0065297D01*
X0158920Y0065448D01*
X0158945Y0065599D01*
X0158975Y0065750D01*
X0159009Y0065900D01*
X0159046Y0066048D01*
X0159087Y0066196D01*
X0159132Y0066342D01*
X0159181Y0066488D01*
X0159234Y0066632D01*
X0159290Y0066774D01*
X0159350Y0066915D01*
X0159414Y0067055D01*
X0159481Y0067193D01*
X0159552Y0067329D01*
X0159627Y0067463D01*
X0159704Y0067595D01*
X0159786Y0067725D01*
X0159870Y0067853D01*
X0159958Y0067979D01*
X0160049Y0068102D01*
X0160143Y0068223D01*
X0160241Y0068341D01*
X0160341Y0068457D01*
X0160445Y0068570D01*
X0160551Y0068681D01*
X0160660Y0068789D01*
X0160772Y0068894D01*
X0160886Y0068995D01*
X0161004Y0069094D01*
X0161123Y0069190D01*
X0161245Y0069283D01*
X0161370Y0069372D01*
X0161497Y0069459D01*
X0161626Y0069541D01*
X0161757Y0069621D01*
X0161890Y0069697D01*
X0162025Y0069770D01*
X0162162Y0069839D01*
X0162301Y0069904D01*
X0162441Y0069966D01*
X0162583Y0070024D01*
X0162726Y0070079D01*
X0162871Y0070130D01*
X0163017Y0070177D01*
X0163164Y0070220D01*
X0163312Y0070259D01*
X0163461Y0070295D01*
X0163611Y0070326D01*
X0163762Y0070354D01*
X0163913Y0070378D01*
X0164066Y0070398D01*
X0164218Y0070414D01*
X0164371Y0070426D01*
X0164524Y0070434D01*
X0164677Y0070438D01*
X0164831Y0070438D01*
X0164984Y0070434D01*
X0165137Y0070426D01*
X0165290Y0070414D01*
X0165442Y0070398D01*
X0165595Y0070378D01*
X0165746Y0070354D01*
X0165897Y0070326D01*
X0166047Y0070295D01*
X0166196Y0070259D01*
X0166344Y0070220D01*
X0166491Y0070177D01*
X0166637Y0070130D01*
X0166782Y0070079D01*
X0166925Y0070024D01*
X0167067Y0069966D01*
X0167207Y0069904D01*
X0167346Y0069839D01*
X0167483Y0069770D01*
X0167618Y0069697D01*
X0167751Y0069621D01*
X0167882Y0069541D01*
X0168011Y0069459D01*
X0168138Y0069372D01*
X0168263Y0069283D01*
X0168385Y0069190D01*
X0168504Y0069094D01*
X0168622Y0068995D01*
X0168736Y0068894D01*
X0168848Y0068789D01*
X0168957Y0068681D01*
X0169063Y0068570D01*
X0169167Y0068457D01*
X0169267Y0068341D01*
X0169365Y0068223D01*
X0169459Y0068102D01*
X0169550Y0067979D01*
X0169638Y0067853D01*
X0169722Y0067725D01*
X0169804Y0067595D01*
X0169881Y0067463D01*
X0169956Y0067329D01*
X0170027Y0067193D01*
X0170094Y0067055D01*
X0170158Y0066915D01*
X0170218Y0066774D01*
X0170274Y0066632D01*
X0170327Y0066488D01*
X0170376Y0066342D01*
X0170421Y0066196D01*
X0170462Y0066048D01*
X0170499Y0065900D01*
X0170533Y0065750D01*
X0170563Y0065599D01*
X0170588Y0065448D01*
X0170610Y0065297D01*
X0170628Y0065144D01*
X0170642Y0064992D01*
X0170652Y0064839D01*
X0170658Y0064685D01*
X0170660Y0064532D01*
X0170658Y0064379D01*
X0170652Y0064225D01*
X0170642Y0064072D01*
X0170628Y0063920D01*
X0170610Y0063767D01*
X0170588Y0063616D01*
X0170563Y0063465D01*
X0170533Y0063314D01*
X0170499Y0063164D01*
X0170462Y0063016D01*
X0170421Y0062868D01*
X0170376Y0062722D01*
X0170327Y0062576D01*
X0170274Y0062432D01*
X0170218Y0062290D01*
X0170158Y0062149D01*
X0170094Y0062009D01*
X0170027Y0061871D01*
X0169956Y0061735D01*
X0169881Y0061601D01*
X0169804Y0061469D01*
X0169722Y0061339D01*
X0169638Y0061211D01*
X0169550Y0061085D01*
X0169459Y0060962D01*
X0169365Y0060841D01*
X0169267Y0060723D01*
X0169167Y0060607D01*
X0169063Y0060494D01*
X0168957Y0060383D01*
X0168848Y0060275D01*
X0168736Y0060170D01*
X0168622Y0060069D01*
X0168504Y0059970D01*
X0168385Y0059874D01*
X0168263Y0059781D01*
X0168138Y0059692D01*
X0168011Y0059605D01*
X0167882Y0059523D01*
X0167751Y0059443D01*
X0167618Y0059367D01*
X0167483Y0059294D01*
X0167346Y0059225D01*
X0167207Y0059160D01*
X0167067Y0059098D01*
X0166925Y0059040D01*
X0166782Y0058985D01*
X0166637Y0058934D01*
X0166491Y0058887D01*
X0166344Y0058844D01*
X0166196Y0058805D01*
X0166047Y0058769D01*
X0165897Y0058738D01*
X0165746Y0058710D01*
X0165595Y0058686D01*
X0165442Y0058666D01*
X0165290Y0058650D01*
X0165137Y0058638D01*
X0164984Y0058630D01*
X0164831Y0058626D01*
X0164677Y0058626D01*
X0164524Y0058630D01*
X0164371Y0058638D01*
X0164218Y0058650D01*
X0164066Y0058666D01*
X0163913Y0058686D01*
X0163762Y0058710D01*
X0163611Y0058738D01*
X0163461Y0058769D01*
X0163312Y0058805D01*
X0163164Y0058844D01*
X0163017Y0058887D01*
X0162871Y0058934D01*
X0162726Y0058985D01*
X0162583Y0059040D01*
X0162441Y0059098D01*
X0162301Y0059160D01*
X0162162Y0059225D01*
X0162025Y0059294D01*
X0161890Y0059367D01*
X0161757Y0059443D01*
X0161626Y0059523D01*
X0161497Y0059605D01*
X0161370Y0059692D01*
X0161245Y0059781D01*
X0161123Y0059874D01*
X0161004Y0059970D01*
X0160886Y0060069D01*
X0160772Y0060170D01*
X0160660Y0060275D01*
X0160551Y0060383D01*
X0160445Y0060494D01*
X0160341Y0060607D01*
X0160241Y0060723D01*
X0160143Y0060841D01*
X0160049Y0060962D01*
X0159958Y0061085D01*
X0159870Y0061211D01*
X0159786Y0061339D01*
X0159704Y0061469D01*
X0159627Y0061601D01*
X0159552Y0061735D01*
X0159481Y0061871D01*
X0159414Y0062009D01*
X0159350Y0062149D01*
X0159290Y0062290D01*
X0159234Y0062432D01*
X0159181Y0062576D01*
X0159132Y0062722D01*
X0159087Y0062868D01*
X0159046Y0063016D01*
X0159009Y0063164D01*
X0158975Y0063314D01*
X0158945Y0063465D01*
X0158920Y0063616D01*
X0158898Y0063767D01*
X0158880Y0063920D01*
X0158866Y0064072D01*
X0158856Y0064225D01*
X0158850Y0064379D01*
X0158848Y0064532D01*
X0159473Y0123907D02*
X0159475Y0124060D01*
X0159481Y0124214D01*
X0159491Y0124367D01*
X0159505Y0124519D01*
X0159523Y0124672D01*
X0159545Y0124823D01*
X0159570Y0124974D01*
X0159600Y0125125D01*
X0159634Y0125275D01*
X0159671Y0125423D01*
X0159712Y0125571D01*
X0159757Y0125717D01*
X0159806Y0125863D01*
X0159859Y0126007D01*
X0159915Y0126149D01*
X0159975Y0126290D01*
X0160039Y0126430D01*
X0160106Y0126568D01*
X0160177Y0126704D01*
X0160252Y0126838D01*
X0160329Y0126970D01*
X0160411Y0127100D01*
X0160495Y0127228D01*
X0160583Y0127354D01*
X0160674Y0127477D01*
X0160768Y0127598D01*
X0160866Y0127716D01*
X0160966Y0127832D01*
X0161070Y0127945D01*
X0161176Y0128056D01*
X0161285Y0128164D01*
X0161397Y0128269D01*
X0161511Y0128370D01*
X0161629Y0128469D01*
X0161748Y0128565D01*
X0161870Y0128658D01*
X0161995Y0128747D01*
X0162122Y0128834D01*
X0162251Y0128916D01*
X0162382Y0128996D01*
X0162515Y0129072D01*
X0162650Y0129145D01*
X0162787Y0129214D01*
X0162926Y0129279D01*
X0163066Y0129341D01*
X0163208Y0129399D01*
X0163351Y0129454D01*
X0163496Y0129505D01*
X0163642Y0129552D01*
X0163789Y0129595D01*
X0163937Y0129634D01*
X0164086Y0129670D01*
X0164236Y0129701D01*
X0164387Y0129729D01*
X0164538Y0129753D01*
X0164691Y0129773D01*
X0164843Y0129789D01*
X0164996Y0129801D01*
X0165149Y0129809D01*
X0165302Y0129813D01*
X0165456Y0129813D01*
X0165609Y0129809D01*
X0165762Y0129801D01*
X0165915Y0129789D01*
X0166067Y0129773D01*
X0166220Y0129753D01*
X0166371Y0129729D01*
X0166522Y0129701D01*
X0166672Y0129670D01*
X0166821Y0129634D01*
X0166969Y0129595D01*
X0167116Y0129552D01*
X0167262Y0129505D01*
X0167407Y0129454D01*
X0167550Y0129399D01*
X0167692Y0129341D01*
X0167832Y0129279D01*
X0167971Y0129214D01*
X0168108Y0129145D01*
X0168243Y0129072D01*
X0168376Y0128996D01*
X0168507Y0128916D01*
X0168636Y0128834D01*
X0168763Y0128747D01*
X0168888Y0128658D01*
X0169010Y0128565D01*
X0169129Y0128469D01*
X0169247Y0128370D01*
X0169361Y0128269D01*
X0169473Y0128164D01*
X0169582Y0128056D01*
X0169688Y0127945D01*
X0169792Y0127832D01*
X0169892Y0127716D01*
X0169990Y0127598D01*
X0170084Y0127477D01*
X0170175Y0127354D01*
X0170263Y0127228D01*
X0170347Y0127100D01*
X0170429Y0126970D01*
X0170506Y0126838D01*
X0170581Y0126704D01*
X0170652Y0126568D01*
X0170719Y0126430D01*
X0170783Y0126290D01*
X0170843Y0126149D01*
X0170899Y0126007D01*
X0170952Y0125863D01*
X0171001Y0125717D01*
X0171046Y0125571D01*
X0171087Y0125423D01*
X0171124Y0125275D01*
X0171158Y0125125D01*
X0171188Y0124974D01*
X0171213Y0124823D01*
X0171235Y0124672D01*
X0171253Y0124519D01*
X0171267Y0124367D01*
X0171277Y0124214D01*
X0171283Y0124060D01*
X0171285Y0123907D01*
X0171283Y0123754D01*
X0171277Y0123600D01*
X0171267Y0123447D01*
X0171253Y0123295D01*
X0171235Y0123142D01*
X0171213Y0122991D01*
X0171188Y0122840D01*
X0171158Y0122689D01*
X0171124Y0122539D01*
X0171087Y0122391D01*
X0171046Y0122243D01*
X0171001Y0122097D01*
X0170952Y0121951D01*
X0170899Y0121807D01*
X0170843Y0121665D01*
X0170783Y0121524D01*
X0170719Y0121384D01*
X0170652Y0121246D01*
X0170581Y0121110D01*
X0170506Y0120976D01*
X0170429Y0120844D01*
X0170347Y0120714D01*
X0170263Y0120586D01*
X0170175Y0120460D01*
X0170084Y0120337D01*
X0169990Y0120216D01*
X0169892Y0120098D01*
X0169792Y0119982D01*
X0169688Y0119869D01*
X0169582Y0119758D01*
X0169473Y0119650D01*
X0169361Y0119545D01*
X0169247Y0119444D01*
X0169129Y0119345D01*
X0169010Y0119249D01*
X0168888Y0119156D01*
X0168763Y0119067D01*
X0168636Y0118980D01*
X0168507Y0118898D01*
X0168376Y0118818D01*
X0168243Y0118742D01*
X0168108Y0118669D01*
X0167971Y0118600D01*
X0167832Y0118535D01*
X0167692Y0118473D01*
X0167550Y0118415D01*
X0167407Y0118360D01*
X0167262Y0118309D01*
X0167116Y0118262D01*
X0166969Y0118219D01*
X0166821Y0118180D01*
X0166672Y0118144D01*
X0166522Y0118113D01*
X0166371Y0118085D01*
X0166220Y0118061D01*
X0166067Y0118041D01*
X0165915Y0118025D01*
X0165762Y0118013D01*
X0165609Y0118005D01*
X0165456Y0118001D01*
X0165302Y0118001D01*
X0165149Y0118005D01*
X0164996Y0118013D01*
X0164843Y0118025D01*
X0164691Y0118041D01*
X0164538Y0118061D01*
X0164387Y0118085D01*
X0164236Y0118113D01*
X0164086Y0118144D01*
X0163937Y0118180D01*
X0163789Y0118219D01*
X0163642Y0118262D01*
X0163496Y0118309D01*
X0163351Y0118360D01*
X0163208Y0118415D01*
X0163066Y0118473D01*
X0162926Y0118535D01*
X0162787Y0118600D01*
X0162650Y0118669D01*
X0162515Y0118742D01*
X0162382Y0118818D01*
X0162251Y0118898D01*
X0162122Y0118980D01*
X0161995Y0119067D01*
X0161870Y0119156D01*
X0161748Y0119249D01*
X0161629Y0119345D01*
X0161511Y0119444D01*
X0161397Y0119545D01*
X0161285Y0119650D01*
X0161176Y0119758D01*
X0161070Y0119869D01*
X0160966Y0119982D01*
X0160866Y0120098D01*
X0160768Y0120216D01*
X0160674Y0120337D01*
X0160583Y0120460D01*
X0160495Y0120586D01*
X0160411Y0120714D01*
X0160329Y0120844D01*
X0160252Y0120976D01*
X0160177Y0121110D01*
X0160106Y0121246D01*
X0160039Y0121384D01*
X0159975Y0121524D01*
X0159915Y0121665D01*
X0159859Y0121807D01*
X0159806Y0121951D01*
X0159757Y0122097D01*
X0159712Y0122243D01*
X0159671Y0122391D01*
X0159634Y0122539D01*
X0159600Y0122689D01*
X0159570Y0122840D01*
X0159545Y0122991D01*
X0159523Y0123142D01*
X0159505Y0123295D01*
X0159491Y0123447D01*
X0159481Y0123600D01*
X0159475Y0123754D01*
X0159473Y0123907D01*
X0089394Y0123907D02*
X0089396Y0124060D01*
X0089402Y0124214D01*
X0089412Y0124367D01*
X0089426Y0124519D01*
X0089444Y0124672D01*
X0089466Y0124823D01*
X0089491Y0124974D01*
X0089521Y0125125D01*
X0089555Y0125275D01*
X0089592Y0125423D01*
X0089633Y0125571D01*
X0089678Y0125717D01*
X0089727Y0125863D01*
X0089780Y0126007D01*
X0089836Y0126149D01*
X0089896Y0126290D01*
X0089960Y0126430D01*
X0090027Y0126568D01*
X0090098Y0126704D01*
X0090173Y0126838D01*
X0090250Y0126970D01*
X0090332Y0127100D01*
X0090416Y0127228D01*
X0090504Y0127354D01*
X0090595Y0127477D01*
X0090689Y0127598D01*
X0090787Y0127716D01*
X0090887Y0127832D01*
X0090991Y0127945D01*
X0091097Y0128056D01*
X0091206Y0128164D01*
X0091318Y0128269D01*
X0091432Y0128370D01*
X0091550Y0128469D01*
X0091669Y0128565D01*
X0091791Y0128658D01*
X0091916Y0128747D01*
X0092043Y0128834D01*
X0092172Y0128916D01*
X0092303Y0128996D01*
X0092436Y0129072D01*
X0092571Y0129145D01*
X0092708Y0129214D01*
X0092847Y0129279D01*
X0092987Y0129341D01*
X0093129Y0129399D01*
X0093272Y0129454D01*
X0093417Y0129505D01*
X0093563Y0129552D01*
X0093710Y0129595D01*
X0093858Y0129634D01*
X0094007Y0129670D01*
X0094157Y0129701D01*
X0094308Y0129729D01*
X0094459Y0129753D01*
X0094612Y0129773D01*
X0094764Y0129789D01*
X0094917Y0129801D01*
X0095070Y0129809D01*
X0095223Y0129813D01*
X0095377Y0129813D01*
X0095530Y0129809D01*
X0095683Y0129801D01*
X0095836Y0129789D01*
X0095988Y0129773D01*
X0096141Y0129753D01*
X0096292Y0129729D01*
X0096443Y0129701D01*
X0096593Y0129670D01*
X0096742Y0129634D01*
X0096890Y0129595D01*
X0097037Y0129552D01*
X0097183Y0129505D01*
X0097328Y0129454D01*
X0097471Y0129399D01*
X0097613Y0129341D01*
X0097753Y0129279D01*
X0097892Y0129214D01*
X0098029Y0129145D01*
X0098164Y0129072D01*
X0098297Y0128996D01*
X0098428Y0128916D01*
X0098557Y0128834D01*
X0098684Y0128747D01*
X0098809Y0128658D01*
X0098931Y0128565D01*
X0099050Y0128469D01*
X0099168Y0128370D01*
X0099282Y0128269D01*
X0099394Y0128164D01*
X0099503Y0128056D01*
X0099609Y0127945D01*
X0099713Y0127832D01*
X0099813Y0127716D01*
X0099911Y0127598D01*
X0100005Y0127477D01*
X0100096Y0127354D01*
X0100184Y0127228D01*
X0100268Y0127100D01*
X0100350Y0126970D01*
X0100427Y0126838D01*
X0100502Y0126704D01*
X0100573Y0126568D01*
X0100640Y0126430D01*
X0100704Y0126290D01*
X0100764Y0126149D01*
X0100820Y0126007D01*
X0100873Y0125863D01*
X0100922Y0125717D01*
X0100967Y0125571D01*
X0101008Y0125423D01*
X0101045Y0125275D01*
X0101079Y0125125D01*
X0101109Y0124974D01*
X0101134Y0124823D01*
X0101156Y0124672D01*
X0101174Y0124519D01*
X0101188Y0124367D01*
X0101198Y0124214D01*
X0101204Y0124060D01*
X0101206Y0123907D01*
X0101204Y0123754D01*
X0101198Y0123600D01*
X0101188Y0123447D01*
X0101174Y0123295D01*
X0101156Y0123142D01*
X0101134Y0122991D01*
X0101109Y0122840D01*
X0101079Y0122689D01*
X0101045Y0122539D01*
X0101008Y0122391D01*
X0100967Y0122243D01*
X0100922Y0122097D01*
X0100873Y0121951D01*
X0100820Y0121807D01*
X0100764Y0121665D01*
X0100704Y0121524D01*
X0100640Y0121384D01*
X0100573Y0121246D01*
X0100502Y0121110D01*
X0100427Y0120976D01*
X0100350Y0120844D01*
X0100268Y0120714D01*
X0100184Y0120586D01*
X0100096Y0120460D01*
X0100005Y0120337D01*
X0099911Y0120216D01*
X0099813Y0120098D01*
X0099713Y0119982D01*
X0099609Y0119869D01*
X0099503Y0119758D01*
X0099394Y0119650D01*
X0099282Y0119545D01*
X0099168Y0119444D01*
X0099050Y0119345D01*
X0098931Y0119249D01*
X0098809Y0119156D01*
X0098684Y0119067D01*
X0098557Y0118980D01*
X0098428Y0118898D01*
X0098297Y0118818D01*
X0098164Y0118742D01*
X0098029Y0118669D01*
X0097892Y0118600D01*
X0097753Y0118535D01*
X0097613Y0118473D01*
X0097471Y0118415D01*
X0097328Y0118360D01*
X0097183Y0118309D01*
X0097037Y0118262D01*
X0096890Y0118219D01*
X0096742Y0118180D01*
X0096593Y0118144D01*
X0096443Y0118113D01*
X0096292Y0118085D01*
X0096141Y0118061D01*
X0095988Y0118041D01*
X0095836Y0118025D01*
X0095683Y0118013D01*
X0095530Y0118005D01*
X0095377Y0118001D01*
X0095223Y0118001D01*
X0095070Y0118005D01*
X0094917Y0118013D01*
X0094764Y0118025D01*
X0094612Y0118041D01*
X0094459Y0118061D01*
X0094308Y0118085D01*
X0094157Y0118113D01*
X0094007Y0118144D01*
X0093858Y0118180D01*
X0093710Y0118219D01*
X0093563Y0118262D01*
X0093417Y0118309D01*
X0093272Y0118360D01*
X0093129Y0118415D01*
X0092987Y0118473D01*
X0092847Y0118535D01*
X0092708Y0118600D01*
X0092571Y0118669D01*
X0092436Y0118742D01*
X0092303Y0118818D01*
X0092172Y0118898D01*
X0092043Y0118980D01*
X0091916Y0119067D01*
X0091791Y0119156D01*
X0091669Y0119249D01*
X0091550Y0119345D01*
X0091432Y0119444D01*
X0091318Y0119545D01*
X0091206Y0119650D01*
X0091097Y0119758D01*
X0090991Y0119869D01*
X0090887Y0119982D01*
X0090787Y0120098D01*
X0090689Y0120216D01*
X0090595Y0120337D01*
X0090504Y0120460D01*
X0090416Y0120586D01*
X0090332Y0120714D01*
X0090250Y0120844D01*
X0090173Y0120976D01*
X0090098Y0121110D01*
X0090027Y0121246D01*
X0089960Y0121384D01*
X0089896Y0121524D01*
X0089836Y0121665D01*
X0089780Y0121807D01*
X0089727Y0121951D01*
X0089678Y0122097D01*
X0089633Y0122243D01*
X0089592Y0122391D01*
X0089555Y0122539D01*
X0089521Y0122689D01*
X0089491Y0122840D01*
X0089466Y0122991D01*
X0089444Y0123142D01*
X0089426Y0123295D01*
X0089412Y0123447D01*
X0089402Y0123600D01*
X0089396Y0123754D01*
X0089394Y0123907D01*
X0088769Y0064532D02*
X0088771Y0064685D01*
X0088777Y0064839D01*
X0088787Y0064992D01*
X0088801Y0065144D01*
X0088819Y0065297D01*
X0088841Y0065448D01*
X0088866Y0065599D01*
X0088896Y0065750D01*
X0088930Y0065900D01*
X0088967Y0066048D01*
X0089008Y0066196D01*
X0089053Y0066342D01*
X0089102Y0066488D01*
X0089155Y0066632D01*
X0089211Y0066774D01*
X0089271Y0066915D01*
X0089335Y0067055D01*
X0089402Y0067193D01*
X0089473Y0067329D01*
X0089548Y0067463D01*
X0089625Y0067595D01*
X0089707Y0067725D01*
X0089791Y0067853D01*
X0089879Y0067979D01*
X0089970Y0068102D01*
X0090064Y0068223D01*
X0090162Y0068341D01*
X0090262Y0068457D01*
X0090366Y0068570D01*
X0090472Y0068681D01*
X0090581Y0068789D01*
X0090693Y0068894D01*
X0090807Y0068995D01*
X0090925Y0069094D01*
X0091044Y0069190D01*
X0091166Y0069283D01*
X0091291Y0069372D01*
X0091418Y0069459D01*
X0091547Y0069541D01*
X0091678Y0069621D01*
X0091811Y0069697D01*
X0091946Y0069770D01*
X0092083Y0069839D01*
X0092222Y0069904D01*
X0092362Y0069966D01*
X0092504Y0070024D01*
X0092647Y0070079D01*
X0092792Y0070130D01*
X0092938Y0070177D01*
X0093085Y0070220D01*
X0093233Y0070259D01*
X0093382Y0070295D01*
X0093532Y0070326D01*
X0093683Y0070354D01*
X0093834Y0070378D01*
X0093987Y0070398D01*
X0094139Y0070414D01*
X0094292Y0070426D01*
X0094445Y0070434D01*
X0094598Y0070438D01*
X0094752Y0070438D01*
X0094905Y0070434D01*
X0095058Y0070426D01*
X0095211Y0070414D01*
X0095363Y0070398D01*
X0095516Y0070378D01*
X0095667Y0070354D01*
X0095818Y0070326D01*
X0095968Y0070295D01*
X0096117Y0070259D01*
X0096265Y0070220D01*
X0096412Y0070177D01*
X0096558Y0070130D01*
X0096703Y0070079D01*
X0096846Y0070024D01*
X0096988Y0069966D01*
X0097128Y0069904D01*
X0097267Y0069839D01*
X0097404Y0069770D01*
X0097539Y0069697D01*
X0097672Y0069621D01*
X0097803Y0069541D01*
X0097932Y0069459D01*
X0098059Y0069372D01*
X0098184Y0069283D01*
X0098306Y0069190D01*
X0098425Y0069094D01*
X0098543Y0068995D01*
X0098657Y0068894D01*
X0098769Y0068789D01*
X0098878Y0068681D01*
X0098984Y0068570D01*
X0099088Y0068457D01*
X0099188Y0068341D01*
X0099286Y0068223D01*
X0099380Y0068102D01*
X0099471Y0067979D01*
X0099559Y0067853D01*
X0099643Y0067725D01*
X0099725Y0067595D01*
X0099802Y0067463D01*
X0099877Y0067329D01*
X0099948Y0067193D01*
X0100015Y0067055D01*
X0100079Y0066915D01*
X0100139Y0066774D01*
X0100195Y0066632D01*
X0100248Y0066488D01*
X0100297Y0066342D01*
X0100342Y0066196D01*
X0100383Y0066048D01*
X0100420Y0065900D01*
X0100454Y0065750D01*
X0100484Y0065599D01*
X0100509Y0065448D01*
X0100531Y0065297D01*
X0100549Y0065144D01*
X0100563Y0064992D01*
X0100573Y0064839D01*
X0100579Y0064685D01*
X0100581Y0064532D01*
X0100579Y0064379D01*
X0100573Y0064225D01*
X0100563Y0064072D01*
X0100549Y0063920D01*
X0100531Y0063767D01*
X0100509Y0063616D01*
X0100484Y0063465D01*
X0100454Y0063314D01*
X0100420Y0063164D01*
X0100383Y0063016D01*
X0100342Y0062868D01*
X0100297Y0062722D01*
X0100248Y0062576D01*
X0100195Y0062432D01*
X0100139Y0062290D01*
X0100079Y0062149D01*
X0100015Y0062009D01*
X0099948Y0061871D01*
X0099877Y0061735D01*
X0099802Y0061601D01*
X0099725Y0061469D01*
X0099643Y0061339D01*
X0099559Y0061211D01*
X0099471Y0061085D01*
X0099380Y0060962D01*
X0099286Y0060841D01*
X0099188Y0060723D01*
X0099088Y0060607D01*
X0098984Y0060494D01*
X0098878Y0060383D01*
X0098769Y0060275D01*
X0098657Y0060170D01*
X0098543Y0060069D01*
X0098425Y0059970D01*
X0098306Y0059874D01*
X0098184Y0059781D01*
X0098059Y0059692D01*
X0097932Y0059605D01*
X0097803Y0059523D01*
X0097672Y0059443D01*
X0097539Y0059367D01*
X0097404Y0059294D01*
X0097267Y0059225D01*
X0097128Y0059160D01*
X0096988Y0059098D01*
X0096846Y0059040D01*
X0096703Y0058985D01*
X0096558Y0058934D01*
X0096412Y0058887D01*
X0096265Y0058844D01*
X0096117Y0058805D01*
X0095968Y0058769D01*
X0095818Y0058738D01*
X0095667Y0058710D01*
X0095516Y0058686D01*
X0095363Y0058666D01*
X0095211Y0058650D01*
X0095058Y0058638D01*
X0094905Y0058630D01*
X0094752Y0058626D01*
X0094598Y0058626D01*
X0094445Y0058630D01*
X0094292Y0058638D01*
X0094139Y0058650D01*
X0093987Y0058666D01*
X0093834Y0058686D01*
X0093683Y0058710D01*
X0093532Y0058738D01*
X0093382Y0058769D01*
X0093233Y0058805D01*
X0093085Y0058844D01*
X0092938Y0058887D01*
X0092792Y0058934D01*
X0092647Y0058985D01*
X0092504Y0059040D01*
X0092362Y0059098D01*
X0092222Y0059160D01*
X0092083Y0059225D01*
X0091946Y0059294D01*
X0091811Y0059367D01*
X0091678Y0059443D01*
X0091547Y0059523D01*
X0091418Y0059605D01*
X0091291Y0059692D01*
X0091166Y0059781D01*
X0091044Y0059874D01*
X0090925Y0059970D01*
X0090807Y0060069D01*
X0090693Y0060170D01*
X0090581Y0060275D01*
X0090472Y0060383D01*
X0090366Y0060494D01*
X0090262Y0060607D01*
X0090162Y0060723D01*
X0090064Y0060841D01*
X0089970Y0060962D01*
X0089879Y0061085D01*
X0089791Y0061211D01*
X0089707Y0061339D01*
X0089625Y0061469D01*
X0089548Y0061601D01*
X0089473Y0061735D01*
X0089402Y0061871D01*
X0089335Y0062009D01*
X0089271Y0062149D01*
X0089211Y0062290D01*
X0089155Y0062432D01*
X0089102Y0062576D01*
X0089053Y0062722D01*
X0089008Y0062868D01*
X0088967Y0063016D01*
X0088930Y0063164D01*
X0088896Y0063314D01*
X0088866Y0063465D01*
X0088841Y0063616D01*
X0088819Y0063767D01*
X0088801Y0063920D01*
X0088787Y0064072D01*
X0088777Y0064225D01*
X0088771Y0064379D01*
X0088769Y0064532D01*
X0087594Y0213740D02*
X0087596Y0213893D01*
X0087602Y0214047D01*
X0087612Y0214200D01*
X0087626Y0214352D01*
X0087644Y0214505D01*
X0087666Y0214656D01*
X0087691Y0214807D01*
X0087721Y0214958D01*
X0087755Y0215108D01*
X0087792Y0215256D01*
X0087833Y0215404D01*
X0087878Y0215550D01*
X0087927Y0215696D01*
X0087980Y0215840D01*
X0088036Y0215982D01*
X0088096Y0216123D01*
X0088160Y0216263D01*
X0088227Y0216401D01*
X0088298Y0216537D01*
X0088373Y0216671D01*
X0088450Y0216803D01*
X0088532Y0216933D01*
X0088616Y0217061D01*
X0088704Y0217187D01*
X0088795Y0217310D01*
X0088889Y0217431D01*
X0088987Y0217549D01*
X0089087Y0217665D01*
X0089191Y0217778D01*
X0089297Y0217889D01*
X0089406Y0217997D01*
X0089518Y0218102D01*
X0089632Y0218203D01*
X0089750Y0218302D01*
X0089869Y0218398D01*
X0089991Y0218491D01*
X0090116Y0218580D01*
X0090243Y0218667D01*
X0090372Y0218749D01*
X0090503Y0218829D01*
X0090636Y0218905D01*
X0090771Y0218978D01*
X0090908Y0219047D01*
X0091047Y0219112D01*
X0091187Y0219174D01*
X0091329Y0219232D01*
X0091472Y0219287D01*
X0091617Y0219338D01*
X0091763Y0219385D01*
X0091910Y0219428D01*
X0092058Y0219467D01*
X0092207Y0219503D01*
X0092357Y0219534D01*
X0092508Y0219562D01*
X0092659Y0219586D01*
X0092812Y0219606D01*
X0092964Y0219622D01*
X0093117Y0219634D01*
X0093270Y0219642D01*
X0093423Y0219646D01*
X0093577Y0219646D01*
X0093730Y0219642D01*
X0093883Y0219634D01*
X0094036Y0219622D01*
X0094188Y0219606D01*
X0094341Y0219586D01*
X0094492Y0219562D01*
X0094643Y0219534D01*
X0094793Y0219503D01*
X0094942Y0219467D01*
X0095090Y0219428D01*
X0095237Y0219385D01*
X0095383Y0219338D01*
X0095528Y0219287D01*
X0095671Y0219232D01*
X0095813Y0219174D01*
X0095953Y0219112D01*
X0096092Y0219047D01*
X0096229Y0218978D01*
X0096364Y0218905D01*
X0096497Y0218829D01*
X0096628Y0218749D01*
X0096757Y0218667D01*
X0096884Y0218580D01*
X0097009Y0218491D01*
X0097131Y0218398D01*
X0097250Y0218302D01*
X0097368Y0218203D01*
X0097482Y0218102D01*
X0097594Y0217997D01*
X0097703Y0217889D01*
X0097809Y0217778D01*
X0097913Y0217665D01*
X0098013Y0217549D01*
X0098111Y0217431D01*
X0098205Y0217310D01*
X0098296Y0217187D01*
X0098384Y0217061D01*
X0098468Y0216933D01*
X0098550Y0216803D01*
X0098627Y0216671D01*
X0098702Y0216537D01*
X0098773Y0216401D01*
X0098840Y0216263D01*
X0098904Y0216123D01*
X0098964Y0215982D01*
X0099020Y0215840D01*
X0099073Y0215696D01*
X0099122Y0215550D01*
X0099167Y0215404D01*
X0099208Y0215256D01*
X0099245Y0215108D01*
X0099279Y0214958D01*
X0099309Y0214807D01*
X0099334Y0214656D01*
X0099356Y0214505D01*
X0099374Y0214352D01*
X0099388Y0214200D01*
X0099398Y0214047D01*
X0099404Y0213893D01*
X0099406Y0213740D01*
X0099404Y0213587D01*
X0099398Y0213433D01*
X0099388Y0213280D01*
X0099374Y0213128D01*
X0099356Y0212975D01*
X0099334Y0212824D01*
X0099309Y0212673D01*
X0099279Y0212522D01*
X0099245Y0212372D01*
X0099208Y0212224D01*
X0099167Y0212076D01*
X0099122Y0211930D01*
X0099073Y0211784D01*
X0099020Y0211640D01*
X0098964Y0211498D01*
X0098904Y0211357D01*
X0098840Y0211217D01*
X0098773Y0211079D01*
X0098702Y0210943D01*
X0098627Y0210809D01*
X0098550Y0210677D01*
X0098468Y0210547D01*
X0098384Y0210419D01*
X0098296Y0210293D01*
X0098205Y0210170D01*
X0098111Y0210049D01*
X0098013Y0209931D01*
X0097913Y0209815D01*
X0097809Y0209702D01*
X0097703Y0209591D01*
X0097594Y0209483D01*
X0097482Y0209378D01*
X0097368Y0209277D01*
X0097250Y0209178D01*
X0097131Y0209082D01*
X0097009Y0208989D01*
X0096884Y0208900D01*
X0096757Y0208813D01*
X0096628Y0208731D01*
X0096497Y0208651D01*
X0096364Y0208575D01*
X0096229Y0208502D01*
X0096092Y0208433D01*
X0095953Y0208368D01*
X0095813Y0208306D01*
X0095671Y0208248D01*
X0095528Y0208193D01*
X0095383Y0208142D01*
X0095237Y0208095D01*
X0095090Y0208052D01*
X0094942Y0208013D01*
X0094793Y0207977D01*
X0094643Y0207946D01*
X0094492Y0207918D01*
X0094341Y0207894D01*
X0094188Y0207874D01*
X0094036Y0207858D01*
X0093883Y0207846D01*
X0093730Y0207838D01*
X0093577Y0207834D01*
X0093423Y0207834D01*
X0093270Y0207838D01*
X0093117Y0207846D01*
X0092964Y0207858D01*
X0092812Y0207874D01*
X0092659Y0207894D01*
X0092508Y0207918D01*
X0092357Y0207946D01*
X0092207Y0207977D01*
X0092058Y0208013D01*
X0091910Y0208052D01*
X0091763Y0208095D01*
X0091617Y0208142D01*
X0091472Y0208193D01*
X0091329Y0208248D01*
X0091187Y0208306D01*
X0091047Y0208368D01*
X0090908Y0208433D01*
X0090771Y0208502D01*
X0090636Y0208575D01*
X0090503Y0208651D01*
X0090372Y0208731D01*
X0090243Y0208813D01*
X0090116Y0208900D01*
X0089991Y0208989D01*
X0089869Y0209082D01*
X0089750Y0209178D01*
X0089632Y0209277D01*
X0089518Y0209378D01*
X0089406Y0209483D01*
X0089297Y0209591D01*
X0089191Y0209702D01*
X0089087Y0209815D01*
X0088987Y0209931D01*
X0088889Y0210049D01*
X0088795Y0210170D01*
X0088704Y0210293D01*
X0088616Y0210419D01*
X0088532Y0210547D01*
X0088450Y0210677D01*
X0088373Y0210809D01*
X0088298Y0210943D01*
X0088227Y0211079D01*
X0088160Y0211217D01*
X0088096Y0211357D01*
X0088036Y0211498D01*
X0087980Y0211640D01*
X0087927Y0211784D01*
X0087878Y0211930D01*
X0087833Y0212076D01*
X0087792Y0212224D01*
X0087755Y0212372D01*
X0087721Y0212522D01*
X0087691Y0212673D01*
X0087666Y0212824D01*
X0087644Y0212975D01*
X0087626Y0213128D01*
X0087612Y0213280D01*
X0087602Y0213433D01*
X0087596Y0213587D01*
X0087594Y0213740D01*
X0120594Y0213740D02*
X0120596Y0213893D01*
X0120602Y0214047D01*
X0120612Y0214200D01*
X0120626Y0214352D01*
X0120644Y0214505D01*
X0120666Y0214656D01*
X0120691Y0214807D01*
X0120721Y0214958D01*
X0120755Y0215108D01*
X0120792Y0215256D01*
X0120833Y0215404D01*
X0120878Y0215550D01*
X0120927Y0215696D01*
X0120980Y0215840D01*
X0121036Y0215982D01*
X0121096Y0216123D01*
X0121160Y0216263D01*
X0121227Y0216401D01*
X0121298Y0216537D01*
X0121373Y0216671D01*
X0121450Y0216803D01*
X0121532Y0216933D01*
X0121616Y0217061D01*
X0121704Y0217187D01*
X0121795Y0217310D01*
X0121889Y0217431D01*
X0121987Y0217549D01*
X0122087Y0217665D01*
X0122191Y0217778D01*
X0122297Y0217889D01*
X0122406Y0217997D01*
X0122518Y0218102D01*
X0122632Y0218203D01*
X0122750Y0218302D01*
X0122869Y0218398D01*
X0122991Y0218491D01*
X0123116Y0218580D01*
X0123243Y0218667D01*
X0123372Y0218749D01*
X0123503Y0218829D01*
X0123636Y0218905D01*
X0123771Y0218978D01*
X0123908Y0219047D01*
X0124047Y0219112D01*
X0124187Y0219174D01*
X0124329Y0219232D01*
X0124472Y0219287D01*
X0124617Y0219338D01*
X0124763Y0219385D01*
X0124910Y0219428D01*
X0125058Y0219467D01*
X0125207Y0219503D01*
X0125357Y0219534D01*
X0125508Y0219562D01*
X0125659Y0219586D01*
X0125812Y0219606D01*
X0125964Y0219622D01*
X0126117Y0219634D01*
X0126270Y0219642D01*
X0126423Y0219646D01*
X0126577Y0219646D01*
X0126730Y0219642D01*
X0126883Y0219634D01*
X0127036Y0219622D01*
X0127188Y0219606D01*
X0127341Y0219586D01*
X0127492Y0219562D01*
X0127643Y0219534D01*
X0127793Y0219503D01*
X0127942Y0219467D01*
X0128090Y0219428D01*
X0128237Y0219385D01*
X0128383Y0219338D01*
X0128528Y0219287D01*
X0128671Y0219232D01*
X0128813Y0219174D01*
X0128953Y0219112D01*
X0129092Y0219047D01*
X0129229Y0218978D01*
X0129364Y0218905D01*
X0129497Y0218829D01*
X0129628Y0218749D01*
X0129757Y0218667D01*
X0129884Y0218580D01*
X0130009Y0218491D01*
X0130131Y0218398D01*
X0130250Y0218302D01*
X0130368Y0218203D01*
X0130482Y0218102D01*
X0130594Y0217997D01*
X0130703Y0217889D01*
X0130809Y0217778D01*
X0130913Y0217665D01*
X0131013Y0217549D01*
X0131111Y0217431D01*
X0131205Y0217310D01*
X0131296Y0217187D01*
X0131384Y0217061D01*
X0131468Y0216933D01*
X0131550Y0216803D01*
X0131627Y0216671D01*
X0131702Y0216537D01*
X0131773Y0216401D01*
X0131840Y0216263D01*
X0131904Y0216123D01*
X0131964Y0215982D01*
X0132020Y0215840D01*
X0132073Y0215696D01*
X0132122Y0215550D01*
X0132167Y0215404D01*
X0132208Y0215256D01*
X0132245Y0215108D01*
X0132279Y0214958D01*
X0132309Y0214807D01*
X0132334Y0214656D01*
X0132356Y0214505D01*
X0132374Y0214352D01*
X0132388Y0214200D01*
X0132398Y0214047D01*
X0132404Y0213893D01*
X0132406Y0213740D01*
X0132404Y0213587D01*
X0132398Y0213433D01*
X0132388Y0213280D01*
X0132374Y0213128D01*
X0132356Y0212975D01*
X0132334Y0212824D01*
X0132309Y0212673D01*
X0132279Y0212522D01*
X0132245Y0212372D01*
X0132208Y0212224D01*
X0132167Y0212076D01*
X0132122Y0211930D01*
X0132073Y0211784D01*
X0132020Y0211640D01*
X0131964Y0211498D01*
X0131904Y0211357D01*
X0131840Y0211217D01*
X0131773Y0211079D01*
X0131702Y0210943D01*
X0131627Y0210809D01*
X0131550Y0210677D01*
X0131468Y0210547D01*
X0131384Y0210419D01*
X0131296Y0210293D01*
X0131205Y0210170D01*
X0131111Y0210049D01*
X0131013Y0209931D01*
X0130913Y0209815D01*
X0130809Y0209702D01*
X0130703Y0209591D01*
X0130594Y0209483D01*
X0130482Y0209378D01*
X0130368Y0209277D01*
X0130250Y0209178D01*
X0130131Y0209082D01*
X0130009Y0208989D01*
X0129884Y0208900D01*
X0129757Y0208813D01*
X0129628Y0208731D01*
X0129497Y0208651D01*
X0129364Y0208575D01*
X0129229Y0208502D01*
X0129092Y0208433D01*
X0128953Y0208368D01*
X0128813Y0208306D01*
X0128671Y0208248D01*
X0128528Y0208193D01*
X0128383Y0208142D01*
X0128237Y0208095D01*
X0128090Y0208052D01*
X0127942Y0208013D01*
X0127793Y0207977D01*
X0127643Y0207946D01*
X0127492Y0207918D01*
X0127341Y0207894D01*
X0127188Y0207874D01*
X0127036Y0207858D01*
X0126883Y0207846D01*
X0126730Y0207838D01*
X0126577Y0207834D01*
X0126423Y0207834D01*
X0126270Y0207838D01*
X0126117Y0207846D01*
X0125964Y0207858D01*
X0125812Y0207874D01*
X0125659Y0207894D01*
X0125508Y0207918D01*
X0125357Y0207946D01*
X0125207Y0207977D01*
X0125058Y0208013D01*
X0124910Y0208052D01*
X0124763Y0208095D01*
X0124617Y0208142D01*
X0124472Y0208193D01*
X0124329Y0208248D01*
X0124187Y0208306D01*
X0124047Y0208368D01*
X0123908Y0208433D01*
X0123771Y0208502D01*
X0123636Y0208575D01*
X0123503Y0208651D01*
X0123372Y0208731D01*
X0123243Y0208813D01*
X0123116Y0208900D01*
X0122991Y0208989D01*
X0122869Y0209082D01*
X0122750Y0209178D01*
X0122632Y0209277D01*
X0122518Y0209378D01*
X0122406Y0209483D01*
X0122297Y0209591D01*
X0122191Y0209702D01*
X0122087Y0209815D01*
X0121987Y0209931D01*
X0121889Y0210049D01*
X0121795Y0210170D01*
X0121704Y0210293D01*
X0121616Y0210419D01*
X0121532Y0210547D01*
X0121450Y0210677D01*
X0121373Y0210809D01*
X0121298Y0210943D01*
X0121227Y0211079D01*
X0121160Y0211217D01*
X0121096Y0211357D01*
X0121036Y0211498D01*
X0120980Y0211640D01*
X0120927Y0211784D01*
X0120878Y0211930D01*
X0120833Y0212076D01*
X0120792Y0212224D01*
X0120755Y0212372D01*
X0120721Y0212522D01*
X0120691Y0212673D01*
X0120666Y0212824D01*
X0120644Y0212975D01*
X0120626Y0213128D01*
X0120612Y0213280D01*
X0120602Y0213433D01*
X0120596Y0213587D01*
X0120594Y0213740D01*
X0147594Y0213740D02*
X0147596Y0213893D01*
X0147602Y0214047D01*
X0147612Y0214200D01*
X0147626Y0214352D01*
X0147644Y0214505D01*
X0147666Y0214656D01*
X0147691Y0214807D01*
X0147721Y0214958D01*
X0147755Y0215108D01*
X0147792Y0215256D01*
X0147833Y0215404D01*
X0147878Y0215550D01*
X0147927Y0215696D01*
X0147980Y0215840D01*
X0148036Y0215982D01*
X0148096Y0216123D01*
X0148160Y0216263D01*
X0148227Y0216401D01*
X0148298Y0216537D01*
X0148373Y0216671D01*
X0148450Y0216803D01*
X0148532Y0216933D01*
X0148616Y0217061D01*
X0148704Y0217187D01*
X0148795Y0217310D01*
X0148889Y0217431D01*
X0148987Y0217549D01*
X0149087Y0217665D01*
X0149191Y0217778D01*
X0149297Y0217889D01*
X0149406Y0217997D01*
X0149518Y0218102D01*
X0149632Y0218203D01*
X0149750Y0218302D01*
X0149869Y0218398D01*
X0149991Y0218491D01*
X0150116Y0218580D01*
X0150243Y0218667D01*
X0150372Y0218749D01*
X0150503Y0218829D01*
X0150636Y0218905D01*
X0150771Y0218978D01*
X0150908Y0219047D01*
X0151047Y0219112D01*
X0151187Y0219174D01*
X0151329Y0219232D01*
X0151472Y0219287D01*
X0151617Y0219338D01*
X0151763Y0219385D01*
X0151910Y0219428D01*
X0152058Y0219467D01*
X0152207Y0219503D01*
X0152357Y0219534D01*
X0152508Y0219562D01*
X0152659Y0219586D01*
X0152812Y0219606D01*
X0152964Y0219622D01*
X0153117Y0219634D01*
X0153270Y0219642D01*
X0153423Y0219646D01*
X0153577Y0219646D01*
X0153730Y0219642D01*
X0153883Y0219634D01*
X0154036Y0219622D01*
X0154188Y0219606D01*
X0154341Y0219586D01*
X0154492Y0219562D01*
X0154643Y0219534D01*
X0154793Y0219503D01*
X0154942Y0219467D01*
X0155090Y0219428D01*
X0155237Y0219385D01*
X0155383Y0219338D01*
X0155528Y0219287D01*
X0155671Y0219232D01*
X0155813Y0219174D01*
X0155953Y0219112D01*
X0156092Y0219047D01*
X0156229Y0218978D01*
X0156364Y0218905D01*
X0156497Y0218829D01*
X0156628Y0218749D01*
X0156757Y0218667D01*
X0156884Y0218580D01*
X0157009Y0218491D01*
X0157131Y0218398D01*
X0157250Y0218302D01*
X0157368Y0218203D01*
X0157482Y0218102D01*
X0157594Y0217997D01*
X0157703Y0217889D01*
X0157809Y0217778D01*
X0157913Y0217665D01*
X0158013Y0217549D01*
X0158111Y0217431D01*
X0158205Y0217310D01*
X0158296Y0217187D01*
X0158384Y0217061D01*
X0158468Y0216933D01*
X0158550Y0216803D01*
X0158627Y0216671D01*
X0158702Y0216537D01*
X0158773Y0216401D01*
X0158840Y0216263D01*
X0158904Y0216123D01*
X0158964Y0215982D01*
X0159020Y0215840D01*
X0159073Y0215696D01*
X0159122Y0215550D01*
X0159167Y0215404D01*
X0159208Y0215256D01*
X0159245Y0215108D01*
X0159279Y0214958D01*
X0159309Y0214807D01*
X0159334Y0214656D01*
X0159356Y0214505D01*
X0159374Y0214352D01*
X0159388Y0214200D01*
X0159398Y0214047D01*
X0159404Y0213893D01*
X0159406Y0213740D01*
X0159404Y0213587D01*
X0159398Y0213433D01*
X0159388Y0213280D01*
X0159374Y0213128D01*
X0159356Y0212975D01*
X0159334Y0212824D01*
X0159309Y0212673D01*
X0159279Y0212522D01*
X0159245Y0212372D01*
X0159208Y0212224D01*
X0159167Y0212076D01*
X0159122Y0211930D01*
X0159073Y0211784D01*
X0159020Y0211640D01*
X0158964Y0211498D01*
X0158904Y0211357D01*
X0158840Y0211217D01*
X0158773Y0211079D01*
X0158702Y0210943D01*
X0158627Y0210809D01*
X0158550Y0210677D01*
X0158468Y0210547D01*
X0158384Y0210419D01*
X0158296Y0210293D01*
X0158205Y0210170D01*
X0158111Y0210049D01*
X0158013Y0209931D01*
X0157913Y0209815D01*
X0157809Y0209702D01*
X0157703Y0209591D01*
X0157594Y0209483D01*
X0157482Y0209378D01*
X0157368Y0209277D01*
X0157250Y0209178D01*
X0157131Y0209082D01*
X0157009Y0208989D01*
X0156884Y0208900D01*
X0156757Y0208813D01*
X0156628Y0208731D01*
X0156497Y0208651D01*
X0156364Y0208575D01*
X0156229Y0208502D01*
X0156092Y0208433D01*
X0155953Y0208368D01*
X0155813Y0208306D01*
X0155671Y0208248D01*
X0155528Y0208193D01*
X0155383Y0208142D01*
X0155237Y0208095D01*
X0155090Y0208052D01*
X0154942Y0208013D01*
X0154793Y0207977D01*
X0154643Y0207946D01*
X0154492Y0207918D01*
X0154341Y0207894D01*
X0154188Y0207874D01*
X0154036Y0207858D01*
X0153883Y0207846D01*
X0153730Y0207838D01*
X0153577Y0207834D01*
X0153423Y0207834D01*
X0153270Y0207838D01*
X0153117Y0207846D01*
X0152964Y0207858D01*
X0152812Y0207874D01*
X0152659Y0207894D01*
X0152508Y0207918D01*
X0152357Y0207946D01*
X0152207Y0207977D01*
X0152058Y0208013D01*
X0151910Y0208052D01*
X0151763Y0208095D01*
X0151617Y0208142D01*
X0151472Y0208193D01*
X0151329Y0208248D01*
X0151187Y0208306D01*
X0151047Y0208368D01*
X0150908Y0208433D01*
X0150771Y0208502D01*
X0150636Y0208575D01*
X0150503Y0208651D01*
X0150372Y0208731D01*
X0150243Y0208813D01*
X0150116Y0208900D01*
X0149991Y0208989D01*
X0149869Y0209082D01*
X0149750Y0209178D01*
X0149632Y0209277D01*
X0149518Y0209378D01*
X0149406Y0209483D01*
X0149297Y0209591D01*
X0149191Y0209702D01*
X0149087Y0209815D01*
X0148987Y0209931D01*
X0148889Y0210049D01*
X0148795Y0210170D01*
X0148704Y0210293D01*
X0148616Y0210419D01*
X0148532Y0210547D01*
X0148450Y0210677D01*
X0148373Y0210809D01*
X0148298Y0210943D01*
X0148227Y0211079D01*
X0148160Y0211217D01*
X0148096Y0211357D01*
X0148036Y0211498D01*
X0147980Y0211640D01*
X0147927Y0211784D01*
X0147878Y0211930D01*
X0147833Y0212076D01*
X0147792Y0212224D01*
X0147755Y0212372D01*
X0147721Y0212522D01*
X0147691Y0212673D01*
X0147666Y0212824D01*
X0147644Y0212975D01*
X0147626Y0213128D01*
X0147612Y0213280D01*
X0147602Y0213433D01*
X0147596Y0213587D01*
X0147594Y0213740D01*
X0180594Y0213740D02*
X0180596Y0213893D01*
X0180602Y0214047D01*
X0180612Y0214200D01*
X0180626Y0214352D01*
X0180644Y0214505D01*
X0180666Y0214656D01*
X0180691Y0214807D01*
X0180721Y0214958D01*
X0180755Y0215108D01*
X0180792Y0215256D01*
X0180833Y0215404D01*
X0180878Y0215550D01*
X0180927Y0215696D01*
X0180980Y0215840D01*
X0181036Y0215982D01*
X0181096Y0216123D01*
X0181160Y0216263D01*
X0181227Y0216401D01*
X0181298Y0216537D01*
X0181373Y0216671D01*
X0181450Y0216803D01*
X0181532Y0216933D01*
X0181616Y0217061D01*
X0181704Y0217187D01*
X0181795Y0217310D01*
X0181889Y0217431D01*
X0181987Y0217549D01*
X0182087Y0217665D01*
X0182191Y0217778D01*
X0182297Y0217889D01*
X0182406Y0217997D01*
X0182518Y0218102D01*
X0182632Y0218203D01*
X0182750Y0218302D01*
X0182869Y0218398D01*
X0182991Y0218491D01*
X0183116Y0218580D01*
X0183243Y0218667D01*
X0183372Y0218749D01*
X0183503Y0218829D01*
X0183636Y0218905D01*
X0183771Y0218978D01*
X0183908Y0219047D01*
X0184047Y0219112D01*
X0184187Y0219174D01*
X0184329Y0219232D01*
X0184472Y0219287D01*
X0184617Y0219338D01*
X0184763Y0219385D01*
X0184910Y0219428D01*
X0185058Y0219467D01*
X0185207Y0219503D01*
X0185357Y0219534D01*
X0185508Y0219562D01*
X0185659Y0219586D01*
X0185812Y0219606D01*
X0185964Y0219622D01*
X0186117Y0219634D01*
X0186270Y0219642D01*
X0186423Y0219646D01*
X0186577Y0219646D01*
X0186730Y0219642D01*
X0186883Y0219634D01*
X0187036Y0219622D01*
X0187188Y0219606D01*
X0187341Y0219586D01*
X0187492Y0219562D01*
X0187643Y0219534D01*
X0187793Y0219503D01*
X0187942Y0219467D01*
X0188090Y0219428D01*
X0188237Y0219385D01*
X0188383Y0219338D01*
X0188528Y0219287D01*
X0188671Y0219232D01*
X0188813Y0219174D01*
X0188953Y0219112D01*
X0189092Y0219047D01*
X0189229Y0218978D01*
X0189364Y0218905D01*
X0189497Y0218829D01*
X0189628Y0218749D01*
X0189757Y0218667D01*
X0189884Y0218580D01*
X0190009Y0218491D01*
X0190131Y0218398D01*
X0190250Y0218302D01*
X0190368Y0218203D01*
X0190482Y0218102D01*
X0190594Y0217997D01*
X0190703Y0217889D01*
X0190809Y0217778D01*
X0190913Y0217665D01*
X0191013Y0217549D01*
X0191111Y0217431D01*
X0191205Y0217310D01*
X0191296Y0217187D01*
X0191384Y0217061D01*
X0191468Y0216933D01*
X0191550Y0216803D01*
X0191627Y0216671D01*
X0191702Y0216537D01*
X0191773Y0216401D01*
X0191840Y0216263D01*
X0191904Y0216123D01*
X0191964Y0215982D01*
X0192020Y0215840D01*
X0192073Y0215696D01*
X0192122Y0215550D01*
X0192167Y0215404D01*
X0192208Y0215256D01*
X0192245Y0215108D01*
X0192279Y0214958D01*
X0192309Y0214807D01*
X0192334Y0214656D01*
X0192356Y0214505D01*
X0192374Y0214352D01*
X0192388Y0214200D01*
X0192398Y0214047D01*
X0192404Y0213893D01*
X0192406Y0213740D01*
X0192404Y0213587D01*
X0192398Y0213433D01*
X0192388Y0213280D01*
X0192374Y0213128D01*
X0192356Y0212975D01*
X0192334Y0212824D01*
X0192309Y0212673D01*
X0192279Y0212522D01*
X0192245Y0212372D01*
X0192208Y0212224D01*
X0192167Y0212076D01*
X0192122Y0211930D01*
X0192073Y0211784D01*
X0192020Y0211640D01*
X0191964Y0211498D01*
X0191904Y0211357D01*
X0191840Y0211217D01*
X0191773Y0211079D01*
X0191702Y0210943D01*
X0191627Y0210809D01*
X0191550Y0210677D01*
X0191468Y0210547D01*
X0191384Y0210419D01*
X0191296Y0210293D01*
X0191205Y0210170D01*
X0191111Y0210049D01*
X0191013Y0209931D01*
X0190913Y0209815D01*
X0190809Y0209702D01*
X0190703Y0209591D01*
X0190594Y0209483D01*
X0190482Y0209378D01*
X0190368Y0209277D01*
X0190250Y0209178D01*
X0190131Y0209082D01*
X0190009Y0208989D01*
X0189884Y0208900D01*
X0189757Y0208813D01*
X0189628Y0208731D01*
X0189497Y0208651D01*
X0189364Y0208575D01*
X0189229Y0208502D01*
X0189092Y0208433D01*
X0188953Y0208368D01*
X0188813Y0208306D01*
X0188671Y0208248D01*
X0188528Y0208193D01*
X0188383Y0208142D01*
X0188237Y0208095D01*
X0188090Y0208052D01*
X0187942Y0208013D01*
X0187793Y0207977D01*
X0187643Y0207946D01*
X0187492Y0207918D01*
X0187341Y0207894D01*
X0187188Y0207874D01*
X0187036Y0207858D01*
X0186883Y0207846D01*
X0186730Y0207838D01*
X0186577Y0207834D01*
X0186423Y0207834D01*
X0186270Y0207838D01*
X0186117Y0207846D01*
X0185964Y0207858D01*
X0185812Y0207874D01*
X0185659Y0207894D01*
X0185508Y0207918D01*
X0185357Y0207946D01*
X0185207Y0207977D01*
X0185058Y0208013D01*
X0184910Y0208052D01*
X0184763Y0208095D01*
X0184617Y0208142D01*
X0184472Y0208193D01*
X0184329Y0208248D01*
X0184187Y0208306D01*
X0184047Y0208368D01*
X0183908Y0208433D01*
X0183771Y0208502D01*
X0183636Y0208575D01*
X0183503Y0208651D01*
X0183372Y0208731D01*
X0183243Y0208813D01*
X0183116Y0208900D01*
X0182991Y0208989D01*
X0182869Y0209082D01*
X0182750Y0209178D01*
X0182632Y0209277D01*
X0182518Y0209378D01*
X0182406Y0209483D01*
X0182297Y0209591D01*
X0182191Y0209702D01*
X0182087Y0209815D01*
X0181987Y0209931D01*
X0181889Y0210049D01*
X0181795Y0210170D01*
X0181704Y0210293D01*
X0181616Y0210419D01*
X0181532Y0210547D01*
X0181450Y0210677D01*
X0181373Y0210809D01*
X0181298Y0210943D01*
X0181227Y0211079D01*
X0181160Y0211217D01*
X0181096Y0211357D01*
X0181036Y0211498D01*
X0180980Y0211640D01*
X0180927Y0211784D01*
X0180878Y0211930D01*
X0180833Y0212076D01*
X0180792Y0212224D01*
X0180755Y0212372D01*
X0180721Y0212522D01*
X0180691Y0212673D01*
X0180666Y0212824D01*
X0180644Y0212975D01*
X0180626Y0213128D01*
X0180612Y0213280D01*
X0180602Y0213433D01*
X0180596Y0213587D01*
X0180594Y0213740D01*
D11*
X0178183Y0130718D02*
X0177249Y0130718D01*
X0177249Y0129784D01*
X0176315Y0128850D02*
X0178183Y0128850D01*
X0178650Y0129317D01*
X0178650Y0130251D01*
X0178183Y0130718D01*
X0176315Y0130718D02*
X0175848Y0130251D01*
X0175848Y0129317D01*
X0176315Y0128850D01*
X0177565Y0120718D02*
X0177098Y0120251D01*
X0177098Y0118850D01*
X0179900Y0118850D01*
X0178966Y0118850D02*
X0178966Y0120251D01*
X0178499Y0120718D01*
X0177565Y0120718D01*
X0178966Y0119784D02*
X0179900Y0120718D01*
X0178808Y0112493D02*
X0176940Y0112493D01*
X0176473Y0112026D01*
X0176473Y0110625D01*
X0179275Y0110625D01*
X0179275Y0112026D01*
X0178808Y0112493D01*
X0179275Y0109731D02*
X0176473Y0109731D01*
X0176473Y0107862D02*
X0179275Y0109731D01*
X0179275Y0107862D02*
X0176473Y0107862D01*
X0176940Y0106968D02*
X0176473Y0106501D01*
X0176473Y0105567D01*
X0176940Y0105100D01*
X0178808Y0105100D01*
X0179275Y0105567D01*
X0179275Y0106501D01*
X0178808Y0106968D01*
X0177874Y0106968D01*
X0177874Y0106034D01*
X0033025Y0208534D02*
X0030223Y0208534D01*
X0030223Y0207600D02*
X0030223Y0209468D01*
X0030223Y0210362D02*
X0033025Y0212231D01*
X0033025Y0210362D02*
X0030223Y0212231D01*
X0030223Y0216975D02*
X0030223Y0218376D01*
X0030690Y0218843D01*
X0031624Y0218843D01*
X0032091Y0218376D01*
X0032091Y0216975D01*
X0033025Y0216975D02*
X0030223Y0216975D01*
X0032091Y0217909D02*
X0033025Y0218843D01*
X0033025Y0219737D02*
X0030223Y0221606D01*
X0030223Y0219737D02*
X0033025Y0221606D01*
X0023025Y0033743D02*
X0023025Y0031875D01*
X0020223Y0031875D01*
X0020690Y0030981D02*
X0020223Y0030514D01*
X0020223Y0029579D01*
X0020690Y0029112D01*
X0022558Y0029112D01*
X0023025Y0029579D01*
X0023025Y0030514D01*
X0022558Y0030981D01*
X0022558Y0028218D02*
X0023025Y0027751D01*
X0023025Y0026817D01*
X0022558Y0026350D01*
X0021624Y0026817D02*
X0021624Y0027751D01*
X0022091Y0028218D01*
X0022558Y0028218D01*
X0021624Y0026817D02*
X0021157Y0026350D01*
X0020690Y0026350D01*
X0020223Y0026817D01*
X0020223Y0027751D01*
X0020690Y0028218D01*
X0021157Y0023118D02*
X0023025Y0023118D01*
X0021624Y0023118D02*
X0021624Y0021250D01*
X0021157Y0021250D02*
X0020223Y0022184D01*
X0021157Y0023118D01*
X0021157Y0021250D02*
X0023025Y0021250D01*
X0022558Y0020356D02*
X0020690Y0020356D01*
X0020223Y0019889D01*
X0020223Y0018487D01*
X0023025Y0018487D01*
X0023025Y0019889D01*
X0022558Y0020356D01*
X0022558Y0017593D02*
X0023025Y0017126D01*
X0023025Y0016192D01*
X0022558Y0015725D01*
X0021624Y0016192D02*
X0021624Y0017126D01*
X0022091Y0017593D01*
X0022558Y0017593D01*
X0021624Y0016192D02*
X0021157Y0015725D01*
X0020690Y0015725D01*
X0020223Y0016192D01*
X0020223Y0017126D01*
X0020690Y0017593D01*
D12*
X0037750Y0021250D02*
X0038750Y0021250D01*
X0038750Y0026250D01*
X0058750Y0026250D01*
X0058750Y0021250D01*
X0059750Y0021250D01*
X0058750Y0021250D02*
X0058750Y0016250D01*
X0038750Y0016250D01*
X0038750Y0021250D01*
X0038750Y0015625D02*
X0038750Y0010625D01*
X0037750Y0010625D01*
X0038750Y0010625D02*
X0038750Y0005625D01*
X0058750Y0005625D01*
X0058750Y0010625D01*
X0059750Y0010625D01*
X0058750Y0010625D02*
X0058750Y0015625D01*
X0038750Y0015625D01*
X0217500Y0005000D02*
X0217500Y0230000D01*
D13*
X0208125Y0230000D01*
X0198125Y0240000D01*
X0064375Y0240000D01*
X0054375Y0230000D01*
X0010000Y0230000D01*
X0005000Y0225000D01*
X0005000Y0015000D01*
X0015000Y0005000D01*
X0216875Y0005000D01*
D14*
X0153537Y0031934D02*
X0153537Y0033535D01*
X0153537Y0031934D02*
X0153003Y0031400D01*
X0152470Y0031934D01*
X0151936Y0031400D01*
X0151402Y0031934D01*
X0151402Y0033535D01*
X0150314Y0033001D02*
X0150314Y0031400D01*
X0148713Y0031400D01*
X0148179Y0031934D01*
X0148713Y0032468D01*
X0150314Y0032468D01*
X0150314Y0033001D02*
X0149781Y0033535D01*
X0148713Y0033535D01*
X0147092Y0033001D02*
X0147092Y0031400D01*
X0147092Y0033001D02*
X0146558Y0033535D01*
X0145490Y0033535D01*
X0144956Y0033001D01*
X0143869Y0032468D02*
X0143869Y0031934D01*
X0143335Y0031400D01*
X0142268Y0031400D01*
X0141734Y0031934D01*
X0142268Y0033001D02*
X0143335Y0033001D01*
X0143869Y0032468D01*
X0144956Y0031400D02*
X0144956Y0034603D01*
X0143869Y0034069D02*
X0143335Y0034603D01*
X0142268Y0034603D01*
X0141734Y0034069D01*
X0141734Y0033535D01*
X0142268Y0033001D01*
X0140646Y0033001D02*
X0138511Y0033001D01*
X0137423Y0033001D02*
X0137423Y0031400D01*
X0135822Y0031400D01*
X0135288Y0031934D01*
X0135822Y0032468D01*
X0137423Y0032468D01*
X0137423Y0033001D02*
X0136890Y0033535D01*
X0135822Y0033535D01*
X0134201Y0033001D02*
X0134201Y0031400D01*
X0134201Y0033001D02*
X0133667Y0033535D01*
X0132065Y0033535D01*
X0132065Y0031400D01*
X0130978Y0031400D02*
X0130978Y0033001D01*
X0130444Y0033535D01*
X0129377Y0033535D01*
X0129377Y0032468D02*
X0130978Y0032468D01*
X0130978Y0031400D02*
X0129377Y0031400D01*
X0128843Y0031934D01*
X0129377Y0032468D01*
X0127755Y0033535D02*
X0126154Y0033535D01*
X0125620Y0033001D01*
X0125620Y0031934D01*
X0126154Y0031400D01*
X0127755Y0031400D01*
X0124539Y0031400D02*
X0123471Y0031400D01*
X0124005Y0031400D02*
X0124005Y0033535D01*
X0123471Y0033535D01*
X0124005Y0034603D02*
X0124005Y0035137D01*
X0121857Y0034603D02*
X0121857Y0031400D01*
X0121323Y0031400D02*
X0122391Y0031400D01*
X0120242Y0031400D02*
X0119174Y0031400D01*
X0119708Y0031400D02*
X0119708Y0034603D01*
X0119174Y0034603D01*
X0117560Y0034603D02*
X0117560Y0035137D01*
X0117560Y0033535D02*
X0117560Y0031400D01*
X0117026Y0031400D02*
X0118094Y0031400D01*
X0117560Y0033535D02*
X0117026Y0033535D01*
X0115938Y0032468D02*
X0114871Y0031400D01*
X0113803Y0032468D01*
X0113803Y0034603D01*
X0113800Y0036650D02*
X0114867Y0036650D01*
X0115401Y0037184D01*
X0115401Y0037718D01*
X0114867Y0038251D01*
X0113266Y0038251D01*
X0113266Y0037184D01*
X0113800Y0036650D01*
X0112179Y0036650D02*
X0110043Y0036650D01*
X0111111Y0036650D02*
X0111111Y0039853D01*
X0110043Y0038785D01*
X0108956Y0039319D02*
X0106821Y0037184D01*
X0107354Y0036650D01*
X0108422Y0036650D01*
X0108956Y0037184D01*
X0108956Y0039319D01*
X0108422Y0039853D01*
X0107354Y0039853D01*
X0106821Y0039319D01*
X0106821Y0037184D01*
X0105733Y0036650D02*
X0103598Y0036650D01*
X0105733Y0038785D01*
X0105733Y0039319D01*
X0105199Y0039853D01*
X0104132Y0039853D01*
X0103598Y0039319D01*
X0104669Y0041900D02*
X0104135Y0042434D01*
X0104135Y0043501D01*
X0104669Y0044035D01*
X0106270Y0044035D01*
X0106270Y0045103D02*
X0106270Y0041900D01*
X0104669Y0041900D01*
X0103047Y0042968D02*
X0100912Y0042968D01*
X0100912Y0043501D02*
X0101446Y0044035D01*
X0102514Y0044035D01*
X0103047Y0043501D01*
X0103047Y0042968D01*
X0102514Y0041900D02*
X0101446Y0041900D01*
X0100912Y0042434D01*
X0100912Y0043501D01*
X0099825Y0043501D02*
X0099291Y0044035D01*
X0097689Y0044035D01*
X0097689Y0041900D01*
X0096602Y0041900D02*
X0095001Y0041900D01*
X0094467Y0042434D01*
X0094467Y0043501D01*
X0095001Y0044035D01*
X0096602Y0044035D01*
X0096602Y0041366D01*
X0096068Y0040832D01*
X0095534Y0040832D01*
X0095531Y0038785D02*
X0093930Y0038785D01*
X0093930Y0036650D01*
X0092849Y0036650D02*
X0091781Y0036650D01*
X0092315Y0036650D02*
X0092315Y0038785D01*
X0091781Y0038785D01*
X0090697Y0038785D02*
X0090163Y0038785D01*
X0089095Y0037718D01*
X0089095Y0038785D02*
X0089095Y0036650D01*
X0088008Y0037184D02*
X0087474Y0036650D01*
X0085873Y0036650D01*
X0085873Y0035582D02*
X0085873Y0038785D01*
X0087474Y0038785D01*
X0088008Y0038251D01*
X0088008Y0037184D01*
X0084785Y0037184D02*
X0084251Y0036650D01*
X0083184Y0036650D01*
X0082650Y0037184D01*
X0083184Y0038251D02*
X0084251Y0038251D01*
X0084785Y0037718D01*
X0084785Y0037184D01*
X0083184Y0038251D02*
X0082650Y0038785D01*
X0082650Y0039319D01*
X0083184Y0039853D01*
X0084251Y0039853D01*
X0084785Y0039319D01*
X0084251Y0041900D02*
X0082650Y0041900D01*
X0082650Y0045103D01*
X0084251Y0045103D01*
X0084785Y0044569D01*
X0084785Y0042434D01*
X0084251Y0041900D01*
X0085873Y0042434D02*
X0085873Y0043501D01*
X0086407Y0044035D01*
X0087474Y0044035D01*
X0088008Y0043501D01*
X0088008Y0042968D01*
X0085873Y0042968D01*
X0085873Y0042434D02*
X0086407Y0041900D01*
X0087474Y0041900D01*
X0089095Y0041900D02*
X0090697Y0041900D01*
X0091231Y0042434D01*
X0090697Y0042968D01*
X0089629Y0042968D01*
X0089095Y0043501D01*
X0089629Y0044035D01*
X0091231Y0044035D01*
X0092318Y0044035D02*
X0092852Y0044035D01*
X0092852Y0041900D01*
X0092318Y0041900D02*
X0093386Y0041900D01*
X0092315Y0040387D02*
X0092315Y0039853D01*
X0095531Y0038785D02*
X0096065Y0038251D01*
X0096065Y0036650D01*
X0097152Y0037184D02*
X0097686Y0036650D01*
X0099288Y0036650D01*
X0099288Y0036116D02*
X0099288Y0038785D01*
X0097686Y0038785D01*
X0097152Y0038251D01*
X0097152Y0037184D01*
X0098220Y0035582D02*
X0098754Y0035582D01*
X0099288Y0036116D01*
X0099298Y0034069D02*
X0099298Y0031934D01*
X0099831Y0031400D01*
X0100912Y0031400D02*
X0100912Y0034603D01*
X0101446Y0033535D02*
X0102514Y0033535D01*
X0103047Y0033001D01*
X0103047Y0031400D01*
X0104135Y0031934D02*
X0104669Y0031400D01*
X0106270Y0031400D01*
X0106270Y0033001D01*
X0105736Y0033535D01*
X0104669Y0033535D01*
X0104669Y0032468D02*
X0106270Y0032468D01*
X0107358Y0033535D02*
X0108959Y0033535D01*
X0109493Y0033001D01*
X0109493Y0031400D01*
X0107358Y0031400D02*
X0107358Y0033535D01*
X0104669Y0032468D02*
X0104135Y0031934D01*
X0101446Y0033535D02*
X0100912Y0033001D01*
X0099831Y0033535D02*
X0098764Y0033535D01*
X0097676Y0033001D02*
X0097676Y0031400D01*
X0096075Y0031400D01*
X0095541Y0031934D01*
X0096075Y0032468D01*
X0097676Y0032468D01*
X0097676Y0033001D02*
X0097142Y0033535D01*
X0096075Y0033535D01*
X0094453Y0034603D02*
X0094453Y0031400D01*
X0092318Y0034603D01*
X0092318Y0031400D01*
X0088008Y0031400D02*
X0086407Y0031400D01*
X0085873Y0031934D01*
X0085873Y0033535D01*
X0084785Y0033001D02*
X0084251Y0033535D01*
X0082650Y0033535D01*
X0082650Y0034603D02*
X0082650Y0031400D01*
X0084251Y0031400D01*
X0084785Y0031934D01*
X0084785Y0033001D01*
X0086940Y0030332D02*
X0087474Y0030332D01*
X0088008Y0030866D01*
X0088008Y0033535D01*
X0092852Y0045103D02*
X0092852Y0045637D01*
X0099825Y0043501D02*
X0099825Y0041900D01*
X0110580Y0043501D02*
X0111648Y0043501D01*
X0112729Y0043501D02*
X0113263Y0044035D01*
X0114330Y0044035D01*
X0114864Y0043501D01*
X0114864Y0042434D01*
X0114330Y0041900D01*
X0113263Y0041900D01*
X0112729Y0042434D01*
X0112729Y0043501D01*
X0111648Y0045103D02*
X0111114Y0044569D01*
X0111114Y0041900D01*
X0114334Y0039319D02*
X0113266Y0038251D01*
X0114334Y0039319D02*
X0115401Y0039853D01*
X0115952Y0041900D02*
X0115952Y0044035D01*
X0115952Y0042968D02*
X0117019Y0044035D01*
X0117553Y0044035D01*
X0121860Y0045103D02*
X0121860Y0041900D01*
X0123995Y0041900D02*
X0123995Y0045103D01*
X0122928Y0044035D01*
X0121860Y0045103D01*
X0125083Y0045103D02*
X0127218Y0045103D01*
X0126150Y0045103D02*
X0126150Y0041900D01*
X0128306Y0041900D02*
X0129373Y0041900D01*
X0128839Y0041900D02*
X0128839Y0045103D01*
X0128306Y0045103D02*
X0129373Y0045103D01*
X0130454Y0045103D02*
X0131522Y0045103D01*
X0130988Y0045103D02*
X0130988Y0041900D01*
X0130454Y0041900D02*
X0131522Y0041900D01*
X0132603Y0041900D02*
X0134204Y0041900D01*
X0134738Y0042434D01*
X0134738Y0044569D01*
X0134204Y0045103D01*
X0132603Y0045103D01*
X0132603Y0041900D01*
X0121857Y0034603D02*
X0121323Y0034603D01*
X0115938Y0034603D02*
X0115938Y0032468D01*
X0127897Y0023118D02*
X0127897Y0021266D01*
X0131600Y0021266D01*
X0131600Y0023118D01*
X0130983Y0023735D01*
X0128514Y0023735D01*
X0127897Y0023118D01*
X0127897Y0020052D02*
X0131600Y0020052D01*
X0127897Y0017583D01*
X0131600Y0017583D01*
X0130983Y0016369D02*
X0129748Y0016369D01*
X0129748Y0015134D01*
X0128514Y0013900D02*
X0130983Y0013900D01*
X0131600Y0014517D01*
X0131600Y0015752D01*
X0130983Y0016369D01*
X0128514Y0016369D02*
X0127897Y0015752D01*
X0127897Y0014517D01*
X0128514Y0013900D01*
D15*
X0033085Y0093387D02*
X0026680Y0093387D01*
X0026680Y0096590D01*
X0027747Y0097658D01*
X0029882Y0097658D01*
X0030950Y0096590D01*
X0030950Y0093387D01*
X0028815Y0091212D02*
X0028815Y0086942D01*
X0029882Y0086942D02*
X0027747Y0086942D01*
X0026680Y0088010D01*
X0026680Y0090145D01*
X0027747Y0091212D01*
X0028815Y0091212D01*
X0030950Y0090145D02*
X0030950Y0088010D01*
X0029882Y0086942D01*
X0030950Y0084780D02*
X0029882Y0083713D01*
X0025612Y0083713D01*
X0026680Y0084780D02*
X0026680Y0082645D01*
X0025612Y0080470D02*
X0024545Y0079402D01*
X0024545Y0077267D01*
X0025612Y0076199D01*
X0026680Y0076199D01*
X0027747Y0077267D01*
X0027747Y0079402D01*
X0028815Y0080470D01*
X0029882Y0080470D01*
X0030950Y0079402D01*
X0030950Y0077267D01*
X0029882Y0076199D01*
X0028815Y0067579D02*
X0027747Y0067579D01*
X0026680Y0066511D01*
X0026680Y0064376D01*
X0027747Y0063308D01*
X0029882Y0063308D01*
X0030950Y0064376D01*
X0030950Y0066511D01*
X0028815Y0067579D02*
X0028815Y0063308D01*
X0030950Y0061147D02*
X0030950Y0059011D01*
X0030950Y0060079D02*
X0024545Y0060079D01*
X0024545Y0059011D01*
X0026680Y0056850D02*
X0026680Y0054714D01*
X0025612Y0055782D02*
X0029882Y0055782D01*
X0030950Y0056850D01*
X0030950Y0052553D02*
X0029882Y0051485D01*
X0025612Y0051485D01*
X0026680Y0050417D02*
X0026680Y0052553D01*
X0026680Y0047188D02*
X0030950Y0047188D01*
X0030950Y0046120D02*
X0030950Y0048256D01*
X0030950Y0043945D02*
X0030950Y0039675D01*
X0024545Y0039675D01*
X0026680Y0046120D02*
X0026680Y0047188D01*
X0024545Y0047188D02*
X0023477Y0047188D01*
X0027747Y0099833D02*
X0026680Y0100901D01*
X0026680Y0104103D01*
X0028815Y0103036D02*
X0028815Y0100901D01*
X0027747Y0099833D01*
X0028815Y0103036D02*
X0029882Y0104103D01*
X0030950Y0103036D01*
X0030950Y0099833D01*
X0028815Y0112724D02*
X0026680Y0112724D01*
X0024545Y0114859D01*
X0026680Y0117021D02*
X0030950Y0117021D01*
X0028815Y0117021D02*
X0026680Y0119156D01*
X0026680Y0120224D01*
X0027747Y0122392D02*
X0026680Y0123460D01*
X0026680Y0125595D01*
X0027747Y0126663D01*
X0028815Y0126663D01*
X0028815Y0122392D01*
X0029882Y0122392D02*
X0027747Y0122392D01*
X0029882Y0122392D02*
X0030950Y0123460D01*
X0030950Y0125595D01*
X0026680Y0128838D02*
X0030950Y0130973D01*
X0026680Y0133108D01*
X0025612Y0135283D02*
X0024545Y0136351D01*
X0024545Y0138486D01*
X0025612Y0139554D01*
X0026680Y0139554D01*
X0030950Y0135283D01*
X0030950Y0139554D01*
X0030950Y0141729D02*
X0028815Y0143864D01*
X0026680Y0143864D01*
X0024545Y0141729D01*
X0030950Y0114859D02*
X0028815Y0112724D01*
D16*
X0052996Y0113629D02*
X0053747Y0112878D01*
X0052996Y0113629D02*
X0052996Y0115130D01*
X0053747Y0115881D01*
X0054497Y0115881D01*
X0057500Y0112878D01*
X0057500Y0115881D01*
X0053747Y0111277D02*
X0052996Y0111277D01*
X0053747Y0111277D02*
X0055248Y0109776D01*
X0057500Y0109776D01*
X0055248Y0109776D02*
X0053747Y0108274D01*
X0052996Y0108274D01*
X0054497Y0106673D02*
X0057500Y0106673D01*
X0055248Y0106673D02*
X0055248Y0103670D01*
X0054497Y0103670D02*
X0052996Y0105172D01*
X0054497Y0106673D01*
X0054497Y0103670D02*
X0057500Y0103670D01*
X0057500Y0102069D02*
X0055999Y0100568D01*
X0055999Y0101318D02*
X0055999Y0099066D01*
X0057500Y0099066D02*
X0052996Y0099066D01*
X0052996Y0101318D01*
X0053747Y0102069D01*
X0055248Y0102069D01*
X0055999Y0101318D01*
X0055248Y0097465D02*
X0053747Y0097465D01*
X0052996Y0096714D01*
X0052996Y0094462D01*
X0057500Y0094462D01*
X0055999Y0094462D02*
X0055999Y0096714D01*
X0055248Y0097465D01*
X0055999Y0095964D02*
X0057500Y0097465D01*
X0057500Y0092861D02*
X0054497Y0092861D01*
X0052996Y0091360D01*
X0054497Y0089859D01*
X0057500Y0089859D01*
X0058251Y0088257D02*
X0058251Y0085255D01*
X0057500Y0083653D02*
X0052996Y0083653D01*
X0052996Y0080651D02*
X0057500Y0083653D01*
X0057500Y0080651D02*
X0052996Y0080651D01*
X0053747Y0079049D02*
X0052996Y0078299D01*
X0052996Y0076797D01*
X0053747Y0076047D01*
X0056749Y0076047D01*
X0057500Y0076797D01*
X0057500Y0078299D01*
X0056749Y0079049D01*
X0053747Y0079049D01*
X0052996Y0074445D02*
X0052996Y0071443D01*
X0052996Y0072944D02*
X0057500Y0072944D01*
X0056749Y0069841D02*
X0055248Y0069841D01*
X0055248Y0068340D01*
X0053747Y0066839D02*
X0056749Y0066839D01*
X0057500Y0067590D01*
X0057500Y0069091D01*
X0056749Y0069841D01*
X0053747Y0069841D02*
X0052996Y0069091D01*
X0052996Y0067590D01*
X0053747Y0066839D01*
X0052996Y0065238D02*
X0057500Y0065238D01*
X0052996Y0062235D01*
X0057500Y0062235D01*
X0057500Y0060667D02*
X0057500Y0059166D01*
X0057500Y0059916D02*
X0052996Y0059916D01*
X0052996Y0059166D02*
X0052996Y0060667D01*
X0057500Y0057564D02*
X0057500Y0054562D01*
X0052996Y0054562D01*
X0053747Y0052960D02*
X0055248Y0052960D01*
X0055999Y0052210D01*
X0055999Y0049958D01*
X0057500Y0049958D02*
X0052996Y0049958D01*
X0052996Y0052210D01*
X0053747Y0052960D01*
X0055999Y0051459D02*
X0057500Y0052960D01*
X0057500Y0048356D02*
X0054497Y0048356D01*
X0052996Y0046855D01*
X0054497Y0045354D01*
X0057500Y0045354D01*
X0056749Y0043753D02*
X0057500Y0043002D01*
X0057500Y0040750D01*
X0052996Y0040750D01*
X0052996Y0043002D01*
X0053747Y0043753D01*
X0056749Y0043753D01*
X0055248Y0045354D02*
X0055248Y0048356D01*
X0055248Y0089859D02*
X0055248Y0092861D01*
X0102549Y0093233D02*
X0102549Y0055438D01*
X0156880Y0055438D01*
X0156880Y0093233D01*
X0102549Y0093233D01*
X0103174Y0114813D02*
X0103174Y0152608D01*
X0157505Y0152608D01*
X0157505Y0114813D01*
X0103174Y0114813D01*
X0057500Y0143250D02*
X0057500Y0145502D01*
X0056749Y0146253D01*
X0053747Y0146253D01*
X0052996Y0145502D01*
X0052996Y0143250D01*
X0057500Y0143250D01*
X0057500Y0147854D02*
X0054497Y0147854D01*
X0052996Y0149355D01*
X0054497Y0150856D01*
X0057500Y0150856D01*
X0057500Y0152458D02*
X0052996Y0152458D01*
X0052996Y0154710D01*
X0053747Y0155460D01*
X0055248Y0155460D01*
X0055999Y0154710D01*
X0055999Y0152458D01*
X0055999Y0153959D02*
X0057500Y0155460D01*
X0057500Y0157062D02*
X0057500Y0160064D01*
X0057500Y0161666D02*
X0057500Y0163167D01*
X0057500Y0162416D02*
X0052996Y0162416D01*
X0052996Y0161666D02*
X0052996Y0163167D01*
X0052996Y0164735D02*
X0057500Y0167738D01*
X0052996Y0167738D01*
X0053747Y0169339D02*
X0056749Y0169339D01*
X0057500Y0170090D01*
X0057500Y0171591D01*
X0056749Y0172341D01*
X0055248Y0172341D01*
X0055248Y0170840D01*
X0053747Y0169339D02*
X0052996Y0170090D01*
X0052996Y0171591D01*
X0053747Y0172341D01*
X0052996Y0173943D02*
X0052996Y0176945D01*
X0052996Y0175444D02*
X0057500Y0175444D01*
X0056749Y0178547D02*
X0057500Y0179297D01*
X0057500Y0180799D01*
X0056749Y0181549D01*
X0053747Y0181549D01*
X0052996Y0180799D01*
X0052996Y0179297D01*
X0053747Y0178547D01*
X0056749Y0178547D01*
X0057500Y0183151D02*
X0052996Y0183151D01*
X0057500Y0186153D01*
X0052996Y0186153D01*
X0058251Y0187755D02*
X0058251Y0190757D01*
X0057500Y0192359D02*
X0054497Y0192359D01*
X0052996Y0193860D01*
X0054497Y0195361D01*
X0057500Y0195361D01*
X0057500Y0196962D02*
X0052996Y0196962D01*
X0052996Y0199214D01*
X0053747Y0199965D01*
X0055248Y0199965D01*
X0055999Y0199214D01*
X0055999Y0196962D01*
X0055999Y0198464D02*
X0057500Y0199965D01*
X0057500Y0201566D02*
X0052996Y0201566D01*
X0052996Y0203818D01*
X0053747Y0204569D01*
X0055248Y0204569D01*
X0055999Y0203818D01*
X0055999Y0201566D01*
X0055999Y0203068D02*
X0057500Y0204569D01*
X0057500Y0206170D02*
X0054497Y0206170D01*
X0052996Y0207672D01*
X0054497Y0209173D01*
X0057500Y0209173D01*
X0055248Y0209173D02*
X0055248Y0206170D01*
X0053747Y0210774D02*
X0055248Y0212276D01*
X0057500Y0212276D01*
X0055248Y0212276D02*
X0053747Y0213777D01*
X0052996Y0213777D01*
X0054497Y0215378D02*
X0052996Y0216879D01*
X0057500Y0216879D01*
X0057500Y0215378D02*
X0057500Y0218381D01*
X0053747Y0210774D02*
X0052996Y0210774D01*
X0055248Y0195361D02*
X0055248Y0192359D01*
X0057500Y0164735D02*
X0052996Y0164735D01*
X0052996Y0157062D02*
X0057500Y0157062D01*
X0055248Y0150856D02*
X0055248Y0147854D01*
X0192421Y0131472D02*
X0192421Y0129220D01*
X0196925Y0129220D01*
X0196925Y0131472D01*
X0196174Y0132222D01*
X0193172Y0132222D01*
X0192421Y0131472D01*
X0192421Y0127618D02*
X0192421Y0124616D01*
X0196925Y0124616D01*
X0196925Y0127618D01*
X0194673Y0126117D02*
X0194673Y0124616D01*
X0196925Y0123014D02*
X0196925Y0120012D01*
X0192421Y0120012D01*
X0194673Y0118410D02*
X0194673Y0115408D01*
X0194673Y0113806D02*
X0194673Y0112305D01*
X0194673Y0113806D02*
X0196174Y0113806D01*
X0196925Y0113056D01*
X0196925Y0111555D01*
X0196174Y0110804D01*
X0193172Y0110804D01*
X0192421Y0111555D01*
X0192421Y0113056D01*
X0193172Y0113806D01*
X0193172Y0109203D02*
X0194673Y0109203D01*
X0195424Y0108452D01*
X0195424Y0106200D01*
X0196925Y0106200D02*
X0192421Y0106200D01*
X0192421Y0108452D01*
X0193172Y0109203D01*
X0195424Y0107701D02*
X0196925Y0109203D01*
D17*
X0057827Y0016201D02*
X0057827Y0014700D01*
X0057327Y0014700D02*
X0058328Y0014700D01*
X0057327Y0015701D02*
X0057827Y0016201D01*
X0056854Y0015951D02*
X0056854Y0015451D01*
X0056604Y0015200D01*
X0055853Y0015200D01*
X0055853Y0014700D02*
X0055853Y0016201D01*
X0056604Y0016201D01*
X0056854Y0015951D01*
X0056354Y0015200D02*
X0056854Y0014700D01*
X0041274Y0015675D02*
X0040273Y0015675D01*
X0041274Y0016676D01*
X0041274Y0016926D01*
X0041024Y0017176D01*
X0040523Y0017176D01*
X0040273Y0016926D01*
X0039801Y0016926D02*
X0039801Y0016426D01*
X0039551Y0016175D01*
X0038800Y0016175D01*
X0038800Y0015675D02*
X0038800Y0017176D01*
X0039551Y0017176D01*
X0039801Y0016926D01*
X0039300Y0016175D02*
X0039801Y0015675D01*
D18*
X0042752Y0012229D02*
X0040650Y0010127D01*
X0043452Y0010127D01*
X0042752Y0008025D02*
X0042752Y0012229D01*
X0045254Y0008726D02*
X0045955Y0008726D01*
X0045955Y0008025D01*
X0045254Y0008025D01*
X0045254Y0008726D01*
X0047556Y0008726D02*
X0047556Y0008025D01*
X0047556Y0008726D02*
X0050358Y0011528D01*
X0050358Y0012229D01*
X0047556Y0012229D01*
X0052160Y0012229D02*
X0052160Y0008025D01*
X0052160Y0009426D02*
X0054262Y0010827D01*
X0052160Y0009426D02*
X0054262Y0008025D01*
X0053813Y0019650D02*
X0053813Y0023854D01*
X0052012Y0023854D02*
X0052012Y0023153D01*
X0049209Y0020351D01*
X0049209Y0019650D01*
X0047608Y0019650D02*
X0046907Y0019650D01*
X0046907Y0020351D01*
X0047608Y0020351D01*
X0047608Y0019650D01*
X0044405Y0019650D02*
X0044405Y0023854D01*
X0042304Y0021752D01*
X0045106Y0021752D01*
X0049209Y0023854D02*
X0052012Y0023854D01*
X0053813Y0021051D02*
X0055915Y0022452D01*
X0053813Y0021051D02*
X0055915Y0019650D01*
X0044250Y0033750D02*
X0044250Y0034750D01*
X0044250Y0033750D02*
X0068250Y0033750D01*
X0068250Y0034750D01*
X0068250Y0042750D02*
X0068250Y0044750D01*
X0068250Y0052750D02*
X0068250Y0054750D01*
X0068250Y0062750D02*
X0068250Y0064750D01*
X0068250Y0072750D02*
X0068250Y0074750D01*
X0068250Y0082750D02*
X0068250Y0084750D01*
X0068250Y0092750D02*
X0068250Y0094750D01*
X0068250Y0102750D02*
X0068250Y0104750D01*
X0068250Y0112750D02*
X0068250Y0114750D01*
X0068250Y0122750D02*
X0068250Y0123750D01*
X0060250Y0123750D01*
X0060248Y0123624D01*
X0060242Y0123499D01*
X0060232Y0123374D01*
X0060218Y0123249D01*
X0060201Y0123124D01*
X0060179Y0123000D01*
X0060154Y0122877D01*
X0060124Y0122755D01*
X0060091Y0122634D01*
X0060054Y0122514D01*
X0060014Y0122395D01*
X0059969Y0122278D01*
X0059921Y0122161D01*
X0059869Y0122047D01*
X0059814Y0121934D01*
X0059755Y0121823D01*
X0059693Y0121714D01*
X0059627Y0121607D01*
X0059558Y0121502D01*
X0059486Y0121399D01*
X0059411Y0121298D01*
X0059332Y0121200D01*
X0059250Y0121105D01*
X0059166Y0121012D01*
X0059078Y0120922D01*
X0058988Y0120834D01*
X0058895Y0120750D01*
X0058800Y0120668D01*
X0058702Y0120589D01*
X0058601Y0120514D01*
X0058498Y0120442D01*
X0058393Y0120373D01*
X0058286Y0120307D01*
X0058177Y0120245D01*
X0058066Y0120186D01*
X0057953Y0120131D01*
X0057839Y0120079D01*
X0057722Y0120031D01*
X0057605Y0119986D01*
X0057486Y0119946D01*
X0057366Y0119909D01*
X0057245Y0119876D01*
X0057123Y0119846D01*
X0057000Y0119821D01*
X0056876Y0119799D01*
X0056751Y0119782D01*
X0056626Y0119768D01*
X0056501Y0119758D01*
X0056376Y0119752D01*
X0056250Y0119750D01*
X0056124Y0119752D01*
X0055999Y0119758D01*
X0055874Y0119768D01*
X0055749Y0119782D01*
X0055624Y0119799D01*
X0055500Y0119821D01*
X0055377Y0119846D01*
X0055255Y0119876D01*
X0055134Y0119909D01*
X0055014Y0119946D01*
X0054895Y0119986D01*
X0054778Y0120031D01*
X0054661Y0120079D01*
X0054547Y0120131D01*
X0054434Y0120186D01*
X0054323Y0120245D01*
X0054214Y0120307D01*
X0054107Y0120373D01*
X0054002Y0120442D01*
X0053899Y0120514D01*
X0053798Y0120589D01*
X0053700Y0120668D01*
X0053605Y0120750D01*
X0053512Y0120834D01*
X0053422Y0120922D01*
X0053334Y0121012D01*
X0053250Y0121105D01*
X0053168Y0121200D01*
X0053089Y0121298D01*
X0053014Y0121399D01*
X0052942Y0121502D01*
X0052873Y0121607D01*
X0052807Y0121714D01*
X0052745Y0121823D01*
X0052686Y0121934D01*
X0052631Y0122047D01*
X0052579Y0122161D01*
X0052531Y0122278D01*
X0052486Y0122395D01*
X0052446Y0122514D01*
X0052409Y0122634D01*
X0052376Y0122755D01*
X0052346Y0122877D01*
X0052321Y0123000D01*
X0052299Y0123124D01*
X0052282Y0123249D01*
X0052268Y0123374D01*
X0052258Y0123499D01*
X0052252Y0123624D01*
X0052250Y0123750D01*
X0044250Y0123750D01*
X0044250Y0122750D01*
X0044250Y0114750D02*
X0044250Y0112750D01*
X0044250Y0104750D02*
X0044250Y0102750D01*
X0044250Y0094750D02*
X0044250Y0092750D01*
X0044250Y0084750D02*
X0044250Y0082750D01*
X0044250Y0074750D02*
X0044250Y0072750D01*
X0044250Y0064750D02*
X0044250Y0062750D01*
X0044250Y0054750D02*
X0044250Y0052750D01*
X0044250Y0044750D02*
X0044250Y0042750D01*
X0044250Y0135000D02*
X0044250Y0136000D01*
X0044250Y0135000D02*
X0068250Y0135000D01*
X0068250Y0136000D01*
X0068250Y0144000D02*
X0068250Y0146000D01*
X0068250Y0154000D02*
X0068250Y0156000D01*
X0068250Y0164000D02*
X0068250Y0166000D01*
X0068250Y0174000D02*
X0068250Y0176000D01*
X0068250Y0184000D02*
X0068250Y0186000D01*
X0068250Y0194000D02*
X0068250Y0196000D01*
X0068250Y0204000D02*
X0068250Y0206000D01*
X0068250Y0214000D02*
X0068250Y0216000D01*
X0068250Y0224000D02*
X0068250Y0225000D01*
X0060250Y0225000D01*
X0060248Y0224874D01*
X0060242Y0224749D01*
X0060232Y0224624D01*
X0060218Y0224499D01*
X0060201Y0224374D01*
X0060179Y0224250D01*
X0060154Y0224127D01*
X0060124Y0224005D01*
X0060091Y0223884D01*
X0060054Y0223764D01*
X0060014Y0223645D01*
X0059969Y0223528D01*
X0059921Y0223411D01*
X0059869Y0223297D01*
X0059814Y0223184D01*
X0059755Y0223073D01*
X0059693Y0222964D01*
X0059627Y0222857D01*
X0059558Y0222752D01*
X0059486Y0222649D01*
X0059411Y0222548D01*
X0059332Y0222450D01*
X0059250Y0222355D01*
X0059166Y0222262D01*
X0059078Y0222172D01*
X0058988Y0222084D01*
X0058895Y0222000D01*
X0058800Y0221918D01*
X0058702Y0221839D01*
X0058601Y0221764D01*
X0058498Y0221692D01*
X0058393Y0221623D01*
X0058286Y0221557D01*
X0058177Y0221495D01*
X0058066Y0221436D01*
X0057953Y0221381D01*
X0057839Y0221329D01*
X0057722Y0221281D01*
X0057605Y0221236D01*
X0057486Y0221196D01*
X0057366Y0221159D01*
X0057245Y0221126D01*
X0057123Y0221096D01*
X0057000Y0221071D01*
X0056876Y0221049D01*
X0056751Y0221032D01*
X0056626Y0221018D01*
X0056501Y0221008D01*
X0056376Y0221002D01*
X0056250Y0221000D01*
X0056124Y0221002D01*
X0055999Y0221008D01*
X0055874Y0221018D01*
X0055749Y0221032D01*
X0055624Y0221049D01*
X0055500Y0221071D01*
X0055377Y0221096D01*
X0055255Y0221126D01*
X0055134Y0221159D01*
X0055014Y0221196D01*
X0054895Y0221236D01*
X0054778Y0221281D01*
X0054661Y0221329D01*
X0054547Y0221381D01*
X0054434Y0221436D01*
X0054323Y0221495D01*
X0054214Y0221557D01*
X0054107Y0221623D01*
X0054002Y0221692D01*
X0053899Y0221764D01*
X0053798Y0221839D01*
X0053700Y0221918D01*
X0053605Y0222000D01*
X0053512Y0222084D01*
X0053422Y0222172D01*
X0053334Y0222262D01*
X0053250Y0222355D01*
X0053168Y0222450D01*
X0053089Y0222548D01*
X0053014Y0222649D01*
X0052942Y0222752D01*
X0052873Y0222857D01*
X0052807Y0222964D01*
X0052745Y0223073D01*
X0052686Y0223184D01*
X0052631Y0223297D01*
X0052579Y0223411D01*
X0052531Y0223528D01*
X0052486Y0223645D01*
X0052446Y0223764D01*
X0052409Y0223884D01*
X0052376Y0224005D01*
X0052346Y0224127D01*
X0052321Y0224250D01*
X0052299Y0224374D01*
X0052282Y0224499D01*
X0052268Y0224624D01*
X0052258Y0224749D01*
X0052252Y0224874D01*
X0052250Y0225000D01*
X0044250Y0225000D01*
X0044250Y0224000D01*
X0044250Y0216000D02*
X0044250Y0214000D01*
X0044250Y0206000D02*
X0044250Y0204000D01*
X0044250Y0196000D02*
X0044250Y0194000D01*
X0044250Y0186000D02*
X0044250Y0184000D01*
X0044250Y0176000D02*
X0044250Y0174000D01*
X0044250Y0166000D02*
X0044250Y0164000D01*
X0044250Y0156000D02*
X0044250Y0154000D01*
X0044250Y0146000D02*
X0044250Y0144000D01*
X0082441Y0189898D02*
X0086772Y0189898D01*
X0082441Y0189898D02*
X0082441Y0239504D01*
X0137559Y0239504D01*
X0137559Y0189111D01*
X0133228Y0189111D01*
X0142441Y0189898D02*
X0146772Y0189898D01*
X0142441Y0189898D02*
X0142441Y0239504D01*
X0197559Y0239504D01*
X0197559Y0189111D01*
X0193228Y0189111D01*
X0217629Y0056059D02*
X0168023Y0056059D01*
X0168023Y0051728D01*
X0167236Y0038272D02*
X0167236Y0033941D01*
X0217629Y0033941D01*
X0217629Y0056059D01*
X0217629Y0027309D02*
X0168023Y0027309D01*
X0168023Y0022978D01*
X0167236Y0009522D02*
X0167236Y0005191D01*
X0217629Y0005191D01*
X0217629Y0027309D01*
D19*
X0170000Y0236158D03*
X0110000Y0236158D03*
D20*
X0084550Y0188367D02*
X0084550Y0185631D01*
X0084550Y0186999D02*
X0080446Y0186999D01*
X0081814Y0185631D01*
X0085234Y0183763D02*
X0085234Y0181027D01*
X0084550Y0179159D02*
X0083182Y0177791D01*
X0083182Y0178475D02*
X0083182Y0176424D01*
X0084550Y0176424D02*
X0080446Y0176424D01*
X0080446Y0178475D01*
X0081130Y0179159D01*
X0082498Y0179159D01*
X0083182Y0178475D01*
X0084550Y0174555D02*
X0084550Y0171820D01*
X0080446Y0171820D01*
X0080446Y0174555D01*
X0082498Y0173187D02*
X0082498Y0171820D01*
X0082498Y0169951D02*
X0083182Y0169267D01*
X0083182Y0167216D01*
X0084550Y0167216D02*
X0080446Y0167216D01*
X0080446Y0169267D01*
X0081130Y0169951D01*
X0082498Y0169951D01*
X0082498Y0165347D02*
X0083182Y0164664D01*
X0083182Y0162612D01*
X0084550Y0162612D02*
X0080446Y0162612D01*
X0080446Y0164664D01*
X0081130Y0165347D01*
X0082498Y0165347D01*
X0080446Y0160744D02*
X0080446Y0158008D01*
X0084550Y0158008D01*
X0084550Y0160744D01*
X0082498Y0159376D02*
X0082498Y0158008D01*
X0080446Y0156140D02*
X0080446Y0153404D01*
X0080446Y0154772D02*
X0084550Y0154772D01*
X0083866Y0151536D02*
X0083182Y0151536D01*
X0082498Y0150852D01*
X0082498Y0149484D01*
X0081814Y0148800D01*
X0081130Y0148800D01*
X0080446Y0149484D01*
X0080446Y0150852D01*
X0081130Y0151536D01*
X0083866Y0151536D02*
X0084550Y0150852D01*
X0084550Y0149484D01*
X0083866Y0148800D01*
X0194196Y0148977D02*
X0194196Y0147609D01*
X0194880Y0146925D01*
X0195564Y0146925D01*
X0196248Y0147609D01*
X0196248Y0148977D01*
X0196932Y0149661D01*
X0197616Y0149661D01*
X0198300Y0148977D01*
X0198300Y0147609D01*
X0197616Y0146925D01*
X0194880Y0149661D02*
X0194196Y0148977D01*
X0194196Y0151529D02*
X0194196Y0154265D01*
X0194196Y0152897D02*
X0198300Y0152897D01*
X0198300Y0156133D02*
X0198300Y0158869D01*
X0198300Y0160737D02*
X0194196Y0160737D01*
X0194196Y0162789D01*
X0194880Y0163472D01*
X0196248Y0163472D01*
X0196932Y0162789D01*
X0196932Y0160737D01*
X0194196Y0158869D02*
X0194196Y0156133D01*
X0198300Y0156133D01*
X0196248Y0156133D02*
X0196248Y0157501D01*
X0196932Y0165341D02*
X0196932Y0167392D01*
X0196248Y0168076D01*
X0194880Y0168076D01*
X0194196Y0167392D01*
X0194196Y0165341D01*
X0198300Y0165341D01*
X0198300Y0169945D02*
X0194196Y0169945D01*
X0194196Y0172680D01*
X0194196Y0174549D02*
X0194196Y0176600D01*
X0194880Y0177284D01*
X0196248Y0177284D01*
X0196932Y0176600D01*
X0196932Y0174549D01*
X0196932Y0175916D02*
X0198300Y0177284D01*
X0198984Y0179152D02*
X0198984Y0181888D01*
X0198300Y0183756D02*
X0195564Y0186492D01*
X0194880Y0186492D01*
X0194196Y0185808D01*
X0194196Y0184440D01*
X0194880Y0183756D01*
X0198300Y0183756D02*
X0198300Y0186492D01*
X0198300Y0174549D02*
X0194196Y0174549D01*
X0196248Y0171312D02*
X0196248Y0169945D01*
X0198300Y0169945D02*
X0198300Y0172680D01*
D21*
X0214283Y0045000D03*
X0214283Y0016250D03*
D22*
X0206769Y0028475D02*
X0206769Y0031778D01*
X0204567Y0031778D02*
X0206769Y0028475D01*
X0204567Y0028475D02*
X0204567Y0031778D01*
X0203212Y0031778D02*
X0202111Y0031778D01*
X0202662Y0031778D02*
X0202662Y0028475D01*
X0203212Y0028475D02*
X0202111Y0028475D01*
X0200630Y0029576D02*
X0200630Y0031778D01*
X0198428Y0031778D02*
X0198428Y0029576D01*
X0199529Y0028475D01*
X0200630Y0029576D01*
X0196947Y0027925D02*
X0194745Y0027925D01*
X0193264Y0029025D02*
X0193264Y0031227D01*
X0192713Y0031778D01*
X0191612Y0031778D01*
X0191062Y0031227D01*
X0191062Y0029025D01*
X0191612Y0028475D01*
X0192713Y0028475D01*
X0193264Y0029025D01*
X0189581Y0028475D02*
X0189581Y0031778D01*
X0187379Y0031778D02*
X0189581Y0028475D01*
X0187379Y0028475D02*
X0187379Y0031778D01*
X0186024Y0031778D02*
X0184923Y0031778D01*
X0185474Y0031778D02*
X0185474Y0028475D01*
X0186024Y0028475D02*
X0184923Y0028475D01*
X0183442Y0029025D02*
X0183442Y0031778D01*
X0181240Y0031778D02*
X0181240Y0029025D01*
X0181791Y0028475D01*
X0182892Y0028475D01*
X0183442Y0029025D01*
X0179759Y0029025D02*
X0179759Y0031227D01*
X0179209Y0031778D01*
X0177557Y0031778D01*
X0177557Y0028475D01*
X0179209Y0028475D01*
X0179759Y0029025D01*
X0176076Y0028475D02*
X0174975Y0029576D01*
X0175525Y0029576D02*
X0173874Y0029576D01*
X0173874Y0028475D02*
X0173874Y0031778D01*
X0175525Y0031778D01*
X0176076Y0031227D01*
X0176076Y0030126D01*
X0175525Y0029576D01*
X0172393Y0030126D02*
X0170191Y0030126D01*
X0170191Y0030677D02*
X0171292Y0031778D01*
X0172393Y0030677D01*
X0172393Y0028475D01*
X0170191Y0028475D02*
X0170191Y0030677D01*
X0173286Y0059725D02*
X0172735Y0060275D01*
X0173286Y0059725D02*
X0174387Y0059725D01*
X0174937Y0060275D01*
X0174937Y0060826D01*
X0174387Y0061376D01*
X0173286Y0061376D01*
X0172735Y0061927D01*
X0172735Y0062477D01*
X0173286Y0063028D01*
X0174387Y0063028D01*
X0174937Y0062477D01*
X0176419Y0063028D02*
X0178620Y0063028D01*
X0177519Y0063028D02*
X0177519Y0059725D01*
X0180102Y0059725D02*
X0180102Y0063028D01*
X0182304Y0063028D01*
X0183785Y0063028D02*
X0185436Y0063028D01*
X0185987Y0062477D01*
X0185987Y0061376D01*
X0185436Y0060826D01*
X0183785Y0060826D01*
X0183785Y0059725D02*
X0183785Y0063028D01*
X0181203Y0061376D02*
X0180102Y0061376D01*
X0180102Y0059725D02*
X0182304Y0059725D01*
X0187468Y0059725D02*
X0187468Y0063028D01*
X0189119Y0063028D01*
X0189670Y0062477D01*
X0189670Y0061376D01*
X0189119Y0060826D01*
X0187468Y0060826D01*
X0191151Y0061376D02*
X0192252Y0061376D01*
X0191151Y0059725D02*
X0191151Y0063028D01*
X0193353Y0063028D01*
X0194834Y0063028D02*
X0196486Y0063028D01*
X0197036Y0062477D01*
X0197036Y0061376D01*
X0196486Y0060826D01*
X0194834Y0060826D01*
X0194834Y0059725D02*
X0194834Y0063028D01*
X0195935Y0060826D02*
X0197036Y0059725D01*
X0198517Y0059175D02*
X0200719Y0059175D01*
X0202201Y0059725D02*
X0202201Y0063028D01*
X0203852Y0063028D01*
X0204402Y0062477D01*
X0204402Y0061376D01*
X0203852Y0060826D01*
X0202201Y0060826D01*
X0205884Y0059725D02*
X0206985Y0060826D01*
X0208086Y0059725D01*
X0208086Y0063028D01*
X0209567Y0063028D02*
X0209567Y0059725D01*
X0209567Y0060826D02*
X0211218Y0060826D01*
X0211769Y0061376D01*
X0211769Y0062477D01*
X0211218Y0063028D01*
X0209567Y0063028D01*
X0210668Y0060826D02*
X0211769Y0059725D01*
X0205884Y0059725D02*
X0205884Y0063028D01*
X0193353Y0059725D02*
X0191151Y0059725D01*
D23*
X0148665Y0096592D02*
X0147898Y0095825D01*
X0146363Y0095825D01*
X0145596Y0096592D01*
X0144061Y0095058D02*
X0140992Y0095058D01*
X0139457Y0095825D02*
X0137923Y0097360D01*
X0138690Y0097360D02*
X0136388Y0097360D01*
X0136388Y0095825D02*
X0136388Y0100429D01*
X0138690Y0100429D01*
X0139457Y0099662D01*
X0139457Y0098127D01*
X0138690Y0097360D01*
X0134853Y0095825D02*
X0131784Y0095825D01*
X0131784Y0100429D01*
X0134853Y0100429D01*
X0133319Y0098127D02*
X0131784Y0098127D01*
X0130250Y0098127D02*
X0130250Y0099662D01*
X0129482Y0100429D01*
X0127180Y0100429D01*
X0127180Y0095825D01*
X0127180Y0097360D02*
X0129482Y0097360D01*
X0130250Y0098127D01*
X0125646Y0098127D02*
X0124878Y0097360D01*
X0122576Y0097360D01*
X0122576Y0095825D02*
X0122576Y0100429D01*
X0124878Y0100429D01*
X0125646Y0099662D01*
X0125646Y0098127D01*
X0121042Y0100429D02*
X0117972Y0100429D01*
X0117972Y0095825D01*
X0121042Y0095825D01*
X0119507Y0098127D02*
X0117972Y0098127D01*
X0116438Y0100429D02*
X0113369Y0100429D01*
X0114903Y0100429D02*
X0114903Y0095825D01*
X0111834Y0096592D02*
X0111834Y0097360D01*
X0111067Y0098127D01*
X0109532Y0098127D01*
X0108765Y0098894D01*
X0108765Y0099662D01*
X0109532Y0100429D01*
X0111067Y0100429D01*
X0111834Y0099662D01*
X0111834Y0096592D02*
X0111067Y0095825D01*
X0109532Y0095825D01*
X0108765Y0096592D01*
X0145596Y0099662D02*
X0146363Y0100429D01*
X0147898Y0100429D01*
X0148665Y0099662D01*
X0148665Y0098894D01*
X0147898Y0098127D01*
X0148665Y0097360D01*
X0148665Y0096592D01*
X0147898Y0098127D02*
X0147131Y0098127D01*
X0131648Y0052304D02*
X0129346Y0050002D01*
X0132415Y0050002D01*
X0131648Y0047700D02*
X0131648Y0052304D01*
X0127811Y0046933D02*
X0124742Y0046933D01*
X0123207Y0047700D02*
X0121673Y0049235D01*
X0122440Y0049235D02*
X0120138Y0049235D01*
X0120138Y0047700D02*
X0120138Y0052304D01*
X0122440Y0052304D01*
X0123207Y0051537D01*
X0123207Y0050002D01*
X0122440Y0049235D01*
X0118603Y0047700D02*
X0115534Y0047700D01*
X0115534Y0052304D01*
X0118603Y0052304D01*
X0117069Y0050002D02*
X0115534Y0050002D01*
X0114000Y0050002D02*
X0113232Y0049235D01*
X0110930Y0049235D01*
X0110930Y0047700D02*
X0110930Y0052304D01*
X0113232Y0052304D01*
X0114000Y0051537D01*
X0114000Y0050002D01*
X0109396Y0050002D02*
X0108628Y0049235D01*
X0106326Y0049235D01*
X0106326Y0047700D02*
X0106326Y0052304D01*
X0108628Y0052304D01*
X0109396Y0051537D01*
X0109396Y0050002D01*
X0104792Y0052304D02*
X0101722Y0052304D01*
X0101722Y0047700D01*
X0104792Y0047700D01*
X0103257Y0050002D02*
X0101722Y0050002D01*
X0100188Y0052304D02*
X0097119Y0052304D01*
X0098653Y0052304D02*
X0098653Y0047700D01*
X0095584Y0048467D02*
X0094817Y0047700D01*
X0093282Y0047700D01*
X0092515Y0048467D01*
X0093282Y0050002D02*
X0094817Y0050002D01*
X0095584Y0049235D01*
X0095584Y0048467D01*
X0093282Y0050002D02*
X0092515Y0050769D01*
X0092515Y0051537D01*
X0093282Y0052304D01*
X0094817Y0052304D01*
X0095584Y0051537D01*
X0096399Y0021610D02*
X0093997Y0021610D01*
X0093997Y0019208D02*
X0096399Y0019208D01*
X0097600Y0020409D01*
X0096399Y0021610D01*
X0095798Y0017927D02*
X0096999Y0017927D01*
X0097600Y0017327D01*
X0097600Y0016126D01*
X0096999Y0015525D01*
X0095798Y0015525D02*
X0095198Y0016726D01*
X0095198Y0017327D01*
X0095798Y0017927D01*
X0093997Y0017927D02*
X0093997Y0015525D01*
X0095798Y0015525D01*
M02*
