G75*
%MOIN*%
%OFA0B0*%
%FSLAX25Y25*%
%IPPOS*%
%LPD*%
%AMOC8*
5,1,8,0,0,1.08239X$1,22.5*
%
%ADD10C,0.00000*%
%ADD11C,0.01000*%
%ADD12C,0.01200*%
%ADD13C,0.07400*%
%ADD14C,0.08000*%
%ADD15C,0.05200*%
%ADD16OC8,0.10000*%
%ADD17R,0.10000X0.10000*%
%ADD18C,0.02400*%
%ADD19C,0.03000*%
%ADD20R,0.03562X0.03562*%
%ADD21C,0.02200*%
%ADD22C,0.04000*%
%ADD23C,0.03200*%
%ADD24C,0.04143*%
%ADD25C,0.02700*%
D10*
X0005000Y0005000D02*
X0015000Y0005000D01*
X0208701Y0005000D01*
X0185959Y0016250D02*
X0185961Y0016403D01*
X0185967Y0016557D01*
X0185977Y0016710D01*
X0185991Y0016862D01*
X0186009Y0017015D01*
X0186031Y0017166D01*
X0186056Y0017317D01*
X0186086Y0017468D01*
X0186120Y0017618D01*
X0186157Y0017766D01*
X0186198Y0017914D01*
X0186243Y0018060D01*
X0186292Y0018206D01*
X0186345Y0018350D01*
X0186401Y0018492D01*
X0186461Y0018633D01*
X0186525Y0018773D01*
X0186592Y0018911D01*
X0186663Y0019047D01*
X0186738Y0019181D01*
X0186815Y0019313D01*
X0186897Y0019443D01*
X0186981Y0019571D01*
X0187069Y0019697D01*
X0187160Y0019820D01*
X0187254Y0019941D01*
X0187352Y0020059D01*
X0187452Y0020175D01*
X0187556Y0020288D01*
X0187662Y0020399D01*
X0187771Y0020507D01*
X0187883Y0020612D01*
X0187997Y0020713D01*
X0188115Y0020812D01*
X0188234Y0020908D01*
X0188356Y0021001D01*
X0188481Y0021090D01*
X0188608Y0021177D01*
X0188737Y0021259D01*
X0188868Y0021339D01*
X0189001Y0021415D01*
X0189136Y0021488D01*
X0189273Y0021557D01*
X0189412Y0021622D01*
X0189552Y0021684D01*
X0189694Y0021742D01*
X0189837Y0021797D01*
X0189982Y0021848D01*
X0190128Y0021895D01*
X0190275Y0021938D01*
X0190423Y0021977D01*
X0190572Y0022013D01*
X0190722Y0022044D01*
X0190873Y0022072D01*
X0191024Y0022096D01*
X0191177Y0022116D01*
X0191329Y0022132D01*
X0191482Y0022144D01*
X0191635Y0022152D01*
X0191788Y0022156D01*
X0191942Y0022156D01*
X0192095Y0022152D01*
X0192248Y0022144D01*
X0192401Y0022132D01*
X0192553Y0022116D01*
X0192706Y0022096D01*
X0192857Y0022072D01*
X0193008Y0022044D01*
X0193158Y0022013D01*
X0193307Y0021977D01*
X0193455Y0021938D01*
X0193602Y0021895D01*
X0193748Y0021848D01*
X0193893Y0021797D01*
X0194036Y0021742D01*
X0194178Y0021684D01*
X0194318Y0021622D01*
X0194457Y0021557D01*
X0194594Y0021488D01*
X0194729Y0021415D01*
X0194862Y0021339D01*
X0194993Y0021259D01*
X0195122Y0021177D01*
X0195249Y0021090D01*
X0195374Y0021001D01*
X0195496Y0020908D01*
X0195615Y0020812D01*
X0195733Y0020713D01*
X0195847Y0020612D01*
X0195959Y0020507D01*
X0196068Y0020399D01*
X0196174Y0020288D01*
X0196278Y0020175D01*
X0196378Y0020059D01*
X0196476Y0019941D01*
X0196570Y0019820D01*
X0196661Y0019697D01*
X0196749Y0019571D01*
X0196833Y0019443D01*
X0196915Y0019313D01*
X0196992Y0019181D01*
X0197067Y0019047D01*
X0197138Y0018911D01*
X0197205Y0018773D01*
X0197269Y0018633D01*
X0197329Y0018492D01*
X0197385Y0018350D01*
X0197438Y0018206D01*
X0197487Y0018060D01*
X0197532Y0017914D01*
X0197573Y0017766D01*
X0197610Y0017618D01*
X0197644Y0017468D01*
X0197674Y0017317D01*
X0197699Y0017166D01*
X0197721Y0017015D01*
X0197739Y0016862D01*
X0197753Y0016710D01*
X0197763Y0016557D01*
X0197769Y0016403D01*
X0197771Y0016250D01*
X0197769Y0016097D01*
X0197763Y0015943D01*
X0197753Y0015790D01*
X0197739Y0015638D01*
X0197721Y0015485D01*
X0197699Y0015334D01*
X0197674Y0015183D01*
X0197644Y0015032D01*
X0197610Y0014882D01*
X0197573Y0014734D01*
X0197532Y0014586D01*
X0197487Y0014440D01*
X0197438Y0014294D01*
X0197385Y0014150D01*
X0197329Y0014008D01*
X0197269Y0013867D01*
X0197205Y0013727D01*
X0197138Y0013589D01*
X0197067Y0013453D01*
X0196992Y0013319D01*
X0196915Y0013187D01*
X0196833Y0013057D01*
X0196749Y0012929D01*
X0196661Y0012803D01*
X0196570Y0012680D01*
X0196476Y0012559D01*
X0196378Y0012441D01*
X0196278Y0012325D01*
X0196174Y0012212D01*
X0196068Y0012101D01*
X0195959Y0011993D01*
X0195847Y0011888D01*
X0195733Y0011787D01*
X0195615Y0011688D01*
X0195496Y0011592D01*
X0195374Y0011499D01*
X0195249Y0011410D01*
X0195122Y0011323D01*
X0194993Y0011241D01*
X0194862Y0011161D01*
X0194729Y0011085D01*
X0194594Y0011012D01*
X0194457Y0010943D01*
X0194318Y0010878D01*
X0194178Y0010816D01*
X0194036Y0010758D01*
X0193893Y0010703D01*
X0193748Y0010652D01*
X0193602Y0010605D01*
X0193455Y0010562D01*
X0193307Y0010523D01*
X0193158Y0010487D01*
X0193008Y0010456D01*
X0192857Y0010428D01*
X0192706Y0010404D01*
X0192553Y0010384D01*
X0192401Y0010368D01*
X0192248Y0010356D01*
X0192095Y0010348D01*
X0191942Y0010344D01*
X0191788Y0010344D01*
X0191635Y0010348D01*
X0191482Y0010356D01*
X0191329Y0010368D01*
X0191177Y0010384D01*
X0191024Y0010404D01*
X0190873Y0010428D01*
X0190722Y0010456D01*
X0190572Y0010487D01*
X0190423Y0010523D01*
X0190275Y0010562D01*
X0190128Y0010605D01*
X0189982Y0010652D01*
X0189837Y0010703D01*
X0189694Y0010758D01*
X0189552Y0010816D01*
X0189412Y0010878D01*
X0189273Y0010943D01*
X0189136Y0011012D01*
X0189001Y0011085D01*
X0188868Y0011161D01*
X0188737Y0011241D01*
X0188608Y0011323D01*
X0188481Y0011410D01*
X0188356Y0011499D01*
X0188234Y0011592D01*
X0188115Y0011688D01*
X0187997Y0011787D01*
X0187883Y0011888D01*
X0187771Y0011993D01*
X0187662Y0012101D01*
X0187556Y0012212D01*
X0187452Y0012325D01*
X0187352Y0012441D01*
X0187254Y0012559D01*
X0187160Y0012680D01*
X0187069Y0012803D01*
X0186981Y0012929D01*
X0186897Y0013057D01*
X0186815Y0013187D01*
X0186738Y0013319D01*
X0186663Y0013453D01*
X0186592Y0013589D01*
X0186525Y0013727D01*
X0186461Y0013867D01*
X0186401Y0014008D01*
X0186345Y0014150D01*
X0186292Y0014294D01*
X0186243Y0014440D01*
X0186198Y0014586D01*
X0186157Y0014734D01*
X0186120Y0014882D01*
X0186086Y0015032D01*
X0186056Y0015183D01*
X0186031Y0015334D01*
X0186009Y0015485D01*
X0185991Y0015638D01*
X0185977Y0015790D01*
X0185967Y0015943D01*
X0185961Y0016097D01*
X0185959Y0016250D01*
X0185959Y0045000D02*
X0185961Y0045153D01*
X0185967Y0045307D01*
X0185977Y0045460D01*
X0185991Y0045612D01*
X0186009Y0045765D01*
X0186031Y0045916D01*
X0186056Y0046067D01*
X0186086Y0046218D01*
X0186120Y0046368D01*
X0186157Y0046516D01*
X0186198Y0046664D01*
X0186243Y0046810D01*
X0186292Y0046956D01*
X0186345Y0047100D01*
X0186401Y0047242D01*
X0186461Y0047383D01*
X0186525Y0047523D01*
X0186592Y0047661D01*
X0186663Y0047797D01*
X0186738Y0047931D01*
X0186815Y0048063D01*
X0186897Y0048193D01*
X0186981Y0048321D01*
X0187069Y0048447D01*
X0187160Y0048570D01*
X0187254Y0048691D01*
X0187352Y0048809D01*
X0187452Y0048925D01*
X0187556Y0049038D01*
X0187662Y0049149D01*
X0187771Y0049257D01*
X0187883Y0049362D01*
X0187997Y0049463D01*
X0188115Y0049562D01*
X0188234Y0049658D01*
X0188356Y0049751D01*
X0188481Y0049840D01*
X0188608Y0049927D01*
X0188737Y0050009D01*
X0188868Y0050089D01*
X0189001Y0050165D01*
X0189136Y0050238D01*
X0189273Y0050307D01*
X0189412Y0050372D01*
X0189552Y0050434D01*
X0189694Y0050492D01*
X0189837Y0050547D01*
X0189982Y0050598D01*
X0190128Y0050645D01*
X0190275Y0050688D01*
X0190423Y0050727D01*
X0190572Y0050763D01*
X0190722Y0050794D01*
X0190873Y0050822D01*
X0191024Y0050846D01*
X0191177Y0050866D01*
X0191329Y0050882D01*
X0191482Y0050894D01*
X0191635Y0050902D01*
X0191788Y0050906D01*
X0191942Y0050906D01*
X0192095Y0050902D01*
X0192248Y0050894D01*
X0192401Y0050882D01*
X0192553Y0050866D01*
X0192706Y0050846D01*
X0192857Y0050822D01*
X0193008Y0050794D01*
X0193158Y0050763D01*
X0193307Y0050727D01*
X0193455Y0050688D01*
X0193602Y0050645D01*
X0193748Y0050598D01*
X0193893Y0050547D01*
X0194036Y0050492D01*
X0194178Y0050434D01*
X0194318Y0050372D01*
X0194457Y0050307D01*
X0194594Y0050238D01*
X0194729Y0050165D01*
X0194862Y0050089D01*
X0194993Y0050009D01*
X0195122Y0049927D01*
X0195249Y0049840D01*
X0195374Y0049751D01*
X0195496Y0049658D01*
X0195615Y0049562D01*
X0195733Y0049463D01*
X0195847Y0049362D01*
X0195959Y0049257D01*
X0196068Y0049149D01*
X0196174Y0049038D01*
X0196278Y0048925D01*
X0196378Y0048809D01*
X0196476Y0048691D01*
X0196570Y0048570D01*
X0196661Y0048447D01*
X0196749Y0048321D01*
X0196833Y0048193D01*
X0196915Y0048063D01*
X0196992Y0047931D01*
X0197067Y0047797D01*
X0197138Y0047661D01*
X0197205Y0047523D01*
X0197269Y0047383D01*
X0197329Y0047242D01*
X0197385Y0047100D01*
X0197438Y0046956D01*
X0197487Y0046810D01*
X0197532Y0046664D01*
X0197573Y0046516D01*
X0197610Y0046368D01*
X0197644Y0046218D01*
X0197674Y0046067D01*
X0197699Y0045916D01*
X0197721Y0045765D01*
X0197739Y0045612D01*
X0197753Y0045460D01*
X0197763Y0045307D01*
X0197769Y0045153D01*
X0197771Y0045000D01*
X0197769Y0044847D01*
X0197763Y0044693D01*
X0197753Y0044540D01*
X0197739Y0044388D01*
X0197721Y0044235D01*
X0197699Y0044084D01*
X0197674Y0043933D01*
X0197644Y0043782D01*
X0197610Y0043632D01*
X0197573Y0043484D01*
X0197532Y0043336D01*
X0197487Y0043190D01*
X0197438Y0043044D01*
X0197385Y0042900D01*
X0197329Y0042758D01*
X0197269Y0042617D01*
X0197205Y0042477D01*
X0197138Y0042339D01*
X0197067Y0042203D01*
X0196992Y0042069D01*
X0196915Y0041937D01*
X0196833Y0041807D01*
X0196749Y0041679D01*
X0196661Y0041553D01*
X0196570Y0041430D01*
X0196476Y0041309D01*
X0196378Y0041191D01*
X0196278Y0041075D01*
X0196174Y0040962D01*
X0196068Y0040851D01*
X0195959Y0040743D01*
X0195847Y0040638D01*
X0195733Y0040537D01*
X0195615Y0040438D01*
X0195496Y0040342D01*
X0195374Y0040249D01*
X0195249Y0040160D01*
X0195122Y0040073D01*
X0194993Y0039991D01*
X0194862Y0039911D01*
X0194729Y0039835D01*
X0194594Y0039762D01*
X0194457Y0039693D01*
X0194318Y0039628D01*
X0194178Y0039566D01*
X0194036Y0039508D01*
X0193893Y0039453D01*
X0193748Y0039402D01*
X0193602Y0039355D01*
X0193455Y0039312D01*
X0193307Y0039273D01*
X0193158Y0039237D01*
X0193008Y0039206D01*
X0192857Y0039178D01*
X0192706Y0039154D01*
X0192553Y0039134D01*
X0192401Y0039118D01*
X0192248Y0039106D01*
X0192095Y0039098D01*
X0191942Y0039094D01*
X0191788Y0039094D01*
X0191635Y0039098D01*
X0191482Y0039106D01*
X0191329Y0039118D01*
X0191177Y0039134D01*
X0191024Y0039154D01*
X0190873Y0039178D01*
X0190722Y0039206D01*
X0190572Y0039237D01*
X0190423Y0039273D01*
X0190275Y0039312D01*
X0190128Y0039355D01*
X0189982Y0039402D01*
X0189837Y0039453D01*
X0189694Y0039508D01*
X0189552Y0039566D01*
X0189412Y0039628D01*
X0189273Y0039693D01*
X0189136Y0039762D01*
X0189001Y0039835D01*
X0188868Y0039911D01*
X0188737Y0039991D01*
X0188608Y0040073D01*
X0188481Y0040160D01*
X0188356Y0040249D01*
X0188234Y0040342D01*
X0188115Y0040438D01*
X0187997Y0040537D01*
X0187883Y0040638D01*
X0187771Y0040743D01*
X0187662Y0040851D01*
X0187556Y0040962D01*
X0187452Y0041075D01*
X0187352Y0041191D01*
X0187254Y0041309D01*
X0187160Y0041430D01*
X0187069Y0041553D01*
X0186981Y0041679D01*
X0186897Y0041807D01*
X0186815Y0041937D01*
X0186738Y0042069D01*
X0186663Y0042203D01*
X0186592Y0042339D01*
X0186525Y0042477D01*
X0186461Y0042617D01*
X0186401Y0042758D01*
X0186345Y0042900D01*
X0186292Y0043044D01*
X0186243Y0043190D01*
X0186198Y0043336D01*
X0186157Y0043484D01*
X0186120Y0043632D01*
X0186086Y0043782D01*
X0186056Y0043933D01*
X0186031Y0044084D01*
X0186009Y0044235D01*
X0185991Y0044388D01*
X0185977Y0044540D01*
X0185967Y0044693D01*
X0185961Y0044847D01*
X0185959Y0045000D01*
X0158848Y0064532D02*
X0158850Y0064685D01*
X0158856Y0064839D01*
X0158866Y0064992D01*
X0158880Y0065144D01*
X0158898Y0065297D01*
X0158920Y0065448D01*
X0158945Y0065599D01*
X0158975Y0065750D01*
X0159009Y0065900D01*
X0159046Y0066048D01*
X0159087Y0066196D01*
X0159132Y0066342D01*
X0159181Y0066488D01*
X0159234Y0066632D01*
X0159290Y0066774D01*
X0159350Y0066915D01*
X0159414Y0067055D01*
X0159481Y0067193D01*
X0159552Y0067329D01*
X0159627Y0067463D01*
X0159704Y0067595D01*
X0159786Y0067725D01*
X0159870Y0067853D01*
X0159958Y0067979D01*
X0160049Y0068102D01*
X0160143Y0068223D01*
X0160241Y0068341D01*
X0160341Y0068457D01*
X0160445Y0068570D01*
X0160551Y0068681D01*
X0160660Y0068789D01*
X0160772Y0068894D01*
X0160886Y0068995D01*
X0161004Y0069094D01*
X0161123Y0069190D01*
X0161245Y0069283D01*
X0161370Y0069372D01*
X0161497Y0069459D01*
X0161626Y0069541D01*
X0161757Y0069621D01*
X0161890Y0069697D01*
X0162025Y0069770D01*
X0162162Y0069839D01*
X0162301Y0069904D01*
X0162441Y0069966D01*
X0162583Y0070024D01*
X0162726Y0070079D01*
X0162871Y0070130D01*
X0163017Y0070177D01*
X0163164Y0070220D01*
X0163312Y0070259D01*
X0163461Y0070295D01*
X0163611Y0070326D01*
X0163762Y0070354D01*
X0163913Y0070378D01*
X0164066Y0070398D01*
X0164218Y0070414D01*
X0164371Y0070426D01*
X0164524Y0070434D01*
X0164677Y0070438D01*
X0164831Y0070438D01*
X0164984Y0070434D01*
X0165137Y0070426D01*
X0165290Y0070414D01*
X0165442Y0070398D01*
X0165595Y0070378D01*
X0165746Y0070354D01*
X0165897Y0070326D01*
X0166047Y0070295D01*
X0166196Y0070259D01*
X0166344Y0070220D01*
X0166491Y0070177D01*
X0166637Y0070130D01*
X0166782Y0070079D01*
X0166925Y0070024D01*
X0167067Y0069966D01*
X0167207Y0069904D01*
X0167346Y0069839D01*
X0167483Y0069770D01*
X0167618Y0069697D01*
X0167751Y0069621D01*
X0167882Y0069541D01*
X0168011Y0069459D01*
X0168138Y0069372D01*
X0168263Y0069283D01*
X0168385Y0069190D01*
X0168504Y0069094D01*
X0168622Y0068995D01*
X0168736Y0068894D01*
X0168848Y0068789D01*
X0168957Y0068681D01*
X0169063Y0068570D01*
X0169167Y0068457D01*
X0169267Y0068341D01*
X0169365Y0068223D01*
X0169459Y0068102D01*
X0169550Y0067979D01*
X0169638Y0067853D01*
X0169722Y0067725D01*
X0169804Y0067595D01*
X0169881Y0067463D01*
X0169956Y0067329D01*
X0170027Y0067193D01*
X0170094Y0067055D01*
X0170158Y0066915D01*
X0170218Y0066774D01*
X0170274Y0066632D01*
X0170327Y0066488D01*
X0170376Y0066342D01*
X0170421Y0066196D01*
X0170462Y0066048D01*
X0170499Y0065900D01*
X0170533Y0065750D01*
X0170563Y0065599D01*
X0170588Y0065448D01*
X0170610Y0065297D01*
X0170628Y0065144D01*
X0170642Y0064992D01*
X0170652Y0064839D01*
X0170658Y0064685D01*
X0170660Y0064532D01*
X0170658Y0064379D01*
X0170652Y0064225D01*
X0170642Y0064072D01*
X0170628Y0063920D01*
X0170610Y0063767D01*
X0170588Y0063616D01*
X0170563Y0063465D01*
X0170533Y0063314D01*
X0170499Y0063164D01*
X0170462Y0063016D01*
X0170421Y0062868D01*
X0170376Y0062722D01*
X0170327Y0062576D01*
X0170274Y0062432D01*
X0170218Y0062290D01*
X0170158Y0062149D01*
X0170094Y0062009D01*
X0170027Y0061871D01*
X0169956Y0061735D01*
X0169881Y0061601D01*
X0169804Y0061469D01*
X0169722Y0061339D01*
X0169638Y0061211D01*
X0169550Y0061085D01*
X0169459Y0060962D01*
X0169365Y0060841D01*
X0169267Y0060723D01*
X0169167Y0060607D01*
X0169063Y0060494D01*
X0168957Y0060383D01*
X0168848Y0060275D01*
X0168736Y0060170D01*
X0168622Y0060069D01*
X0168504Y0059970D01*
X0168385Y0059874D01*
X0168263Y0059781D01*
X0168138Y0059692D01*
X0168011Y0059605D01*
X0167882Y0059523D01*
X0167751Y0059443D01*
X0167618Y0059367D01*
X0167483Y0059294D01*
X0167346Y0059225D01*
X0167207Y0059160D01*
X0167067Y0059098D01*
X0166925Y0059040D01*
X0166782Y0058985D01*
X0166637Y0058934D01*
X0166491Y0058887D01*
X0166344Y0058844D01*
X0166196Y0058805D01*
X0166047Y0058769D01*
X0165897Y0058738D01*
X0165746Y0058710D01*
X0165595Y0058686D01*
X0165442Y0058666D01*
X0165290Y0058650D01*
X0165137Y0058638D01*
X0164984Y0058630D01*
X0164831Y0058626D01*
X0164677Y0058626D01*
X0164524Y0058630D01*
X0164371Y0058638D01*
X0164218Y0058650D01*
X0164066Y0058666D01*
X0163913Y0058686D01*
X0163762Y0058710D01*
X0163611Y0058738D01*
X0163461Y0058769D01*
X0163312Y0058805D01*
X0163164Y0058844D01*
X0163017Y0058887D01*
X0162871Y0058934D01*
X0162726Y0058985D01*
X0162583Y0059040D01*
X0162441Y0059098D01*
X0162301Y0059160D01*
X0162162Y0059225D01*
X0162025Y0059294D01*
X0161890Y0059367D01*
X0161757Y0059443D01*
X0161626Y0059523D01*
X0161497Y0059605D01*
X0161370Y0059692D01*
X0161245Y0059781D01*
X0161123Y0059874D01*
X0161004Y0059970D01*
X0160886Y0060069D01*
X0160772Y0060170D01*
X0160660Y0060275D01*
X0160551Y0060383D01*
X0160445Y0060494D01*
X0160341Y0060607D01*
X0160241Y0060723D01*
X0160143Y0060841D01*
X0160049Y0060962D01*
X0159958Y0061085D01*
X0159870Y0061211D01*
X0159786Y0061339D01*
X0159704Y0061469D01*
X0159627Y0061601D01*
X0159552Y0061735D01*
X0159481Y0061871D01*
X0159414Y0062009D01*
X0159350Y0062149D01*
X0159290Y0062290D01*
X0159234Y0062432D01*
X0159181Y0062576D01*
X0159132Y0062722D01*
X0159087Y0062868D01*
X0159046Y0063016D01*
X0159009Y0063164D01*
X0158975Y0063314D01*
X0158945Y0063465D01*
X0158920Y0063616D01*
X0158898Y0063767D01*
X0158880Y0063920D01*
X0158866Y0064072D01*
X0158856Y0064225D01*
X0158850Y0064379D01*
X0158848Y0064532D01*
X0159473Y0112032D02*
X0159475Y0112185D01*
X0159481Y0112339D01*
X0159491Y0112492D01*
X0159505Y0112644D01*
X0159523Y0112797D01*
X0159545Y0112948D01*
X0159570Y0113099D01*
X0159600Y0113250D01*
X0159634Y0113400D01*
X0159671Y0113548D01*
X0159712Y0113696D01*
X0159757Y0113842D01*
X0159806Y0113988D01*
X0159859Y0114132D01*
X0159915Y0114274D01*
X0159975Y0114415D01*
X0160039Y0114555D01*
X0160106Y0114693D01*
X0160177Y0114829D01*
X0160252Y0114963D01*
X0160329Y0115095D01*
X0160411Y0115225D01*
X0160495Y0115353D01*
X0160583Y0115479D01*
X0160674Y0115602D01*
X0160768Y0115723D01*
X0160866Y0115841D01*
X0160966Y0115957D01*
X0161070Y0116070D01*
X0161176Y0116181D01*
X0161285Y0116289D01*
X0161397Y0116394D01*
X0161511Y0116495D01*
X0161629Y0116594D01*
X0161748Y0116690D01*
X0161870Y0116783D01*
X0161995Y0116872D01*
X0162122Y0116959D01*
X0162251Y0117041D01*
X0162382Y0117121D01*
X0162515Y0117197D01*
X0162650Y0117270D01*
X0162787Y0117339D01*
X0162926Y0117404D01*
X0163066Y0117466D01*
X0163208Y0117524D01*
X0163351Y0117579D01*
X0163496Y0117630D01*
X0163642Y0117677D01*
X0163789Y0117720D01*
X0163937Y0117759D01*
X0164086Y0117795D01*
X0164236Y0117826D01*
X0164387Y0117854D01*
X0164538Y0117878D01*
X0164691Y0117898D01*
X0164843Y0117914D01*
X0164996Y0117926D01*
X0165149Y0117934D01*
X0165302Y0117938D01*
X0165456Y0117938D01*
X0165609Y0117934D01*
X0165762Y0117926D01*
X0165915Y0117914D01*
X0166067Y0117898D01*
X0166220Y0117878D01*
X0166371Y0117854D01*
X0166522Y0117826D01*
X0166672Y0117795D01*
X0166821Y0117759D01*
X0166969Y0117720D01*
X0167116Y0117677D01*
X0167262Y0117630D01*
X0167407Y0117579D01*
X0167550Y0117524D01*
X0167692Y0117466D01*
X0167832Y0117404D01*
X0167971Y0117339D01*
X0168108Y0117270D01*
X0168243Y0117197D01*
X0168376Y0117121D01*
X0168507Y0117041D01*
X0168636Y0116959D01*
X0168763Y0116872D01*
X0168888Y0116783D01*
X0169010Y0116690D01*
X0169129Y0116594D01*
X0169247Y0116495D01*
X0169361Y0116394D01*
X0169473Y0116289D01*
X0169582Y0116181D01*
X0169688Y0116070D01*
X0169792Y0115957D01*
X0169892Y0115841D01*
X0169990Y0115723D01*
X0170084Y0115602D01*
X0170175Y0115479D01*
X0170263Y0115353D01*
X0170347Y0115225D01*
X0170429Y0115095D01*
X0170506Y0114963D01*
X0170581Y0114829D01*
X0170652Y0114693D01*
X0170719Y0114555D01*
X0170783Y0114415D01*
X0170843Y0114274D01*
X0170899Y0114132D01*
X0170952Y0113988D01*
X0171001Y0113842D01*
X0171046Y0113696D01*
X0171087Y0113548D01*
X0171124Y0113400D01*
X0171158Y0113250D01*
X0171188Y0113099D01*
X0171213Y0112948D01*
X0171235Y0112797D01*
X0171253Y0112644D01*
X0171267Y0112492D01*
X0171277Y0112339D01*
X0171283Y0112185D01*
X0171285Y0112032D01*
X0171283Y0111879D01*
X0171277Y0111725D01*
X0171267Y0111572D01*
X0171253Y0111420D01*
X0171235Y0111267D01*
X0171213Y0111116D01*
X0171188Y0110965D01*
X0171158Y0110814D01*
X0171124Y0110664D01*
X0171087Y0110516D01*
X0171046Y0110368D01*
X0171001Y0110222D01*
X0170952Y0110076D01*
X0170899Y0109932D01*
X0170843Y0109790D01*
X0170783Y0109649D01*
X0170719Y0109509D01*
X0170652Y0109371D01*
X0170581Y0109235D01*
X0170506Y0109101D01*
X0170429Y0108969D01*
X0170347Y0108839D01*
X0170263Y0108711D01*
X0170175Y0108585D01*
X0170084Y0108462D01*
X0169990Y0108341D01*
X0169892Y0108223D01*
X0169792Y0108107D01*
X0169688Y0107994D01*
X0169582Y0107883D01*
X0169473Y0107775D01*
X0169361Y0107670D01*
X0169247Y0107569D01*
X0169129Y0107470D01*
X0169010Y0107374D01*
X0168888Y0107281D01*
X0168763Y0107192D01*
X0168636Y0107105D01*
X0168507Y0107023D01*
X0168376Y0106943D01*
X0168243Y0106867D01*
X0168108Y0106794D01*
X0167971Y0106725D01*
X0167832Y0106660D01*
X0167692Y0106598D01*
X0167550Y0106540D01*
X0167407Y0106485D01*
X0167262Y0106434D01*
X0167116Y0106387D01*
X0166969Y0106344D01*
X0166821Y0106305D01*
X0166672Y0106269D01*
X0166522Y0106238D01*
X0166371Y0106210D01*
X0166220Y0106186D01*
X0166067Y0106166D01*
X0165915Y0106150D01*
X0165762Y0106138D01*
X0165609Y0106130D01*
X0165456Y0106126D01*
X0165302Y0106126D01*
X0165149Y0106130D01*
X0164996Y0106138D01*
X0164843Y0106150D01*
X0164691Y0106166D01*
X0164538Y0106186D01*
X0164387Y0106210D01*
X0164236Y0106238D01*
X0164086Y0106269D01*
X0163937Y0106305D01*
X0163789Y0106344D01*
X0163642Y0106387D01*
X0163496Y0106434D01*
X0163351Y0106485D01*
X0163208Y0106540D01*
X0163066Y0106598D01*
X0162926Y0106660D01*
X0162787Y0106725D01*
X0162650Y0106794D01*
X0162515Y0106867D01*
X0162382Y0106943D01*
X0162251Y0107023D01*
X0162122Y0107105D01*
X0161995Y0107192D01*
X0161870Y0107281D01*
X0161748Y0107374D01*
X0161629Y0107470D01*
X0161511Y0107569D01*
X0161397Y0107670D01*
X0161285Y0107775D01*
X0161176Y0107883D01*
X0161070Y0107994D01*
X0160966Y0108107D01*
X0160866Y0108223D01*
X0160768Y0108341D01*
X0160674Y0108462D01*
X0160583Y0108585D01*
X0160495Y0108711D01*
X0160411Y0108839D01*
X0160329Y0108969D01*
X0160252Y0109101D01*
X0160177Y0109235D01*
X0160106Y0109371D01*
X0160039Y0109509D01*
X0159975Y0109649D01*
X0159915Y0109790D01*
X0159859Y0109932D01*
X0159806Y0110076D01*
X0159757Y0110222D01*
X0159712Y0110368D01*
X0159671Y0110516D01*
X0159634Y0110664D01*
X0159600Y0110814D01*
X0159570Y0110965D01*
X0159545Y0111116D01*
X0159523Y0111267D01*
X0159505Y0111420D01*
X0159491Y0111572D01*
X0159481Y0111725D01*
X0159475Y0111879D01*
X0159473Y0112032D01*
X0089394Y0112032D02*
X0089396Y0112185D01*
X0089402Y0112339D01*
X0089412Y0112492D01*
X0089426Y0112644D01*
X0089444Y0112797D01*
X0089466Y0112948D01*
X0089491Y0113099D01*
X0089521Y0113250D01*
X0089555Y0113400D01*
X0089592Y0113548D01*
X0089633Y0113696D01*
X0089678Y0113842D01*
X0089727Y0113988D01*
X0089780Y0114132D01*
X0089836Y0114274D01*
X0089896Y0114415D01*
X0089960Y0114555D01*
X0090027Y0114693D01*
X0090098Y0114829D01*
X0090173Y0114963D01*
X0090250Y0115095D01*
X0090332Y0115225D01*
X0090416Y0115353D01*
X0090504Y0115479D01*
X0090595Y0115602D01*
X0090689Y0115723D01*
X0090787Y0115841D01*
X0090887Y0115957D01*
X0090991Y0116070D01*
X0091097Y0116181D01*
X0091206Y0116289D01*
X0091318Y0116394D01*
X0091432Y0116495D01*
X0091550Y0116594D01*
X0091669Y0116690D01*
X0091791Y0116783D01*
X0091916Y0116872D01*
X0092043Y0116959D01*
X0092172Y0117041D01*
X0092303Y0117121D01*
X0092436Y0117197D01*
X0092571Y0117270D01*
X0092708Y0117339D01*
X0092847Y0117404D01*
X0092987Y0117466D01*
X0093129Y0117524D01*
X0093272Y0117579D01*
X0093417Y0117630D01*
X0093563Y0117677D01*
X0093710Y0117720D01*
X0093858Y0117759D01*
X0094007Y0117795D01*
X0094157Y0117826D01*
X0094308Y0117854D01*
X0094459Y0117878D01*
X0094612Y0117898D01*
X0094764Y0117914D01*
X0094917Y0117926D01*
X0095070Y0117934D01*
X0095223Y0117938D01*
X0095377Y0117938D01*
X0095530Y0117934D01*
X0095683Y0117926D01*
X0095836Y0117914D01*
X0095988Y0117898D01*
X0096141Y0117878D01*
X0096292Y0117854D01*
X0096443Y0117826D01*
X0096593Y0117795D01*
X0096742Y0117759D01*
X0096890Y0117720D01*
X0097037Y0117677D01*
X0097183Y0117630D01*
X0097328Y0117579D01*
X0097471Y0117524D01*
X0097613Y0117466D01*
X0097753Y0117404D01*
X0097892Y0117339D01*
X0098029Y0117270D01*
X0098164Y0117197D01*
X0098297Y0117121D01*
X0098428Y0117041D01*
X0098557Y0116959D01*
X0098684Y0116872D01*
X0098809Y0116783D01*
X0098931Y0116690D01*
X0099050Y0116594D01*
X0099168Y0116495D01*
X0099282Y0116394D01*
X0099394Y0116289D01*
X0099503Y0116181D01*
X0099609Y0116070D01*
X0099713Y0115957D01*
X0099813Y0115841D01*
X0099911Y0115723D01*
X0100005Y0115602D01*
X0100096Y0115479D01*
X0100184Y0115353D01*
X0100268Y0115225D01*
X0100350Y0115095D01*
X0100427Y0114963D01*
X0100502Y0114829D01*
X0100573Y0114693D01*
X0100640Y0114555D01*
X0100704Y0114415D01*
X0100764Y0114274D01*
X0100820Y0114132D01*
X0100873Y0113988D01*
X0100922Y0113842D01*
X0100967Y0113696D01*
X0101008Y0113548D01*
X0101045Y0113400D01*
X0101079Y0113250D01*
X0101109Y0113099D01*
X0101134Y0112948D01*
X0101156Y0112797D01*
X0101174Y0112644D01*
X0101188Y0112492D01*
X0101198Y0112339D01*
X0101204Y0112185D01*
X0101206Y0112032D01*
X0101204Y0111879D01*
X0101198Y0111725D01*
X0101188Y0111572D01*
X0101174Y0111420D01*
X0101156Y0111267D01*
X0101134Y0111116D01*
X0101109Y0110965D01*
X0101079Y0110814D01*
X0101045Y0110664D01*
X0101008Y0110516D01*
X0100967Y0110368D01*
X0100922Y0110222D01*
X0100873Y0110076D01*
X0100820Y0109932D01*
X0100764Y0109790D01*
X0100704Y0109649D01*
X0100640Y0109509D01*
X0100573Y0109371D01*
X0100502Y0109235D01*
X0100427Y0109101D01*
X0100350Y0108969D01*
X0100268Y0108839D01*
X0100184Y0108711D01*
X0100096Y0108585D01*
X0100005Y0108462D01*
X0099911Y0108341D01*
X0099813Y0108223D01*
X0099713Y0108107D01*
X0099609Y0107994D01*
X0099503Y0107883D01*
X0099394Y0107775D01*
X0099282Y0107670D01*
X0099168Y0107569D01*
X0099050Y0107470D01*
X0098931Y0107374D01*
X0098809Y0107281D01*
X0098684Y0107192D01*
X0098557Y0107105D01*
X0098428Y0107023D01*
X0098297Y0106943D01*
X0098164Y0106867D01*
X0098029Y0106794D01*
X0097892Y0106725D01*
X0097753Y0106660D01*
X0097613Y0106598D01*
X0097471Y0106540D01*
X0097328Y0106485D01*
X0097183Y0106434D01*
X0097037Y0106387D01*
X0096890Y0106344D01*
X0096742Y0106305D01*
X0096593Y0106269D01*
X0096443Y0106238D01*
X0096292Y0106210D01*
X0096141Y0106186D01*
X0095988Y0106166D01*
X0095836Y0106150D01*
X0095683Y0106138D01*
X0095530Y0106130D01*
X0095377Y0106126D01*
X0095223Y0106126D01*
X0095070Y0106130D01*
X0094917Y0106138D01*
X0094764Y0106150D01*
X0094612Y0106166D01*
X0094459Y0106186D01*
X0094308Y0106210D01*
X0094157Y0106238D01*
X0094007Y0106269D01*
X0093858Y0106305D01*
X0093710Y0106344D01*
X0093563Y0106387D01*
X0093417Y0106434D01*
X0093272Y0106485D01*
X0093129Y0106540D01*
X0092987Y0106598D01*
X0092847Y0106660D01*
X0092708Y0106725D01*
X0092571Y0106794D01*
X0092436Y0106867D01*
X0092303Y0106943D01*
X0092172Y0107023D01*
X0092043Y0107105D01*
X0091916Y0107192D01*
X0091791Y0107281D01*
X0091669Y0107374D01*
X0091550Y0107470D01*
X0091432Y0107569D01*
X0091318Y0107670D01*
X0091206Y0107775D01*
X0091097Y0107883D01*
X0090991Y0107994D01*
X0090887Y0108107D01*
X0090787Y0108223D01*
X0090689Y0108341D01*
X0090595Y0108462D01*
X0090504Y0108585D01*
X0090416Y0108711D01*
X0090332Y0108839D01*
X0090250Y0108969D01*
X0090173Y0109101D01*
X0090098Y0109235D01*
X0090027Y0109371D01*
X0089960Y0109509D01*
X0089896Y0109649D01*
X0089836Y0109790D01*
X0089780Y0109932D01*
X0089727Y0110076D01*
X0089678Y0110222D01*
X0089633Y0110368D01*
X0089592Y0110516D01*
X0089555Y0110664D01*
X0089521Y0110814D01*
X0089491Y0110965D01*
X0089466Y0111116D01*
X0089444Y0111267D01*
X0089426Y0111420D01*
X0089412Y0111572D01*
X0089402Y0111725D01*
X0089396Y0111879D01*
X0089394Y0112032D01*
X0088769Y0064532D02*
X0088771Y0064685D01*
X0088777Y0064839D01*
X0088787Y0064992D01*
X0088801Y0065144D01*
X0088819Y0065297D01*
X0088841Y0065448D01*
X0088866Y0065599D01*
X0088896Y0065750D01*
X0088930Y0065900D01*
X0088967Y0066048D01*
X0089008Y0066196D01*
X0089053Y0066342D01*
X0089102Y0066488D01*
X0089155Y0066632D01*
X0089211Y0066774D01*
X0089271Y0066915D01*
X0089335Y0067055D01*
X0089402Y0067193D01*
X0089473Y0067329D01*
X0089548Y0067463D01*
X0089625Y0067595D01*
X0089707Y0067725D01*
X0089791Y0067853D01*
X0089879Y0067979D01*
X0089970Y0068102D01*
X0090064Y0068223D01*
X0090162Y0068341D01*
X0090262Y0068457D01*
X0090366Y0068570D01*
X0090472Y0068681D01*
X0090581Y0068789D01*
X0090693Y0068894D01*
X0090807Y0068995D01*
X0090925Y0069094D01*
X0091044Y0069190D01*
X0091166Y0069283D01*
X0091291Y0069372D01*
X0091418Y0069459D01*
X0091547Y0069541D01*
X0091678Y0069621D01*
X0091811Y0069697D01*
X0091946Y0069770D01*
X0092083Y0069839D01*
X0092222Y0069904D01*
X0092362Y0069966D01*
X0092504Y0070024D01*
X0092647Y0070079D01*
X0092792Y0070130D01*
X0092938Y0070177D01*
X0093085Y0070220D01*
X0093233Y0070259D01*
X0093382Y0070295D01*
X0093532Y0070326D01*
X0093683Y0070354D01*
X0093834Y0070378D01*
X0093987Y0070398D01*
X0094139Y0070414D01*
X0094292Y0070426D01*
X0094445Y0070434D01*
X0094598Y0070438D01*
X0094752Y0070438D01*
X0094905Y0070434D01*
X0095058Y0070426D01*
X0095211Y0070414D01*
X0095363Y0070398D01*
X0095516Y0070378D01*
X0095667Y0070354D01*
X0095818Y0070326D01*
X0095968Y0070295D01*
X0096117Y0070259D01*
X0096265Y0070220D01*
X0096412Y0070177D01*
X0096558Y0070130D01*
X0096703Y0070079D01*
X0096846Y0070024D01*
X0096988Y0069966D01*
X0097128Y0069904D01*
X0097267Y0069839D01*
X0097404Y0069770D01*
X0097539Y0069697D01*
X0097672Y0069621D01*
X0097803Y0069541D01*
X0097932Y0069459D01*
X0098059Y0069372D01*
X0098184Y0069283D01*
X0098306Y0069190D01*
X0098425Y0069094D01*
X0098543Y0068995D01*
X0098657Y0068894D01*
X0098769Y0068789D01*
X0098878Y0068681D01*
X0098984Y0068570D01*
X0099088Y0068457D01*
X0099188Y0068341D01*
X0099286Y0068223D01*
X0099380Y0068102D01*
X0099471Y0067979D01*
X0099559Y0067853D01*
X0099643Y0067725D01*
X0099725Y0067595D01*
X0099802Y0067463D01*
X0099877Y0067329D01*
X0099948Y0067193D01*
X0100015Y0067055D01*
X0100079Y0066915D01*
X0100139Y0066774D01*
X0100195Y0066632D01*
X0100248Y0066488D01*
X0100297Y0066342D01*
X0100342Y0066196D01*
X0100383Y0066048D01*
X0100420Y0065900D01*
X0100454Y0065750D01*
X0100484Y0065599D01*
X0100509Y0065448D01*
X0100531Y0065297D01*
X0100549Y0065144D01*
X0100563Y0064992D01*
X0100573Y0064839D01*
X0100579Y0064685D01*
X0100581Y0064532D01*
X0100579Y0064379D01*
X0100573Y0064225D01*
X0100563Y0064072D01*
X0100549Y0063920D01*
X0100531Y0063767D01*
X0100509Y0063616D01*
X0100484Y0063465D01*
X0100454Y0063314D01*
X0100420Y0063164D01*
X0100383Y0063016D01*
X0100342Y0062868D01*
X0100297Y0062722D01*
X0100248Y0062576D01*
X0100195Y0062432D01*
X0100139Y0062290D01*
X0100079Y0062149D01*
X0100015Y0062009D01*
X0099948Y0061871D01*
X0099877Y0061735D01*
X0099802Y0061601D01*
X0099725Y0061469D01*
X0099643Y0061339D01*
X0099559Y0061211D01*
X0099471Y0061085D01*
X0099380Y0060962D01*
X0099286Y0060841D01*
X0099188Y0060723D01*
X0099088Y0060607D01*
X0098984Y0060494D01*
X0098878Y0060383D01*
X0098769Y0060275D01*
X0098657Y0060170D01*
X0098543Y0060069D01*
X0098425Y0059970D01*
X0098306Y0059874D01*
X0098184Y0059781D01*
X0098059Y0059692D01*
X0097932Y0059605D01*
X0097803Y0059523D01*
X0097672Y0059443D01*
X0097539Y0059367D01*
X0097404Y0059294D01*
X0097267Y0059225D01*
X0097128Y0059160D01*
X0096988Y0059098D01*
X0096846Y0059040D01*
X0096703Y0058985D01*
X0096558Y0058934D01*
X0096412Y0058887D01*
X0096265Y0058844D01*
X0096117Y0058805D01*
X0095968Y0058769D01*
X0095818Y0058738D01*
X0095667Y0058710D01*
X0095516Y0058686D01*
X0095363Y0058666D01*
X0095211Y0058650D01*
X0095058Y0058638D01*
X0094905Y0058630D01*
X0094752Y0058626D01*
X0094598Y0058626D01*
X0094445Y0058630D01*
X0094292Y0058638D01*
X0094139Y0058650D01*
X0093987Y0058666D01*
X0093834Y0058686D01*
X0093683Y0058710D01*
X0093532Y0058738D01*
X0093382Y0058769D01*
X0093233Y0058805D01*
X0093085Y0058844D01*
X0092938Y0058887D01*
X0092792Y0058934D01*
X0092647Y0058985D01*
X0092504Y0059040D01*
X0092362Y0059098D01*
X0092222Y0059160D01*
X0092083Y0059225D01*
X0091946Y0059294D01*
X0091811Y0059367D01*
X0091678Y0059443D01*
X0091547Y0059523D01*
X0091418Y0059605D01*
X0091291Y0059692D01*
X0091166Y0059781D01*
X0091044Y0059874D01*
X0090925Y0059970D01*
X0090807Y0060069D01*
X0090693Y0060170D01*
X0090581Y0060275D01*
X0090472Y0060383D01*
X0090366Y0060494D01*
X0090262Y0060607D01*
X0090162Y0060723D01*
X0090064Y0060841D01*
X0089970Y0060962D01*
X0089879Y0061085D01*
X0089791Y0061211D01*
X0089707Y0061339D01*
X0089625Y0061469D01*
X0089548Y0061601D01*
X0089473Y0061735D01*
X0089402Y0061871D01*
X0089335Y0062009D01*
X0089271Y0062149D01*
X0089211Y0062290D01*
X0089155Y0062432D01*
X0089102Y0062576D01*
X0089053Y0062722D01*
X0089008Y0062868D01*
X0088967Y0063016D01*
X0088930Y0063164D01*
X0088896Y0063314D01*
X0088866Y0063465D01*
X0088841Y0063616D01*
X0088819Y0063767D01*
X0088801Y0063920D01*
X0088787Y0064072D01*
X0088777Y0064225D01*
X0088771Y0064379D01*
X0088769Y0064532D01*
X0087594Y0213740D02*
X0087596Y0213893D01*
X0087602Y0214047D01*
X0087612Y0214200D01*
X0087626Y0214352D01*
X0087644Y0214505D01*
X0087666Y0214656D01*
X0087691Y0214807D01*
X0087721Y0214958D01*
X0087755Y0215108D01*
X0087792Y0215256D01*
X0087833Y0215404D01*
X0087878Y0215550D01*
X0087927Y0215696D01*
X0087980Y0215840D01*
X0088036Y0215982D01*
X0088096Y0216123D01*
X0088160Y0216263D01*
X0088227Y0216401D01*
X0088298Y0216537D01*
X0088373Y0216671D01*
X0088450Y0216803D01*
X0088532Y0216933D01*
X0088616Y0217061D01*
X0088704Y0217187D01*
X0088795Y0217310D01*
X0088889Y0217431D01*
X0088987Y0217549D01*
X0089087Y0217665D01*
X0089191Y0217778D01*
X0089297Y0217889D01*
X0089406Y0217997D01*
X0089518Y0218102D01*
X0089632Y0218203D01*
X0089750Y0218302D01*
X0089869Y0218398D01*
X0089991Y0218491D01*
X0090116Y0218580D01*
X0090243Y0218667D01*
X0090372Y0218749D01*
X0090503Y0218829D01*
X0090636Y0218905D01*
X0090771Y0218978D01*
X0090908Y0219047D01*
X0091047Y0219112D01*
X0091187Y0219174D01*
X0091329Y0219232D01*
X0091472Y0219287D01*
X0091617Y0219338D01*
X0091763Y0219385D01*
X0091910Y0219428D01*
X0092058Y0219467D01*
X0092207Y0219503D01*
X0092357Y0219534D01*
X0092508Y0219562D01*
X0092659Y0219586D01*
X0092812Y0219606D01*
X0092964Y0219622D01*
X0093117Y0219634D01*
X0093270Y0219642D01*
X0093423Y0219646D01*
X0093577Y0219646D01*
X0093730Y0219642D01*
X0093883Y0219634D01*
X0094036Y0219622D01*
X0094188Y0219606D01*
X0094341Y0219586D01*
X0094492Y0219562D01*
X0094643Y0219534D01*
X0094793Y0219503D01*
X0094942Y0219467D01*
X0095090Y0219428D01*
X0095237Y0219385D01*
X0095383Y0219338D01*
X0095528Y0219287D01*
X0095671Y0219232D01*
X0095813Y0219174D01*
X0095953Y0219112D01*
X0096092Y0219047D01*
X0096229Y0218978D01*
X0096364Y0218905D01*
X0096497Y0218829D01*
X0096628Y0218749D01*
X0096757Y0218667D01*
X0096884Y0218580D01*
X0097009Y0218491D01*
X0097131Y0218398D01*
X0097250Y0218302D01*
X0097368Y0218203D01*
X0097482Y0218102D01*
X0097594Y0217997D01*
X0097703Y0217889D01*
X0097809Y0217778D01*
X0097913Y0217665D01*
X0098013Y0217549D01*
X0098111Y0217431D01*
X0098205Y0217310D01*
X0098296Y0217187D01*
X0098384Y0217061D01*
X0098468Y0216933D01*
X0098550Y0216803D01*
X0098627Y0216671D01*
X0098702Y0216537D01*
X0098773Y0216401D01*
X0098840Y0216263D01*
X0098904Y0216123D01*
X0098964Y0215982D01*
X0099020Y0215840D01*
X0099073Y0215696D01*
X0099122Y0215550D01*
X0099167Y0215404D01*
X0099208Y0215256D01*
X0099245Y0215108D01*
X0099279Y0214958D01*
X0099309Y0214807D01*
X0099334Y0214656D01*
X0099356Y0214505D01*
X0099374Y0214352D01*
X0099388Y0214200D01*
X0099398Y0214047D01*
X0099404Y0213893D01*
X0099406Y0213740D01*
X0099404Y0213587D01*
X0099398Y0213433D01*
X0099388Y0213280D01*
X0099374Y0213128D01*
X0099356Y0212975D01*
X0099334Y0212824D01*
X0099309Y0212673D01*
X0099279Y0212522D01*
X0099245Y0212372D01*
X0099208Y0212224D01*
X0099167Y0212076D01*
X0099122Y0211930D01*
X0099073Y0211784D01*
X0099020Y0211640D01*
X0098964Y0211498D01*
X0098904Y0211357D01*
X0098840Y0211217D01*
X0098773Y0211079D01*
X0098702Y0210943D01*
X0098627Y0210809D01*
X0098550Y0210677D01*
X0098468Y0210547D01*
X0098384Y0210419D01*
X0098296Y0210293D01*
X0098205Y0210170D01*
X0098111Y0210049D01*
X0098013Y0209931D01*
X0097913Y0209815D01*
X0097809Y0209702D01*
X0097703Y0209591D01*
X0097594Y0209483D01*
X0097482Y0209378D01*
X0097368Y0209277D01*
X0097250Y0209178D01*
X0097131Y0209082D01*
X0097009Y0208989D01*
X0096884Y0208900D01*
X0096757Y0208813D01*
X0096628Y0208731D01*
X0096497Y0208651D01*
X0096364Y0208575D01*
X0096229Y0208502D01*
X0096092Y0208433D01*
X0095953Y0208368D01*
X0095813Y0208306D01*
X0095671Y0208248D01*
X0095528Y0208193D01*
X0095383Y0208142D01*
X0095237Y0208095D01*
X0095090Y0208052D01*
X0094942Y0208013D01*
X0094793Y0207977D01*
X0094643Y0207946D01*
X0094492Y0207918D01*
X0094341Y0207894D01*
X0094188Y0207874D01*
X0094036Y0207858D01*
X0093883Y0207846D01*
X0093730Y0207838D01*
X0093577Y0207834D01*
X0093423Y0207834D01*
X0093270Y0207838D01*
X0093117Y0207846D01*
X0092964Y0207858D01*
X0092812Y0207874D01*
X0092659Y0207894D01*
X0092508Y0207918D01*
X0092357Y0207946D01*
X0092207Y0207977D01*
X0092058Y0208013D01*
X0091910Y0208052D01*
X0091763Y0208095D01*
X0091617Y0208142D01*
X0091472Y0208193D01*
X0091329Y0208248D01*
X0091187Y0208306D01*
X0091047Y0208368D01*
X0090908Y0208433D01*
X0090771Y0208502D01*
X0090636Y0208575D01*
X0090503Y0208651D01*
X0090372Y0208731D01*
X0090243Y0208813D01*
X0090116Y0208900D01*
X0089991Y0208989D01*
X0089869Y0209082D01*
X0089750Y0209178D01*
X0089632Y0209277D01*
X0089518Y0209378D01*
X0089406Y0209483D01*
X0089297Y0209591D01*
X0089191Y0209702D01*
X0089087Y0209815D01*
X0088987Y0209931D01*
X0088889Y0210049D01*
X0088795Y0210170D01*
X0088704Y0210293D01*
X0088616Y0210419D01*
X0088532Y0210547D01*
X0088450Y0210677D01*
X0088373Y0210809D01*
X0088298Y0210943D01*
X0088227Y0211079D01*
X0088160Y0211217D01*
X0088096Y0211357D01*
X0088036Y0211498D01*
X0087980Y0211640D01*
X0087927Y0211784D01*
X0087878Y0211930D01*
X0087833Y0212076D01*
X0087792Y0212224D01*
X0087755Y0212372D01*
X0087721Y0212522D01*
X0087691Y0212673D01*
X0087666Y0212824D01*
X0087644Y0212975D01*
X0087626Y0213128D01*
X0087612Y0213280D01*
X0087602Y0213433D01*
X0087596Y0213587D01*
X0087594Y0213740D01*
X0120594Y0213740D02*
X0120596Y0213893D01*
X0120602Y0214047D01*
X0120612Y0214200D01*
X0120626Y0214352D01*
X0120644Y0214505D01*
X0120666Y0214656D01*
X0120691Y0214807D01*
X0120721Y0214958D01*
X0120755Y0215108D01*
X0120792Y0215256D01*
X0120833Y0215404D01*
X0120878Y0215550D01*
X0120927Y0215696D01*
X0120980Y0215840D01*
X0121036Y0215982D01*
X0121096Y0216123D01*
X0121160Y0216263D01*
X0121227Y0216401D01*
X0121298Y0216537D01*
X0121373Y0216671D01*
X0121450Y0216803D01*
X0121532Y0216933D01*
X0121616Y0217061D01*
X0121704Y0217187D01*
X0121795Y0217310D01*
X0121889Y0217431D01*
X0121987Y0217549D01*
X0122087Y0217665D01*
X0122191Y0217778D01*
X0122297Y0217889D01*
X0122406Y0217997D01*
X0122518Y0218102D01*
X0122632Y0218203D01*
X0122750Y0218302D01*
X0122869Y0218398D01*
X0122991Y0218491D01*
X0123116Y0218580D01*
X0123243Y0218667D01*
X0123372Y0218749D01*
X0123503Y0218829D01*
X0123636Y0218905D01*
X0123771Y0218978D01*
X0123908Y0219047D01*
X0124047Y0219112D01*
X0124187Y0219174D01*
X0124329Y0219232D01*
X0124472Y0219287D01*
X0124617Y0219338D01*
X0124763Y0219385D01*
X0124910Y0219428D01*
X0125058Y0219467D01*
X0125207Y0219503D01*
X0125357Y0219534D01*
X0125508Y0219562D01*
X0125659Y0219586D01*
X0125812Y0219606D01*
X0125964Y0219622D01*
X0126117Y0219634D01*
X0126270Y0219642D01*
X0126423Y0219646D01*
X0126577Y0219646D01*
X0126730Y0219642D01*
X0126883Y0219634D01*
X0127036Y0219622D01*
X0127188Y0219606D01*
X0127341Y0219586D01*
X0127492Y0219562D01*
X0127643Y0219534D01*
X0127793Y0219503D01*
X0127942Y0219467D01*
X0128090Y0219428D01*
X0128237Y0219385D01*
X0128383Y0219338D01*
X0128528Y0219287D01*
X0128671Y0219232D01*
X0128813Y0219174D01*
X0128953Y0219112D01*
X0129092Y0219047D01*
X0129229Y0218978D01*
X0129364Y0218905D01*
X0129497Y0218829D01*
X0129628Y0218749D01*
X0129757Y0218667D01*
X0129884Y0218580D01*
X0130009Y0218491D01*
X0130131Y0218398D01*
X0130250Y0218302D01*
X0130368Y0218203D01*
X0130482Y0218102D01*
X0130594Y0217997D01*
X0130703Y0217889D01*
X0130809Y0217778D01*
X0130913Y0217665D01*
X0131013Y0217549D01*
X0131111Y0217431D01*
X0131205Y0217310D01*
X0131296Y0217187D01*
X0131384Y0217061D01*
X0131468Y0216933D01*
X0131550Y0216803D01*
X0131627Y0216671D01*
X0131702Y0216537D01*
X0131773Y0216401D01*
X0131840Y0216263D01*
X0131904Y0216123D01*
X0131964Y0215982D01*
X0132020Y0215840D01*
X0132073Y0215696D01*
X0132122Y0215550D01*
X0132167Y0215404D01*
X0132208Y0215256D01*
X0132245Y0215108D01*
X0132279Y0214958D01*
X0132309Y0214807D01*
X0132334Y0214656D01*
X0132356Y0214505D01*
X0132374Y0214352D01*
X0132388Y0214200D01*
X0132398Y0214047D01*
X0132404Y0213893D01*
X0132406Y0213740D01*
X0132404Y0213587D01*
X0132398Y0213433D01*
X0132388Y0213280D01*
X0132374Y0213128D01*
X0132356Y0212975D01*
X0132334Y0212824D01*
X0132309Y0212673D01*
X0132279Y0212522D01*
X0132245Y0212372D01*
X0132208Y0212224D01*
X0132167Y0212076D01*
X0132122Y0211930D01*
X0132073Y0211784D01*
X0132020Y0211640D01*
X0131964Y0211498D01*
X0131904Y0211357D01*
X0131840Y0211217D01*
X0131773Y0211079D01*
X0131702Y0210943D01*
X0131627Y0210809D01*
X0131550Y0210677D01*
X0131468Y0210547D01*
X0131384Y0210419D01*
X0131296Y0210293D01*
X0131205Y0210170D01*
X0131111Y0210049D01*
X0131013Y0209931D01*
X0130913Y0209815D01*
X0130809Y0209702D01*
X0130703Y0209591D01*
X0130594Y0209483D01*
X0130482Y0209378D01*
X0130368Y0209277D01*
X0130250Y0209178D01*
X0130131Y0209082D01*
X0130009Y0208989D01*
X0129884Y0208900D01*
X0129757Y0208813D01*
X0129628Y0208731D01*
X0129497Y0208651D01*
X0129364Y0208575D01*
X0129229Y0208502D01*
X0129092Y0208433D01*
X0128953Y0208368D01*
X0128813Y0208306D01*
X0128671Y0208248D01*
X0128528Y0208193D01*
X0128383Y0208142D01*
X0128237Y0208095D01*
X0128090Y0208052D01*
X0127942Y0208013D01*
X0127793Y0207977D01*
X0127643Y0207946D01*
X0127492Y0207918D01*
X0127341Y0207894D01*
X0127188Y0207874D01*
X0127036Y0207858D01*
X0126883Y0207846D01*
X0126730Y0207838D01*
X0126577Y0207834D01*
X0126423Y0207834D01*
X0126270Y0207838D01*
X0126117Y0207846D01*
X0125964Y0207858D01*
X0125812Y0207874D01*
X0125659Y0207894D01*
X0125508Y0207918D01*
X0125357Y0207946D01*
X0125207Y0207977D01*
X0125058Y0208013D01*
X0124910Y0208052D01*
X0124763Y0208095D01*
X0124617Y0208142D01*
X0124472Y0208193D01*
X0124329Y0208248D01*
X0124187Y0208306D01*
X0124047Y0208368D01*
X0123908Y0208433D01*
X0123771Y0208502D01*
X0123636Y0208575D01*
X0123503Y0208651D01*
X0123372Y0208731D01*
X0123243Y0208813D01*
X0123116Y0208900D01*
X0122991Y0208989D01*
X0122869Y0209082D01*
X0122750Y0209178D01*
X0122632Y0209277D01*
X0122518Y0209378D01*
X0122406Y0209483D01*
X0122297Y0209591D01*
X0122191Y0209702D01*
X0122087Y0209815D01*
X0121987Y0209931D01*
X0121889Y0210049D01*
X0121795Y0210170D01*
X0121704Y0210293D01*
X0121616Y0210419D01*
X0121532Y0210547D01*
X0121450Y0210677D01*
X0121373Y0210809D01*
X0121298Y0210943D01*
X0121227Y0211079D01*
X0121160Y0211217D01*
X0121096Y0211357D01*
X0121036Y0211498D01*
X0120980Y0211640D01*
X0120927Y0211784D01*
X0120878Y0211930D01*
X0120833Y0212076D01*
X0120792Y0212224D01*
X0120755Y0212372D01*
X0120721Y0212522D01*
X0120691Y0212673D01*
X0120666Y0212824D01*
X0120644Y0212975D01*
X0120626Y0213128D01*
X0120612Y0213280D01*
X0120602Y0213433D01*
X0120596Y0213587D01*
X0120594Y0213740D01*
X0147594Y0213740D02*
X0147596Y0213893D01*
X0147602Y0214047D01*
X0147612Y0214200D01*
X0147626Y0214352D01*
X0147644Y0214505D01*
X0147666Y0214656D01*
X0147691Y0214807D01*
X0147721Y0214958D01*
X0147755Y0215108D01*
X0147792Y0215256D01*
X0147833Y0215404D01*
X0147878Y0215550D01*
X0147927Y0215696D01*
X0147980Y0215840D01*
X0148036Y0215982D01*
X0148096Y0216123D01*
X0148160Y0216263D01*
X0148227Y0216401D01*
X0148298Y0216537D01*
X0148373Y0216671D01*
X0148450Y0216803D01*
X0148532Y0216933D01*
X0148616Y0217061D01*
X0148704Y0217187D01*
X0148795Y0217310D01*
X0148889Y0217431D01*
X0148987Y0217549D01*
X0149087Y0217665D01*
X0149191Y0217778D01*
X0149297Y0217889D01*
X0149406Y0217997D01*
X0149518Y0218102D01*
X0149632Y0218203D01*
X0149750Y0218302D01*
X0149869Y0218398D01*
X0149991Y0218491D01*
X0150116Y0218580D01*
X0150243Y0218667D01*
X0150372Y0218749D01*
X0150503Y0218829D01*
X0150636Y0218905D01*
X0150771Y0218978D01*
X0150908Y0219047D01*
X0151047Y0219112D01*
X0151187Y0219174D01*
X0151329Y0219232D01*
X0151472Y0219287D01*
X0151617Y0219338D01*
X0151763Y0219385D01*
X0151910Y0219428D01*
X0152058Y0219467D01*
X0152207Y0219503D01*
X0152357Y0219534D01*
X0152508Y0219562D01*
X0152659Y0219586D01*
X0152812Y0219606D01*
X0152964Y0219622D01*
X0153117Y0219634D01*
X0153270Y0219642D01*
X0153423Y0219646D01*
X0153577Y0219646D01*
X0153730Y0219642D01*
X0153883Y0219634D01*
X0154036Y0219622D01*
X0154188Y0219606D01*
X0154341Y0219586D01*
X0154492Y0219562D01*
X0154643Y0219534D01*
X0154793Y0219503D01*
X0154942Y0219467D01*
X0155090Y0219428D01*
X0155237Y0219385D01*
X0155383Y0219338D01*
X0155528Y0219287D01*
X0155671Y0219232D01*
X0155813Y0219174D01*
X0155953Y0219112D01*
X0156092Y0219047D01*
X0156229Y0218978D01*
X0156364Y0218905D01*
X0156497Y0218829D01*
X0156628Y0218749D01*
X0156757Y0218667D01*
X0156884Y0218580D01*
X0157009Y0218491D01*
X0157131Y0218398D01*
X0157250Y0218302D01*
X0157368Y0218203D01*
X0157482Y0218102D01*
X0157594Y0217997D01*
X0157703Y0217889D01*
X0157809Y0217778D01*
X0157913Y0217665D01*
X0158013Y0217549D01*
X0158111Y0217431D01*
X0158205Y0217310D01*
X0158296Y0217187D01*
X0158384Y0217061D01*
X0158468Y0216933D01*
X0158550Y0216803D01*
X0158627Y0216671D01*
X0158702Y0216537D01*
X0158773Y0216401D01*
X0158840Y0216263D01*
X0158904Y0216123D01*
X0158964Y0215982D01*
X0159020Y0215840D01*
X0159073Y0215696D01*
X0159122Y0215550D01*
X0159167Y0215404D01*
X0159208Y0215256D01*
X0159245Y0215108D01*
X0159279Y0214958D01*
X0159309Y0214807D01*
X0159334Y0214656D01*
X0159356Y0214505D01*
X0159374Y0214352D01*
X0159388Y0214200D01*
X0159398Y0214047D01*
X0159404Y0213893D01*
X0159406Y0213740D01*
X0159404Y0213587D01*
X0159398Y0213433D01*
X0159388Y0213280D01*
X0159374Y0213128D01*
X0159356Y0212975D01*
X0159334Y0212824D01*
X0159309Y0212673D01*
X0159279Y0212522D01*
X0159245Y0212372D01*
X0159208Y0212224D01*
X0159167Y0212076D01*
X0159122Y0211930D01*
X0159073Y0211784D01*
X0159020Y0211640D01*
X0158964Y0211498D01*
X0158904Y0211357D01*
X0158840Y0211217D01*
X0158773Y0211079D01*
X0158702Y0210943D01*
X0158627Y0210809D01*
X0158550Y0210677D01*
X0158468Y0210547D01*
X0158384Y0210419D01*
X0158296Y0210293D01*
X0158205Y0210170D01*
X0158111Y0210049D01*
X0158013Y0209931D01*
X0157913Y0209815D01*
X0157809Y0209702D01*
X0157703Y0209591D01*
X0157594Y0209483D01*
X0157482Y0209378D01*
X0157368Y0209277D01*
X0157250Y0209178D01*
X0157131Y0209082D01*
X0157009Y0208989D01*
X0156884Y0208900D01*
X0156757Y0208813D01*
X0156628Y0208731D01*
X0156497Y0208651D01*
X0156364Y0208575D01*
X0156229Y0208502D01*
X0156092Y0208433D01*
X0155953Y0208368D01*
X0155813Y0208306D01*
X0155671Y0208248D01*
X0155528Y0208193D01*
X0155383Y0208142D01*
X0155237Y0208095D01*
X0155090Y0208052D01*
X0154942Y0208013D01*
X0154793Y0207977D01*
X0154643Y0207946D01*
X0154492Y0207918D01*
X0154341Y0207894D01*
X0154188Y0207874D01*
X0154036Y0207858D01*
X0153883Y0207846D01*
X0153730Y0207838D01*
X0153577Y0207834D01*
X0153423Y0207834D01*
X0153270Y0207838D01*
X0153117Y0207846D01*
X0152964Y0207858D01*
X0152812Y0207874D01*
X0152659Y0207894D01*
X0152508Y0207918D01*
X0152357Y0207946D01*
X0152207Y0207977D01*
X0152058Y0208013D01*
X0151910Y0208052D01*
X0151763Y0208095D01*
X0151617Y0208142D01*
X0151472Y0208193D01*
X0151329Y0208248D01*
X0151187Y0208306D01*
X0151047Y0208368D01*
X0150908Y0208433D01*
X0150771Y0208502D01*
X0150636Y0208575D01*
X0150503Y0208651D01*
X0150372Y0208731D01*
X0150243Y0208813D01*
X0150116Y0208900D01*
X0149991Y0208989D01*
X0149869Y0209082D01*
X0149750Y0209178D01*
X0149632Y0209277D01*
X0149518Y0209378D01*
X0149406Y0209483D01*
X0149297Y0209591D01*
X0149191Y0209702D01*
X0149087Y0209815D01*
X0148987Y0209931D01*
X0148889Y0210049D01*
X0148795Y0210170D01*
X0148704Y0210293D01*
X0148616Y0210419D01*
X0148532Y0210547D01*
X0148450Y0210677D01*
X0148373Y0210809D01*
X0148298Y0210943D01*
X0148227Y0211079D01*
X0148160Y0211217D01*
X0148096Y0211357D01*
X0148036Y0211498D01*
X0147980Y0211640D01*
X0147927Y0211784D01*
X0147878Y0211930D01*
X0147833Y0212076D01*
X0147792Y0212224D01*
X0147755Y0212372D01*
X0147721Y0212522D01*
X0147691Y0212673D01*
X0147666Y0212824D01*
X0147644Y0212975D01*
X0147626Y0213128D01*
X0147612Y0213280D01*
X0147602Y0213433D01*
X0147596Y0213587D01*
X0147594Y0213740D01*
X0180594Y0213740D02*
X0180596Y0213893D01*
X0180602Y0214047D01*
X0180612Y0214200D01*
X0180626Y0214352D01*
X0180644Y0214505D01*
X0180666Y0214656D01*
X0180691Y0214807D01*
X0180721Y0214958D01*
X0180755Y0215108D01*
X0180792Y0215256D01*
X0180833Y0215404D01*
X0180878Y0215550D01*
X0180927Y0215696D01*
X0180980Y0215840D01*
X0181036Y0215982D01*
X0181096Y0216123D01*
X0181160Y0216263D01*
X0181227Y0216401D01*
X0181298Y0216537D01*
X0181373Y0216671D01*
X0181450Y0216803D01*
X0181532Y0216933D01*
X0181616Y0217061D01*
X0181704Y0217187D01*
X0181795Y0217310D01*
X0181889Y0217431D01*
X0181987Y0217549D01*
X0182087Y0217665D01*
X0182191Y0217778D01*
X0182297Y0217889D01*
X0182406Y0217997D01*
X0182518Y0218102D01*
X0182632Y0218203D01*
X0182750Y0218302D01*
X0182869Y0218398D01*
X0182991Y0218491D01*
X0183116Y0218580D01*
X0183243Y0218667D01*
X0183372Y0218749D01*
X0183503Y0218829D01*
X0183636Y0218905D01*
X0183771Y0218978D01*
X0183908Y0219047D01*
X0184047Y0219112D01*
X0184187Y0219174D01*
X0184329Y0219232D01*
X0184472Y0219287D01*
X0184617Y0219338D01*
X0184763Y0219385D01*
X0184910Y0219428D01*
X0185058Y0219467D01*
X0185207Y0219503D01*
X0185357Y0219534D01*
X0185508Y0219562D01*
X0185659Y0219586D01*
X0185812Y0219606D01*
X0185964Y0219622D01*
X0186117Y0219634D01*
X0186270Y0219642D01*
X0186423Y0219646D01*
X0186577Y0219646D01*
X0186730Y0219642D01*
X0186883Y0219634D01*
X0187036Y0219622D01*
X0187188Y0219606D01*
X0187341Y0219586D01*
X0187492Y0219562D01*
X0187643Y0219534D01*
X0187793Y0219503D01*
X0187942Y0219467D01*
X0188090Y0219428D01*
X0188237Y0219385D01*
X0188383Y0219338D01*
X0188528Y0219287D01*
X0188671Y0219232D01*
X0188813Y0219174D01*
X0188953Y0219112D01*
X0189092Y0219047D01*
X0189229Y0218978D01*
X0189364Y0218905D01*
X0189497Y0218829D01*
X0189628Y0218749D01*
X0189757Y0218667D01*
X0189884Y0218580D01*
X0190009Y0218491D01*
X0190131Y0218398D01*
X0190250Y0218302D01*
X0190368Y0218203D01*
X0190482Y0218102D01*
X0190594Y0217997D01*
X0190703Y0217889D01*
X0190809Y0217778D01*
X0190913Y0217665D01*
X0191013Y0217549D01*
X0191111Y0217431D01*
X0191205Y0217310D01*
X0191296Y0217187D01*
X0191384Y0217061D01*
X0191468Y0216933D01*
X0191550Y0216803D01*
X0191627Y0216671D01*
X0191702Y0216537D01*
X0191773Y0216401D01*
X0191840Y0216263D01*
X0191904Y0216123D01*
X0191964Y0215982D01*
X0192020Y0215840D01*
X0192073Y0215696D01*
X0192122Y0215550D01*
X0192167Y0215404D01*
X0192208Y0215256D01*
X0192245Y0215108D01*
X0192279Y0214958D01*
X0192309Y0214807D01*
X0192334Y0214656D01*
X0192356Y0214505D01*
X0192374Y0214352D01*
X0192388Y0214200D01*
X0192398Y0214047D01*
X0192404Y0213893D01*
X0192406Y0213740D01*
X0192404Y0213587D01*
X0192398Y0213433D01*
X0192388Y0213280D01*
X0192374Y0213128D01*
X0192356Y0212975D01*
X0192334Y0212824D01*
X0192309Y0212673D01*
X0192279Y0212522D01*
X0192245Y0212372D01*
X0192208Y0212224D01*
X0192167Y0212076D01*
X0192122Y0211930D01*
X0192073Y0211784D01*
X0192020Y0211640D01*
X0191964Y0211498D01*
X0191904Y0211357D01*
X0191840Y0211217D01*
X0191773Y0211079D01*
X0191702Y0210943D01*
X0191627Y0210809D01*
X0191550Y0210677D01*
X0191468Y0210547D01*
X0191384Y0210419D01*
X0191296Y0210293D01*
X0191205Y0210170D01*
X0191111Y0210049D01*
X0191013Y0209931D01*
X0190913Y0209815D01*
X0190809Y0209702D01*
X0190703Y0209591D01*
X0190594Y0209483D01*
X0190482Y0209378D01*
X0190368Y0209277D01*
X0190250Y0209178D01*
X0190131Y0209082D01*
X0190009Y0208989D01*
X0189884Y0208900D01*
X0189757Y0208813D01*
X0189628Y0208731D01*
X0189497Y0208651D01*
X0189364Y0208575D01*
X0189229Y0208502D01*
X0189092Y0208433D01*
X0188953Y0208368D01*
X0188813Y0208306D01*
X0188671Y0208248D01*
X0188528Y0208193D01*
X0188383Y0208142D01*
X0188237Y0208095D01*
X0188090Y0208052D01*
X0187942Y0208013D01*
X0187793Y0207977D01*
X0187643Y0207946D01*
X0187492Y0207918D01*
X0187341Y0207894D01*
X0187188Y0207874D01*
X0187036Y0207858D01*
X0186883Y0207846D01*
X0186730Y0207838D01*
X0186577Y0207834D01*
X0186423Y0207834D01*
X0186270Y0207838D01*
X0186117Y0207846D01*
X0185964Y0207858D01*
X0185812Y0207874D01*
X0185659Y0207894D01*
X0185508Y0207918D01*
X0185357Y0207946D01*
X0185207Y0207977D01*
X0185058Y0208013D01*
X0184910Y0208052D01*
X0184763Y0208095D01*
X0184617Y0208142D01*
X0184472Y0208193D01*
X0184329Y0208248D01*
X0184187Y0208306D01*
X0184047Y0208368D01*
X0183908Y0208433D01*
X0183771Y0208502D01*
X0183636Y0208575D01*
X0183503Y0208651D01*
X0183372Y0208731D01*
X0183243Y0208813D01*
X0183116Y0208900D01*
X0182991Y0208989D01*
X0182869Y0209082D01*
X0182750Y0209178D01*
X0182632Y0209277D01*
X0182518Y0209378D01*
X0182406Y0209483D01*
X0182297Y0209591D01*
X0182191Y0209702D01*
X0182087Y0209815D01*
X0181987Y0209931D01*
X0181889Y0210049D01*
X0181795Y0210170D01*
X0181704Y0210293D01*
X0181616Y0210419D01*
X0181532Y0210547D01*
X0181450Y0210677D01*
X0181373Y0210809D01*
X0181298Y0210943D01*
X0181227Y0211079D01*
X0181160Y0211217D01*
X0181096Y0211357D01*
X0181036Y0211498D01*
X0180980Y0211640D01*
X0180927Y0211784D01*
X0180878Y0211930D01*
X0180833Y0212076D01*
X0180792Y0212224D01*
X0180755Y0212372D01*
X0180721Y0212522D01*
X0180691Y0212673D01*
X0180666Y0212824D01*
X0180644Y0212975D01*
X0180626Y0213128D01*
X0180612Y0213280D01*
X0180602Y0213433D01*
X0180596Y0213587D01*
X0180594Y0213740D01*
D11*
X0217500Y0230000D02*
X0217500Y0005000D01*
D12*
X0216875Y0005000D02*
X0015000Y0005000D01*
X0005000Y0015000D01*
X0005000Y0225000D01*
X0010000Y0230000D01*
X0054375Y0230000D01*
X0064375Y0240000D01*
X0198125Y0240000D01*
X0208125Y0230000D01*
X0217500Y0230000D01*
D13*
X0205000Y0220000D03*
X0205000Y0210000D03*
X0205000Y0200000D03*
X0205000Y0190000D03*
X0205000Y0180000D03*
X0205000Y0170000D03*
X0205000Y0150000D03*
X0205000Y0140000D03*
X0205000Y0130000D03*
X0205000Y0120000D03*
X0205000Y0110000D03*
X0205000Y0100000D03*
X0205000Y0090000D03*
X0205000Y0080000D03*
X0184500Y0110000D03*
X0185500Y0120000D03*
X0184500Y0130000D03*
X0122500Y0018750D03*
X0112500Y0018750D03*
X0088125Y0018750D03*
X0078125Y0018750D03*
X0015000Y0020000D03*
X0015000Y0030000D03*
X0015000Y0045000D03*
X0015000Y0055000D03*
X0015000Y0065000D03*
X0015000Y0075000D03*
X0015000Y0085000D03*
X0015000Y0095000D03*
X0015000Y0105000D03*
X0015000Y0115000D03*
X0015000Y0125000D03*
X0015000Y0135000D03*
X0015000Y0150000D03*
X0015000Y0160000D03*
X0015000Y0170000D03*
X0015000Y0180000D03*
X0015000Y0190000D03*
X0015000Y0200000D03*
X0015000Y0210000D03*
X0015000Y0220000D03*
X0025000Y0220000D03*
X0025000Y0210000D03*
D14*
X0033750Y0023750D03*
X0033750Y0013750D03*
X0063750Y0013750D03*
X0063750Y0023750D03*
D15*
X0068650Y0038750D02*
X0073850Y0038750D01*
X0073850Y0048750D02*
X0068650Y0048750D01*
X0068650Y0058750D02*
X0073850Y0058750D01*
X0073850Y0068750D02*
X0068650Y0068750D01*
X0068650Y0078750D02*
X0073850Y0078750D01*
X0073850Y0088750D02*
X0068650Y0088750D01*
X0068650Y0098750D02*
X0073850Y0098750D01*
X0073850Y0108750D02*
X0068650Y0108750D01*
X0068650Y0118750D02*
X0073850Y0118750D01*
X0073850Y0140000D02*
X0068650Y0140000D01*
X0068650Y0150000D02*
X0073850Y0150000D01*
X0073850Y0160000D02*
X0068650Y0160000D01*
X0068650Y0170000D02*
X0073850Y0170000D01*
X0073850Y0180000D02*
X0068650Y0180000D01*
X0068650Y0190000D02*
X0073850Y0190000D01*
X0073850Y0200000D02*
X0068650Y0200000D01*
X0068650Y0210000D02*
X0073850Y0210000D01*
X0073850Y0220000D02*
X0068650Y0220000D01*
X0043850Y0220000D02*
X0038650Y0220000D01*
X0038650Y0210000D02*
X0043850Y0210000D01*
X0043850Y0200000D02*
X0038650Y0200000D01*
X0038650Y0190000D02*
X0043850Y0190000D01*
X0043850Y0180000D02*
X0038650Y0180000D01*
X0038650Y0170000D02*
X0043850Y0170000D01*
X0043850Y0160000D02*
X0038650Y0160000D01*
X0038650Y0150000D02*
X0043850Y0150000D01*
X0043850Y0140000D02*
X0038650Y0140000D01*
X0038650Y0118750D02*
X0043850Y0118750D01*
X0043850Y0108750D02*
X0038650Y0108750D01*
X0038650Y0098750D02*
X0043850Y0098750D01*
X0043850Y0088750D02*
X0038650Y0088750D01*
X0038650Y0078750D02*
X0043850Y0078750D01*
X0043850Y0068750D02*
X0038650Y0068750D01*
X0038650Y0058750D02*
X0043850Y0058750D01*
X0043850Y0048750D02*
X0038650Y0048750D01*
X0038650Y0038750D02*
X0043850Y0038750D01*
D16*
X0113179Y0062721D03*
X0129715Y0062721D03*
X0146250Y0062721D03*
X0141425Y0045000D03*
X0141425Y0016250D03*
X0146250Y0084375D03*
X0129715Y0084375D03*
X0130340Y0110221D03*
X0146875Y0110221D03*
X0146875Y0131875D03*
X0130340Y0131875D03*
X0113804Y0110221D03*
X0110000Y0163300D03*
X0126500Y0163300D03*
X0126500Y0185000D03*
X0110000Y0185000D03*
X0093500Y0163300D03*
X0153500Y0163300D03*
X0170000Y0163300D03*
X0186500Y0163300D03*
X0186500Y0185000D03*
X0170000Y0185000D03*
D17*
X0153500Y0185000D03*
X0113804Y0131875D03*
X0113179Y0084375D03*
X0163125Y0045000D03*
X0163125Y0016250D03*
X0093500Y0185000D03*
D18*
X0060000Y0220000D02*
X0060017Y0220181D01*
X0060039Y0220362D01*
X0060065Y0220542D01*
X0060095Y0220721D01*
X0060130Y0220899D01*
X0060169Y0221077D01*
X0060212Y0221254D01*
X0060260Y0221429D01*
X0060312Y0221604D01*
X0060368Y0221777D01*
X0060428Y0221948D01*
X0060492Y0222118D01*
X0060560Y0222287D01*
X0060633Y0222454D01*
X0060709Y0222619D01*
X0060789Y0222782D01*
X0060874Y0222943D01*
X0060962Y0223102D01*
X0061054Y0223259D01*
X0061150Y0223414D01*
X0061249Y0223566D01*
X0061352Y0223716D01*
X0061459Y0223863D01*
X0061569Y0224008D01*
X0061683Y0224150D01*
X0061800Y0224289D01*
X0061920Y0224425D01*
X0062044Y0224559D01*
X0062171Y0224689D01*
X0062301Y0224816D01*
X0062434Y0224940D01*
X0062570Y0225061D01*
X0062708Y0225179D01*
X0062850Y0225293D01*
X0062994Y0225403D01*
X0063141Y0225510D01*
X0063291Y0225614D01*
X0063443Y0225714D01*
X0063597Y0225810D01*
X0063754Y0225902D01*
X0063913Y0225991D01*
X0064074Y0226076D01*
X0064237Y0226157D01*
X0064401Y0226234D01*
X0064568Y0226306D01*
X0064736Y0226375D01*
X0064906Y0226440D01*
X0065078Y0226501D01*
X0065251Y0226557D01*
X0065425Y0226609D01*
X0065600Y0226657D01*
X0065777Y0226701D01*
X0065954Y0226741D01*
X0066133Y0226776D01*
X0066312Y0226807D01*
X0066492Y0226833D01*
X0066672Y0226855D01*
X0066853Y0226873D01*
X0067035Y0226887D01*
X0067216Y0226896D01*
X0067398Y0226900D01*
X0067580Y0226901D01*
X0067762Y0226896D01*
X0067944Y0226888D01*
X0068125Y0226875D01*
X0206823Y0226875D01*
X0206971Y0226856D01*
X0207119Y0226834D01*
X0207266Y0226808D01*
X0207413Y0226778D01*
X0207559Y0226745D01*
X0207703Y0226707D01*
X0207847Y0226666D01*
X0207990Y0226621D01*
X0208131Y0226572D01*
X0208271Y0226520D01*
X0208410Y0226463D01*
X0208547Y0226404D01*
X0208682Y0226340D01*
X0208816Y0226274D01*
X0208948Y0226203D01*
X0209078Y0226130D01*
X0209206Y0226053D01*
X0209332Y0225972D01*
X0209456Y0225889D01*
X0209578Y0225802D01*
X0209697Y0225712D01*
X0209814Y0225618D01*
X0209928Y0225522D01*
X0210040Y0225423D01*
X0210150Y0225321D01*
X0210256Y0225216D01*
X0210360Y0225109D01*
X0210461Y0224998D01*
X0210559Y0224886D01*
X0210654Y0224770D01*
X0210746Y0224652D01*
X0210835Y0224532D01*
X0210920Y0224409D01*
X0211003Y0224285D01*
X0211082Y0224158D01*
X0211158Y0224029D01*
X0211230Y0223898D01*
X0211299Y0223766D01*
X0211365Y0223631D01*
X0211427Y0223495D01*
X0211485Y0223357D01*
X0211540Y0223218D01*
X0211591Y0223078D01*
X0211638Y0222936D01*
X0211682Y0222793D01*
X0211722Y0222649D01*
X0211758Y0222504D01*
X0211790Y0222358D01*
X0211818Y0222211D01*
X0211843Y0222064D01*
X0211864Y0221915D01*
X0211881Y0221767D01*
X0211894Y0221618D01*
X0211903Y0221469D01*
X0211908Y0221319D01*
X0211909Y0221170D01*
X0211906Y0221020D01*
X0211900Y0220871D01*
X0211889Y0220722D01*
X0211875Y0220573D01*
X0211875Y0176875D01*
X0211873Y0176709D01*
X0211867Y0176543D01*
X0211857Y0176377D01*
X0211843Y0176211D01*
X0211825Y0176046D01*
X0211803Y0175882D01*
X0211777Y0175718D01*
X0211747Y0175554D01*
X0211713Y0175391D01*
X0211675Y0175230D01*
X0211634Y0175069D01*
X0211588Y0174909D01*
X0211539Y0174751D01*
X0211485Y0174593D01*
X0211428Y0174437D01*
X0211367Y0174282D01*
X0211303Y0174129D01*
X0211235Y0173978D01*
X0211163Y0173828D01*
X0211088Y0173680D01*
X0211009Y0173534D01*
X0210926Y0173390D01*
X0210840Y0173247D01*
X0210751Y0173107D01*
X0210658Y0172970D01*
X0210562Y0172834D01*
X0210463Y0172701D01*
X0210360Y0172570D01*
X0210255Y0172442D01*
X0210146Y0172316D01*
X0210034Y0172193D01*
X0209920Y0172073D01*
X0209802Y0171955D01*
X0209682Y0171841D01*
X0209559Y0171729D01*
X0209433Y0171620D01*
X0209305Y0171515D01*
X0209174Y0171412D01*
X0209041Y0171313D01*
X0208905Y0171217D01*
X0208768Y0171124D01*
X0208628Y0171035D01*
X0208485Y0170949D01*
X0208341Y0170866D01*
X0208195Y0170787D01*
X0208047Y0170712D01*
X0207897Y0170640D01*
X0207746Y0170572D01*
X0207593Y0170508D01*
X0207438Y0170447D01*
X0207282Y0170390D01*
X0207124Y0170336D01*
X0206966Y0170287D01*
X0206806Y0170241D01*
X0206645Y0170200D01*
X0206484Y0170162D01*
X0206321Y0170128D01*
X0206157Y0170098D01*
X0205993Y0170072D01*
X0205829Y0170050D01*
X0205664Y0170032D01*
X0205498Y0170018D01*
X0205332Y0170008D01*
X0205166Y0170002D01*
X0205000Y0170000D01*
X0205000Y0200000D02*
X0175000Y0200000D01*
X0060000Y0220000D02*
X0060000Y0139262D01*
X0053451Y0123451D02*
X0050885Y0120885D01*
X0045731Y0118750D02*
X0041250Y0118750D01*
X0045731Y0118750D02*
X0045904Y0118752D01*
X0046078Y0118758D01*
X0046251Y0118769D01*
X0046424Y0118783D01*
X0046596Y0118802D01*
X0046768Y0118824D01*
X0046940Y0118851D01*
X0047110Y0118882D01*
X0047280Y0118917D01*
X0047449Y0118955D01*
X0047618Y0118998D01*
X0047785Y0119045D01*
X0047950Y0119096D01*
X0048115Y0119151D01*
X0048278Y0119210D01*
X0048440Y0119272D01*
X0048600Y0119339D01*
X0048759Y0119409D01*
X0048916Y0119483D01*
X0049071Y0119560D01*
X0049224Y0119642D01*
X0049376Y0119727D01*
X0049525Y0119815D01*
X0049672Y0119907D01*
X0049817Y0120003D01*
X0049959Y0120102D01*
X0050099Y0120204D01*
X0050237Y0120309D01*
X0050372Y0120418D01*
X0050504Y0120530D01*
X0050634Y0120645D01*
X0050761Y0120764D01*
X0050885Y0120885D01*
X0053451Y0123450D02*
X0053834Y0123843D01*
X0054207Y0124245D01*
X0054571Y0124656D01*
X0054924Y0125076D01*
X0055267Y0125505D01*
X0055600Y0125942D01*
X0055921Y0126386D01*
X0056231Y0126839D01*
X0056531Y0127299D01*
X0056819Y0127766D01*
X0057095Y0128240D01*
X0057360Y0128721D01*
X0057612Y0129208D01*
X0057853Y0129701D01*
X0058082Y0130200D01*
X0058298Y0130705D01*
X0058502Y0131214D01*
X0058693Y0131729D01*
X0058871Y0132248D01*
X0059037Y0132771D01*
X0059190Y0133298D01*
X0059330Y0133829D01*
X0059457Y0134363D01*
X0059570Y0134900D01*
X0059671Y0135439D01*
X0059758Y0135981D01*
X0059832Y0136525D01*
X0059892Y0137070D01*
X0059939Y0137617D01*
X0059973Y0138165D01*
X0059993Y0138713D01*
X0060000Y0139262D01*
X0015377Y0095000D02*
X0015000Y0095000D01*
X0015000Y0095001D02*
X0015423Y0094891D01*
X0015844Y0094771D01*
X0016262Y0094641D01*
X0016676Y0094501D01*
X0017087Y0094351D01*
X0017495Y0094191D01*
X0017898Y0094022D01*
X0018297Y0093842D01*
X0018691Y0093654D01*
X0019081Y0093455D01*
X0019466Y0093248D01*
X0019846Y0093031D01*
X0020221Y0092805D01*
X0020590Y0092570D01*
X0020953Y0092326D01*
X0021311Y0092073D01*
X0021662Y0091812D01*
X0022006Y0091543D01*
X0022344Y0091265D01*
X0022676Y0090980D01*
X0023000Y0090686D01*
X0023317Y0090384D01*
X0023627Y0090076D01*
X0023929Y0089759D01*
X0024223Y0089436D01*
X0024510Y0089105D01*
X0024789Y0088768D01*
X0025059Y0088424D01*
X0025321Y0088073D01*
X0025574Y0087717D01*
X0025819Y0087354D01*
X0026055Y0086986D01*
X0026282Y0086612D01*
X0026500Y0086232D01*
X0026708Y0085848D01*
X0026908Y0085459D01*
X0027098Y0085064D01*
X0027278Y0084666D01*
X0027449Y0084263D01*
X0027609Y0083856D01*
X0027760Y0083446D01*
X0027902Y0083031D01*
X0028033Y0082614D01*
X0028154Y0082194D01*
X0028264Y0081770D01*
X0028365Y0081345D01*
X0028455Y0080917D01*
X0028535Y0080486D01*
X0028604Y0080054D01*
X0028663Y0079621D01*
X0028712Y0079186D01*
X0028750Y0078750D01*
X0037230Y0060270D02*
X0038125Y0059375D01*
X0040625Y0059375D01*
X0041250Y0058750D01*
X0037230Y0060269D02*
X0036730Y0060782D01*
X0036243Y0061307D01*
X0035769Y0061843D01*
X0035307Y0062391D01*
X0034860Y0062950D01*
X0034426Y0063520D01*
X0034006Y0064100D01*
X0033601Y0064690D01*
X0033210Y0065290D01*
X0032834Y0065900D01*
X0032474Y0066518D01*
X0032128Y0067145D01*
X0031798Y0067781D01*
X0031483Y0068424D01*
X0031185Y0069075D01*
X0030902Y0069733D01*
X0030636Y0070397D01*
X0030385Y0071068D01*
X0030152Y0071745D01*
X0029935Y0072428D01*
X0029735Y0073115D01*
X0029552Y0073808D01*
X0029385Y0074504D01*
X0029236Y0075205D01*
X0029104Y0075908D01*
X0028990Y0076615D01*
X0028893Y0077325D01*
X0028813Y0078036D01*
X0028750Y0078750D01*
X0020369Y0200000D02*
X0015000Y0200000D01*
X0020369Y0200000D02*
X0020635Y0200003D01*
X0020901Y0200013D01*
X0021167Y0200028D01*
X0021432Y0200051D01*
X0021696Y0200079D01*
X0021960Y0200114D01*
X0022223Y0200155D01*
X0022485Y0200202D01*
X0022745Y0200255D01*
X0023005Y0200315D01*
X0023263Y0200381D01*
X0023519Y0200453D01*
X0023773Y0200531D01*
X0024026Y0200615D01*
X0024276Y0200705D01*
X0024524Y0200801D01*
X0024770Y0200903D01*
X0025013Y0201010D01*
X0025254Y0201124D01*
X0025492Y0201243D01*
X0025727Y0201368D01*
X0025959Y0201498D01*
X0026188Y0201634D01*
X0026413Y0201775D01*
X0026635Y0201921D01*
X0026854Y0202073D01*
X0027069Y0202230D01*
X0027280Y0202392D01*
X0027487Y0202559D01*
X0027690Y0202731D01*
X0027889Y0202907D01*
X0028084Y0203089D01*
X0028274Y0203275D01*
X0028275Y0203275D02*
X0030184Y0205184D01*
X0030184Y0205185D02*
X0030316Y0205319D01*
X0030444Y0205457D01*
X0030569Y0205598D01*
X0030690Y0205741D01*
X0030809Y0205888D01*
X0030923Y0206037D01*
X0031034Y0206189D01*
X0031141Y0206344D01*
X0031245Y0206501D01*
X0031345Y0206660D01*
X0031441Y0206822D01*
X0031533Y0206986D01*
X0031621Y0207152D01*
X0031705Y0207321D01*
X0031786Y0207491D01*
X0031862Y0207663D01*
X0031934Y0207837D01*
X0032002Y0208012D01*
X0032065Y0208189D01*
X0032125Y0208368D01*
X0032180Y0208548D01*
X0032231Y0208729D01*
X0032277Y0208911D01*
X0032319Y0209094D01*
X0032357Y0209279D01*
X0032391Y0209464D01*
X0032420Y0209650D01*
X0032444Y0209836D01*
X0032464Y0210023D01*
X0032480Y0210211D01*
X0032491Y0210399D01*
X0032498Y0210587D01*
X0032500Y0210775D01*
X0034604Y0215854D02*
X0038750Y0220000D01*
X0041250Y0220000D01*
X0034604Y0215854D02*
X0034484Y0215732D01*
X0034368Y0215607D01*
X0034254Y0215479D01*
X0034144Y0215348D01*
X0034037Y0215215D01*
X0033933Y0215080D01*
X0033832Y0214942D01*
X0033734Y0214801D01*
X0033640Y0214658D01*
X0033550Y0214514D01*
X0033462Y0214367D01*
X0033379Y0214217D01*
X0033298Y0214066D01*
X0033222Y0213914D01*
X0033149Y0213759D01*
X0033080Y0213603D01*
X0033015Y0213445D01*
X0032953Y0213285D01*
X0032895Y0213124D01*
X0032841Y0212962D01*
X0032791Y0212799D01*
X0032745Y0212634D01*
X0032702Y0212468D01*
X0032664Y0212302D01*
X0032630Y0212134D01*
X0032599Y0211966D01*
X0032573Y0211797D01*
X0032551Y0211628D01*
X0032533Y0211458D01*
X0032518Y0211287D01*
X0032508Y0211117D01*
X0032502Y0210946D01*
X0032500Y0210775D01*
D19*
X0033755Y0202815D02*
X0033050Y0201114D01*
X0033050Y0198886D01*
X0033903Y0196828D01*
X0035478Y0195253D01*
X0036088Y0195000D01*
X0035478Y0194747D01*
X0033903Y0193172D01*
X0033050Y0191114D01*
X0033050Y0188886D01*
X0033903Y0186828D01*
X0035478Y0185253D01*
X0036088Y0185000D01*
X0035478Y0184747D01*
X0033903Y0183172D01*
X0033050Y0181114D01*
X0033050Y0178886D01*
X0033903Y0176828D01*
X0035478Y0175253D01*
X0036088Y0175000D01*
X0035478Y0174747D01*
X0033903Y0173172D01*
X0033050Y0171114D01*
X0033050Y0168886D01*
X0033903Y0166828D01*
X0035478Y0165253D01*
X0036088Y0165000D01*
X0035478Y0164747D01*
X0033903Y0163172D01*
X0033050Y0161114D01*
X0033050Y0158886D01*
X0033903Y0156828D01*
X0035478Y0155253D01*
X0036088Y0155000D01*
X0035478Y0154747D01*
X0033903Y0153172D01*
X0033050Y0151114D01*
X0033050Y0148886D01*
X0033903Y0146828D01*
X0035478Y0145253D01*
X0036724Y0144737D01*
X0036692Y0144726D01*
X0035977Y0144362D01*
X0035328Y0143890D01*
X0034760Y0143322D01*
X0034288Y0142673D01*
X0033924Y0141958D01*
X0033676Y0141194D01*
X0033550Y0140401D01*
X0033550Y0140000D01*
X0041250Y0140000D01*
X0048950Y0140000D01*
X0048950Y0140401D01*
X0048824Y0141194D01*
X0048576Y0141958D01*
X0048212Y0142673D01*
X0047740Y0143322D01*
X0047172Y0143890D01*
X0046523Y0144362D01*
X0045808Y0144726D01*
X0045776Y0144737D01*
X0047022Y0145253D01*
X0048597Y0146828D01*
X0049450Y0148886D01*
X0049450Y0151114D01*
X0048597Y0153172D01*
X0047022Y0154747D01*
X0046412Y0155000D01*
X0047022Y0155253D01*
X0048597Y0156828D01*
X0049450Y0158886D01*
X0049450Y0161114D01*
X0048597Y0163172D01*
X0047022Y0164747D01*
X0046412Y0165000D01*
X0047022Y0165253D01*
X0048597Y0166828D01*
X0049450Y0168886D01*
X0049450Y0171114D01*
X0048597Y0173172D01*
X0047022Y0174747D01*
X0046412Y0175000D01*
X0047022Y0175253D01*
X0048597Y0176828D01*
X0049450Y0178886D01*
X0049450Y0181114D01*
X0048597Y0183172D01*
X0047022Y0184747D01*
X0046412Y0185000D01*
X0047022Y0185253D01*
X0048597Y0186828D01*
X0049450Y0188886D01*
X0049450Y0191114D01*
X0048597Y0193172D01*
X0047022Y0194747D01*
X0046412Y0195000D01*
X0047022Y0195253D01*
X0048597Y0196828D01*
X0049450Y0198886D01*
X0049450Y0201114D01*
X0048597Y0203172D01*
X0047022Y0204747D01*
X0046412Y0205000D01*
X0047022Y0205253D01*
X0048597Y0206828D01*
X0049450Y0208886D01*
X0049450Y0211114D01*
X0048597Y0213172D01*
X0047022Y0214747D01*
X0046412Y0215000D01*
X0047022Y0215253D01*
X0048597Y0216828D01*
X0049450Y0218886D01*
X0049450Y0221114D01*
X0048597Y0223172D01*
X0047022Y0224747D01*
X0044964Y0225600D01*
X0037536Y0225600D01*
X0035478Y0224747D01*
X0033903Y0223172D01*
X0033050Y0221114D01*
X0033050Y0220240D01*
X0031700Y0218890D01*
X0031700Y0221333D01*
X0030680Y0223795D01*
X0028795Y0225680D01*
X0026333Y0226700D01*
X0023667Y0226700D01*
X0021205Y0225680D01*
X0020000Y0224475D01*
X0018795Y0225680D01*
X0016333Y0226700D01*
X0013667Y0226700D01*
X0011205Y0225680D01*
X0009320Y0223795D01*
X0008300Y0221333D01*
X0008300Y0218667D01*
X0009320Y0216205D01*
X0010525Y0215000D01*
X0009320Y0213795D01*
X0008300Y0211333D01*
X0008300Y0208667D01*
X0009320Y0206205D01*
X0010525Y0205000D01*
X0009320Y0203795D01*
X0008300Y0201333D01*
X0008300Y0198667D01*
X0009320Y0196205D01*
X0010525Y0195000D01*
X0009320Y0193795D01*
X0008300Y0191333D01*
X0008300Y0188667D01*
X0009320Y0186205D01*
X0010525Y0185000D01*
X0009320Y0183795D01*
X0008300Y0181333D01*
X0008300Y0178667D01*
X0009320Y0176205D01*
X0010525Y0175000D01*
X0009320Y0173795D01*
X0008300Y0171333D01*
X0008300Y0168667D01*
X0009320Y0166205D01*
X0010525Y0165000D01*
X0009320Y0163795D01*
X0008300Y0161333D01*
X0008300Y0158667D01*
X0009320Y0156205D01*
X0010525Y0155000D01*
X0009320Y0153795D01*
X0008300Y0151333D01*
X0008300Y0148667D01*
X0009320Y0146205D01*
X0011205Y0144320D01*
X0013667Y0143300D01*
X0016333Y0143300D01*
X0018795Y0144320D01*
X0020680Y0146205D01*
X0021700Y0148667D01*
X0021700Y0151333D01*
X0020680Y0153795D01*
X0019475Y0155000D01*
X0020680Y0156205D01*
X0021700Y0158667D01*
X0021700Y0161333D01*
X0020680Y0163795D01*
X0019475Y0165000D01*
X0020680Y0166205D01*
X0021700Y0168667D01*
X0021700Y0171333D01*
X0020680Y0173795D01*
X0019475Y0175000D01*
X0020680Y0176205D01*
X0021700Y0178667D01*
X0021700Y0181333D01*
X0020680Y0183795D01*
X0019475Y0185000D01*
X0020680Y0186205D01*
X0021700Y0188667D01*
X0021700Y0191333D01*
X0020680Y0193795D01*
X0019475Y0195000D01*
X0020275Y0195800D01*
X0022394Y0195800D01*
X0026306Y0196848D01*
X0029813Y0198873D01*
X0030654Y0199714D01*
X0031286Y0200346D01*
X0031835Y0200896D01*
X0032564Y0201624D01*
X0032704Y0201764D01*
X0033212Y0202273D01*
X0033755Y0202815D01*
X0031835Y0200896D02*
X0031835Y0200896D01*
X0030843Y0199903D02*
X0033050Y0199903D01*
X0033871Y0196905D02*
X0026404Y0196905D01*
X0026306Y0196848D02*
X0026306Y0196848D01*
X0029813Y0198873D02*
X0029813Y0198873D01*
X0030654Y0199714D02*
X0030654Y0199714D01*
X0034637Y0193906D02*
X0020569Y0193906D01*
X0021700Y0190908D02*
X0033050Y0190908D01*
X0033455Y0187909D02*
X0021386Y0187909D01*
X0019565Y0184911D02*
X0035872Y0184911D01*
X0033381Y0181912D02*
X0021460Y0181912D01*
X0021700Y0178914D02*
X0033050Y0178914D01*
X0034815Y0175915D02*
X0020390Y0175915D01*
X0021044Y0172917D02*
X0033797Y0172917D01*
X0033050Y0169918D02*
X0021700Y0169918D01*
X0020976Y0166920D02*
X0033865Y0166920D01*
X0034652Y0163921D02*
X0020554Y0163921D01*
X0021700Y0160923D02*
X0033050Y0160923D01*
X0033448Y0157924D02*
X0021392Y0157924D01*
X0019550Y0154926D02*
X0035908Y0154926D01*
X0033387Y0151927D02*
X0021454Y0151927D01*
X0021700Y0148929D02*
X0033050Y0148929D01*
X0034800Y0145930D02*
X0020405Y0145930D01*
X0018795Y0140680D02*
X0016333Y0141700D01*
X0013667Y0141700D01*
X0011205Y0140680D01*
X0009320Y0138795D01*
X0008300Y0136333D01*
X0008300Y0133667D01*
X0009320Y0131205D01*
X0010525Y0130000D01*
X0009320Y0128795D01*
X0008300Y0126333D01*
X0008300Y0123667D01*
X0009320Y0121205D01*
X0010525Y0120000D01*
X0009320Y0118795D01*
X0008300Y0116333D01*
X0008300Y0113667D01*
X0009320Y0111205D01*
X0010525Y0110000D01*
X0009320Y0108795D01*
X0008300Y0106333D01*
X0008300Y0103667D01*
X0009320Y0101205D01*
X0010525Y0100000D01*
X0009320Y0098795D01*
X0008300Y0096333D01*
X0008300Y0093667D01*
X0009320Y0091205D01*
X0010525Y0090000D01*
X0009320Y0088795D01*
X0008300Y0086333D01*
X0008300Y0083667D01*
X0009320Y0081205D01*
X0010878Y0079646D01*
X0010271Y0079039D01*
X0009697Y0078250D01*
X0009254Y0077380D01*
X0008953Y0076452D01*
X0008800Y0075488D01*
X0008800Y0075000D01*
X0015000Y0075000D01*
X0021200Y0075000D01*
X0021200Y0075488D01*
X0021047Y0076452D01*
X0020746Y0077380D01*
X0020303Y0078250D01*
X0019729Y0079039D01*
X0019122Y0079646D01*
X0020680Y0081205D01*
X0021700Y0083667D01*
X0021700Y0085783D01*
X0023205Y0083469D01*
X0024322Y0080166D01*
X0024562Y0078435D01*
X0024785Y0075467D01*
X0024785Y0075467D01*
X0026273Y0069703D01*
X0026273Y0069703D01*
X0028756Y0064292D01*
X0032156Y0059405D01*
X0033050Y0058510D01*
X0033050Y0057636D01*
X0033903Y0055578D01*
X0035478Y0054003D01*
X0036088Y0053750D01*
X0035478Y0053497D01*
X0033903Y0051922D01*
X0033050Y0049864D01*
X0033050Y0047636D01*
X0033903Y0045578D01*
X0035478Y0044003D01*
X0036724Y0043487D01*
X0036692Y0043476D01*
X0035977Y0043112D01*
X0035328Y0042640D01*
X0034760Y0042072D01*
X0034288Y0041423D01*
X0033924Y0040708D01*
X0033676Y0039944D01*
X0033550Y0039151D01*
X0033550Y0038750D01*
X0041250Y0038750D01*
X0048950Y0038750D01*
X0048950Y0039151D01*
X0048824Y0039944D01*
X0048576Y0040708D01*
X0048212Y0041423D01*
X0047740Y0042072D01*
X0047172Y0042640D01*
X0046523Y0043112D01*
X0045808Y0043476D01*
X0045776Y0043487D01*
X0047022Y0044003D01*
X0048597Y0045578D01*
X0049450Y0047636D01*
X0049450Y0049864D01*
X0048597Y0051922D01*
X0047022Y0053497D01*
X0046412Y0053750D01*
X0047022Y0054003D01*
X0048597Y0055578D01*
X0049450Y0057636D01*
X0049450Y0059864D01*
X0048597Y0061922D01*
X0047022Y0063497D01*
X0046412Y0063750D01*
X0047022Y0064003D01*
X0048597Y0065578D01*
X0049450Y0067636D01*
X0049450Y0069864D01*
X0048597Y0071922D01*
X0047022Y0073497D01*
X0046412Y0073750D01*
X0047022Y0074003D01*
X0048597Y0075578D01*
X0049450Y0077636D01*
X0049450Y0079864D01*
X0048597Y0081922D01*
X0047022Y0083497D01*
X0046412Y0083750D01*
X0047022Y0084003D01*
X0048597Y0085578D01*
X0049450Y0087636D01*
X0049450Y0089864D01*
X0048597Y0091922D01*
X0047022Y0093497D01*
X0046412Y0093750D01*
X0047022Y0094003D01*
X0048597Y0095578D01*
X0049450Y0097636D01*
X0049450Y0099864D01*
X0048597Y0101922D01*
X0047022Y0103497D01*
X0046412Y0103750D01*
X0047022Y0104003D01*
X0048597Y0105578D01*
X0048917Y0106350D01*
X0049068Y0106350D01*
X0052561Y0107286D01*
X0055692Y0109094D01*
X0056970Y0110372D01*
X0056970Y0110372D01*
X0056970Y0110372D01*
X0057547Y0110949D01*
X0063397Y0116799D01*
X0063903Y0115578D01*
X0065478Y0114003D01*
X0066088Y0113750D01*
X0065478Y0113497D01*
X0063903Y0111922D01*
X0063050Y0109864D01*
X0063050Y0107636D01*
X0063903Y0105578D01*
X0065478Y0104003D01*
X0066088Y0103750D01*
X0065478Y0103497D01*
X0063903Y0101922D01*
X0063050Y0099864D01*
X0063050Y0097636D01*
X0063903Y0095578D01*
X0065478Y0094003D01*
X0066088Y0093750D01*
X0065478Y0093497D01*
X0063903Y0091922D01*
X0063050Y0089864D01*
X0063050Y0087636D01*
X0063903Y0085578D01*
X0065478Y0084003D01*
X0066088Y0083750D01*
X0065478Y0083497D01*
X0063903Y0081922D01*
X0063050Y0079864D01*
X0063050Y0077636D01*
X0063903Y0075578D01*
X0065478Y0074003D01*
X0066088Y0073750D01*
X0065478Y0073497D01*
X0063903Y0071922D01*
X0063050Y0069864D01*
X0063050Y0067636D01*
X0063903Y0065578D01*
X0065478Y0064003D01*
X0066088Y0063750D01*
X0065478Y0063497D01*
X0063903Y0061922D01*
X0063050Y0059864D01*
X0063050Y0057636D01*
X0063903Y0055578D01*
X0065478Y0054003D01*
X0066088Y0053750D01*
X0065478Y0053497D01*
X0063903Y0051922D01*
X0063050Y0049864D01*
X0063050Y0047636D01*
X0063903Y0045578D01*
X0065478Y0044003D01*
X0066088Y0043750D01*
X0065478Y0043497D01*
X0063903Y0041922D01*
X0063050Y0039864D01*
X0063050Y0037636D01*
X0063863Y0035673D01*
X0063418Y0035489D01*
X0063288Y0035359D01*
X0062514Y0034972D01*
X0062514Y0034972D01*
X0060124Y0032618D01*
X0058578Y0029641D01*
X0058578Y0029641D01*
X0058346Y0028246D01*
X0057816Y0027715D01*
X0056750Y0025142D01*
X0056750Y0022358D01*
X0057816Y0019785D01*
X0058851Y0018750D01*
X0057816Y0017715D01*
X0056750Y0015142D01*
X0056750Y0012358D01*
X0057816Y0009785D01*
X0059501Y0008100D01*
X0037999Y0008100D01*
X0039684Y0009785D01*
X0040750Y0012358D01*
X0040750Y0015142D01*
X0039684Y0017715D01*
X0038649Y0018750D01*
X0039684Y0019785D01*
X0040750Y0022358D01*
X0040750Y0025142D01*
X0039684Y0027715D01*
X0037715Y0029684D01*
X0035142Y0030750D01*
X0032358Y0030750D01*
X0030101Y0029815D01*
X0021084Y0032821D01*
X0020680Y0033795D01*
X0018795Y0035680D01*
X0016333Y0036700D01*
X0013667Y0036700D01*
X0011205Y0035680D01*
X0009320Y0033795D01*
X0008300Y0031333D01*
X0008300Y0028667D01*
X0009320Y0026205D01*
X0010525Y0025000D01*
X0009320Y0023795D01*
X0008300Y0021333D01*
X0008300Y0018667D01*
X0009320Y0016205D01*
X0011205Y0014320D01*
X0013667Y0013300D01*
X0016333Y0013300D01*
X0018795Y0014320D01*
X0020680Y0016205D01*
X0021700Y0018667D01*
X0021700Y0021333D01*
X0020938Y0023172D01*
X0027290Y0021055D01*
X0027816Y0019785D01*
X0028851Y0018750D01*
X0027816Y0017715D01*
X0026750Y0015142D01*
X0026750Y0012358D01*
X0027816Y0009785D01*
X0029501Y0008100D01*
X0016284Y0008100D01*
X0008100Y0016284D01*
X0008100Y0223716D01*
X0011284Y0226900D01*
X0054992Y0226900D01*
X0056131Y0227372D01*
X0057003Y0228244D01*
X0065659Y0236900D01*
X0196841Y0236900D01*
X0202666Y0231075D01*
X0068300Y0231075D01*
X0066623Y0231215D01*
X0063007Y0230364D01*
X0059831Y0228438D01*
X0057406Y0225625D01*
X0057406Y0225625D01*
X0055969Y0222200D01*
X0055869Y0221002D01*
X0055800Y0220835D01*
X0055800Y0220175D01*
X0055745Y0219516D01*
X0055800Y0219345D01*
X0055800Y0139262D01*
X0055713Y0137482D01*
X0055018Y0133990D01*
X0053656Y0130701D01*
X0051678Y0127741D01*
X0050481Y0126421D01*
X0050168Y0126108D01*
X0049890Y0125830D01*
X0048496Y0124436D01*
X0047915Y0123855D01*
X0047915Y0123855D01*
X0047611Y0123588D01*
X0047180Y0123339D01*
X0047022Y0123497D01*
X0044964Y0124350D01*
X0037536Y0124350D01*
X0035478Y0123497D01*
X0033903Y0121922D01*
X0033050Y0119864D01*
X0033050Y0117636D01*
X0033903Y0115578D01*
X0035478Y0114003D01*
X0036088Y0113750D01*
X0035478Y0113497D01*
X0033903Y0111922D01*
X0033050Y0109864D01*
X0033050Y0107636D01*
X0033903Y0105578D01*
X0035478Y0104003D01*
X0036088Y0103750D01*
X0035478Y0103497D01*
X0033903Y0101922D01*
X0033050Y0099864D01*
X0033050Y0097636D01*
X0033903Y0095578D01*
X0035478Y0094003D01*
X0036088Y0093750D01*
X0035478Y0093497D01*
X0033903Y0091922D01*
X0033050Y0089864D01*
X0033050Y0087636D01*
X0033903Y0085578D01*
X0035478Y0084003D01*
X0036088Y0083750D01*
X0035478Y0083497D01*
X0033903Y0081922D01*
X0033050Y0079864D01*
X0033050Y0078133D01*
X0032938Y0079065D01*
X0032876Y0079898D01*
X0032876Y0079898D01*
X0032727Y0081873D01*
X0032727Y0081873D01*
X0030923Y0087210D01*
X0027851Y0091932D01*
X0023703Y0095743D01*
X0021442Y0096956D01*
X0020680Y0098795D01*
X0019475Y0100000D01*
X0020680Y0101205D01*
X0021700Y0103667D01*
X0021700Y0106333D01*
X0020680Y0108795D01*
X0019475Y0110000D01*
X0020680Y0111205D01*
X0021700Y0113667D01*
X0021700Y0116333D01*
X0020680Y0118795D01*
X0019475Y0120000D01*
X0020680Y0121205D01*
X0021700Y0123667D01*
X0021700Y0126333D01*
X0020680Y0128795D01*
X0019475Y0130000D01*
X0020680Y0131205D01*
X0021700Y0133667D01*
X0021700Y0136333D01*
X0020680Y0138795D01*
X0018795Y0140680D01*
X0019542Y0139933D02*
X0033550Y0139933D01*
X0033550Y0140000D02*
X0033550Y0139599D01*
X0033676Y0138806D01*
X0033924Y0138042D01*
X0034288Y0137327D01*
X0034760Y0136678D01*
X0035328Y0136110D01*
X0035977Y0135638D01*
X0036692Y0135274D01*
X0037456Y0135026D01*
X0038249Y0134900D01*
X0041250Y0134900D01*
X0044251Y0134900D01*
X0045044Y0135026D01*
X0045808Y0135274D01*
X0046523Y0135638D01*
X0047172Y0136110D01*
X0047740Y0136678D01*
X0048212Y0137327D01*
X0048576Y0138042D01*
X0048824Y0138806D01*
X0048950Y0139599D01*
X0048950Y0140000D01*
X0041250Y0140000D01*
X0041250Y0140000D01*
X0041250Y0134900D01*
X0041250Y0140000D01*
X0041250Y0140000D01*
X0041250Y0140000D01*
X0033550Y0140000D01*
X0034476Y0142932D02*
X0008100Y0142932D01*
X0008100Y0139933D02*
X0010458Y0139933D01*
X0008549Y0136934D02*
X0008100Y0136934D01*
X0008100Y0133936D02*
X0008300Y0133936D01*
X0008100Y0130937D02*
X0009587Y0130937D01*
X0008965Y0127939D02*
X0008100Y0127939D01*
X0008100Y0124940D02*
X0008300Y0124940D01*
X0008100Y0121942D02*
X0009015Y0121942D01*
X0009468Y0118943D02*
X0008100Y0118943D01*
X0008100Y0115945D02*
X0008300Y0115945D01*
X0008100Y0112946D02*
X0008599Y0112946D01*
X0008100Y0109948D02*
X0010473Y0109948D01*
X0008555Y0106949D02*
X0008100Y0106949D01*
X0008100Y0103951D02*
X0008300Y0103951D01*
X0008100Y0100952D02*
X0009572Y0100952D01*
X0008972Y0097954D02*
X0008100Y0097954D01*
X0008100Y0094955D02*
X0008300Y0094955D01*
X0008100Y0091957D02*
X0009008Y0091957D01*
X0009483Y0088958D02*
X0008100Y0088958D01*
X0008100Y0085960D02*
X0008300Y0085960D01*
X0008100Y0082961D02*
X0008592Y0082961D01*
X0008100Y0079963D02*
X0010562Y0079963D01*
X0009119Y0076964D02*
X0008100Y0076964D01*
X0008800Y0075000D02*
X0008800Y0074512D01*
X0008953Y0073548D01*
X0009254Y0072620D01*
X0009697Y0071750D01*
X0010271Y0070961D01*
X0010878Y0070354D01*
X0009320Y0068795D01*
X0008300Y0066333D01*
X0008300Y0063667D01*
X0009320Y0061205D01*
X0010525Y0060000D01*
X0009320Y0058795D01*
X0008300Y0056333D01*
X0008300Y0053667D01*
X0009320Y0051205D01*
X0010525Y0050000D01*
X0009320Y0048795D01*
X0008300Y0046333D01*
X0008300Y0043667D01*
X0009320Y0041205D01*
X0011205Y0039320D01*
X0013667Y0038300D01*
X0016333Y0038300D01*
X0018795Y0039320D01*
X0020680Y0041205D01*
X0021700Y0043667D01*
X0021700Y0046333D01*
X0020680Y0048795D01*
X0019475Y0050000D01*
X0020680Y0051205D01*
X0021700Y0053667D01*
X0021700Y0056333D01*
X0020680Y0058795D01*
X0019475Y0060000D01*
X0020680Y0061205D01*
X0021700Y0063667D01*
X0021700Y0066333D01*
X0020680Y0068795D01*
X0019122Y0070354D01*
X0019729Y0070961D01*
X0020303Y0071750D01*
X0020746Y0072620D01*
X0021047Y0073548D01*
X0021200Y0074512D01*
X0021200Y0075000D01*
X0015000Y0075000D01*
X0015000Y0075000D01*
X0015000Y0075000D01*
X0008800Y0075000D01*
X0008887Y0073966D02*
X0008100Y0073966D01*
X0008100Y0070967D02*
X0010266Y0070967D01*
X0008978Y0067969D02*
X0008100Y0067969D01*
X0008100Y0064970D02*
X0008300Y0064970D01*
X0008100Y0061972D02*
X0009002Y0061972D01*
X0009498Y0058973D02*
X0008100Y0058973D01*
X0008100Y0055975D02*
X0008300Y0055975D01*
X0008100Y0052976D02*
X0008586Y0052976D01*
X0008100Y0049978D02*
X0010502Y0049978D01*
X0008568Y0046979D02*
X0008100Y0046979D01*
X0008100Y0043981D02*
X0008300Y0043981D01*
X0008100Y0040982D02*
X0009543Y0040982D01*
X0008100Y0037984D02*
X0033608Y0037984D01*
X0033550Y0038349D02*
X0033676Y0037556D01*
X0033924Y0036792D01*
X0034288Y0036077D01*
X0034760Y0035428D01*
X0035328Y0034860D01*
X0035977Y0034388D01*
X0036692Y0034024D01*
X0037456Y0033776D01*
X0038249Y0033650D01*
X0041250Y0033650D01*
X0044251Y0033650D01*
X0045044Y0033776D01*
X0045808Y0034024D01*
X0046523Y0034388D01*
X0047172Y0034860D01*
X0047740Y0035428D01*
X0048212Y0036077D01*
X0048576Y0036792D01*
X0048824Y0037556D01*
X0048950Y0038349D01*
X0048950Y0038750D01*
X0041250Y0038750D01*
X0041250Y0038750D01*
X0041250Y0033650D01*
X0041250Y0038750D01*
X0041250Y0038750D01*
X0041250Y0038750D01*
X0033550Y0038750D01*
X0033550Y0038349D01*
X0034063Y0040982D02*
X0020457Y0040982D01*
X0021700Y0043981D02*
X0035531Y0043981D01*
X0033322Y0046979D02*
X0021432Y0046979D01*
X0019498Y0049978D02*
X0033097Y0049978D01*
X0034957Y0052976D02*
X0021414Y0052976D01*
X0021700Y0055975D02*
X0033738Y0055975D01*
X0032587Y0058973D02*
X0020502Y0058973D01*
X0020998Y0061972D02*
X0030370Y0061972D01*
X0028756Y0064292D02*
X0028756Y0064292D01*
X0028445Y0064970D02*
X0021700Y0064970D01*
X0021022Y0067969D02*
X0027069Y0067969D01*
X0025946Y0070967D02*
X0019734Y0070967D01*
X0021113Y0073966D02*
X0025172Y0073966D01*
X0024672Y0076964D02*
X0020881Y0076964D01*
X0019438Y0079963D02*
X0024350Y0079963D01*
X0024562Y0078435D02*
X0024562Y0078435D01*
X0023377Y0082961D02*
X0021408Y0082961D01*
X0027851Y0091932D02*
X0027851Y0091932D01*
X0027824Y0091957D02*
X0033937Y0091957D01*
X0033050Y0088958D02*
X0029786Y0088958D01*
X0030923Y0087210D02*
X0030923Y0087210D01*
X0031346Y0085960D02*
X0033744Y0085960D01*
X0034942Y0082961D02*
X0032359Y0082961D01*
X0032871Y0079963D02*
X0033091Y0079963D01*
X0047558Y0082961D02*
X0064942Y0082961D01*
X0063744Y0085960D02*
X0048756Y0085960D01*
X0049450Y0088958D02*
X0063050Y0088958D01*
X0063937Y0091957D02*
X0048563Y0091957D01*
X0047975Y0094955D02*
X0064525Y0094955D01*
X0063050Y0097954D02*
X0049450Y0097954D01*
X0048999Y0100952D02*
X0063501Y0100952D01*
X0065603Y0103951D02*
X0046897Y0103951D01*
X0051305Y0106949D02*
X0063334Y0106949D01*
X0063085Y0109948D02*
X0056546Y0109948D01*
X0055692Y0109094D02*
X0055692Y0109094D01*
X0057547Y0110949D02*
X0057547Y0110949D01*
X0059545Y0112946D02*
X0064927Y0112946D01*
X0063751Y0115945D02*
X0062543Y0115945D01*
X0052561Y0107286D02*
X0052561Y0107286D01*
X0035603Y0103951D02*
X0021700Y0103951D01*
X0020428Y0100952D02*
X0033501Y0100952D01*
X0033050Y0097954D02*
X0021028Y0097954D01*
X0023703Y0095743D02*
X0023703Y0095743D01*
X0024561Y0094955D02*
X0034525Y0094955D01*
X0033334Y0106949D02*
X0021445Y0106949D01*
X0019527Y0109948D02*
X0033085Y0109948D01*
X0034927Y0112946D02*
X0021401Y0112946D01*
X0021700Y0115945D02*
X0033750Y0115945D01*
X0033050Y0118943D02*
X0020532Y0118943D01*
X0020985Y0121942D02*
X0033922Y0121942D01*
X0021700Y0124940D02*
X0049001Y0124940D01*
X0051810Y0127939D02*
X0021035Y0127939D01*
X0020413Y0130937D02*
X0053753Y0130937D01*
X0054996Y0133936D02*
X0021700Y0133936D01*
X0021451Y0136934D02*
X0034573Y0136934D01*
X0041250Y0136934D02*
X0041250Y0136934D01*
X0041250Y0139933D02*
X0041250Y0139933D01*
X0047927Y0136934D02*
X0055604Y0136934D01*
X0055800Y0139933D02*
X0048950Y0139933D01*
X0048024Y0142932D02*
X0055800Y0142932D01*
X0055800Y0145930D02*
X0047700Y0145930D01*
X0049450Y0148929D02*
X0055800Y0148929D01*
X0055800Y0151927D02*
X0049113Y0151927D01*
X0046592Y0154926D02*
X0055800Y0154926D01*
X0055800Y0157924D02*
X0049052Y0157924D01*
X0049450Y0160923D02*
X0055800Y0160923D01*
X0055800Y0163921D02*
X0047848Y0163921D01*
X0048635Y0166920D02*
X0055800Y0166920D01*
X0055800Y0169918D02*
X0049450Y0169918D01*
X0048703Y0172917D02*
X0055800Y0172917D01*
X0055800Y0175915D02*
X0047685Y0175915D01*
X0049450Y0178914D02*
X0055800Y0178914D01*
X0055800Y0181912D02*
X0049119Y0181912D01*
X0046628Y0184911D02*
X0055800Y0184911D01*
X0055800Y0187909D02*
X0049045Y0187909D01*
X0049450Y0190908D02*
X0055800Y0190908D01*
X0055800Y0193906D02*
X0047863Y0193906D01*
X0048629Y0196905D02*
X0055800Y0196905D01*
X0055800Y0199903D02*
X0049450Y0199903D01*
X0048709Y0202902D02*
X0055800Y0202902D01*
X0055800Y0205900D02*
X0047670Y0205900D01*
X0049450Y0208899D02*
X0055800Y0208899D01*
X0055800Y0211897D02*
X0049126Y0211897D01*
X0046664Y0214896D02*
X0055800Y0214896D01*
X0055800Y0217894D02*
X0049039Y0217894D01*
X0049450Y0220893D02*
X0055824Y0220893D01*
X0055969Y0222200D02*
X0055969Y0222200D01*
X0056679Y0223891D02*
X0047878Y0223891D01*
X0058497Y0226890D02*
X0011274Y0226890D01*
X0009416Y0223891D02*
X0008275Y0223891D01*
X0008300Y0220893D02*
X0008100Y0220893D01*
X0008100Y0217894D02*
X0008620Y0217894D01*
X0008100Y0214896D02*
X0010421Y0214896D01*
X0008534Y0211897D02*
X0008100Y0211897D01*
X0008100Y0208899D02*
X0008300Y0208899D01*
X0008100Y0205900D02*
X0009625Y0205900D01*
X0008950Y0202902D02*
X0008100Y0202902D01*
X0008100Y0199903D02*
X0008300Y0199903D01*
X0008100Y0196905D02*
X0009030Y0196905D01*
X0009431Y0193906D02*
X0008100Y0193906D01*
X0008100Y0190908D02*
X0008300Y0190908D01*
X0008100Y0187909D02*
X0008614Y0187909D01*
X0008100Y0184911D02*
X0010435Y0184911D01*
X0008540Y0181912D02*
X0008100Y0181912D01*
X0008100Y0178914D02*
X0008300Y0178914D01*
X0008100Y0175915D02*
X0009610Y0175915D01*
X0008956Y0172917D02*
X0008100Y0172917D01*
X0008100Y0169918D02*
X0008300Y0169918D01*
X0008100Y0166920D02*
X0009024Y0166920D01*
X0009446Y0163921D02*
X0008100Y0163921D01*
X0008100Y0160923D02*
X0008300Y0160923D01*
X0008100Y0157924D02*
X0008608Y0157924D01*
X0008100Y0154926D02*
X0010450Y0154926D01*
X0008546Y0151927D02*
X0008100Y0151927D01*
X0008100Y0148929D02*
X0008300Y0148929D01*
X0008100Y0145930D02*
X0009595Y0145930D01*
X0049409Y0079963D02*
X0063091Y0079963D01*
X0063328Y0076964D02*
X0049172Y0076964D01*
X0046933Y0073966D02*
X0065567Y0073966D01*
X0063507Y0070967D02*
X0048993Y0070967D01*
X0049450Y0067969D02*
X0063050Y0067969D01*
X0064510Y0064970D02*
X0047990Y0064970D01*
X0048548Y0061972D02*
X0063952Y0061972D01*
X0063050Y0058973D02*
X0049450Y0058973D01*
X0048762Y0055975D02*
X0063738Y0055975D01*
X0064957Y0052976D02*
X0047543Y0052976D01*
X0049403Y0049978D02*
X0063097Y0049978D01*
X0063322Y0046979D02*
X0049178Y0046979D01*
X0046969Y0043981D02*
X0065531Y0043981D01*
X0063513Y0040982D02*
X0048437Y0040982D01*
X0048892Y0037984D02*
X0063050Y0037984D01*
X0062540Y0034985D02*
X0047298Y0034985D01*
X0041250Y0034985D02*
X0041250Y0034985D01*
X0041250Y0037984D02*
X0041250Y0037984D01*
X0035202Y0034985D02*
X0019490Y0034985D01*
X0023587Y0031987D02*
X0059796Y0031987D01*
X0060124Y0032618D02*
X0060124Y0032618D01*
X0058470Y0028988D02*
X0038411Y0028988D01*
X0040399Y0025990D02*
X0057101Y0025990D01*
X0056750Y0022991D02*
X0040750Y0022991D01*
X0039770Y0019993D02*
X0057730Y0019993D01*
X0057517Y0016994D02*
X0039983Y0016994D01*
X0040750Y0013996D02*
X0056750Y0013996D01*
X0057314Y0010997D02*
X0040186Y0010997D01*
X0027314Y0010997D02*
X0013387Y0010997D01*
X0011988Y0013996D02*
X0010389Y0013996D01*
X0008993Y0016994D02*
X0008100Y0016994D01*
X0008100Y0019993D02*
X0008300Y0019993D01*
X0008100Y0022991D02*
X0008987Y0022991D01*
X0009535Y0025990D02*
X0008100Y0025990D01*
X0008100Y0028988D02*
X0008300Y0028988D01*
X0008100Y0031987D02*
X0008571Y0031987D01*
X0008100Y0034985D02*
X0010510Y0034985D01*
X0021013Y0022991D02*
X0021480Y0022991D01*
X0021700Y0019993D02*
X0027730Y0019993D01*
X0027517Y0016994D02*
X0021007Y0016994D01*
X0018012Y0013996D02*
X0026750Y0013996D01*
X0067999Y0008100D02*
X0069684Y0009785D01*
X0070750Y0012358D01*
X0070750Y0015142D01*
X0069684Y0017715D01*
X0068649Y0018750D01*
X0069684Y0019785D01*
X0070750Y0022358D01*
X0070750Y0025142D01*
X0070291Y0026250D01*
X0073125Y0026250D01*
X0073125Y0023225D01*
X0072445Y0022545D01*
X0071425Y0020083D01*
X0071425Y0017417D01*
X0072445Y0014955D01*
X0074330Y0013070D01*
X0076792Y0012050D01*
X0079458Y0012050D01*
X0081920Y0013070D01*
X0083125Y0014275D01*
X0084330Y0013070D01*
X0086792Y0012050D01*
X0089458Y0012050D01*
X0091920Y0013070D01*
X0093805Y0014955D01*
X0094825Y0017417D01*
X0094825Y0020083D01*
X0093805Y0022545D01*
X0093125Y0023225D01*
X0093125Y0026250D01*
X0164804Y0026250D01*
X0169255Y0027443D01*
X0173245Y0029747D01*
X0173245Y0029747D01*
X0176503Y0033005D01*
X0178807Y0036995D01*
X0180000Y0041446D01*
X0180000Y0043750D01*
X0180106Y0046436D01*
X0180946Y0051741D01*
X0182606Y0056850D01*
X0185044Y0061636D01*
X0188202Y0065981D01*
X0190026Y0067955D01*
X0190029Y0067958D01*
X0191352Y0069281D01*
X0191352Y0069281D01*
X0192873Y0070802D01*
X0196366Y0076030D01*
X0198300Y0080698D01*
X0198300Y0078667D01*
X0199320Y0076205D01*
X0201205Y0074320D01*
X0203667Y0073300D01*
X0206333Y0073300D01*
X0208795Y0074320D01*
X0210680Y0076205D01*
X0211700Y0078667D01*
X0211700Y0081333D01*
X0210680Y0083795D01*
X0209475Y0085000D01*
X0210680Y0086205D01*
X0211700Y0088667D01*
X0211700Y0091333D01*
X0210680Y0093795D01*
X0209475Y0095000D01*
X0210680Y0096205D01*
X0211700Y0098667D01*
X0211700Y0101333D01*
X0210680Y0103795D01*
X0209475Y0105000D01*
X0210680Y0106205D01*
X0211700Y0108667D01*
X0211700Y0111333D01*
X0210680Y0113795D01*
X0209475Y0115000D01*
X0210680Y0116205D01*
X0211700Y0118667D01*
X0211700Y0121333D01*
X0210680Y0123795D01*
X0209122Y0125354D01*
X0209729Y0125961D01*
X0210303Y0126750D01*
X0210746Y0127620D01*
X0211047Y0128548D01*
X0211200Y0129512D01*
X0211200Y0130000D01*
X0211200Y0130488D01*
X0211047Y0131452D01*
X0210746Y0132380D01*
X0210303Y0133250D01*
X0209729Y0134039D01*
X0209039Y0134729D01*
X0208666Y0135000D01*
X0209039Y0135271D01*
X0209729Y0135961D01*
X0210303Y0136750D01*
X0210746Y0137620D01*
X0211047Y0138548D01*
X0211200Y0139512D01*
X0211200Y0140000D01*
X0211200Y0140488D01*
X0211047Y0141452D01*
X0210746Y0142380D01*
X0210303Y0143250D01*
X0209729Y0144039D01*
X0209122Y0144646D01*
X0210680Y0146205D01*
X0211700Y0148667D01*
X0211700Y0151333D01*
X0210680Y0153795D01*
X0208795Y0155680D01*
X0206333Y0156700D01*
X0203667Y0156700D01*
X0201205Y0155680D01*
X0199320Y0153795D01*
X0198300Y0151333D01*
X0198300Y0148667D01*
X0199320Y0146205D01*
X0200878Y0144646D01*
X0200271Y0144039D01*
X0199697Y0143250D01*
X0199254Y0142380D01*
X0198953Y0141452D01*
X0198800Y0140488D01*
X0198800Y0140000D01*
X0205000Y0140000D01*
X0211200Y0140000D01*
X0205000Y0140000D01*
X0205000Y0140000D01*
X0205000Y0133800D01*
X0205000Y0130000D01*
X0205000Y0130000D01*
X0211200Y0130000D01*
X0205000Y0130000D01*
X0205000Y0130000D01*
X0205000Y0140000D01*
X0205000Y0140000D01*
X0205000Y0140000D01*
X0198800Y0140000D01*
X0198800Y0139512D01*
X0198953Y0138548D01*
X0199254Y0137620D01*
X0199697Y0136750D01*
X0200271Y0135961D01*
X0200961Y0135271D01*
X0201334Y0135000D01*
X0200961Y0134729D01*
X0200271Y0134039D01*
X0199697Y0133250D01*
X0199254Y0132380D01*
X0198953Y0131452D01*
X0198800Y0130488D01*
X0198800Y0130000D01*
X0205000Y0130000D01*
X0205000Y0130000D01*
X0198800Y0130000D01*
X0198800Y0129512D01*
X0198953Y0128548D01*
X0199254Y0127620D01*
X0199697Y0126750D01*
X0200271Y0125961D01*
X0200878Y0125354D01*
X0199610Y0124085D01*
X0199210Y0123978D01*
X0195790Y0122003D01*
X0195790Y0122003D01*
X0192997Y0119210D01*
X0191022Y0115790D01*
X0191022Y0115790D01*
X0190156Y0112556D01*
X0189803Y0113250D01*
X0189229Y0114039D01*
X0189050Y0114218D01*
X0189295Y0114320D01*
X0191180Y0116205D01*
X0192200Y0118667D01*
X0192200Y0121333D01*
X0191180Y0123795D01*
X0189475Y0125500D01*
X0190180Y0126205D01*
X0191200Y0128667D01*
X0191200Y0131333D01*
X0190400Y0133264D01*
X0190400Y0137284D01*
X0190411Y0137312D01*
X0190400Y0138098D01*
X0190400Y0138140D01*
X0190489Y0140719D01*
X0191426Y0145812D01*
X0193338Y0150625D01*
X0196153Y0154972D01*
X0197679Y0156706D01*
X0197983Y0156925D01*
X0198177Y0157238D01*
X0198434Y0157503D01*
X0198602Y0157925D01*
X0198841Y0158312D01*
X0198900Y0158676D01*
X0199036Y0159019D01*
X0199030Y0159473D01*
X0199425Y0161904D01*
X0199425Y0161904D01*
X0199556Y0162709D01*
X0199775Y0164054D01*
X0199775Y0164054D01*
X0199462Y0166062D01*
X0201205Y0164320D01*
X0203667Y0163300D01*
X0206333Y0163300D01*
X0208795Y0164320D01*
X0210680Y0166205D01*
X0211336Y0167789D01*
X0212929Y0168946D01*
X0214500Y0171109D01*
X0214500Y0014500D01*
X0208100Y0008100D01*
X0194154Y0008100D01*
X0196626Y0009124D01*
X0198991Y0011489D01*
X0200271Y0014578D01*
X0200271Y0017922D01*
X0198991Y0021011D01*
X0196626Y0023376D01*
X0193537Y0024655D01*
X0190193Y0024655D01*
X0187104Y0023376D01*
X0184739Y0021011D01*
X0183460Y0017922D01*
X0183460Y0014578D01*
X0184739Y0011489D01*
X0187104Y0009124D01*
X0189576Y0008100D01*
X0067999Y0008100D01*
X0070186Y0010997D02*
X0135364Y0010997D01*
X0133425Y0012936D02*
X0138111Y0008250D01*
X0144739Y0008250D01*
X0149425Y0012936D01*
X0149425Y0019564D01*
X0144739Y0024250D01*
X0138111Y0024250D01*
X0133425Y0019564D01*
X0133425Y0012936D01*
X0133425Y0013996D02*
X0126504Y0013996D01*
X0126539Y0014021D02*
X0127229Y0014711D01*
X0127803Y0015500D01*
X0128246Y0016370D01*
X0128547Y0017298D01*
X0128700Y0018262D01*
X0128700Y0018750D01*
X0128700Y0019238D01*
X0128547Y0020202D01*
X0128246Y0021130D01*
X0127803Y0022000D01*
X0127229Y0022789D01*
X0126539Y0023479D01*
X0125750Y0024053D01*
X0124880Y0024496D01*
X0123952Y0024797D01*
X0122988Y0024950D01*
X0122500Y0024950D01*
X0122500Y0018750D01*
X0122500Y0018750D01*
X0128700Y0018750D01*
X0122500Y0018750D01*
X0122500Y0018750D01*
X0122500Y0024950D01*
X0122012Y0024950D01*
X0121048Y0024797D01*
X0120120Y0024496D01*
X0119250Y0024053D01*
X0118461Y0023479D01*
X0117771Y0022789D01*
X0117500Y0022416D01*
X0117229Y0022789D01*
X0116539Y0023479D01*
X0115750Y0024053D01*
X0114880Y0024496D01*
X0113952Y0024797D01*
X0112988Y0024950D01*
X0112500Y0024950D01*
X0112500Y0018750D01*
X0112500Y0018750D01*
X0122500Y0018750D01*
X0122500Y0012550D01*
X0122988Y0012550D01*
X0123952Y0012703D01*
X0124880Y0013004D01*
X0125750Y0013447D01*
X0126539Y0014021D01*
X0128448Y0016994D02*
X0133425Y0016994D01*
X0133854Y0019993D02*
X0128580Y0019993D01*
X0127027Y0022991D02*
X0136852Y0022991D01*
X0145998Y0022991D02*
X0156331Y0022991D01*
X0156183Y0022844D02*
X0155910Y0022434D01*
X0155721Y0021979D01*
X0155625Y0021496D01*
X0155625Y0016250D01*
X0163125Y0016250D01*
X0163125Y0016250D01*
X0163125Y0023750D01*
X0168371Y0023750D01*
X0168854Y0023654D01*
X0169309Y0023465D01*
X0169719Y0023192D01*
X0170067Y0022844D01*
X0170340Y0022434D01*
X0170529Y0021979D01*
X0170625Y0021496D01*
X0170625Y0016250D01*
X0163125Y0016250D01*
X0163125Y0016250D01*
X0163125Y0016250D01*
X0163125Y0023750D01*
X0157879Y0023750D01*
X0157396Y0023654D01*
X0156941Y0023465D01*
X0156531Y0023192D01*
X0156183Y0022844D01*
X0155625Y0019993D02*
X0148996Y0019993D01*
X0149425Y0016994D02*
X0155625Y0016994D01*
X0155625Y0016250D02*
X0155625Y0011004D01*
X0155721Y0010521D01*
X0155910Y0010066D01*
X0156183Y0009656D01*
X0156531Y0009308D01*
X0156941Y0009035D01*
X0157396Y0008846D01*
X0157879Y0008750D01*
X0163125Y0008750D01*
X0168371Y0008750D01*
X0168854Y0008846D01*
X0169309Y0009035D01*
X0169719Y0009308D01*
X0170067Y0009656D01*
X0170340Y0010066D01*
X0170529Y0010521D01*
X0170625Y0011004D01*
X0170625Y0016250D01*
X0163125Y0016250D01*
X0163125Y0008750D01*
X0163125Y0016250D01*
X0163125Y0016250D01*
X0155625Y0016250D01*
X0155625Y0013996D02*
X0149425Y0013996D01*
X0147486Y0010997D02*
X0155626Y0010997D01*
X0163125Y0010997D02*
X0163125Y0010997D01*
X0163125Y0013996D02*
X0163125Y0013996D01*
X0163125Y0016994D02*
X0163125Y0016994D01*
X0163125Y0019993D02*
X0163125Y0019993D01*
X0163125Y0022991D02*
X0163125Y0022991D01*
X0169919Y0022991D02*
X0186719Y0022991D01*
X0184317Y0019993D02*
X0170625Y0019993D01*
X0170625Y0016994D02*
X0183460Y0016994D01*
X0183701Y0013996D02*
X0170625Y0013996D01*
X0170624Y0010997D02*
X0185231Y0010997D01*
X0197011Y0022991D02*
X0214500Y0022991D01*
X0214500Y0019993D02*
X0199413Y0019993D01*
X0200271Y0016994D02*
X0214500Y0016994D01*
X0213996Y0013996D02*
X0200029Y0013996D01*
X0198499Y0010997D02*
X0210997Y0010997D01*
X0214500Y0025990D02*
X0093125Y0025990D01*
X0093359Y0022991D02*
X0107973Y0022991D01*
X0107771Y0022789D02*
X0107197Y0022000D01*
X0106754Y0021130D01*
X0106453Y0020202D01*
X0106300Y0019238D01*
X0106300Y0018750D01*
X0112500Y0018750D01*
X0112500Y0018750D01*
X0112500Y0018750D01*
X0112500Y0024950D01*
X0112012Y0024950D01*
X0111048Y0024797D01*
X0110120Y0024496D01*
X0109250Y0024053D01*
X0108461Y0023479D01*
X0107771Y0022789D01*
X0106420Y0019993D02*
X0094825Y0019993D01*
X0094650Y0016994D02*
X0106551Y0016994D01*
X0106453Y0017298D02*
X0106754Y0016370D01*
X0107197Y0015500D01*
X0107771Y0014711D01*
X0108461Y0014021D01*
X0109250Y0013447D01*
X0110120Y0013004D01*
X0111048Y0012703D01*
X0112012Y0012550D01*
X0112500Y0012550D01*
X0112988Y0012550D01*
X0113952Y0012703D01*
X0114880Y0013004D01*
X0115750Y0013447D01*
X0116539Y0014021D01*
X0117229Y0014711D01*
X0117500Y0015084D01*
X0117771Y0014711D01*
X0118461Y0014021D01*
X0119250Y0013447D01*
X0120120Y0013004D01*
X0121048Y0012703D01*
X0122012Y0012550D01*
X0122500Y0012550D01*
X0122500Y0018750D01*
X0122500Y0018750D01*
X0122500Y0018750D01*
X0116300Y0018750D01*
X0112500Y0018750D01*
X0112500Y0012550D01*
X0112500Y0018750D01*
X0112500Y0018750D01*
X0106300Y0018750D01*
X0106300Y0018262D01*
X0106453Y0017298D01*
X0108496Y0013996D02*
X0092846Y0013996D01*
X0083404Y0013996D02*
X0082846Y0013996D01*
X0073404Y0013996D02*
X0070750Y0013996D01*
X0069983Y0016994D02*
X0071600Y0016994D01*
X0071425Y0019993D02*
X0069770Y0019993D01*
X0070750Y0022991D02*
X0072891Y0022991D01*
X0073125Y0025990D02*
X0070399Y0025990D01*
X0078876Y0036250D02*
X0079450Y0037636D01*
X0079450Y0039864D01*
X0078597Y0041922D01*
X0077022Y0043497D01*
X0076412Y0043750D01*
X0077022Y0044003D01*
X0078597Y0045578D01*
X0079450Y0047636D01*
X0079450Y0049864D01*
X0078597Y0051922D01*
X0077022Y0053497D01*
X0076412Y0053750D01*
X0077022Y0054003D01*
X0078597Y0055578D01*
X0079226Y0057096D01*
X0086270Y0064139D01*
X0086270Y0062861D01*
X0087549Y0059771D01*
X0089914Y0057407D01*
X0093003Y0056127D01*
X0096347Y0056127D01*
X0099437Y0057407D01*
X0101801Y0059771D01*
X0103081Y0062861D01*
X0103081Y0066204D01*
X0101801Y0069294D01*
X0100695Y0070400D01*
X0109544Y0070400D01*
X0105179Y0066035D01*
X0105179Y0059408D01*
X0109865Y0054721D01*
X0116493Y0054721D01*
X0121179Y0059408D01*
X0121179Y0066035D01*
X0116814Y0070400D01*
X0126079Y0070400D01*
X0121715Y0066035D01*
X0121715Y0059408D01*
X0126401Y0054721D01*
X0133028Y0054721D01*
X0137715Y0059408D01*
X0137715Y0066035D01*
X0133350Y0070400D01*
X0134520Y0070400D01*
X0138355Y0071427D01*
X0141793Y0073412D01*
X0142549Y0074169D01*
X0142549Y0074169D01*
X0144755Y0076375D01*
X0149564Y0076375D01*
X0154250Y0081061D01*
X0154250Y0087689D01*
X0149564Y0092375D01*
X0142936Y0092375D01*
X0138250Y0087689D01*
X0138250Y0082880D01*
X0137715Y0082345D01*
X0137715Y0087689D01*
X0133028Y0092375D01*
X0126401Y0092375D01*
X0121715Y0087689D01*
X0121715Y0081061D01*
X0123176Y0079600D01*
X0121179Y0079600D01*
X0121179Y0089972D01*
X0120722Y0091074D01*
X0119878Y0091918D01*
X0118776Y0092375D01*
X0107582Y0092375D01*
X0106480Y0091918D01*
X0105636Y0091074D01*
X0105179Y0089972D01*
X0105179Y0079600D01*
X0093022Y0079600D01*
X0089149Y0078562D01*
X0085678Y0076558D01*
X0085678Y0076558D01*
X0084592Y0075472D01*
X0079313Y0070194D01*
X0078597Y0071922D01*
X0077022Y0073497D01*
X0076412Y0073750D01*
X0077022Y0074003D01*
X0078597Y0075578D01*
X0079450Y0077636D01*
X0079450Y0079864D01*
X0078597Y0081922D01*
X0077022Y0083497D01*
X0076412Y0083750D01*
X0077022Y0084003D01*
X0077170Y0084150D01*
X0077482Y0084150D01*
X0082484Y0085145D01*
X0087195Y0087096D01*
X0091435Y0089929D01*
X0092590Y0091085D01*
X0092590Y0091085D01*
X0092899Y0091394D01*
X0110234Y0102478D01*
X0110490Y0102221D01*
X0117118Y0102221D01*
X0121804Y0106908D01*
X0121804Y0113535D01*
X0117439Y0117900D01*
X0126704Y0117900D01*
X0122340Y0113535D01*
X0122340Y0106908D01*
X0127026Y0102221D01*
X0133653Y0102221D01*
X0138340Y0106908D01*
X0138340Y0113535D01*
X0133975Y0117900D01*
X0142442Y0117900D01*
X0145899Y0119023D01*
X0145899Y0119023D01*
X0148840Y0121160D01*
X0150977Y0124101D01*
X0151247Y0124934D01*
X0154875Y0128561D01*
X0154875Y0135189D01*
X0153337Y0136727D01*
X0156051Y0137267D01*
X0162285Y0139849D01*
X0162285Y0139849D01*
X0167897Y0143598D01*
X0169706Y0145408D01*
X0170283Y0145984D01*
X0170859Y0146561D01*
X0180609Y0156311D01*
X0180609Y0156311D01*
X0180976Y0156678D01*
X0181281Y0157206D01*
X0183186Y0155300D01*
X0186445Y0155300D01*
X0185902Y0154462D01*
X0183384Y0148125D01*
X0182151Y0141418D01*
X0182200Y0138039D01*
X0182200Y0136299D01*
X0180705Y0135680D01*
X0178820Y0133795D01*
X0177800Y0131333D01*
X0177800Y0128667D01*
X0178820Y0126205D01*
X0180525Y0124500D01*
X0179820Y0123795D01*
X0178800Y0121333D01*
X0178800Y0118667D01*
X0179820Y0116205D01*
X0180944Y0115080D01*
X0180461Y0114729D01*
X0179771Y0114039D01*
X0179197Y0113250D01*
X0178754Y0112380D01*
X0178453Y0111452D01*
X0178300Y0110488D01*
X0178300Y0110000D01*
X0184500Y0110000D01*
X0184500Y0103800D01*
X0184988Y0103800D01*
X0185952Y0103953D01*
X0186880Y0104254D01*
X0187750Y0104697D01*
X0188539Y0105271D01*
X0189229Y0105961D01*
X0189803Y0106750D01*
X0190000Y0107138D01*
X0190000Y0091153D01*
X0189894Y0089004D01*
X0189056Y0084788D01*
X0187411Y0080817D01*
X0185023Y0077243D01*
X0183578Y0075649D01*
X0182957Y0075028D01*
X0182875Y0074946D01*
X0182252Y0074323D01*
X0182252Y0074323D01*
X0180493Y0072565D01*
X0180493Y0072565D01*
X0176401Y0066932D01*
X0173241Y0060729D01*
X0171089Y0054107D01*
X0170543Y0050659D01*
X0170529Y0050729D01*
X0170340Y0051184D01*
X0170067Y0051594D01*
X0169719Y0051942D01*
X0169309Y0052215D01*
X0168854Y0052404D01*
X0168371Y0052500D01*
X0163125Y0052500D01*
X0163125Y0045000D01*
X0163125Y0045000D01*
X0163125Y0037500D01*
X0166546Y0037500D01*
X0165370Y0036821D01*
X0163479Y0036314D01*
X0162500Y0036250D01*
X0078876Y0036250D01*
X0079450Y0037984D02*
X0137128Y0037984D01*
X0138111Y0037000D02*
X0144739Y0037000D01*
X0149425Y0041686D01*
X0149425Y0048314D01*
X0144739Y0053000D01*
X0138111Y0053000D01*
X0133425Y0048314D01*
X0133425Y0041686D01*
X0138111Y0037000D01*
X0134129Y0040982D02*
X0078987Y0040982D01*
X0076969Y0043981D02*
X0133425Y0043981D01*
X0133425Y0046979D02*
X0079178Y0046979D01*
X0079403Y0049978D02*
X0135089Y0049978D01*
X0138087Y0052976D02*
X0077543Y0052976D01*
X0078762Y0055975D02*
X0108612Y0055975D01*
X0105614Y0058973D02*
X0101003Y0058973D01*
X0102713Y0061972D02*
X0105179Y0061972D01*
X0105179Y0064970D02*
X0103081Y0064970D01*
X0102350Y0067969D02*
X0107113Y0067969D01*
X0105179Y0079963D02*
X0079409Y0079963D01*
X0079172Y0076964D02*
X0086381Y0076964D01*
X0089149Y0078562D02*
X0089149Y0078562D01*
X0083085Y0073966D02*
X0076933Y0073966D01*
X0078993Y0070967D02*
X0080087Y0070967D01*
X0084102Y0061972D02*
X0086638Y0061972D01*
X0088347Y0058973D02*
X0081104Y0058973D01*
X0077558Y0082961D02*
X0105179Y0082961D01*
X0105179Y0085960D02*
X0084451Y0085960D01*
X0082484Y0085145D02*
X0082484Y0085145D01*
X0089982Y0088958D02*
X0105179Y0088958D01*
X0106573Y0091957D02*
X0093780Y0091957D01*
X0098469Y0094955D02*
X0190000Y0094955D01*
X0190000Y0097954D02*
X0103158Y0097954D01*
X0107847Y0100952D02*
X0190000Y0100952D01*
X0190000Y0103951D02*
X0185940Y0103951D01*
X0184500Y0103951D02*
X0184500Y0103951D01*
X0184500Y0103800D02*
X0184500Y0110000D01*
X0184500Y0110000D01*
X0184500Y0110000D01*
X0178300Y0110000D01*
X0178300Y0109512D01*
X0178453Y0108548D01*
X0178754Y0107620D01*
X0179197Y0106750D01*
X0179771Y0105961D01*
X0180461Y0105271D01*
X0181250Y0104697D01*
X0182120Y0104254D01*
X0183048Y0103953D01*
X0184012Y0103800D01*
X0184500Y0103800D01*
X0183059Y0103951D02*
X0167833Y0103951D01*
X0167051Y0103627D02*
X0170140Y0104907D01*
X0172505Y0107271D01*
X0173784Y0110361D01*
X0173784Y0113704D01*
X0172505Y0116794D01*
X0170140Y0119158D01*
X0167051Y0120438D01*
X0163707Y0120438D01*
X0160618Y0119158D01*
X0158253Y0116794D01*
X0156973Y0113704D01*
X0156973Y0110361D01*
X0158253Y0107271D01*
X0160618Y0104907D01*
X0163707Y0103627D01*
X0167051Y0103627D01*
X0162925Y0103951D02*
X0151918Y0103951D01*
X0150189Y0102221D02*
X0154875Y0106908D01*
X0154875Y0113535D01*
X0150189Y0118221D01*
X0143561Y0118221D01*
X0138875Y0113535D01*
X0138875Y0106908D01*
X0143561Y0102221D01*
X0150189Y0102221D01*
X0154875Y0106949D02*
X0158575Y0106949D01*
X0157144Y0109948D02*
X0154875Y0109948D01*
X0154875Y0112946D02*
X0156973Y0112946D01*
X0157901Y0115945D02*
X0152465Y0115945D01*
X0148840Y0121160D02*
X0148840Y0121160D01*
X0148840Y0121160D01*
X0149408Y0121942D02*
X0179052Y0121942D01*
X0178800Y0118943D02*
X0170355Y0118943D01*
X0172856Y0115945D02*
X0180080Y0115945D01*
X0179043Y0112946D02*
X0173784Y0112946D01*
X0173614Y0109948D02*
X0178300Y0109948D01*
X0179096Y0106949D02*
X0172183Y0106949D01*
X0160403Y0118943D02*
X0145654Y0118943D01*
X0141285Y0115945D02*
X0135930Y0115945D01*
X0138340Y0112946D02*
X0138875Y0112946D01*
X0138875Y0109948D02*
X0138340Y0109948D01*
X0138340Y0106949D02*
X0138875Y0106949D01*
X0141832Y0103951D02*
X0135383Y0103951D01*
X0125296Y0103951D02*
X0118847Y0103951D01*
X0121804Y0106949D02*
X0122340Y0106949D01*
X0122340Y0109948D02*
X0121804Y0109948D01*
X0121804Y0112946D02*
X0122340Y0112946D01*
X0124749Y0115945D02*
X0119394Y0115945D01*
X0119785Y0091957D02*
X0125983Y0091957D01*
X0122984Y0088958D02*
X0121179Y0088958D01*
X0121179Y0085960D02*
X0121715Y0085960D01*
X0121715Y0082961D02*
X0121179Y0082961D01*
X0121179Y0079963D02*
X0122813Y0079963D01*
X0123648Y0067969D02*
X0119246Y0067969D01*
X0121179Y0064970D02*
X0121715Y0064970D01*
X0121715Y0061972D02*
X0121179Y0061972D01*
X0120745Y0058973D02*
X0122149Y0058973D01*
X0125148Y0055975D02*
X0117746Y0055975D01*
X0134281Y0055975D02*
X0141683Y0055975D01*
X0142936Y0054721D02*
X0138250Y0059408D01*
X0138250Y0066035D01*
X0142936Y0070721D01*
X0149564Y0070721D01*
X0154250Y0066035D01*
X0154250Y0059408D01*
X0149564Y0054721D01*
X0142936Y0054721D01*
X0144763Y0052976D02*
X0170910Y0052976D01*
X0171089Y0054107D02*
X0171089Y0054107D01*
X0171696Y0055975D02*
X0150817Y0055975D01*
X0153815Y0058973D02*
X0158426Y0058973D01*
X0157628Y0059771D02*
X0156348Y0062861D01*
X0156348Y0066204D01*
X0157628Y0069294D01*
X0159993Y0071658D01*
X0163082Y0072938D01*
X0166426Y0072938D01*
X0169515Y0071658D01*
X0171880Y0069294D01*
X0173159Y0066204D01*
X0173159Y0062861D01*
X0171880Y0059771D01*
X0169515Y0057407D01*
X0166426Y0056127D01*
X0163082Y0056127D01*
X0159993Y0057407D01*
X0157628Y0059771D01*
X0156717Y0061972D02*
X0154250Y0061972D01*
X0154250Y0064970D02*
X0156348Y0064970D01*
X0157079Y0067969D02*
X0152316Y0067969D01*
X0159302Y0070967D02*
X0136637Y0070967D01*
X0138355Y0071427D02*
X0138355Y0071427D01*
X0140184Y0067969D02*
X0135781Y0067969D01*
X0137715Y0064970D02*
X0138250Y0064970D01*
X0138250Y0061972D02*
X0137715Y0061972D01*
X0137280Y0058973D02*
X0138685Y0058973D01*
X0147761Y0049978D02*
X0155625Y0049978D01*
X0155625Y0050246D02*
X0155625Y0045000D01*
X0163125Y0045000D01*
X0163125Y0045000D01*
X0163125Y0045000D01*
X0163125Y0052500D01*
X0157879Y0052500D01*
X0157396Y0052404D01*
X0156941Y0052215D01*
X0156531Y0051942D01*
X0156183Y0051594D01*
X0155910Y0051184D01*
X0155721Y0050729D01*
X0155625Y0050246D01*
X0155625Y0046979D02*
X0149425Y0046979D01*
X0149425Y0043981D02*
X0155625Y0043981D01*
X0155625Y0045000D02*
X0155625Y0039754D01*
X0155721Y0039271D01*
X0155910Y0038816D01*
X0156183Y0038406D01*
X0156531Y0038058D01*
X0156941Y0037785D01*
X0157396Y0037596D01*
X0157879Y0037500D01*
X0163125Y0037500D01*
X0163125Y0045000D01*
X0155625Y0045000D01*
X0155625Y0040982D02*
X0148721Y0040982D01*
X0145722Y0037984D02*
X0156643Y0037984D01*
X0163125Y0037984D02*
X0163125Y0037984D01*
X0163125Y0040982D02*
X0163125Y0040982D01*
X0163125Y0043981D02*
X0163125Y0043981D01*
X0163125Y0046979D02*
X0163125Y0046979D01*
X0163125Y0049978D02*
X0163125Y0049978D01*
X0171082Y0058973D02*
X0172670Y0058973D01*
X0173241Y0060729D02*
X0173241Y0060729D01*
X0172791Y0061972D02*
X0173874Y0061972D01*
X0173159Y0064970D02*
X0175402Y0064970D01*
X0176401Y0066932D02*
X0176401Y0066932D01*
X0177154Y0067969D02*
X0172429Y0067969D01*
X0170206Y0070967D02*
X0179333Y0070967D01*
X0181895Y0073966D02*
X0142346Y0073966D01*
X0141793Y0073412D02*
X0141793Y0073412D01*
X0150153Y0076964D02*
X0184770Y0076964D01*
X0186840Y0079963D02*
X0153151Y0079963D01*
X0154250Y0082961D02*
X0188299Y0082961D01*
X0189289Y0085960D02*
X0154250Y0085960D01*
X0152980Y0088958D02*
X0189885Y0088958D01*
X0190000Y0091957D02*
X0149982Y0091957D01*
X0142518Y0091957D02*
X0133446Y0091957D01*
X0136445Y0088958D02*
X0139520Y0088958D01*
X0138250Y0085960D02*
X0137715Y0085960D01*
X0137715Y0082961D02*
X0138250Y0082961D01*
X0150977Y0124101D02*
X0150977Y0124101D01*
X0151254Y0124940D02*
X0180084Y0124940D01*
X0178102Y0127939D02*
X0154253Y0127939D01*
X0154875Y0130937D02*
X0177800Y0130937D01*
X0178961Y0133936D02*
X0154875Y0133936D01*
X0154381Y0136934D02*
X0182200Y0136934D01*
X0182173Y0139933D02*
X0162411Y0139933D01*
X0166899Y0142932D02*
X0182429Y0142932D01*
X0182151Y0141418D02*
X0182151Y0141418D01*
X0182981Y0145930D02*
X0170228Y0145930D01*
X0170859Y0146561D02*
X0170859Y0146561D01*
X0167897Y0143598D02*
X0167897Y0143598D01*
X0173227Y0148929D02*
X0183704Y0148929D01*
X0183384Y0148125D02*
X0183384Y0148125D01*
X0184895Y0151927D02*
X0176225Y0151927D01*
X0179224Y0154926D02*
X0186202Y0154926D01*
X0185902Y0154462D02*
X0185902Y0154462D01*
X0180976Y0156678D02*
X0180976Y0156678D01*
X0192664Y0148929D02*
X0198300Y0148929D01*
X0198546Y0151927D02*
X0194181Y0151927D01*
X0196123Y0154926D02*
X0200450Y0154926D01*
X0198601Y0157924D02*
X0214500Y0157924D01*
X0214500Y0160923D02*
X0199266Y0160923D01*
X0199753Y0163921D02*
X0202168Y0163921D01*
X0207832Y0163921D02*
X0214500Y0163921D01*
X0214500Y0166920D02*
X0210976Y0166920D01*
X0212929Y0168946D02*
X0212929Y0168946D01*
X0213635Y0169918D02*
X0214500Y0169918D01*
X0214500Y0154926D02*
X0209550Y0154926D01*
X0211454Y0151927D02*
X0214500Y0151927D01*
X0214500Y0148929D02*
X0211700Y0148929D01*
X0210405Y0145930D02*
X0214500Y0145930D01*
X0214500Y0142932D02*
X0210465Y0142932D01*
X0211200Y0139933D02*
X0214500Y0139933D01*
X0214500Y0136934D02*
X0210396Y0136934D01*
X0209804Y0133936D02*
X0214500Y0133936D01*
X0214500Y0130937D02*
X0211129Y0130937D01*
X0210849Y0127939D02*
X0214500Y0127939D01*
X0214500Y0124940D02*
X0209535Y0124940D01*
X0211448Y0121942D02*
X0214500Y0121942D01*
X0214500Y0118943D02*
X0211700Y0118943D01*
X0210420Y0115945D02*
X0214500Y0115945D01*
X0214500Y0112946D02*
X0211032Y0112946D01*
X0211700Y0109948D02*
X0214500Y0109948D01*
X0214500Y0106949D02*
X0210988Y0106949D01*
X0210524Y0103951D02*
X0214500Y0103951D01*
X0214500Y0100952D02*
X0211700Y0100952D01*
X0211404Y0097954D02*
X0214500Y0097954D01*
X0214500Y0094955D02*
X0209520Y0094955D01*
X0211441Y0091957D02*
X0214500Y0091957D01*
X0214500Y0088958D02*
X0211700Y0088958D01*
X0210435Y0085960D02*
X0214500Y0085960D01*
X0214500Y0082961D02*
X0211025Y0082961D01*
X0211700Y0079963D02*
X0214500Y0079963D01*
X0214500Y0076964D02*
X0210995Y0076964D01*
X0207940Y0073966D02*
X0214500Y0073966D01*
X0214500Y0070967D02*
X0192983Y0070967D01*
X0192873Y0070802D02*
X0192873Y0070802D01*
X0194987Y0073966D02*
X0202060Y0073966D01*
X0199005Y0076964D02*
X0196753Y0076964D01*
X0197995Y0079963D02*
X0198300Y0079963D01*
X0190040Y0067969D02*
X0214500Y0067969D01*
X0214500Y0064970D02*
X0187467Y0064970D01*
X0185288Y0061972D02*
X0214500Y0061972D01*
X0214500Y0058973D02*
X0183688Y0058973D01*
X0182321Y0055975D02*
X0214500Y0055975D01*
X0214500Y0052976D02*
X0194574Y0052976D01*
X0193537Y0053405D02*
X0190193Y0053405D01*
X0187104Y0052126D01*
X0184739Y0049761D01*
X0183460Y0046672D01*
X0183460Y0043328D01*
X0184739Y0040239D01*
X0187104Y0037874D01*
X0190193Y0036594D01*
X0193537Y0036594D01*
X0196626Y0037874D01*
X0198991Y0040239D01*
X0200271Y0043328D01*
X0200271Y0046672D01*
X0198991Y0049761D01*
X0196626Y0052126D01*
X0193537Y0053405D01*
X0189157Y0052976D02*
X0181347Y0052976D01*
X0180666Y0049978D02*
X0184956Y0049978D01*
X0183587Y0046979D02*
X0180192Y0046979D01*
X0180009Y0043981D02*
X0183460Y0043981D01*
X0184431Y0040982D02*
X0179876Y0040982D01*
X0179072Y0037984D02*
X0186994Y0037984D01*
X0178807Y0036995D02*
X0178807Y0036995D01*
X0177647Y0034985D02*
X0214500Y0034985D01*
X0214500Y0031987D02*
X0175485Y0031987D01*
X0176503Y0033005D02*
X0176503Y0033005D01*
X0171932Y0028988D02*
X0214500Y0028988D01*
X0214500Y0037984D02*
X0196736Y0037984D01*
X0199299Y0040982D02*
X0214500Y0040982D01*
X0214500Y0043981D02*
X0200271Y0043981D01*
X0200143Y0046979D02*
X0214500Y0046979D01*
X0214500Y0049978D02*
X0198775Y0049978D01*
X0169255Y0027443D02*
X0169255Y0027443D01*
X0122500Y0022991D02*
X0122500Y0022991D01*
X0122500Y0019993D02*
X0122500Y0019993D01*
X0122500Y0016994D02*
X0122500Y0016994D01*
X0122500Y0013996D02*
X0122500Y0013996D01*
X0118496Y0013996D02*
X0116504Y0013996D01*
X0112500Y0013996D02*
X0112500Y0013996D01*
X0112500Y0016994D02*
X0112500Y0016994D01*
X0112500Y0019993D02*
X0112500Y0019993D01*
X0112500Y0022991D02*
X0112500Y0022991D01*
X0117027Y0022991D02*
X0117973Y0022991D01*
X0184500Y0106949D02*
X0184500Y0106949D01*
X0184500Y0109948D02*
X0184500Y0109948D01*
X0189904Y0106949D02*
X0190000Y0106949D01*
X0189957Y0112946D02*
X0190260Y0112946D01*
X0190920Y0115945D02*
X0191112Y0115945D01*
X0192200Y0118943D02*
X0192843Y0118943D01*
X0192997Y0119210D02*
X0192997Y0119210D01*
X0191948Y0121942D02*
X0195729Y0121942D01*
X0199210Y0123978D02*
X0199210Y0123978D01*
X0200465Y0124940D02*
X0190035Y0124940D01*
X0190898Y0127939D02*
X0199151Y0127939D01*
X0198871Y0130937D02*
X0191200Y0130937D01*
X0190400Y0133936D02*
X0200196Y0133936D01*
X0199604Y0136934D02*
X0190400Y0136934D01*
X0190462Y0139933D02*
X0198800Y0139933D01*
X0199535Y0142932D02*
X0190896Y0142932D01*
X0191473Y0145930D02*
X0199595Y0145930D01*
X0205000Y0139933D02*
X0205000Y0139933D01*
X0205000Y0136934D02*
X0205000Y0136934D01*
X0205000Y0133936D02*
X0205000Y0133936D01*
X0205000Y0130937D02*
X0205000Y0130937D01*
X0156051Y0137267D02*
X0156051Y0137267D01*
X0200854Y0232887D02*
X0061646Y0232887D01*
X0064644Y0235885D02*
X0197856Y0235885D01*
X0066623Y0231215D02*
X0066623Y0231215D01*
X0063007Y0230364D02*
X0063007Y0230364D01*
X0062223Y0229888D02*
X0058647Y0229888D01*
X0059831Y0228438D02*
X0059831Y0228438D01*
X0034622Y0223891D02*
X0030584Y0223891D01*
X0031700Y0220893D02*
X0033050Y0220893D01*
D20*
X0110000Y0201250D03*
X0139375Y0173125D03*
X0175000Y0200000D03*
X0175000Y0090000D03*
X0055000Y0035000D03*
X0030000Y0125000D03*
D21*
X0042000Y0110450D02*
X0041250Y0108750D01*
X0042000Y0110450D02*
X0047261Y0110450D01*
X0054071Y0113271D02*
X0060968Y0120168D01*
X0054071Y0113271D02*
X0053907Y0113111D01*
X0053739Y0112955D01*
X0053568Y0112802D01*
X0053393Y0112654D01*
X0053214Y0112511D01*
X0053033Y0112371D01*
X0052848Y0112236D01*
X0052659Y0112105D01*
X0052468Y0111979D01*
X0052274Y0111857D01*
X0052077Y0111740D01*
X0051877Y0111628D01*
X0051674Y0111521D01*
X0051469Y0111418D01*
X0051262Y0111320D01*
X0051052Y0111228D01*
X0050840Y0111140D01*
X0050627Y0111057D01*
X0050411Y0110980D01*
X0050194Y0110907D01*
X0049974Y0110840D01*
X0049754Y0110778D01*
X0049532Y0110721D01*
X0049308Y0110670D01*
X0049084Y0110624D01*
X0048858Y0110583D01*
X0048632Y0110548D01*
X0048404Y0110518D01*
X0048176Y0110494D01*
X0047948Y0110475D01*
X0047719Y0110461D01*
X0047490Y0110453D01*
X0047261Y0110450D01*
X0060968Y0120168D02*
X0061801Y0120982D01*
X0062653Y0121775D01*
X0063524Y0122548D01*
X0064413Y0123300D01*
X0065320Y0124031D01*
X0066244Y0124740D01*
X0067185Y0125427D01*
X0068141Y0126091D01*
X0069113Y0126732D01*
X0070100Y0127350D01*
X0071102Y0127944D01*
X0072117Y0128515D01*
X0073146Y0129060D01*
X0074187Y0129582D01*
X0075241Y0130078D01*
X0076306Y0130549D01*
X0077382Y0130995D01*
X0078468Y0131415D01*
X0079564Y0131809D01*
X0080669Y0132177D01*
X0081782Y0132518D01*
X0082903Y0132833D01*
X0084032Y0133121D01*
X0085167Y0133382D01*
X0086308Y0133616D01*
X0087454Y0133823D01*
X0088604Y0134002D01*
X0089759Y0134154D01*
X0090917Y0134278D01*
X0092077Y0134375D01*
X0093240Y0134445D01*
X0094404Y0134486D01*
X0095568Y0134500D01*
X0105182Y0138482D02*
X0105286Y0138583D01*
X0105392Y0138682D01*
X0105502Y0138777D01*
X0105613Y0138869D01*
X0105728Y0138958D01*
X0105844Y0139045D01*
X0105963Y0139128D01*
X0106084Y0139207D01*
X0106207Y0139284D01*
X0106332Y0139357D01*
X0106460Y0139426D01*
X0106589Y0139493D01*
X0106719Y0139555D01*
X0106852Y0139614D01*
X0106986Y0139670D01*
X0107121Y0139722D01*
X0107258Y0139770D01*
X0107396Y0139814D01*
X0107535Y0139855D01*
X0107675Y0139892D01*
X0107816Y0139925D01*
X0107958Y0139954D01*
X0108101Y0139979D01*
X0108244Y0140001D01*
X0108388Y0140019D01*
X0108533Y0140032D01*
X0108677Y0140042D01*
X0108822Y0140048D01*
X0108967Y0140050D01*
X0146057Y0140050D01*
X0167384Y0148884D02*
X0177134Y0158634D01*
X0178900Y0162898D02*
X0178900Y0166554D01*
X0179781Y0168681D02*
X0186015Y0174915D01*
X0190000Y0171500D02*
X0194260Y0167240D01*
X0195509Y0163368D02*
X0194925Y0159775D01*
X0195509Y0163368D02*
X0195528Y0163498D01*
X0195544Y0163629D01*
X0195555Y0163761D01*
X0195563Y0163893D01*
X0195567Y0164025D01*
X0195566Y0164157D01*
X0195562Y0164289D01*
X0195554Y0164420D01*
X0195542Y0164552D01*
X0195527Y0164683D01*
X0195507Y0164813D01*
X0195483Y0164943D01*
X0195456Y0165072D01*
X0195425Y0165201D01*
X0195390Y0165328D01*
X0195351Y0165454D01*
X0195309Y0165579D01*
X0195263Y0165703D01*
X0195213Y0165825D01*
X0195160Y0165946D01*
X0195103Y0166065D01*
X0195043Y0166183D01*
X0194979Y0166298D01*
X0194912Y0166412D01*
X0194841Y0166524D01*
X0194767Y0166633D01*
X0194690Y0166740D01*
X0194610Y0166845D01*
X0194527Y0166948D01*
X0194441Y0167048D01*
X0194352Y0167145D01*
X0194260Y0167240D01*
X0191169Y0177050D02*
X0190996Y0177048D01*
X0190822Y0177042D01*
X0190649Y0177031D01*
X0190476Y0177017D01*
X0190304Y0176998D01*
X0190132Y0176976D01*
X0189960Y0176949D01*
X0189790Y0176918D01*
X0189620Y0176883D01*
X0189451Y0176845D01*
X0189282Y0176802D01*
X0189115Y0176755D01*
X0188950Y0176704D01*
X0188785Y0176649D01*
X0188622Y0176590D01*
X0188460Y0176528D01*
X0188300Y0176461D01*
X0188141Y0176391D01*
X0187984Y0176317D01*
X0187829Y0176240D01*
X0187676Y0176158D01*
X0187524Y0176073D01*
X0187375Y0175985D01*
X0187228Y0175893D01*
X0187083Y0175797D01*
X0186941Y0175698D01*
X0186801Y0175596D01*
X0186663Y0175491D01*
X0186528Y0175382D01*
X0186396Y0175270D01*
X0186266Y0175155D01*
X0186139Y0175036D01*
X0186015Y0174915D01*
X0191169Y0177050D02*
X0202950Y0177050D01*
X0204800Y0178900D01*
X0205000Y0180000D01*
X0179781Y0168681D02*
X0179706Y0168604D01*
X0179635Y0168524D01*
X0179566Y0168441D01*
X0179500Y0168357D01*
X0179437Y0168270D01*
X0179378Y0168180D01*
X0179321Y0168089D01*
X0179268Y0167996D01*
X0179218Y0167900D01*
X0179172Y0167804D01*
X0179129Y0167705D01*
X0179090Y0167605D01*
X0179054Y0167504D01*
X0179022Y0167401D01*
X0178993Y0167298D01*
X0178969Y0167193D01*
X0178948Y0167088D01*
X0178931Y0166982D01*
X0178917Y0166876D01*
X0178908Y0166769D01*
X0178902Y0166661D01*
X0178900Y0166554D01*
X0178900Y0162898D02*
X0178898Y0162745D01*
X0178892Y0162593D01*
X0178883Y0162440D01*
X0178869Y0162288D01*
X0178852Y0162136D01*
X0178830Y0161985D01*
X0178805Y0161834D01*
X0178777Y0161684D01*
X0178744Y0161535D01*
X0178707Y0161386D01*
X0178667Y0161239D01*
X0178623Y0161093D01*
X0178576Y0160947D01*
X0178525Y0160803D01*
X0178470Y0160661D01*
X0178411Y0160520D01*
X0178349Y0160380D01*
X0178284Y0160242D01*
X0178215Y0160106D01*
X0178142Y0159971D01*
X0178066Y0159839D01*
X0177987Y0159708D01*
X0177905Y0159579D01*
X0177819Y0159453D01*
X0177730Y0159328D01*
X0177638Y0159206D01*
X0177543Y0159087D01*
X0177445Y0158970D01*
X0177344Y0158855D01*
X0177240Y0158743D01*
X0177134Y0158633D01*
X0186300Y0138069D02*
X0186300Y0130800D01*
X0184500Y0130000D01*
X0186300Y0138068D02*
X0186298Y0138794D01*
X0186314Y0139521D01*
X0186346Y0140246D01*
X0186396Y0140971D01*
X0186464Y0141694D01*
X0186548Y0142415D01*
X0186649Y0143134D01*
X0186768Y0143851D01*
X0186904Y0144565D01*
X0187056Y0145275D01*
X0187226Y0145981D01*
X0187412Y0146683D01*
X0187615Y0147380D01*
X0187834Y0148073D01*
X0188070Y0148760D01*
X0188322Y0149441D01*
X0188590Y0150116D01*
X0188874Y0150784D01*
X0189174Y0151446D01*
X0189490Y0152100D01*
X0189821Y0152746D01*
X0190167Y0153385D01*
X0190529Y0154015D01*
X0190905Y0154636D01*
X0191296Y0155248D01*
X0191702Y0155850D01*
X0192122Y0156443D01*
X0192556Y0157026D01*
X0193003Y0157598D01*
X0193464Y0158159D01*
X0193938Y0158709D01*
X0194425Y0159248D01*
X0194925Y0159775D01*
X0167383Y0148884D02*
X0166870Y0148382D01*
X0166344Y0147893D01*
X0165808Y0147417D01*
X0165260Y0146953D01*
X0164701Y0146503D01*
X0164131Y0146066D01*
X0163552Y0145642D01*
X0162962Y0145233D01*
X0162363Y0144838D01*
X0161754Y0144457D01*
X0161137Y0144091D01*
X0160511Y0143739D01*
X0159877Y0143403D01*
X0159235Y0143081D01*
X0158586Y0142775D01*
X0157929Y0142485D01*
X0157266Y0142210D01*
X0156597Y0141952D01*
X0155921Y0141709D01*
X0155240Y0141482D01*
X0154554Y0141272D01*
X0153863Y0141078D01*
X0153167Y0140900D01*
X0152468Y0140739D01*
X0151765Y0140595D01*
X0151058Y0140468D01*
X0150349Y0140357D01*
X0149638Y0140263D01*
X0148924Y0140187D01*
X0148209Y0140127D01*
X0147492Y0140084D01*
X0146775Y0140059D01*
X0146057Y0140050D01*
X0105182Y0138482D02*
X0104950Y0138256D01*
X0104713Y0138036D01*
X0104471Y0137821D01*
X0104224Y0137612D01*
X0103972Y0137409D01*
X0103716Y0137212D01*
X0103454Y0137021D01*
X0103189Y0136836D01*
X0102919Y0136658D01*
X0102644Y0136487D01*
X0102366Y0136322D01*
X0102084Y0136163D01*
X0101798Y0136011D01*
X0101509Y0135867D01*
X0101216Y0135729D01*
X0100920Y0135598D01*
X0100621Y0135474D01*
X0100319Y0135357D01*
X0100015Y0135248D01*
X0099708Y0135146D01*
X0099398Y0135051D01*
X0099087Y0134963D01*
X0098773Y0134883D01*
X0098458Y0134811D01*
X0098141Y0134746D01*
X0097823Y0134688D01*
X0097503Y0134638D01*
X0097182Y0134596D01*
X0096860Y0134562D01*
X0096538Y0134535D01*
X0096215Y0134515D01*
X0095892Y0134504D01*
X0095568Y0134500D01*
D22*
X0195000Y0091153D02*
X0194992Y0090512D01*
X0194970Y0089872D01*
X0194931Y0089232D01*
X0194878Y0088594D01*
X0194810Y0087956D01*
X0194726Y0087321D01*
X0194627Y0086688D01*
X0194513Y0086057D01*
X0194385Y0085429D01*
X0194241Y0084805D01*
X0194083Y0084184D01*
X0193909Y0083567D01*
X0193721Y0082954D01*
X0193519Y0082346D01*
X0193302Y0081743D01*
X0193071Y0081146D01*
X0192826Y0080554D01*
X0192567Y0079968D01*
X0192294Y0079388D01*
X0192007Y0078815D01*
X0191706Y0078249D01*
X0191393Y0077690D01*
X0191066Y0077139D01*
X0190726Y0076596D01*
X0190373Y0076061D01*
X0190007Y0075534D01*
X0189629Y0075017D01*
X0189239Y0074508D01*
X0188837Y0074009D01*
X0188423Y0073520D01*
X0187998Y0073041D01*
X0187561Y0072572D01*
X0187114Y0072113D01*
X0187114Y0072114D02*
X0186490Y0071490D01*
X0195000Y0091153D02*
X0195000Y0110000D01*
X0195003Y0110242D01*
X0195012Y0110483D01*
X0195026Y0110724D01*
X0195047Y0110965D01*
X0195073Y0111205D01*
X0195105Y0111445D01*
X0195143Y0111684D01*
X0195186Y0111921D01*
X0195236Y0112158D01*
X0195291Y0112393D01*
X0195351Y0112627D01*
X0195418Y0112859D01*
X0195489Y0113090D01*
X0195567Y0113319D01*
X0195650Y0113546D01*
X0195738Y0113771D01*
X0195832Y0113994D01*
X0195931Y0114214D01*
X0196036Y0114432D01*
X0196145Y0114647D01*
X0196260Y0114860D01*
X0196380Y0115070D01*
X0196505Y0115276D01*
X0196635Y0115480D01*
X0196770Y0115681D01*
X0196910Y0115878D01*
X0197054Y0116072D01*
X0197203Y0116262D01*
X0197357Y0116448D01*
X0197515Y0116631D01*
X0197677Y0116810D01*
X0197844Y0116985D01*
X0198015Y0117156D01*
X0198190Y0117323D01*
X0198369Y0117485D01*
X0198552Y0117643D01*
X0198738Y0117797D01*
X0198928Y0117946D01*
X0199122Y0118090D01*
X0199319Y0118230D01*
X0199520Y0118365D01*
X0199724Y0118495D01*
X0199930Y0118620D01*
X0200140Y0118740D01*
X0200353Y0118855D01*
X0200568Y0118964D01*
X0200786Y0119069D01*
X0201006Y0119168D01*
X0201229Y0119262D01*
X0201454Y0119350D01*
X0201681Y0119433D01*
X0201910Y0119511D01*
X0202141Y0119582D01*
X0202373Y0119649D01*
X0202607Y0119709D01*
X0202842Y0119764D01*
X0203079Y0119814D01*
X0203316Y0119857D01*
X0203555Y0119895D01*
X0203795Y0119927D01*
X0204035Y0119953D01*
X0204276Y0119974D01*
X0204517Y0119988D01*
X0204758Y0119997D01*
X0205000Y0120000D01*
X0186490Y0071491D02*
X0185838Y0070822D01*
X0185202Y0070139D01*
X0184582Y0069441D01*
X0183979Y0068728D01*
X0183393Y0068001D01*
X0182825Y0067260D01*
X0182274Y0066506D01*
X0181742Y0065739D01*
X0181228Y0064960D01*
X0180732Y0064168D01*
X0180256Y0063366D01*
X0179799Y0062551D01*
X0179361Y0061727D01*
X0178943Y0060892D01*
X0178545Y0060047D01*
X0178168Y0059193D01*
X0177810Y0058331D01*
X0177474Y0057460D01*
X0177158Y0056581D01*
X0176863Y0055695D01*
X0176589Y0054803D01*
X0176337Y0053904D01*
X0176106Y0052999D01*
X0175897Y0052089D01*
X0175709Y0051175D01*
X0175543Y0050256D01*
X0175399Y0049333D01*
X0175277Y0048407D01*
X0175178Y0047479D01*
X0175100Y0046549D01*
X0175044Y0045617D01*
X0175011Y0044684D01*
X0175000Y0043750D01*
X0174996Y0043448D01*
X0174985Y0043146D01*
X0174967Y0042845D01*
X0174942Y0042544D01*
X0174909Y0042243D01*
X0174869Y0041944D01*
X0174822Y0041646D01*
X0174767Y0041348D01*
X0174706Y0041053D01*
X0174637Y0040759D01*
X0174561Y0040466D01*
X0174478Y0040176D01*
X0174388Y0039887D01*
X0174291Y0039601D01*
X0174188Y0039317D01*
X0174077Y0039036D01*
X0173960Y0038758D01*
X0173836Y0038482D01*
X0173705Y0038210D01*
X0173568Y0037941D01*
X0173425Y0037675D01*
X0173275Y0037413D01*
X0173118Y0037154D01*
X0172956Y0036900D01*
X0172787Y0036649D01*
X0172613Y0036403D01*
X0172432Y0036160D01*
X0172246Y0035923D01*
X0172054Y0035689D01*
X0171856Y0035461D01*
X0171653Y0035237D01*
X0171445Y0035019D01*
X0171231Y0034805D01*
X0171013Y0034597D01*
X0170789Y0034394D01*
X0170561Y0034196D01*
X0170327Y0034004D01*
X0170090Y0033818D01*
X0169847Y0033637D01*
X0169601Y0033463D01*
X0169350Y0033294D01*
X0169096Y0033132D01*
X0168837Y0032975D01*
X0168575Y0032825D01*
X0168309Y0032682D01*
X0168040Y0032545D01*
X0167768Y0032414D01*
X0167492Y0032290D01*
X0167214Y0032173D01*
X0166933Y0032062D01*
X0166649Y0031959D01*
X0166363Y0031862D01*
X0166074Y0031772D01*
X0165784Y0031689D01*
X0165491Y0031613D01*
X0165197Y0031544D01*
X0164902Y0031483D01*
X0164604Y0031428D01*
X0164306Y0031381D01*
X0164007Y0031341D01*
X0163706Y0031308D01*
X0163405Y0031283D01*
X0163104Y0031265D01*
X0162802Y0031254D01*
X0162500Y0031250D01*
X0088125Y0031250D01*
X0088125Y0018750D01*
X0078125Y0018750D02*
X0078125Y0031250D01*
X0088125Y0031250D01*
X0078125Y0031250D02*
X0066250Y0031250D01*
X0066118Y0031182D01*
X0065988Y0031110D01*
X0065859Y0031034D01*
X0065733Y0030956D01*
X0065609Y0030874D01*
X0065487Y0030789D01*
X0065367Y0030700D01*
X0065250Y0030608D01*
X0065135Y0030514D01*
X0065023Y0030416D01*
X0064913Y0030315D01*
X0064806Y0030212D01*
X0064702Y0030105D01*
X0064601Y0029996D01*
X0064503Y0029884D01*
X0064407Y0029770D01*
X0064315Y0029653D01*
X0064226Y0029534D01*
X0064140Y0029412D01*
X0064058Y0029289D01*
X0063979Y0029163D01*
X0063903Y0029034D01*
X0063830Y0028904D01*
X0063762Y0028773D01*
X0063696Y0028639D01*
X0063634Y0028503D01*
X0063576Y0028367D01*
X0063522Y0028228D01*
X0063471Y0028088D01*
X0063424Y0027947D01*
X0063381Y0027805D01*
X0063341Y0027661D01*
X0063305Y0027517D01*
X0063274Y0027371D01*
X0063246Y0027225D01*
X0063222Y0027078D01*
X0063202Y0026931D01*
X0063185Y0026783D01*
X0063173Y0026634D01*
X0063165Y0026486D01*
X0063161Y0026337D01*
X0063160Y0026188D01*
X0063164Y0026039D01*
X0063172Y0025891D01*
X0063183Y0025742D01*
X0063199Y0025594D01*
X0063218Y0025447D01*
X0063241Y0025300D01*
X0063269Y0025154D01*
X0063300Y0025008D01*
X0063335Y0024863D01*
X0063374Y0024720D01*
X0063416Y0024577D01*
X0063463Y0024436D01*
X0063513Y0024296D01*
X0063567Y0024157D01*
X0063624Y0024020D01*
X0063685Y0023884D01*
X0063750Y0023750D01*
D23*
X0033750Y0023750D02*
X0015000Y0030000D01*
X0071250Y0058750D02*
X0075000Y0060000D01*
X0075625Y0060000D01*
X0087513Y0071888D01*
X0095026Y0075000D02*
X0132535Y0075000D01*
X0139944Y0078069D02*
X0146250Y0084375D01*
X0139943Y0078069D02*
X0139765Y0077894D01*
X0139582Y0077725D01*
X0139396Y0077559D01*
X0139206Y0077398D01*
X0139011Y0077242D01*
X0138814Y0077090D01*
X0138612Y0076943D01*
X0138407Y0076800D01*
X0138199Y0076663D01*
X0137988Y0076531D01*
X0137773Y0076404D01*
X0137556Y0076282D01*
X0137336Y0076165D01*
X0137113Y0076053D01*
X0136887Y0075947D01*
X0136659Y0075846D01*
X0136429Y0075750D01*
X0136196Y0075661D01*
X0135962Y0075576D01*
X0135725Y0075497D01*
X0135487Y0075424D01*
X0135247Y0075357D01*
X0135005Y0075295D01*
X0134762Y0075239D01*
X0134518Y0075189D01*
X0134272Y0075145D01*
X0134026Y0075107D01*
X0133779Y0075074D01*
X0133531Y0075047D01*
X0133282Y0075027D01*
X0133034Y0075012D01*
X0132784Y0075003D01*
X0132535Y0075000D01*
X0113804Y0110221D02*
X0090000Y0095000D01*
X0089985Y0094985D01*
X0084375Y0110625D02*
X0084375Y0112500D01*
X0089985Y0094985D02*
X0089611Y0094620D01*
X0089228Y0094264D01*
X0088837Y0093918D01*
X0088437Y0093582D01*
X0088029Y0093255D01*
X0087614Y0092939D01*
X0087190Y0092633D01*
X0086759Y0092338D01*
X0086321Y0092053D01*
X0085877Y0091779D01*
X0085425Y0091515D01*
X0084968Y0091264D01*
X0084504Y0091023D01*
X0084034Y0090794D01*
X0083559Y0090576D01*
X0083079Y0090370D01*
X0082594Y0090176D01*
X0082104Y0089994D01*
X0081610Y0089824D01*
X0081112Y0089667D01*
X0080611Y0089521D01*
X0080105Y0089388D01*
X0079597Y0089267D01*
X0079086Y0089159D01*
X0078572Y0089063D01*
X0078056Y0088980D01*
X0077539Y0088910D01*
X0077019Y0088853D01*
X0076499Y0088808D01*
X0075978Y0088776D01*
X0075455Y0088756D01*
X0074933Y0088750D01*
X0071250Y0088750D01*
X0071250Y0098750D02*
X0072500Y0098750D01*
X0072787Y0098753D01*
X0073074Y0098764D01*
X0073360Y0098781D01*
X0073646Y0098805D01*
X0073931Y0098837D01*
X0074216Y0098875D01*
X0074499Y0098920D01*
X0074782Y0098971D01*
X0075062Y0099030D01*
X0075342Y0099095D01*
X0075620Y0099167D01*
X0075896Y0099246D01*
X0076170Y0099331D01*
X0076441Y0099423D01*
X0076711Y0099522D01*
X0076978Y0099627D01*
X0077242Y0099738D01*
X0077504Y0099856D01*
X0077763Y0099980D01*
X0078019Y0100110D01*
X0078271Y0100247D01*
X0078520Y0100389D01*
X0078766Y0100538D01*
X0079008Y0100692D01*
X0079246Y0100852D01*
X0079480Y0101018D01*
X0079710Y0101189D01*
X0079936Y0101366D01*
X0080158Y0101549D01*
X0080375Y0101736D01*
X0080587Y0101929D01*
X0080795Y0102127D01*
X0080998Y0102330D01*
X0081196Y0102538D01*
X0081389Y0102750D01*
X0081576Y0102967D01*
X0081759Y0103189D01*
X0081936Y0103415D01*
X0082107Y0103645D01*
X0082273Y0103879D01*
X0082433Y0104117D01*
X0082587Y0104359D01*
X0082736Y0104605D01*
X0082878Y0104854D01*
X0083015Y0105106D01*
X0083145Y0105362D01*
X0083269Y0105621D01*
X0083387Y0105883D01*
X0083498Y0106147D01*
X0083603Y0106414D01*
X0083702Y0106684D01*
X0083794Y0106955D01*
X0083879Y0107229D01*
X0083958Y0107505D01*
X0084030Y0107783D01*
X0084095Y0108063D01*
X0084154Y0108343D01*
X0084205Y0108626D01*
X0084250Y0108909D01*
X0084288Y0109194D01*
X0084320Y0109479D01*
X0084344Y0109765D01*
X0084361Y0110051D01*
X0084372Y0110338D01*
X0084375Y0110625D01*
X0084375Y0112500D02*
X0084378Y0112742D01*
X0084387Y0112983D01*
X0084401Y0113224D01*
X0084422Y0113465D01*
X0084448Y0113705D01*
X0084480Y0113945D01*
X0084518Y0114184D01*
X0084561Y0114421D01*
X0084611Y0114658D01*
X0084666Y0114893D01*
X0084726Y0115127D01*
X0084793Y0115359D01*
X0084864Y0115590D01*
X0084942Y0115819D01*
X0085025Y0116046D01*
X0085113Y0116271D01*
X0085207Y0116494D01*
X0085306Y0116714D01*
X0085411Y0116932D01*
X0085520Y0117147D01*
X0085635Y0117360D01*
X0085755Y0117570D01*
X0085880Y0117776D01*
X0086010Y0117980D01*
X0086145Y0118181D01*
X0086285Y0118378D01*
X0086429Y0118572D01*
X0086578Y0118762D01*
X0086732Y0118948D01*
X0086890Y0119131D01*
X0087052Y0119310D01*
X0087219Y0119485D01*
X0087390Y0119656D01*
X0087565Y0119823D01*
X0087744Y0119985D01*
X0087927Y0120143D01*
X0088113Y0120297D01*
X0088303Y0120446D01*
X0088497Y0120590D01*
X0088694Y0120730D01*
X0088895Y0120865D01*
X0089099Y0120995D01*
X0089305Y0121120D01*
X0089515Y0121240D01*
X0089728Y0121355D01*
X0089943Y0121464D01*
X0090161Y0121569D01*
X0090381Y0121668D01*
X0090604Y0121762D01*
X0090829Y0121850D01*
X0091056Y0121933D01*
X0091285Y0122011D01*
X0091516Y0122082D01*
X0091748Y0122149D01*
X0091982Y0122209D01*
X0092217Y0122264D01*
X0092454Y0122314D01*
X0092691Y0122357D01*
X0092930Y0122395D01*
X0093170Y0122427D01*
X0093410Y0122453D01*
X0093651Y0122474D01*
X0093892Y0122488D01*
X0094133Y0122497D01*
X0094375Y0122500D01*
X0140625Y0122500D01*
X0140791Y0122502D01*
X0140957Y0122508D01*
X0141123Y0122518D01*
X0141289Y0122532D01*
X0141454Y0122550D01*
X0141618Y0122572D01*
X0141782Y0122598D01*
X0141946Y0122628D01*
X0142109Y0122662D01*
X0142270Y0122700D01*
X0142431Y0122741D01*
X0142591Y0122787D01*
X0142749Y0122836D01*
X0142907Y0122890D01*
X0143063Y0122947D01*
X0143218Y0123008D01*
X0143371Y0123072D01*
X0143522Y0123140D01*
X0143672Y0123212D01*
X0143820Y0123287D01*
X0143966Y0123366D01*
X0144110Y0123449D01*
X0144253Y0123535D01*
X0144393Y0123624D01*
X0144530Y0123717D01*
X0144666Y0123813D01*
X0144799Y0123912D01*
X0144930Y0124015D01*
X0145058Y0124120D01*
X0145184Y0124229D01*
X0145307Y0124341D01*
X0145427Y0124455D01*
X0145545Y0124573D01*
X0145659Y0124693D01*
X0145771Y0124816D01*
X0145880Y0124942D01*
X0145985Y0125070D01*
X0146088Y0125201D01*
X0146187Y0125334D01*
X0146283Y0125470D01*
X0146376Y0125607D01*
X0146465Y0125747D01*
X0146551Y0125890D01*
X0146634Y0126034D01*
X0146713Y0126180D01*
X0146788Y0126328D01*
X0146860Y0126478D01*
X0146928Y0126629D01*
X0146992Y0126782D01*
X0147053Y0126937D01*
X0147110Y0127093D01*
X0147164Y0127251D01*
X0147213Y0127409D01*
X0147259Y0127569D01*
X0147300Y0127730D01*
X0147338Y0127891D01*
X0147372Y0128054D01*
X0147402Y0128218D01*
X0147428Y0128382D01*
X0147450Y0128546D01*
X0147468Y0128711D01*
X0147482Y0128877D01*
X0147492Y0129043D01*
X0147498Y0129209D01*
X0147500Y0129375D01*
X0147500Y0131250D01*
X0147498Y0131299D01*
X0147492Y0131348D01*
X0147483Y0131396D01*
X0147469Y0131443D01*
X0147452Y0131489D01*
X0147432Y0131534D01*
X0147408Y0131577D01*
X0147381Y0131617D01*
X0147350Y0131656D01*
X0147317Y0131692D01*
X0147281Y0131725D01*
X0147242Y0131756D01*
X0147202Y0131783D01*
X0147159Y0131807D01*
X0147114Y0131827D01*
X0147068Y0131844D01*
X0147021Y0131858D01*
X0146973Y0131867D01*
X0146924Y0131873D01*
X0146875Y0131875D01*
X0140858Y0145000D02*
X0087071Y0145000D01*
X0094224Y0150625D02*
X0131352Y0150625D01*
X0131613Y0150666D01*
X0131873Y0150713D01*
X0132132Y0150767D01*
X0132390Y0150826D01*
X0132646Y0150892D01*
X0132901Y0150965D01*
X0133154Y0151043D01*
X0133404Y0151127D01*
X0133653Y0151218D01*
X0133899Y0151314D01*
X0134143Y0151416D01*
X0134385Y0151524D01*
X0134624Y0151638D01*
X0134859Y0151758D01*
X0135092Y0151883D01*
X0135322Y0152014D01*
X0135549Y0152151D01*
X0135772Y0152293D01*
X0135992Y0152440D01*
X0136208Y0152592D01*
X0136421Y0152750D01*
X0136629Y0152913D01*
X0136834Y0153081D01*
X0137034Y0153253D01*
X0137230Y0153431D01*
X0137422Y0153613D01*
X0137610Y0153800D01*
X0137793Y0153991D01*
X0137971Y0154187D01*
X0138144Y0154386D01*
X0138313Y0154590D01*
X0138476Y0154798D01*
X0138635Y0155010D01*
X0138788Y0155226D01*
X0138936Y0155445D01*
X0139079Y0155668D01*
X0139216Y0155894D01*
X0139348Y0156123D01*
X0139474Y0156356D01*
X0139594Y0156591D01*
X0139709Y0156830D01*
X0139818Y0157071D01*
X0139921Y0157314D01*
X0140019Y0157561D01*
X0140110Y0157809D01*
X0140195Y0158059D01*
X0140274Y0158312D01*
X0140347Y0158566D01*
X0140414Y0158822D01*
X0140475Y0159080D01*
X0140529Y0159338D01*
X0140577Y0159599D01*
X0140619Y0159860D01*
X0140655Y0160122D01*
X0140684Y0160385D01*
X0140707Y0160648D01*
X0140723Y0160913D01*
X0140733Y0161177D01*
X0140737Y0161441D01*
X0140734Y0161706D01*
X0140725Y0161970D01*
X0140710Y0162235D01*
X0140688Y0162498D01*
X0140660Y0162761D01*
X0140625Y0163024D01*
X0147929Y0147929D02*
X0147759Y0147763D01*
X0147585Y0147600D01*
X0147407Y0147443D01*
X0147225Y0147289D01*
X0147040Y0147139D01*
X0146851Y0146995D01*
X0146659Y0146854D01*
X0146463Y0146719D01*
X0146264Y0146587D01*
X0146063Y0146461D01*
X0145858Y0146340D01*
X0145650Y0146223D01*
X0145440Y0146112D01*
X0145227Y0146005D01*
X0145012Y0145904D01*
X0144795Y0145807D01*
X0144575Y0145716D01*
X0144353Y0145631D01*
X0144129Y0145550D01*
X0143903Y0145475D01*
X0143675Y0145405D01*
X0143446Y0145341D01*
X0143216Y0145282D01*
X0142984Y0145229D01*
X0142751Y0145181D01*
X0142516Y0145138D01*
X0142281Y0145102D01*
X0142045Y0145071D01*
X0141809Y0145045D01*
X0141571Y0145025D01*
X0141334Y0145011D01*
X0141096Y0145003D01*
X0140858Y0145000D01*
X0147929Y0147929D02*
X0148050Y0148053D01*
X0148168Y0148180D01*
X0148283Y0148310D01*
X0148395Y0148443D01*
X0148503Y0148579D01*
X0148608Y0148717D01*
X0148710Y0148857D01*
X0148808Y0149001D01*
X0148903Y0149146D01*
X0148994Y0149294D01*
X0149081Y0149444D01*
X0149165Y0149596D01*
X0149245Y0149750D01*
X0149321Y0149906D01*
X0149393Y0150064D01*
X0149462Y0150223D01*
X0149526Y0150384D01*
X0149587Y0150547D01*
X0149643Y0150711D01*
X0149696Y0150876D01*
X0149744Y0151043D01*
X0149788Y0151211D01*
X0149828Y0151380D01*
X0149864Y0151550D01*
X0149896Y0151720D01*
X0149923Y0151891D01*
X0149947Y0152063D01*
X0149966Y0152236D01*
X0149981Y0152409D01*
X0149991Y0152582D01*
X0149998Y0152755D01*
X0150000Y0152929D01*
X0150000Y0159800D01*
X0153500Y0163300D01*
X0148090Y0171840D02*
X0147772Y0171672D01*
X0147459Y0171496D01*
X0147150Y0171313D01*
X0146845Y0171123D01*
X0146546Y0170925D01*
X0146250Y0170720D01*
X0145960Y0170509D01*
X0145675Y0170290D01*
X0145395Y0170065D01*
X0145121Y0169833D01*
X0144852Y0169595D01*
X0144589Y0169350D01*
X0144332Y0169099D01*
X0144081Y0168842D01*
X0143836Y0168579D01*
X0143597Y0168311D01*
X0143365Y0168037D01*
X0143140Y0167757D01*
X0142921Y0167472D01*
X0142709Y0167182D01*
X0142504Y0166887D01*
X0142306Y0166587D01*
X0142115Y0166283D01*
X0141932Y0165974D01*
X0141756Y0165661D01*
X0141587Y0165344D01*
X0141426Y0165023D01*
X0141273Y0164698D01*
X0141127Y0164369D01*
X0140990Y0164037D01*
X0140860Y0163702D01*
X0140738Y0163364D01*
X0140625Y0163024D01*
X0139375Y0173125D02*
X0100123Y0173125D01*
X0094224Y0150625D02*
X0093622Y0150632D01*
X0093021Y0150654D01*
X0092420Y0150689D01*
X0091820Y0150740D01*
X0091222Y0150804D01*
X0090625Y0150882D01*
X0090031Y0150975D01*
X0089438Y0151082D01*
X0088849Y0151203D01*
X0088262Y0151338D01*
X0087679Y0151487D01*
X0087100Y0151649D01*
X0086524Y0151826D01*
X0085953Y0152016D01*
X0085387Y0152219D01*
X0084826Y0152436D01*
X0084270Y0152667D01*
X0083719Y0152910D01*
X0083175Y0153167D01*
X0082637Y0153436D01*
X0082105Y0153718D01*
X0081581Y0154013D01*
X0081063Y0154320D01*
X0080553Y0154639D01*
X0080050Y0154971D01*
X0079556Y0155314D01*
X0079070Y0155669D01*
X0078593Y0156035D01*
X0078124Y0156413D01*
X0077665Y0156801D01*
X0077214Y0157201D01*
X0076774Y0157611D01*
X0076343Y0158031D01*
X0076343Y0158032D02*
X0074375Y0160000D01*
X0071250Y0160000D01*
X0071250Y0150000D02*
X0075000Y0150000D01*
X0075300Y0149707D01*
X0075607Y0149422D01*
X0075921Y0149145D01*
X0076241Y0148875D01*
X0076568Y0148613D01*
X0076902Y0148359D01*
X0077241Y0148114D01*
X0077587Y0147877D01*
X0077938Y0147649D01*
X0078295Y0147429D01*
X0078657Y0147218D01*
X0079024Y0147016D01*
X0079396Y0146823D01*
X0079772Y0146639D01*
X0080153Y0146465D01*
X0080538Y0146299D01*
X0080927Y0146144D01*
X0081320Y0145998D01*
X0081716Y0145862D01*
X0082116Y0145735D01*
X0082518Y0145618D01*
X0082923Y0145512D01*
X0083331Y0145415D01*
X0083741Y0145328D01*
X0084153Y0145251D01*
X0084566Y0145185D01*
X0084981Y0145128D01*
X0085398Y0145082D01*
X0085815Y0145046D01*
X0086233Y0145021D01*
X0086652Y0145005D01*
X0087071Y0145000D01*
X0093691Y0172488D02*
X0094397Y0172621D01*
X0095107Y0172739D01*
X0095819Y0172841D01*
X0096533Y0172928D01*
X0097249Y0172999D01*
X0097966Y0173054D01*
X0098685Y0173093D01*
X0099404Y0173117D01*
X0100123Y0173125D01*
X0093690Y0172488D02*
X0084668Y0170684D01*
X0085625Y0176875D02*
X0071250Y0180000D01*
X0071250Y0170000D02*
X0077764Y0170000D01*
X0090000Y0185000D02*
X0093500Y0185000D01*
X0090000Y0185000D02*
X0087172Y0188481D01*
X0081875Y0203400D02*
X0081875Y0208439D01*
X0084667Y0170684D02*
X0083909Y0170540D01*
X0083147Y0170414D01*
X0082383Y0170304D01*
X0081616Y0170211D01*
X0080848Y0170135D01*
X0080078Y0170076D01*
X0079308Y0170034D01*
X0078536Y0170008D01*
X0077764Y0170000D01*
X0087172Y0188481D02*
X0086814Y0188933D01*
X0086467Y0189393D01*
X0086131Y0189862D01*
X0085807Y0190339D01*
X0085495Y0190823D01*
X0085194Y0191315D01*
X0084906Y0191814D01*
X0084630Y0192320D01*
X0084366Y0192833D01*
X0084115Y0193352D01*
X0083876Y0193877D01*
X0083651Y0194407D01*
X0083438Y0194943D01*
X0083239Y0195484D01*
X0083052Y0196030D01*
X0082879Y0196580D01*
X0082720Y0197134D01*
X0082574Y0197692D01*
X0082442Y0198253D01*
X0082323Y0198817D01*
X0082218Y0199384D01*
X0082127Y0199953D01*
X0082050Y0200524D01*
X0081987Y0201098D01*
X0081938Y0201672D01*
X0081903Y0202247D01*
X0081882Y0202824D01*
X0081875Y0203400D01*
X0081875Y0208439D02*
X0081871Y0208750D01*
X0081860Y0209061D01*
X0081841Y0209372D01*
X0081815Y0209682D01*
X0081781Y0209991D01*
X0081740Y0210300D01*
X0081691Y0210607D01*
X0081635Y0210913D01*
X0081572Y0211218D01*
X0081501Y0211521D01*
X0081423Y0211822D01*
X0081338Y0212122D01*
X0081245Y0212419D01*
X0081145Y0212714D01*
X0081039Y0213006D01*
X0080925Y0213296D01*
X0080804Y0213582D01*
X0080676Y0213866D01*
X0080542Y0214147D01*
X0080401Y0214424D01*
X0080253Y0214698D01*
X0080098Y0214968D01*
X0079937Y0215235D01*
X0079770Y0215497D01*
X0079596Y0215755D01*
X0079417Y0216009D01*
X0079231Y0216259D01*
X0079039Y0216504D01*
X0078841Y0216744D01*
X0078638Y0216980D01*
X0078429Y0217210D01*
X0078214Y0217436D01*
X0077994Y0217656D01*
X0077769Y0217871D01*
X0077538Y0218080D01*
X0077303Y0218284D01*
X0077063Y0218481D01*
X0076818Y0218673D01*
X0076569Y0218860D01*
X0076569Y0218859D02*
X0075000Y0220000D01*
X0071250Y0220000D01*
X0110000Y0201250D02*
X0110000Y0185000D01*
X0157669Y0173750D02*
X0167097Y0173750D01*
X0180589Y0179339D02*
X0181875Y0180625D01*
X0185000Y0183500D01*
X0186500Y0185000D01*
X0180589Y0179338D02*
X0180253Y0179011D01*
X0179910Y0178693D01*
X0179560Y0178382D01*
X0179201Y0178081D01*
X0178836Y0177788D01*
X0178463Y0177505D01*
X0178083Y0177230D01*
X0177697Y0176966D01*
X0177305Y0176710D01*
X0176906Y0176465D01*
X0176501Y0176229D01*
X0176091Y0176003D01*
X0175676Y0175787D01*
X0175255Y0175582D01*
X0174829Y0175387D01*
X0174399Y0175202D01*
X0173964Y0175028D01*
X0173525Y0174865D01*
X0173082Y0174713D01*
X0172636Y0174572D01*
X0172186Y0174441D01*
X0171733Y0174322D01*
X0171277Y0174214D01*
X0170819Y0174117D01*
X0170359Y0174031D01*
X0169897Y0173957D01*
X0169433Y0173893D01*
X0168967Y0173842D01*
X0168501Y0173802D01*
X0168033Y0173773D01*
X0167565Y0173756D01*
X0167097Y0173750D01*
X0157669Y0173750D02*
X0157091Y0173743D01*
X0156513Y0173723D01*
X0155935Y0173690D01*
X0155359Y0173643D01*
X0154784Y0173583D01*
X0154210Y0173509D01*
X0153639Y0173423D01*
X0153069Y0173323D01*
X0152502Y0173210D01*
X0151937Y0173083D01*
X0151376Y0172944D01*
X0150818Y0172792D01*
X0150264Y0172627D01*
X0149714Y0172449D01*
X0149168Y0172259D01*
X0148626Y0172055D01*
X0148090Y0171840D01*
X0095026Y0075000D02*
X0094773Y0074997D01*
X0094520Y0074988D01*
X0094268Y0074973D01*
X0094016Y0074952D01*
X0093765Y0074925D01*
X0093514Y0074892D01*
X0093264Y0074853D01*
X0093015Y0074808D01*
X0092767Y0074757D01*
X0092521Y0074700D01*
X0092276Y0074638D01*
X0092033Y0074570D01*
X0091791Y0074495D01*
X0091551Y0074416D01*
X0091313Y0074330D01*
X0091077Y0074239D01*
X0090843Y0074142D01*
X0090612Y0074040D01*
X0090383Y0073932D01*
X0090157Y0073819D01*
X0089934Y0073700D01*
X0089713Y0073577D01*
X0089496Y0073447D01*
X0089282Y0073313D01*
X0089071Y0073174D01*
X0088863Y0073030D01*
X0088659Y0072881D01*
X0088458Y0072727D01*
X0088261Y0072568D01*
X0088068Y0072405D01*
X0087879Y0072237D01*
X0087694Y0072065D01*
X0087513Y0071888D01*
D24*
X0085625Y0176875D03*
D25*
X0190000Y0171500D03*
M02*
